%
M48
M72
T01C0.01378
T02C0.03937
%
T01
X142550Y250675
X151925Y250675
X161300Y250675
X170675Y250675
X136925Y232550
X128175Y232550
X128175Y238800
X130050Y224425
X133175Y221300
X137550Y220050
X141925Y220050
X146300Y220050
X137550Y225050
X123175Y223175
X118175Y223175
X113175Y223175
X132550Y206925
X136925Y206925
X141300Y206925
X145675Y206925
X156925Y210675
X156925Y215675
X163175Y215675
X163175Y210675
X171925Y205050
X178175Y212550
X199179Y181659
X199179Y174769
X203116Y172801
X203116Y165911
X193948Y168170
X190409Y165675
X181108Y173460
X181300Y178175
X174425Y178175
X157550Y170675
X152550Y165675
X155675Y160675
X150050Y149425
X142767Y148485
X141782Y160296
X133175Y174425
X135050Y181300
X145675Y182550
X149425Y178175
X135050Y198175
X123175Y203175
X118175Y203175
X113175Y203175
X118175Y188800
X118175Y181925
X121925Y172939
X119144Y151438
X125050Y128800
X144425Y128800
X166389Y133721
X166699Y139336
X167373Y150454
X184415Y155084
X197885Y143564
X205084Y139336
X197885Y126831
X184105Y135690
X170050Y119425
X165675Y119425
X148175Y102550
X137550Y86925
X126300Y66300
X160675Y86925
X172550Y76300
X182550Y76925
X183175Y72550
X183175Y66300
X188175Y73800
X198175Y94425
X222801Y139336
X238549Y139336
X236659Y165867
X221817Y165911
X221817Y171817
X228785Y188505
X235675Y201300
X226925Y204425
X213175Y213175
X211300Y226925
X225675Y229425
X238800Y229425
X253175Y230675
X257550Y232550
X256925Y218175
X260203Y215124
X265050Y213800
X271925Y213800
X275050Y201925
X281856Y182644
X279888Y174769
X264140Y174769
X279186Y158175
X300675Y139425
X308175Y126925
X295675Y89425
X259425Y105050
X265050Y130675
X296620Y183628
X300557Y187565
X295719Y193057
X300675Y223175
X296925Y230675
X293751Y239317
X283175Y229425
X275050Y248175
X281925Y255586
X280050Y264425
X270675Y275675
X283175Y276925
X298175Y278175
X253800Y278175
X237550Y277550
X238800Y248175
X308800Y227550
T02
X113175Y176925
X113175Y166925
X126925Y160675
X126925Y150675
X148175Y63175
X158175Y63175
X168175Y63175
X178175Y63175
X188175Y63175
X198175Y63175
X208175Y63175
X218175Y63175
X228175Y63175
X238175Y63175
X248175Y63175
X258175Y63175
X268175Y63175
X278175Y63175
X288175Y63175
M30
