G75*
%MOIN*%
%OFA0B0*%
%FSLAX25Y25*%
%IPPOS*%
%LPD*%
%AMOC8*
5,1,8,0,0,1.08239X$1,22.5*
%
%ADD10C,0.00001*%
%ADD11C,0.00200*%
%ADD12C,0.00800*%
%ADD13C,0.01000*%
%ADD14C,0.00500*%
%ADD15C,0.01969*%
%ADD16C,0.00591*%
%ADD17C,0.00400*%
D10*
X0030374Y0020000D02*
X0231161Y0020000D01*
X0231351Y0020002D01*
X0231541Y0020009D01*
X0231731Y0020021D01*
X0231921Y0020037D01*
X0232110Y0020057D01*
X0232299Y0020083D01*
X0232487Y0020112D01*
X0232674Y0020147D01*
X0232860Y0020186D01*
X0233045Y0020229D01*
X0233230Y0020277D01*
X0233413Y0020329D01*
X0233594Y0020385D01*
X0233774Y0020446D01*
X0233953Y0020512D01*
X0234130Y0020581D01*
X0234306Y0020655D01*
X0234479Y0020733D01*
X0234651Y0020816D01*
X0234820Y0020902D01*
X0234988Y0020992D01*
X0235153Y0021087D01*
X0235316Y0021185D01*
X0235476Y0021288D01*
X0235634Y0021394D01*
X0235789Y0021504D01*
X0235942Y0021617D01*
X0236092Y0021735D01*
X0236238Y0021856D01*
X0236382Y0021980D01*
X0236523Y0022108D01*
X0236661Y0022239D01*
X0236796Y0022374D01*
X0236927Y0022512D01*
X0237055Y0022653D01*
X0237179Y0022797D01*
X0237300Y0022943D01*
X0237418Y0023093D01*
X0237531Y0023246D01*
X0237641Y0023401D01*
X0237747Y0023559D01*
X0237850Y0023719D01*
X0237948Y0023882D01*
X0238043Y0024047D01*
X0238133Y0024215D01*
X0238219Y0024384D01*
X0238302Y0024556D01*
X0238380Y0024729D01*
X0238454Y0024905D01*
X0238523Y0025082D01*
X0238589Y0025261D01*
X0238650Y0025441D01*
X0238706Y0025622D01*
X0238758Y0025805D01*
X0238806Y0025990D01*
X0238849Y0026175D01*
X0238888Y0026361D01*
X0238923Y0026548D01*
X0238952Y0026736D01*
X0238978Y0026925D01*
X0238998Y0027114D01*
X0239014Y0027304D01*
X0239026Y0027494D01*
X0239033Y0027684D01*
X0239035Y0027874D01*
X0239035Y0130236D01*
X0226043Y0130236D02*
X0226045Y0130379D01*
X0226051Y0130522D01*
X0226061Y0130664D01*
X0226075Y0130806D01*
X0226093Y0130948D01*
X0226115Y0131090D01*
X0226140Y0131230D01*
X0226170Y0131370D01*
X0226204Y0131509D01*
X0226241Y0131647D01*
X0226283Y0131784D01*
X0226328Y0131919D01*
X0226377Y0132053D01*
X0226429Y0132186D01*
X0226485Y0132318D01*
X0226545Y0132447D01*
X0226609Y0132575D01*
X0226676Y0132702D01*
X0226747Y0132826D01*
X0226821Y0132948D01*
X0226898Y0133068D01*
X0226979Y0133186D01*
X0227063Y0133302D01*
X0227150Y0133415D01*
X0227240Y0133526D01*
X0227334Y0133634D01*
X0227430Y0133740D01*
X0227529Y0133842D01*
X0227632Y0133942D01*
X0227736Y0134039D01*
X0227844Y0134134D01*
X0227954Y0134225D01*
X0228067Y0134313D01*
X0228182Y0134397D01*
X0228299Y0134479D01*
X0228419Y0134557D01*
X0228540Y0134632D01*
X0228664Y0134704D01*
X0228790Y0134772D01*
X0228917Y0134836D01*
X0229047Y0134897D01*
X0229178Y0134954D01*
X0229310Y0135008D01*
X0229444Y0135057D01*
X0229579Y0135104D01*
X0229716Y0135146D01*
X0229854Y0135184D01*
X0229992Y0135219D01*
X0230132Y0135249D01*
X0230272Y0135276D01*
X0230413Y0135299D01*
X0230555Y0135318D01*
X0230697Y0135333D01*
X0230840Y0135344D01*
X0230982Y0135351D01*
X0231125Y0135354D01*
X0231268Y0135353D01*
X0231411Y0135348D01*
X0231554Y0135339D01*
X0231696Y0135326D01*
X0231838Y0135309D01*
X0231979Y0135288D01*
X0232120Y0135263D01*
X0232260Y0135235D01*
X0232399Y0135202D01*
X0232537Y0135165D01*
X0232674Y0135125D01*
X0232810Y0135081D01*
X0232945Y0135033D01*
X0233078Y0134981D01*
X0233210Y0134926D01*
X0233340Y0134867D01*
X0233469Y0134804D01*
X0233595Y0134738D01*
X0233720Y0134668D01*
X0233843Y0134595D01*
X0233963Y0134519D01*
X0234082Y0134439D01*
X0234198Y0134355D01*
X0234312Y0134269D01*
X0234423Y0134179D01*
X0234532Y0134087D01*
X0234638Y0133991D01*
X0234742Y0133893D01*
X0234843Y0133791D01*
X0234940Y0133687D01*
X0235035Y0133580D01*
X0235127Y0133471D01*
X0235216Y0133359D01*
X0235302Y0133244D01*
X0235384Y0133128D01*
X0235463Y0133008D01*
X0235539Y0132887D01*
X0235611Y0132764D01*
X0235680Y0132639D01*
X0235745Y0132512D01*
X0235807Y0132383D01*
X0235865Y0132252D01*
X0235920Y0132120D01*
X0235970Y0131986D01*
X0236017Y0131851D01*
X0236061Y0131715D01*
X0236100Y0131578D01*
X0236135Y0131439D01*
X0236167Y0131300D01*
X0236195Y0131160D01*
X0236219Y0131019D01*
X0236239Y0130877D01*
X0236255Y0130735D01*
X0236267Y0130593D01*
X0236275Y0130450D01*
X0236279Y0130307D01*
X0236279Y0130165D01*
X0236275Y0130022D01*
X0236267Y0129879D01*
X0236255Y0129737D01*
X0236239Y0129595D01*
X0236219Y0129453D01*
X0236195Y0129312D01*
X0236167Y0129172D01*
X0236135Y0129033D01*
X0236100Y0128894D01*
X0236061Y0128757D01*
X0236017Y0128621D01*
X0235970Y0128486D01*
X0235920Y0128352D01*
X0235865Y0128220D01*
X0235807Y0128089D01*
X0235745Y0127960D01*
X0235680Y0127833D01*
X0235611Y0127708D01*
X0235539Y0127585D01*
X0235463Y0127464D01*
X0235384Y0127344D01*
X0235302Y0127228D01*
X0235216Y0127113D01*
X0235127Y0127001D01*
X0235035Y0126892D01*
X0234940Y0126785D01*
X0234843Y0126681D01*
X0234742Y0126579D01*
X0234638Y0126481D01*
X0234532Y0126385D01*
X0234423Y0126293D01*
X0234312Y0126203D01*
X0234198Y0126117D01*
X0234082Y0126033D01*
X0233963Y0125953D01*
X0233843Y0125877D01*
X0233720Y0125804D01*
X0233595Y0125734D01*
X0233469Y0125668D01*
X0233340Y0125605D01*
X0233210Y0125546D01*
X0233078Y0125491D01*
X0232945Y0125439D01*
X0232810Y0125391D01*
X0232674Y0125347D01*
X0232537Y0125307D01*
X0232399Y0125270D01*
X0232260Y0125237D01*
X0232120Y0125209D01*
X0231979Y0125184D01*
X0231838Y0125163D01*
X0231696Y0125146D01*
X0231554Y0125133D01*
X0231411Y0125124D01*
X0231268Y0125119D01*
X0231125Y0125118D01*
X0230982Y0125121D01*
X0230840Y0125128D01*
X0230697Y0125139D01*
X0230555Y0125154D01*
X0230413Y0125173D01*
X0230272Y0125196D01*
X0230132Y0125223D01*
X0229992Y0125253D01*
X0229854Y0125288D01*
X0229716Y0125326D01*
X0229579Y0125368D01*
X0229444Y0125415D01*
X0229310Y0125464D01*
X0229178Y0125518D01*
X0229047Y0125575D01*
X0228917Y0125636D01*
X0228790Y0125700D01*
X0228664Y0125768D01*
X0228540Y0125840D01*
X0228419Y0125915D01*
X0228299Y0125993D01*
X0228182Y0126075D01*
X0228067Y0126159D01*
X0227954Y0126247D01*
X0227844Y0126338D01*
X0227736Y0126433D01*
X0227632Y0126530D01*
X0227529Y0126630D01*
X0227430Y0126732D01*
X0227334Y0126838D01*
X0227240Y0126946D01*
X0227150Y0127057D01*
X0227063Y0127170D01*
X0226979Y0127286D01*
X0226898Y0127404D01*
X0226821Y0127524D01*
X0226747Y0127646D01*
X0226676Y0127770D01*
X0226609Y0127897D01*
X0226545Y0128025D01*
X0226485Y0128154D01*
X0226429Y0128286D01*
X0226377Y0128419D01*
X0226328Y0128553D01*
X0226283Y0128688D01*
X0226241Y0128825D01*
X0226204Y0128963D01*
X0226170Y0129102D01*
X0226140Y0129242D01*
X0226115Y0129382D01*
X0226093Y0129524D01*
X0226075Y0129666D01*
X0226061Y0129808D01*
X0226051Y0129950D01*
X0226045Y0130093D01*
X0226043Y0130236D01*
X0231161Y0138110D02*
X0231351Y0138108D01*
X0231541Y0138101D01*
X0231731Y0138089D01*
X0231921Y0138073D01*
X0232110Y0138053D01*
X0232299Y0138027D01*
X0232487Y0137998D01*
X0232674Y0137963D01*
X0232860Y0137924D01*
X0233045Y0137881D01*
X0233230Y0137833D01*
X0233413Y0137781D01*
X0233594Y0137725D01*
X0233774Y0137664D01*
X0233953Y0137598D01*
X0234130Y0137529D01*
X0234306Y0137455D01*
X0234479Y0137377D01*
X0234651Y0137294D01*
X0234820Y0137208D01*
X0234988Y0137118D01*
X0235153Y0137023D01*
X0235316Y0136925D01*
X0235476Y0136822D01*
X0235634Y0136716D01*
X0235789Y0136606D01*
X0235942Y0136493D01*
X0236092Y0136375D01*
X0236238Y0136254D01*
X0236382Y0136130D01*
X0236523Y0136002D01*
X0236661Y0135871D01*
X0236796Y0135736D01*
X0236927Y0135598D01*
X0237055Y0135457D01*
X0237179Y0135313D01*
X0237300Y0135167D01*
X0237418Y0135017D01*
X0237531Y0134864D01*
X0237641Y0134709D01*
X0237747Y0134551D01*
X0237850Y0134391D01*
X0237948Y0134228D01*
X0238043Y0134063D01*
X0238133Y0133895D01*
X0238219Y0133726D01*
X0238302Y0133554D01*
X0238380Y0133381D01*
X0238454Y0133205D01*
X0238523Y0133028D01*
X0238589Y0132849D01*
X0238650Y0132669D01*
X0238706Y0132488D01*
X0238758Y0132305D01*
X0238806Y0132120D01*
X0238849Y0131935D01*
X0238888Y0131749D01*
X0238923Y0131562D01*
X0238952Y0131374D01*
X0238978Y0131185D01*
X0238998Y0130996D01*
X0239014Y0130806D01*
X0239026Y0130616D01*
X0239033Y0130426D01*
X0239035Y0130236D01*
X0231161Y0138110D02*
X0030374Y0138110D01*
X0025256Y0130236D02*
X0025258Y0130379D01*
X0025264Y0130522D01*
X0025274Y0130664D01*
X0025288Y0130806D01*
X0025306Y0130948D01*
X0025328Y0131090D01*
X0025353Y0131230D01*
X0025383Y0131370D01*
X0025417Y0131509D01*
X0025454Y0131647D01*
X0025496Y0131784D01*
X0025541Y0131919D01*
X0025590Y0132053D01*
X0025642Y0132186D01*
X0025698Y0132318D01*
X0025758Y0132447D01*
X0025822Y0132575D01*
X0025889Y0132702D01*
X0025960Y0132826D01*
X0026034Y0132948D01*
X0026111Y0133068D01*
X0026192Y0133186D01*
X0026276Y0133302D01*
X0026363Y0133415D01*
X0026453Y0133526D01*
X0026547Y0133634D01*
X0026643Y0133740D01*
X0026742Y0133842D01*
X0026845Y0133942D01*
X0026949Y0134039D01*
X0027057Y0134134D01*
X0027167Y0134225D01*
X0027280Y0134313D01*
X0027395Y0134397D01*
X0027512Y0134479D01*
X0027632Y0134557D01*
X0027753Y0134632D01*
X0027877Y0134704D01*
X0028003Y0134772D01*
X0028130Y0134836D01*
X0028260Y0134897D01*
X0028391Y0134954D01*
X0028523Y0135008D01*
X0028657Y0135057D01*
X0028792Y0135104D01*
X0028929Y0135146D01*
X0029067Y0135184D01*
X0029205Y0135219D01*
X0029345Y0135249D01*
X0029485Y0135276D01*
X0029626Y0135299D01*
X0029768Y0135318D01*
X0029910Y0135333D01*
X0030053Y0135344D01*
X0030195Y0135351D01*
X0030338Y0135354D01*
X0030481Y0135353D01*
X0030624Y0135348D01*
X0030767Y0135339D01*
X0030909Y0135326D01*
X0031051Y0135309D01*
X0031192Y0135288D01*
X0031333Y0135263D01*
X0031473Y0135235D01*
X0031612Y0135202D01*
X0031750Y0135165D01*
X0031887Y0135125D01*
X0032023Y0135081D01*
X0032158Y0135033D01*
X0032291Y0134981D01*
X0032423Y0134926D01*
X0032553Y0134867D01*
X0032682Y0134804D01*
X0032808Y0134738D01*
X0032933Y0134668D01*
X0033056Y0134595D01*
X0033176Y0134519D01*
X0033295Y0134439D01*
X0033411Y0134355D01*
X0033525Y0134269D01*
X0033636Y0134179D01*
X0033745Y0134087D01*
X0033851Y0133991D01*
X0033955Y0133893D01*
X0034056Y0133791D01*
X0034153Y0133687D01*
X0034248Y0133580D01*
X0034340Y0133471D01*
X0034429Y0133359D01*
X0034515Y0133244D01*
X0034597Y0133128D01*
X0034676Y0133008D01*
X0034752Y0132887D01*
X0034824Y0132764D01*
X0034893Y0132639D01*
X0034958Y0132512D01*
X0035020Y0132383D01*
X0035078Y0132252D01*
X0035133Y0132120D01*
X0035183Y0131986D01*
X0035230Y0131851D01*
X0035274Y0131715D01*
X0035313Y0131578D01*
X0035348Y0131439D01*
X0035380Y0131300D01*
X0035408Y0131160D01*
X0035432Y0131019D01*
X0035452Y0130877D01*
X0035468Y0130735D01*
X0035480Y0130593D01*
X0035488Y0130450D01*
X0035492Y0130307D01*
X0035492Y0130165D01*
X0035488Y0130022D01*
X0035480Y0129879D01*
X0035468Y0129737D01*
X0035452Y0129595D01*
X0035432Y0129453D01*
X0035408Y0129312D01*
X0035380Y0129172D01*
X0035348Y0129033D01*
X0035313Y0128894D01*
X0035274Y0128757D01*
X0035230Y0128621D01*
X0035183Y0128486D01*
X0035133Y0128352D01*
X0035078Y0128220D01*
X0035020Y0128089D01*
X0034958Y0127960D01*
X0034893Y0127833D01*
X0034824Y0127708D01*
X0034752Y0127585D01*
X0034676Y0127464D01*
X0034597Y0127344D01*
X0034515Y0127228D01*
X0034429Y0127113D01*
X0034340Y0127001D01*
X0034248Y0126892D01*
X0034153Y0126785D01*
X0034056Y0126681D01*
X0033955Y0126579D01*
X0033851Y0126481D01*
X0033745Y0126385D01*
X0033636Y0126293D01*
X0033525Y0126203D01*
X0033411Y0126117D01*
X0033295Y0126033D01*
X0033176Y0125953D01*
X0033056Y0125877D01*
X0032933Y0125804D01*
X0032808Y0125734D01*
X0032682Y0125668D01*
X0032553Y0125605D01*
X0032423Y0125546D01*
X0032291Y0125491D01*
X0032158Y0125439D01*
X0032023Y0125391D01*
X0031887Y0125347D01*
X0031750Y0125307D01*
X0031612Y0125270D01*
X0031473Y0125237D01*
X0031333Y0125209D01*
X0031192Y0125184D01*
X0031051Y0125163D01*
X0030909Y0125146D01*
X0030767Y0125133D01*
X0030624Y0125124D01*
X0030481Y0125119D01*
X0030338Y0125118D01*
X0030195Y0125121D01*
X0030053Y0125128D01*
X0029910Y0125139D01*
X0029768Y0125154D01*
X0029626Y0125173D01*
X0029485Y0125196D01*
X0029345Y0125223D01*
X0029205Y0125253D01*
X0029067Y0125288D01*
X0028929Y0125326D01*
X0028792Y0125368D01*
X0028657Y0125415D01*
X0028523Y0125464D01*
X0028391Y0125518D01*
X0028260Y0125575D01*
X0028130Y0125636D01*
X0028003Y0125700D01*
X0027877Y0125768D01*
X0027753Y0125840D01*
X0027632Y0125915D01*
X0027512Y0125993D01*
X0027395Y0126075D01*
X0027280Y0126159D01*
X0027167Y0126247D01*
X0027057Y0126338D01*
X0026949Y0126433D01*
X0026845Y0126530D01*
X0026742Y0126630D01*
X0026643Y0126732D01*
X0026547Y0126838D01*
X0026453Y0126946D01*
X0026363Y0127057D01*
X0026276Y0127170D01*
X0026192Y0127286D01*
X0026111Y0127404D01*
X0026034Y0127524D01*
X0025960Y0127646D01*
X0025889Y0127770D01*
X0025822Y0127897D01*
X0025758Y0128025D01*
X0025698Y0128154D01*
X0025642Y0128286D01*
X0025590Y0128419D01*
X0025541Y0128553D01*
X0025496Y0128688D01*
X0025454Y0128825D01*
X0025417Y0128963D01*
X0025383Y0129102D01*
X0025353Y0129242D01*
X0025328Y0129382D01*
X0025306Y0129524D01*
X0025288Y0129666D01*
X0025274Y0129808D01*
X0025264Y0129950D01*
X0025258Y0130093D01*
X0025256Y0130236D01*
X0022500Y0130236D02*
X0022500Y0027874D01*
X0025256Y0027874D02*
X0025258Y0028017D01*
X0025264Y0028160D01*
X0025274Y0028302D01*
X0025288Y0028444D01*
X0025306Y0028586D01*
X0025328Y0028728D01*
X0025353Y0028868D01*
X0025383Y0029008D01*
X0025417Y0029147D01*
X0025454Y0029285D01*
X0025496Y0029422D01*
X0025541Y0029557D01*
X0025590Y0029691D01*
X0025642Y0029824D01*
X0025698Y0029956D01*
X0025758Y0030085D01*
X0025822Y0030213D01*
X0025889Y0030340D01*
X0025960Y0030464D01*
X0026034Y0030586D01*
X0026111Y0030706D01*
X0026192Y0030824D01*
X0026276Y0030940D01*
X0026363Y0031053D01*
X0026453Y0031164D01*
X0026547Y0031272D01*
X0026643Y0031378D01*
X0026742Y0031480D01*
X0026845Y0031580D01*
X0026949Y0031677D01*
X0027057Y0031772D01*
X0027167Y0031863D01*
X0027280Y0031951D01*
X0027395Y0032035D01*
X0027512Y0032117D01*
X0027632Y0032195D01*
X0027753Y0032270D01*
X0027877Y0032342D01*
X0028003Y0032410D01*
X0028130Y0032474D01*
X0028260Y0032535D01*
X0028391Y0032592D01*
X0028523Y0032646D01*
X0028657Y0032695D01*
X0028792Y0032742D01*
X0028929Y0032784D01*
X0029067Y0032822D01*
X0029205Y0032857D01*
X0029345Y0032887D01*
X0029485Y0032914D01*
X0029626Y0032937D01*
X0029768Y0032956D01*
X0029910Y0032971D01*
X0030053Y0032982D01*
X0030195Y0032989D01*
X0030338Y0032992D01*
X0030481Y0032991D01*
X0030624Y0032986D01*
X0030767Y0032977D01*
X0030909Y0032964D01*
X0031051Y0032947D01*
X0031192Y0032926D01*
X0031333Y0032901D01*
X0031473Y0032873D01*
X0031612Y0032840D01*
X0031750Y0032803D01*
X0031887Y0032763D01*
X0032023Y0032719D01*
X0032158Y0032671D01*
X0032291Y0032619D01*
X0032423Y0032564D01*
X0032553Y0032505D01*
X0032682Y0032442D01*
X0032808Y0032376D01*
X0032933Y0032306D01*
X0033056Y0032233D01*
X0033176Y0032157D01*
X0033295Y0032077D01*
X0033411Y0031993D01*
X0033525Y0031907D01*
X0033636Y0031817D01*
X0033745Y0031725D01*
X0033851Y0031629D01*
X0033955Y0031531D01*
X0034056Y0031429D01*
X0034153Y0031325D01*
X0034248Y0031218D01*
X0034340Y0031109D01*
X0034429Y0030997D01*
X0034515Y0030882D01*
X0034597Y0030766D01*
X0034676Y0030646D01*
X0034752Y0030525D01*
X0034824Y0030402D01*
X0034893Y0030277D01*
X0034958Y0030150D01*
X0035020Y0030021D01*
X0035078Y0029890D01*
X0035133Y0029758D01*
X0035183Y0029624D01*
X0035230Y0029489D01*
X0035274Y0029353D01*
X0035313Y0029216D01*
X0035348Y0029077D01*
X0035380Y0028938D01*
X0035408Y0028798D01*
X0035432Y0028657D01*
X0035452Y0028515D01*
X0035468Y0028373D01*
X0035480Y0028231D01*
X0035488Y0028088D01*
X0035492Y0027945D01*
X0035492Y0027803D01*
X0035488Y0027660D01*
X0035480Y0027517D01*
X0035468Y0027375D01*
X0035452Y0027233D01*
X0035432Y0027091D01*
X0035408Y0026950D01*
X0035380Y0026810D01*
X0035348Y0026671D01*
X0035313Y0026532D01*
X0035274Y0026395D01*
X0035230Y0026259D01*
X0035183Y0026124D01*
X0035133Y0025990D01*
X0035078Y0025858D01*
X0035020Y0025727D01*
X0034958Y0025598D01*
X0034893Y0025471D01*
X0034824Y0025346D01*
X0034752Y0025223D01*
X0034676Y0025102D01*
X0034597Y0024982D01*
X0034515Y0024866D01*
X0034429Y0024751D01*
X0034340Y0024639D01*
X0034248Y0024530D01*
X0034153Y0024423D01*
X0034056Y0024319D01*
X0033955Y0024217D01*
X0033851Y0024119D01*
X0033745Y0024023D01*
X0033636Y0023931D01*
X0033525Y0023841D01*
X0033411Y0023755D01*
X0033295Y0023671D01*
X0033176Y0023591D01*
X0033056Y0023515D01*
X0032933Y0023442D01*
X0032808Y0023372D01*
X0032682Y0023306D01*
X0032553Y0023243D01*
X0032423Y0023184D01*
X0032291Y0023129D01*
X0032158Y0023077D01*
X0032023Y0023029D01*
X0031887Y0022985D01*
X0031750Y0022945D01*
X0031612Y0022908D01*
X0031473Y0022875D01*
X0031333Y0022847D01*
X0031192Y0022822D01*
X0031051Y0022801D01*
X0030909Y0022784D01*
X0030767Y0022771D01*
X0030624Y0022762D01*
X0030481Y0022757D01*
X0030338Y0022756D01*
X0030195Y0022759D01*
X0030053Y0022766D01*
X0029910Y0022777D01*
X0029768Y0022792D01*
X0029626Y0022811D01*
X0029485Y0022834D01*
X0029345Y0022861D01*
X0029205Y0022891D01*
X0029067Y0022926D01*
X0028929Y0022964D01*
X0028792Y0023006D01*
X0028657Y0023053D01*
X0028523Y0023102D01*
X0028391Y0023156D01*
X0028260Y0023213D01*
X0028130Y0023274D01*
X0028003Y0023338D01*
X0027877Y0023406D01*
X0027753Y0023478D01*
X0027632Y0023553D01*
X0027512Y0023631D01*
X0027395Y0023713D01*
X0027280Y0023797D01*
X0027167Y0023885D01*
X0027057Y0023976D01*
X0026949Y0024071D01*
X0026845Y0024168D01*
X0026742Y0024268D01*
X0026643Y0024370D01*
X0026547Y0024476D01*
X0026453Y0024584D01*
X0026363Y0024695D01*
X0026276Y0024808D01*
X0026192Y0024924D01*
X0026111Y0025042D01*
X0026034Y0025162D01*
X0025960Y0025284D01*
X0025889Y0025408D01*
X0025822Y0025535D01*
X0025758Y0025663D01*
X0025698Y0025792D01*
X0025642Y0025924D01*
X0025590Y0026057D01*
X0025541Y0026191D01*
X0025496Y0026326D01*
X0025454Y0026463D01*
X0025417Y0026601D01*
X0025383Y0026740D01*
X0025353Y0026880D01*
X0025328Y0027020D01*
X0025306Y0027162D01*
X0025288Y0027304D01*
X0025274Y0027446D01*
X0025264Y0027588D01*
X0025258Y0027731D01*
X0025256Y0027874D01*
X0022500Y0027874D02*
X0022502Y0027684D01*
X0022509Y0027494D01*
X0022521Y0027304D01*
X0022537Y0027114D01*
X0022557Y0026925D01*
X0022583Y0026736D01*
X0022612Y0026548D01*
X0022647Y0026361D01*
X0022686Y0026175D01*
X0022729Y0025990D01*
X0022777Y0025805D01*
X0022829Y0025622D01*
X0022885Y0025441D01*
X0022946Y0025261D01*
X0023012Y0025082D01*
X0023081Y0024905D01*
X0023155Y0024729D01*
X0023233Y0024556D01*
X0023316Y0024384D01*
X0023402Y0024215D01*
X0023492Y0024047D01*
X0023587Y0023882D01*
X0023685Y0023719D01*
X0023788Y0023559D01*
X0023894Y0023401D01*
X0024004Y0023246D01*
X0024117Y0023093D01*
X0024235Y0022943D01*
X0024356Y0022797D01*
X0024480Y0022653D01*
X0024608Y0022512D01*
X0024739Y0022374D01*
X0024874Y0022239D01*
X0025012Y0022108D01*
X0025153Y0021980D01*
X0025297Y0021856D01*
X0025443Y0021735D01*
X0025593Y0021617D01*
X0025746Y0021504D01*
X0025901Y0021394D01*
X0026059Y0021288D01*
X0026219Y0021185D01*
X0026382Y0021087D01*
X0026547Y0020992D01*
X0026715Y0020902D01*
X0026884Y0020816D01*
X0027056Y0020733D01*
X0027229Y0020655D01*
X0027405Y0020581D01*
X0027582Y0020512D01*
X0027761Y0020446D01*
X0027941Y0020385D01*
X0028122Y0020329D01*
X0028305Y0020277D01*
X0028490Y0020229D01*
X0028675Y0020186D01*
X0028861Y0020147D01*
X0029048Y0020112D01*
X0029236Y0020083D01*
X0029425Y0020057D01*
X0029614Y0020037D01*
X0029804Y0020021D01*
X0029994Y0020009D01*
X0030184Y0020002D01*
X0030374Y0020000D01*
X0022500Y0130236D02*
X0022502Y0130426D01*
X0022509Y0130616D01*
X0022521Y0130806D01*
X0022537Y0130996D01*
X0022557Y0131185D01*
X0022583Y0131374D01*
X0022612Y0131562D01*
X0022647Y0131749D01*
X0022686Y0131935D01*
X0022729Y0132120D01*
X0022777Y0132305D01*
X0022829Y0132488D01*
X0022885Y0132669D01*
X0022946Y0132849D01*
X0023012Y0133028D01*
X0023081Y0133205D01*
X0023155Y0133381D01*
X0023233Y0133554D01*
X0023316Y0133726D01*
X0023402Y0133895D01*
X0023492Y0134063D01*
X0023587Y0134228D01*
X0023685Y0134391D01*
X0023788Y0134551D01*
X0023894Y0134709D01*
X0024004Y0134864D01*
X0024117Y0135017D01*
X0024235Y0135167D01*
X0024356Y0135313D01*
X0024480Y0135457D01*
X0024608Y0135598D01*
X0024739Y0135736D01*
X0024874Y0135871D01*
X0025012Y0136002D01*
X0025153Y0136130D01*
X0025297Y0136254D01*
X0025443Y0136375D01*
X0025593Y0136493D01*
X0025746Y0136606D01*
X0025901Y0136716D01*
X0026059Y0136822D01*
X0026219Y0136925D01*
X0026382Y0137023D01*
X0026547Y0137118D01*
X0026715Y0137208D01*
X0026884Y0137294D01*
X0027056Y0137377D01*
X0027229Y0137455D01*
X0027405Y0137529D01*
X0027582Y0137598D01*
X0027761Y0137664D01*
X0027941Y0137725D01*
X0028122Y0137781D01*
X0028305Y0137833D01*
X0028490Y0137881D01*
X0028675Y0137924D01*
X0028861Y0137963D01*
X0029048Y0137998D01*
X0029236Y0138027D01*
X0029425Y0138053D01*
X0029614Y0138073D01*
X0029804Y0138089D01*
X0029994Y0138101D01*
X0030184Y0138108D01*
X0030374Y0138110D01*
X0182736Y0051496D02*
X0182738Y0051639D01*
X0182744Y0051782D01*
X0182754Y0051924D01*
X0182768Y0052066D01*
X0182786Y0052208D01*
X0182808Y0052350D01*
X0182833Y0052490D01*
X0182863Y0052630D01*
X0182897Y0052769D01*
X0182934Y0052907D01*
X0182976Y0053044D01*
X0183021Y0053179D01*
X0183070Y0053313D01*
X0183122Y0053446D01*
X0183178Y0053578D01*
X0183238Y0053707D01*
X0183302Y0053835D01*
X0183369Y0053962D01*
X0183440Y0054086D01*
X0183514Y0054208D01*
X0183591Y0054328D01*
X0183672Y0054446D01*
X0183756Y0054562D01*
X0183843Y0054675D01*
X0183933Y0054786D01*
X0184027Y0054894D01*
X0184123Y0055000D01*
X0184222Y0055102D01*
X0184325Y0055202D01*
X0184429Y0055299D01*
X0184537Y0055394D01*
X0184647Y0055485D01*
X0184760Y0055573D01*
X0184875Y0055657D01*
X0184992Y0055739D01*
X0185112Y0055817D01*
X0185233Y0055892D01*
X0185357Y0055964D01*
X0185483Y0056032D01*
X0185610Y0056096D01*
X0185740Y0056157D01*
X0185871Y0056214D01*
X0186003Y0056268D01*
X0186137Y0056317D01*
X0186272Y0056364D01*
X0186409Y0056406D01*
X0186547Y0056444D01*
X0186685Y0056479D01*
X0186825Y0056509D01*
X0186965Y0056536D01*
X0187106Y0056559D01*
X0187248Y0056578D01*
X0187390Y0056593D01*
X0187533Y0056604D01*
X0187675Y0056611D01*
X0187818Y0056614D01*
X0187961Y0056613D01*
X0188104Y0056608D01*
X0188247Y0056599D01*
X0188389Y0056586D01*
X0188531Y0056569D01*
X0188672Y0056548D01*
X0188813Y0056523D01*
X0188953Y0056495D01*
X0189092Y0056462D01*
X0189230Y0056425D01*
X0189367Y0056385D01*
X0189503Y0056341D01*
X0189638Y0056293D01*
X0189771Y0056241D01*
X0189903Y0056186D01*
X0190033Y0056127D01*
X0190162Y0056064D01*
X0190288Y0055998D01*
X0190413Y0055928D01*
X0190536Y0055855D01*
X0190656Y0055779D01*
X0190775Y0055699D01*
X0190891Y0055615D01*
X0191005Y0055529D01*
X0191116Y0055439D01*
X0191225Y0055347D01*
X0191331Y0055251D01*
X0191435Y0055153D01*
X0191536Y0055051D01*
X0191633Y0054947D01*
X0191728Y0054840D01*
X0191820Y0054731D01*
X0191909Y0054619D01*
X0191995Y0054504D01*
X0192077Y0054388D01*
X0192156Y0054268D01*
X0192232Y0054147D01*
X0192304Y0054024D01*
X0192373Y0053899D01*
X0192438Y0053772D01*
X0192500Y0053643D01*
X0192558Y0053512D01*
X0192613Y0053380D01*
X0192663Y0053246D01*
X0192710Y0053111D01*
X0192754Y0052975D01*
X0192793Y0052838D01*
X0192828Y0052699D01*
X0192860Y0052560D01*
X0192888Y0052420D01*
X0192912Y0052279D01*
X0192932Y0052137D01*
X0192948Y0051995D01*
X0192960Y0051853D01*
X0192968Y0051710D01*
X0192972Y0051567D01*
X0192972Y0051425D01*
X0192968Y0051282D01*
X0192960Y0051139D01*
X0192948Y0050997D01*
X0192932Y0050855D01*
X0192912Y0050713D01*
X0192888Y0050572D01*
X0192860Y0050432D01*
X0192828Y0050293D01*
X0192793Y0050154D01*
X0192754Y0050017D01*
X0192710Y0049881D01*
X0192663Y0049746D01*
X0192613Y0049612D01*
X0192558Y0049480D01*
X0192500Y0049349D01*
X0192438Y0049220D01*
X0192373Y0049093D01*
X0192304Y0048968D01*
X0192232Y0048845D01*
X0192156Y0048724D01*
X0192077Y0048604D01*
X0191995Y0048488D01*
X0191909Y0048373D01*
X0191820Y0048261D01*
X0191728Y0048152D01*
X0191633Y0048045D01*
X0191536Y0047941D01*
X0191435Y0047839D01*
X0191331Y0047741D01*
X0191225Y0047645D01*
X0191116Y0047553D01*
X0191005Y0047463D01*
X0190891Y0047377D01*
X0190775Y0047293D01*
X0190656Y0047213D01*
X0190536Y0047137D01*
X0190413Y0047064D01*
X0190288Y0046994D01*
X0190162Y0046928D01*
X0190033Y0046865D01*
X0189903Y0046806D01*
X0189771Y0046751D01*
X0189638Y0046699D01*
X0189503Y0046651D01*
X0189367Y0046607D01*
X0189230Y0046567D01*
X0189092Y0046530D01*
X0188953Y0046497D01*
X0188813Y0046469D01*
X0188672Y0046444D01*
X0188531Y0046423D01*
X0188389Y0046406D01*
X0188247Y0046393D01*
X0188104Y0046384D01*
X0187961Y0046379D01*
X0187818Y0046378D01*
X0187675Y0046381D01*
X0187533Y0046388D01*
X0187390Y0046399D01*
X0187248Y0046414D01*
X0187106Y0046433D01*
X0186965Y0046456D01*
X0186825Y0046483D01*
X0186685Y0046513D01*
X0186547Y0046548D01*
X0186409Y0046586D01*
X0186272Y0046628D01*
X0186137Y0046675D01*
X0186003Y0046724D01*
X0185871Y0046778D01*
X0185740Y0046835D01*
X0185610Y0046896D01*
X0185483Y0046960D01*
X0185357Y0047028D01*
X0185233Y0047100D01*
X0185112Y0047175D01*
X0184992Y0047253D01*
X0184875Y0047335D01*
X0184760Y0047419D01*
X0184647Y0047507D01*
X0184537Y0047598D01*
X0184429Y0047693D01*
X0184325Y0047790D01*
X0184222Y0047890D01*
X0184123Y0047992D01*
X0184027Y0048098D01*
X0183933Y0048206D01*
X0183843Y0048317D01*
X0183756Y0048430D01*
X0183672Y0048546D01*
X0183591Y0048664D01*
X0183514Y0048784D01*
X0183440Y0048906D01*
X0183369Y0049030D01*
X0183302Y0049157D01*
X0183238Y0049285D01*
X0183178Y0049414D01*
X0183122Y0049546D01*
X0183070Y0049679D01*
X0183021Y0049813D01*
X0182976Y0049948D01*
X0182934Y0050085D01*
X0182897Y0050223D01*
X0182863Y0050362D01*
X0182833Y0050502D01*
X0182808Y0050642D01*
X0182786Y0050784D01*
X0182768Y0050926D01*
X0182754Y0051068D01*
X0182744Y0051210D01*
X0182738Y0051353D01*
X0182736Y0051496D01*
D11*
X0182558Y0062845D02*
X0181090Y0062845D01*
X0180723Y0063212D01*
X0180723Y0063946D01*
X0181090Y0064313D01*
X0181090Y0065055D02*
X0180723Y0065422D01*
X0180723Y0066156D01*
X0181090Y0066523D01*
X0181457Y0066523D01*
X0182925Y0065055D01*
X0182925Y0066523D01*
X0181824Y0067265D02*
X0181824Y0068733D01*
X0182925Y0068366D02*
X0180723Y0068366D01*
X0181824Y0067265D01*
X0182558Y0064313D02*
X0182925Y0063946D01*
X0182925Y0063212D01*
X0182558Y0062845D01*
X0186640Y0067200D02*
X0188108Y0067200D01*
X0188850Y0067200D02*
X0190318Y0068668D01*
X0190318Y0069035D01*
X0189951Y0069402D01*
X0189217Y0069402D01*
X0188850Y0069035D01*
X0188850Y0067200D02*
X0190318Y0067200D01*
X0193223Y0067632D02*
X0193223Y0068366D01*
X0193590Y0068733D01*
X0193957Y0068733D01*
X0194324Y0068366D01*
X0194691Y0068733D01*
X0195058Y0068733D01*
X0195425Y0068366D01*
X0195425Y0067632D01*
X0195058Y0067265D01*
X0195425Y0066523D02*
X0195425Y0065055D01*
X0193957Y0066523D01*
X0193590Y0066523D01*
X0193223Y0066156D01*
X0193223Y0065422D01*
X0193590Y0065055D01*
X0193590Y0064313D02*
X0193223Y0063946D01*
X0193223Y0063212D01*
X0193590Y0062845D01*
X0195058Y0062845D01*
X0195425Y0063212D01*
X0195425Y0063946D01*
X0195058Y0064313D01*
X0193590Y0067265D02*
X0193223Y0067632D01*
X0194324Y0067999D02*
X0194324Y0068366D01*
X0186640Y0069402D02*
X0186640Y0067200D01*
X0208323Y0086717D02*
X0208690Y0086350D01*
X0210158Y0086350D01*
X0210525Y0086717D01*
X0210525Y0087451D01*
X0210158Y0087818D01*
X0210158Y0088560D02*
X0210525Y0088927D01*
X0210525Y0089661D01*
X0210158Y0090028D01*
X0208690Y0090028D01*
X0208323Y0089661D01*
X0208323Y0088927D01*
X0208690Y0088560D01*
X0209057Y0088560D01*
X0209424Y0088927D01*
X0209424Y0090028D01*
X0211448Y0089294D02*
X0213650Y0089294D01*
X0213650Y0088560D02*
X0213650Y0090028D01*
X0213283Y0090770D02*
X0213650Y0091137D01*
X0213650Y0091871D01*
X0213283Y0092238D01*
X0211815Y0092238D01*
X0211448Y0091871D01*
X0211448Y0091137D01*
X0211815Y0090770D01*
X0212182Y0090770D01*
X0212549Y0091137D01*
X0212549Y0092238D01*
X0214573Y0091871D02*
X0214940Y0092238D01*
X0216408Y0090770D01*
X0216775Y0091137D01*
X0216775Y0091871D01*
X0216408Y0092238D01*
X0214940Y0092238D01*
X0214573Y0091871D02*
X0214573Y0091137D01*
X0214940Y0090770D01*
X0216408Y0090770D01*
X0216775Y0090028D02*
X0216775Y0088560D01*
X0215307Y0090028D01*
X0214940Y0090028D01*
X0214573Y0089661D01*
X0214573Y0088927D01*
X0214940Y0088560D01*
X0214940Y0087818D02*
X0214573Y0087451D01*
X0214573Y0086717D01*
X0214940Y0086350D01*
X0216408Y0086350D01*
X0216775Y0086717D01*
X0216775Y0087451D01*
X0216408Y0087818D01*
X0217698Y0087451D02*
X0217698Y0086717D01*
X0218065Y0086350D01*
X0219533Y0086350D01*
X0219900Y0086717D01*
X0219900Y0087451D01*
X0219533Y0087818D01*
X0219900Y0088560D02*
X0219900Y0090028D01*
X0219900Y0089294D02*
X0217698Y0089294D01*
X0218432Y0088560D01*
X0218065Y0087818D02*
X0217698Y0087451D01*
X0213650Y0087451D02*
X0213283Y0087818D01*
X0213650Y0087451D02*
X0213650Y0086717D01*
X0213283Y0086350D01*
X0211815Y0086350D01*
X0211448Y0086717D01*
X0211448Y0087451D01*
X0211815Y0087818D01*
X0212182Y0088560D02*
X0211448Y0089294D01*
X0208690Y0087818D02*
X0208323Y0087451D01*
X0208323Y0086717D01*
X0217698Y0091137D02*
X0217698Y0091871D01*
X0218065Y0092238D01*
X0218432Y0092238D01*
X0218799Y0091871D01*
X0219166Y0092238D01*
X0219533Y0092238D01*
X0219900Y0091871D01*
X0219900Y0091137D01*
X0219533Y0090770D01*
X0218799Y0091504D02*
X0218799Y0091871D01*
X0218065Y0090770D02*
X0217698Y0091137D01*
X0220823Y0091137D02*
X0221190Y0090770D01*
X0220823Y0091137D02*
X0220823Y0091871D01*
X0221190Y0092238D01*
X0221557Y0092238D01*
X0223025Y0090770D01*
X0223025Y0092238D01*
X0223025Y0090028D02*
X0223025Y0088560D01*
X0223025Y0089294D02*
X0220823Y0089294D01*
X0221557Y0088560D01*
X0221190Y0087818D02*
X0220823Y0087451D01*
X0220823Y0086717D01*
X0221190Y0086350D01*
X0222658Y0086350D01*
X0223025Y0086717D01*
X0223025Y0087451D01*
X0222658Y0087818D01*
X0235098Y0087973D02*
X0235098Y0087239D01*
X0235098Y0087606D02*
X0236933Y0087606D01*
X0237300Y0087239D01*
X0237300Y0086872D01*
X0236933Y0086505D01*
X0236933Y0088715D02*
X0236566Y0089082D01*
X0236566Y0090183D01*
X0236199Y0090183D02*
X0237300Y0090183D01*
X0237300Y0089082D01*
X0236933Y0088715D01*
X0235832Y0089082D02*
X0235832Y0089816D01*
X0236199Y0090183D01*
X0235832Y0090925D02*
X0237300Y0090925D01*
X0236566Y0090925D02*
X0235832Y0091659D01*
X0235832Y0092026D01*
X0235832Y0092766D02*
X0235832Y0093867D01*
X0236199Y0094234D01*
X0237300Y0094234D01*
X0236933Y0094976D02*
X0236199Y0094976D01*
X0235832Y0095343D01*
X0235832Y0096077D01*
X0236199Y0096444D01*
X0236566Y0096444D01*
X0236566Y0094976D01*
X0236933Y0094976D02*
X0237300Y0095343D01*
X0237300Y0096077D01*
X0237300Y0092766D02*
X0235832Y0092766D01*
X0235098Y0099396D02*
X0236566Y0099396D01*
X0237300Y0100130D01*
X0236566Y0100864D01*
X0235098Y0100864D01*
X0235832Y0101973D02*
X0235832Y0102707D01*
X0236199Y0103074D01*
X0237300Y0103074D01*
X0237300Y0101973D01*
X0236933Y0101606D01*
X0236566Y0101973D01*
X0236566Y0103074D01*
X0235832Y0103816D02*
X0235832Y0104917D01*
X0236199Y0105284D01*
X0237300Y0105284D01*
X0237300Y0103816D02*
X0235832Y0103816D01*
X0235098Y0108236D02*
X0235832Y0108970D01*
X0235098Y0109704D01*
X0237300Y0109704D01*
X0236933Y0110446D02*
X0237300Y0110812D01*
X0237300Y0111913D01*
X0235832Y0111913D01*
X0235098Y0112655D02*
X0235098Y0113022D01*
X0237300Y0113022D01*
X0237300Y0112655D02*
X0237300Y0113389D01*
X0236933Y0114129D02*
X0236199Y0114129D01*
X0235832Y0114496D01*
X0235832Y0115597D01*
X0235098Y0115597D02*
X0237300Y0115597D01*
X0237300Y0114496D01*
X0236933Y0114129D01*
X0236933Y0116339D02*
X0236199Y0116339D01*
X0235832Y0116706D01*
X0235832Y0117439D01*
X0236199Y0117806D01*
X0236566Y0117806D01*
X0236566Y0116339D01*
X0236933Y0116339D02*
X0237300Y0116706D01*
X0237300Y0117439D01*
X0237300Y0118548D02*
X0235832Y0118548D01*
X0236566Y0118548D02*
X0235832Y0119282D01*
X0235832Y0119649D01*
X0236199Y0120390D02*
X0235832Y0120757D01*
X0235832Y0121858D01*
X0236566Y0121491D02*
X0236566Y0120757D01*
X0236199Y0120390D01*
X0237300Y0120390D02*
X0237300Y0121491D01*
X0236933Y0121858D01*
X0236566Y0121491D01*
X0236933Y0110446D02*
X0235832Y0110446D01*
X0235098Y0108236D02*
X0237300Y0108236D01*
X0231150Y0108121D02*
X0230783Y0108488D01*
X0229315Y0108488D01*
X0228948Y0108121D01*
X0228948Y0107020D01*
X0231150Y0107020D01*
X0231150Y0108121D01*
X0231150Y0109230D02*
X0229682Y0110698D01*
X0229315Y0110698D01*
X0228948Y0110331D01*
X0228948Y0109597D01*
X0229315Y0109230D01*
X0231150Y0109230D02*
X0231150Y0110698D01*
X0226150Y0110698D02*
X0226150Y0109230D01*
X0226150Y0109964D02*
X0223948Y0109964D01*
X0224682Y0109230D01*
X0224315Y0108488D02*
X0223948Y0108121D01*
X0223948Y0107020D01*
X0226150Y0107020D01*
X0226150Y0108121D01*
X0225783Y0108488D01*
X0224315Y0108488D01*
X0223948Y0106278D02*
X0223948Y0104810D01*
X0226150Y0104810D01*
X0226150Y0106278D01*
X0225049Y0105544D02*
X0225049Y0104810D01*
X0226150Y0104068D02*
X0226150Y0102600D01*
X0223948Y0102600D01*
X0228948Y0102600D02*
X0231150Y0102600D01*
X0231150Y0104068D01*
X0231150Y0104810D02*
X0231150Y0106278D01*
X0230049Y0105544D02*
X0230049Y0104810D01*
X0228948Y0104810D02*
X0231150Y0104810D01*
X0228948Y0104810D02*
X0228948Y0106278D01*
X0206050Y0120970D02*
X0203848Y0120970D01*
X0203848Y0122071D01*
X0204215Y0122438D01*
X0204949Y0122438D01*
X0205316Y0122071D01*
X0205316Y0120970D01*
X0204582Y0123180D02*
X0203848Y0123914D01*
X0206050Y0123914D01*
X0206050Y0123180D02*
X0206050Y0124648D01*
X0206050Y0125390D02*
X0206050Y0126858D01*
X0206050Y0126124D02*
X0203848Y0126124D01*
X0204582Y0125390D01*
X0194800Y0125390D02*
X0193332Y0126858D01*
X0192965Y0126858D01*
X0192598Y0126491D01*
X0192598Y0125757D01*
X0192965Y0125390D01*
X0192598Y0123914D02*
X0194800Y0123914D01*
X0194800Y0123180D02*
X0194800Y0124648D01*
X0194800Y0125390D02*
X0194800Y0126858D01*
X0192598Y0123914D02*
X0193332Y0123180D01*
X0192965Y0122438D02*
X0193699Y0122438D01*
X0194066Y0122071D01*
X0194066Y0120970D01*
X0194800Y0120970D02*
X0192598Y0120970D01*
X0192598Y0122071D01*
X0192965Y0122438D01*
X0184800Y0123180D02*
X0184800Y0124648D01*
X0184800Y0123914D02*
X0182598Y0123914D01*
X0183332Y0123180D01*
X0182965Y0122438D02*
X0183699Y0122438D01*
X0184066Y0122071D01*
X0184066Y0120970D01*
X0184800Y0120970D02*
X0182598Y0120970D01*
X0182598Y0122071D01*
X0182965Y0122438D01*
X0182965Y0125390D02*
X0182598Y0125757D01*
X0182598Y0126491D01*
X0182965Y0126858D01*
X0183332Y0126858D01*
X0183699Y0126491D01*
X0184066Y0126858D01*
X0184433Y0126858D01*
X0184800Y0126491D01*
X0184800Y0125757D01*
X0184433Y0125390D01*
X0183699Y0126124D02*
X0183699Y0126491D01*
X0174800Y0126491D02*
X0172598Y0126491D01*
X0173699Y0125390D01*
X0173699Y0126858D01*
X0174800Y0124648D02*
X0174800Y0123180D01*
X0174800Y0123914D02*
X0172598Y0123914D01*
X0173332Y0123180D01*
X0173699Y0122438D02*
X0174433Y0122438D01*
X0174800Y0122071D01*
X0174800Y0120970D01*
X0175534Y0120970D02*
X0173332Y0120970D01*
X0173332Y0122071D01*
X0173699Y0122438D01*
X0173850Y0117302D02*
X0174951Y0117302D01*
X0175318Y0116935D01*
X0175318Y0115467D01*
X0174951Y0115100D01*
X0173850Y0115100D01*
X0173850Y0117302D01*
X0176060Y0117302D02*
X0176794Y0117302D01*
X0176427Y0117302D02*
X0176427Y0115100D01*
X0176060Y0115100D02*
X0176794Y0115100D01*
X0177533Y0115467D02*
X0177900Y0115100D01*
X0178634Y0115100D01*
X0179001Y0115467D01*
X0179001Y0116201D01*
X0178267Y0116201D01*
X0177533Y0116935D02*
X0177533Y0115467D01*
X0177533Y0116935D02*
X0177900Y0117302D01*
X0178634Y0117302D01*
X0179001Y0116935D01*
X0179743Y0117302D02*
X0180477Y0117302D01*
X0180110Y0117302D02*
X0180110Y0115100D01*
X0179743Y0115100D02*
X0180477Y0115100D01*
X0181950Y0115100D02*
X0181950Y0117302D01*
X0181216Y0117302D02*
X0182684Y0117302D01*
X0183426Y0116568D02*
X0184160Y0117302D01*
X0184894Y0116568D01*
X0184894Y0115100D01*
X0185636Y0115100D02*
X0187104Y0115100D01*
X0185636Y0115100D02*
X0185636Y0117302D01*
X0184894Y0116201D02*
X0183426Y0116201D01*
X0183426Y0116568D02*
X0183426Y0115100D01*
X0170025Y0104246D02*
X0169658Y0104613D01*
X0169291Y0104613D01*
X0168924Y0104246D01*
X0168924Y0103145D01*
X0169658Y0103145D01*
X0170025Y0103512D01*
X0170025Y0104246D01*
X0168924Y0103145D02*
X0168190Y0103879D01*
X0167823Y0104613D01*
X0168190Y0102403D02*
X0167823Y0102036D01*
X0167823Y0101302D01*
X0168190Y0100935D01*
X0168190Y0100193D02*
X0167823Y0099826D01*
X0167823Y0099092D01*
X0168190Y0098725D01*
X0169658Y0098725D01*
X0170025Y0099092D01*
X0170025Y0099826D01*
X0169658Y0100193D01*
X0170025Y0100935D02*
X0168557Y0102403D01*
X0168190Y0102403D01*
X0170025Y0102403D02*
X0170025Y0100935D01*
X0165025Y0100935D02*
X0163557Y0102403D01*
X0163190Y0102403D01*
X0162823Y0102036D01*
X0162823Y0101302D01*
X0163190Y0100935D01*
X0163190Y0100193D02*
X0162823Y0099826D01*
X0162823Y0099092D01*
X0163190Y0098725D01*
X0164658Y0098725D01*
X0165025Y0099092D01*
X0165025Y0099826D01*
X0164658Y0100193D01*
X0165025Y0100935D02*
X0165025Y0102403D01*
X0164658Y0103145D02*
X0165025Y0103512D01*
X0165025Y0104246D01*
X0164658Y0104613D01*
X0163924Y0104613D01*
X0163557Y0104246D01*
X0163557Y0103879D01*
X0163924Y0103145D01*
X0162823Y0103145D01*
X0162823Y0104613D01*
X0185390Y0095383D02*
X0185390Y0095016D01*
X0186124Y0094282D01*
X0186124Y0093181D01*
X0186124Y0094282D02*
X0186858Y0095016D01*
X0186858Y0095383D01*
X0187600Y0094649D02*
X0188334Y0095383D01*
X0188334Y0093181D01*
X0187600Y0093181D02*
X0189068Y0093181D01*
X0192598Y0095680D02*
X0192598Y0096781D01*
X0192965Y0097148D01*
X0193699Y0097148D01*
X0194066Y0096781D01*
X0194066Y0095680D01*
X0194800Y0095680D02*
X0192598Y0095680D01*
X0194066Y0096414D02*
X0194800Y0097148D01*
X0194800Y0097890D02*
X0194800Y0099358D01*
X0194800Y0098624D02*
X0192598Y0098624D01*
X0193332Y0097890D01*
X0200098Y0098257D02*
X0200465Y0097890D01*
X0200098Y0098257D02*
X0200098Y0098991D01*
X0200465Y0099358D01*
X0200832Y0099358D01*
X0202300Y0097890D01*
X0202300Y0099358D01*
X0202300Y0097148D02*
X0201566Y0096414D01*
X0201566Y0096781D02*
X0201566Y0095680D01*
X0202300Y0095680D02*
X0200098Y0095680D01*
X0200098Y0096781D01*
X0200465Y0097148D01*
X0201199Y0097148D01*
X0201566Y0096781D01*
X0164800Y0120970D02*
X0162598Y0120970D01*
X0162598Y0122071D01*
X0162965Y0122438D01*
X0163699Y0122438D01*
X0164066Y0122071D01*
X0164066Y0120970D01*
X0163332Y0123180D02*
X0162598Y0123914D01*
X0164800Y0123914D01*
X0164800Y0123180D02*
X0164800Y0124648D01*
X0164800Y0125390D02*
X0164433Y0125390D01*
X0162965Y0126858D01*
X0162598Y0126858D01*
X0162598Y0125390D01*
X0154800Y0125757D02*
X0154800Y0126491D01*
X0154433Y0126858D01*
X0152965Y0126858D01*
X0152598Y0126491D01*
X0152598Y0125757D01*
X0152965Y0125390D01*
X0153332Y0125390D01*
X0153699Y0125757D01*
X0153699Y0126858D01*
X0154800Y0125757D02*
X0154433Y0125390D01*
X0154800Y0124648D02*
X0154800Y0123180D01*
X0154800Y0123914D02*
X0152598Y0123914D01*
X0153332Y0123180D01*
X0152965Y0122438D02*
X0153699Y0122438D01*
X0154066Y0122071D01*
X0154066Y0120970D01*
X0154800Y0120970D02*
X0152598Y0120970D01*
X0152598Y0122071D01*
X0152965Y0122438D01*
X0144800Y0123547D02*
X0144433Y0123180D01*
X0142965Y0124648D01*
X0144433Y0124648D01*
X0144800Y0124281D01*
X0144800Y0123547D01*
X0144433Y0123180D02*
X0142965Y0123180D01*
X0142598Y0123547D01*
X0142598Y0124281D01*
X0142965Y0124648D01*
X0143699Y0125390D02*
X0143699Y0126858D01*
X0142598Y0126491D02*
X0143699Y0125390D01*
X0144800Y0126491D02*
X0142598Y0126491D01*
X0142965Y0122438D02*
X0143699Y0122438D01*
X0144066Y0122071D01*
X0144066Y0120970D01*
X0144800Y0120970D02*
X0142598Y0120970D01*
X0142598Y0122071D01*
X0142965Y0122438D01*
X0139750Y0117302D02*
X0139016Y0117302D01*
X0138649Y0116935D01*
X0138649Y0115467D01*
X0139016Y0115100D01*
X0139750Y0115100D01*
X0140117Y0115467D01*
X0140117Y0116201D01*
X0139383Y0116201D01*
X0140117Y0116935D02*
X0139750Y0117302D01*
X0137907Y0116935D02*
X0137907Y0115467D01*
X0137540Y0115100D01*
X0136806Y0115100D01*
X0136440Y0115467D01*
X0136440Y0116935D01*
X0136806Y0117302D01*
X0137540Y0117302D01*
X0137907Y0116935D01*
X0135698Y0115100D02*
X0134230Y0115100D01*
X0134230Y0117302D01*
X0133488Y0116568D02*
X0133488Y0115100D01*
X0133488Y0116201D02*
X0132020Y0116201D01*
X0132020Y0116568D02*
X0132754Y0117302D01*
X0133488Y0116568D01*
X0132020Y0116568D02*
X0132020Y0115100D01*
X0131278Y0115100D02*
X0131278Y0117302D01*
X0129810Y0117302D02*
X0129810Y0115100D01*
X0129068Y0115100D02*
X0129068Y0116568D01*
X0128334Y0117302D01*
X0127600Y0116568D01*
X0127600Y0115100D01*
X0127600Y0116201D02*
X0129068Y0116201D01*
X0129810Y0117302D02*
X0131278Y0115100D01*
X0132598Y0120970D02*
X0132598Y0122071D01*
X0132965Y0122438D01*
X0133699Y0122438D01*
X0134066Y0122071D01*
X0134066Y0120970D01*
X0134800Y0120970D02*
X0132598Y0120970D01*
X0132965Y0123180D02*
X0132598Y0123547D01*
X0132598Y0124281D01*
X0132965Y0124648D01*
X0134433Y0123180D01*
X0134800Y0123547D01*
X0134800Y0124281D01*
X0134433Y0124648D01*
X0132965Y0124648D01*
X0132965Y0125390D02*
X0132598Y0125757D01*
X0132598Y0126491D01*
X0132965Y0126858D01*
X0133332Y0126858D01*
X0133699Y0126491D01*
X0134066Y0126858D01*
X0134433Y0126858D01*
X0134800Y0126491D01*
X0134800Y0125757D01*
X0134433Y0125390D01*
X0133699Y0126124D02*
X0133699Y0126491D01*
X0134433Y0123180D02*
X0132965Y0123180D01*
X0124800Y0123547D02*
X0124433Y0123180D01*
X0122965Y0124648D01*
X0124433Y0124648D01*
X0124800Y0124281D01*
X0124800Y0123547D01*
X0124433Y0123180D02*
X0122965Y0123180D01*
X0122598Y0123547D01*
X0122598Y0124281D01*
X0122965Y0124648D01*
X0122965Y0125390D02*
X0122598Y0125757D01*
X0122598Y0126491D01*
X0122965Y0126858D01*
X0123332Y0126858D01*
X0124800Y0125390D01*
X0124800Y0126858D01*
X0123699Y0122438D02*
X0124066Y0122071D01*
X0124066Y0120970D01*
X0124800Y0120970D02*
X0122598Y0120970D01*
X0122598Y0122071D01*
X0122965Y0122438D01*
X0123699Y0122438D01*
X0116050Y0122071D02*
X0115683Y0122438D01*
X0114949Y0122438D01*
X0114949Y0121704D01*
X0114215Y0120970D02*
X0115683Y0120970D01*
X0116050Y0121337D01*
X0116050Y0122071D01*
X0116050Y0123180D02*
X0113848Y0123180D01*
X0116050Y0124648D01*
X0113848Y0124648D01*
X0113848Y0125390D02*
X0113848Y0126491D01*
X0114215Y0126858D01*
X0115683Y0126858D01*
X0116050Y0126491D01*
X0116050Y0125390D01*
X0113848Y0125390D01*
X0114215Y0122438D02*
X0113848Y0122071D01*
X0113848Y0121337D01*
X0114215Y0120970D01*
X0106050Y0121337D02*
X0105683Y0120970D01*
X0106050Y0121337D02*
X0106050Y0122071D01*
X0105683Y0122438D01*
X0105316Y0122438D01*
X0104949Y0122071D01*
X0104949Y0121337D01*
X0104582Y0120970D01*
X0104215Y0120970D01*
X0103848Y0121337D01*
X0103848Y0122071D01*
X0104215Y0122438D01*
X0104215Y0123180D02*
X0105683Y0123180D01*
X0106050Y0123547D01*
X0106050Y0124281D01*
X0105683Y0124648D01*
X0106050Y0125390D02*
X0106050Y0126858D01*
X0106050Y0125390D02*
X0103848Y0125390D01*
X0104215Y0124648D02*
X0103848Y0124281D01*
X0103848Y0123547D01*
X0104215Y0123180D01*
X0096050Y0123180D02*
X0096050Y0124281D01*
X0095683Y0124648D01*
X0094215Y0124648D01*
X0093848Y0124281D01*
X0093848Y0123180D01*
X0096050Y0123180D01*
X0095683Y0122438D02*
X0095316Y0122438D01*
X0094949Y0122071D01*
X0094949Y0121337D01*
X0094582Y0120970D01*
X0094215Y0120970D01*
X0093848Y0121337D01*
X0093848Y0122071D01*
X0094215Y0122438D01*
X0095683Y0122438D02*
X0096050Y0122071D01*
X0096050Y0121337D01*
X0095683Y0120970D01*
X0096050Y0125390D02*
X0094582Y0125390D01*
X0093848Y0126124D01*
X0094582Y0126858D01*
X0096050Y0126858D01*
X0094949Y0126858D02*
X0094949Y0125390D01*
X0086050Y0125390D02*
X0086050Y0126491D01*
X0085683Y0126858D01*
X0084215Y0126858D01*
X0083848Y0126491D01*
X0083848Y0125390D01*
X0086050Y0125390D01*
X0086050Y0124648D02*
X0083848Y0124648D01*
X0083848Y0123180D02*
X0086050Y0124648D01*
X0086050Y0123180D02*
X0083848Y0123180D01*
X0084215Y0122438D02*
X0083848Y0122071D01*
X0083848Y0121337D01*
X0084215Y0120970D01*
X0085683Y0120970D01*
X0086050Y0121337D01*
X0086050Y0122071D01*
X0085683Y0122438D01*
X0084949Y0122438D01*
X0084949Y0121704D01*
X0076050Y0123547D02*
X0075683Y0123180D01*
X0076050Y0123547D02*
X0076050Y0124281D01*
X0075683Y0124648D01*
X0074949Y0124648D01*
X0074582Y0124281D01*
X0074582Y0123914D01*
X0074949Y0123180D01*
X0073848Y0123180D01*
X0073848Y0124648D01*
X0073848Y0125390D02*
X0075316Y0125390D01*
X0076050Y0126124D01*
X0075316Y0126858D01*
X0073848Y0126858D01*
X0074949Y0122438D02*
X0074949Y0120970D01*
X0074215Y0121704D02*
X0075683Y0121704D01*
X0066050Y0121337D02*
X0065683Y0120970D01*
X0066050Y0121337D02*
X0066050Y0122071D01*
X0065683Y0122438D01*
X0065316Y0122438D01*
X0064949Y0122071D01*
X0064949Y0121704D01*
X0064949Y0122071D02*
X0064582Y0122438D01*
X0064215Y0122438D01*
X0063848Y0122071D01*
X0063848Y0121337D01*
X0064215Y0120970D01*
X0064949Y0120228D02*
X0064949Y0118760D01*
X0064215Y0119494D02*
X0065683Y0119494D01*
X0065316Y0123180D02*
X0066050Y0123914D01*
X0065316Y0124648D01*
X0063848Y0124648D01*
X0064215Y0125390D02*
X0063848Y0125757D01*
X0063848Y0126491D01*
X0064215Y0126858D01*
X0064582Y0126858D01*
X0064949Y0126491D01*
X0065316Y0126858D01*
X0065683Y0126858D01*
X0066050Y0126491D01*
X0066050Y0125757D01*
X0065683Y0125390D01*
X0064949Y0126124D02*
X0064949Y0126491D01*
X0065316Y0123180D02*
X0063848Y0123180D01*
X0053650Y0120621D02*
X0053283Y0120988D01*
X0051815Y0120988D01*
X0051448Y0120621D01*
X0051448Y0119520D01*
X0053650Y0119520D01*
X0053650Y0120621D01*
X0053650Y0118778D02*
X0051448Y0118778D01*
X0051448Y0117310D02*
X0053650Y0118778D01*
X0053650Y0117310D02*
X0051448Y0117310D01*
X0051815Y0116568D02*
X0051448Y0116201D01*
X0051448Y0115467D01*
X0051815Y0115100D01*
X0053283Y0115100D01*
X0053650Y0115467D01*
X0053650Y0116201D01*
X0053283Y0116568D01*
X0052549Y0116568D01*
X0052549Y0115834D01*
X0052916Y0109738D02*
X0051448Y0109738D01*
X0052916Y0109738D02*
X0053650Y0109004D01*
X0052916Y0108270D01*
X0051448Y0108270D01*
X0051448Y0107528D02*
X0051448Y0106060D01*
X0052549Y0106060D01*
X0052182Y0106794D01*
X0052182Y0107161D01*
X0052549Y0107528D01*
X0053283Y0107528D01*
X0053650Y0107161D01*
X0053650Y0106427D01*
X0053283Y0106060D01*
X0052549Y0105318D02*
X0052549Y0103850D01*
X0051815Y0104584D02*
X0053283Y0104584D01*
X0060100Y0104217D02*
X0060467Y0103850D01*
X0061201Y0103850D01*
X0061568Y0104217D01*
X0062310Y0104217D02*
X0062677Y0103850D01*
X0063411Y0103850D01*
X0063778Y0104217D01*
X0063778Y0104584D01*
X0063411Y0104951D01*
X0062310Y0104951D01*
X0062310Y0104217D01*
X0062310Y0104951D02*
X0063044Y0105685D01*
X0063778Y0106052D01*
X0061568Y0105685D02*
X0061201Y0106052D01*
X0060467Y0106052D01*
X0060100Y0105685D01*
X0060100Y0104217D01*
X0060467Y0102302D02*
X0060100Y0101935D01*
X0060100Y0100467D01*
X0060467Y0100100D01*
X0061201Y0100100D01*
X0061568Y0100467D01*
X0062310Y0100467D02*
X0062677Y0100100D01*
X0063411Y0100100D01*
X0063778Y0100467D01*
X0063778Y0101201D01*
X0063411Y0101568D01*
X0063044Y0101568D01*
X0062310Y0101201D01*
X0062310Y0102302D01*
X0063778Y0102302D01*
X0061568Y0101935D02*
X0061201Y0102302D01*
X0060467Y0102302D01*
X0070948Y0104100D02*
X0070948Y0104834D01*
X0070948Y0104467D02*
X0073150Y0104467D01*
X0073150Y0104100D02*
X0073150Y0104834D01*
X0072783Y0105573D02*
X0073150Y0105940D01*
X0073150Y0106674D01*
X0072783Y0107041D01*
X0072783Y0107783D02*
X0073150Y0108150D01*
X0073150Y0108884D01*
X0072783Y0109251D01*
X0072416Y0109251D01*
X0072049Y0108884D01*
X0072049Y0108517D01*
X0072049Y0108884D02*
X0071682Y0109251D01*
X0071315Y0109251D01*
X0070948Y0108884D01*
X0070948Y0108150D01*
X0071315Y0107783D01*
X0071315Y0107041D02*
X0070948Y0106674D01*
X0070948Y0105940D01*
X0071315Y0105573D01*
X0072783Y0105573D01*
X0090100Y0111717D02*
X0090467Y0111350D01*
X0091201Y0111350D01*
X0091568Y0111717D01*
X0092310Y0111717D02*
X0092310Y0111350D01*
X0092310Y0111717D02*
X0093778Y0113185D01*
X0093778Y0113552D01*
X0092310Y0113552D01*
X0091568Y0113185D02*
X0091201Y0113552D01*
X0090467Y0113552D01*
X0090100Y0113185D01*
X0090100Y0111717D01*
X0097600Y0115100D02*
X0098334Y0115100D01*
X0097967Y0115100D02*
X0097967Y0117302D01*
X0097600Y0117302D02*
X0098334Y0117302D01*
X0099073Y0116935D02*
X0099440Y0117302D01*
X0100174Y0117302D01*
X0100541Y0116935D01*
X0100541Y0116568D01*
X0099073Y0115100D01*
X0100541Y0115100D01*
X0101283Y0115467D02*
X0101650Y0115100D01*
X0102384Y0115100D01*
X0102751Y0115467D01*
X0101283Y0115467D02*
X0101283Y0116935D01*
X0101650Y0117302D01*
X0102384Y0117302D01*
X0102751Y0116935D01*
X0118285Y0095764D02*
X0117918Y0095397D01*
X0117918Y0093929D01*
X0118285Y0093562D01*
X0119019Y0093562D01*
X0119386Y0093929D01*
X0120128Y0093929D02*
X0120128Y0094296D01*
X0120495Y0094663D01*
X0121229Y0094663D01*
X0121596Y0094296D01*
X0121596Y0093929D01*
X0121229Y0093562D01*
X0120495Y0093562D01*
X0120128Y0093929D01*
X0120495Y0094663D02*
X0120128Y0095030D01*
X0120128Y0095397D01*
X0120495Y0095764D01*
X0121229Y0095764D01*
X0121596Y0095397D01*
X0121596Y0095030D01*
X0121229Y0094663D01*
X0119386Y0095397D02*
X0119019Y0095764D01*
X0118285Y0095764D01*
X0139473Y0086749D02*
X0141675Y0086749D01*
X0141675Y0086015D02*
X0141675Y0087483D01*
X0140207Y0086015D02*
X0139473Y0086749D01*
X0139473Y0084539D02*
X0141675Y0084539D01*
X0141675Y0083805D02*
X0141675Y0085273D01*
X0140207Y0083805D02*
X0139473Y0084539D01*
X0139840Y0083063D02*
X0139473Y0082696D01*
X0139473Y0081962D01*
X0139840Y0081595D01*
X0141308Y0081595D01*
X0141675Y0081962D01*
X0141675Y0082696D01*
X0141308Y0083063D01*
X0144473Y0082696D02*
X0144473Y0081962D01*
X0144840Y0081595D01*
X0146308Y0081595D01*
X0146675Y0081962D01*
X0146675Y0082696D01*
X0146308Y0083063D01*
X0146675Y0083805D02*
X0146675Y0085273D01*
X0146675Y0084539D02*
X0144473Y0084539D01*
X0145207Y0083805D01*
X0144840Y0083063D02*
X0144473Y0082696D01*
X0145574Y0086015D02*
X0144473Y0087116D01*
X0146675Y0087116D01*
X0145574Y0087483D02*
X0145574Y0086015D01*
X0130116Y0059777D02*
X0129382Y0059777D01*
X0129015Y0059410D01*
X0129015Y0057942D01*
X0130483Y0059410D01*
X0130483Y0057942D01*
X0130116Y0057575D01*
X0129382Y0057575D01*
X0129015Y0057942D01*
X0128273Y0057575D02*
X0126805Y0057575D01*
X0127539Y0057575D02*
X0127539Y0059777D01*
X0126805Y0059043D01*
X0126063Y0059410D02*
X0125696Y0059777D01*
X0124962Y0059777D01*
X0124595Y0059410D01*
X0124595Y0057942D01*
X0124962Y0057575D01*
X0125696Y0057575D01*
X0126063Y0057942D01*
X0130116Y0059777D02*
X0130483Y0059410D01*
X0146528Y0056052D02*
X0147262Y0056052D01*
X0146895Y0056052D02*
X0146895Y0053850D01*
X0146528Y0053850D02*
X0147262Y0053850D01*
X0148002Y0054217D02*
X0148369Y0053850D01*
X0149103Y0053850D01*
X0149470Y0054217D01*
X0150212Y0053850D02*
X0151680Y0055318D01*
X0151680Y0055685D01*
X0151313Y0056052D01*
X0150579Y0056052D01*
X0150212Y0055685D01*
X0149470Y0055685D02*
X0149103Y0056052D01*
X0148369Y0056052D01*
X0148002Y0055685D01*
X0148002Y0054217D01*
X0150212Y0053850D02*
X0151680Y0053850D01*
X0161313Y0037489D02*
X0162413Y0037489D01*
X0162780Y0037122D01*
X0162780Y0036388D01*
X0162413Y0036021D01*
X0161313Y0036021D01*
X0162046Y0036021D02*
X0162780Y0035288D01*
X0163522Y0036388D02*
X0164990Y0036388D01*
X0165732Y0036755D02*
X0166099Y0036388D01*
X0167200Y0036388D01*
X0167200Y0035654D02*
X0167200Y0037122D01*
X0166833Y0037489D01*
X0166099Y0037489D01*
X0165732Y0037122D01*
X0165732Y0036755D01*
X0165732Y0035654D02*
X0166099Y0035288D01*
X0166833Y0035288D01*
X0167200Y0035654D01*
X0164623Y0035288D02*
X0164623Y0037489D01*
X0163522Y0036388D01*
X0161313Y0035288D02*
X0161313Y0037489D01*
X0161313Y0032589D02*
X0162413Y0032589D01*
X0162780Y0032222D01*
X0162780Y0031488D01*
X0162413Y0031121D01*
X0161313Y0031121D01*
X0162046Y0031121D02*
X0162780Y0030387D01*
X0163522Y0030754D02*
X0163889Y0030387D01*
X0164623Y0030387D01*
X0164990Y0030754D01*
X0164990Y0031121D01*
X0164623Y0031488D01*
X0163522Y0031488D01*
X0163522Y0030754D01*
X0163522Y0031488D02*
X0164256Y0032222D01*
X0164990Y0032589D01*
X0165732Y0032222D02*
X0166099Y0032589D01*
X0166833Y0032589D01*
X0167200Y0032222D01*
X0165732Y0030754D01*
X0166099Y0030387D01*
X0166833Y0030387D01*
X0167200Y0030754D01*
X0167200Y0032222D01*
X0165732Y0032222D02*
X0165732Y0030754D01*
X0166099Y0027689D02*
X0165732Y0027322D01*
X0166099Y0027689D02*
X0166833Y0027689D01*
X0167200Y0027322D01*
X0167200Y0026955D01*
X0165732Y0025487D01*
X0167200Y0025487D01*
X0164990Y0025487D02*
X0163522Y0025487D01*
X0164990Y0026955D01*
X0164990Y0027322D01*
X0164623Y0027689D01*
X0163889Y0027689D01*
X0163522Y0027322D01*
X0162780Y0027322D02*
X0162413Y0027689D01*
X0161679Y0027689D01*
X0161313Y0027322D01*
X0161313Y0025854D01*
X0161679Y0025487D01*
X0162413Y0025487D01*
X0162780Y0025854D01*
X0161313Y0030387D02*
X0161313Y0032589D01*
X0144738Y0033185D02*
X0144371Y0033552D01*
X0143270Y0033552D01*
X0143270Y0031350D01*
X0144371Y0031350D01*
X0144738Y0031717D01*
X0144738Y0033185D01*
X0142528Y0033552D02*
X0142528Y0031350D01*
X0141060Y0033552D01*
X0141060Y0031350D01*
X0140318Y0031717D02*
X0139951Y0031350D01*
X0139217Y0031350D01*
X0138850Y0031717D01*
X0138850Y0033185D01*
X0139217Y0033552D01*
X0139951Y0033552D01*
X0140318Y0033185D01*
X0140318Y0032451D02*
X0139584Y0032451D01*
X0140318Y0032451D02*
X0140318Y0031717D01*
X0135988Y0031350D02*
X0134520Y0031350D01*
X0134520Y0033552D01*
X0133778Y0033185D02*
X0133411Y0033552D01*
X0132677Y0033552D01*
X0132310Y0033185D01*
X0132310Y0031717D01*
X0132677Y0031350D01*
X0133411Y0031350D01*
X0133778Y0031717D01*
X0131568Y0031717D02*
X0131201Y0031350D01*
X0130467Y0031350D01*
X0130100Y0031717D01*
X0130467Y0032451D02*
X0131201Y0032451D01*
X0131568Y0032084D01*
X0131568Y0031717D01*
X0130467Y0032451D02*
X0130100Y0032818D01*
X0130100Y0033185D01*
X0130467Y0033552D01*
X0131201Y0033552D01*
X0131568Y0033185D01*
X0125988Y0032818D02*
X0125988Y0031350D01*
X0125988Y0032451D02*
X0124520Y0032451D01*
X0124520Y0032818D02*
X0125254Y0033552D01*
X0125988Y0032818D01*
X0124520Y0032818D02*
X0124520Y0031350D01*
X0123778Y0031717D02*
X0123411Y0031350D01*
X0122310Y0031350D01*
X0122310Y0033552D01*
X0123411Y0033552D01*
X0123778Y0033185D01*
X0123778Y0031717D01*
X0121568Y0031717D02*
X0121201Y0031350D01*
X0120467Y0031350D01*
X0120100Y0031717D01*
X0120467Y0032451D02*
X0121201Y0032451D01*
X0121568Y0032084D01*
X0121568Y0031717D01*
X0120467Y0032451D02*
X0120100Y0032818D01*
X0120100Y0033185D01*
X0120467Y0033552D01*
X0121201Y0033552D01*
X0121568Y0033185D01*
X0115988Y0033185D02*
X0115621Y0033552D01*
X0114520Y0033552D01*
X0114520Y0031350D01*
X0115621Y0031350D01*
X0115988Y0031717D01*
X0115988Y0033185D01*
X0113778Y0033185D02*
X0113411Y0033552D01*
X0112310Y0033552D01*
X0112310Y0031350D01*
X0113411Y0031350D01*
X0113778Y0031717D01*
X0113778Y0033185D01*
X0111568Y0033552D02*
X0111568Y0032084D01*
X0110834Y0031350D01*
X0110100Y0032084D01*
X0110100Y0033552D01*
X0110100Y0035100D02*
X0110834Y0035100D01*
X0110467Y0035100D02*
X0110467Y0037302D01*
X0110100Y0037302D02*
X0110834Y0037302D01*
X0111573Y0036935D02*
X0111940Y0037302D01*
X0112674Y0037302D01*
X0113041Y0036935D01*
X0113041Y0036568D01*
X0111573Y0035100D01*
X0113041Y0035100D01*
X0113783Y0035467D02*
X0114150Y0035100D01*
X0114884Y0035100D01*
X0115251Y0035467D01*
X0113783Y0035467D02*
X0113783Y0036935D01*
X0114150Y0037302D01*
X0114884Y0037302D01*
X0115251Y0036935D01*
X0102238Y0033185D02*
X0101871Y0033552D01*
X0101137Y0033552D01*
X0100770Y0033185D01*
X0100770Y0032818D01*
X0101137Y0032451D01*
X0101871Y0032451D01*
X0102238Y0032084D01*
X0102238Y0031717D01*
X0101871Y0031350D01*
X0101137Y0031350D01*
X0100770Y0031717D01*
X0099294Y0031350D02*
X0099294Y0033552D01*
X0098560Y0033552D02*
X0100028Y0033552D01*
X0097818Y0033185D02*
X0097451Y0033552D01*
X0096717Y0033552D01*
X0096350Y0033185D01*
X0096350Y0031717D01*
X0096717Y0031350D01*
X0097451Y0031350D01*
X0097818Y0031717D01*
X0090988Y0031717D02*
X0090621Y0031350D01*
X0089887Y0031350D01*
X0089520Y0031717D01*
X0089887Y0032451D02*
X0090621Y0032451D01*
X0090988Y0032084D01*
X0090988Y0031717D01*
X0089887Y0032451D02*
X0089520Y0032818D01*
X0089520Y0033185D01*
X0089887Y0033552D01*
X0090621Y0033552D01*
X0090988Y0033185D01*
X0088778Y0033552D02*
X0087310Y0033552D01*
X0088044Y0033552D02*
X0088044Y0031350D01*
X0086568Y0031350D02*
X0085834Y0032084D01*
X0086201Y0032084D02*
X0085100Y0032084D01*
X0085100Y0031350D02*
X0085100Y0033552D01*
X0086201Y0033552D01*
X0086568Y0033185D01*
X0086568Y0032451D01*
X0086201Y0032084D01*
X0081504Y0031350D02*
X0080770Y0031350D01*
X0081137Y0031350D02*
X0081137Y0033552D01*
X0080770Y0033552D02*
X0081504Y0033552D01*
X0080028Y0033552D02*
X0078560Y0031350D01*
X0080028Y0031350D02*
X0078560Y0033552D01*
X0077818Y0033552D02*
X0076350Y0033552D01*
X0077084Y0033552D02*
X0077084Y0031350D01*
X0071504Y0031350D02*
X0070770Y0031350D01*
X0071137Y0031350D02*
X0071137Y0033552D01*
X0070770Y0033552D02*
X0071504Y0033552D01*
X0070028Y0033552D02*
X0068560Y0031350D01*
X0067818Y0031350D02*
X0067084Y0032084D01*
X0067451Y0032084D02*
X0066350Y0032084D01*
X0066350Y0031350D02*
X0066350Y0033552D01*
X0067451Y0033552D01*
X0067818Y0033185D01*
X0067818Y0032451D01*
X0067451Y0032084D01*
X0068560Y0033552D02*
X0070028Y0031350D01*
X0063714Y0035100D02*
X0063714Y0037302D01*
X0062980Y0037302D02*
X0064448Y0037302D01*
X0062238Y0036935D02*
X0062238Y0036201D01*
X0061871Y0035834D01*
X0060770Y0035834D01*
X0061504Y0035834D02*
X0062238Y0035100D01*
X0060770Y0035100D02*
X0060770Y0037302D01*
X0061871Y0037302D01*
X0062238Y0036935D01*
X0060028Y0036568D02*
X0060028Y0035100D01*
X0060028Y0036201D02*
X0058560Y0036201D01*
X0058560Y0036568D02*
X0059294Y0037302D01*
X0060028Y0036568D01*
X0058560Y0036568D02*
X0058560Y0035100D01*
X0057818Y0035467D02*
X0057818Y0037302D01*
X0056350Y0037302D02*
X0056350Y0035467D01*
X0056717Y0035100D01*
X0057451Y0035100D01*
X0057818Y0035467D01*
X0057818Y0033552D02*
X0057818Y0032084D01*
X0057084Y0031350D01*
X0056350Y0032084D01*
X0056350Y0033552D01*
X0058560Y0033552D02*
X0059661Y0033552D01*
X0060028Y0033185D01*
X0060028Y0031717D01*
X0059661Y0031350D01*
X0058560Y0031350D01*
X0058560Y0033552D01*
X0060770Y0033552D02*
X0061871Y0033552D01*
X0062238Y0033185D01*
X0062238Y0031717D01*
X0061871Y0031350D01*
X0060770Y0031350D01*
X0060770Y0033552D01*
X0061134Y0040100D02*
X0061501Y0040467D01*
X0061501Y0040834D01*
X0061134Y0041201D01*
X0060033Y0041201D01*
X0060033Y0040467D01*
X0060400Y0040100D01*
X0061134Y0040100D01*
X0060033Y0041201D02*
X0060767Y0041935D01*
X0061501Y0042302D01*
X0059291Y0041935D02*
X0058924Y0042302D01*
X0058190Y0042302D01*
X0057823Y0041935D01*
X0057823Y0040467D01*
X0058190Y0040100D01*
X0058924Y0040100D01*
X0059291Y0040467D01*
X0057084Y0040100D02*
X0056350Y0040100D01*
X0056717Y0040100D02*
X0056717Y0042302D01*
X0056350Y0042302D02*
X0057084Y0042302D01*
X0080055Y0055200D02*
X0080055Y0057402D01*
X0081156Y0057402D01*
X0081523Y0057035D01*
X0081523Y0056301D01*
X0081156Y0055934D01*
X0080055Y0055934D01*
X0080789Y0055934D02*
X0081523Y0055200D01*
X0082265Y0055567D02*
X0082632Y0055200D01*
X0083366Y0055200D01*
X0083733Y0055567D01*
X0083733Y0055934D01*
X0083366Y0056301D01*
X0082265Y0056301D01*
X0082265Y0055567D01*
X0082265Y0056301D02*
X0082999Y0057035D01*
X0083733Y0057402D01*
X0083733Y0061450D02*
X0082265Y0061450D01*
X0082999Y0061450D02*
X0082999Y0063652D01*
X0082265Y0062918D01*
X0081523Y0062918D02*
X0081523Y0063285D01*
X0081156Y0063652D01*
X0080422Y0063652D01*
X0080055Y0063285D01*
X0079313Y0063285D02*
X0078946Y0063652D01*
X0078212Y0063652D01*
X0077845Y0063285D01*
X0077845Y0061817D01*
X0078212Y0061450D01*
X0078946Y0061450D01*
X0079313Y0061817D01*
X0080055Y0061450D02*
X0081523Y0062918D01*
X0081523Y0061450D02*
X0080055Y0061450D01*
X0090100Y0069217D02*
X0090467Y0068850D01*
X0091201Y0068850D01*
X0091568Y0069217D01*
X0092310Y0068850D02*
X0093778Y0068850D01*
X0093044Y0068850D02*
X0093044Y0071052D01*
X0092310Y0070318D01*
X0091568Y0070685D02*
X0091201Y0071052D01*
X0090467Y0071052D01*
X0090100Y0070685D01*
X0090100Y0069217D01*
X0090467Y0076350D02*
X0091201Y0076350D01*
X0091568Y0076717D01*
X0092310Y0076350D02*
X0093778Y0077818D01*
X0093778Y0078185D01*
X0093411Y0078552D01*
X0092677Y0078552D01*
X0092310Y0078185D01*
X0091568Y0078185D02*
X0091201Y0078552D01*
X0090467Y0078552D01*
X0090100Y0078185D01*
X0090100Y0076717D01*
X0090467Y0076350D01*
X0092310Y0076350D02*
X0093778Y0076350D01*
X0093560Y0051677D02*
X0095028Y0051677D01*
X0094294Y0051677D02*
X0094294Y0049475D01*
X0095770Y0049475D02*
X0095770Y0051677D01*
X0097238Y0051677D01*
X0096504Y0050576D02*
X0095770Y0050576D01*
X0095770Y0049475D02*
X0097238Y0049475D01*
X0092818Y0049475D02*
X0092818Y0050943D01*
X0092084Y0051677D01*
X0091350Y0050943D01*
X0091350Y0049475D01*
X0090608Y0049842D02*
X0090608Y0051310D01*
X0090241Y0051677D01*
X0089140Y0051677D01*
X0089140Y0049475D01*
X0090241Y0049475D01*
X0090608Y0049842D01*
X0091350Y0050576D02*
X0092818Y0050576D01*
X0088398Y0050576D02*
X0088398Y0051310D01*
X0088031Y0051677D01*
X0086930Y0051677D01*
X0086930Y0049475D01*
X0086930Y0050209D02*
X0088031Y0050209D01*
X0088398Y0050576D01*
X0086188Y0049842D02*
X0086188Y0051677D01*
X0084720Y0051677D02*
X0084720Y0049842D01*
X0085087Y0049475D01*
X0085821Y0049475D01*
X0086188Y0049842D01*
X0028108Y0091450D02*
X0026640Y0091450D01*
X0027374Y0091450D02*
X0027374Y0093652D01*
X0026640Y0092918D01*
X0025898Y0093652D02*
X0024430Y0091450D01*
X0025898Y0091450D02*
X0024430Y0093652D01*
X0039584Y0125100D02*
X0038850Y0125834D01*
X0038850Y0127302D01*
X0040318Y0127302D02*
X0040318Y0125834D01*
X0039584Y0125100D01*
X0041060Y0125100D02*
X0042528Y0125100D01*
X0041794Y0125100D02*
X0041794Y0127302D01*
X0041060Y0126568D01*
X0041424Y0128850D02*
X0041791Y0129217D01*
X0041791Y0129951D01*
X0041424Y0130318D01*
X0040690Y0130318D01*
X0040323Y0129951D01*
X0040323Y0129217D01*
X0040690Y0128850D01*
X0041424Y0128850D01*
X0042533Y0128850D02*
X0042533Y0130318D01*
X0042533Y0129584D02*
X0043267Y0130318D01*
X0043634Y0130318D01*
X0043270Y0132450D02*
X0044738Y0132450D01*
X0044004Y0133551D02*
X0043270Y0133551D01*
X0043270Y0134652D02*
X0043270Y0132450D01*
X0042528Y0132450D02*
X0041060Y0132450D01*
X0041060Y0134652D01*
X0040318Y0134285D02*
X0040318Y0133918D01*
X0039951Y0133551D01*
X0038850Y0133551D01*
X0038850Y0134652D02*
X0039951Y0134652D01*
X0040318Y0134285D01*
X0039951Y0133551D02*
X0040318Y0133184D01*
X0040318Y0132817D01*
X0039951Y0132450D01*
X0038850Y0132450D01*
X0038850Y0134652D01*
X0039584Y0131052D02*
X0039217Y0130685D01*
X0039217Y0128850D01*
X0038850Y0129951D02*
X0039584Y0129951D01*
X0044375Y0126935D02*
X0044742Y0127302D01*
X0045476Y0127302D01*
X0045843Y0126935D01*
X0044375Y0125467D01*
X0044742Y0125100D01*
X0045476Y0125100D01*
X0045843Y0125467D01*
X0045843Y0126935D01*
X0044375Y0126935D02*
X0044375Y0125467D01*
X0043637Y0125467D02*
X0043637Y0125100D01*
X0043270Y0125100D01*
X0043270Y0125467D01*
X0043637Y0125467D01*
X0046585Y0128850D02*
X0048052Y0128850D01*
X0048794Y0128850D02*
X0048794Y0131052D01*
X0050262Y0128850D01*
X0050262Y0131052D01*
X0051004Y0131052D02*
X0052105Y0131052D01*
X0052472Y0130685D01*
X0052472Y0129217D01*
X0052105Y0128850D01*
X0051004Y0128850D01*
X0051004Y0131052D01*
X0051000Y0132450D02*
X0051367Y0132817D01*
X0051000Y0132450D02*
X0050266Y0132450D01*
X0049899Y0132817D01*
X0049899Y0134285D01*
X0050266Y0134652D01*
X0051000Y0134652D01*
X0051367Y0134285D01*
X0052109Y0134652D02*
X0052109Y0132817D01*
X0052476Y0132450D01*
X0053210Y0132450D01*
X0053577Y0132817D01*
X0053577Y0134652D01*
X0049157Y0134652D02*
X0049157Y0132450D01*
X0047690Y0132450D02*
X0047690Y0134652D01*
X0048423Y0133918D01*
X0049157Y0134652D01*
X0048052Y0131052D02*
X0046585Y0131052D01*
X0046585Y0128850D01*
X0046585Y0129951D02*
X0047319Y0129951D01*
X0044738Y0134652D02*
X0043270Y0134652D01*
X0182650Y0037402D02*
X0182650Y0035200D01*
X0183751Y0035200D01*
X0184118Y0035567D01*
X0184118Y0037035D01*
X0183751Y0037402D01*
X0182650Y0037402D01*
X0184860Y0037402D02*
X0184860Y0035200D01*
X0186328Y0035200D01*
X0187070Y0035200D02*
X0188171Y0035200D01*
X0188538Y0035567D01*
X0188538Y0035934D01*
X0188171Y0036301D01*
X0187070Y0036301D01*
X0188171Y0036301D02*
X0188538Y0036668D01*
X0188538Y0037035D01*
X0188171Y0037402D01*
X0187070Y0037402D01*
X0187070Y0035200D01*
X0185594Y0036301D02*
X0184860Y0036301D01*
X0184860Y0037402D02*
X0186328Y0037402D01*
X0189280Y0037402D02*
X0189280Y0035567D01*
X0189647Y0035200D01*
X0190381Y0035200D01*
X0190748Y0035567D01*
X0190748Y0037402D01*
X0191490Y0037035D02*
X0191490Y0035567D01*
X0191856Y0035200D01*
X0192590Y0035200D01*
X0192957Y0035567D01*
X0192957Y0036301D01*
X0192223Y0036301D01*
X0191490Y0037035D02*
X0191856Y0037402D01*
X0192590Y0037402D01*
X0192957Y0037035D01*
X0193699Y0036668D02*
X0194433Y0037402D01*
X0194433Y0035200D01*
X0193699Y0035200D02*
X0195167Y0035200D01*
X0211717Y0133850D02*
X0212084Y0133850D01*
X0212451Y0134217D01*
X0212451Y0136052D01*
X0212084Y0136052D02*
X0212818Y0136052D01*
X0213560Y0136052D02*
X0213560Y0133850D01*
X0213560Y0134584D02*
X0214661Y0134584D01*
X0215028Y0134951D01*
X0215028Y0135685D01*
X0214661Y0136052D01*
X0213560Y0136052D01*
X0215770Y0135685D02*
X0216137Y0136052D01*
X0216871Y0136052D01*
X0217238Y0135685D01*
X0217238Y0135318D01*
X0215770Y0133850D01*
X0217238Y0133850D01*
X0211717Y0133850D02*
X0211350Y0134217D01*
D12*
X0207500Y0118750D02*
X0152500Y0118750D01*
X0147500Y0118750D02*
X0122500Y0118750D01*
X0107500Y0118750D02*
X0092500Y0118750D01*
X0088337Y0116043D02*
X0088337Y0108957D01*
X0074163Y0108957D01*
X0074163Y0116043D01*
X0088337Y0116043D01*
X0088337Y0108189D02*
X0074163Y0108189D01*
X0074163Y0081811D01*
X0088337Y0081811D01*
X0088337Y0082094D02*
X0088337Y0097850D01*
X0088337Y0098150D02*
X0088337Y0107906D01*
X0063750Y0098750D02*
X0063750Y0093750D01*
X0053750Y0093750D01*
X0053750Y0098750D01*
X0063750Y0098750D01*
X0063750Y0092500D02*
X0053750Y0092500D01*
X0053750Y0087500D01*
X0063750Y0087500D01*
X0063750Y0092500D01*
X0064469Y0085700D02*
X0061150Y0085700D01*
X0061150Y0085500D02*
X0061148Y0085402D01*
X0061142Y0085304D01*
X0061133Y0085206D01*
X0061119Y0085109D01*
X0061102Y0085012D01*
X0061081Y0084916D01*
X0061056Y0084821D01*
X0061028Y0084727D01*
X0060995Y0084635D01*
X0060960Y0084543D01*
X0060920Y0084453D01*
X0060878Y0084365D01*
X0060831Y0084278D01*
X0060782Y0084194D01*
X0060729Y0084111D01*
X0060673Y0084031D01*
X0060613Y0083952D01*
X0060551Y0083876D01*
X0060486Y0083803D01*
X0060418Y0083732D01*
X0060347Y0083664D01*
X0060274Y0083599D01*
X0060198Y0083537D01*
X0060119Y0083477D01*
X0060039Y0083421D01*
X0059956Y0083368D01*
X0059872Y0083319D01*
X0059785Y0083272D01*
X0059697Y0083230D01*
X0059607Y0083190D01*
X0059515Y0083155D01*
X0059423Y0083122D01*
X0059329Y0083094D01*
X0059234Y0083069D01*
X0059138Y0083048D01*
X0059041Y0083031D01*
X0058944Y0083017D01*
X0058846Y0083008D01*
X0058748Y0083002D01*
X0058650Y0083000D01*
X0058552Y0083002D01*
X0058454Y0083008D01*
X0058356Y0083017D01*
X0058259Y0083031D01*
X0058162Y0083048D01*
X0058066Y0083069D01*
X0057971Y0083094D01*
X0057877Y0083122D01*
X0057785Y0083155D01*
X0057693Y0083190D01*
X0057603Y0083230D01*
X0057515Y0083272D01*
X0057428Y0083319D01*
X0057344Y0083368D01*
X0057261Y0083421D01*
X0057181Y0083477D01*
X0057102Y0083537D01*
X0057026Y0083599D01*
X0056953Y0083664D01*
X0056882Y0083732D01*
X0056814Y0083803D01*
X0056749Y0083876D01*
X0056687Y0083952D01*
X0056627Y0084031D01*
X0056571Y0084111D01*
X0056518Y0084194D01*
X0056469Y0084278D01*
X0056422Y0084365D01*
X0056380Y0084453D01*
X0056340Y0084543D01*
X0056305Y0084635D01*
X0056272Y0084727D01*
X0056244Y0084821D01*
X0056219Y0084916D01*
X0056198Y0085012D01*
X0056181Y0085109D01*
X0056167Y0085206D01*
X0056158Y0085304D01*
X0056152Y0085402D01*
X0056150Y0085500D01*
X0056150Y0085700D02*
X0052194Y0085700D01*
X0052194Y0085699D02*
X0052124Y0085687D01*
X0052054Y0085670D01*
X0051986Y0085650D01*
X0051918Y0085627D01*
X0051852Y0085599D01*
X0051788Y0085568D01*
X0051726Y0085534D01*
X0051665Y0085496D01*
X0051606Y0085456D01*
X0051550Y0085412D01*
X0051497Y0085365D01*
X0051445Y0085315D01*
X0051397Y0085262D01*
X0051352Y0085207D01*
X0051309Y0085150D01*
X0051270Y0085090D01*
X0051234Y0085028D01*
X0051202Y0084965D01*
X0051173Y0084900D01*
X0051147Y0084833D01*
X0051125Y0084765D01*
X0051107Y0084696D01*
X0051093Y0084626D01*
X0051083Y0084555D01*
X0051076Y0084484D01*
X0051073Y0084413D01*
X0051074Y0084342D01*
X0051079Y0084270D01*
X0051088Y0084200D01*
X0051087Y0084200D02*
X0051087Y0045406D01*
X0051088Y0045406D02*
X0051100Y0045336D01*
X0051117Y0045266D01*
X0051137Y0045198D01*
X0051161Y0045131D01*
X0051188Y0045065D01*
X0051219Y0045000D01*
X0051253Y0044938D01*
X0051291Y0044877D01*
X0051332Y0044819D01*
X0051376Y0044762D01*
X0051423Y0044709D01*
X0051473Y0044658D01*
X0051525Y0044609D01*
X0051580Y0044564D01*
X0051638Y0044521D01*
X0051697Y0044482D01*
X0051759Y0044446D01*
X0051823Y0044414D01*
X0051888Y0044385D01*
X0051954Y0044359D01*
X0052022Y0044338D01*
X0052092Y0044319D01*
X0052161Y0044305D01*
X0052232Y0044295D01*
X0052303Y0044288D01*
X0052374Y0044285D01*
X0052446Y0044286D01*
X0052517Y0044291D01*
X0052588Y0044300D01*
X0052587Y0044300D02*
X0064913Y0044300D01*
X0064989Y0044302D01*
X0065064Y0044308D01*
X0065140Y0044317D01*
X0065215Y0044331D01*
X0065289Y0044348D01*
X0065362Y0044369D01*
X0065434Y0044393D01*
X0065504Y0044421D01*
X0065573Y0044453D01*
X0065641Y0044488D01*
X0065706Y0044527D01*
X0065770Y0044569D01*
X0065831Y0044614D01*
X0065890Y0044662D01*
X0065946Y0044713D01*
X0066000Y0044767D01*
X0066051Y0044823D01*
X0066099Y0044882D01*
X0066144Y0044943D01*
X0066186Y0045007D01*
X0066225Y0045072D01*
X0066260Y0045140D01*
X0066292Y0045209D01*
X0066320Y0045279D01*
X0066344Y0045351D01*
X0066365Y0045424D01*
X0066382Y0045498D01*
X0066396Y0045573D01*
X0066405Y0045649D01*
X0066411Y0045724D01*
X0066413Y0045800D01*
X0066413Y0084200D01*
X0066401Y0084281D01*
X0066386Y0084361D01*
X0066367Y0084440D01*
X0066345Y0084518D01*
X0066318Y0084595D01*
X0066289Y0084671D01*
X0066255Y0084745D01*
X0066218Y0084817D01*
X0066178Y0084888D01*
X0066134Y0084956D01*
X0066087Y0085023D01*
X0066037Y0085087D01*
X0065984Y0085148D01*
X0065928Y0085207D01*
X0065869Y0085264D01*
X0065808Y0085317D01*
X0065744Y0085368D01*
X0065678Y0085415D01*
X0065610Y0085459D01*
X0065540Y0085500D01*
X0065468Y0085538D01*
X0065394Y0085572D01*
X0065318Y0085602D01*
X0065242Y0085629D01*
X0065164Y0085652D01*
X0065085Y0085672D01*
X0065005Y0085687D01*
X0064924Y0085699D01*
X0064844Y0085707D01*
X0064762Y0085711D01*
X0064681Y0085712D01*
X0064600Y0085708D01*
X0064519Y0085701D01*
X0074163Y0081043D02*
X0088337Y0081043D01*
X0088337Y0073957D01*
X0074163Y0073957D01*
X0074163Y0081043D01*
X0074163Y0073543D02*
X0088337Y0073543D01*
X0088337Y0066457D01*
X0074163Y0066457D01*
X0074163Y0073543D01*
X0085000Y0065000D02*
X0095000Y0065000D01*
X0095000Y0060000D01*
X0085000Y0060000D01*
X0085000Y0065000D01*
X0085000Y0058750D02*
X0095000Y0058750D01*
X0095000Y0053750D01*
X0085000Y0053750D01*
X0085000Y0058750D01*
X0049171Y0035325D02*
X0049171Y0032175D01*
X0044341Y0026951D02*
X0043159Y0026951D01*
X0038329Y0032175D02*
X0038329Y0035325D01*
X0043159Y0040549D02*
X0044341Y0040549D01*
X0122938Y0092607D02*
X0122938Y0098118D01*
X0135537Y0098118D01*
X0135537Y0092607D01*
X0122938Y0092607D01*
X0137500Y0088750D02*
X0137500Y0098750D01*
X0142500Y0098750D01*
X0147500Y0098750D01*
X0147500Y0088750D01*
X0142500Y0088750D01*
X0142500Y0098750D01*
X0142500Y0088750D01*
X0137500Y0088750D01*
X0147689Y0080468D02*
X0150157Y0082936D01*
X0161875Y0088125D02*
X0161875Y0098125D01*
X0166875Y0098125D01*
X0171875Y0098125D01*
X0171875Y0088125D01*
X0166875Y0088125D01*
X0166875Y0098125D01*
X0166875Y0088125D01*
X0161875Y0088125D01*
X0169843Y0082936D02*
X0172311Y0082936D01*
X0172311Y0080468D01*
X0172500Y0083750D02*
X0172500Y0093750D01*
X0177500Y0093750D01*
X0177500Y0083750D01*
X0182500Y0083750D01*
X0182500Y0093750D01*
X0177500Y0093750D01*
X0177500Y0083750D01*
X0172500Y0083750D01*
X0180000Y0080000D02*
X0185000Y0080000D01*
X0185000Y0070000D01*
X0180000Y0070000D01*
X0180000Y0080000D01*
X0182894Y0084931D02*
X0184154Y0084931D01*
X0182894Y0084931D02*
X0182894Y0086191D01*
X0186752Y0084931D02*
X0188248Y0084931D01*
X0190846Y0084931D02*
X0192106Y0084931D01*
X0192106Y0086191D01*
X0192500Y0083750D02*
X0192500Y0093750D01*
X0197500Y0093750D01*
X0197500Y0083750D01*
X0192500Y0083750D01*
X0192500Y0080000D02*
X0197500Y0080000D01*
X0197500Y0070000D01*
X0192500Y0070000D01*
X0192500Y0080000D01*
X0197500Y0083750D02*
X0197500Y0093750D01*
X0202500Y0093750D01*
X0202500Y0083750D01*
X0197500Y0083750D01*
X0202500Y0083750D02*
X0202500Y0093750D01*
X0207500Y0093750D01*
X0207500Y0083750D01*
X0202500Y0083750D01*
X0192106Y0091309D02*
X0192106Y0092569D01*
X0190846Y0092569D01*
X0188248Y0092569D02*
X0186752Y0092569D01*
X0184154Y0092569D02*
X0182894Y0092569D01*
X0182894Y0091309D01*
X0190994Y0101201D02*
X0190994Y0113799D01*
X0196506Y0113799D01*
X0196506Y0101201D01*
X0190994Y0101201D01*
X0198494Y0101201D02*
X0198494Y0113799D01*
X0204006Y0113799D01*
X0204006Y0101201D01*
X0198494Y0101201D01*
X0207904Y0100020D02*
X0207904Y0114980D01*
X0214596Y0114980D01*
X0214596Y0100020D01*
X0207904Y0100020D01*
X0209675Y0106713D02*
X0212825Y0106713D01*
X0211250Y0108287D01*
X0209675Y0106713D01*
X0209675Y0108287D02*
X0211250Y0108287D01*
X0212825Y0108287D01*
X0217175Y0108287D02*
X0218750Y0108287D01*
X0220325Y0106713D01*
X0217175Y0106713D01*
X0218750Y0108287D01*
X0220325Y0108287D01*
X0222096Y0114980D02*
X0215404Y0114980D01*
X0215404Y0100020D01*
X0222096Y0100020D01*
X0222096Y0114980D01*
X0172311Y0060782D02*
X0172311Y0058314D01*
X0169843Y0058314D01*
X0150157Y0058314D02*
X0147689Y0058314D01*
X0147689Y0060782D01*
X0143125Y0061875D02*
X0143125Y0056875D01*
X0133125Y0056875D01*
X0133125Y0061875D01*
X0143125Y0061875D01*
X0150088Y0038913D02*
X0160088Y0038913D01*
X0160088Y0033913D01*
X0150088Y0033913D01*
X0150088Y0038913D01*
X0150088Y0034013D02*
X0160088Y0034013D01*
X0160088Y0029012D01*
X0150088Y0029012D01*
X0150088Y0034013D01*
X0150088Y0029112D02*
X0160088Y0029112D01*
X0160088Y0024112D01*
X0150088Y0024112D01*
X0150088Y0029112D01*
D13*
X0175352Y0027730D02*
X0175352Y0024730D01*
X0048250Y0087500D02*
X0048252Y0087544D01*
X0048258Y0087588D01*
X0048268Y0087631D01*
X0048281Y0087673D01*
X0048298Y0087714D01*
X0048319Y0087753D01*
X0048343Y0087790D01*
X0048370Y0087825D01*
X0048400Y0087857D01*
X0048433Y0087887D01*
X0048469Y0087913D01*
X0048506Y0087937D01*
X0048546Y0087956D01*
X0048587Y0087973D01*
X0048630Y0087985D01*
X0048673Y0087994D01*
X0048717Y0087999D01*
X0048761Y0088000D01*
X0048805Y0087997D01*
X0048849Y0087990D01*
X0048892Y0087979D01*
X0048934Y0087965D01*
X0048974Y0087947D01*
X0049013Y0087925D01*
X0049049Y0087901D01*
X0049083Y0087873D01*
X0049115Y0087842D01*
X0049144Y0087808D01*
X0049170Y0087772D01*
X0049192Y0087734D01*
X0049211Y0087694D01*
X0049226Y0087652D01*
X0049238Y0087610D01*
X0049246Y0087566D01*
X0049250Y0087522D01*
X0049250Y0087478D01*
X0049246Y0087434D01*
X0049238Y0087390D01*
X0049226Y0087348D01*
X0049211Y0087306D01*
X0049192Y0087266D01*
X0049170Y0087228D01*
X0049144Y0087192D01*
X0049115Y0087158D01*
X0049083Y0087127D01*
X0049049Y0087099D01*
X0049013Y0087075D01*
X0048974Y0087053D01*
X0048934Y0087035D01*
X0048892Y0087021D01*
X0048849Y0087010D01*
X0048805Y0087003D01*
X0048761Y0087000D01*
X0048717Y0087001D01*
X0048673Y0087006D01*
X0048630Y0087015D01*
X0048587Y0087027D01*
X0048546Y0087044D01*
X0048506Y0087063D01*
X0048469Y0087087D01*
X0048433Y0087113D01*
X0048400Y0087143D01*
X0048370Y0087175D01*
X0048343Y0087210D01*
X0048319Y0087247D01*
X0048298Y0087286D01*
X0048281Y0087327D01*
X0048268Y0087369D01*
X0048258Y0087412D01*
X0048252Y0087456D01*
X0048250Y0087500D01*
D14*
X0043750Y0093750D02*
X0041875Y0093750D01*
X0041875Y0094970D01*
X0022864Y0094970D01*
X0022864Y0122530D01*
X0049636Y0122530D01*
X0049636Y0094970D01*
X0043750Y0094970D01*
X0043750Y0093750D01*
X0043750Y0094970D02*
X0041875Y0094970D01*
X0050625Y0101875D02*
X0052500Y0103125D01*
X0052500Y0100625D01*
X0050625Y0101875D01*
X0030625Y0122530D02*
X0030625Y0123750D01*
X0028750Y0123750D01*
X0028750Y0122530D01*
X0079439Y0048140D02*
X0079439Y0045030D01*
X0079439Y0048140D02*
X0103061Y0048140D01*
X0103061Y0048100D02*
X0103061Y0044990D01*
X0103061Y0037470D02*
X0103061Y0034360D01*
X0079439Y0034360D01*
X0079439Y0034400D02*
X0079439Y0037510D01*
X0051900Y0037315D02*
X0051900Y0038583D01*
X0051900Y0037949D02*
X0049998Y0037949D01*
X0050632Y0037315D01*
X0051900Y0036373D02*
X0051900Y0035105D01*
X0049998Y0035105D01*
X0050632Y0034163D02*
X0051900Y0034163D01*
X0050949Y0034163D02*
X0050949Y0032895D01*
X0050632Y0032895D02*
X0049998Y0033529D01*
X0050632Y0034163D01*
X0050632Y0032895D02*
X0051900Y0032895D01*
X0051900Y0031319D02*
X0049998Y0031319D01*
X0049998Y0030685D02*
X0049998Y0031953D01*
X0049998Y0029743D02*
X0051900Y0028475D01*
X0051900Y0029743D02*
X0049998Y0028475D01*
D15*
X0147402Y0083223D03*
D16*
X0046713Y0071368D02*
X0043957Y0072943D01*
X0043957Y0069793D01*
X0046713Y0071368D01*
X0040020Y0080226D02*
X0040020Y0081604D01*
X0033130Y0081604D01*
X0023287Y0081604D02*
X0022500Y0081604D01*
X0022500Y0050896D02*
X0023287Y0050896D01*
X0033130Y0050896D02*
X0040020Y0050896D01*
X0040020Y0052274D01*
D17*
X0033337Y0047265D02*
X0033337Y0042661D01*
X0034871Y0042661D02*
X0031802Y0042661D01*
X0029500Y0043428D02*
X0029500Y0047265D01*
X0028733Y0047265D02*
X0030267Y0047265D01*
X0031802Y0045730D02*
X0033337Y0047265D01*
X0029500Y0043428D02*
X0028733Y0042661D01*
X0027965Y0042661D01*
X0027198Y0043428D01*
M02*
