G75*
%MOIN*%
%OFA0B0*%
%FSLAX25Y25*%
%IPPOS*%
%LPD*%
%AMOC8*
5,1,8,0,0,1.08239X$1,22.5*
%
%ADD10C,0.00001*%
%ADD11R,0.03543X0.02756*%
D10*
X0030374Y0020000D02*
X0231161Y0020000D01*
X0231351Y0020002D01*
X0231541Y0020009D01*
X0231731Y0020021D01*
X0231921Y0020037D01*
X0232110Y0020057D01*
X0232299Y0020083D01*
X0232487Y0020112D01*
X0232674Y0020147D01*
X0232860Y0020186D01*
X0233045Y0020229D01*
X0233230Y0020277D01*
X0233413Y0020329D01*
X0233594Y0020385D01*
X0233774Y0020446D01*
X0233953Y0020512D01*
X0234130Y0020581D01*
X0234306Y0020655D01*
X0234479Y0020733D01*
X0234651Y0020816D01*
X0234820Y0020902D01*
X0234988Y0020992D01*
X0235153Y0021087D01*
X0235316Y0021185D01*
X0235476Y0021288D01*
X0235634Y0021394D01*
X0235789Y0021504D01*
X0235942Y0021617D01*
X0236092Y0021735D01*
X0236238Y0021856D01*
X0236382Y0021980D01*
X0236523Y0022108D01*
X0236661Y0022239D01*
X0236796Y0022374D01*
X0236927Y0022512D01*
X0237055Y0022653D01*
X0237179Y0022797D01*
X0237300Y0022943D01*
X0237418Y0023093D01*
X0237531Y0023246D01*
X0237641Y0023401D01*
X0237747Y0023559D01*
X0237850Y0023719D01*
X0237948Y0023882D01*
X0238043Y0024047D01*
X0238133Y0024215D01*
X0238219Y0024384D01*
X0238302Y0024556D01*
X0238380Y0024729D01*
X0238454Y0024905D01*
X0238523Y0025082D01*
X0238589Y0025261D01*
X0238650Y0025441D01*
X0238706Y0025622D01*
X0238758Y0025805D01*
X0238806Y0025990D01*
X0238849Y0026175D01*
X0238888Y0026361D01*
X0238923Y0026548D01*
X0238952Y0026736D01*
X0238978Y0026925D01*
X0238998Y0027114D01*
X0239014Y0027304D01*
X0239026Y0027494D01*
X0239033Y0027684D01*
X0239035Y0027874D01*
X0239035Y0130236D01*
X0226043Y0130236D02*
X0226045Y0130379D01*
X0226051Y0130522D01*
X0226061Y0130664D01*
X0226075Y0130806D01*
X0226093Y0130948D01*
X0226115Y0131090D01*
X0226140Y0131230D01*
X0226170Y0131370D01*
X0226204Y0131509D01*
X0226241Y0131647D01*
X0226283Y0131784D01*
X0226328Y0131919D01*
X0226377Y0132053D01*
X0226429Y0132186D01*
X0226485Y0132318D01*
X0226545Y0132447D01*
X0226609Y0132575D01*
X0226676Y0132702D01*
X0226747Y0132826D01*
X0226821Y0132948D01*
X0226898Y0133068D01*
X0226979Y0133186D01*
X0227063Y0133302D01*
X0227150Y0133415D01*
X0227240Y0133526D01*
X0227334Y0133634D01*
X0227430Y0133740D01*
X0227529Y0133842D01*
X0227632Y0133942D01*
X0227736Y0134039D01*
X0227844Y0134134D01*
X0227954Y0134225D01*
X0228067Y0134313D01*
X0228182Y0134397D01*
X0228299Y0134479D01*
X0228419Y0134557D01*
X0228540Y0134632D01*
X0228664Y0134704D01*
X0228790Y0134772D01*
X0228917Y0134836D01*
X0229047Y0134897D01*
X0229178Y0134954D01*
X0229310Y0135008D01*
X0229444Y0135057D01*
X0229579Y0135104D01*
X0229716Y0135146D01*
X0229854Y0135184D01*
X0229992Y0135219D01*
X0230132Y0135249D01*
X0230272Y0135276D01*
X0230413Y0135299D01*
X0230555Y0135318D01*
X0230697Y0135333D01*
X0230840Y0135344D01*
X0230982Y0135351D01*
X0231125Y0135354D01*
X0231268Y0135353D01*
X0231411Y0135348D01*
X0231554Y0135339D01*
X0231696Y0135326D01*
X0231838Y0135309D01*
X0231979Y0135288D01*
X0232120Y0135263D01*
X0232260Y0135235D01*
X0232399Y0135202D01*
X0232537Y0135165D01*
X0232674Y0135125D01*
X0232810Y0135081D01*
X0232945Y0135033D01*
X0233078Y0134981D01*
X0233210Y0134926D01*
X0233340Y0134867D01*
X0233469Y0134804D01*
X0233595Y0134738D01*
X0233720Y0134668D01*
X0233843Y0134595D01*
X0233963Y0134519D01*
X0234082Y0134439D01*
X0234198Y0134355D01*
X0234312Y0134269D01*
X0234423Y0134179D01*
X0234532Y0134087D01*
X0234638Y0133991D01*
X0234742Y0133893D01*
X0234843Y0133791D01*
X0234940Y0133687D01*
X0235035Y0133580D01*
X0235127Y0133471D01*
X0235216Y0133359D01*
X0235302Y0133244D01*
X0235384Y0133128D01*
X0235463Y0133008D01*
X0235539Y0132887D01*
X0235611Y0132764D01*
X0235680Y0132639D01*
X0235745Y0132512D01*
X0235807Y0132383D01*
X0235865Y0132252D01*
X0235920Y0132120D01*
X0235970Y0131986D01*
X0236017Y0131851D01*
X0236061Y0131715D01*
X0236100Y0131578D01*
X0236135Y0131439D01*
X0236167Y0131300D01*
X0236195Y0131160D01*
X0236219Y0131019D01*
X0236239Y0130877D01*
X0236255Y0130735D01*
X0236267Y0130593D01*
X0236275Y0130450D01*
X0236279Y0130307D01*
X0236279Y0130165D01*
X0236275Y0130022D01*
X0236267Y0129879D01*
X0236255Y0129737D01*
X0236239Y0129595D01*
X0236219Y0129453D01*
X0236195Y0129312D01*
X0236167Y0129172D01*
X0236135Y0129033D01*
X0236100Y0128894D01*
X0236061Y0128757D01*
X0236017Y0128621D01*
X0235970Y0128486D01*
X0235920Y0128352D01*
X0235865Y0128220D01*
X0235807Y0128089D01*
X0235745Y0127960D01*
X0235680Y0127833D01*
X0235611Y0127708D01*
X0235539Y0127585D01*
X0235463Y0127464D01*
X0235384Y0127344D01*
X0235302Y0127228D01*
X0235216Y0127113D01*
X0235127Y0127001D01*
X0235035Y0126892D01*
X0234940Y0126785D01*
X0234843Y0126681D01*
X0234742Y0126579D01*
X0234638Y0126481D01*
X0234532Y0126385D01*
X0234423Y0126293D01*
X0234312Y0126203D01*
X0234198Y0126117D01*
X0234082Y0126033D01*
X0233963Y0125953D01*
X0233843Y0125877D01*
X0233720Y0125804D01*
X0233595Y0125734D01*
X0233469Y0125668D01*
X0233340Y0125605D01*
X0233210Y0125546D01*
X0233078Y0125491D01*
X0232945Y0125439D01*
X0232810Y0125391D01*
X0232674Y0125347D01*
X0232537Y0125307D01*
X0232399Y0125270D01*
X0232260Y0125237D01*
X0232120Y0125209D01*
X0231979Y0125184D01*
X0231838Y0125163D01*
X0231696Y0125146D01*
X0231554Y0125133D01*
X0231411Y0125124D01*
X0231268Y0125119D01*
X0231125Y0125118D01*
X0230982Y0125121D01*
X0230840Y0125128D01*
X0230697Y0125139D01*
X0230555Y0125154D01*
X0230413Y0125173D01*
X0230272Y0125196D01*
X0230132Y0125223D01*
X0229992Y0125253D01*
X0229854Y0125288D01*
X0229716Y0125326D01*
X0229579Y0125368D01*
X0229444Y0125415D01*
X0229310Y0125464D01*
X0229178Y0125518D01*
X0229047Y0125575D01*
X0228917Y0125636D01*
X0228790Y0125700D01*
X0228664Y0125768D01*
X0228540Y0125840D01*
X0228419Y0125915D01*
X0228299Y0125993D01*
X0228182Y0126075D01*
X0228067Y0126159D01*
X0227954Y0126247D01*
X0227844Y0126338D01*
X0227736Y0126433D01*
X0227632Y0126530D01*
X0227529Y0126630D01*
X0227430Y0126732D01*
X0227334Y0126838D01*
X0227240Y0126946D01*
X0227150Y0127057D01*
X0227063Y0127170D01*
X0226979Y0127286D01*
X0226898Y0127404D01*
X0226821Y0127524D01*
X0226747Y0127646D01*
X0226676Y0127770D01*
X0226609Y0127897D01*
X0226545Y0128025D01*
X0226485Y0128154D01*
X0226429Y0128286D01*
X0226377Y0128419D01*
X0226328Y0128553D01*
X0226283Y0128688D01*
X0226241Y0128825D01*
X0226204Y0128963D01*
X0226170Y0129102D01*
X0226140Y0129242D01*
X0226115Y0129382D01*
X0226093Y0129524D01*
X0226075Y0129666D01*
X0226061Y0129808D01*
X0226051Y0129950D01*
X0226045Y0130093D01*
X0226043Y0130236D01*
X0231161Y0138110D02*
X0231351Y0138108D01*
X0231541Y0138101D01*
X0231731Y0138089D01*
X0231921Y0138073D01*
X0232110Y0138053D01*
X0232299Y0138027D01*
X0232487Y0137998D01*
X0232674Y0137963D01*
X0232860Y0137924D01*
X0233045Y0137881D01*
X0233230Y0137833D01*
X0233413Y0137781D01*
X0233594Y0137725D01*
X0233774Y0137664D01*
X0233953Y0137598D01*
X0234130Y0137529D01*
X0234306Y0137455D01*
X0234479Y0137377D01*
X0234651Y0137294D01*
X0234820Y0137208D01*
X0234988Y0137118D01*
X0235153Y0137023D01*
X0235316Y0136925D01*
X0235476Y0136822D01*
X0235634Y0136716D01*
X0235789Y0136606D01*
X0235942Y0136493D01*
X0236092Y0136375D01*
X0236238Y0136254D01*
X0236382Y0136130D01*
X0236523Y0136002D01*
X0236661Y0135871D01*
X0236796Y0135736D01*
X0236927Y0135598D01*
X0237055Y0135457D01*
X0237179Y0135313D01*
X0237300Y0135167D01*
X0237418Y0135017D01*
X0237531Y0134864D01*
X0237641Y0134709D01*
X0237747Y0134551D01*
X0237850Y0134391D01*
X0237948Y0134228D01*
X0238043Y0134063D01*
X0238133Y0133895D01*
X0238219Y0133726D01*
X0238302Y0133554D01*
X0238380Y0133381D01*
X0238454Y0133205D01*
X0238523Y0133028D01*
X0238589Y0132849D01*
X0238650Y0132669D01*
X0238706Y0132488D01*
X0238758Y0132305D01*
X0238806Y0132120D01*
X0238849Y0131935D01*
X0238888Y0131749D01*
X0238923Y0131562D01*
X0238952Y0131374D01*
X0238978Y0131185D01*
X0238998Y0130996D01*
X0239014Y0130806D01*
X0239026Y0130616D01*
X0239033Y0130426D01*
X0239035Y0130236D01*
X0231161Y0138110D02*
X0030374Y0138110D01*
X0025256Y0130236D02*
X0025258Y0130379D01*
X0025264Y0130522D01*
X0025274Y0130664D01*
X0025288Y0130806D01*
X0025306Y0130948D01*
X0025328Y0131090D01*
X0025353Y0131230D01*
X0025383Y0131370D01*
X0025417Y0131509D01*
X0025454Y0131647D01*
X0025496Y0131784D01*
X0025541Y0131919D01*
X0025590Y0132053D01*
X0025642Y0132186D01*
X0025698Y0132318D01*
X0025758Y0132447D01*
X0025822Y0132575D01*
X0025889Y0132702D01*
X0025960Y0132826D01*
X0026034Y0132948D01*
X0026111Y0133068D01*
X0026192Y0133186D01*
X0026276Y0133302D01*
X0026363Y0133415D01*
X0026453Y0133526D01*
X0026547Y0133634D01*
X0026643Y0133740D01*
X0026742Y0133842D01*
X0026845Y0133942D01*
X0026949Y0134039D01*
X0027057Y0134134D01*
X0027167Y0134225D01*
X0027280Y0134313D01*
X0027395Y0134397D01*
X0027512Y0134479D01*
X0027632Y0134557D01*
X0027753Y0134632D01*
X0027877Y0134704D01*
X0028003Y0134772D01*
X0028130Y0134836D01*
X0028260Y0134897D01*
X0028391Y0134954D01*
X0028523Y0135008D01*
X0028657Y0135057D01*
X0028792Y0135104D01*
X0028929Y0135146D01*
X0029067Y0135184D01*
X0029205Y0135219D01*
X0029345Y0135249D01*
X0029485Y0135276D01*
X0029626Y0135299D01*
X0029768Y0135318D01*
X0029910Y0135333D01*
X0030053Y0135344D01*
X0030195Y0135351D01*
X0030338Y0135354D01*
X0030481Y0135353D01*
X0030624Y0135348D01*
X0030767Y0135339D01*
X0030909Y0135326D01*
X0031051Y0135309D01*
X0031192Y0135288D01*
X0031333Y0135263D01*
X0031473Y0135235D01*
X0031612Y0135202D01*
X0031750Y0135165D01*
X0031887Y0135125D01*
X0032023Y0135081D01*
X0032158Y0135033D01*
X0032291Y0134981D01*
X0032423Y0134926D01*
X0032553Y0134867D01*
X0032682Y0134804D01*
X0032808Y0134738D01*
X0032933Y0134668D01*
X0033056Y0134595D01*
X0033176Y0134519D01*
X0033295Y0134439D01*
X0033411Y0134355D01*
X0033525Y0134269D01*
X0033636Y0134179D01*
X0033745Y0134087D01*
X0033851Y0133991D01*
X0033955Y0133893D01*
X0034056Y0133791D01*
X0034153Y0133687D01*
X0034248Y0133580D01*
X0034340Y0133471D01*
X0034429Y0133359D01*
X0034515Y0133244D01*
X0034597Y0133128D01*
X0034676Y0133008D01*
X0034752Y0132887D01*
X0034824Y0132764D01*
X0034893Y0132639D01*
X0034958Y0132512D01*
X0035020Y0132383D01*
X0035078Y0132252D01*
X0035133Y0132120D01*
X0035183Y0131986D01*
X0035230Y0131851D01*
X0035274Y0131715D01*
X0035313Y0131578D01*
X0035348Y0131439D01*
X0035380Y0131300D01*
X0035408Y0131160D01*
X0035432Y0131019D01*
X0035452Y0130877D01*
X0035468Y0130735D01*
X0035480Y0130593D01*
X0035488Y0130450D01*
X0035492Y0130307D01*
X0035492Y0130165D01*
X0035488Y0130022D01*
X0035480Y0129879D01*
X0035468Y0129737D01*
X0035452Y0129595D01*
X0035432Y0129453D01*
X0035408Y0129312D01*
X0035380Y0129172D01*
X0035348Y0129033D01*
X0035313Y0128894D01*
X0035274Y0128757D01*
X0035230Y0128621D01*
X0035183Y0128486D01*
X0035133Y0128352D01*
X0035078Y0128220D01*
X0035020Y0128089D01*
X0034958Y0127960D01*
X0034893Y0127833D01*
X0034824Y0127708D01*
X0034752Y0127585D01*
X0034676Y0127464D01*
X0034597Y0127344D01*
X0034515Y0127228D01*
X0034429Y0127113D01*
X0034340Y0127001D01*
X0034248Y0126892D01*
X0034153Y0126785D01*
X0034056Y0126681D01*
X0033955Y0126579D01*
X0033851Y0126481D01*
X0033745Y0126385D01*
X0033636Y0126293D01*
X0033525Y0126203D01*
X0033411Y0126117D01*
X0033295Y0126033D01*
X0033176Y0125953D01*
X0033056Y0125877D01*
X0032933Y0125804D01*
X0032808Y0125734D01*
X0032682Y0125668D01*
X0032553Y0125605D01*
X0032423Y0125546D01*
X0032291Y0125491D01*
X0032158Y0125439D01*
X0032023Y0125391D01*
X0031887Y0125347D01*
X0031750Y0125307D01*
X0031612Y0125270D01*
X0031473Y0125237D01*
X0031333Y0125209D01*
X0031192Y0125184D01*
X0031051Y0125163D01*
X0030909Y0125146D01*
X0030767Y0125133D01*
X0030624Y0125124D01*
X0030481Y0125119D01*
X0030338Y0125118D01*
X0030195Y0125121D01*
X0030053Y0125128D01*
X0029910Y0125139D01*
X0029768Y0125154D01*
X0029626Y0125173D01*
X0029485Y0125196D01*
X0029345Y0125223D01*
X0029205Y0125253D01*
X0029067Y0125288D01*
X0028929Y0125326D01*
X0028792Y0125368D01*
X0028657Y0125415D01*
X0028523Y0125464D01*
X0028391Y0125518D01*
X0028260Y0125575D01*
X0028130Y0125636D01*
X0028003Y0125700D01*
X0027877Y0125768D01*
X0027753Y0125840D01*
X0027632Y0125915D01*
X0027512Y0125993D01*
X0027395Y0126075D01*
X0027280Y0126159D01*
X0027167Y0126247D01*
X0027057Y0126338D01*
X0026949Y0126433D01*
X0026845Y0126530D01*
X0026742Y0126630D01*
X0026643Y0126732D01*
X0026547Y0126838D01*
X0026453Y0126946D01*
X0026363Y0127057D01*
X0026276Y0127170D01*
X0026192Y0127286D01*
X0026111Y0127404D01*
X0026034Y0127524D01*
X0025960Y0127646D01*
X0025889Y0127770D01*
X0025822Y0127897D01*
X0025758Y0128025D01*
X0025698Y0128154D01*
X0025642Y0128286D01*
X0025590Y0128419D01*
X0025541Y0128553D01*
X0025496Y0128688D01*
X0025454Y0128825D01*
X0025417Y0128963D01*
X0025383Y0129102D01*
X0025353Y0129242D01*
X0025328Y0129382D01*
X0025306Y0129524D01*
X0025288Y0129666D01*
X0025274Y0129808D01*
X0025264Y0129950D01*
X0025258Y0130093D01*
X0025256Y0130236D01*
X0022500Y0130236D02*
X0022500Y0027874D01*
X0025256Y0027874D02*
X0025258Y0028017D01*
X0025264Y0028160D01*
X0025274Y0028302D01*
X0025288Y0028444D01*
X0025306Y0028586D01*
X0025328Y0028728D01*
X0025353Y0028868D01*
X0025383Y0029008D01*
X0025417Y0029147D01*
X0025454Y0029285D01*
X0025496Y0029422D01*
X0025541Y0029557D01*
X0025590Y0029691D01*
X0025642Y0029824D01*
X0025698Y0029956D01*
X0025758Y0030085D01*
X0025822Y0030213D01*
X0025889Y0030340D01*
X0025960Y0030464D01*
X0026034Y0030586D01*
X0026111Y0030706D01*
X0026192Y0030824D01*
X0026276Y0030940D01*
X0026363Y0031053D01*
X0026453Y0031164D01*
X0026547Y0031272D01*
X0026643Y0031378D01*
X0026742Y0031480D01*
X0026845Y0031580D01*
X0026949Y0031677D01*
X0027057Y0031772D01*
X0027167Y0031863D01*
X0027280Y0031951D01*
X0027395Y0032035D01*
X0027512Y0032117D01*
X0027632Y0032195D01*
X0027753Y0032270D01*
X0027877Y0032342D01*
X0028003Y0032410D01*
X0028130Y0032474D01*
X0028260Y0032535D01*
X0028391Y0032592D01*
X0028523Y0032646D01*
X0028657Y0032695D01*
X0028792Y0032742D01*
X0028929Y0032784D01*
X0029067Y0032822D01*
X0029205Y0032857D01*
X0029345Y0032887D01*
X0029485Y0032914D01*
X0029626Y0032937D01*
X0029768Y0032956D01*
X0029910Y0032971D01*
X0030053Y0032982D01*
X0030195Y0032989D01*
X0030338Y0032992D01*
X0030481Y0032991D01*
X0030624Y0032986D01*
X0030767Y0032977D01*
X0030909Y0032964D01*
X0031051Y0032947D01*
X0031192Y0032926D01*
X0031333Y0032901D01*
X0031473Y0032873D01*
X0031612Y0032840D01*
X0031750Y0032803D01*
X0031887Y0032763D01*
X0032023Y0032719D01*
X0032158Y0032671D01*
X0032291Y0032619D01*
X0032423Y0032564D01*
X0032553Y0032505D01*
X0032682Y0032442D01*
X0032808Y0032376D01*
X0032933Y0032306D01*
X0033056Y0032233D01*
X0033176Y0032157D01*
X0033295Y0032077D01*
X0033411Y0031993D01*
X0033525Y0031907D01*
X0033636Y0031817D01*
X0033745Y0031725D01*
X0033851Y0031629D01*
X0033955Y0031531D01*
X0034056Y0031429D01*
X0034153Y0031325D01*
X0034248Y0031218D01*
X0034340Y0031109D01*
X0034429Y0030997D01*
X0034515Y0030882D01*
X0034597Y0030766D01*
X0034676Y0030646D01*
X0034752Y0030525D01*
X0034824Y0030402D01*
X0034893Y0030277D01*
X0034958Y0030150D01*
X0035020Y0030021D01*
X0035078Y0029890D01*
X0035133Y0029758D01*
X0035183Y0029624D01*
X0035230Y0029489D01*
X0035274Y0029353D01*
X0035313Y0029216D01*
X0035348Y0029077D01*
X0035380Y0028938D01*
X0035408Y0028798D01*
X0035432Y0028657D01*
X0035452Y0028515D01*
X0035468Y0028373D01*
X0035480Y0028231D01*
X0035488Y0028088D01*
X0035492Y0027945D01*
X0035492Y0027803D01*
X0035488Y0027660D01*
X0035480Y0027517D01*
X0035468Y0027375D01*
X0035452Y0027233D01*
X0035432Y0027091D01*
X0035408Y0026950D01*
X0035380Y0026810D01*
X0035348Y0026671D01*
X0035313Y0026532D01*
X0035274Y0026395D01*
X0035230Y0026259D01*
X0035183Y0026124D01*
X0035133Y0025990D01*
X0035078Y0025858D01*
X0035020Y0025727D01*
X0034958Y0025598D01*
X0034893Y0025471D01*
X0034824Y0025346D01*
X0034752Y0025223D01*
X0034676Y0025102D01*
X0034597Y0024982D01*
X0034515Y0024866D01*
X0034429Y0024751D01*
X0034340Y0024639D01*
X0034248Y0024530D01*
X0034153Y0024423D01*
X0034056Y0024319D01*
X0033955Y0024217D01*
X0033851Y0024119D01*
X0033745Y0024023D01*
X0033636Y0023931D01*
X0033525Y0023841D01*
X0033411Y0023755D01*
X0033295Y0023671D01*
X0033176Y0023591D01*
X0033056Y0023515D01*
X0032933Y0023442D01*
X0032808Y0023372D01*
X0032682Y0023306D01*
X0032553Y0023243D01*
X0032423Y0023184D01*
X0032291Y0023129D01*
X0032158Y0023077D01*
X0032023Y0023029D01*
X0031887Y0022985D01*
X0031750Y0022945D01*
X0031612Y0022908D01*
X0031473Y0022875D01*
X0031333Y0022847D01*
X0031192Y0022822D01*
X0031051Y0022801D01*
X0030909Y0022784D01*
X0030767Y0022771D01*
X0030624Y0022762D01*
X0030481Y0022757D01*
X0030338Y0022756D01*
X0030195Y0022759D01*
X0030053Y0022766D01*
X0029910Y0022777D01*
X0029768Y0022792D01*
X0029626Y0022811D01*
X0029485Y0022834D01*
X0029345Y0022861D01*
X0029205Y0022891D01*
X0029067Y0022926D01*
X0028929Y0022964D01*
X0028792Y0023006D01*
X0028657Y0023053D01*
X0028523Y0023102D01*
X0028391Y0023156D01*
X0028260Y0023213D01*
X0028130Y0023274D01*
X0028003Y0023338D01*
X0027877Y0023406D01*
X0027753Y0023478D01*
X0027632Y0023553D01*
X0027512Y0023631D01*
X0027395Y0023713D01*
X0027280Y0023797D01*
X0027167Y0023885D01*
X0027057Y0023976D01*
X0026949Y0024071D01*
X0026845Y0024168D01*
X0026742Y0024268D01*
X0026643Y0024370D01*
X0026547Y0024476D01*
X0026453Y0024584D01*
X0026363Y0024695D01*
X0026276Y0024808D01*
X0026192Y0024924D01*
X0026111Y0025042D01*
X0026034Y0025162D01*
X0025960Y0025284D01*
X0025889Y0025408D01*
X0025822Y0025535D01*
X0025758Y0025663D01*
X0025698Y0025792D01*
X0025642Y0025924D01*
X0025590Y0026057D01*
X0025541Y0026191D01*
X0025496Y0026326D01*
X0025454Y0026463D01*
X0025417Y0026601D01*
X0025383Y0026740D01*
X0025353Y0026880D01*
X0025328Y0027020D01*
X0025306Y0027162D01*
X0025288Y0027304D01*
X0025274Y0027446D01*
X0025264Y0027588D01*
X0025258Y0027731D01*
X0025256Y0027874D01*
X0022500Y0027874D02*
X0022502Y0027684D01*
X0022509Y0027494D01*
X0022521Y0027304D01*
X0022537Y0027114D01*
X0022557Y0026925D01*
X0022583Y0026736D01*
X0022612Y0026548D01*
X0022647Y0026361D01*
X0022686Y0026175D01*
X0022729Y0025990D01*
X0022777Y0025805D01*
X0022829Y0025622D01*
X0022885Y0025441D01*
X0022946Y0025261D01*
X0023012Y0025082D01*
X0023081Y0024905D01*
X0023155Y0024729D01*
X0023233Y0024556D01*
X0023316Y0024384D01*
X0023402Y0024215D01*
X0023492Y0024047D01*
X0023587Y0023882D01*
X0023685Y0023719D01*
X0023788Y0023559D01*
X0023894Y0023401D01*
X0024004Y0023246D01*
X0024117Y0023093D01*
X0024235Y0022943D01*
X0024356Y0022797D01*
X0024480Y0022653D01*
X0024608Y0022512D01*
X0024739Y0022374D01*
X0024874Y0022239D01*
X0025012Y0022108D01*
X0025153Y0021980D01*
X0025297Y0021856D01*
X0025443Y0021735D01*
X0025593Y0021617D01*
X0025746Y0021504D01*
X0025901Y0021394D01*
X0026059Y0021288D01*
X0026219Y0021185D01*
X0026382Y0021087D01*
X0026547Y0020992D01*
X0026715Y0020902D01*
X0026884Y0020816D01*
X0027056Y0020733D01*
X0027229Y0020655D01*
X0027405Y0020581D01*
X0027582Y0020512D01*
X0027761Y0020446D01*
X0027941Y0020385D01*
X0028122Y0020329D01*
X0028305Y0020277D01*
X0028490Y0020229D01*
X0028675Y0020186D01*
X0028861Y0020147D01*
X0029048Y0020112D01*
X0029236Y0020083D01*
X0029425Y0020057D01*
X0029614Y0020037D01*
X0029804Y0020021D01*
X0029994Y0020009D01*
X0030184Y0020002D01*
X0030374Y0020000D01*
X0022500Y0130236D02*
X0022502Y0130426D01*
X0022509Y0130616D01*
X0022521Y0130806D01*
X0022537Y0130996D01*
X0022557Y0131185D01*
X0022583Y0131374D01*
X0022612Y0131562D01*
X0022647Y0131749D01*
X0022686Y0131935D01*
X0022729Y0132120D01*
X0022777Y0132305D01*
X0022829Y0132488D01*
X0022885Y0132669D01*
X0022946Y0132849D01*
X0023012Y0133028D01*
X0023081Y0133205D01*
X0023155Y0133381D01*
X0023233Y0133554D01*
X0023316Y0133726D01*
X0023402Y0133895D01*
X0023492Y0134063D01*
X0023587Y0134228D01*
X0023685Y0134391D01*
X0023788Y0134551D01*
X0023894Y0134709D01*
X0024004Y0134864D01*
X0024117Y0135017D01*
X0024235Y0135167D01*
X0024356Y0135313D01*
X0024480Y0135457D01*
X0024608Y0135598D01*
X0024739Y0135736D01*
X0024874Y0135871D01*
X0025012Y0136002D01*
X0025153Y0136130D01*
X0025297Y0136254D01*
X0025443Y0136375D01*
X0025593Y0136493D01*
X0025746Y0136606D01*
X0025901Y0136716D01*
X0026059Y0136822D01*
X0026219Y0136925D01*
X0026382Y0137023D01*
X0026547Y0137118D01*
X0026715Y0137208D01*
X0026884Y0137294D01*
X0027056Y0137377D01*
X0027229Y0137455D01*
X0027405Y0137529D01*
X0027582Y0137598D01*
X0027761Y0137664D01*
X0027941Y0137725D01*
X0028122Y0137781D01*
X0028305Y0137833D01*
X0028490Y0137881D01*
X0028675Y0137924D01*
X0028861Y0137963D01*
X0029048Y0137998D01*
X0029236Y0138027D01*
X0029425Y0138053D01*
X0029614Y0138073D01*
X0029804Y0138089D01*
X0029994Y0138101D01*
X0030184Y0138108D01*
X0030374Y0138110D01*
X0182736Y0051496D02*
X0182738Y0051639D01*
X0182744Y0051782D01*
X0182754Y0051924D01*
X0182768Y0052066D01*
X0182786Y0052208D01*
X0182808Y0052350D01*
X0182833Y0052490D01*
X0182863Y0052630D01*
X0182897Y0052769D01*
X0182934Y0052907D01*
X0182976Y0053044D01*
X0183021Y0053179D01*
X0183070Y0053313D01*
X0183122Y0053446D01*
X0183178Y0053578D01*
X0183238Y0053707D01*
X0183302Y0053835D01*
X0183369Y0053962D01*
X0183440Y0054086D01*
X0183514Y0054208D01*
X0183591Y0054328D01*
X0183672Y0054446D01*
X0183756Y0054562D01*
X0183843Y0054675D01*
X0183933Y0054786D01*
X0184027Y0054894D01*
X0184123Y0055000D01*
X0184222Y0055102D01*
X0184325Y0055202D01*
X0184429Y0055299D01*
X0184537Y0055394D01*
X0184647Y0055485D01*
X0184760Y0055573D01*
X0184875Y0055657D01*
X0184992Y0055739D01*
X0185112Y0055817D01*
X0185233Y0055892D01*
X0185357Y0055964D01*
X0185483Y0056032D01*
X0185610Y0056096D01*
X0185740Y0056157D01*
X0185871Y0056214D01*
X0186003Y0056268D01*
X0186137Y0056317D01*
X0186272Y0056364D01*
X0186409Y0056406D01*
X0186547Y0056444D01*
X0186685Y0056479D01*
X0186825Y0056509D01*
X0186965Y0056536D01*
X0187106Y0056559D01*
X0187248Y0056578D01*
X0187390Y0056593D01*
X0187533Y0056604D01*
X0187675Y0056611D01*
X0187818Y0056614D01*
X0187961Y0056613D01*
X0188104Y0056608D01*
X0188247Y0056599D01*
X0188389Y0056586D01*
X0188531Y0056569D01*
X0188672Y0056548D01*
X0188813Y0056523D01*
X0188953Y0056495D01*
X0189092Y0056462D01*
X0189230Y0056425D01*
X0189367Y0056385D01*
X0189503Y0056341D01*
X0189638Y0056293D01*
X0189771Y0056241D01*
X0189903Y0056186D01*
X0190033Y0056127D01*
X0190162Y0056064D01*
X0190288Y0055998D01*
X0190413Y0055928D01*
X0190536Y0055855D01*
X0190656Y0055779D01*
X0190775Y0055699D01*
X0190891Y0055615D01*
X0191005Y0055529D01*
X0191116Y0055439D01*
X0191225Y0055347D01*
X0191331Y0055251D01*
X0191435Y0055153D01*
X0191536Y0055051D01*
X0191633Y0054947D01*
X0191728Y0054840D01*
X0191820Y0054731D01*
X0191909Y0054619D01*
X0191995Y0054504D01*
X0192077Y0054388D01*
X0192156Y0054268D01*
X0192232Y0054147D01*
X0192304Y0054024D01*
X0192373Y0053899D01*
X0192438Y0053772D01*
X0192500Y0053643D01*
X0192558Y0053512D01*
X0192613Y0053380D01*
X0192663Y0053246D01*
X0192710Y0053111D01*
X0192754Y0052975D01*
X0192793Y0052838D01*
X0192828Y0052699D01*
X0192860Y0052560D01*
X0192888Y0052420D01*
X0192912Y0052279D01*
X0192932Y0052137D01*
X0192948Y0051995D01*
X0192960Y0051853D01*
X0192968Y0051710D01*
X0192972Y0051567D01*
X0192972Y0051425D01*
X0192968Y0051282D01*
X0192960Y0051139D01*
X0192948Y0050997D01*
X0192932Y0050855D01*
X0192912Y0050713D01*
X0192888Y0050572D01*
X0192860Y0050432D01*
X0192828Y0050293D01*
X0192793Y0050154D01*
X0192754Y0050017D01*
X0192710Y0049881D01*
X0192663Y0049746D01*
X0192613Y0049612D01*
X0192558Y0049480D01*
X0192500Y0049349D01*
X0192438Y0049220D01*
X0192373Y0049093D01*
X0192304Y0048968D01*
X0192232Y0048845D01*
X0192156Y0048724D01*
X0192077Y0048604D01*
X0191995Y0048488D01*
X0191909Y0048373D01*
X0191820Y0048261D01*
X0191728Y0048152D01*
X0191633Y0048045D01*
X0191536Y0047941D01*
X0191435Y0047839D01*
X0191331Y0047741D01*
X0191225Y0047645D01*
X0191116Y0047553D01*
X0191005Y0047463D01*
X0190891Y0047377D01*
X0190775Y0047293D01*
X0190656Y0047213D01*
X0190536Y0047137D01*
X0190413Y0047064D01*
X0190288Y0046994D01*
X0190162Y0046928D01*
X0190033Y0046865D01*
X0189903Y0046806D01*
X0189771Y0046751D01*
X0189638Y0046699D01*
X0189503Y0046651D01*
X0189367Y0046607D01*
X0189230Y0046567D01*
X0189092Y0046530D01*
X0188953Y0046497D01*
X0188813Y0046469D01*
X0188672Y0046444D01*
X0188531Y0046423D01*
X0188389Y0046406D01*
X0188247Y0046393D01*
X0188104Y0046384D01*
X0187961Y0046379D01*
X0187818Y0046378D01*
X0187675Y0046381D01*
X0187533Y0046388D01*
X0187390Y0046399D01*
X0187248Y0046414D01*
X0187106Y0046433D01*
X0186965Y0046456D01*
X0186825Y0046483D01*
X0186685Y0046513D01*
X0186547Y0046548D01*
X0186409Y0046586D01*
X0186272Y0046628D01*
X0186137Y0046675D01*
X0186003Y0046724D01*
X0185871Y0046778D01*
X0185740Y0046835D01*
X0185610Y0046896D01*
X0185483Y0046960D01*
X0185357Y0047028D01*
X0185233Y0047100D01*
X0185112Y0047175D01*
X0184992Y0047253D01*
X0184875Y0047335D01*
X0184760Y0047419D01*
X0184647Y0047507D01*
X0184537Y0047598D01*
X0184429Y0047693D01*
X0184325Y0047790D01*
X0184222Y0047890D01*
X0184123Y0047992D01*
X0184027Y0048098D01*
X0183933Y0048206D01*
X0183843Y0048317D01*
X0183756Y0048430D01*
X0183672Y0048546D01*
X0183591Y0048664D01*
X0183514Y0048784D01*
X0183440Y0048906D01*
X0183369Y0049030D01*
X0183302Y0049157D01*
X0183238Y0049285D01*
X0183178Y0049414D01*
X0183122Y0049546D01*
X0183070Y0049679D01*
X0183021Y0049813D01*
X0182976Y0049948D01*
X0182934Y0050085D01*
X0182897Y0050223D01*
X0182863Y0050362D01*
X0182833Y0050502D01*
X0182808Y0050642D01*
X0182786Y0050784D01*
X0182768Y0050926D01*
X0182754Y0051068D01*
X0182744Y0051210D01*
X0182738Y0051353D01*
X0182736Y0051496D01*
D11*
X0047500Y0036309D03*
X0047500Y0031191D03*
X0040000Y0031191D03*
X0040000Y0036309D03*
M02*
