%
M48
M72
T01C0.0122
T02C0.0138
T03C0.0150
T04C0.0200
T05C0.0236
T06C0.0335
T07C0.0394
%
T01
X16750Y6313
X16000Y6313
X15250Y6313
X15250Y7063
X16000Y7063
X16750Y7063
X16750Y7750
X16000Y7750
X15250Y7750
T02
X4750Y2625
X4031Y4125
X4375Y7250
X4375Y7750
X6125Y9750
X6000Y10625
X8875Y9500
X11625Y6938
X11889Y6924
X12005Y6682
X12313Y6625
X12491Y6446
X12639Y6236
X12892Y6188
X14068Y5938
X14688Y5813
X16196Y4980
X16625Y5188
X16878Y5125
X16625Y4750
X16188Y4727
X16188Y4438
X17375Y4125
X17625Y4375
X17875Y4009
X17375Y5500
X15765Y3641
X15253Y3151
X14625Y4116
X14313Y4116
X12000Y4539
X11747Y4500
X11250Y4679
X11304Y5071
X11557Y5071
X10750Y4750
X11752Y3750
X9386Y3198
X10188Y6182
X10188Y6435
X10063Y6688
X13258Y9536
X15625Y10250
X15875Y10125
X17500Y9688
X17500Y8619
X16438Y8563
X16125Y8750
X19375Y10625
X20125Y10712
X12000Y12125
X11750Y12250
T03
X22145Y12813
X5083Y2375
X6801Y3625
X6458Y3750
X7270Y3344
X7708Y3563
X7364Y2813
X7395Y2375
X9708Y4000
X10114Y3469
X11333Y3875
X12583Y4063
X13645Y4063
X14270Y3375
X12770Y2375
X11770Y2375
X10458Y2313
X8458Y4750
X9708Y5750
X10458Y5125
X12458Y5750
X13083Y5750
X12083Y7875
X12208Y8938
X13583Y9000
X14833Y8250
X13958Y7938
X15895Y9188
X15895Y9563
X14958Y9500
X17145Y11313
X18145Y10438
X18645Y11313
X21020Y12313
X22770Y11563
X22895Y9688
X22458Y9250
X22208Y8813
X22195Y8350
X21895Y8350
X21595Y8350
X21295Y8350
X20995Y8350
X20395Y8050
X20395Y7750
X20095Y7750
X19195Y7750
X18895Y7750
X18595Y7750
X18595Y6550
X18295Y6550
X17995Y6550
X17726Y6550
X18708Y6125
X18895Y6550
X19195Y6550
X19495Y6550
X19795Y6550
X20095Y6550
X20395Y6550
X20395Y6250
X20395Y5950
X20395Y5650
X20395Y5350
X20395Y5050
X20395Y4750
X20395Y4450
X20395Y4150
X20395Y3850
X20395Y3550
X20395Y3250
X20395Y2950
X20395Y2650
X20395Y2350
X19833Y3938
X18770Y4188
X17520Y3375
X16895Y3500
X16770Y2625
X17458Y2563
X19833Y5188
X19708Y5938
X21075Y4440
X22495Y8350
X22795Y8350
X23095Y8350
X23395Y8350
X23145Y8813
X21395Y9063
X9333Y7375
X9208Y6750
X6020Y7375
X2895Y8875
X5895Y11625
X7958Y10125
X3333Y3625
T04
X17875Y2625
X17875Y3125
X18375Y3125
X18875Y3125
X19375Y3125
X19875Y3125
X19875Y2625
X19375Y2625
X18875Y2625
X18375Y2625
T05
X2821Y5247
X2821Y8003
T06
X3884Y5641
X3884Y7609
T07
X5875Y2625
X6875Y2625
X7875Y2625
X8875Y2625
X9875Y2625
X11250Y2625
X12250Y2625
X13250Y2625
X14250Y2625
X18500Y13250
X17500Y13250
X16500Y13250
X15500Y13250
X14500Y13250
X13500Y13250
X12500Y13250
X11500Y13250
X10500Y13250
X9500Y13250
X8500Y13250
X7500Y13250
X6500Y13250
X3625Y11564
X3625Y10186
X19500Y13250
X20500Y13250
M30
