G75*
%MOIN*%
%OFA0B0*%
%FSLAX25Y25*%
%IPPOS*%
%LPD*%
%AMOC8*
5,1,8,0,0,1.08239X$1,22.5*
%
%ADD10C,0.00001*%
%ADD11C,0.00676*%
%ADD12R,0.09000X0.02600*%
%ADD13R,0.02900X0.05400*%
%ADD14C,0.00500*%
%ADD15R,0.04731X0.04337*%
%ADD16R,0.05400X0.02900*%
%ADD17C,0.07000*%
%ADD18R,0.05124X0.05124*%
%ADD19R,0.02900X0.04400*%
%ADD20C,0.06424*%
D10*
X0030872Y0020242D02*
X0231659Y0020242D01*
X0226541Y0028116D02*
X0226543Y0028259D01*
X0226549Y0028402D01*
X0226559Y0028544D01*
X0226573Y0028686D01*
X0226591Y0028828D01*
X0226613Y0028970D01*
X0226638Y0029110D01*
X0226668Y0029250D01*
X0226702Y0029389D01*
X0226739Y0029527D01*
X0226781Y0029664D01*
X0226826Y0029799D01*
X0226875Y0029933D01*
X0226927Y0030066D01*
X0226983Y0030198D01*
X0227043Y0030327D01*
X0227107Y0030455D01*
X0227174Y0030582D01*
X0227245Y0030706D01*
X0227319Y0030828D01*
X0227396Y0030948D01*
X0227477Y0031066D01*
X0227561Y0031182D01*
X0227648Y0031295D01*
X0227738Y0031406D01*
X0227832Y0031514D01*
X0227928Y0031620D01*
X0228027Y0031722D01*
X0228130Y0031822D01*
X0228234Y0031919D01*
X0228342Y0032014D01*
X0228452Y0032105D01*
X0228565Y0032193D01*
X0228680Y0032277D01*
X0228797Y0032359D01*
X0228917Y0032437D01*
X0229038Y0032512D01*
X0229162Y0032584D01*
X0229288Y0032652D01*
X0229415Y0032716D01*
X0229545Y0032777D01*
X0229676Y0032834D01*
X0229808Y0032888D01*
X0229942Y0032937D01*
X0230077Y0032984D01*
X0230214Y0033026D01*
X0230352Y0033064D01*
X0230490Y0033099D01*
X0230630Y0033129D01*
X0230770Y0033156D01*
X0230911Y0033179D01*
X0231053Y0033198D01*
X0231195Y0033213D01*
X0231338Y0033224D01*
X0231480Y0033231D01*
X0231623Y0033234D01*
X0231766Y0033233D01*
X0231909Y0033228D01*
X0232052Y0033219D01*
X0232194Y0033206D01*
X0232336Y0033189D01*
X0232477Y0033168D01*
X0232618Y0033143D01*
X0232758Y0033115D01*
X0232897Y0033082D01*
X0233035Y0033045D01*
X0233172Y0033005D01*
X0233308Y0032961D01*
X0233443Y0032913D01*
X0233576Y0032861D01*
X0233708Y0032806D01*
X0233838Y0032747D01*
X0233967Y0032684D01*
X0234093Y0032618D01*
X0234218Y0032548D01*
X0234341Y0032475D01*
X0234461Y0032399D01*
X0234580Y0032319D01*
X0234696Y0032235D01*
X0234810Y0032149D01*
X0234921Y0032059D01*
X0235030Y0031967D01*
X0235136Y0031871D01*
X0235240Y0031773D01*
X0235341Y0031671D01*
X0235438Y0031567D01*
X0235533Y0031460D01*
X0235625Y0031351D01*
X0235714Y0031239D01*
X0235800Y0031124D01*
X0235882Y0031008D01*
X0235961Y0030888D01*
X0236037Y0030767D01*
X0236109Y0030644D01*
X0236178Y0030519D01*
X0236243Y0030392D01*
X0236305Y0030263D01*
X0236363Y0030132D01*
X0236418Y0030000D01*
X0236468Y0029866D01*
X0236515Y0029731D01*
X0236559Y0029595D01*
X0236598Y0029458D01*
X0236633Y0029319D01*
X0236665Y0029180D01*
X0236693Y0029040D01*
X0236717Y0028899D01*
X0236737Y0028757D01*
X0236753Y0028615D01*
X0236765Y0028473D01*
X0236773Y0028330D01*
X0236777Y0028187D01*
X0236777Y0028045D01*
X0236773Y0027902D01*
X0236765Y0027759D01*
X0236753Y0027617D01*
X0236737Y0027475D01*
X0236717Y0027333D01*
X0236693Y0027192D01*
X0236665Y0027052D01*
X0236633Y0026913D01*
X0236598Y0026774D01*
X0236559Y0026637D01*
X0236515Y0026501D01*
X0236468Y0026366D01*
X0236418Y0026232D01*
X0236363Y0026100D01*
X0236305Y0025969D01*
X0236243Y0025840D01*
X0236178Y0025713D01*
X0236109Y0025588D01*
X0236037Y0025465D01*
X0235961Y0025344D01*
X0235882Y0025224D01*
X0235800Y0025108D01*
X0235714Y0024993D01*
X0235625Y0024881D01*
X0235533Y0024772D01*
X0235438Y0024665D01*
X0235341Y0024561D01*
X0235240Y0024459D01*
X0235136Y0024361D01*
X0235030Y0024265D01*
X0234921Y0024173D01*
X0234810Y0024083D01*
X0234696Y0023997D01*
X0234580Y0023913D01*
X0234461Y0023833D01*
X0234341Y0023757D01*
X0234218Y0023684D01*
X0234093Y0023614D01*
X0233967Y0023548D01*
X0233838Y0023485D01*
X0233708Y0023426D01*
X0233576Y0023371D01*
X0233443Y0023319D01*
X0233308Y0023271D01*
X0233172Y0023227D01*
X0233035Y0023187D01*
X0232897Y0023150D01*
X0232758Y0023117D01*
X0232618Y0023089D01*
X0232477Y0023064D01*
X0232336Y0023043D01*
X0232194Y0023026D01*
X0232052Y0023013D01*
X0231909Y0023004D01*
X0231766Y0022999D01*
X0231623Y0022998D01*
X0231480Y0023001D01*
X0231338Y0023008D01*
X0231195Y0023019D01*
X0231053Y0023034D01*
X0230911Y0023053D01*
X0230770Y0023076D01*
X0230630Y0023103D01*
X0230490Y0023133D01*
X0230352Y0023168D01*
X0230214Y0023206D01*
X0230077Y0023248D01*
X0229942Y0023295D01*
X0229808Y0023344D01*
X0229676Y0023398D01*
X0229545Y0023455D01*
X0229415Y0023516D01*
X0229288Y0023580D01*
X0229162Y0023648D01*
X0229038Y0023720D01*
X0228917Y0023795D01*
X0228797Y0023873D01*
X0228680Y0023955D01*
X0228565Y0024039D01*
X0228452Y0024127D01*
X0228342Y0024218D01*
X0228234Y0024313D01*
X0228130Y0024410D01*
X0228027Y0024510D01*
X0227928Y0024612D01*
X0227832Y0024718D01*
X0227738Y0024826D01*
X0227648Y0024937D01*
X0227561Y0025050D01*
X0227477Y0025166D01*
X0227396Y0025284D01*
X0227319Y0025404D01*
X0227245Y0025526D01*
X0227174Y0025650D01*
X0227107Y0025777D01*
X0227043Y0025905D01*
X0226983Y0026034D01*
X0226927Y0026166D01*
X0226875Y0026299D01*
X0226826Y0026433D01*
X0226781Y0026568D01*
X0226739Y0026705D01*
X0226702Y0026843D01*
X0226668Y0026982D01*
X0226638Y0027122D01*
X0226613Y0027262D01*
X0226591Y0027404D01*
X0226573Y0027546D01*
X0226559Y0027688D01*
X0226549Y0027830D01*
X0226543Y0027973D01*
X0226541Y0028116D01*
X0231659Y0020242D02*
X0231849Y0020244D01*
X0232039Y0020251D01*
X0232229Y0020263D01*
X0232419Y0020279D01*
X0232608Y0020299D01*
X0232797Y0020325D01*
X0232985Y0020354D01*
X0233172Y0020389D01*
X0233358Y0020428D01*
X0233543Y0020471D01*
X0233728Y0020519D01*
X0233911Y0020571D01*
X0234092Y0020627D01*
X0234272Y0020688D01*
X0234451Y0020754D01*
X0234628Y0020823D01*
X0234804Y0020897D01*
X0234977Y0020975D01*
X0235149Y0021058D01*
X0235318Y0021144D01*
X0235486Y0021234D01*
X0235651Y0021329D01*
X0235814Y0021427D01*
X0235974Y0021530D01*
X0236132Y0021636D01*
X0236287Y0021746D01*
X0236440Y0021859D01*
X0236590Y0021977D01*
X0236736Y0022098D01*
X0236880Y0022222D01*
X0237021Y0022350D01*
X0237159Y0022481D01*
X0237294Y0022616D01*
X0237425Y0022754D01*
X0237553Y0022895D01*
X0237677Y0023039D01*
X0237798Y0023185D01*
X0237916Y0023335D01*
X0238029Y0023488D01*
X0238139Y0023643D01*
X0238245Y0023801D01*
X0238348Y0023961D01*
X0238446Y0024124D01*
X0238541Y0024289D01*
X0238631Y0024457D01*
X0238717Y0024626D01*
X0238800Y0024798D01*
X0238878Y0024971D01*
X0238952Y0025147D01*
X0239021Y0025324D01*
X0239087Y0025503D01*
X0239148Y0025683D01*
X0239204Y0025864D01*
X0239256Y0026047D01*
X0239304Y0026232D01*
X0239347Y0026417D01*
X0239386Y0026603D01*
X0239421Y0026790D01*
X0239450Y0026978D01*
X0239476Y0027167D01*
X0239496Y0027356D01*
X0239512Y0027546D01*
X0239524Y0027736D01*
X0239531Y0027926D01*
X0239533Y0028116D01*
X0239533Y0169848D01*
X0226541Y0169848D02*
X0226543Y0169991D01*
X0226549Y0170134D01*
X0226559Y0170276D01*
X0226573Y0170418D01*
X0226591Y0170560D01*
X0226613Y0170702D01*
X0226638Y0170842D01*
X0226668Y0170982D01*
X0226702Y0171121D01*
X0226739Y0171259D01*
X0226781Y0171396D01*
X0226826Y0171531D01*
X0226875Y0171665D01*
X0226927Y0171798D01*
X0226983Y0171930D01*
X0227043Y0172059D01*
X0227107Y0172187D01*
X0227174Y0172314D01*
X0227245Y0172438D01*
X0227319Y0172560D01*
X0227396Y0172680D01*
X0227477Y0172798D01*
X0227561Y0172914D01*
X0227648Y0173027D01*
X0227738Y0173138D01*
X0227832Y0173246D01*
X0227928Y0173352D01*
X0228027Y0173454D01*
X0228130Y0173554D01*
X0228234Y0173651D01*
X0228342Y0173746D01*
X0228452Y0173837D01*
X0228565Y0173925D01*
X0228680Y0174009D01*
X0228797Y0174091D01*
X0228917Y0174169D01*
X0229038Y0174244D01*
X0229162Y0174316D01*
X0229288Y0174384D01*
X0229415Y0174448D01*
X0229545Y0174509D01*
X0229676Y0174566D01*
X0229808Y0174620D01*
X0229942Y0174669D01*
X0230077Y0174716D01*
X0230214Y0174758D01*
X0230352Y0174796D01*
X0230490Y0174831D01*
X0230630Y0174861D01*
X0230770Y0174888D01*
X0230911Y0174911D01*
X0231053Y0174930D01*
X0231195Y0174945D01*
X0231338Y0174956D01*
X0231480Y0174963D01*
X0231623Y0174966D01*
X0231766Y0174965D01*
X0231909Y0174960D01*
X0232052Y0174951D01*
X0232194Y0174938D01*
X0232336Y0174921D01*
X0232477Y0174900D01*
X0232618Y0174875D01*
X0232758Y0174847D01*
X0232897Y0174814D01*
X0233035Y0174777D01*
X0233172Y0174737D01*
X0233308Y0174693D01*
X0233443Y0174645D01*
X0233576Y0174593D01*
X0233708Y0174538D01*
X0233838Y0174479D01*
X0233967Y0174416D01*
X0234093Y0174350D01*
X0234218Y0174280D01*
X0234341Y0174207D01*
X0234461Y0174131D01*
X0234580Y0174051D01*
X0234696Y0173967D01*
X0234810Y0173881D01*
X0234921Y0173791D01*
X0235030Y0173699D01*
X0235136Y0173603D01*
X0235240Y0173505D01*
X0235341Y0173403D01*
X0235438Y0173299D01*
X0235533Y0173192D01*
X0235625Y0173083D01*
X0235714Y0172971D01*
X0235800Y0172856D01*
X0235882Y0172740D01*
X0235961Y0172620D01*
X0236037Y0172499D01*
X0236109Y0172376D01*
X0236178Y0172251D01*
X0236243Y0172124D01*
X0236305Y0171995D01*
X0236363Y0171864D01*
X0236418Y0171732D01*
X0236468Y0171598D01*
X0236515Y0171463D01*
X0236559Y0171327D01*
X0236598Y0171190D01*
X0236633Y0171051D01*
X0236665Y0170912D01*
X0236693Y0170772D01*
X0236717Y0170631D01*
X0236737Y0170489D01*
X0236753Y0170347D01*
X0236765Y0170205D01*
X0236773Y0170062D01*
X0236777Y0169919D01*
X0236777Y0169777D01*
X0236773Y0169634D01*
X0236765Y0169491D01*
X0236753Y0169349D01*
X0236737Y0169207D01*
X0236717Y0169065D01*
X0236693Y0168924D01*
X0236665Y0168784D01*
X0236633Y0168645D01*
X0236598Y0168506D01*
X0236559Y0168369D01*
X0236515Y0168233D01*
X0236468Y0168098D01*
X0236418Y0167964D01*
X0236363Y0167832D01*
X0236305Y0167701D01*
X0236243Y0167572D01*
X0236178Y0167445D01*
X0236109Y0167320D01*
X0236037Y0167197D01*
X0235961Y0167076D01*
X0235882Y0166956D01*
X0235800Y0166840D01*
X0235714Y0166725D01*
X0235625Y0166613D01*
X0235533Y0166504D01*
X0235438Y0166397D01*
X0235341Y0166293D01*
X0235240Y0166191D01*
X0235136Y0166093D01*
X0235030Y0165997D01*
X0234921Y0165905D01*
X0234810Y0165815D01*
X0234696Y0165729D01*
X0234580Y0165645D01*
X0234461Y0165565D01*
X0234341Y0165489D01*
X0234218Y0165416D01*
X0234093Y0165346D01*
X0233967Y0165280D01*
X0233838Y0165217D01*
X0233708Y0165158D01*
X0233576Y0165103D01*
X0233443Y0165051D01*
X0233308Y0165003D01*
X0233172Y0164959D01*
X0233035Y0164919D01*
X0232897Y0164882D01*
X0232758Y0164849D01*
X0232618Y0164821D01*
X0232477Y0164796D01*
X0232336Y0164775D01*
X0232194Y0164758D01*
X0232052Y0164745D01*
X0231909Y0164736D01*
X0231766Y0164731D01*
X0231623Y0164730D01*
X0231480Y0164733D01*
X0231338Y0164740D01*
X0231195Y0164751D01*
X0231053Y0164766D01*
X0230911Y0164785D01*
X0230770Y0164808D01*
X0230630Y0164835D01*
X0230490Y0164865D01*
X0230352Y0164900D01*
X0230214Y0164938D01*
X0230077Y0164980D01*
X0229942Y0165027D01*
X0229808Y0165076D01*
X0229676Y0165130D01*
X0229545Y0165187D01*
X0229415Y0165248D01*
X0229288Y0165312D01*
X0229162Y0165380D01*
X0229038Y0165452D01*
X0228917Y0165527D01*
X0228797Y0165605D01*
X0228680Y0165687D01*
X0228565Y0165771D01*
X0228452Y0165859D01*
X0228342Y0165950D01*
X0228234Y0166045D01*
X0228130Y0166142D01*
X0228027Y0166242D01*
X0227928Y0166344D01*
X0227832Y0166450D01*
X0227738Y0166558D01*
X0227648Y0166669D01*
X0227561Y0166782D01*
X0227477Y0166898D01*
X0227396Y0167016D01*
X0227319Y0167136D01*
X0227245Y0167258D01*
X0227174Y0167382D01*
X0227107Y0167509D01*
X0227043Y0167637D01*
X0226983Y0167766D01*
X0226927Y0167898D01*
X0226875Y0168031D01*
X0226826Y0168165D01*
X0226781Y0168300D01*
X0226739Y0168437D01*
X0226702Y0168575D01*
X0226668Y0168714D01*
X0226638Y0168854D01*
X0226613Y0168994D01*
X0226591Y0169136D01*
X0226573Y0169278D01*
X0226559Y0169420D01*
X0226549Y0169562D01*
X0226543Y0169705D01*
X0226541Y0169848D01*
X0231659Y0177722D02*
X0231849Y0177720D01*
X0232039Y0177713D01*
X0232229Y0177701D01*
X0232419Y0177685D01*
X0232608Y0177665D01*
X0232797Y0177639D01*
X0232985Y0177610D01*
X0233172Y0177575D01*
X0233358Y0177536D01*
X0233543Y0177493D01*
X0233728Y0177445D01*
X0233911Y0177393D01*
X0234092Y0177337D01*
X0234272Y0177276D01*
X0234451Y0177210D01*
X0234628Y0177141D01*
X0234804Y0177067D01*
X0234977Y0176989D01*
X0235149Y0176906D01*
X0235318Y0176820D01*
X0235486Y0176730D01*
X0235651Y0176635D01*
X0235814Y0176537D01*
X0235974Y0176434D01*
X0236132Y0176328D01*
X0236287Y0176218D01*
X0236440Y0176105D01*
X0236590Y0175987D01*
X0236736Y0175866D01*
X0236880Y0175742D01*
X0237021Y0175614D01*
X0237159Y0175483D01*
X0237294Y0175348D01*
X0237425Y0175210D01*
X0237553Y0175069D01*
X0237677Y0174925D01*
X0237798Y0174779D01*
X0237916Y0174629D01*
X0238029Y0174476D01*
X0238139Y0174321D01*
X0238245Y0174163D01*
X0238348Y0174003D01*
X0238446Y0173840D01*
X0238541Y0173675D01*
X0238631Y0173507D01*
X0238717Y0173338D01*
X0238800Y0173166D01*
X0238878Y0172993D01*
X0238952Y0172817D01*
X0239021Y0172640D01*
X0239087Y0172461D01*
X0239148Y0172281D01*
X0239204Y0172100D01*
X0239256Y0171917D01*
X0239304Y0171732D01*
X0239347Y0171547D01*
X0239386Y0171361D01*
X0239421Y0171174D01*
X0239450Y0170986D01*
X0239476Y0170797D01*
X0239496Y0170608D01*
X0239512Y0170418D01*
X0239524Y0170228D01*
X0239531Y0170038D01*
X0239533Y0169848D01*
X0231659Y0177722D02*
X0030872Y0177722D01*
X0025754Y0169848D02*
X0025756Y0169991D01*
X0025762Y0170134D01*
X0025772Y0170276D01*
X0025786Y0170418D01*
X0025804Y0170560D01*
X0025826Y0170702D01*
X0025851Y0170842D01*
X0025881Y0170982D01*
X0025915Y0171121D01*
X0025952Y0171259D01*
X0025994Y0171396D01*
X0026039Y0171531D01*
X0026088Y0171665D01*
X0026140Y0171798D01*
X0026196Y0171930D01*
X0026256Y0172059D01*
X0026320Y0172187D01*
X0026387Y0172314D01*
X0026458Y0172438D01*
X0026532Y0172560D01*
X0026609Y0172680D01*
X0026690Y0172798D01*
X0026774Y0172914D01*
X0026861Y0173027D01*
X0026951Y0173138D01*
X0027045Y0173246D01*
X0027141Y0173352D01*
X0027240Y0173454D01*
X0027343Y0173554D01*
X0027447Y0173651D01*
X0027555Y0173746D01*
X0027665Y0173837D01*
X0027778Y0173925D01*
X0027893Y0174009D01*
X0028010Y0174091D01*
X0028130Y0174169D01*
X0028251Y0174244D01*
X0028375Y0174316D01*
X0028501Y0174384D01*
X0028628Y0174448D01*
X0028758Y0174509D01*
X0028889Y0174566D01*
X0029021Y0174620D01*
X0029155Y0174669D01*
X0029290Y0174716D01*
X0029427Y0174758D01*
X0029565Y0174796D01*
X0029703Y0174831D01*
X0029843Y0174861D01*
X0029983Y0174888D01*
X0030124Y0174911D01*
X0030266Y0174930D01*
X0030408Y0174945D01*
X0030551Y0174956D01*
X0030693Y0174963D01*
X0030836Y0174966D01*
X0030979Y0174965D01*
X0031122Y0174960D01*
X0031265Y0174951D01*
X0031407Y0174938D01*
X0031549Y0174921D01*
X0031690Y0174900D01*
X0031831Y0174875D01*
X0031971Y0174847D01*
X0032110Y0174814D01*
X0032248Y0174777D01*
X0032385Y0174737D01*
X0032521Y0174693D01*
X0032656Y0174645D01*
X0032789Y0174593D01*
X0032921Y0174538D01*
X0033051Y0174479D01*
X0033180Y0174416D01*
X0033306Y0174350D01*
X0033431Y0174280D01*
X0033554Y0174207D01*
X0033674Y0174131D01*
X0033793Y0174051D01*
X0033909Y0173967D01*
X0034023Y0173881D01*
X0034134Y0173791D01*
X0034243Y0173699D01*
X0034349Y0173603D01*
X0034453Y0173505D01*
X0034554Y0173403D01*
X0034651Y0173299D01*
X0034746Y0173192D01*
X0034838Y0173083D01*
X0034927Y0172971D01*
X0035013Y0172856D01*
X0035095Y0172740D01*
X0035174Y0172620D01*
X0035250Y0172499D01*
X0035322Y0172376D01*
X0035391Y0172251D01*
X0035456Y0172124D01*
X0035518Y0171995D01*
X0035576Y0171864D01*
X0035631Y0171732D01*
X0035681Y0171598D01*
X0035728Y0171463D01*
X0035772Y0171327D01*
X0035811Y0171190D01*
X0035846Y0171051D01*
X0035878Y0170912D01*
X0035906Y0170772D01*
X0035930Y0170631D01*
X0035950Y0170489D01*
X0035966Y0170347D01*
X0035978Y0170205D01*
X0035986Y0170062D01*
X0035990Y0169919D01*
X0035990Y0169777D01*
X0035986Y0169634D01*
X0035978Y0169491D01*
X0035966Y0169349D01*
X0035950Y0169207D01*
X0035930Y0169065D01*
X0035906Y0168924D01*
X0035878Y0168784D01*
X0035846Y0168645D01*
X0035811Y0168506D01*
X0035772Y0168369D01*
X0035728Y0168233D01*
X0035681Y0168098D01*
X0035631Y0167964D01*
X0035576Y0167832D01*
X0035518Y0167701D01*
X0035456Y0167572D01*
X0035391Y0167445D01*
X0035322Y0167320D01*
X0035250Y0167197D01*
X0035174Y0167076D01*
X0035095Y0166956D01*
X0035013Y0166840D01*
X0034927Y0166725D01*
X0034838Y0166613D01*
X0034746Y0166504D01*
X0034651Y0166397D01*
X0034554Y0166293D01*
X0034453Y0166191D01*
X0034349Y0166093D01*
X0034243Y0165997D01*
X0034134Y0165905D01*
X0034023Y0165815D01*
X0033909Y0165729D01*
X0033793Y0165645D01*
X0033674Y0165565D01*
X0033554Y0165489D01*
X0033431Y0165416D01*
X0033306Y0165346D01*
X0033180Y0165280D01*
X0033051Y0165217D01*
X0032921Y0165158D01*
X0032789Y0165103D01*
X0032656Y0165051D01*
X0032521Y0165003D01*
X0032385Y0164959D01*
X0032248Y0164919D01*
X0032110Y0164882D01*
X0031971Y0164849D01*
X0031831Y0164821D01*
X0031690Y0164796D01*
X0031549Y0164775D01*
X0031407Y0164758D01*
X0031265Y0164745D01*
X0031122Y0164736D01*
X0030979Y0164731D01*
X0030836Y0164730D01*
X0030693Y0164733D01*
X0030551Y0164740D01*
X0030408Y0164751D01*
X0030266Y0164766D01*
X0030124Y0164785D01*
X0029983Y0164808D01*
X0029843Y0164835D01*
X0029703Y0164865D01*
X0029565Y0164900D01*
X0029427Y0164938D01*
X0029290Y0164980D01*
X0029155Y0165027D01*
X0029021Y0165076D01*
X0028889Y0165130D01*
X0028758Y0165187D01*
X0028628Y0165248D01*
X0028501Y0165312D01*
X0028375Y0165380D01*
X0028251Y0165452D01*
X0028130Y0165527D01*
X0028010Y0165605D01*
X0027893Y0165687D01*
X0027778Y0165771D01*
X0027665Y0165859D01*
X0027555Y0165950D01*
X0027447Y0166045D01*
X0027343Y0166142D01*
X0027240Y0166242D01*
X0027141Y0166344D01*
X0027045Y0166450D01*
X0026951Y0166558D01*
X0026861Y0166669D01*
X0026774Y0166782D01*
X0026690Y0166898D01*
X0026609Y0167016D01*
X0026532Y0167136D01*
X0026458Y0167258D01*
X0026387Y0167382D01*
X0026320Y0167509D01*
X0026256Y0167637D01*
X0026196Y0167766D01*
X0026140Y0167898D01*
X0026088Y0168031D01*
X0026039Y0168165D01*
X0025994Y0168300D01*
X0025952Y0168437D01*
X0025915Y0168575D01*
X0025881Y0168714D01*
X0025851Y0168854D01*
X0025826Y0168994D01*
X0025804Y0169136D01*
X0025786Y0169278D01*
X0025772Y0169420D01*
X0025762Y0169562D01*
X0025756Y0169705D01*
X0025754Y0169848D01*
X0022998Y0169848D02*
X0022998Y0028116D01*
X0025754Y0028116D02*
X0025756Y0028259D01*
X0025762Y0028402D01*
X0025772Y0028544D01*
X0025786Y0028686D01*
X0025804Y0028828D01*
X0025826Y0028970D01*
X0025851Y0029110D01*
X0025881Y0029250D01*
X0025915Y0029389D01*
X0025952Y0029527D01*
X0025994Y0029664D01*
X0026039Y0029799D01*
X0026088Y0029933D01*
X0026140Y0030066D01*
X0026196Y0030198D01*
X0026256Y0030327D01*
X0026320Y0030455D01*
X0026387Y0030582D01*
X0026458Y0030706D01*
X0026532Y0030828D01*
X0026609Y0030948D01*
X0026690Y0031066D01*
X0026774Y0031182D01*
X0026861Y0031295D01*
X0026951Y0031406D01*
X0027045Y0031514D01*
X0027141Y0031620D01*
X0027240Y0031722D01*
X0027343Y0031822D01*
X0027447Y0031919D01*
X0027555Y0032014D01*
X0027665Y0032105D01*
X0027778Y0032193D01*
X0027893Y0032277D01*
X0028010Y0032359D01*
X0028130Y0032437D01*
X0028251Y0032512D01*
X0028375Y0032584D01*
X0028501Y0032652D01*
X0028628Y0032716D01*
X0028758Y0032777D01*
X0028889Y0032834D01*
X0029021Y0032888D01*
X0029155Y0032937D01*
X0029290Y0032984D01*
X0029427Y0033026D01*
X0029565Y0033064D01*
X0029703Y0033099D01*
X0029843Y0033129D01*
X0029983Y0033156D01*
X0030124Y0033179D01*
X0030266Y0033198D01*
X0030408Y0033213D01*
X0030551Y0033224D01*
X0030693Y0033231D01*
X0030836Y0033234D01*
X0030979Y0033233D01*
X0031122Y0033228D01*
X0031265Y0033219D01*
X0031407Y0033206D01*
X0031549Y0033189D01*
X0031690Y0033168D01*
X0031831Y0033143D01*
X0031971Y0033115D01*
X0032110Y0033082D01*
X0032248Y0033045D01*
X0032385Y0033005D01*
X0032521Y0032961D01*
X0032656Y0032913D01*
X0032789Y0032861D01*
X0032921Y0032806D01*
X0033051Y0032747D01*
X0033180Y0032684D01*
X0033306Y0032618D01*
X0033431Y0032548D01*
X0033554Y0032475D01*
X0033674Y0032399D01*
X0033793Y0032319D01*
X0033909Y0032235D01*
X0034023Y0032149D01*
X0034134Y0032059D01*
X0034243Y0031967D01*
X0034349Y0031871D01*
X0034453Y0031773D01*
X0034554Y0031671D01*
X0034651Y0031567D01*
X0034746Y0031460D01*
X0034838Y0031351D01*
X0034927Y0031239D01*
X0035013Y0031124D01*
X0035095Y0031008D01*
X0035174Y0030888D01*
X0035250Y0030767D01*
X0035322Y0030644D01*
X0035391Y0030519D01*
X0035456Y0030392D01*
X0035518Y0030263D01*
X0035576Y0030132D01*
X0035631Y0030000D01*
X0035681Y0029866D01*
X0035728Y0029731D01*
X0035772Y0029595D01*
X0035811Y0029458D01*
X0035846Y0029319D01*
X0035878Y0029180D01*
X0035906Y0029040D01*
X0035930Y0028899D01*
X0035950Y0028757D01*
X0035966Y0028615D01*
X0035978Y0028473D01*
X0035986Y0028330D01*
X0035990Y0028187D01*
X0035990Y0028045D01*
X0035986Y0027902D01*
X0035978Y0027759D01*
X0035966Y0027617D01*
X0035950Y0027475D01*
X0035930Y0027333D01*
X0035906Y0027192D01*
X0035878Y0027052D01*
X0035846Y0026913D01*
X0035811Y0026774D01*
X0035772Y0026637D01*
X0035728Y0026501D01*
X0035681Y0026366D01*
X0035631Y0026232D01*
X0035576Y0026100D01*
X0035518Y0025969D01*
X0035456Y0025840D01*
X0035391Y0025713D01*
X0035322Y0025588D01*
X0035250Y0025465D01*
X0035174Y0025344D01*
X0035095Y0025224D01*
X0035013Y0025108D01*
X0034927Y0024993D01*
X0034838Y0024881D01*
X0034746Y0024772D01*
X0034651Y0024665D01*
X0034554Y0024561D01*
X0034453Y0024459D01*
X0034349Y0024361D01*
X0034243Y0024265D01*
X0034134Y0024173D01*
X0034023Y0024083D01*
X0033909Y0023997D01*
X0033793Y0023913D01*
X0033674Y0023833D01*
X0033554Y0023757D01*
X0033431Y0023684D01*
X0033306Y0023614D01*
X0033180Y0023548D01*
X0033051Y0023485D01*
X0032921Y0023426D01*
X0032789Y0023371D01*
X0032656Y0023319D01*
X0032521Y0023271D01*
X0032385Y0023227D01*
X0032248Y0023187D01*
X0032110Y0023150D01*
X0031971Y0023117D01*
X0031831Y0023089D01*
X0031690Y0023064D01*
X0031549Y0023043D01*
X0031407Y0023026D01*
X0031265Y0023013D01*
X0031122Y0023004D01*
X0030979Y0022999D01*
X0030836Y0022998D01*
X0030693Y0023001D01*
X0030551Y0023008D01*
X0030408Y0023019D01*
X0030266Y0023034D01*
X0030124Y0023053D01*
X0029983Y0023076D01*
X0029843Y0023103D01*
X0029703Y0023133D01*
X0029565Y0023168D01*
X0029427Y0023206D01*
X0029290Y0023248D01*
X0029155Y0023295D01*
X0029021Y0023344D01*
X0028889Y0023398D01*
X0028758Y0023455D01*
X0028628Y0023516D01*
X0028501Y0023580D01*
X0028375Y0023648D01*
X0028251Y0023720D01*
X0028130Y0023795D01*
X0028010Y0023873D01*
X0027893Y0023955D01*
X0027778Y0024039D01*
X0027665Y0024127D01*
X0027555Y0024218D01*
X0027447Y0024313D01*
X0027343Y0024410D01*
X0027240Y0024510D01*
X0027141Y0024612D01*
X0027045Y0024718D01*
X0026951Y0024826D01*
X0026861Y0024937D01*
X0026774Y0025050D01*
X0026690Y0025166D01*
X0026609Y0025284D01*
X0026532Y0025404D01*
X0026458Y0025526D01*
X0026387Y0025650D01*
X0026320Y0025777D01*
X0026256Y0025905D01*
X0026196Y0026034D01*
X0026140Y0026166D01*
X0026088Y0026299D01*
X0026039Y0026433D01*
X0025994Y0026568D01*
X0025952Y0026705D01*
X0025915Y0026843D01*
X0025881Y0026982D01*
X0025851Y0027122D01*
X0025826Y0027262D01*
X0025804Y0027404D01*
X0025786Y0027546D01*
X0025772Y0027688D01*
X0025762Y0027830D01*
X0025756Y0027973D01*
X0025754Y0028116D01*
X0022998Y0028116D02*
X0023000Y0027926D01*
X0023007Y0027736D01*
X0023019Y0027546D01*
X0023035Y0027356D01*
X0023055Y0027167D01*
X0023081Y0026978D01*
X0023110Y0026790D01*
X0023145Y0026603D01*
X0023184Y0026417D01*
X0023227Y0026232D01*
X0023275Y0026047D01*
X0023327Y0025864D01*
X0023383Y0025683D01*
X0023444Y0025503D01*
X0023510Y0025324D01*
X0023579Y0025147D01*
X0023653Y0024971D01*
X0023731Y0024798D01*
X0023814Y0024626D01*
X0023900Y0024457D01*
X0023990Y0024289D01*
X0024085Y0024124D01*
X0024183Y0023961D01*
X0024286Y0023801D01*
X0024392Y0023643D01*
X0024502Y0023488D01*
X0024615Y0023335D01*
X0024733Y0023185D01*
X0024854Y0023039D01*
X0024978Y0022895D01*
X0025106Y0022754D01*
X0025237Y0022616D01*
X0025372Y0022481D01*
X0025510Y0022350D01*
X0025651Y0022222D01*
X0025795Y0022098D01*
X0025941Y0021977D01*
X0026091Y0021859D01*
X0026244Y0021746D01*
X0026399Y0021636D01*
X0026557Y0021530D01*
X0026717Y0021427D01*
X0026880Y0021329D01*
X0027045Y0021234D01*
X0027213Y0021144D01*
X0027382Y0021058D01*
X0027554Y0020975D01*
X0027727Y0020897D01*
X0027903Y0020823D01*
X0028080Y0020754D01*
X0028259Y0020688D01*
X0028439Y0020627D01*
X0028620Y0020571D01*
X0028803Y0020519D01*
X0028988Y0020471D01*
X0029173Y0020428D01*
X0029359Y0020389D01*
X0029546Y0020354D01*
X0029734Y0020325D01*
X0029923Y0020299D01*
X0030112Y0020279D01*
X0030302Y0020263D01*
X0030492Y0020251D01*
X0030682Y0020244D01*
X0030872Y0020242D01*
X0022998Y0169848D02*
X0023000Y0170038D01*
X0023007Y0170228D01*
X0023019Y0170418D01*
X0023035Y0170608D01*
X0023055Y0170797D01*
X0023081Y0170986D01*
X0023110Y0171174D01*
X0023145Y0171361D01*
X0023184Y0171547D01*
X0023227Y0171732D01*
X0023275Y0171917D01*
X0023327Y0172100D01*
X0023383Y0172281D01*
X0023444Y0172461D01*
X0023510Y0172640D01*
X0023579Y0172817D01*
X0023653Y0172993D01*
X0023731Y0173166D01*
X0023814Y0173338D01*
X0023900Y0173507D01*
X0023990Y0173675D01*
X0024085Y0173840D01*
X0024183Y0174003D01*
X0024286Y0174163D01*
X0024392Y0174321D01*
X0024502Y0174476D01*
X0024615Y0174629D01*
X0024733Y0174779D01*
X0024854Y0174925D01*
X0024978Y0175069D01*
X0025106Y0175210D01*
X0025237Y0175348D01*
X0025372Y0175483D01*
X0025510Y0175614D01*
X0025651Y0175742D01*
X0025795Y0175866D01*
X0025941Y0175987D01*
X0026091Y0176105D01*
X0026244Y0176218D01*
X0026399Y0176328D01*
X0026557Y0176434D01*
X0026717Y0176537D01*
X0026880Y0176635D01*
X0027045Y0176730D01*
X0027213Y0176820D01*
X0027382Y0176906D01*
X0027554Y0176989D01*
X0027727Y0177067D01*
X0027903Y0177141D01*
X0028080Y0177210D01*
X0028259Y0177276D01*
X0028439Y0177337D01*
X0028620Y0177393D01*
X0028803Y0177445D01*
X0028988Y0177493D01*
X0029173Y0177536D01*
X0029359Y0177575D01*
X0029546Y0177610D01*
X0029734Y0177639D01*
X0029923Y0177665D01*
X0030112Y0177685D01*
X0030302Y0177701D01*
X0030492Y0177713D01*
X0030682Y0177720D01*
X0030872Y0177722D01*
D11*
X0190528Y0061581D02*
X0196038Y0061581D01*
X0190528Y0061581D02*
X0190528Y0062407D01*
X0196038Y0062407D01*
X0196038Y0061581D01*
X0196038Y0062223D02*
X0190528Y0062223D01*
X0190528Y0059612D02*
X0196038Y0059612D01*
X0190528Y0059612D02*
X0190528Y0060438D01*
X0196038Y0060438D01*
X0196038Y0059612D01*
X0196038Y0060254D02*
X0190528Y0060254D01*
X0190528Y0057644D02*
X0196038Y0057644D01*
X0190528Y0057644D02*
X0190528Y0058470D01*
X0196038Y0058470D01*
X0196038Y0057644D01*
X0196038Y0058286D02*
X0190528Y0058286D01*
X0190528Y0055675D02*
X0196038Y0055675D01*
X0190528Y0055675D02*
X0190528Y0056501D01*
X0196038Y0056501D01*
X0196038Y0055675D01*
X0196038Y0056317D02*
X0190528Y0056317D01*
X0190528Y0053707D02*
X0196038Y0053707D01*
X0190528Y0053707D02*
X0190528Y0054533D01*
X0196038Y0054533D01*
X0196038Y0053707D01*
X0196038Y0054349D02*
X0190528Y0054349D01*
X0207457Y0053707D02*
X0212967Y0053707D01*
X0207457Y0053707D02*
X0207457Y0054533D01*
X0212967Y0054533D01*
X0212967Y0053707D01*
X0212967Y0054349D02*
X0207457Y0054349D01*
X0207457Y0055675D02*
X0212967Y0055675D01*
X0207457Y0055675D02*
X0207457Y0056501D01*
X0212967Y0056501D01*
X0212967Y0055675D01*
X0212967Y0056317D02*
X0207457Y0056317D01*
X0207457Y0057644D02*
X0212967Y0057644D01*
X0207457Y0057644D02*
X0207457Y0058470D01*
X0212967Y0058470D01*
X0212967Y0057644D01*
X0212967Y0058286D02*
X0207457Y0058286D01*
X0207457Y0059612D02*
X0212967Y0059612D01*
X0207457Y0059612D02*
X0207457Y0060438D01*
X0212967Y0060438D01*
X0212967Y0059612D01*
X0212967Y0060254D02*
X0207457Y0060254D01*
X0207457Y0061581D02*
X0212967Y0061581D01*
X0207457Y0061581D02*
X0207457Y0062407D01*
X0212967Y0062407D01*
X0212967Y0061581D01*
X0212967Y0062223D02*
X0207457Y0062223D01*
D12*
X0202674Y0084966D03*
X0202674Y0089966D03*
X0202674Y0094966D03*
X0202674Y0099966D03*
X0202674Y0104966D03*
X0202674Y0109966D03*
X0202674Y0114966D03*
X0221274Y0114966D03*
X0221274Y0109966D03*
X0221274Y0104966D03*
X0221274Y0099966D03*
X0221274Y0094966D03*
X0221274Y0089966D03*
X0221274Y0084966D03*
X0170093Y0084966D03*
X0170093Y0089966D03*
X0170093Y0094966D03*
X0170093Y0099966D03*
X0170093Y0104966D03*
X0170093Y0109966D03*
X0170093Y0114966D03*
X0151493Y0114966D03*
X0151493Y0109966D03*
X0151493Y0104966D03*
X0151493Y0099966D03*
X0151493Y0094966D03*
X0151493Y0089966D03*
X0151493Y0084966D03*
X0118912Y0084966D03*
X0118912Y0089966D03*
X0118912Y0094966D03*
X0118912Y0099966D03*
X0118912Y0104966D03*
X0118912Y0109966D03*
X0118912Y0114966D03*
X0100312Y0114966D03*
X0100312Y0109966D03*
X0100312Y0104966D03*
X0100312Y0099966D03*
X0100312Y0094966D03*
X0100312Y0089966D03*
X0100312Y0084966D03*
D13*
X0090943Y0095045D03*
X0086943Y0095045D03*
X0083069Y0097014D03*
X0079069Y0097014D03*
X0079069Y0103903D03*
X0083069Y0103903D03*
X0127297Y0091108D03*
X0131297Y0091108D03*
X0131297Y0085203D03*
X0127297Y0085203D03*
X0140092Y0095045D03*
X0144092Y0095045D03*
X0178478Y0091108D03*
X0182478Y0091108D03*
X0182478Y0085203D03*
X0178478Y0085203D03*
X0191273Y0095045D03*
X0195273Y0095045D03*
X0229659Y0091108D03*
X0233659Y0091108D03*
X0233659Y0085203D03*
X0229659Y0085203D03*
X0186415Y0061581D03*
X0182415Y0061581D03*
D14*
X0183665Y0061618D02*
X0185165Y0061618D01*
X0185165Y0062081D02*
X0185165Y0061081D01*
X0183665Y0061081D01*
X0183665Y0062081D01*
X0185165Y0062081D01*
X0185165Y0061120D02*
X0183665Y0061120D01*
X0181228Y0084703D02*
X0181228Y0085703D01*
X0179728Y0085703D01*
X0179728Y0084703D01*
X0181228Y0084703D01*
X0181228Y0085048D02*
X0179728Y0085048D01*
X0179728Y0085547D02*
X0181228Y0085547D01*
X0181228Y0090608D02*
X0181228Y0091608D01*
X0179728Y0091608D01*
X0179728Y0090608D01*
X0181228Y0090608D01*
X0181228Y0091031D02*
X0179728Y0091031D01*
X0179728Y0091529D02*
X0181228Y0091529D01*
X0192523Y0094545D02*
X0192523Y0095545D01*
X0194023Y0095545D01*
X0194023Y0094545D01*
X0192523Y0094545D01*
X0192523Y0095019D02*
X0194023Y0095019D01*
X0194023Y0095517D02*
X0192523Y0095517D01*
X0230909Y0091608D02*
X0230909Y0090608D01*
X0232409Y0090608D01*
X0232409Y0091608D01*
X0230909Y0091608D01*
X0230909Y0091529D02*
X0232409Y0091529D01*
X0232409Y0091031D02*
X0230909Y0091031D01*
X0230909Y0085703D02*
X0232409Y0085703D01*
X0232409Y0084703D01*
X0230909Y0084703D01*
X0230909Y0085703D01*
X0230909Y0085547D02*
X0232409Y0085547D01*
X0232409Y0085048D02*
X0230909Y0085048D01*
X0142842Y0094545D02*
X0142842Y0095545D01*
X0141342Y0095545D01*
X0141342Y0094545D01*
X0142842Y0094545D01*
X0142842Y0095019D02*
X0141342Y0095019D01*
X0141342Y0095517D02*
X0142842Y0095517D01*
X0130047Y0091608D02*
X0130047Y0090608D01*
X0128547Y0090608D01*
X0128547Y0091608D01*
X0130047Y0091608D01*
X0130047Y0091529D02*
X0128547Y0091529D01*
X0128547Y0091031D02*
X0130047Y0091031D01*
X0130047Y0085703D02*
X0130047Y0084703D01*
X0128547Y0084703D01*
X0128547Y0085703D01*
X0130047Y0085703D01*
X0130047Y0085547D02*
X0128547Y0085547D01*
X0128547Y0085048D02*
X0130047Y0085048D01*
X0089693Y0094545D02*
X0089693Y0095545D01*
X0088193Y0095545D01*
X0088193Y0094545D01*
X0089693Y0094545D01*
X0089693Y0095019D02*
X0088193Y0095019D01*
X0088193Y0095517D02*
X0089693Y0095517D01*
X0081819Y0096514D02*
X0080319Y0096514D01*
X0081819Y0096514D01*
X0081819Y0097514D01*
X0080319Y0097514D01*
X0080319Y0096514D01*
X0080319Y0097013D02*
X0081819Y0097013D01*
X0081819Y0097511D02*
X0080319Y0097511D01*
X0080319Y0103403D02*
X0080319Y0104403D01*
X0081819Y0104403D01*
X0081819Y0103403D01*
X0080319Y0103403D01*
X0080319Y0103493D02*
X0081819Y0103493D01*
X0081819Y0103992D02*
X0080319Y0103992D01*
X0091395Y0124807D02*
X0091395Y0126307D01*
X0092395Y0126307D01*
X0092395Y0124807D01*
X0091395Y0124807D01*
X0091395Y0124929D02*
X0092395Y0124929D01*
X0092395Y0125428D02*
X0091395Y0125428D01*
X0091395Y0125926D02*
X0092395Y0125926D01*
D15*
X0107250Y0121620D03*
X0113943Y0121620D03*
X0159415Y0121620D03*
X0166108Y0121620D03*
X0208628Y0121620D03*
X0215321Y0121620D03*
X0205094Y0048057D03*
X0198401Y0048057D03*
X0041344Y0052742D03*
X0034651Y0052742D03*
X0034651Y0062742D03*
X0041344Y0062742D03*
X0041344Y0042742D03*
X0034651Y0042742D03*
D16*
X0086974Y0112146D03*
X0086974Y0115346D03*
X0091895Y0123557D03*
X0091895Y0127557D03*
X0134218Y0115346D03*
X0134218Y0112146D03*
X0173008Y0078185D03*
X0173008Y0074985D03*
X0192289Y0112146D03*
X0192289Y0115346D03*
D17*
X0071305Y0140321D03*
X0061305Y0140321D03*
X0061305Y0151147D03*
X0071305Y0151147D03*
X0075498Y0027742D03*
X0065498Y0027742D03*
X0085498Y0027742D03*
X0095498Y0027742D03*
X0105498Y0027742D03*
X0115498Y0027742D03*
X0125498Y0027742D03*
X0135498Y0027742D03*
X0145498Y0027742D03*
X0155498Y0027742D03*
X0165498Y0027742D03*
X0175498Y0027742D03*
X0185498Y0027742D03*
X0195498Y0027742D03*
X0205498Y0027742D03*
D18*
X0059632Y0060242D03*
X0051364Y0060242D03*
D19*
X0174769Y0129494D03*
X0182250Y0129494D03*
X0178510Y0137368D03*
X0222998Y0129494D03*
X0230478Y0129494D03*
X0226738Y0137368D03*
D20*
X0070832Y0123982D03*
X0060832Y0123982D03*
X0060832Y0113982D03*
X0070832Y0113982D03*
X0070832Y0103982D03*
X0060832Y0103982D03*
X0060832Y0093982D03*
X0070832Y0093982D03*
X0070832Y0083982D03*
X0060832Y0083982D03*
X0060832Y0073982D03*
X0070832Y0073982D03*
M02*
