%
M48
M72
T01C0.01378
T02C0.03937
T03C0.04016
%
T01
X43623Y30867
X54873Y51492
X65498Y66133
X91895Y85203
X86354Y89430
X86974Y103903
X88943Y118667
X107447Y130163
X101428Y140611
X79774Y162265
X99459Y173091
X135877Y128800
X126344Y115714
X109302Y111083
X109612Y99966
X108318Y94351
X126034Y96320
X139814Y104194
X145045Y99966
X158825Y100951
X162762Y115714
X174573Y124573
X178588Y126497
X187368Y115714
X180478Y99966
X190321Y77329
X184415Y76344
X179610Y73955
X177452Y68667
X176748Y49932
X219986Y72545
X230419Y48185
X146029Y84966
X144061Y88155
X139814Y87461
X111979Y80055
X107604Y80055
X112545Y61945
X99873Y41492
X100498Y37117
X105498Y38367
X100498Y30867
X89873Y40867
X222801Y126541
T02
X65498Y27742
X75498Y27742
X85498Y27742
X95498Y27742
X105498Y27742
X115498Y27742
X125498Y27742
X135498Y27742
X145498Y27742
X155498Y27742
X165498Y27742
X175498Y27742
X185498Y27742
X195498Y27742
X205498Y27742
X71305Y140321
X61305Y140321
X61305Y151147
X71305Y151147
T03
X60832Y73982
X70832Y73982
X70832Y83982
X60832Y83982
X60832Y93982
X70832Y93982
X70832Y103982
X60832Y103982
X60832Y113982
X70832Y113982
X70832Y123982
X60832Y123982
M30
