G75*
%MOIN*%
%OFA0B0*%
%FSLAX25Y25*%
%IPPOS*%
%LPD*%
%AMOC8*
5,1,8,0,0,1.08239X$1,22.5*
%
%ADD10C,0.00001*%
%ADD11C,0.06600*%
%ADD12C,0.06024*%
%ADD13C,0.01600*%
%ADD14C,0.02578*%
%ADD15C,0.01200*%
%ADD16C,0.00600*%
%ADD17C,0.00800*%
%ADD18C,0.01000*%
%ADD19C,0.00787*%
D10*
X0030872Y0020242D02*
X0231659Y0020242D01*
X0226541Y0028116D02*
X0226543Y0028259D01*
X0226549Y0028402D01*
X0226559Y0028544D01*
X0226573Y0028686D01*
X0226591Y0028828D01*
X0226613Y0028970D01*
X0226638Y0029110D01*
X0226668Y0029250D01*
X0226702Y0029389D01*
X0226739Y0029527D01*
X0226781Y0029664D01*
X0226826Y0029799D01*
X0226875Y0029933D01*
X0226927Y0030066D01*
X0226983Y0030198D01*
X0227043Y0030327D01*
X0227107Y0030455D01*
X0227174Y0030582D01*
X0227245Y0030706D01*
X0227319Y0030828D01*
X0227396Y0030948D01*
X0227477Y0031066D01*
X0227561Y0031182D01*
X0227648Y0031295D01*
X0227738Y0031406D01*
X0227832Y0031514D01*
X0227928Y0031620D01*
X0228027Y0031722D01*
X0228130Y0031822D01*
X0228234Y0031919D01*
X0228342Y0032014D01*
X0228452Y0032105D01*
X0228565Y0032193D01*
X0228680Y0032277D01*
X0228797Y0032359D01*
X0228917Y0032437D01*
X0229038Y0032512D01*
X0229162Y0032584D01*
X0229288Y0032652D01*
X0229415Y0032716D01*
X0229545Y0032777D01*
X0229676Y0032834D01*
X0229808Y0032888D01*
X0229942Y0032937D01*
X0230077Y0032984D01*
X0230214Y0033026D01*
X0230352Y0033064D01*
X0230490Y0033099D01*
X0230630Y0033129D01*
X0230770Y0033156D01*
X0230911Y0033179D01*
X0231053Y0033198D01*
X0231195Y0033213D01*
X0231338Y0033224D01*
X0231480Y0033231D01*
X0231623Y0033234D01*
X0231766Y0033233D01*
X0231909Y0033228D01*
X0232052Y0033219D01*
X0232194Y0033206D01*
X0232336Y0033189D01*
X0232477Y0033168D01*
X0232618Y0033143D01*
X0232758Y0033115D01*
X0232897Y0033082D01*
X0233035Y0033045D01*
X0233172Y0033005D01*
X0233308Y0032961D01*
X0233443Y0032913D01*
X0233576Y0032861D01*
X0233708Y0032806D01*
X0233838Y0032747D01*
X0233967Y0032684D01*
X0234093Y0032618D01*
X0234218Y0032548D01*
X0234341Y0032475D01*
X0234461Y0032399D01*
X0234580Y0032319D01*
X0234696Y0032235D01*
X0234810Y0032149D01*
X0234921Y0032059D01*
X0235030Y0031967D01*
X0235136Y0031871D01*
X0235240Y0031773D01*
X0235341Y0031671D01*
X0235438Y0031567D01*
X0235533Y0031460D01*
X0235625Y0031351D01*
X0235714Y0031239D01*
X0235800Y0031124D01*
X0235882Y0031008D01*
X0235961Y0030888D01*
X0236037Y0030767D01*
X0236109Y0030644D01*
X0236178Y0030519D01*
X0236243Y0030392D01*
X0236305Y0030263D01*
X0236363Y0030132D01*
X0236418Y0030000D01*
X0236468Y0029866D01*
X0236515Y0029731D01*
X0236559Y0029595D01*
X0236598Y0029458D01*
X0236633Y0029319D01*
X0236665Y0029180D01*
X0236693Y0029040D01*
X0236717Y0028899D01*
X0236737Y0028757D01*
X0236753Y0028615D01*
X0236765Y0028473D01*
X0236773Y0028330D01*
X0236777Y0028187D01*
X0236777Y0028045D01*
X0236773Y0027902D01*
X0236765Y0027759D01*
X0236753Y0027617D01*
X0236737Y0027475D01*
X0236717Y0027333D01*
X0236693Y0027192D01*
X0236665Y0027052D01*
X0236633Y0026913D01*
X0236598Y0026774D01*
X0236559Y0026637D01*
X0236515Y0026501D01*
X0236468Y0026366D01*
X0236418Y0026232D01*
X0236363Y0026100D01*
X0236305Y0025969D01*
X0236243Y0025840D01*
X0236178Y0025713D01*
X0236109Y0025588D01*
X0236037Y0025465D01*
X0235961Y0025344D01*
X0235882Y0025224D01*
X0235800Y0025108D01*
X0235714Y0024993D01*
X0235625Y0024881D01*
X0235533Y0024772D01*
X0235438Y0024665D01*
X0235341Y0024561D01*
X0235240Y0024459D01*
X0235136Y0024361D01*
X0235030Y0024265D01*
X0234921Y0024173D01*
X0234810Y0024083D01*
X0234696Y0023997D01*
X0234580Y0023913D01*
X0234461Y0023833D01*
X0234341Y0023757D01*
X0234218Y0023684D01*
X0234093Y0023614D01*
X0233967Y0023548D01*
X0233838Y0023485D01*
X0233708Y0023426D01*
X0233576Y0023371D01*
X0233443Y0023319D01*
X0233308Y0023271D01*
X0233172Y0023227D01*
X0233035Y0023187D01*
X0232897Y0023150D01*
X0232758Y0023117D01*
X0232618Y0023089D01*
X0232477Y0023064D01*
X0232336Y0023043D01*
X0232194Y0023026D01*
X0232052Y0023013D01*
X0231909Y0023004D01*
X0231766Y0022999D01*
X0231623Y0022998D01*
X0231480Y0023001D01*
X0231338Y0023008D01*
X0231195Y0023019D01*
X0231053Y0023034D01*
X0230911Y0023053D01*
X0230770Y0023076D01*
X0230630Y0023103D01*
X0230490Y0023133D01*
X0230352Y0023168D01*
X0230214Y0023206D01*
X0230077Y0023248D01*
X0229942Y0023295D01*
X0229808Y0023344D01*
X0229676Y0023398D01*
X0229545Y0023455D01*
X0229415Y0023516D01*
X0229288Y0023580D01*
X0229162Y0023648D01*
X0229038Y0023720D01*
X0228917Y0023795D01*
X0228797Y0023873D01*
X0228680Y0023955D01*
X0228565Y0024039D01*
X0228452Y0024127D01*
X0228342Y0024218D01*
X0228234Y0024313D01*
X0228130Y0024410D01*
X0228027Y0024510D01*
X0227928Y0024612D01*
X0227832Y0024718D01*
X0227738Y0024826D01*
X0227648Y0024937D01*
X0227561Y0025050D01*
X0227477Y0025166D01*
X0227396Y0025284D01*
X0227319Y0025404D01*
X0227245Y0025526D01*
X0227174Y0025650D01*
X0227107Y0025777D01*
X0227043Y0025905D01*
X0226983Y0026034D01*
X0226927Y0026166D01*
X0226875Y0026299D01*
X0226826Y0026433D01*
X0226781Y0026568D01*
X0226739Y0026705D01*
X0226702Y0026843D01*
X0226668Y0026982D01*
X0226638Y0027122D01*
X0226613Y0027262D01*
X0226591Y0027404D01*
X0226573Y0027546D01*
X0226559Y0027688D01*
X0226549Y0027830D01*
X0226543Y0027973D01*
X0226541Y0028116D01*
X0231659Y0020242D02*
X0231849Y0020244D01*
X0232039Y0020251D01*
X0232229Y0020263D01*
X0232419Y0020279D01*
X0232608Y0020299D01*
X0232797Y0020325D01*
X0232985Y0020354D01*
X0233172Y0020389D01*
X0233358Y0020428D01*
X0233543Y0020471D01*
X0233728Y0020519D01*
X0233911Y0020571D01*
X0234092Y0020627D01*
X0234272Y0020688D01*
X0234451Y0020754D01*
X0234628Y0020823D01*
X0234804Y0020897D01*
X0234977Y0020975D01*
X0235149Y0021058D01*
X0235318Y0021144D01*
X0235486Y0021234D01*
X0235651Y0021329D01*
X0235814Y0021427D01*
X0235974Y0021530D01*
X0236132Y0021636D01*
X0236287Y0021746D01*
X0236440Y0021859D01*
X0236590Y0021977D01*
X0236736Y0022098D01*
X0236880Y0022222D01*
X0237021Y0022350D01*
X0237159Y0022481D01*
X0237294Y0022616D01*
X0237425Y0022754D01*
X0237553Y0022895D01*
X0237677Y0023039D01*
X0237798Y0023185D01*
X0237916Y0023335D01*
X0238029Y0023488D01*
X0238139Y0023643D01*
X0238245Y0023801D01*
X0238348Y0023961D01*
X0238446Y0024124D01*
X0238541Y0024289D01*
X0238631Y0024457D01*
X0238717Y0024626D01*
X0238800Y0024798D01*
X0238878Y0024971D01*
X0238952Y0025147D01*
X0239021Y0025324D01*
X0239087Y0025503D01*
X0239148Y0025683D01*
X0239204Y0025864D01*
X0239256Y0026047D01*
X0239304Y0026232D01*
X0239347Y0026417D01*
X0239386Y0026603D01*
X0239421Y0026790D01*
X0239450Y0026978D01*
X0239476Y0027167D01*
X0239496Y0027356D01*
X0239512Y0027546D01*
X0239524Y0027736D01*
X0239531Y0027926D01*
X0239533Y0028116D01*
X0239533Y0169848D01*
X0226541Y0169848D02*
X0226543Y0169991D01*
X0226549Y0170134D01*
X0226559Y0170276D01*
X0226573Y0170418D01*
X0226591Y0170560D01*
X0226613Y0170702D01*
X0226638Y0170842D01*
X0226668Y0170982D01*
X0226702Y0171121D01*
X0226739Y0171259D01*
X0226781Y0171396D01*
X0226826Y0171531D01*
X0226875Y0171665D01*
X0226927Y0171798D01*
X0226983Y0171930D01*
X0227043Y0172059D01*
X0227107Y0172187D01*
X0227174Y0172314D01*
X0227245Y0172438D01*
X0227319Y0172560D01*
X0227396Y0172680D01*
X0227477Y0172798D01*
X0227561Y0172914D01*
X0227648Y0173027D01*
X0227738Y0173138D01*
X0227832Y0173246D01*
X0227928Y0173352D01*
X0228027Y0173454D01*
X0228130Y0173554D01*
X0228234Y0173651D01*
X0228342Y0173746D01*
X0228452Y0173837D01*
X0228565Y0173925D01*
X0228680Y0174009D01*
X0228797Y0174091D01*
X0228917Y0174169D01*
X0229038Y0174244D01*
X0229162Y0174316D01*
X0229288Y0174384D01*
X0229415Y0174448D01*
X0229545Y0174509D01*
X0229676Y0174566D01*
X0229808Y0174620D01*
X0229942Y0174669D01*
X0230077Y0174716D01*
X0230214Y0174758D01*
X0230352Y0174796D01*
X0230490Y0174831D01*
X0230630Y0174861D01*
X0230770Y0174888D01*
X0230911Y0174911D01*
X0231053Y0174930D01*
X0231195Y0174945D01*
X0231338Y0174956D01*
X0231480Y0174963D01*
X0231623Y0174966D01*
X0231766Y0174965D01*
X0231909Y0174960D01*
X0232052Y0174951D01*
X0232194Y0174938D01*
X0232336Y0174921D01*
X0232477Y0174900D01*
X0232618Y0174875D01*
X0232758Y0174847D01*
X0232897Y0174814D01*
X0233035Y0174777D01*
X0233172Y0174737D01*
X0233308Y0174693D01*
X0233443Y0174645D01*
X0233576Y0174593D01*
X0233708Y0174538D01*
X0233838Y0174479D01*
X0233967Y0174416D01*
X0234093Y0174350D01*
X0234218Y0174280D01*
X0234341Y0174207D01*
X0234461Y0174131D01*
X0234580Y0174051D01*
X0234696Y0173967D01*
X0234810Y0173881D01*
X0234921Y0173791D01*
X0235030Y0173699D01*
X0235136Y0173603D01*
X0235240Y0173505D01*
X0235341Y0173403D01*
X0235438Y0173299D01*
X0235533Y0173192D01*
X0235625Y0173083D01*
X0235714Y0172971D01*
X0235800Y0172856D01*
X0235882Y0172740D01*
X0235961Y0172620D01*
X0236037Y0172499D01*
X0236109Y0172376D01*
X0236178Y0172251D01*
X0236243Y0172124D01*
X0236305Y0171995D01*
X0236363Y0171864D01*
X0236418Y0171732D01*
X0236468Y0171598D01*
X0236515Y0171463D01*
X0236559Y0171327D01*
X0236598Y0171190D01*
X0236633Y0171051D01*
X0236665Y0170912D01*
X0236693Y0170772D01*
X0236717Y0170631D01*
X0236737Y0170489D01*
X0236753Y0170347D01*
X0236765Y0170205D01*
X0236773Y0170062D01*
X0236777Y0169919D01*
X0236777Y0169777D01*
X0236773Y0169634D01*
X0236765Y0169491D01*
X0236753Y0169349D01*
X0236737Y0169207D01*
X0236717Y0169065D01*
X0236693Y0168924D01*
X0236665Y0168784D01*
X0236633Y0168645D01*
X0236598Y0168506D01*
X0236559Y0168369D01*
X0236515Y0168233D01*
X0236468Y0168098D01*
X0236418Y0167964D01*
X0236363Y0167832D01*
X0236305Y0167701D01*
X0236243Y0167572D01*
X0236178Y0167445D01*
X0236109Y0167320D01*
X0236037Y0167197D01*
X0235961Y0167076D01*
X0235882Y0166956D01*
X0235800Y0166840D01*
X0235714Y0166725D01*
X0235625Y0166613D01*
X0235533Y0166504D01*
X0235438Y0166397D01*
X0235341Y0166293D01*
X0235240Y0166191D01*
X0235136Y0166093D01*
X0235030Y0165997D01*
X0234921Y0165905D01*
X0234810Y0165815D01*
X0234696Y0165729D01*
X0234580Y0165645D01*
X0234461Y0165565D01*
X0234341Y0165489D01*
X0234218Y0165416D01*
X0234093Y0165346D01*
X0233967Y0165280D01*
X0233838Y0165217D01*
X0233708Y0165158D01*
X0233576Y0165103D01*
X0233443Y0165051D01*
X0233308Y0165003D01*
X0233172Y0164959D01*
X0233035Y0164919D01*
X0232897Y0164882D01*
X0232758Y0164849D01*
X0232618Y0164821D01*
X0232477Y0164796D01*
X0232336Y0164775D01*
X0232194Y0164758D01*
X0232052Y0164745D01*
X0231909Y0164736D01*
X0231766Y0164731D01*
X0231623Y0164730D01*
X0231480Y0164733D01*
X0231338Y0164740D01*
X0231195Y0164751D01*
X0231053Y0164766D01*
X0230911Y0164785D01*
X0230770Y0164808D01*
X0230630Y0164835D01*
X0230490Y0164865D01*
X0230352Y0164900D01*
X0230214Y0164938D01*
X0230077Y0164980D01*
X0229942Y0165027D01*
X0229808Y0165076D01*
X0229676Y0165130D01*
X0229545Y0165187D01*
X0229415Y0165248D01*
X0229288Y0165312D01*
X0229162Y0165380D01*
X0229038Y0165452D01*
X0228917Y0165527D01*
X0228797Y0165605D01*
X0228680Y0165687D01*
X0228565Y0165771D01*
X0228452Y0165859D01*
X0228342Y0165950D01*
X0228234Y0166045D01*
X0228130Y0166142D01*
X0228027Y0166242D01*
X0227928Y0166344D01*
X0227832Y0166450D01*
X0227738Y0166558D01*
X0227648Y0166669D01*
X0227561Y0166782D01*
X0227477Y0166898D01*
X0227396Y0167016D01*
X0227319Y0167136D01*
X0227245Y0167258D01*
X0227174Y0167382D01*
X0227107Y0167509D01*
X0227043Y0167637D01*
X0226983Y0167766D01*
X0226927Y0167898D01*
X0226875Y0168031D01*
X0226826Y0168165D01*
X0226781Y0168300D01*
X0226739Y0168437D01*
X0226702Y0168575D01*
X0226668Y0168714D01*
X0226638Y0168854D01*
X0226613Y0168994D01*
X0226591Y0169136D01*
X0226573Y0169278D01*
X0226559Y0169420D01*
X0226549Y0169562D01*
X0226543Y0169705D01*
X0226541Y0169848D01*
X0231659Y0177722D02*
X0231849Y0177720D01*
X0232039Y0177713D01*
X0232229Y0177701D01*
X0232419Y0177685D01*
X0232608Y0177665D01*
X0232797Y0177639D01*
X0232985Y0177610D01*
X0233172Y0177575D01*
X0233358Y0177536D01*
X0233543Y0177493D01*
X0233728Y0177445D01*
X0233911Y0177393D01*
X0234092Y0177337D01*
X0234272Y0177276D01*
X0234451Y0177210D01*
X0234628Y0177141D01*
X0234804Y0177067D01*
X0234977Y0176989D01*
X0235149Y0176906D01*
X0235318Y0176820D01*
X0235486Y0176730D01*
X0235651Y0176635D01*
X0235814Y0176537D01*
X0235974Y0176434D01*
X0236132Y0176328D01*
X0236287Y0176218D01*
X0236440Y0176105D01*
X0236590Y0175987D01*
X0236736Y0175866D01*
X0236880Y0175742D01*
X0237021Y0175614D01*
X0237159Y0175483D01*
X0237294Y0175348D01*
X0237425Y0175210D01*
X0237553Y0175069D01*
X0237677Y0174925D01*
X0237798Y0174779D01*
X0237916Y0174629D01*
X0238029Y0174476D01*
X0238139Y0174321D01*
X0238245Y0174163D01*
X0238348Y0174003D01*
X0238446Y0173840D01*
X0238541Y0173675D01*
X0238631Y0173507D01*
X0238717Y0173338D01*
X0238800Y0173166D01*
X0238878Y0172993D01*
X0238952Y0172817D01*
X0239021Y0172640D01*
X0239087Y0172461D01*
X0239148Y0172281D01*
X0239204Y0172100D01*
X0239256Y0171917D01*
X0239304Y0171732D01*
X0239347Y0171547D01*
X0239386Y0171361D01*
X0239421Y0171174D01*
X0239450Y0170986D01*
X0239476Y0170797D01*
X0239496Y0170608D01*
X0239512Y0170418D01*
X0239524Y0170228D01*
X0239531Y0170038D01*
X0239533Y0169848D01*
X0231659Y0177722D02*
X0030872Y0177722D01*
X0025754Y0169848D02*
X0025756Y0169991D01*
X0025762Y0170134D01*
X0025772Y0170276D01*
X0025786Y0170418D01*
X0025804Y0170560D01*
X0025826Y0170702D01*
X0025851Y0170842D01*
X0025881Y0170982D01*
X0025915Y0171121D01*
X0025952Y0171259D01*
X0025994Y0171396D01*
X0026039Y0171531D01*
X0026088Y0171665D01*
X0026140Y0171798D01*
X0026196Y0171930D01*
X0026256Y0172059D01*
X0026320Y0172187D01*
X0026387Y0172314D01*
X0026458Y0172438D01*
X0026532Y0172560D01*
X0026609Y0172680D01*
X0026690Y0172798D01*
X0026774Y0172914D01*
X0026861Y0173027D01*
X0026951Y0173138D01*
X0027045Y0173246D01*
X0027141Y0173352D01*
X0027240Y0173454D01*
X0027343Y0173554D01*
X0027447Y0173651D01*
X0027555Y0173746D01*
X0027665Y0173837D01*
X0027778Y0173925D01*
X0027893Y0174009D01*
X0028010Y0174091D01*
X0028130Y0174169D01*
X0028251Y0174244D01*
X0028375Y0174316D01*
X0028501Y0174384D01*
X0028628Y0174448D01*
X0028758Y0174509D01*
X0028889Y0174566D01*
X0029021Y0174620D01*
X0029155Y0174669D01*
X0029290Y0174716D01*
X0029427Y0174758D01*
X0029565Y0174796D01*
X0029703Y0174831D01*
X0029843Y0174861D01*
X0029983Y0174888D01*
X0030124Y0174911D01*
X0030266Y0174930D01*
X0030408Y0174945D01*
X0030551Y0174956D01*
X0030693Y0174963D01*
X0030836Y0174966D01*
X0030979Y0174965D01*
X0031122Y0174960D01*
X0031265Y0174951D01*
X0031407Y0174938D01*
X0031549Y0174921D01*
X0031690Y0174900D01*
X0031831Y0174875D01*
X0031971Y0174847D01*
X0032110Y0174814D01*
X0032248Y0174777D01*
X0032385Y0174737D01*
X0032521Y0174693D01*
X0032656Y0174645D01*
X0032789Y0174593D01*
X0032921Y0174538D01*
X0033051Y0174479D01*
X0033180Y0174416D01*
X0033306Y0174350D01*
X0033431Y0174280D01*
X0033554Y0174207D01*
X0033674Y0174131D01*
X0033793Y0174051D01*
X0033909Y0173967D01*
X0034023Y0173881D01*
X0034134Y0173791D01*
X0034243Y0173699D01*
X0034349Y0173603D01*
X0034453Y0173505D01*
X0034554Y0173403D01*
X0034651Y0173299D01*
X0034746Y0173192D01*
X0034838Y0173083D01*
X0034927Y0172971D01*
X0035013Y0172856D01*
X0035095Y0172740D01*
X0035174Y0172620D01*
X0035250Y0172499D01*
X0035322Y0172376D01*
X0035391Y0172251D01*
X0035456Y0172124D01*
X0035518Y0171995D01*
X0035576Y0171864D01*
X0035631Y0171732D01*
X0035681Y0171598D01*
X0035728Y0171463D01*
X0035772Y0171327D01*
X0035811Y0171190D01*
X0035846Y0171051D01*
X0035878Y0170912D01*
X0035906Y0170772D01*
X0035930Y0170631D01*
X0035950Y0170489D01*
X0035966Y0170347D01*
X0035978Y0170205D01*
X0035986Y0170062D01*
X0035990Y0169919D01*
X0035990Y0169777D01*
X0035986Y0169634D01*
X0035978Y0169491D01*
X0035966Y0169349D01*
X0035950Y0169207D01*
X0035930Y0169065D01*
X0035906Y0168924D01*
X0035878Y0168784D01*
X0035846Y0168645D01*
X0035811Y0168506D01*
X0035772Y0168369D01*
X0035728Y0168233D01*
X0035681Y0168098D01*
X0035631Y0167964D01*
X0035576Y0167832D01*
X0035518Y0167701D01*
X0035456Y0167572D01*
X0035391Y0167445D01*
X0035322Y0167320D01*
X0035250Y0167197D01*
X0035174Y0167076D01*
X0035095Y0166956D01*
X0035013Y0166840D01*
X0034927Y0166725D01*
X0034838Y0166613D01*
X0034746Y0166504D01*
X0034651Y0166397D01*
X0034554Y0166293D01*
X0034453Y0166191D01*
X0034349Y0166093D01*
X0034243Y0165997D01*
X0034134Y0165905D01*
X0034023Y0165815D01*
X0033909Y0165729D01*
X0033793Y0165645D01*
X0033674Y0165565D01*
X0033554Y0165489D01*
X0033431Y0165416D01*
X0033306Y0165346D01*
X0033180Y0165280D01*
X0033051Y0165217D01*
X0032921Y0165158D01*
X0032789Y0165103D01*
X0032656Y0165051D01*
X0032521Y0165003D01*
X0032385Y0164959D01*
X0032248Y0164919D01*
X0032110Y0164882D01*
X0031971Y0164849D01*
X0031831Y0164821D01*
X0031690Y0164796D01*
X0031549Y0164775D01*
X0031407Y0164758D01*
X0031265Y0164745D01*
X0031122Y0164736D01*
X0030979Y0164731D01*
X0030836Y0164730D01*
X0030693Y0164733D01*
X0030551Y0164740D01*
X0030408Y0164751D01*
X0030266Y0164766D01*
X0030124Y0164785D01*
X0029983Y0164808D01*
X0029843Y0164835D01*
X0029703Y0164865D01*
X0029565Y0164900D01*
X0029427Y0164938D01*
X0029290Y0164980D01*
X0029155Y0165027D01*
X0029021Y0165076D01*
X0028889Y0165130D01*
X0028758Y0165187D01*
X0028628Y0165248D01*
X0028501Y0165312D01*
X0028375Y0165380D01*
X0028251Y0165452D01*
X0028130Y0165527D01*
X0028010Y0165605D01*
X0027893Y0165687D01*
X0027778Y0165771D01*
X0027665Y0165859D01*
X0027555Y0165950D01*
X0027447Y0166045D01*
X0027343Y0166142D01*
X0027240Y0166242D01*
X0027141Y0166344D01*
X0027045Y0166450D01*
X0026951Y0166558D01*
X0026861Y0166669D01*
X0026774Y0166782D01*
X0026690Y0166898D01*
X0026609Y0167016D01*
X0026532Y0167136D01*
X0026458Y0167258D01*
X0026387Y0167382D01*
X0026320Y0167509D01*
X0026256Y0167637D01*
X0026196Y0167766D01*
X0026140Y0167898D01*
X0026088Y0168031D01*
X0026039Y0168165D01*
X0025994Y0168300D01*
X0025952Y0168437D01*
X0025915Y0168575D01*
X0025881Y0168714D01*
X0025851Y0168854D01*
X0025826Y0168994D01*
X0025804Y0169136D01*
X0025786Y0169278D01*
X0025772Y0169420D01*
X0025762Y0169562D01*
X0025756Y0169705D01*
X0025754Y0169848D01*
X0022998Y0169848D02*
X0022998Y0028116D01*
X0025754Y0028116D02*
X0025756Y0028259D01*
X0025762Y0028402D01*
X0025772Y0028544D01*
X0025786Y0028686D01*
X0025804Y0028828D01*
X0025826Y0028970D01*
X0025851Y0029110D01*
X0025881Y0029250D01*
X0025915Y0029389D01*
X0025952Y0029527D01*
X0025994Y0029664D01*
X0026039Y0029799D01*
X0026088Y0029933D01*
X0026140Y0030066D01*
X0026196Y0030198D01*
X0026256Y0030327D01*
X0026320Y0030455D01*
X0026387Y0030582D01*
X0026458Y0030706D01*
X0026532Y0030828D01*
X0026609Y0030948D01*
X0026690Y0031066D01*
X0026774Y0031182D01*
X0026861Y0031295D01*
X0026951Y0031406D01*
X0027045Y0031514D01*
X0027141Y0031620D01*
X0027240Y0031722D01*
X0027343Y0031822D01*
X0027447Y0031919D01*
X0027555Y0032014D01*
X0027665Y0032105D01*
X0027778Y0032193D01*
X0027893Y0032277D01*
X0028010Y0032359D01*
X0028130Y0032437D01*
X0028251Y0032512D01*
X0028375Y0032584D01*
X0028501Y0032652D01*
X0028628Y0032716D01*
X0028758Y0032777D01*
X0028889Y0032834D01*
X0029021Y0032888D01*
X0029155Y0032937D01*
X0029290Y0032984D01*
X0029427Y0033026D01*
X0029565Y0033064D01*
X0029703Y0033099D01*
X0029843Y0033129D01*
X0029983Y0033156D01*
X0030124Y0033179D01*
X0030266Y0033198D01*
X0030408Y0033213D01*
X0030551Y0033224D01*
X0030693Y0033231D01*
X0030836Y0033234D01*
X0030979Y0033233D01*
X0031122Y0033228D01*
X0031265Y0033219D01*
X0031407Y0033206D01*
X0031549Y0033189D01*
X0031690Y0033168D01*
X0031831Y0033143D01*
X0031971Y0033115D01*
X0032110Y0033082D01*
X0032248Y0033045D01*
X0032385Y0033005D01*
X0032521Y0032961D01*
X0032656Y0032913D01*
X0032789Y0032861D01*
X0032921Y0032806D01*
X0033051Y0032747D01*
X0033180Y0032684D01*
X0033306Y0032618D01*
X0033431Y0032548D01*
X0033554Y0032475D01*
X0033674Y0032399D01*
X0033793Y0032319D01*
X0033909Y0032235D01*
X0034023Y0032149D01*
X0034134Y0032059D01*
X0034243Y0031967D01*
X0034349Y0031871D01*
X0034453Y0031773D01*
X0034554Y0031671D01*
X0034651Y0031567D01*
X0034746Y0031460D01*
X0034838Y0031351D01*
X0034927Y0031239D01*
X0035013Y0031124D01*
X0035095Y0031008D01*
X0035174Y0030888D01*
X0035250Y0030767D01*
X0035322Y0030644D01*
X0035391Y0030519D01*
X0035456Y0030392D01*
X0035518Y0030263D01*
X0035576Y0030132D01*
X0035631Y0030000D01*
X0035681Y0029866D01*
X0035728Y0029731D01*
X0035772Y0029595D01*
X0035811Y0029458D01*
X0035846Y0029319D01*
X0035878Y0029180D01*
X0035906Y0029040D01*
X0035930Y0028899D01*
X0035950Y0028757D01*
X0035966Y0028615D01*
X0035978Y0028473D01*
X0035986Y0028330D01*
X0035990Y0028187D01*
X0035990Y0028045D01*
X0035986Y0027902D01*
X0035978Y0027759D01*
X0035966Y0027617D01*
X0035950Y0027475D01*
X0035930Y0027333D01*
X0035906Y0027192D01*
X0035878Y0027052D01*
X0035846Y0026913D01*
X0035811Y0026774D01*
X0035772Y0026637D01*
X0035728Y0026501D01*
X0035681Y0026366D01*
X0035631Y0026232D01*
X0035576Y0026100D01*
X0035518Y0025969D01*
X0035456Y0025840D01*
X0035391Y0025713D01*
X0035322Y0025588D01*
X0035250Y0025465D01*
X0035174Y0025344D01*
X0035095Y0025224D01*
X0035013Y0025108D01*
X0034927Y0024993D01*
X0034838Y0024881D01*
X0034746Y0024772D01*
X0034651Y0024665D01*
X0034554Y0024561D01*
X0034453Y0024459D01*
X0034349Y0024361D01*
X0034243Y0024265D01*
X0034134Y0024173D01*
X0034023Y0024083D01*
X0033909Y0023997D01*
X0033793Y0023913D01*
X0033674Y0023833D01*
X0033554Y0023757D01*
X0033431Y0023684D01*
X0033306Y0023614D01*
X0033180Y0023548D01*
X0033051Y0023485D01*
X0032921Y0023426D01*
X0032789Y0023371D01*
X0032656Y0023319D01*
X0032521Y0023271D01*
X0032385Y0023227D01*
X0032248Y0023187D01*
X0032110Y0023150D01*
X0031971Y0023117D01*
X0031831Y0023089D01*
X0031690Y0023064D01*
X0031549Y0023043D01*
X0031407Y0023026D01*
X0031265Y0023013D01*
X0031122Y0023004D01*
X0030979Y0022999D01*
X0030836Y0022998D01*
X0030693Y0023001D01*
X0030551Y0023008D01*
X0030408Y0023019D01*
X0030266Y0023034D01*
X0030124Y0023053D01*
X0029983Y0023076D01*
X0029843Y0023103D01*
X0029703Y0023133D01*
X0029565Y0023168D01*
X0029427Y0023206D01*
X0029290Y0023248D01*
X0029155Y0023295D01*
X0029021Y0023344D01*
X0028889Y0023398D01*
X0028758Y0023455D01*
X0028628Y0023516D01*
X0028501Y0023580D01*
X0028375Y0023648D01*
X0028251Y0023720D01*
X0028130Y0023795D01*
X0028010Y0023873D01*
X0027893Y0023955D01*
X0027778Y0024039D01*
X0027665Y0024127D01*
X0027555Y0024218D01*
X0027447Y0024313D01*
X0027343Y0024410D01*
X0027240Y0024510D01*
X0027141Y0024612D01*
X0027045Y0024718D01*
X0026951Y0024826D01*
X0026861Y0024937D01*
X0026774Y0025050D01*
X0026690Y0025166D01*
X0026609Y0025284D01*
X0026532Y0025404D01*
X0026458Y0025526D01*
X0026387Y0025650D01*
X0026320Y0025777D01*
X0026256Y0025905D01*
X0026196Y0026034D01*
X0026140Y0026166D01*
X0026088Y0026299D01*
X0026039Y0026433D01*
X0025994Y0026568D01*
X0025952Y0026705D01*
X0025915Y0026843D01*
X0025881Y0026982D01*
X0025851Y0027122D01*
X0025826Y0027262D01*
X0025804Y0027404D01*
X0025786Y0027546D01*
X0025772Y0027688D01*
X0025762Y0027830D01*
X0025756Y0027973D01*
X0025754Y0028116D01*
X0022998Y0028116D02*
X0023000Y0027926D01*
X0023007Y0027736D01*
X0023019Y0027546D01*
X0023035Y0027356D01*
X0023055Y0027167D01*
X0023081Y0026978D01*
X0023110Y0026790D01*
X0023145Y0026603D01*
X0023184Y0026417D01*
X0023227Y0026232D01*
X0023275Y0026047D01*
X0023327Y0025864D01*
X0023383Y0025683D01*
X0023444Y0025503D01*
X0023510Y0025324D01*
X0023579Y0025147D01*
X0023653Y0024971D01*
X0023731Y0024798D01*
X0023814Y0024626D01*
X0023900Y0024457D01*
X0023990Y0024289D01*
X0024085Y0024124D01*
X0024183Y0023961D01*
X0024286Y0023801D01*
X0024392Y0023643D01*
X0024502Y0023488D01*
X0024615Y0023335D01*
X0024733Y0023185D01*
X0024854Y0023039D01*
X0024978Y0022895D01*
X0025106Y0022754D01*
X0025237Y0022616D01*
X0025372Y0022481D01*
X0025510Y0022350D01*
X0025651Y0022222D01*
X0025795Y0022098D01*
X0025941Y0021977D01*
X0026091Y0021859D01*
X0026244Y0021746D01*
X0026399Y0021636D01*
X0026557Y0021530D01*
X0026717Y0021427D01*
X0026880Y0021329D01*
X0027045Y0021234D01*
X0027213Y0021144D01*
X0027382Y0021058D01*
X0027554Y0020975D01*
X0027727Y0020897D01*
X0027903Y0020823D01*
X0028080Y0020754D01*
X0028259Y0020688D01*
X0028439Y0020627D01*
X0028620Y0020571D01*
X0028803Y0020519D01*
X0028988Y0020471D01*
X0029173Y0020428D01*
X0029359Y0020389D01*
X0029546Y0020354D01*
X0029734Y0020325D01*
X0029923Y0020299D01*
X0030112Y0020279D01*
X0030302Y0020263D01*
X0030492Y0020251D01*
X0030682Y0020244D01*
X0030872Y0020242D01*
X0022998Y0169848D02*
X0023000Y0170038D01*
X0023007Y0170228D01*
X0023019Y0170418D01*
X0023035Y0170608D01*
X0023055Y0170797D01*
X0023081Y0170986D01*
X0023110Y0171174D01*
X0023145Y0171361D01*
X0023184Y0171547D01*
X0023227Y0171732D01*
X0023275Y0171917D01*
X0023327Y0172100D01*
X0023383Y0172281D01*
X0023444Y0172461D01*
X0023510Y0172640D01*
X0023579Y0172817D01*
X0023653Y0172993D01*
X0023731Y0173166D01*
X0023814Y0173338D01*
X0023900Y0173507D01*
X0023990Y0173675D01*
X0024085Y0173840D01*
X0024183Y0174003D01*
X0024286Y0174163D01*
X0024392Y0174321D01*
X0024502Y0174476D01*
X0024615Y0174629D01*
X0024733Y0174779D01*
X0024854Y0174925D01*
X0024978Y0175069D01*
X0025106Y0175210D01*
X0025237Y0175348D01*
X0025372Y0175483D01*
X0025510Y0175614D01*
X0025651Y0175742D01*
X0025795Y0175866D01*
X0025941Y0175987D01*
X0026091Y0176105D01*
X0026244Y0176218D01*
X0026399Y0176328D01*
X0026557Y0176434D01*
X0026717Y0176537D01*
X0026880Y0176635D01*
X0027045Y0176730D01*
X0027213Y0176820D01*
X0027382Y0176906D01*
X0027554Y0176989D01*
X0027727Y0177067D01*
X0027903Y0177141D01*
X0028080Y0177210D01*
X0028259Y0177276D01*
X0028439Y0177337D01*
X0028620Y0177393D01*
X0028803Y0177445D01*
X0028988Y0177493D01*
X0029173Y0177536D01*
X0029359Y0177575D01*
X0029546Y0177610D01*
X0029734Y0177639D01*
X0029923Y0177665D01*
X0030112Y0177685D01*
X0030302Y0177701D01*
X0030492Y0177713D01*
X0030682Y0177720D01*
X0030872Y0177722D01*
D11*
X0061305Y0151147D03*
X0071305Y0151147D03*
X0071305Y0140321D03*
X0061305Y0140321D03*
X0065498Y0027742D03*
X0075498Y0027742D03*
X0085498Y0027742D03*
X0095498Y0027742D03*
X0105498Y0027742D03*
X0115498Y0027742D03*
X0125498Y0027742D03*
X0135498Y0027742D03*
X0145498Y0027742D03*
X0155498Y0027742D03*
X0165498Y0027742D03*
X0175498Y0027742D03*
X0185498Y0027742D03*
X0195498Y0027742D03*
X0205498Y0027742D03*
D12*
X0070832Y0073982D03*
X0060832Y0073982D03*
X0060832Y0083982D03*
X0070832Y0083982D03*
X0070832Y0093982D03*
X0060832Y0093982D03*
X0060832Y0103982D03*
X0070832Y0103982D03*
X0070832Y0113982D03*
X0060832Y0113982D03*
X0060832Y0123982D03*
X0070832Y0123982D03*
D13*
X0088943Y0118667D02*
X0123392Y0118667D01*
X0126344Y0115714D01*
X0162762Y0115714D01*
X0187368Y0115714D01*
X0145045Y0099966D02*
X0109612Y0099966D01*
X0086354Y0089430D02*
X0086354Y0077146D01*
X0075340Y0066133D01*
X0065498Y0066133D01*
X0065498Y0027742D01*
D14*
X0043623Y0030867D03*
X0054873Y0051492D03*
X0065498Y0066133D03*
X0091895Y0085203D03*
X0086354Y0089430D03*
X0086974Y0103903D03*
X0088943Y0118667D03*
X0107447Y0130163D03*
X0101428Y0140611D03*
X0079774Y0162265D03*
X0099459Y0173091D03*
X0135877Y0128800D03*
X0126344Y0115714D03*
X0109302Y0111083D03*
X0109612Y0099966D03*
X0108318Y0094351D03*
X0126034Y0096320D03*
X0139814Y0104194D03*
X0145045Y0099966D03*
X0158825Y0100951D03*
X0162762Y0115714D03*
X0174573Y0124573D03*
X0178588Y0126497D03*
X0187368Y0115714D03*
X0180478Y0099966D03*
X0190321Y0077329D03*
X0184415Y0076344D03*
X0179610Y0073955D03*
X0177452Y0068667D03*
X0176748Y0049932D03*
X0219986Y0072545D03*
X0230419Y0048185D03*
X0146029Y0084966D03*
X0144061Y0088155D03*
X0139814Y0087461D03*
X0111979Y0080055D03*
X0107604Y0080055D03*
X0112545Y0061945D03*
X0099873Y0041492D03*
X0100498Y0037117D03*
X0105498Y0038367D03*
X0100498Y0030867D03*
X0089873Y0040867D03*
X0222801Y0126541D03*
D15*
X0180478Y0099966D02*
X0159809Y0099966D01*
X0158825Y0100951D01*
D16*
X0028596Y0022114D02*
X0026067Y0023860D01*
X0026067Y0023860D01*
X0024640Y0026580D01*
X0024640Y0029652D01*
X0026067Y0032372D01*
X0026067Y0032372D01*
X0026067Y0032372D01*
X0028596Y0034117D01*
X0028596Y0034117D01*
X0031646Y0034488D01*
X0031646Y0034488D01*
X0034518Y0033398D01*
X0034518Y0033398D01*
X0036555Y0031099D01*
X0036555Y0031099D01*
X0037290Y0028116D01*
X0036555Y0025133D01*
X0034518Y0022834D01*
X0034518Y0022834D01*
X0031646Y0021744D01*
X0031646Y0021744D01*
X0028596Y0022114D01*
X0028596Y0022114D01*
X0028569Y0022037D02*
X0029230Y0022037D01*
X0029844Y0021623D02*
X0027888Y0022259D01*
X0026224Y0023468D01*
X0025015Y0025132D01*
X0024379Y0027088D01*
X0024298Y0028116D01*
X0024298Y0169848D01*
X0024379Y0170877D01*
X0025015Y0172833D01*
X0026224Y0174496D01*
X0027888Y0175705D01*
X0029844Y0176341D01*
X0030872Y0176422D01*
X0231659Y0176422D01*
X0232688Y0176341D01*
X0234644Y0175705D01*
X0236307Y0174496D01*
X0237516Y0172833D01*
X0238152Y0170877D01*
X0238233Y0169848D01*
X0238233Y0028116D01*
X0238152Y0027088D01*
X0237516Y0025132D01*
X0236307Y0023468D01*
X0234644Y0022259D01*
X0232688Y0021623D01*
X0231659Y0021542D01*
X0031411Y0021542D01*
X0030872Y0021542D01*
X0029844Y0021623D01*
X0027840Y0022636D02*
X0027369Y0022636D01*
X0026973Y0023234D02*
X0026545Y0023234D01*
X0026106Y0023833D02*
X0025958Y0023833D01*
X0026067Y0023860D02*
X0026067Y0023860D01*
X0025767Y0024432D02*
X0025523Y0024432D01*
X0025453Y0025030D02*
X0025089Y0025030D01*
X0025139Y0025629D02*
X0024853Y0025629D01*
X0024825Y0026227D02*
X0024659Y0026227D01*
X0024640Y0026826D02*
X0024464Y0026826D01*
X0024353Y0027424D02*
X0024640Y0027424D01*
X0024640Y0028023D02*
X0024306Y0028023D01*
X0024298Y0028621D02*
X0024640Y0028621D01*
X0024640Y0029220D02*
X0024298Y0029220D01*
X0024298Y0029818D02*
X0024727Y0029818D01*
X0025041Y0030417D02*
X0024298Y0030417D01*
X0024298Y0031015D02*
X0025355Y0031015D01*
X0025669Y0031614D02*
X0024298Y0031614D01*
X0024298Y0032212D02*
X0025983Y0032212D01*
X0026703Y0032811D02*
X0024298Y0032811D01*
X0024298Y0033409D02*
X0027570Y0033409D01*
X0028437Y0034008D02*
X0024298Y0034008D01*
X0024298Y0034606D02*
X0063798Y0034606D01*
X0063798Y0034008D02*
X0032911Y0034008D01*
X0034489Y0033409D02*
X0063798Y0033409D01*
X0063798Y0032811D02*
X0035039Y0032811D01*
X0035569Y0032212D02*
X0063798Y0032212D01*
X0063798Y0031614D02*
X0036099Y0031614D01*
X0036576Y0031015D02*
X0062831Y0031015D01*
X0063119Y0031303D02*
X0061937Y0030121D01*
X0061298Y0028577D01*
X0061298Y0026906D01*
X0061937Y0025363D01*
X0063119Y0024181D01*
X0064662Y0023542D01*
X0066333Y0023542D01*
X0067877Y0024181D01*
X0069058Y0025363D01*
X0069698Y0026906D01*
X0069698Y0028577D01*
X0069058Y0030121D01*
X0067877Y0031303D01*
X0067198Y0031584D01*
X0067198Y0064433D01*
X0076045Y0064433D01*
X0077040Y0065429D01*
X0087058Y0075446D01*
X0087058Y0075446D01*
X0088054Y0076442D01*
X0088054Y0088034D01*
X0088527Y0088507D01*
X0088527Y0085607D01*
X0089511Y0084623D01*
X0089706Y0084427D01*
X0089706Y0084296D01*
X0090989Y0083014D01*
X0092802Y0083014D01*
X0094084Y0084296D01*
X0094084Y0086109D01*
X0092802Y0087392D01*
X0091327Y0087392D01*
X0091327Y0101530D01*
X0090507Y0102351D01*
X0089163Y0103694D01*
X0089163Y0104810D01*
X0087881Y0106092D01*
X0086068Y0106092D01*
X0084785Y0104810D01*
X0084785Y0102997D01*
X0086068Y0101714D01*
X0087183Y0101714D01*
X0088527Y0100371D01*
X0088527Y0090353D01*
X0087261Y0091619D01*
X0085447Y0091619D01*
X0084165Y0090337D01*
X0084165Y0088523D01*
X0084654Y0088034D01*
X0084654Y0077851D01*
X0074636Y0067833D01*
X0066894Y0067833D01*
X0066405Y0068322D01*
X0064591Y0068322D01*
X0063309Y0067039D01*
X0063309Y0065226D01*
X0063798Y0064737D01*
X0063798Y0031584D01*
X0063119Y0031303D01*
X0062233Y0030417D02*
X0036723Y0030417D01*
X0036871Y0029818D02*
X0061812Y0029818D01*
X0061564Y0029220D02*
X0037018Y0029220D01*
X0037166Y0028621D02*
X0061316Y0028621D01*
X0061298Y0028023D02*
X0037267Y0028023D01*
X0037120Y0027424D02*
X0061298Y0027424D01*
X0061331Y0026826D02*
X0036972Y0026826D01*
X0036825Y0026227D02*
X0061579Y0026227D01*
X0061827Y0025629D02*
X0036677Y0025629D01*
X0036555Y0025133D02*
X0036555Y0025133D01*
X0036464Y0025030D02*
X0062270Y0025030D01*
X0062869Y0024432D02*
X0035934Y0024432D01*
X0035403Y0023833D02*
X0063960Y0023833D01*
X0067036Y0023833D02*
X0073960Y0023833D01*
X0074662Y0023542D02*
X0076333Y0023542D01*
X0077877Y0024181D01*
X0079058Y0025363D01*
X0079698Y0026906D01*
X0079698Y0028577D01*
X0079058Y0030121D01*
X0077877Y0031303D01*
X0076333Y0031942D01*
X0074662Y0031942D01*
X0073119Y0031303D01*
X0071937Y0030121D01*
X0071298Y0028577D01*
X0071298Y0026906D01*
X0071937Y0025363D01*
X0073119Y0024181D01*
X0074662Y0023542D01*
X0072869Y0024432D02*
X0068127Y0024432D01*
X0068726Y0025030D02*
X0072270Y0025030D01*
X0071827Y0025629D02*
X0069168Y0025629D01*
X0069416Y0026227D02*
X0071579Y0026227D01*
X0071331Y0026826D02*
X0069664Y0026826D01*
X0069698Y0027424D02*
X0071298Y0027424D01*
X0071298Y0028023D02*
X0069698Y0028023D01*
X0069680Y0028621D02*
X0071316Y0028621D01*
X0071564Y0029220D02*
X0069432Y0029220D01*
X0069184Y0029818D02*
X0071812Y0029818D01*
X0072233Y0030417D02*
X0068763Y0030417D01*
X0068164Y0031015D02*
X0072831Y0031015D01*
X0073870Y0031614D02*
X0067198Y0031614D01*
X0067198Y0032212D02*
X0084370Y0032212D01*
X0084421Y0032229D02*
X0083732Y0032005D01*
X0083087Y0031676D01*
X0082501Y0031251D01*
X0081989Y0030739D01*
X0081564Y0030153D01*
X0081235Y0029508D01*
X0081011Y0028819D01*
X0080898Y0028104D01*
X0080898Y0028042D01*
X0085198Y0028042D01*
X0085198Y0032342D01*
X0085136Y0032342D01*
X0084421Y0032229D01*
X0085198Y0032212D02*
X0085798Y0032212D01*
X0085798Y0032342D02*
X0085798Y0028042D01*
X0090098Y0028042D01*
X0090098Y0028104D01*
X0089985Y0028819D01*
X0089761Y0029508D01*
X0089432Y0030153D01*
X0089007Y0030739D01*
X0088495Y0031251D01*
X0087909Y0031676D01*
X0087264Y0032005D01*
X0086575Y0032229D01*
X0085860Y0032342D01*
X0085798Y0032342D01*
X0085798Y0031614D02*
X0085198Y0031614D01*
X0085198Y0031015D02*
X0085798Y0031015D01*
X0085798Y0030417D02*
X0085198Y0030417D01*
X0085198Y0029818D02*
X0085798Y0029818D01*
X0085798Y0029220D02*
X0085198Y0029220D01*
X0085198Y0028621D02*
X0085798Y0028621D01*
X0085798Y0028042D02*
X0085198Y0028042D01*
X0085198Y0027442D01*
X0085798Y0027442D01*
X0085798Y0028042D01*
X0085798Y0028023D02*
X0091298Y0028023D01*
X0091298Y0028577D02*
X0091298Y0026906D01*
X0091937Y0025363D01*
X0093119Y0024181D01*
X0094662Y0023542D01*
X0096333Y0023542D01*
X0097877Y0024181D01*
X0099058Y0025363D01*
X0099698Y0026906D01*
X0099698Y0028577D01*
X0099058Y0030121D01*
X0097877Y0031303D01*
X0096798Y0031749D01*
X0096798Y0036578D01*
X0099522Y0039303D01*
X0100780Y0039303D01*
X0102062Y0040585D01*
X0102062Y0041701D01*
X0104098Y0043737D01*
X0104098Y0040063D01*
X0103309Y0039274D01*
X0103309Y0037460D01*
X0104198Y0036571D01*
X0104198Y0031749D01*
X0103119Y0031303D01*
X0101937Y0030121D01*
X0101298Y0028577D01*
X0101298Y0026906D01*
X0101937Y0025363D01*
X0103119Y0024181D01*
X0104662Y0023542D01*
X0106333Y0023542D01*
X0107877Y0024181D01*
X0109058Y0025363D01*
X0109698Y0026906D01*
X0109698Y0028577D01*
X0109058Y0030121D01*
X0107877Y0031303D01*
X0106798Y0031749D01*
X0106798Y0036571D01*
X0107687Y0037460D01*
X0107687Y0039274D01*
X0106898Y0040063D01*
X0106898Y0073684D01*
X0111080Y0077866D01*
X0112886Y0077866D01*
X0114168Y0079148D01*
X0114168Y0080962D01*
X0112886Y0082244D01*
X0111072Y0082244D01*
X0109792Y0080963D01*
X0108511Y0082244D01*
X0106697Y0082244D01*
X0105415Y0080962D01*
X0105415Y0079846D01*
X0103230Y0077661D01*
X0102410Y0076841D01*
X0102410Y0046009D01*
X0100082Y0043681D01*
X0098966Y0043681D01*
X0097684Y0042399D01*
X0097684Y0041141D01*
X0094959Y0038417D01*
X0094198Y0037655D01*
X0094198Y0031749D01*
X0093119Y0031303D01*
X0091937Y0030121D01*
X0091298Y0028577D01*
X0091316Y0028621D02*
X0090016Y0028621D01*
X0089854Y0029220D02*
X0091564Y0029220D01*
X0091812Y0029818D02*
X0089603Y0029818D01*
X0089240Y0030417D02*
X0092233Y0030417D01*
X0092831Y0031015D02*
X0088730Y0031015D01*
X0087995Y0031614D02*
X0093870Y0031614D01*
X0094198Y0032212D02*
X0086626Y0032212D01*
X0083001Y0031614D02*
X0077126Y0031614D01*
X0078164Y0031015D02*
X0082266Y0031015D01*
X0081755Y0030417D02*
X0078763Y0030417D01*
X0079184Y0029818D02*
X0081393Y0029818D01*
X0081141Y0029220D02*
X0079432Y0029220D01*
X0079680Y0028621D02*
X0080980Y0028621D01*
X0080898Y0027442D02*
X0080898Y0027380D01*
X0081011Y0026665D01*
X0081235Y0025976D01*
X0081564Y0025331D01*
X0081989Y0024745D01*
X0082501Y0024233D01*
X0083087Y0023808D01*
X0083732Y0023479D01*
X0084421Y0023255D01*
X0085136Y0023142D01*
X0085198Y0023142D01*
X0085198Y0027442D01*
X0080898Y0027442D01*
X0080898Y0027424D02*
X0079698Y0027424D01*
X0079698Y0028023D02*
X0085198Y0028023D01*
X0085198Y0027424D02*
X0085798Y0027424D01*
X0085798Y0027442D02*
X0085798Y0023142D01*
X0085860Y0023142D01*
X0086575Y0023255D01*
X0087264Y0023479D01*
X0087909Y0023808D01*
X0088495Y0024233D01*
X0089007Y0024745D01*
X0089432Y0025331D01*
X0089761Y0025976D01*
X0089985Y0026665D01*
X0090098Y0027380D01*
X0090098Y0027442D01*
X0085798Y0027442D01*
X0085798Y0026826D02*
X0085198Y0026826D01*
X0085198Y0026227D02*
X0085798Y0026227D01*
X0085798Y0025629D02*
X0085198Y0025629D01*
X0085198Y0025030D02*
X0085798Y0025030D01*
X0085798Y0024432D02*
X0085198Y0024432D01*
X0085198Y0023833D02*
X0085798Y0023833D01*
X0085798Y0023234D02*
X0085198Y0023234D01*
X0084551Y0023234D02*
X0034873Y0023234D01*
X0033997Y0022636D02*
X0228628Y0022636D01*
X0229383Y0022114D02*
X0229383Y0022114D01*
X0232433Y0021744D01*
X0235305Y0022834D01*
X0237343Y0025133D01*
X0238078Y0028116D01*
X0237343Y0031099D01*
X0235305Y0033398D01*
X0232433Y0034488D01*
X0232433Y0034488D01*
X0229383Y0034117D01*
X0226855Y0032372D01*
X0225427Y0029652D01*
X0225427Y0026580D01*
X0226855Y0023860D01*
X0226855Y0023860D01*
X0229383Y0022114D01*
X0230017Y0022037D02*
X0032419Y0022037D01*
X0024298Y0035205D02*
X0063798Y0035205D01*
X0063798Y0035803D02*
X0024298Y0035803D01*
X0024298Y0036402D02*
X0063798Y0036402D01*
X0063798Y0037000D02*
X0024298Y0037000D01*
X0024298Y0037599D02*
X0063798Y0037599D01*
X0063798Y0038197D02*
X0024298Y0038197D01*
X0024298Y0038796D02*
X0063798Y0038796D01*
X0063798Y0039394D02*
X0024298Y0039394D01*
X0024298Y0039993D02*
X0063798Y0039993D01*
X0063798Y0040591D02*
X0024298Y0040591D01*
X0024298Y0041190D02*
X0063798Y0041190D01*
X0063798Y0041788D02*
X0024298Y0041788D01*
X0024298Y0042387D02*
X0063798Y0042387D01*
X0063798Y0042985D02*
X0024298Y0042985D01*
X0024298Y0043584D02*
X0063798Y0043584D01*
X0063798Y0044182D02*
X0024298Y0044182D01*
X0024298Y0044781D02*
X0063798Y0044781D01*
X0063798Y0045379D02*
X0024298Y0045379D01*
X0024298Y0045978D02*
X0063798Y0045978D01*
X0063798Y0046576D02*
X0024298Y0046576D01*
X0024298Y0047175D02*
X0063798Y0047175D01*
X0063798Y0047773D02*
X0024298Y0047773D01*
X0024298Y0048372D02*
X0063798Y0048372D01*
X0063798Y0048970D02*
X0024298Y0048970D01*
X0024298Y0049569D02*
X0063798Y0049569D01*
X0063798Y0050167D02*
X0024298Y0050167D01*
X0024298Y0050766D02*
X0063798Y0050766D01*
X0063798Y0051365D02*
X0024298Y0051365D01*
X0024298Y0051963D02*
X0063798Y0051963D01*
X0063798Y0052562D02*
X0024298Y0052562D01*
X0024298Y0053160D02*
X0063798Y0053160D01*
X0063798Y0053759D02*
X0024298Y0053759D01*
X0024298Y0054357D02*
X0063798Y0054357D01*
X0063798Y0054956D02*
X0024298Y0054956D01*
X0024298Y0055554D02*
X0063798Y0055554D01*
X0063798Y0056153D02*
X0024298Y0056153D01*
X0024298Y0056751D02*
X0063798Y0056751D01*
X0063798Y0057350D02*
X0024298Y0057350D01*
X0024298Y0057948D02*
X0063798Y0057948D01*
X0063798Y0058547D02*
X0024298Y0058547D01*
X0024298Y0059145D02*
X0063798Y0059145D01*
X0063798Y0059744D02*
X0024298Y0059744D01*
X0024298Y0060342D02*
X0063798Y0060342D01*
X0063798Y0060941D02*
X0024298Y0060941D01*
X0024298Y0061539D02*
X0063798Y0061539D01*
X0063798Y0062138D02*
X0024298Y0062138D01*
X0024298Y0062736D02*
X0063798Y0062736D01*
X0063798Y0063335D02*
X0024298Y0063335D01*
X0024298Y0063933D02*
X0063798Y0063933D01*
X0063798Y0064532D02*
X0024298Y0064532D01*
X0024298Y0065130D02*
X0063405Y0065130D01*
X0063309Y0065729D02*
X0024298Y0065729D01*
X0024298Y0066327D02*
X0063309Y0066327D01*
X0063309Y0066926D02*
X0024298Y0066926D01*
X0024298Y0067524D02*
X0063794Y0067524D01*
X0064392Y0068123D02*
X0024298Y0068123D01*
X0024298Y0068721D02*
X0075525Y0068721D01*
X0074926Y0068123D02*
X0066603Y0068123D01*
X0068617Y0070666D02*
X0070054Y0070070D01*
X0071611Y0070070D01*
X0073048Y0070666D01*
X0074149Y0071766D01*
X0074744Y0073204D01*
X0074744Y0074760D01*
X0074149Y0076198D01*
X0073048Y0077298D01*
X0071611Y0077894D01*
X0070054Y0077894D01*
X0068617Y0077298D01*
X0067516Y0076198D01*
X0066921Y0074760D01*
X0066921Y0073204D01*
X0067516Y0071766D01*
X0068617Y0070666D01*
X0068976Y0070517D02*
X0062689Y0070517D01*
X0063048Y0070666D02*
X0064149Y0071766D01*
X0064744Y0073204D01*
X0064744Y0074760D01*
X0064149Y0076198D01*
X0063048Y0077298D01*
X0061611Y0077894D01*
X0060054Y0077894D01*
X0058617Y0077298D01*
X0057516Y0076198D01*
X0056921Y0074760D01*
X0056921Y0073204D01*
X0057516Y0071766D01*
X0058617Y0070666D01*
X0060054Y0070070D01*
X0061611Y0070070D01*
X0063048Y0070666D01*
X0063498Y0071115D02*
X0068167Y0071115D01*
X0067569Y0071714D02*
X0064096Y0071714D01*
X0064375Y0072312D02*
X0067290Y0072312D01*
X0067042Y0072911D02*
X0064623Y0072911D01*
X0064744Y0073509D02*
X0066921Y0073509D01*
X0066921Y0074108D02*
X0064744Y0074108D01*
X0064744Y0074706D02*
X0066921Y0074706D01*
X0067146Y0075305D02*
X0064519Y0075305D01*
X0064271Y0075903D02*
X0067394Y0075903D01*
X0067820Y0076502D02*
X0063845Y0076502D01*
X0063246Y0077101D02*
X0068419Y0077101D01*
X0069584Y0077699D02*
X0062081Y0077699D01*
X0061611Y0080070D02*
X0063048Y0080666D01*
X0064149Y0081766D01*
X0064744Y0083204D01*
X0064744Y0084760D01*
X0064149Y0086198D01*
X0063048Y0087298D01*
X0061611Y0087894D01*
X0060054Y0087894D01*
X0058617Y0087298D01*
X0057516Y0086198D01*
X0056921Y0084760D01*
X0056921Y0083204D01*
X0057516Y0081766D01*
X0058617Y0080666D01*
X0060054Y0080070D01*
X0061611Y0080070D01*
X0061666Y0080093D02*
X0069999Y0080093D01*
X0070054Y0080070D02*
X0071611Y0080070D01*
X0073048Y0080666D01*
X0074149Y0081766D01*
X0074744Y0083204D01*
X0074744Y0084760D01*
X0074149Y0086198D01*
X0073048Y0087298D01*
X0071611Y0087894D01*
X0070054Y0087894D01*
X0068617Y0087298D01*
X0067516Y0086198D01*
X0066921Y0084760D01*
X0066921Y0083204D01*
X0067516Y0081766D01*
X0068617Y0080666D01*
X0070054Y0080070D01*
X0068591Y0080692D02*
X0063074Y0080692D01*
X0063673Y0081290D02*
X0067992Y0081290D01*
X0067466Y0081889D02*
X0064199Y0081889D01*
X0064447Y0082487D02*
X0067218Y0082487D01*
X0066970Y0083086D02*
X0064695Y0083086D01*
X0064744Y0083684D02*
X0066921Y0083684D01*
X0066921Y0084283D02*
X0064744Y0084283D01*
X0064694Y0084881D02*
X0066971Y0084881D01*
X0067219Y0085480D02*
X0064446Y0085480D01*
X0064198Y0086078D02*
X0067467Y0086078D01*
X0067995Y0086677D02*
X0063670Y0086677D01*
X0063071Y0087275D02*
X0068593Y0087275D01*
X0070006Y0087874D02*
X0061659Y0087874D01*
X0060006Y0087874D02*
X0024298Y0087874D01*
X0024298Y0088472D02*
X0084216Y0088472D01*
X0084165Y0089071D02*
X0024298Y0089071D01*
X0024298Y0089669D02*
X0084165Y0089669D01*
X0084165Y0090268D02*
X0072087Y0090268D01*
X0071611Y0090070D02*
X0073048Y0090666D01*
X0074149Y0091766D01*
X0074744Y0093204D01*
X0074744Y0094760D01*
X0074149Y0096198D01*
X0073048Y0097298D01*
X0071611Y0097894D01*
X0070054Y0097894D01*
X0068617Y0097298D01*
X0067516Y0096198D01*
X0066921Y0094760D01*
X0066921Y0093204D01*
X0067516Y0091766D01*
X0068617Y0090666D01*
X0070054Y0090070D01*
X0071611Y0090070D01*
X0073249Y0090866D02*
X0084695Y0090866D01*
X0085293Y0091465D02*
X0073847Y0091465D01*
X0074272Y0092063D02*
X0088527Y0092063D01*
X0088527Y0091465D02*
X0087415Y0091465D01*
X0088013Y0090866D02*
X0088527Y0090866D01*
X0088527Y0092662D02*
X0074520Y0092662D01*
X0074744Y0093260D02*
X0088527Y0093260D01*
X0088527Y0093859D02*
X0074744Y0093859D01*
X0074744Y0094457D02*
X0088527Y0094457D01*
X0088527Y0095056D02*
X0074622Y0095056D01*
X0074374Y0095654D02*
X0088527Y0095654D01*
X0088527Y0096253D02*
X0074094Y0096253D01*
X0073495Y0096851D02*
X0088527Y0096851D01*
X0088527Y0097450D02*
X0072682Y0097450D01*
X0071611Y0100070D02*
X0070054Y0100070D01*
X0068617Y0100666D01*
X0067516Y0101766D01*
X0066921Y0103204D01*
X0066921Y0104760D01*
X0067516Y0106198D01*
X0068617Y0107298D01*
X0070054Y0107894D01*
X0071611Y0107894D01*
X0073048Y0107298D01*
X0074149Y0106198D01*
X0074744Y0104760D01*
X0074744Y0103204D01*
X0074149Y0101766D01*
X0073048Y0100666D01*
X0071611Y0100070D01*
X0072509Y0100442D02*
X0088455Y0100442D01*
X0088527Y0099844D02*
X0024298Y0099844D01*
X0024298Y0100442D02*
X0059156Y0100442D01*
X0058617Y0100666D02*
X0060054Y0100070D01*
X0061611Y0100070D01*
X0063048Y0100666D01*
X0064149Y0101766D01*
X0064744Y0103204D01*
X0064744Y0104760D01*
X0064149Y0106198D01*
X0063048Y0107298D01*
X0061611Y0107894D01*
X0060054Y0107894D01*
X0058617Y0107298D01*
X0057516Y0106198D01*
X0056921Y0104760D01*
X0056921Y0103204D01*
X0057516Y0101766D01*
X0058617Y0100666D01*
X0058241Y0101041D02*
X0024298Y0101041D01*
X0024298Y0101639D02*
X0057643Y0101639D01*
X0057321Y0102238D02*
X0024298Y0102238D01*
X0024298Y0102836D02*
X0057073Y0102836D01*
X0056921Y0103435D02*
X0024298Y0103435D01*
X0024298Y0104034D02*
X0056921Y0104034D01*
X0056921Y0104632D02*
X0024298Y0104632D01*
X0024298Y0105231D02*
X0057116Y0105231D01*
X0057363Y0105829D02*
X0024298Y0105829D01*
X0024298Y0106428D02*
X0057746Y0106428D01*
X0058344Y0107026D02*
X0024298Y0107026D01*
X0024298Y0107625D02*
X0059404Y0107625D01*
X0059823Y0109776D02*
X0059177Y0109986D01*
X0058573Y0110294D01*
X0058024Y0110693D01*
X0057544Y0111173D01*
X0057145Y0111722D01*
X0056837Y0112327D01*
X0056627Y0112972D01*
X0056521Y0113643D01*
X0056521Y0113682D01*
X0060532Y0113682D01*
X0060532Y0114282D01*
X0056521Y0114282D01*
X0056521Y0114321D01*
X0056627Y0114992D01*
X0056837Y0115637D01*
X0057145Y0116242D01*
X0057544Y0116791D01*
X0058024Y0117271D01*
X0058573Y0117670D01*
X0059177Y0117978D01*
X0059823Y0118188D01*
X0060493Y0118294D01*
X0060532Y0118294D01*
X0060532Y0114282D01*
X0061132Y0114282D01*
X0061132Y0118294D01*
X0061172Y0118294D01*
X0061842Y0118188D01*
X0062488Y0117978D01*
X0063092Y0117670D01*
X0063641Y0117271D01*
X0064121Y0116791D01*
X0064520Y0116242D01*
X0064828Y0115637D01*
X0065038Y0114992D01*
X0065144Y0114321D01*
X0065144Y0114282D01*
X0061133Y0114282D01*
X0061133Y0113682D01*
X0065144Y0113682D01*
X0065144Y0113643D01*
X0065038Y0112972D01*
X0064828Y0112327D01*
X0064520Y0111722D01*
X0064121Y0111173D01*
X0063641Y0110693D01*
X0063092Y0110294D01*
X0062488Y0109986D01*
X0061842Y0109776D01*
X0061172Y0109670D01*
X0061132Y0109670D01*
X0061132Y0113682D01*
X0060532Y0113682D01*
X0060532Y0109670D01*
X0060493Y0109670D01*
X0059823Y0109776D01*
X0059114Y0110019D02*
X0024298Y0110019D01*
X0024298Y0110617D02*
X0058128Y0110617D01*
X0057513Y0111216D02*
X0024298Y0111216D01*
X0024298Y0111814D02*
X0057098Y0111814D01*
X0056809Y0112413D02*
X0024298Y0112413D01*
X0024298Y0113011D02*
X0056621Y0113011D01*
X0056526Y0113610D02*
X0024298Y0113610D01*
X0024298Y0114208D02*
X0060532Y0114208D01*
X0060532Y0113610D02*
X0061132Y0113610D01*
X0061133Y0114208D02*
X0070532Y0114208D01*
X0070532Y0114282D02*
X0070532Y0113682D01*
X0066521Y0113682D01*
X0066521Y0113643D01*
X0066627Y0112972D01*
X0066837Y0112327D01*
X0067145Y0111722D01*
X0067544Y0111173D01*
X0068024Y0110693D01*
X0068573Y0110294D01*
X0069177Y0109986D01*
X0069823Y0109776D01*
X0070493Y0109670D01*
X0070532Y0109670D01*
X0070532Y0113682D01*
X0071132Y0113682D01*
X0071132Y0109670D01*
X0071172Y0109670D01*
X0071842Y0109776D01*
X0072488Y0109986D01*
X0073092Y0110294D01*
X0073641Y0110693D01*
X0074121Y0111173D01*
X0074520Y0111722D01*
X0074828Y0112327D01*
X0075038Y0112972D01*
X0075144Y0113643D01*
X0075144Y0113682D01*
X0071133Y0113682D01*
X0071133Y0114282D01*
X0075144Y0114282D01*
X0075144Y0114321D01*
X0075038Y0114992D01*
X0074828Y0115637D01*
X0074520Y0116242D01*
X0074121Y0116791D01*
X0073641Y0117271D01*
X0073092Y0117670D01*
X0072488Y0117978D01*
X0071842Y0118188D01*
X0071172Y0118294D01*
X0071132Y0118294D01*
X0071132Y0114282D01*
X0070532Y0114282D01*
X0066521Y0114282D01*
X0066521Y0114321D01*
X0066627Y0114992D01*
X0066837Y0115637D01*
X0067145Y0116242D01*
X0067544Y0116791D01*
X0068024Y0117271D01*
X0068573Y0117670D01*
X0069177Y0117978D01*
X0069823Y0118188D01*
X0070493Y0118294D01*
X0070532Y0118294D01*
X0070532Y0114282D01*
X0070532Y0114807D02*
X0071132Y0114807D01*
X0071132Y0115405D02*
X0070532Y0115405D01*
X0070532Y0116004D02*
X0071132Y0116004D01*
X0071132Y0116602D02*
X0070532Y0116602D01*
X0070532Y0117201D02*
X0071132Y0117201D01*
X0071132Y0117799D02*
X0070532Y0117799D01*
X0068827Y0117799D02*
X0062838Y0117799D01*
X0063712Y0117201D02*
X0067953Y0117201D01*
X0067406Y0116602D02*
X0064259Y0116602D01*
X0064642Y0116004D02*
X0067023Y0116004D01*
X0066761Y0115405D02*
X0064904Y0115405D01*
X0065067Y0114807D02*
X0066598Y0114807D01*
X0066526Y0113610D02*
X0065139Y0113610D01*
X0065044Y0113011D02*
X0066621Y0113011D01*
X0066809Y0112413D02*
X0064856Y0112413D01*
X0064567Y0111814D02*
X0067098Y0111814D01*
X0067513Y0111216D02*
X0064152Y0111216D01*
X0063537Y0110617D02*
X0068128Y0110617D01*
X0069114Y0110019D02*
X0062551Y0110019D01*
X0061132Y0110019D02*
X0060532Y0110019D01*
X0060532Y0110617D02*
X0061132Y0110617D01*
X0061132Y0111216D02*
X0060532Y0111216D01*
X0060532Y0111814D02*
X0061132Y0111814D01*
X0061132Y0112413D02*
X0060532Y0112413D01*
X0060532Y0113011D02*
X0061132Y0113011D01*
X0061132Y0114807D02*
X0060532Y0114807D01*
X0060532Y0115405D02*
X0061132Y0115405D01*
X0061132Y0116004D02*
X0060532Y0116004D01*
X0060532Y0116602D02*
X0061132Y0116602D01*
X0061132Y0117201D02*
X0060532Y0117201D01*
X0060532Y0117799D02*
X0061132Y0117799D01*
X0058827Y0117799D02*
X0024298Y0117799D01*
X0024298Y0117201D02*
X0057953Y0117201D01*
X0057406Y0116602D02*
X0024298Y0116602D01*
X0024298Y0116004D02*
X0057023Y0116004D01*
X0056761Y0115405D02*
X0024298Y0115405D01*
X0024298Y0114807D02*
X0056598Y0114807D01*
X0058617Y0120666D02*
X0060054Y0120070D01*
X0061611Y0120070D01*
X0063048Y0120666D01*
X0064149Y0121766D01*
X0064744Y0123204D01*
X0064744Y0124760D01*
X0064149Y0126198D01*
X0063048Y0127298D01*
X0061611Y0127894D01*
X0060054Y0127894D01*
X0058617Y0127298D01*
X0057516Y0126198D01*
X0056921Y0124760D01*
X0056921Y0123204D01*
X0057516Y0121766D01*
X0058617Y0120666D01*
X0058491Y0120792D02*
X0024298Y0120792D01*
X0024298Y0121390D02*
X0057892Y0121390D01*
X0057424Y0121989D02*
X0024298Y0121989D01*
X0024298Y0122587D02*
X0057176Y0122587D01*
X0056928Y0123186D02*
X0024298Y0123186D01*
X0024298Y0123784D02*
X0056921Y0123784D01*
X0056921Y0124383D02*
X0024298Y0124383D01*
X0024298Y0124981D02*
X0057012Y0124981D01*
X0057260Y0125580D02*
X0024298Y0125580D01*
X0024298Y0126178D02*
X0057508Y0126178D01*
X0058095Y0126777D02*
X0024298Y0126777D01*
X0024298Y0127375D02*
X0058803Y0127375D01*
X0062862Y0127375D02*
X0068803Y0127375D01*
X0068617Y0127298D02*
X0067516Y0126198D01*
X0066921Y0124760D01*
X0066921Y0123204D01*
X0067516Y0121766D01*
X0068617Y0120666D01*
X0070054Y0120070D01*
X0071611Y0120070D01*
X0073048Y0120666D01*
X0074149Y0121766D01*
X0074744Y0123204D01*
X0074744Y0124760D01*
X0074149Y0126198D01*
X0073048Y0127298D01*
X0071611Y0127894D01*
X0070054Y0127894D01*
X0068617Y0127298D01*
X0068095Y0126777D02*
X0063570Y0126777D01*
X0064157Y0126178D02*
X0067508Y0126178D01*
X0067260Y0125580D02*
X0064405Y0125580D01*
X0064653Y0124981D02*
X0067012Y0124981D01*
X0066921Y0124383D02*
X0064744Y0124383D01*
X0064744Y0123784D02*
X0066921Y0123784D01*
X0066928Y0123186D02*
X0064737Y0123186D01*
X0064489Y0122587D02*
X0067176Y0122587D01*
X0067424Y0121989D02*
X0064241Y0121989D01*
X0063773Y0121390D02*
X0067892Y0121390D01*
X0068491Y0120792D02*
X0063174Y0120792D01*
X0061908Y0120193D02*
X0069757Y0120193D01*
X0071908Y0120193D02*
X0087373Y0120193D01*
X0086775Y0119595D02*
X0024298Y0119595D01*
X0024298Y0120193D02*
X0059757Y0120193D01*
X0070532Y0113610D02*
X0071132Y0113610D01*
X0071133Y0114208D02*
X0124755Y0114208D01*
X0125353Y0113610D02*
X0075139Y0113610D01*
X0075044Y0113011D02*
X0189027Y0113011D01*
X0189027Y0112413D02*
X0074856Y0112413D01*
X0074567Y0111814D02*
X0189027Y0111814D01*
X0189027Y0111216D02*
X0074152Y0111216D01*
X0073537Y0110617D02*
X0189027Y0110617D01*
X0189027Y0110019D02*
X0072551Y0110019D01*
X0071132Y0110019D02*
X0070532Y0110019D01*
X0070532Y0110617D02*
X0071132Y0110617D01*
X0071132Y0111216D02*
X0070532Y0111216D01*
X0070532Y0111814D02*
X0071132Y0111814D01*
X0071132Y0112413D02*
X0070532Y0112413D01*
X0070532Y0113011D02*
X0071132Y0113011D01*
X0075067Y0114807D02*
X0124156Y0114807D01*
X0124155Y0114808D02*
X0125438Y0113525D01*
X0127251Y0113525D01*
X0127740Y0114014D01*
X0161366Y0114014D01*
X0161855Y0113525D01*
X0163668Y0113525D01*
X0164157Y0114014D01*
X0185972Y0114014D01*
X0186461Y0113525D01*
X0188275Y0113525D01*
X0189027Y0114278D01*
X0189027Y0079131D01*
X0188132Y0078235D01*
X0188132Y0076422D01*
X0189414Y0075140D01*
X0191227Y0075140D01*
X0192510Y0076422D01*
X0192510Y0078235D01*
X0191614Y0079131D01*
X0191614Y0120187D01*
X0190857Y0120945D01*
X0190857Y0120945D01*
X0188662Y0123140D01*
X0187904Y0123898D01*
X0177077Y0123898D01*
X0176762Y0124213D01*
X0176762Y0125479D01*
X0175479Y0126762D01*
X0173666Y0126762D01*
X0172384Y0125479D01*
X0172384Y0123666D01*
X0173666Y0122384D01*
X0174932Y0122384D01*
X0176005Y0121310D01*
X0186832Y0121310D01*
X0189027Y0119116D01*
X0189027Y0117151D01*
X0188275Y0117903D01*
X0186461Y0117903D01*
X0185972Y0117414D01*
X0164157Y0117414D01*
X0163668Y0117903D01*
X0161855Y0117903D01*
X0161366Y0117414D01*
X0127740Y0117414D01*
X0127251Y0117903D01*
X0126559Y0117903D01*
X0125092Y0119371D01*
X0124096Y0120367D01*
X0090338Y0120367D01*
X0089849Y0120856D01*
X0088036Y0120856D01*
X0086754Y0119574D01*
X0086754Y0117760D01*
X0088036Y0116478D01*
X0089849Y0116478D01*
X0090338Y0116967D01*
X0122687Y0116967D01*
X0124155Y0115499D01*
X0124155Y0114808D01*
X0124155Y0115405D02*
X0074904Y0115405D01*
X0074642Y0116004D02*
X0123651Y0116004D01*
X0123052Y0116602D02*
X0089974Y0116602D01*
X0087912Y0116602D02*
X0074259Y0116602D01*
X0073712Y0117201D02*
X0087313Y0117201D01*
X0086754Y0117799D02*
X0072838Y0117799D01*
X0073174Y0120792D02*
X0087972Y0120792D01*
X0089914Y0120792D02*
X0187351Y0120792D01*
X0187949Y0120193D02*
X0124269Y0120193D01*
X0124868Y0119595D02*
X0188548Y0119595D01*
X0189027Y0118996D02*
X0125467Y0118996D01*
X0126065Y0118398D02*
X0189027Y0118398D01*
X0189027Y0117799D02*
X0188379Y0117799D01*
X0188977Y0117201D02*
X0189027Y0117201D01*
X0191614Y0117201D02*
X0218692Y0117201D01*
X0218692Y0117799D02*
X0191614Y0117799D01*
X0191614Y0118398D02*
X0218692Y0118398D01*
X0218692Y0118996D02*
X0191614Y0118996D01*
X0191614Y0119595D02*
X0218692Y0119595D01*
X0218692Y0120193D02*
X0191608Y0120193D01*
X0191010Y0120792D02*
X0218692Y0120792D01*
X0218692Y0121390D02*
X0190411Y0121390D01*
X0189813Y0121989D02*
X0218692Y0121989D01*
X0218692Y0122587D02*
X0189214Y0122587D01*
X0188662Y0123140D02*
X0188662Y0123140D01*
X0188616Y0123186D02*
X0218692Y0123186D01*
X0218692Y0123784D02*
X0188017Y0123784D01*
X0186357Y0117799D02*
X0163772Y0117799D01*
X0161751Y0117799D02*
X0127355Y0117799D01*
X0127335Y0113610D02*
X0161771Y0113610D01*
X0163753Y0113610D02*
X0186377Y0113610D01*
X0188359Y0113610D02*
X0189027Y0113610D01*
X0189027Y0114208D02*
X0188957Y0114208D01*
X0191614Y0114208D02*
X0218692Y0114208D01*
X0218692Y0113610D02*
X0191614Y0113610D01*
X0191614Y0113011D02*
X0218692Y0113011D01*
X0218692Y0112413D02*
X0191614Y0112413D01*
X0191614Y0111814D02*
X0218692Y0111814D01*
X0218692Y0111216D02*
X0191614Y0111216D01*
X0191614Y0110617D02*
X0218692Y0110617D01*
X0218692Y0110019D02*
X0191614Y0110019D01*
X0191614Y0109420D02*
X0218692Y0109420D01*
X0218692Y0108822D02*
X0191614Y0108822D01*
X0191614Y0108223D02*
X0218692Y0108223D01*
X0218692Y0107625D02*
X0191614Y0107625D01*
X0191614Y0107026D02*
X0218692Y0107026D01*
X0218692Y0106428D02*
X0191614Y0106428D01*
X0191614Y0105829D02*
X0218692Y0105829D01*
X0218692Y0105231D02*
X0191614Y0105231D01*
X0191614Y0104632D02*
X0218692Y0104632D01*
X0218692Y0104034D02*
X0191614Y0104034D01*
X0191614Y0103435D02*
X0218692Y0103435D01*
X0218692Y0102836D02*
X0191614Y0102836D01*
X0191614Y0102238D02*
X0218692Y0102238D01*
X0218692Y0101639D02*
X0191614Y0101639D01*
X0191614Y0101041D02*
X0218692Y0101041D01*
X0218692Y0100442D02*
X0191614Y0100442D01*
X0191614Y0099844D02*
X0218692Y0099844D01*
X0218692Y0099245D02*
X0191614Y0099245D01*
X0191614Y0098647D02*
X0218692Y0098647D01*
X0218692Y0098048D02*
X0191614Y0098048D01*
X0191614Y0097450D02*
X0218692Y0097450D01*
X0218692Y0096851D02*
X0191614Y0096851D01*
X0191614Y0096253D02*
X0218692Y0096253D01*
X0218692Y0095654D02*
X0191614Y0095654D01*
X0191614Y0095056D02*
X0218692Y0095056D01*
X0218692Y0094457D02*
X0191614Y0094457D01*
X0191614Y0093859D02*
X0218692Y0093859D01*
X0218692Y0093260D02*
X0191614Y0093260D01*
X0191614Y0092662D02*
X0218692Y0092662D01*
X0218692Y0092063D02*
X0191614Y0092063D01*
X0191614Y0091465D02*
X0218692Y0091465D01*
X0218692Y0090866D02*
X0191614Y0090866D01*
X0191614Y0090268D02*
X0218692Y0090268D01*
X0218692Y0089669D02*
X0191614Y0089669D01*
X0191614Y0089071D02*
X0218692Y0089071D01*
X0218692Y0088472D02*
X0191614Y0088472D01*
X0191614Y0087874D02*
X0218692Y0087874D01*
X0218692Y0087275D02*
X0191614Y0087275D01*
X0191614Y0086677D02*
X0218692Y0086677D01*
X0218692Y0086078D02*
X0191614Y0086078D01*
X0191614Y0085480D02*
X0218692Y0085480D01*
X0218692Y0084881D02*
X0191614Y0084881D01*
X0191614Y0084283D02*
X0218692Y0084283D01*
X0218692Y0083684D02*
X0191614Y0083684D01*
X0191614Y0083086D02*
X0218692Y0083086D01*
X0218692Y0082487D02*
X0191614Y0082487D01*
X0191614Y0081889D02*
X0218692Y0081889D01*
X0218692Y0081290D02*
X0191614Y0081290D01*
X0191614Y0080692D02*
X0218692Y0080692D01*
X0218692Y0080093D02*
X0191614Y0080093D01*
X0191614Y0079495D02*
X0218692Y0079495D01*
X0218692Y0078896D02*
X0191849Y0078896D01*
X0192447Y0078298D02*
X0218692Y0078298D01*
X0218692Y0077699D02*
X0192510Y0077699D01*
X0192510Y0077101D02*
X0218692Y0077101D01*
X0218692Y0076502D02*
X0192510Y0076502D01*
X0191991Y0075903D02*
X0218692Y0075903D01*
X0218692Y0075305D02*
X0191393Y0075305D01*
X0189249Y0075305D02*
X0186472Y0075305D01*
X0186604Y0075438D02*
X0186604Y0077251D01*
X0185322Y0078533D01*
X0183508Y0078533D01*
X0182719Y0077744D01*
X0149562Y0077744D01*
X0147429Y0079877D01*
X0147429Y0083271D01*
X0148218Y0084060D01*
X0148218Y0085873D01*
X0146936Y0087155D01*
X0146156Y0087155D01*
X0146250Y0087249D01*
X0146250Y0089062D01*
X0144968Y0090344D01*
X0143154Y0090344D01*
X0141872Y0089062D01*
X0141872Y0087946D01*
X0141677Y0087751D01*
X0141677Y0078717D01*
X0142497Y0077897D01*
X0147838Y0072555D01*
X0177915Y0072555D01*
X0178704Y0071766D01*
X0180517Y0071766D01*
X0181799Y0073049D01*
X0181799Y0074862D01*
X0181717Y0074944D01*
X0182719Y0074944D01*
X0183508Y0074155D01*
X0185322Y0074155D01*
X0186604Y0075438D01*
X0186604Y0075903D02*
X0188650Y0075903D01*
X0188132Y0076502D02*
X0186604Y0076502D01*
X0186604Y0077101D02*
X0188132Y0077101D01*
X0188132Y0077699D02*
X0186156Y0077699D01*
X0185558Y0078298D02*
X0188194Y0078298D01*
X0188792Y0078896D02*
X0148410Y0078896D01*
X0147812Y0079495D02*
X0189027Y0079495D01*
X0189027Y0080093D02*
X0147429Y0080093D01*
X0147429Y0080692D02*
X0189027Y0080692D01*
X0189027Y0081290D02*
X0147429Y0081290D01*
X0147429Y0081889D02*
X0189027Y0081889D01*
X0189027Y0082487D02*
X0147429Y0082487D01*
X0147429Y0083086D02*
X0189027Y0083086D01*
X0189027Y0083684D02*
X0147843Y0083684D01*
X0148218Y0084283D02*
X0189027Y0084283D01*
X0189027Y0084881D02*
X0148218Y0084881D01*
X0148218Y0085480D02*
X0189027Y0085480D01*
X0189027Y0086078D02*
X0148013Y0086078D01*
X0147415Y0086677D02*
X0189027Y0086677D01*
X0189027Y0087275D02*
X0146250Y0087275D01*
X0146250Y0087874D02*
X0189027Y0087874D01*
X0189027Y0088472D02*
X0146250Y0088472D01*
X0146241Y0089071D02*
X0189027Y0089071D01*
X0189027Y0089669D02*
X0145643Y0089669D01*
X0145044Y0090268D02*
X0189027Y0090268D01*
X0189027Y0090866D02*
X0091327Y0090866D01*
X0091327Y0090268D02*
X0143078Y0090268D01*
X0142479Y0089669D02*
X0091327Y0089669D01*
X0091327Y0089071D02*
X0141881Y0089071D01*
X0141872Y0088472D02*
X0091327Y0088472D01*
X0091327Y0087874D02*
X0141799Y0087874D01*
X0141677Y0087275D02*
X0092918Y0087275D01*
X0093517Y0086677D02*
X0141677Y0086677D01*
X0141677Y0086078D02*
X0094084Y0086078D01*
X0094084Y0085480D02*
X0141677Y0085480D01*
X0141677Y0084881D02*
X0094084Y0084881D01*
X0094071Y0084283D02*
X0141677Y0084283D01*
X0141677Y0083684D02*
X0093473Y0083684D01*
X0092874Y0083086D02*
X0141677Y0083086D01*
X0141677Y0082487D02*
X0088054Y0082487D01*
X0088054Y0081889D02*
X0106342Y0081889D01*
X0105744Y0081290D02*
X0088054Y0081290D01*
X0088054Y0080692D02*
X0105415Y0080692D01*
X0105415Y0080093D02*
X0088054Y0080093D01*
X0088054Y0079495D02*
X0105064Y0079495D01*
X0104465Y0078896D02*
X0088054Y0078896D01*
X0088054Y0078298D02*
X0103867Y0078298D01*
X0103268Y0077699D02*
X0088054Y0077699D01*
X0088054Y0077101D02*
X0102670Y0077101D01*
X0102410Y0076502D02*
X0088054Y0076502D01*
X0087515Y0075903D02*
X0102410Y0075903D01*
X0102410Y0075305D02*
X0086917Y0075305D01*
X0086318Y0074706D02*
X0102410Y0074706D01*
X0102410Y0074108D02*
X0085720Y0074108D01*
X0085121Y0073509D02*
X0102410Y0073509D01*
X0102410Y0072911D02*
X0084523Y0072911D01*
X0083924Y0072312D02*
X0102410Y0072312D01*
X0102410Y0071714D02*
X0083326Y0071714D01*
X0082727Y0071115D02*
X0102410Y0071115D01*
X0102410Y0070517D02*
X0082129Y0070517D01*
X0081530Y0069918D02*
X0102410Y0069918D01*
X0102410Y0069320D02*
X0080932Y0069320D01*
X0080333Y0068721D02*
X0102410Y0068721D01*
X0102410Y0068123D02*
X0079735Y0068123D01*
X0079136Y0067524D02*
X0102410Y0067524D01*
X0102410Y0066926D02*
X0078538Y0066926D01*
X0077939Y0066327D02*
X0102410Y0066327D01*
X0102410Y0065729D02*
X0077341Y0065729D01*
X0077040Y0065429D02*
X0077040Y0065429D01*
X0076742Y0065130D02*
X0102410Y0065130D01*
X0102410Y0064532D02*
X0076144Y0064532D01*
X0076123Y0069320D02*
X0024298Y0069320D01*
X0024298Y0069918D02*
X0076722Y0069918D01*
X0077320Y0070517D02*
X0072689Y0070517D01*
X0073498Y0071115D02*
X0077919Y0071115D01*
X0078517Y0071714D02*
X0074096Y0071714D01*
X0074375Y0072312D02*
X0079116Y0072312D01*
X0079714Y0072911D02*
X0074623Y0072911D01*
X0074744Y0073509D02*
X0080313Y0073509D01*
X0080911Y0074108D02*
X0074744Y0074108D01*
X0074744Y0074706D02*
X0081510Y0074706D01*
X0082109Y0075305D02*
X0074519Y0075305D01*
X0074271Y0075903D02*
X0082707Y0075903D01*
X0083306Y0076502D02*
X0073845Y0076502D01*
X0073246Y0077101D02*
X0083904Y0077101D01*
X0084503Y0077699D02*
X0072081Y0077699D01*
X0071666Y0080093D02*
X0084654Y0080093D01*
X0084654Y0079495D02*
X0024298Y0079495D01*
X0024298Y0080093D02*
X0059999Y0080093D01*
X0058591Y0080692D02*
X0024298Y0080692D01*
X0024298Y0081290D02*
X0057992Y0081290D01*
X0057466Y0081889D02*
X0024298Y0081889D01*
X0024298Y0082487D02*
X0057218Y0082487D01*
X0056970Y0083086D02*
X0024298Y0083086D01*
X0024298Y0083684D02*
X0056921Y0083684D01*
X0056921Y0084283D02*
X0024298Y0084283D01*
X0024298Y0084881D02*
X0056971Y0084881D01*
X0057219Y0085480D02*
X0024298Y0085480D01*
X0024298Y0086078D02*
X0057467Y0086078D01*
X0057995Y0086677D02*
X0024298Y0086677D01*
X0024298Y0087275D02*
X0058593Y0087275D01*
X0059578Y0090268D02*
X0024298Y0090268D01*
X0024298Y0090866D02*
X0058416Y0090866D01*
X0058617Y0090666D02*
X0057516Y0091766D01*
X0056921Y0093204D01*
X0056921Y0094760D01*
X0057516Y0096198D01*
X0058617Y0097298D01*
X0060054Y0097894D01*
X0061611Y0097894D01*
X0063048Y0097298D01*
X0064149Y0096198D01*
X0064744Y0094760D01*
X0064744Y0093204D01*
X0064149Y0091766D01*
X0063048Y0090666D01*
X0061611Y0090070D01*
X0060054Y0090070D01*
X0058617Y0090666D01*
X0057818Y0091465D02*
X0024298Y0091465D01*
X0024298Y0092063D02*
X0057393Y0092063D01*
X0057145Y0092662D02*
X0024298Y0092662D01*
X0024298Y0093260D02*
X0056921Y0093260D01*
X0056921Y0093859D02*
X0024298Y0093859D01*
X0024298Y0094457D02*
X0056921Y0094457D01*
X0057043Y0095056D02*
X0024298Y0095056D01*
X0024298Y0095654D02*
X0057291Y0095654D01*
X0057571Y0096253D02*
X0024298Y0096253D01*
X0024298Y0096851D02*
X0058170Y0096851D01*
X0058982Y0097450D02*
X0024298Y0097450D01*
X0024298Y0098048D02*
X0088527Y0098048D01*
X0088527Y0098647D02*
X0024298Y0098647D01*
X0024298Y0099245D02*
X0088527Y0099245D01*
X0087857Y0101041D02*
X0073423Y0101041D01*
X0074022Y0101639D02*
X0087258Y0101639D01*
X0085544Y0102238D02*
X0074344Y0102238D01*
X0074592Y0102836D02*
X0084945Y0102836D01*
X0084785Y0103435D02*
X0074744Y0103435D01*
X0074744Y0104034D02*
X0084785Y0104034D01*
X0084785Y0104632D02*
X0074744Y0104632D01*
X0074549Y0105231D02*
X0085206Y0105231D01*
X0085804Y0105829D02*
X0074302Y0105829D01*
X0073919Y0106428D02*
X0189027Y0106428D01*
X0189027Y0107026D02*
X0073321Y0107026D01*
X0072261Y0107625D02*
X0189027Y0107625D01*
X0189027Y0108223D02*
X0024298Y0108223D01*
X0024298Y0108822D02*
X0189027Y0108822D01*
X0189027Y0109420D02*
X0024298Y0109420D01*
X0024298Y0118398D02*
X0086754Y0118398D01*
X0086754Y0118996D02*
X0024298Y0118996D01*
X0024298Y0127974D02*
X0221138Y0127974D01*
X0220612Y0127448D02*
X0220612Y0126182D01*
X0218692Y0124262D01*
X0218692Y0074347D01*
X0217797Y0073452D01*
X0217797Y0071638D01*
X0219079Y0070356D01*
X0220893Y0070356D01*
X0222175Y0071638D01*
X0222175Y0073452D01*
X0221280Y0074347D01*
X0221280Y0123190D01*
X0222442Y0124352D01*
X0223708Y0124352D01*
X0224990Y0125634D01*
X0224990Y0127448D01*
X0223708Y0128730D01*
X0221894Y0128730D01*
X0220612Y0127448D01*
X0220612Y0127375D02*
X0072862Y0127375D01*
X0073570Y0126777D02*
X0220612Y0126777D01*
X0220609Y0126178D02*
X0176062Y0126178D01*
X0176661Y0125580D02*
X0220010Y0125580D01*
X0219412Y0124981D02*
X0176762Y0124981D01*
X0176762Y0124383D02*
X0218813Y0124383D01*
X0221280Y0123186D02*
X0238233Y0123186D01*
X0238233Y0123784D02*
X0221874Y0123784D01*
X0221280Y0122587D02*
X0238233Y0122587D01*
X0238233Y0121989D02*
X0221280Y0121989D01*
X0221280Y0121390D02*
X0238233Y0121390D01*
X0238233Y0120792D02*
X0221280Y0120792D01*
X0221280Y0120193D02*
X0238233Y0120193D01*
X0238233Y0119595D02*
X0221280Y0119595D01*
X0221280Y0118996D02*
X0238233Y0118996D01*
X0238233Y0118398D02*
X0221280Y0118398D01*
X0221280Y0117799D02*
X0238233Y0117799D01*
X0238233Y0117201D02*
X0221280Y0117201D01*
X0221280Y0116602D02*
X0238233Y0116602D01*
X0238233Y0116004D02*
X0221280Y0116004D01*
X0221280Y0115405D02*
X0238233Y0115405D01*
X0238233Y0114807D02*
X0221280Y0114807D01*
X0221280Y0114208D02*
X0238233Y0114208D01*
X0238233Y0113610D02*
X0221280Y0113610D01*
X0221280Y0113011D02*
X0238233Y0113011D01*
X0238233Y0112413D02*
X0221280Y0112413D01*
X0221280Y0111814D02*
X0238233Y0111814D01*
X0238233Y0111216D02*
X0221280Y0111216D01*
X0221280Y0110617D02*
X0238233Y0110617D01*
X0238233Y0110019D02*
X0221280Y0110019D01*
X0221280Y0109420D02*
X0238233Y0109420D01*
X0238233Y0108822D02*
X0221280Y0108822D01*
X0221280Y0108223D02*
X0238233Y0108223D01*
X0238233Y0107625D02*
X0221280Y0107625D01*
X0221280Y0107026D02*
X0238233Y0107026D01*
X0238233Y0106428D02*
X0221280Y0106428D01*
X0221280Y0105829D02*
X0238233Y0105829D01*
X0238233Y0105231D02*
X0221280Y0105231D01*
X0221280Y0104632D02*
X0238233Y0104632D01*
X0238233Y0104034D02*
X0221280Y0104034D01*
X0221280Y0103435D02*
X0238233Y0103435D01*
X0238233Y0102836D02*
X0221280Y0102836D01*
X0221280Y0102238D02*
X0238233Y0102238D01*
X0238233Y0101639D02*
X0221280Y0101639D01*
X0221280Y0101041D02*
X0238233Y0101041D01*
X0238233Y0100442D02*
X0221280Y0100442D01*
X0221280Y0099844D02*
X0238233Y0099844D01*
X0238233Y0099245D02*
X0221280Y0099245D01*
X0221280Y0098647D02*
X0238233Y0098647D01*
X0238233Y0098048D02*
X0221280Y0098048D01*
X0221280Y0097450D02*
X0238233Y0097450D01*
X0238233Y0096851D02*
X0221280Y0096851D01*
X0221280Y0096253D02*
X0238233Y0096253D01*
X0238233Y0095654D02*
X0221280Y0095654D01*
X0221280Y0095056D02*
X0238233Y0095056D01*
X0238233Y0094457D02*
X0221280Y0094457D01*
X0221280Y0093859D02*
X0238233Y0093859D01*
X0238233Y0093260D02*
X0221280Y0093260D01*
X0221280Y0092662D02*
X0238233Y0092662D01*
X0238233Y0092063D02*
X0221280Y0092063D01*
X0221280Y0091465D02*
X0238233Y0091465D01*
X0238233Y0090866D02*
X0221280Y0090866D01*
X0221280Y0090268D02*
X0238233Y0090268D01*
X0238233Y0089669D02*
X0221280Y0089669D01*
X0221280Y0089071D02*
X0238233Y0089071D01*
X0238233Y0088472D02*
X0221280Y0088472D01*
X0221280Y0087874D02*
X0238233Y0087874D01*
X0238233Y0087275D02*
X0221280Y0087275D01*
X0221280Y0086677D02*
X0238233Y0086677D01*
X0238233Y0086078D02*
X0221280Y0086078D01*
X0221280Y0085480D02*
X0238233Y0085480D01*
X0238233Y0084881D02*
X0221280Y0084881D01*
X0221280Y0084283D02*
X0238233Y0084283D01*
X0238233Y0083684D02*
X0221280Y0083684D01*
X0221280Y0083086D02*
X0238233Y0083086D01*
X0238233Y0082487D02*
X0221280Y0082487D01*
X0221280Y0081889D02*
X0238233Y0081889D01*
X0238233Y0081290D02*
X0221280Y0081290D01*
X0221280Y0080692D02*
X0238233Y0080692D01*
X0238233Y0080093D02*
X0221280Y0080093D01*
X0221280Y0079495D02*
X0238233Y0079495D01*
X0238233Y0078896D02*
X0221280Y0078896D01*
X0221280Y0078298D02*
X0238233Y0078298D01*
X0238233Y0077699D02*
X0221280Y0077699D01*
X0221280Y0077101D02*
X0238233Y0077101D01*
X0238233Y0076502D02*
X0221280Y0076502D01*
X0221280Y0075903D02*
X0238233Y0075903D01*
X0238233Y0075305D02*
X0221280Y0075305D01*
X0221280Y0074706D02*
X0238233Y0074706D01*
X0238233Y0074108D02*
X0221519Y0074108D01*
X0222117Y0073509D02*
X0238233Y0073509D01*
X0238233Y0072911D02*
X0222175Y0072911D01*
X0222175Y0072312D02*
X0238233Y0072312D01*
X0238233Y0071714D02*
X0222175Y0071714D01*
X0221652Y0071115D02*
X0238233Y0071115D01*
X0238233Y0070517D02*
X0221053Y0070517D01*
X0218918Y0070517D02*
X0106898Y0070517D01*
X0106898Y0071115D02*
X0218320Y0071115D01*
X0217797Y0071714D02*
X0106898Y0071714D01*
X0106898Y0072312D02*
X0178158Y0072312D01*
X0181063Y0072312D02*
X0217797Y0072312D01*
X0217797Y0072911D02*
X0181662Y0072911D01*
X0181799Y0073509D02*
X0217855Y0073509D01*
X0218453Y0074108D02*
X0181799Y0074108D01*
X0181799Y0074706D02*
X0182957Y0074706D01*
X0185873Y0074706D02*
X0218692Y0074706D01*
X0238233Y0069918D02*
X0106898Y0069918D01*
X0106898Y0069320D02*
X0238233Y0069320D01*
X0238233Y0068721D02*
X0106898Y0068721D01*
X0106898Y0068123D02*
X0238233Y0068123D01*
X0238233Y0067524D02*
X0106898Y0067524D01*
X0106898Y0066926D02*
X0238233Y0066926D01*
X0238233Y0066327D02*
X0106898Y0066327D01*
X0106898Y0065729D02*
X0238233Y0065729D01*
X0238233Y0065130D02*
X0106898Y0065130D01*
X0106898Y0064532D02*
X0238233Y0064532D01*
X0238233Y0063933D02*
X0106898Y0063933D01*
X0106898Y0063335D02*
X0238233Y0063335D01*
X0238233Y0062736D02*
X0106898Y0062736D01*
X0106898Y0062138D02*
X0238233Y0062138D01*
X0238233Y0061539D02*
X0106898Y0061539D01*
X0106898Y0060941D02*
X0238233Y0060941D01*
X0238233Y0060342D02*
X0106898Y0060342D01*
X0106898Y0059744D02*
X0238233Y0059744D01*
X0238233Y0059145D02*
X0106898Y0059145D01*
X0106898Y0058547D02*
X0238233Y0058547D01*
X0238233Y0057948D02*
X0106898Y0057948D01*
X0106898Y0057350D02*
X0238233Y0057350D01*
X0238233Y0056751D02*
X0106898Y0056751D01*
X0106898Y0056153D02*
X0238233Y0056153D01*
X0238233Y0055554D02*
X0106898Y0055554D01*
X0106898Y0054956D02*
X0238233Y0054956D01*
X0238233Y0054357D02*
X0106898Y0054357D01*
X0106898Y0053759D02*
X0238233Y0053759D01*
X0238233Y0053160D02*
X0106898Y0053160D01*
X0106898Y0052562D02*
X0238233Y0052562D01*
X0238233Y0051963D02*
X0106898Y0051963D01*
X0106898Y0051365D02*
X0238233Y0051365D01*
X0238233Y0050766D02*
X0106898Y0050766D01*
X0106898Y0050167D02*
X0238233Y0050167D01*
X0238233Y0049569D02*
X0106898Y0049569D01*
X0106898Y0048970D02*
X0238233Y0048970D01*
X0238233Y0048372D02*
X0106898Y0048372D01*
X0106898Y0047773D02*
X0238233Y0047773D01*
X0238233Y0047175D02*
X0106898Y0047175D01*
X0106898Y0046576D02*
X0238233Y0046576D01*
X0238233Y0045978D02*
X0106898Y0045978D01*
X0106898Y0045379D02*
X0238233Y0045379D01*
X0238233Y0044781D02*
X0106898Y0044781D01*
X0106898Y0044182D02*
X0238233Y0044182D01*
X0238233Y0043584D02*
X0106898Y0043584D01*
X0106898Y0042985D02*
X0238233Y0042985D01*
X0238233Y0042387D02*
X0106898Y0042387D01*
X0106898Y0041788D02*
X0238233Y0041788D01*
X0238233Y0041190D02*
X0106898Y0041190D01*
X0106898Y0040591D02*
X0238233Y0040591D01*
X0238233Y0039993D02*
X0106968Y0039993D01*
X0107566Y0039394D02*
X0238233Y0039394D01*
X0238233Y0038796D02*
X0107687Y0038796D01*
X0107687Y0038197D02*
X0238233Y0038197D01*
X0238233Y0037599D02*
X0107687Y0037599D01*
X0107227Y0037000D02*
X0238233Y0037000D01*
X0238233Y0036402D02*
X0106798Y0036402D01*
X0106798Y0035803D02*
X0238233Y0035803D01*
X0238233Y0035205D02*
X0106798Y0035205D01*
X0106798Y0034606D02*
X0238233Y0034606D01*
X0238233Y0034008D02*
X0233699Y0034008D01*
X0235277Y0033409D02*
X0238233Y0033409D01*
X0238233Y0032811D02*
X0235826Y0032811D01*
X0235305Y0033398D02*
X0235305Y0033398D01*
X0236356Y0032212D02*
X0238233Y0032212D01*
X0238233Y0031614D02*
X0236887Y0031614D01*
X0237343Y0031099D02*
X0237343Y0031099D01*
X0237363Y0031015D02*
X0238233Y0031015D01*
X0238233Y0030417D02*
X0237511Y0030417D01*
X0237658Y0029818D02*
X0238233Y0029818D01*
X0238233Y0029220D02*
X0237806Y0029220D01*
X0237953Y0028621D02*
X0238233Y0028621D01*
X0238078Y0028116D02*
X0238078Y0028116D01*
X0238055Y0028023D02*
X0238225Y0028023D01*
X0238178Y0027424D02*
X0237907Y0027424D01*
X0237760Y0026826D02*
X0238067Y0026826D01*
X0237872Y0026227D02*
X0237612Y0026227D01*
X0237678Y0025629D02*
X0237465Y0025629D01*
X0237343Y0025133D02*
X0237343Y0025133D01*
X0237251Y0025030D02*
X0237442Y0025030D01*
X0237008Y0024432D02*
X0236721Y0024432D01*
X0236573Y0023833D02*
X0236191Y0023833D01*
X0235986Y0023234D02*
X0235661Y0023234D01*
X0235305Y0022834D02*
X0235305Y0022834D01*
X0235305Y0022834D01*
X0235163Y0022636D02*
X0234784Y0022636D01*
X0233962Y0022037D02*
X0233206Y0022037D01*
X0232433Y0021744D02*
X0232433Y0021744D01*
X0227761Y0023234D02*
X0116444Y0023234D01*
X0116575Y0023255D02*
X0115860Y0023142D01*
X0115798Y0023142D01*
X0115798Y0027442D01*
X0115798Y0028042D01*
X0120098Y0028042D01*
X0120098Y0028104D01*
X0119985Y0028819D01*
X0119761Y0029508D01*
X0119432Y0030153D01*
X0119007Y0030739D01*
X0118495Y0031251D01*
X0117909Y0031676D01*
X0117264Y0032005D01*
X0116575Y0032229D01*
X0115860Y0032342D01*
X0115798Y0032342D01*
X0115798Y0028042D01*
X0115198Y0028042D01*
X0115198Y0032342D01*
X0115136Y0032342D01*
X0114421Y0032229D01*
X0113732Y0032005D01*
X0113087Y0031676D01*
X0112501Y0031251D01*
X0111989Y0030739D01*
X0111564Y0030153D01*
X0111235Y0029508D01*
X0111011Y0028819D01*
X0110898Y0028104D01*
X0110898Y0028042D01*
X0115198Y0028042D01*
X0115198Y0027442D01*
X0115798Y0027442D01*
X0120098Y0027442D01*
X0120098Y0027380D01*
X0119985Y0026665D01*
X0119761Y0025976D01*
X0119432Y0025331D01*
X0119007Y0024745D01*
X0118495Y0024233D01*
X0117909Y0023808D01*
X0117264Y0023479D01*
X0116575Y0023255D01*
X0115798Y0023234D02*
X0115198Y0023234D01*
X0115198Y0023142D02*
X0115198Y0027442D01*
X0110898Y0027442D01*
X0110898Y0027380D01*
X0111011Y0026665D01*
X0111235Y0025976D01*
X0111564Y0025331D01*
X0111989Y0024745D01*
X0112501Y0024233D01*
X0113087Y0023808D01*
X0113732Y0023479D01*
X0114421Y0023255D01*
X0115136Y0023142D01*
X0115198Y0023142D01*
X0114551Y0023234D02*
X0086444Y0023234D01*
X0087944Y0023833D02*
X0093960Y0023833D01*
X0092869Y0024432D02*
X0088693Y0024432D01*
X0089213Y0025030D02*
X0092270Y0025030D01*
X0091827Y0025629D02*
X0089584Y0025629D01*
X0089842Y0026227D02*
X0091579Y0026227D01*
X0091331Y0026826D02*
X0090010Y0026826D01*
X0090098Y0027424D02*
X0091298Y0027424D01*
X0097036Y0023833D02*
X0103960Y0023833D01*
X0102869Y0024432D02*
X0098127Y0024432D01*
X0098726Y0025030D02*
X0102270Y0025030D01*
X0101827Y0025629D02*
X0099168Y0025629D01*
X0099416Y0026227D02*
X0101579Y0026227D01*
X0101331Y0026826D02*
X0099664Y0026826D01*
X0099698Y0027424D02*
X0101298Y0027424D01*
X0101298Y0028023D02*
X0099698Y0028023D01*
X0099680Y0028621D02*
X0101316Y0028621D01*
X0101564Y0029220D02*
X0099432Y0029220D01*
X0099184Y0029818D02*
X0101812Y0029818D01*
X0102233Y0030417D02*
X0098763Y0030417D01*
X0098164Y0031015D02*
X0102831Y0031015D01*
X0103870Y0031614D02*
X0097126Y0031614D01*
X0096798Y0032212D02*
X0104198Y0032212D01*
X0104198Y0032811D02*
X0096798Y0032811D01*
X0096798Y0033409D02*
X0104198Y0033409D01*
X0104198Y0034008D02*
X0096798Y0034008D01*
X0096798Y0034606D02*
X0104198Y0034606D01*
X0104198Y0035205D02*
X0096798Y0035205D01*
X0096798Y0035803D02*
X0104198Y0035803D01*
X0104198Y0036402D02*
X0096798Y0036402D01*
X0097220Y0037000D02*
X0103769Y0037000D01*
X0103309Y0037599D02*
X0097818Y0037599D01*
X0098417Y0038197D02*
X0103309Y0038197D01*
X0103309Y0038796D02*
X0099015Y0038796D01*
X0100871Y0039394D02*
X0103430Y0039394D01*
X0104028Y0039993D02*
X0101469Y0039993D01*
X0102062Y0040591D02*
X0104098Y0040591D01*
X0104098Y0041190D02*
X0102062Y0041190D01*
X0102149Y0041788D02*
X0104098Y0041788D01*
X0104098Y0042387D02*
X0102748Y0042387D01*
X0103346Y0042985D02*
X0104098Y0042985D01*
X0104098Y0043584D02*
X0103945Y0043584D01*
X0101780Y0045379D02*
X0067198Y0045379D01*
X0067198Y0044781D02*
X0101182Y0044781D01*
X0100583Y0044182D02*
X0067198Y0044182D01*
X0067198Y0043584D02*
X0098869Y0043584D01*
X0098271Y0042985D02*
X0067198Y0042985D01*
X0067198Y0042387D02*
X0097684Y0042387D01*
X0097684Y0041788D02*
X0067198Y0041788D01*
X0067198Y0041190D02*
X0097684Y0041190D01*
X0097134Y0040591D02*
X0067198Y0040591D01*
X0067198Y0039993D02*
X0096535Y0039993D01*
X0095937Y0039394D02*
X0067198Y0039394D01*
X0067198Y0038796D02*
X0095338Y0038796D01*
X0094740Y0038197D02*
X0067198Y0038197D01*
X0067198Y0037599D02*
X0094198Y0037599D01*
X0094198Y0037000D02*
X0067198Y0037000D01*
X0067198Y0036402D02*
X0094198Y0036402D01*
X0094198Y0035803D02*
X0067198Y0035803D01*
X0067198Y0035205D02*
X0094198Y0035205D01*
X0094198Y0034606D02*
X0067198Y0034606D01*
X0067198Y0034008D02*
X0094198Y0034008D01*
X0094198Y0033409D02*
X0067198Y0033409D01*
X0067198Y0032811D02*
X0094198Y0032811D01*
X0106798Y0032811D02*
X0227490Y0032811D01*
X0226855Y0032372D02*
X0226855Y0032372D01*
X0226771Y0032212D02*
X0116626Y0032212D01*
X0115798Y0032212D02*
X0115198Y0032212D01*
X0115198Y0031614D02*
X0115798Y0031614D01*
X0115798Y0031015D02*
X0115198Y0031015D01*
X0115198Y0030417D02*
X0115798Y0030417D01*
X0115798Y0029818D02*
X0115198Y0029818D01*
X0115198Y0029220D02*
X0115798Y0029220D01*
X0115798Y0028621D02*
X0115198Y0028621D01*
X0115198Y0028023D02*
X0109698Y0028023D01*
X0109680Y0028621D02*
X0110980Y0028621D01*
X0111141Y0029220D02*
X0109432Y0029220D01*
X0109184Y0029818D02*
X0111393Y0029818D01*
X0111755Y0030417D02*
X0108763Y0030417D01*
X0108164Y0031015D02*
X0112266Y0031015D01*
X0113001Y0031614D02*
X0107126Y0031614D01*
X0106798Y0032212D02*
X0114370Y0032212D01*
X0117995Y0031614D02*
X0123870Y0031614D01*
X0123119Y0031303D02*
X0121937Y0030121D01*
X0121298Y0028577D01*
X0121298Y0026906D01*
X0121937Y0025363D01*
X0123119Y0024181D01*
X0124662Y0023542D01*
X0126333Y0023542D01*
X0127877Y0024181D01*
X0129058Y0025363D01*
X0129698Y0026906D01*
X0129698Y0028577D01*
X0129058Y0030121D01*
X0127877Y0031303D01*
X0126333Y0031942D01*
X0124662Y0031942D01*
X0123119Y0031303D01*
X0122831Y0031015D02*
X0118730Y0031015D01*
X0119240Y0030417D02*
X0122233Y0030417D01*
X0121812Y0029818D02*
X0119603Y0029818D01*
X0119854Y0029220D02*
X0121564Y0029220D01*
X0121316Y0028621D02*
X0120016Y0028621D01*
X0120098Y0027424D02*
X0121298Y0027424D01*
X0121298Y0028023D02*
X0115798Y0028023D01*
X0115798Y0027424D02*
X0115198Y0027424D01*
X0115198Y0026826D02*
X0115798Y0026826D01*
X0115798Y0026227D02*
X0115198Y0026227D01*
X0115198Y0025629D02*
X0115798Y0025629D01*
X0115798Y0025030D02*
X0115198Y0025030D01*
X0115198Y0024432D02*
X0115798Y0024432D01*
X0115798Y0023833D02*
X0115198Y0023833D01*
X0113052Y0023833D02*
X0107036Y0023833D01*
X0108127Y0024432D02*
X0112303Y0024432D01*
X0111782Y0025030D02*
X0108726Y0025030D01*
X0109168Y0025629D02*
X0111412Y0025629D01*
X0111153Y0026227D02*
X0109416Y0026227D01*
X0109664Y0026826D02*
X0110986Y0026826D01*
X0110898Y0027424D02*
X0109698Y0027424D01*
X0106798Y0033409D02*
X0228357Y0033409D01*
X0229224Y0034008D02*
X0106798Y0034008D01*
X0118693Y0024432D02*
X0122869Y0024432D01*
X0122270Y0025030D02*
X0119213Y0025030D01*
X0119584Y0025629D02*
X0121827Y0025629D01*
X0121579Y0026227D02*
X0119842Y0026227D01*
X0120010Y0026826D02*
X0121331Y0026826D01*
X0123960Y0023833D02*
X0117944Y0023833D01*
X0127036Y0023833D02*
X0133960Y0023833D01*
X0134662Y0023542D02*
X0136333Y0023542D01*
X0137877Y0024181D01*
X0139058Y0025363D01*
X0139698Y0026906D01*
X0139698Y0028577D01*
X0139058Y0030121D01*
X0137877Y0031303D01*
X0136333Y0031942D01*
X0134662Y0031942D01*
X0133119Y0031303D01*
X0131937Y0030121D01*
X0131298Y0028577D01*
X0131298Y0026906D01*
X0131937Y0025363D01*
X0133119Y0024181D01*
X0134662Y0023542D01*
X0132869Y0024432D02*
X0128127Y0024432D01*
X0128726Y0025030D02*
X0132270Y0025030D01*
X0131827Y0025629D02*
X0129168Y0025629D01*
X0129416Y0026227D02*
X0131579Y0026227D01*
X0131331Y0026826D02*
X0129664Y0026826D01*
X0129698Y0027424D02*
X0131298Y0027424D01*
X0131298Y0028023D02*
X0129698Y0028023D01*
X0129680Y0028621D02*
X0131316Y0028621D01*
X0131564Y0029220D02*
X0129432Y0029220D01*
X0129184Y0029818D02*
X0131812Y0029818D01*
X0132233Y0030417D02*
X0128763Y0030417D01*
X0128164Y0031015D02*
X0132831Y0031015D01*
X0133870Y0031614D02*
X0127126Y0031614D01*
X0137126Y0031614D02*
X0143870Y0031614D01*
X0143119Y0031303D02*
X0141937Y0030121D01*
X0141298Y0028577D01*
X0141298Y0026906D01*
X0141937Y0025363D01*
X0143119Y0024181D01*
X0144662Y0023542D01*
X0146333Y0023542D01*
X0147877Y0024181D01*
X0149058Y0025363D01*
X0149698Y0026906D01*
X0149698Y0028577D01*
X0149058Y0030121D01*
X0147877Y0031303D01*
X0146333Y0031942D01*
X0144662Y0031942D01*
X0143119Y0031303D01*
X0142831Y0031015D02*
X0138164Y0031015D01*
X0138763Y0030417D02*
X0142233Y0030417D01*
X0141812Y0029818D02*
X0139184Y0029818D01*
X0139432Y0029220D02*
X0141564Y0029220D01*
X0141316Y0028621D02*
X0139680Y0028621D01*
X0139698Y0028023D02*
X0141298Y0028023D01*
X0141298Y0027424D02*
X0139698Y0027424D01*
X0139664Y0026826D02*
X0141331Y0026826D01*
X0141579Y0026227D02*
X0139416Y0026227D01*
X0139168Y0025629D02*
X0141827Y0025629D01*
X0142270Y0025030D02*
X0138726Y0025030D01*
X0138127Y0024432D02*
X0142869Y0024432D01*
X0143960Y0023833D02*
X0137036Y0023833D01*
X0147036Y0023833D02*
X0153960Y0023833D01*
X0154662Y0023542D02*
X0156333Y0023542D01*
X0157877Y0024181D01*
X0159058Y0025363D01*
X0159698Y0026906D01*
X0159698Y0028577D01*
X0159058Y0030121D01*
X0157877Y0031303D01*
X0156333Y0031942D01*
X0154662Y0031942D01*
X0153119Y0031303D01*
X0151937Y0030121D01*
X0151298Y0028577D01*
X0151298Y0026906D01*
X0151937Y0025363D01*
X0153119Y0024181D01*
X0154662Y0023542D01*
X0152869Y0024432D02*
X0148127Y0024432D01*
X0148726Y0025030D02*
X0152270Y0025030D01*
X0151827Y0025629D02*
X0149168Y0025629D01*
X0149416Y0026227D02*
X0151579Y0026227D01*
X0151331Y0026826D02*
X0149664Y0026826D01*
X0149698Y0027424D02*
X0151298Y0027424D01*
X0151298Y0028023D02*
X0149698Y0028023D01*
X0149680Y0028621D02*
X0151316Y0028621D01*
X0151564Y0029220D02*
X0149432Y0029220D01*
X0149184Y0029818D02*
X0151812Y0029818D01*
X0152233Y0030417D02*
X0148763Y0030417D01*
X0148164Y0031015D02*
X0152831Y0031015D01*
X0153870Y0031614D02*
X0147126Y0031614D01*
X0157126Y0031614D02*
X0163870Y0031614D01*
X0163119Y0031303D02*
X0161937Y0030121D01*
X0161298Y0028577D01*
X0161298Y0026906D01*
X0161937Y0025363D01*
X0163119Y0024181D01*
X0164662Y0023542D01*
X0166333Y0023542D01*
X0167877Y0024181D01*
X0169058Y0025363D01*
X0169698Y0026906D01*
X0169698Y0028577D01*
X0169058Y0030121D01*
X0167877Y0031303D01*
X0166333Y0031942D01*
X0164662Y0031942D01*
X0163119Y0031303D01*
X0162831Y0031015D02*
X0158164Y0031015D01*
X0158763Y0030417D02*
X0162233Y0030417D01*
X0161812Y0029818D02*
X0159184Y0029818D01*
X0159432Y0029220D02*
X0161564Y0029220D01*
X0161316Y0028621D02*
X0159680Y0028621D01*
X0159698Y0028023D02*
X0161298Y0028023D01*
X0161298Y0027424D02*
X0159698Y0027424D01*
X0159664Y0026826D02*
X0161331Y0026826D01*
X0161579Y0026227D02*
X0159416Y0026227D01*
X0159168Y0025629D02*
X0161827Y0025629D01*
X0162270Y0025030D02*
X0158726Y0025030D01*
X0158127Y0024432D02*
X0162869Y0024432D01*
X0163960Y0023833D02*
X0157036Y0023833D01*
X0167036Y0023833D02*
X0173960Y0023833D01*
X0174662Y0023542D02*
X0176333Y0023542D01*
X0177877Y0024181D01*
X0179058Y0025363D01*
X0179698Y0026906D01*
X0179698Y0028577D01*
X0179058Y0030121D01*
X0177877Y0031303D01*
X0176333Y0031942D01*
X0174662Y0031942D01*
X0173119Y0031303D01*
X0171937Y0030121D01*
X0171298Y0028577D01*
X0171298Y0026906D01*
X0171937Y0025363D01*
X0173119Y0024181D01*
X0174662Y0023542D01*
X0172869Y0024432D02*
X0168127Y0024432D01*
X0168726Y0025030D02*
X0172270Y0025030D01*
X0171827Y0025629D02*
X0169168Y0025629D01*
X0169416Y0026227D02*
X0171579Y0026227D01*
X0171331Y0026826D02*
X0169664Y0026826D01*
X0169698Y0027424D02*
X0171298Y0027424D01*
X0171298Y0028023D02*
X0169698Y0028023D01*
X0169680Y0028621D02*
X0171316Y0028621D01*
X0171564Y0029220D02*
X0169432Y0029220D01*
X0169184Y0029818D02*
X0171812Y0029818D01*
X0172233Y0030417D02*
X0168763Y0030417D01*
X0168164Y0031015D02*
X0172831Y0031015D01*
X0173870Y0031614D02*
X0167126Y0031614D01*
X0177126Y0031614D02*
X0183870Y0031614D01*
X0183119Y0031303D02*
X0181937Y0030121D01*
X0181298Y0028577D01*
X0181298Y0026906D01*
X0181937Y0025363D01*
X0183119Y0024181D01*
X0184662Y0023542D01*
X0186333Y0023542D01*
X0187877Y0024181D01*
X0189058Y0025363D01*
X0189698Y0026906D01*
X0189698Y0028577D01*
X0189058Y0030121D01*
X0187877Y0031303D01*
X0186333Y0031942D01*
X0184662Y0031942D01*
X0183119Y0031303D01*
X0182831Y0031015D02*
X0178164Y0031015D01*
X0178763Y0030417D02*
X0182233Y0030417D01*
X0181812Y0029818D02*
X0179184Y0029818D01*
X0179432Y0029220D02*
X0181564Y0029220D01*
X0181316Y0028621D02*
X0179680Y0028621D01*
X0179698Y0028023D02*
X0181298Y0028023D01*
X0181298Y0027424D02*
X0179698Y0027424D01*
X0179664Y0026826D02*
X0181331Y0026826D01*
X0181579Y0026227D02*
X0179416Y0026227D01*
X0179168Y0025629D02*
X0181827Y0025629D01*
X0182270Y0025030D02*
X0178726Y0025030D01*
X0178127Y0024432D02*
X0182869Y0024432D01*
X0183960Y0023833D02*
X0177036Y0023833D01*
X0187036Y0023833D02*
X0193960Y0023833D01*
X0194662Y0023542D02*
X0196333Y0023542D01*
X0197877Y0024181D01*
X0199058Y0025363D01*
X0199698Y0026906D01*
X0199698Y0028577D01*
X0199058Y0030121D01*
X0197877Y0031303D01*
X0196333Y0031942D01*
X0194662Y0031942D01*
X0193119Y0031303D01*
X0191937Y0030121D01*
X0191298Y0028577D01*
X0191298Y0026906D01*
X0191937Y0025363D01*
X0193119Y0024181D01*
X0194662Y0023542D01*
X0192869Y0024432D02*
X0188127Y0024432D01*
X0188726Y0025030D02*
X0192270Y0025030D01*
X0191827Y0025629D02*
X0189168Y0025629D01*
X0189416Y0026227D02*
X0191579Y0026227D01*
X0191331Y0026826D02*
X0189664Y0026826D01*
X0189698Y0027424D02*
X0191298Y0027424D01*
X0191298Y0028023D02*
X0189698Y0028023D01*
X0189680Y0028621D02*
X0191316Y0028621D01*
X0191564Y0029220D02*
X0189432Y0029220D01*
X0189184Y0029818D02*
X0191812Y0029818D01*
X0192233Y0030417D02*
X0188763Y0030417D01*
X0188164Y0031015D02*
X0192831Y0031015D01*
X0193870Y0031614D02*
X0187126Y0031614D01*
X0197126Y0031614D02*
X0203870Y0031614D01*
X0203119Y0031303D02*
X0201937Y0030121D01*
X0201298Y0028577D01*
X0201298Y0026906D01*
X0201937Y0025363D01*
X0203119Y0024181D01*
X0204662Y0023542D01*
X0206333Y0023542D01*
X0207877Y0024181D01*
X0209058Y0025363D01*
X0209698Y0026906D01*
X0209698Y0028577D01*
X0209058Y0030121D01*
X0207877Y0031303D01*
X0206333Y0031942D01*
X0204662Y0031942D01*
X0203119Y0031303D01*
X0202831Y0031015D02*
X0198164Y0031015D01*
X0198763Y0030417D02*
X0202233Y0030417D01*
X0201812Y0029818D02*
X0199184Y0029818D01*
X0199432Y0029220D02*
X0201564Y0029220D01*
X0201316Y0028621D02*
X0199680Y0028621D01*
X0199698Y0028023D02*
X0201298Y0028023D01*
X0201298Y0027424D02*
X0199698Y0027424D01*
X0199664Y0026826D02*
X0201331Y0026826D01*
X0201579Y0026227D02*
X0199416Y0026227D01*
X0199168Y0025629D02*
X0201827Y0025629D01*
X0202270Y0025030D02*
X0198726Y0025030D01*
X0198127Y0024432D02*
X0202869Y0024432D01*
X0203960Y0023833D02*
X0197036Y0023833D01*
X0207036Y0023833D02*
X0226893Y0023833D01*
X0226855Y0023860D02*
X0226855Y0023860D01*
X0226555Y0024432D02*
X0208127Y0024432D01*
X0208726Y0025030D02*
X0226241Y0025030D01*
X0225926Y0025629D02*
X0209168Y0025629D01*
X0209416Y0026227D02*
X0225612Y0026227D01*
X0225427Y0026826D02*
X0209664Y0026826D01*
X0209698Y0027424D02*
X0225427Y0027424D01*
X0225427Y0028023D02*
X0209698Y0028023D01*
X0209680Y0028621D02*
X0225427Y0028621D01*
X0225427Y0029220D02*
X0209432Y0029220D01*
X0209184Y0029818D02*
X0225514Y0029818D01*
X0225828Y0030417D02*
X0208763Y0030417D01*
X0208164Y0031015D02*
X0226143Y0031015D01*
X0226457Y0031614D02*
X0207126Y0031614D01*
X0229383Y0034117D02*
X0229383Y0034117D01*
X0183273Y0078298D02*
X0149009Y0078298D01*
X0145687Y0074706D02*
X0107920Y0074706D01*
X0107322Y0074108D02*
X0146286Y0074108D01*
X0146884Y0073509D02*
X0106898Y0073509D01*
X0106898Y0072911D02*
X0147483Y0072911D01*
X0145089Y0075305D02*
X0108519Y0075305D01*
X0109117Y0075903D02*
X0144490Y0075903D01*
X0143892Y0076502D02*
X0109716Y0076502D01*
X0110314Y0077101D02*
X0143293Y0077101D01*
X0142695Y0077699D02*
X0110913Y0077699D01*
X0113317Y0078298D02*
X0142096Y0078298D01*
X0141677Y0078896D02*
X0113916Y0078896D01*
X0114168Y0079495D02*
X0141677Y0079495D01*
X0141677Y0080093D02*
X0114168Y0080093D01*
X0114168Y0080692D02*
X0141677Y0080692D01*
X0141677Y0081290D02*
X0113840Y0081290D01*
X0113241Y0081889D02*
X0141677Y0081889D01*
X0144138Y0097777D02*
X0145952Y0097777D01*
X0147234Y0099060D01*
X0147234Y0100873D01*
X0145952Y0102155D01*
X0144138Y0102155D01*
X0143649Y0101666D01*
X0111008Y0101666D01*
X0110519Y0102155D01*
X0108705Y0102155D01*
X0107423Y0100873D01*
X0107423Y0099060D01*
X0108705Y0097777D01*
X0110519Y0097777D01*
X0111008Y0098266D01*
X0143649Y0098266D01*
X0144138Y0097777D01*
X0143867Y0098048D02*
X0110790Y0098048D01*
X0108434Y0098048D02*
X0091327Y0098048D01*
X0091327Y0097450D02*
X0189027Y0097450D01*
X0189027Y0098048D02*
X0181656Y0098048D01*
X0181385Y0097777D02*
X0182667Y0099060D01*
X0182667Y0100873D01*
X0181385Y0102155D01*
X0179571Y0102155D01*
X0178882Y0101466D01*
X0161014Y0101466D01*
X0161014Y0101857D01*
X0159731Y0103140D01*
X0157918Y0103140D01*
X0156636Y0101857D01*
X0156636Y0100044D01*
X0157918Y0098762D01*
X0158892Y0098762D01*
X0159188Y0098466D01*
X0178882Y0098466D01*
X0179571Y0097777D01*
X0181385Y0097777D01*
X0182254Y0098647D02*
X0189027Y0098647D01*
X0189027Y0099245D02*
X0182667Y0099245D01*
X0182667Y0099844D02*
X0189027Y0099844D01*
X0189027Y0100442D02*
X0182667Y0100442D01*
X0182499Y0101041D02*
X0189027Y0101041D01*
X0189027Y0101639D02*
X0181901Y0101639D01*
X0179056Y0101639D02*
X0161014Y0101639D01*
X0160633Y0102238D02*
X0189027Y0102238D01*
X0189027Y0102836D02*
X0160034Y0102836D01*
X0157615Y0102836D02*
X0090021Y0102836D01*
X0090619Y0102238D02*
X0157016Y0102238D01*
X0156636Y0101639D02*
X0146468Y0101639D01*
X0147066Y0101041D02*
X0156636Y0101041D01*
X0156636Y0100442D02*
X0147234Y0100442D01*
X0147234Y0099844D02*
X0156836Y0099844D01*
X0157434Y0099245D02*
X0147234Y0099245D01*
X0146821Y0098647D02*
X0159007Y0098647D01*
X0146223Y0098048D02*
X0179300Y0098048D01*
X0189027Y0096851D02*
X0091327Y0096851D01*
X0091327Y0096253D02*
X0189027Y0096253D01*
X0189027Y0095654D02*
X0091327Y0095654D01*
X0091327Y0095056D02*
X0189027Y0095056D01*
X0189027Y0094457D02*
X0091327Y0094457D01*
X0091327Y0093859D02*
X0189027Y0093859D01*
X0189027Y0093260D02*
X0091327Y0093260D01*
X0091327Y0092662D02*
X0189027Y0092662D01*
X0189027Y0092063D02*
X0091327Y0092063D01*
X0091327Y0091465D02*
X0189027Y0091465D01*
X0189027Y0103435D02*
X0089422Y0103435D01*
X0089163Y0104034D02*
X0189027Y0104034D01*
X0189027Y0104632D02*
X0089163Y0104632D01*
X0088743Y0105231D02*
X0189027Y0105231D01*
X0189027Y0105829D02*
X0088144Y0105829D01*
X0091218Y0101639D02*
X0108189Y0101639D01*
X0107591Y0101041D02*
X0091327Y0101041D01*
X0091327Y0100442D02*
X0107423Y0100442D01*
X0107423Y0099844D02*
X0091327Y0099844D01*
X0091327Y0099245D02*
X0107423Y0099245D01*
X0107836Y0098647D02*
X0091327Y0098647D01*
X0088527Y0088472D02*
X0088492Y0088472D01*
X0088527Y0087874D02*
X0088054Y0087874D01*
X0088054Y0087275D02*
X0088527Y0087275D01*
X0088527Y0086677D02*
X0088054Y0086677D01*
X0088054Y0086078D02*
X0088527Y0086078D01*
X0088654Y0085480D02*
X0088054Y0085480D01*
X0088054Y0084881D02*
X0089253Y0084881D01*
X0089720Y0084283D02*
X0088054Y0084283D01*
X0088054Y0083684D02*
X0090318Y0083684D01*
X0090917Y0083086D02*
X0088054Y0083086D01*
X0084654Y0083086D02*
X0074695Y0083086D01*
X0074744Y0083684D02*
X0084654Y0083684D01*
X0084654Y0084283D02*
X0074744Y0084283D01*
X0074694Y0084881D02*
X0084654Y0084881D01*
X0084654Y0085480D02*
X0074446Y0085480D01*
X0074198Y0086078D02*
X0084654Y0086078D01*
X0084654Y0086677D02*
X0073670Y0086677D01*
X0073071Y0087275D02*
X0084654Y0087275D01*
X0084654Y0087874D02*
X0071659Y0087874D01*
X0069578Y0090268D02*
X0062087Y0090268D01*
X0063249Y0090866D02*
X0068416Y0090866D01*
X0067818Y0091465D02*
X0063847Y0091465D01*
X0064272Y0092063D02*
X0067393Y0092063D01*
X0067145Y0092662D02*
X0064520Y0092662D01*
X0064744Y0093260D02*
X0066921Y0093260D01*
X0066921Y0093859D02*
X0064744Y0093859D01*
X0064744Y0094457D02*
X0066921Y0094457D01*
X0067043Y0095056D02*
X0064622Y0095056D01*
X0064374Y0095654D02*
X0067291Y0095654D01*
X0067571Y0096253D02*
X0064094Y0096253D01*
X0063495Y0096851D02*
X0068170Y0096851D01*
X0068982Y0097450D02*
X0062682Y0097450D01*
X0062509Y0100442D02*
X0069156Y0100442D01*
X0068241Y0101041D02*
X0063423Y0101041D01*
X0064022Y0101639D02*
X0067643Y0101639D01*
X0067321Y0102238D02*
X0064344Y0102238D01*
X0064592Y0102836D02*
X0067073Y0102836D01*
X0066921Y0103435D02*
X0064744Y0103435D01*
X0064744Y0104034D02*
X0066921Y0104034D01*
X0066921Y0104632D02*
X0064744Y0104632D01*
X0064549Y0105231D02*
X0067116Y0105231D01*
X0067363Y0105829D02*
X0064302Y0105829D01*
X0063919Y0106428D02*
X0067746Y0106428D01*
X0068344Y0107026D02*
X0063321Y0107026D01*
X0062261Y0107625D02*
X0069404Y0107625D01*
X0073773Y0121390D02*
X0175925Y0121390D01*
X0175327Y0121989D02*
X0074241Y0121989D01*
X0074489Y0122587D02*
X0173462Y0122587D01*
X0172864Y0123186D02*
X0074737Y0123186D01*
X0074744Y0123784D02*
X0172384Y0123784D01*
X0172384Y0124383D02*
X0074744Y0124383D01*
X0074653Y0124981D02*
X0172384Y0124981D01*
X0172484Y0125580D02*
X0074405Y0125580D01*
X0074157Y0126178D02*
X0173083Y0126178D01*
X0191614Y0116602D02*
X0218692Y0116602D01*
X0218692Y0116004D02*
X0191614Y0116004D01*
X0191614Y0115405D02*
X0218692Y0115405D01*
X0218692Y0114807D02*
X0191614Y0114807D01*
X0221737Y0128572D02*
X0024298Y0128572D01*
X0024298Y0129171D02*
X0238233Y0129171D01*
X0238233Y0129770D02*
X0024298Y0129770D01*
X0024298Y0130368D02*
X0238233Y0130368D01*
X0238233Y0130967D02*
X0024298Y0130967D01*
X0024298Y0131565D02*
X0238233Y0131565D01*
X0238233Y0132164D02*
X0024298Y0132164D01*
X0024298Y0132762D02*
X0238233Y0132762D01*
X0238233Y0133361D02*
X0024298Y0133361D01*
X0024298Y0133959D02*
X0238233Y0133959D01*
X0238233Y0134558D02*
X0024298Y0134558D01*
X0024298Y0135156D02*
X0238233Y0135156D01*
X0238233Y0135755D02*
X0024298Y0135755D01*
X0024298Y0136353D02*
X0059908Y0136353D01*
X0060469Y0136121D02*
X0062140Y0136121D01*
X0063684Y0136760D01*
X0064866Y0137942D01*
X0065505Y0139485D01*
X0065505Y0141156D01*
X0064866Y0142700D01*
X0063684Y0143881D01*
X0062140Y0144521D01*
X0060469Y0144521D01*
X0058926Y0143881D01*
X0057744Y0142700D01*
X0057105Y0141156D01*
X0057105Y0139485D01*
X0057744Y0137942D01*
X0058926Y0136760D01*
X0060469Y0136121D01*
X0058734Y0136952D02*
X0024298Y0136952D01*
X0024298Y0137550D02*
X0058136Y0137550D01*
X0057659Y0138149D02*
X0024298Y0138149D01*
X0024298Y0138747D02*
X0057411Y0138747D01*
X0057163Y0139346D02*
X0024298Y0139346D01*
X0024298Y0139944D02*
X0057105Y0139944D01*
X0057105Y0140543D02*
X0024298Y0140543D01*
X0024298Y0141141D02*
X0057105Y0141141D01*
X0057347Y0141740D02*
X0024298Y0141740D01*
X0024298Y0142338D02*
X0057595Y0142338D01*
X0057981Y0142937D02*
X0024298Y0142937D01*
X0024298Y0143535D02*
X0058580Y0143535D01*
X0059535Y0144134D02*
X0024298Y0144134D01*
X0024298Y0144732D02*
X0238233Y0144732D01*
X0238233Y0144134D02*
X0073074Y0144134D01*
X0073684Y0143881D02*
X0072140Y0144521D01*
X0070469Y0144521D01*
X0068926Y0143881D01*
X0067744Y0142700D01*
X0067105Y0141156D01*
X0067105Y0139485D01*
X0067744Y0137942D01*
X0068926Y0136760D01*
X0070469Y0136121D01*
X0072140Y0136121D01*
X0073684Y0136760D01*
X0074866Y0137942D01*
X0075505Y0139485D01*
X0075505Y0141156D01*
X0074866Y0142700D01*
X0073684Y0143881D01*
X0074030Y0143535D02*
X0238233Y0143535D01*
X0238233Y0142937D02*
X0074629Y0142937D01*
X0075015Y0142338D02*
X0238233Y0142338D01*
X0238233Y0141740D02*
X0075263Y0141740D01*
X0075505Y0141141D02*
X0238233Y0141141D01*
X0238233Y0140543D02*
X0075505Y0140543D01*
X0075505Y0139944D02*
X0238233Y0139944D01*
X0238233Y0139346D02*
X0075447Y0139346D01*
X0075199Y0138747D02*
X0238233Y0138747D01*
X0238233Y0138149D02*
X0074951Y0138149D01*
X0074474Y0137550D02*
X0238233Y0137550D01*
X0238233Y0136952D02*
X0073876Y0136952D01*
X0072702Y0136353D02*
X0238233Y0136353D01*
X0238233Y0128572D02*
X0223865Y0128572D01*
X0224464Y0127974D02*
X0238233Y0127974D01*
X0238233Y0127375D02*
X0224990Y0127375D01*
X0224990Y0126777D02*
X0238233Y0126777D01*
X0238233Y0126178D02*
X0224990Y0126178D01*
X0224935Y0125580D02*
X0238233Y0125580D01*
X0238233Y0124981D02*
X0224337Y0124981D01*
X0223738Y0124383D02*
X0238233Y0124383D01*
X0238233Y0145331D02*
X0024298Y0145331D01*
X0024298Y0145929D02*
X0238233Y0145929D01*
X0238233Y0146528D02*
X0024298Y0146528D01*
X0024298Y0147126D02*
X0060038Y0147126D01*
X0060469Y0146947D02*
X0062140Y0146947D01*
X0063684Y0147587D01*
X0064866Y0148768D01*
X0065505Y0150312D01*
X0065505Y0151983D01*
X0064866Y0153527D01*
X0063684Y0154708D01*
X0062140Y0155347D01*
X0060469Y0155347D01*
X0058926Y0154708D01*
X0057744Y0153527D01*
X0057105Y0151983D01*
X0057105Y0150312D01*
X0057744Y0148768D01*
X0058926Y0147587D01*
X0060469Y0146947D01*
X0058788Y0147725D02*
X0024298Y0147725D01*
X0024298Y0148323D02*
X0058189Y0148323D01*
X0057681Y0148922D02*
X0024298Y0148922D01*
X0024298Y0149520D02*
X0057433Y0149520D01*
X0057185Y0150119D02*
X0024298Y0150119D01*
X0024298Y0150717D02*
X0057105Y0150717D01*
X0057105Y0151316D02*
X0024298Y0151316D01*
X0024298Y0151914D02*
X0057105Y0151914D01*
X0057324Y0152513D02*
X0024298Y0152513D01*
X0024298Y0153111D02*
X0057572Y0153111D01*
X0057928Y0153710D02*
X0024298Y0153710D01*
X0024298Y0154308D02*
X0058526Y0154308D01*
X0059406Y0154907D02*
X0024298Y0154907D01*
X0024298Y0155505D02*
X0238233Y0155505D01*
X0238233Y0154907D02*
X0073204Y0154907D01*
X0073684Y0154708D02*
X0072140Y0155347D01*
X0070469Y0155347D01*
X0068926Y0154708D01*
X0067744Y0153527D01*
X0067105Y0151983D01*
X0067105Y0150312D01*
X0067744Y0148768D01*
X0068926Y0147587D01*
X0070469Y0146947D01*
X0072140Y0146947D01*
X0073684Y0147587D01*
X0074866Y0148768D01*
X0075505Y0150312D01*
X0075505Y0151983D01*
X0074866Y0153527D01*
X0073684Y0154708D01*
X0074084Y0154308D02*
X0238233Y0154308D01*
X0238233Y0153710D02*
X0074682Y0153710D01*
X0075037Y0153111D02*
X0238233Y0153111D01*
X0238233Y0152513D02*
X0075285Y0152513D01*
X0075505Y0151914D02*
X0238233Y0151914D01*
X0238233Y0151316D02*
X0075505Y0151316D01*
X0075505Y0150717D02*
X0238233Y0150717D01*
X0238233Y0150119D02*
X0075425Y0150119D01*
X0075177Y0149520D02*
X0238233Y0149520D01*
X0238233Y0148922D02*
X0074929Y0148922D01*
X0074421Y0148323D02*
X0238233Y0148323D01*
X0238233Y0147725D02*
X0073822Y0147725D01*
X0072572Y0147126D02*
X0238233Y0147126D01*
X0238233Y0156104D02*
X0024298Y0156104D01*
X0024298Y0156703D02*
X0238233Y0156703D01*
X0238233Y0157301D02*
X0024298Y0157301D01*
X0024298Y0157900D02*
X0238233Y0157900D01*
X0238233Y0158498D02*
X0024298Y0158498D01*
X0024298Y0159097D02*
X0238233Y0159097D01*
X0238233Y0159695D02*
X0024298Y0159695D01*
X0024298Y0160294D02*
X0238233Y0160294D01*
X0238233Y0160892D02*
X0024298Y0160892D01*
X0024298Y0161491D02*
X0238233Y0161491D01*
X0238233Y0162089D02*
X0024298Y0162089D01*
X0024298Y0162688D02*
X0238233Y0162688D01*
X0238233Y0163286D02*
X0024298Y0163286D01*
X0024298Y0163885D02*
X0028541Y0163885D01*
X0028596Y0163847D02*
X0031646Y0163476D01*
X0034518Y0164566D01*
X0036555Y0166865D01*
X0037290Y0169848D01*
X0036555Y0172831D01*
X0036555Y0172831D01*
X0034518Y0175131D01*
X0031646Y0176220D01*
X0031646Y0176220D01*
X0028596Y0175850D01*
X0028596Y0175850D01*
X0026067Y0174105D01*
X0026067Y0174105D01*
X0024640Y0171384D01*
X0024640Y0168312D01*
X0026067Y0165592D01*
X0026067Y0165592D01*
X0026067Y0165592D01*
X0028596Y0163847D01*
X0028596Y0163847D01*
X0027674Y0164483D02*
X0024298Y0164483D01*
X0024298Y0165082D02*
X0026807Y0165082D01*
X0026021Y0165680D02*
X0024298Y0165680D01*
X0024298Y0166279D02*
X0025707Y0166279D01*
X0025393Y0166877D02*
X0024298Y0166877D01*
X0024298Y0167476D02*
X0025079Y0167476D01*
X0024765Y0168074D02*
X0024298Y0168074D01*
X0024298Y0168673D02*
X0024640Y0168673D01*
X0024640Y0169271D02*
X0024298Y0169271D01*
X0024300Y0169870D02*
X0024640Y0169870D01*
X0024640Y0170468D02*
X0024347Y0170468D01*
X0024441Y0171067D02*
X0024640Y0171067D01*
X0024636Y0171665D02*
X0024787Y0171665D01*
X0024830Y0172264D02*
X0025101Y0172264D01*
X0025036Y0172862D02*
X0025416Y0172862D01*
X0025471Y0173461D02*
X0025730Y0173461D01*
X0025906Y0174059D02*
X0026044Y0174059D01*
X0026446Y0174658D02*
X0026869Y0174658D01*
X0027270Y0175256D02*
X0027736Y0175256D01*
X0028348Y0175855D02*
X0028638Y0175855D01*
X0032608Y0175855D02*
X0229426Y0175855D01*
X0229383Y0175850D02*
X0229383Y0175850D01*
X0226855Y0174105D01*
X0226855Y0174105D01*
X0226855Y0174105D01*
X0225427Y0171384D01*
X0225427Y0168312D01*
X0226855Y0165592D01*
X0229383Y0163847D01*
X0229383Y0163847D01*
X0232433Y0163476D01*
X0235305Y0164566D01*
X0235305Y0164566D01*
X0237343Y0166865D01*
X0237343Y0166865D01*
X0238078Y0169848D01*
X0237343Y0172831D01*
X0237343Y0172831D01*
X0235305Y0175131D01*
X0232433Y0176220D01*
X0232433Y0176220D01*
X0229383Y0175850D01*
X0228524Y0175256D02*
X0034186Y0175256D01*
X0034518Y0175131D02*
X0034518Y0175131D01*
X0034937Y0174658D02*
X0227656Y0174658D01*
X0226831Y0174059D02*
X0035467Y0174059D01*
X0035997Y0173461D02*
X0226517Y0173461D01*
X0226203Y0172862D02*
X0036528Y0172862D01*
X0036695Y0172264D02*
X0225889Y0172264D01*
X0225575Y0171665D02*
X0036843Y0171665D01*
X0036990Y0171067D02*
X0225427Y0171067D01*
X0225427Y0170468D02*
X0037138Y0170468D01*
X0037285Y0169870D02*
X0225427Y0169870D01*
X0225427Y0169271D02*
X0037148Y0169271D01*
X0037001Y0168673D02*
X0225427Y0168673D01*
X0225552Y0168074D02*
X0036853Y0168074D01*
X0036706Y0167476D02*
X0225866Y0167476D01*
X0226180Y0166877D02*
X0036558Y0166877D01*
X0036555Y0166865D02*
X0036555Y0166865D01*
X0036035Y0166279D02*
X0226494Y0166279D01*
X0226809Y0165680D02*
X0035505Y0165680D01*
X0034975Y0165082D02*
X0227594Y0165082D01*
X0226855Y0165592D02*
X0226855Y0165592D01*
X0226855Y0165592D01*
X0228461Y0164483D02*
X0034300Y0164483D01*
X0034518Y0164566D02*
X0034518Y0164566D01*
X0032722Y0163885D02*
X0229328Y0163885D01*
X0232433Y0163476D02*
X0232433Y0163476D01*
X0233509Y0163885D02*
X0238233Y0163885D01*
X0238233Y0164483D02*
X0235087Y0164483D01*
X0235762Y0165082D02*
X0238233Y0165082D01*
X0238233Y0165680D02*
X0236293Y0165680D01*
X0236823Y0166279D02*
X0238233Y0166279D01*
X0238233Y0166877D02*
X0237346Y0166877D01*
X0237493Y0167476D02*
X0238233Y0167476D01*
X0238233Y0168074D02*
X0237641Y0168074D01*
X0237788Y0168673D02*
X0238233Y0168673D01*
X0238233Y0169271D02*
X0237936Y0169271D01*
X0238078Y0169848D02*
X0238078Y0169848D01*
X0238073Y0169870D02*
X0238231Y0169870D01*
X0238184Y0170468D02*
X0237925Y0170468D01*
X0237777Y0171067D02*
X0238090Y0171067D01*
X0237896Y0171665D02*
X0237630Y0171665D01*
X0237701Y0172264D02*
X0237482Y0172264D01*
X0237495Y0172862D02*
X0237315Y0172862D01*
X0237060Y0173461D02*
X0236785Y0173461D01*
X0236625Y0174059D02*
X0236254Y0174059D01*
X0236085Y0174658D02*
X0235724Y0174658D01*
X0235305Y0175131D02*
X0235305Y0175131D01*
X0235261Y0175256D02*
X0234974Y0175256D01*
X0234183Y0175855D02*
X0233396Y0175855D01*
X0110717Y0081889D02*
X0108866Y0081889D01*
X0109465Y0081290D02*
X0110119Y0081290D01*
X0102410Y0063933D02*
X0067198Y0063933D01*
X0067198Y0063335D02*
X0102410Y0063335D01*
X0102410Y0062736D02*
X0067198Y0062736D01*
X0067198Y0062138D02*
X0102410Y0062138D01*
X0102410Y0061539D02*
X0067198Y0061539D01*
X0067198Y0060941D02*
X0102410Y0060941D01*
X0102410Y0060342D02*
X0067198Y0060342D01*
X0067198Y0059744D02*
X0102410Y0059744D01*
X0102410Y0059145D02*
X0067198Y0059145D01*
X0067198Y0058547D02*
X0102410Y0058547D01*
X0102410Y0057948D02*
X0067198Y0057948D01*
X0067198Y0057350D02*
X0102410Y0057350D01*
X0102410Y0056751D02*
X0067198Y0056751D01*
X0067198Y0056153D02*
X0102410Y0056153D01*
X0102410Y0055554D02*
X0067198Y0055554D01*
X0067198Y0054956D02*
X0102410Y0054956D01*
X0102410Y0054357D02*
X0067198Y0054357D01*
X0067198Y0053759D02*
X0102410Y0053759D01*
X0102410Y0053160D02*
X0067198Y0053160D01*
X0067198Y0052562D02*
X0102410Y0052562D01*
X0102410Y0051963D02*
X0067198Y0051963D01*
X0067198Y0051365D02*
X0102410Y0051365D01*
X0102410Y0050766D02*
X0067198Y0050766D01*
X0067198Y0050167D02*
X0102410Y0050167D01*
X0102410Y0049569D02*
X0067198Y0049569D01*
X0067198Y0048970D02*
X0102410Y0048970D01*
X0102410Y0048372D02*
X0067198Y0048372D01*
X0067198Y0047773D02*
X0102410Y0047773D01*
X0102410Y0047175D02*
X0067198Y0047175D01*
X0067198Y0046576D02*
X0102410Y0046576D01*
X0102379Y0045978D02*
X0067198Y0045978D01*
X0079664Y0026826D02*
X0080986Y0026826D01*
X0081153Y0026227D02*
X0079416Y0026227D01*
X0079168Y0025629D02*
X0081412Y0025629D01*
X0081782Y0025030D02*
X0078726Y0025030D01*
X0078127Y0024432D02*
X0082303Y0024432D01*
X0083052Y0023833D02*
X0077036Y0023833D01*
X0058976Y0070517D02*
X0024298Y0070517D01*
X0024298Y0071115D02*
X0058167Y0071115D01*
X0057569Y0071714D02*
X0024298Y0071714D01*
X0024298Y0072312D02*
X0057290Y0072312D01*
X0057042Y0072911D02*
X0024298Y0072911D01*
X0024298Y0073509D02*
X0056921Y0073509D01*
X0056921Y0074108D02*
X0024298Y0074108D01*
X0024298Y0074706D02*
X0056921Y0074706D01*
X0057146Y0075305D02*
X0024298Y0075305D01*
X0024298Y0075903D02*
X0057394Y0075903D01*
X0057820Y0076502D02*
X0024298Y0076502D01*
X0024298Y0077101D02*
X0058419Y0077101D01*
X0059584Y0077699D02*
X0024298Y0077699D01*
X0024298Y0078298D02*
X0084654Y0078298D01*
X0084654Y0078896D02*
X0024298Y0078896D01*
X0073074Y0080692D02*
X0084654Y0080692D01*
X0084654Y0081290D02*
X0073673Y0081290D01*
X0074199Y0081889D02*
X0084654Y0081889D01*
X0084654Y0082487D02*
X0074447Y0082487D01*
X0069908Y0136353D02*
X0062702Y0136353D01*
X0063876Y0136952D02*
X0068734Y0136952D01*
X0068136Y0137550D02*
X0064474Y0137550D01*
X0064951Y0138149D02*
X0067659Y0138149D01*
X0067411Y0138747D02*
X0065199Y0138747D01*
X0065447Y0139346D02*
X0067163Y0139346D01*
X0067105Y0139944D02*
X0065505Y0139944D01*
X0065505Y0140543D02*
X0067105Y0140543D01*
X0067105Y0141141D02*
X0065505Y0141141D01*
X0065263Y0141740D02*
X0067347Y0141740D01*
X0067595Y0142338D02*
X0065015Y0142338D01*
X0064629Y0142937D02*
X0067981Y0142937D01*
X0068580Y0143535D02*
X0064030Y0143535D01*
X0063074Y0144134D02*
X0069535Y0144134D01*
X0070038Y0147126D02*
X0062572Y0147126D01*
X0063822Y0147725D02*
X0068788Y0147725D01*
X0068189Y0148323D02*
X0064421Y0148323D01*
X0064929Y0148922D02*
X0067681Y0148922D01*
X0067433Y0149520D02*
X0065177Y0149520D01*
X0065425Y0150119D02*
X0067185Y0150119D01*
X0067105Y0150717D02*
X0065505Y0150717D01*
X0065505Y0151316D02*
X0067105Y0151316D01*
X0067105Y0151914D02*
X0065505Y0151914D01*
X0065285Y0152513D02*
X0067324Y0152513D01*
X0067572Y0153111D02*
X0065037Y0153111D01*
X0064682Y0153710D02*
X0067928Y0153710D01*
X0068526Y0154308D02*
X0064084Y0154308D01*
X0063204Y0154907D02*
X0069406Y0154907D01*
D17*
X0099873Y0041492D02*
X0095498Y0037117D01*
X0095498Y0027742D01*
X0105498Y0027742D02*
X0105498Y0038367D01*
D18*
X0105498Y0074264D01*
X0111226Y0079992D01*
X0111226Y0080055D01*
X0111979Y0080055D01*
X0107604Y0080055D02*
X0103810Y0076261D01*
X0103810Y0045429D01*
X0099873Y0041492D01*
X0143077Y0079297D02*
X0148418Y0073955D01*
X0179610Y0073955D01*
X0184415Y0076344D02*
X0148982Y0076344D01*
X0146029Y0079297D01*
X0146029Y0084966D01*
X0143077Y0087171D02*
X0143077Y0079297D01*
X0143077Y0087171D02*
X0144061Y0088155D01*
X0091895Y0085203D02*
X0090911Y0085203D01*
X0089927Y0086187D01*
X0089927Y0100951D01*
X0086974Y0103903D01*
D19*
X0174573Y0124573D02*
X0176541Y0122604D01*
X0187368Y0122604D01*
X0190321Y0119651D01*
X0190321Y0077329D01*
X0219986Y0072545D02*
X0219986Y0123726D01*
X0222801Y0126541D01*
M02*
