G75*
%MOIN*%
%OFA0B0*%
%FSLAX25Y25*%
%IPPOS*%
%LPD*%
%AMOC8*
5,1,8,0,0,1.08239X$1,22.5*
%
%ADD10C,0.00001*%
%ADD11C,0.00276*%
%ADD12R,0.08600X0.02200*%
%ADD13R,0.02500X0.05000*%
%ADD14R,0.01600X0.01000*%
%ADD15R,0.04331X0.03937*%
%ADD16R,0.05000X0.02500*%
%ADD17C,0.06600*%
%ADD18R,0.04724X0.04724*%
%ADD19R,0.02500X0.04000*%
%ADD20R,0.01000X0.01600*%
%ADD21C,0.06024*%
%ADD22C,0.01000*%
%ADD23C,0.02578*%
%ADD24C,0.00800*%
%ADD25C,0.00787*%
%ADD26C,0.01600*%
%ADD27C,0.01200*%
%ADD28C,0.00600*%
D10*
X0030872Y0020242D02*
X0231659Y0020242D01*
X0226541Y0028116D02*
X0226543Y0028259D01*
X0226549Y0028402D01*
X0226559Y0028544D01*
X0226573Y0028686D01*
X0226591Y0028828D01*
X0226613Y0028970D01*
X0226638Y0029110D01*
X0226668Y0029250D01*
X0226702Y0029389D01*
X0226739Y0029527D01*
X0226781Y0029664D01*
X0226826Y0029799D01*
X0226875Y0029933D01*
X0226927Y0030066D01*
X0226983Y0030198D01*
X0227043Y0030327D01*
X0227107Y0030455D01*
X0227174Y0030582D01*
X0227245Y0030706D01*
X0227319Y0030828D01*
X0227396Y0030948D01*
X0227477Y0031066D01*
X0227561Y0031182D01*
X0227648Y0031295D01*
X0227738Y0031406D01*
X0227832Y0031514D01*
X0227928Y0031620D01*
X0228027Y0031722D01*
X0228130Y0031822D01*
X0228234Y0031919D01*
X0228342Y0032014D01*
X0228452Y0032105D01*
X0228565Y0032193D01*
X0228680Y0032277D01*
X0228797Y0032359D01*
X0228917Y0032437D01*
X0229038Y0032512D01*
X0229162Y0032584D01*
X0229288Y0032652D01*
X0229415Y0032716D01*
X0229545Y0032777D01*
X0229676Y0032834D01*
X0229808Y0032888D01*
X0229942Y0032937D01*
X0230077Y0032984D01*
X0230214Y0033026D01*
X0230352Y0033064D01*
X0230490Y0033099D01*
X0230630Y0033129D01*
X0230770Y0033156D01*
X0230911Y0033179D01*
X0231053Y0033198D01*
X0231195Y0033213D01*
X0231338Y0033224D01*
X0231480Y0033231D01*
X0231623Y0033234D01*
X0231766Y0033233D01*
X0231909Y0033228D01*
X0232052Y0033219D01*
X0232194Y0033206D01*
X0232336Y0033189D01*
X0232477Y0033168D01*
X0232618Y0033143D01*
X0232758Y0033115D01*
X0232897Y0033082D01*
X0233035Y0033045D01*
X0233172Y0033005D01*
X0233308Y0032961D01*
X0233443Y0032913D01*
X0233576Y0032861D01*
X0233708Y0032806D01*
X0233838Y0032747D01*
X0233967Y0032684D01*
X0234093Y0032618D01*
X0234218Y0032548D01*
X0234341Y0032475D01*
X0234461Y0032399D01*
X0234580Y0032319D01*
X0234696Y0032235D01*
X0234810Y0032149D01*
X0234921Y0032059D01*
X0235030Y0031967D01*
X0235136Y0031871D01*
X0235240Y0031773D01*
X0235341Y0031671D01*
X0235438Y0031567D01*
X0235533Y0031460D01*
X0235625Y0031351D01*
X0235714Y0031239D01*
X0235800Y0031124D01*
X0235882Y0031008D01*
X0235961Y0030888D01*
X0236037Y0030767D01*
X0236109Y0030644D01*
X0236178Y0030519D01*
X0236243Y0030392D01*
X0236305Y0030263D01*
X0236363Y0030132D01*
X0236418Y0030000D01*
X0236468Y0029866D01*
X0236515Y0029731D01*
X0236559Y0029595D01*
X0236598Y0029458D01*
X0236633Y0029319D01*
X0236665Y0029180D01*
X0236693Y0029040D01*
X0236717Y0028899D01*
X0236737Y0028757D01*
X0236753Y0028615D01*
X0236765Y0028473D01*
X0236773Y0028330D01*
X0236777Y0028187D01*
X0236777Y0028045D01*
X0236773Y0027902D01*
X0236765Y0027759D01*
X0236753Y0027617D01*
X0236737Y0027475D01*
X0236717Y0027333D01*
X0236693Y0027192D01*
X0236665Y0027052D01*
X0236633Y0026913D01*
X0236598Y0026774D01*
X0236559Y0026637D01*
X0236515Y0026501D01*
X0236468Y0026366D01*
X0236418Y0026232D01*
X0236363Y0026100D01*
X0236305Y0025969D01*
X0236243Y0025840D01*
X0236178Y0025713D01*
X0236109Y0025588D01*
X0236037Y0025465D01*
X0235961Y0025344D01*
X0235882Y0025224D01*
X0235800Y0025108D01*
X0235714Y0024993D01*
X0235625Y0024881D01*
X0235533Y0024772D01*
X0235438Y0024665D01*
X0235341Y0024561D01*
X0235240Y0024459D01*
X0235136Y0024361D01*
X0235030Y0024265D01*
X0234921Y0024173D01*
X0234810Y0024083D01*
X0234696Y0023997D01*
X0234580Y0023913D01*
X0234461Y0023833D01*
X0234341Y0023757D01*
X0234218Y0023684D01*
X0234093Y0023614D01*
X0233967Y0023548D01*
X0233838Y0023485D01*
X0233708Y0023426D01*
X0233576Y0023371D01*
X0233443Y0023319D01*
X0233308Y0023271D01*
X0233172Y0023227D01*
X0233035Y0023187D01*
X0232897Y0023150D01*
X0232758Y0023117D01*
X0232618Y0023089D01*
X0232477Y0023064D01*
X0232336Y0023043D01*
X0232194Y0023026D01*
X0232052Y0023013D01*
X0231909Y0023004D01*
X0231766Y0022999D01*
X0231623Y0022998D01*
X0231480Y0023001D01*
X0231338Y0023008D01*
X0231195Y0023019D01*
X0231053Y0023034D01*
X0230911Y0023053D01*
X0230770Y0023076D01*
X0230630Y0023103D01*
X0230490Y0023133D01*
X0230352Y0023168D01*
X0230214Y0023206D01*
X0230077Y0023248D01*
X0229942Y0023295D01*
X0229808Y0023344D01*
X0229676Y0023398D01*
X0229545Y0023455D01*
X0229415Y0023516D01*
X0229288Y0023580D01*
X0229162Y0023648D01*
X0229038Y0023720D01*
X0228917Y0023795D01*
X0228797Y0023873D01*
X0228680Y0023955D01*
X0228565Y0024039D01*
X0228452Y0024127D01*
X0228342Y0024218D01*
X0228234Y0024313D01*
X0228130Y0024410D01*
X0228027Y0024510D01*
X0227928Y0024612D01*
X0227832Y0024718D01*
X0227738Y0024826D01*
X0227648Y0024937D01*
X0227561Y0025050D01*
X0227477Y0025166D01*
X0227396Y0025284D01*
X0227319Y0025404D01*
X0227245Y0025526D01*
X0227174Y0025650D01*
X0227107Y0025777D01*
X0227043Y0025905D01*
X0226983Y0026034D01*
X0226927Y0026166D01*
X0226875Y0026299D01*
X0226826Y0026433D01*
X0226781Y0026568D01*
X0226739Y0026705D01*
X0226702Y0026843D01*
X0226668Y0026982D01*
X0226638Y0027122D01*
X0226613Y0027262D01*
X0226591Y0027404D01*
X0226573Y0027546D01*
X0226559Y0027688D01*
X0226549Y0027830D01*
X0226543Y0027973D01*
X0226541Y0028116D01*
X0231659Y0020242D02*
X0231849Y0020244D01*
X0232039Y0020251D01*
X0232229Y0020263D01*
X0232419Y0020279D01*
X0232608Y0020299D01*
X0232797Y0020325D01*
X0232985Y0020354D01*
X0233172Y0020389D01*
X0233358Y0020428D01*
X0233543Y0020471D01*
X0233728Y0020519D01*
X0233911Y0020571D01*
X0234092Y0020627D01*
X0234272Y0020688D01*
X0234451Y0020754D01*
X0234628Y0020823D01*
X0234804Y0020897D01*
X0234977Y0020975D01*
X0235149Y0021058D01*
X0235318Y0021144D01*
X0235486Y0021234D01*
X0235651Y0021329D01*
X0235814Y0021427D01*
X0235974Y0021530D01*
X0236132Y0021636D01*
X0236287Y0021746D01*
X0236440Y0021859D01*
X0236590Y0021977D01*
X0236736Y0022098D01*
X0236880Y0022222D01*
X0237021Y0022350D01*
X0237159Y0022481D01*
X0237294Y0022616D01*
X0237425Y0022754D01*
X0237553Y0022895D01*
X0237677Y0023039D01*
X0237798Y0023185D01*
X0237916Y0023335D01*
X0238029Y0023488D01*
X0238139Y0023643D01*
X0238245Y0023801D01*
X0238348Y0023961D01*
X0238446Y0024124D01*
X0238541Y0024289D01*
X0238631Y0024457D01*
X0238717Y0024626D01*
X0238800Y0024798D01*
X0238878Y0024971D01*
X0238952Y0025147D01*
X0239021Y0025324D01*
X0239087Y0025503D01*
X0239148Y0025683D01*
X0239204Y0025864D01*
X0239256Y0026047D01*
X0239304Y0026232D01*
X0239347Y0026417D01*
X0239386Y0026603D01*
X0239421Y0026790D01*
X0239450Y0026978D01*
X0239476Y0027167D01*
X0239496Y0027356D01*
X0239512Y0027546D01*
X0239524Y0027736D01*
X0239531Y0027926D01*
X0239533Y0028116D01*
X0239533Y0169848D01*
X0226541Y0169848D02*
X0226543Y0169991D01*
X0226549Y0170134D01*
X0226559Y0170276D01*
X0226573Y0170418D01*
X0226591Y0170560D01*
X0226613Y0170702D01*
X0226638Y0170842D01*
X0226668Y0170982D01*
X0226702Y0171121D01*
X0226739Y0171259D01*
X0226781Y0171396D01*
X0226826Y0171531D01*
X0226875Y0171665D01*
X0226927Y0171798D01*
X0226983Y0171930D01*
X0227043Y0172059D01*
X0227107Y0172187D01*
X0227174Y0172314D01*
X0227245Y0172438D01*
X0227319Y0172560D01*
X0227396Y0172680D01*
X0227477Y0172798D01*
X0227561Y0172914D01*
X0227648Y0173027D01*
X0227738Y0173138D01*
X0227832Y0173246D01*
X0227928Y0173352D01*
X0228027Y0173454D01*
X0228130Y0173554D01*
X0228234Y0173651D01*
X0228342Y0173746D01*
X0228452Y0173837D01*
X0228565Y0173925D01*
X0228680Y0174009D01*
X0228797Y0174091D01*
X0228917Y0174169D01*
X0229038Y0174244D01*
X0229162Y0174316D01*
X0229288Y0174384D01*
X0229415Y0174448D01*
X0229545Y0174509D01*
X0229676Y0174566D01*
X0229808Y0174620D01*
X0229942Y0174669D01*
X0230077Y0174716D01*
X0230214Y0174758D01*
X0230352Y0174796D01*
X0230490Y0174831D01*
X0230630Y0174861D01*
X0230770Y0174888D01*
X0230911Y0174911D01*
X0231053Y0174930D01*
X0231195Y0174945D01*
X0231338Y0174956D01*
X0231480Y0174963D01*
X0231623Y0174966D01*
X0231766Y0174965D01*
X0231909Y0174960D01*
X0232052Y0174951D01*
X0232194Y0174938D01*
X0232336Y0174921D01*
X0232477Y0174900D01*
X0232618Y0174875D01*
X0232758Y0174847D01*
X0232897Y0174814D01*
X0233035Y0174777D01*
X0233172Y0174737D01*
X0233308Y0174693D01*
X0233443Y0174645D01*
X0233576Y0174593D01*
X0233708Y0174538D01*
X0233838Y0174479D01*
X0233967Y0174416D01*
X0234093Y0174350D01*
X0234218Y0174280D01*
X0234341Y0174207D01*
X0234461Y0174131D01*
X0234580Y0174051D01*
X0234696Y0173967D01*
X0234810Y0173881D01*
X0234921Y0173791D01*
X0235030Y0173699D01*
X0235136Y0173603D01*
X0235240Y0173505D01*
X0235341Y0173403D01*
X0235438Y0173299D01*
X0235533Y0173192D01*
X0235625Y0173083D01*
X0235714Y0172971D01*
X0235800Y0172856D01*
X0235882Y0172740D01*
X0235961Y0172620D01*
X0236037Y0172499D01*
X0236109Y0172376D01*
X0236178Y0172251D01*
X0236243Y0172124D01*
X0236305Y0171995D01*
X0236363Y0171864D01*
X0236418Y0171732D01*
X0236468Y0171598D01*
X0236515Y0171463D01*
X0236559Y0171327D01*
X0236598Y0171190D01*
X0236633Y0171051D01*
X0236665Y0170912D01*
X0236693Y0170772D01*
X0236717Y0170631D01*
X0236737Y0170489D01*
X0236753Y0170347D01*
X0236765Y0170205D01*
X0236773Y0170062D01*
X0236777Y0169919D01*
X0236777Y0169777D01*
X0236773Y0169634D01*
X0236765Y0169491D01*
X0236753Y0169349D01*
X0236737Y0169207D01*
X0236717Y0169065D01*
X0236693Y0168924D01*
X0236665Y0168784D01*
X0236633Y0168645D01*
X0236598Y0168506D01*
X0236559Y0168369D01*
X0236515Y0168233D01*
X0236468Y0168098D01*
X0236418Y0167964D01*
X0236363Y0167832D01*
X0236305Y0167701D01*
X0236243Y0167572D01*
X0236178Y0167445D01*
X0236109Y0167320D01*
X0236037Y0167197D01*
X0235961Y0167076D01*
X0235882Y0166956D01*
X0235800Y0166840D01*
X0235714Y0166725D01*
X0235625Y0166613D01*
X0235533Y0166504D01*
X0235438Y0166397D01*
X0235341Y0166293D01*
X0235240Y0166191D01*
X0235136Y0166093D01*
X0235030Y0165997D01*
X0234921Y0165905D01*
X0234810Y0165815D01*
X0234696Y0165729D01*
X0234580Y0165645D01*
X0234461Y0165565D01*
X0234341Y0165489D01*
X0234218Y0165416D01*
X0234093Y0165346D01*
X0233967Y0165280D01*
X0233838Y0165217D01*
X0233708Y0165158D01*
X0233576Y0165103D01*
X0233443Y0165051D01*
X0233308Y0165003D01*
X0233172Y0164959D01*
X0233035Y0164919D01*
X0232897Y0164882D01*
X0232758Y0164849D01*
X0232618Y0164821D01*
X0232477Y0164796D01*
X0232336Y0164775D01*
X0232194Y0164758D01*
X0232052Y0164745D01*
X0231909Y0164736D01*
X0231766Y0164731D01*
X0231623Y0164730D01*
X0231480Y0164733D01*
X0231338Y0164740D01*
X0231195Y0164751D01*
X0231053Y0164766D01*
X0230911Y0164785D01*
X0230770Y0164808D01*
X0230630Y0164835D01*
X0230490Y0164865D01*
X0230352Y0164900D01*
X0230214Y0164938D01*
X0230077Y0164980D01*
X0229942Y0165027D01*
X0229808Y0165076D01*
X0229676Y0165130D01*
X0229545Y0165187D01*
X0229415Y0165248D01*
X0229288Y0165312D01*
X0229162Y0165380D01*
X0229038Y0165452D01*
X0228917Y0165527D01*
X0228797Y0165605D01*
X0228680Y0165687D01*
X0228565Y0165771D01*
X0228452Y0165859D01*
X0228342Y0165950D01*
X0228234Y0166045D01*
X0228130Y0166142D01*
X0228027Y0166242D01*
X0227928Y0166344D01*
X0227832Y0166450D01*
X0227738Y0166558D01*
X0227648Y0166669D01*
X0227561Y0166782D01*
X0227477Y0166898D01*
X0227396Y0167016D01*
X0227319Y0167136D01*
X0227245Y0167258D01*
X0227174Y0167382D01*
X0227107Y0167509D01*
X0227043Y0167637D01*
X0226983Y0167766D01*
X0226927Y0167898D01*
X0226875Y0168031D01*
X0226826Y0168165D01*
X0226781Y0168300D01*
X0226739Y0168437D01*
X0226702Y0168575D01*
X0226668Y0168714D01*
X0226638Y0168854D01*
X0226613Y0168994D01*
X0226591Y0169136D01*
X0226573Y0169278D01*
X0226559Y0169420D01*
X0226549Y0169562D01*
X0226543Y0169705D01*
X0226541Y0169848D01*
X0231659Y0177722D02*
X0231849Y0177720D01*
X0232039Y0177713D01*
X0232229Y0177701D01*
X0232419Y0177685D01*
X0232608Y0177665D01*
X0232797Y0177639D01*
X0232985Y0177610D01*
X0233172Y0177575D01*
X0233358Y0177536D01*
X0233543Y0177493D01*
X0233728Y0177445D01*
X0233911Y0177393D01*
X0234092Y0177337D01*
X0234272Y0177276D01*
X0234451Y0177210D01*
X0234628Y0177141D01*
X0234804Y0177067D01*
X0234977Y0176989D01*
X0235149Y0176906D01*
X0235318Y0176820D01*
X0235486Y0176730D01*
X0235651Y0176635D01*
X0235814Y0176537D01*
X0235974Y0176434D01*
X0236132Y0176328D01*
X0236287Y0176218D01*
X0236440Y0176105D01*
X0236590Y0175987D01*
X0236736Y0175866D01*
X0236880Y0175742D01*
X0237021Y0175614D01*
X0237159Y0175483D01*
X0237294Y0175348D01*
X0237425Y0175210D01*
X0237553Y0175069D01*
X0237677Y0174925D01*
X0237798Y0174779D01*
X0237916Y0174629D01*
X0238029Y0174476D01*
X0238139Y0174321D01*
X0238245Y0174163D01*
X0238348Y0174003D01*
X0238446Y0173840D01*
X0238541Y0173675D01*
X0238631Y0173507D01*
X0238717Y0173338D01*
X0238800Y0173166D01*
X0238878Y0172993D01*
X0238952Y0172817D01*
X0239021Y0172640D01*
X0239087Y0172461D01*
X0239148Y0172281D01*
X0239204Y0172100D01*
X0239256Y0171917D01*
X0239304Y0171732D01*
X0239347Y0171547D01*
X0239386Y0171361D01*
X0239421Y0171174D01*
X0239450Y0170986D01*
X0239476Y0170797D01*
X0239496Y0170608D01*
X0239512Y0170418D01*
X0239524Y0170228D01*
X0239531Y0170038D01*
X0239533Y0169848D01*
X0231659Y0177722D02*
X0030872Y0177722D01*
X0025754Y0169848D02*
X0025756Y0169991D01*
X0025762Y0170134D01*
X0025772Y0170276D01*
X0025786Y0170418D01*
X0025804Y0170560D01*
X0025826Y0170702D01*
X0025851Y0170842D01*
X0025881Y0170982D01*
X0025915Y0171121D01*
X0025952Y0171259D01*
X0025994Y0171396D01*
X0026039Y0171531D01*
X0026088Y0171665D01*
X0026140Y0171798D01*
X0026196Y0171930D01*
X0026256Y0172059D01*
X0026320Y0172187D01*
X0026387Y0172314D01*
X0026458Y0172438D01*
X0026532Y0172560D01*
X0026609Y0172680D01*
X0026690Y0172798D01*
X0026774Y0172914D01*
X0026861Y0173027D01*
X0026951Y0173138D01*
X0027045Y0173246D01*
X0027141Y0173352D01*
X0027240Y0173454D01*
X0027343Y0173554D01*
X0027447Y0173651D01*
X0027555Y0173746D01*
X0027665Y0173837D01*
X0027778Y0173925D01*
X0027893Y0174009D01*
X0028010Y0174091D01*
X0028130Y0174169D01*
X0028251Y0174244D01*
X0028375Y0174316D01*
X0028501Y0174384D01*
X0028628Y0174448D01*
X0028758Y0174509D01*
X0028889Y0174566D01*
X0029021Y0174620D01*
X0029155Y0174669D01*
X0029290Y0174716D01*
X0029427Y0174758D01*
X0029565Y0174796D01*
X0029703Y0174831D01*
X0029843Y0174861D01*
X0029983Y0174888D01*
X0030124Y0174911D01*
X0030266Y0174930D01*
X0030408Y0174945D01*
X0030551Y0174956D01*
X0030693Y0174963D01*
X0030836Y0174966D01*
X0030979Y0174965D01*
X0031122Y0174960D01*
X0031265Y0174951D01*
X0031407Y0174938D01*
X0031549Y0174921D01*
X0031690Y0174900D01*
X0031831Y0174875D01*
X0031971Y0174847D01*
X0032110Y0174814D01*
X0032248Y0174777D01*
X0032385Y0174737D01*
X0032521Y0174693D01*
X0032656Y0174645D01*
X0032789Y0174593D01*
X0032921Y0174538D01*
X0033051Y0174479D01*
X0033180Y0174416D01*
X0033306Y0174350D01*
X0033431Y0174280D01*
X0033554Y0174207D01*
X0033674Y0174131D01*
X0033793Y0174051D01*
X0033909Y0173967D01*
X0034023Y0173881D01*
X0034134Y0173791D01*
X0034243Y0173699D01*
X0034349Y0173603D01*
X0034453Y0173505D01*
X0034554Y0173403D01*
X0034651Y0173299D01*
X0034746Y0173192D01*
X0034838Y0173083D01*
X0034927Y0172971D01*
X0035013Y0172856D01*
X0035095Y0172740D01*
X0035174Y0172620D01*
X0035250Y0172499D01*
X0035322Y0172376D01*
X0035391Y0172251D01*
X0035456Y0172124D01*
X0035518Y0171995D01*
X0035576Y0171864D01*
X0035631Y0171732D01*
X0035681Y0171598D01*
X0035728Y0171463D01*
X0035772Y0171327D01*
X0035811Y0171190D01*
X0035846Y0171051D01*
X0035878Y0170912D01*
X0035906Y0170772D01*
X0035930Y0170631D01*
X0035950Y0170489D01*
X0035966Y0170347D01*
X0035978Y0170205D01*
X0035986Y0170062D01*
X0035990Y0169919D01*
X0035990Y0169777D01*
X0035986Y0169634D01*
X0035978Y0169491D01*
X0035966Y0169349D01*
X0035950Y0169207D01*
X0035930Y0169065D01*
X0035906Y0168924D01*
X0035878Y0168784D01*
X0035846Y0168645D01*
X0035811Y0168506D01*
X0035772Y0168369D01*
X0035728Y0168233D01*
X0035681Y0168098D01*
X0035631Y0167964D01*
X0035576Y0167832D01*
X0035518Y0167701D01*
X0035456Y0167572D01*
X0035391Y0167445D01*
X0035322Y0167320D01*
X0035250Y0167197D01*
X0035174Y0167076D01*
X0035095Y0166956D01*
X0035013Y0166840D01*
X0034927Y0166725D01*
X0034838Y0166613D01*
X0034746Y0166504D01*
X0034651Y0166397D01*
X0034554Y0166293D01*
X0034453Y0166191D01*
X0034349Y0166093D01*
X0034243Y0165997D01*
X0034134Y0165905D01*
X0034023Y0165815D01*
X0033909Y0165729D01*
X0033793Y0165645D01*
X0033674Y0165565D01*
X0033554Y0165489D01*
X0033431Y0165416D01*
X0033306Y0165346D01*
X0033180Y0165280D01*
X0033051Y0165217D01*
X0032921Y0165158D01*
X0032789Y0165103D01*
X0032656Y0165051D01*
X0032521Y0165003D01*
X0032385Y0164959D01*
X0032248Y0164919D01*
X0032110Y0164882D01*
X0031971Y0164849D01*
X0031831Y0164821D01*
X0031690Y0164796D01*
X0031549Y0164775D01*
X0031407Y0164758D01*
X0031265Y0164745D01*
X0031122Y0164736D01*
X0030979Y0164731D01*
X0030836Y0164730D01*
X0030693Y0164733D01*
X0030551Y0164740D01*
X0030408Y0164751D01*
X0030266Y0164766D01*
X0030124Y0164785D01*
X0029983Y0164808D01*
X0029843Y0164835D01*
X0029703Y0164865D01*
X0029565Y0164900D01*
X0029427Y0164938D01*
X0029290Y0164980D01*
X0029155Y0165027D01*
X0029021Y0165076D01*
X0028889Y0165130D01*
X0028758Y0165187D01*
X0028628Y0165248D01*
X0028501Y0165312D01*
X0028375Y0165380D01*
X0028251Y0165452D01*
X0028130Y0165527D01*
X0028010Y0165605D01*
X0027893Y0165687D01*
X0027778Y0165771D01*
X0027665Y0165859D01*
X0027555Y0165950D01*
X0027447Y0166045D01*
X0027343Y0166142D01*
X0027240Y0166242D01*
X0027141Y0166344D01*
X0027045Y0166450D01*
X0026951Y0166558D01*
X0026861Y0166669D01*
X0026774Y0166782D01*
X0026690Y0166898D01*
X0026609Y0167016D01*
X0026532Y0167136D01*
X0026458Y0167258D01*
X0026387Y0167382D01*
X0026320Y0167509D01*
X0026256Y0167637D01*
X0026196Y0167766D01*
X0026140Y0167898D01*
X0026088Y0168031D01*
X0026039Y0168165D01*
X0025994Y0168300D01*
X0025952Y0168437D01*
X0025915Y0168575D01*
X0025881Y0168714D01*
X0025851Y0168854D01*
X0025826Y0168994D01*
X0025804Y0169136D01*
X0025786Y0169278D01*
X0025772Y0169420D01*
X0025762Y0169562D01*
X0025756Y0169705D01*
X0025754Y0169848D01*
X0022998Y0169848D02*
X0022998Y0028116D01*
X0025754Y0028116D02*
X0025756Y0028259D01*
X0025762Y0028402D01*
X0025772Y0028544D01*
X0025786Y0028686D01*
X0025804Y0028828D01*
X0025826Y0028970D01*
X0025851Y0029110D01*
X0025881Y0029250D01*
X0025915Y0029389D01*
X0025952Y0029527D01*
X0025994Y0029664D01*
X0026039Y0029799D01*
X0026088Y0029933D01*
X0026140Y0030066D01*
X0026196Y0030198D01*
X0026256Y0030327D01*
X0026320Y0030455D01*
X0026387Y0030582D01*
X0026458Y0030706D01*
X0026532Y0030828D01*
X0026609Y0030948D01*
X0026690Y0031066D01*
X0026774Y0031182D01*
X0026861Y0031295D01*
X0026951Y0031406D01*
X0027045Y0031514D01*
X0027141Y0031620D01*
X0027240Y0031722D01*
X0027343Y0031822D01*
X0027447Y0031919D01*
X0027555Y0032014D01*
X0027665Y0032105D01*
X0027778Y0032193D01*
X0027893Y0032277D01*
X0028010Y0032359D01*
X0028130Y0032437D01*
X0028251Y0032512D01*
X0028375Y0032584D01*
X0028501Y0032652D01*
X0028628Y0032716D01*
X0028758Y0032777D01*
X0028889Y0032834D01*
X0029021Y0032888D01*
X0029155Y0032937D01*
X0029290Y0032984D01*
X0029427Y0033026D01*
X0029565Y0033064D01*
X0029703Y0033099D01*
X0029843Y0033129D01*
X0029983Y0033156D01*
X0030124Y0033179D01*
X0030266Y0033198D01*
X0030408Y0033213D01*
X0030551Y0033224D01*
X0030693Y0033231D01*
X0030836Y0033234D01*
X0030979Y0033233D01*
X0031122Y0033228D01*
X0031265Y0033219D01*
X0031407Y0033206D01*
X0031549Y0033189D01*
X0031690Y0033168D01*
X0031831Y0033143D01*
X0031971Y0033115D01*
X0032110Y0033082D01*
X0032248Y0033045D01*
X0032385Y0033005D01*
X0032521Y0032961D01*
X0032656Y0032913D01*
X0032789Y0032861D01*
X0032921Y0032806D01*
X0033051Y0032747D01*
X0033180Y0032684D01*
X0033306Y0032618D01*
X0033431Y0032548D01*
X0033554Y0032475D01*
X0033674Y0032399D01*
X0033793Y0032319D01*
X0033909Y0032235D01*
X0034023Y0032149D01*
X0034134Y0032059D01*
X0034243Y0031967D01*
X0034349Y0031871D01*
X0034453Y0031773D01*
X0034554Y0031671D01*
X0034651Y0031567D01*
X0034746Y0031460D01*
X0034838Y0031351D01*
X0034927Y0031239D01*
X0035013Y0031124D01*
X0035095Y0031008D01*
X0035174Y0030888D01*
X0035250Y0030767D01*
X0035322Y0030644D01*
X0035391Y0030519D01*
X0035456Y0030392D01*
X0035518Y0030263D01*
X0035576Y0030132D01*
X0035631Y0030000D01*
X0035681Y0029866D01*
X0035728Y0029731D01*
X0035772Y0029595D01*
X0035811Y0029458D01*
X0035846Y0029319D01*
X0035878Y0029180D01*
X0035906Y0029040D01*
X0035930Y0028899D01*
X0035950Y0028757D01*
X0035966Y0028615D01*
X0035978Y0028473D01*
X0035986Y0028330D01*
X0035990Y0028187D01*
X0035990Y0028045D01*
X0035986Y0027902D01*
X0035978Y0027759D01*
X0035966Y0027617D01*
X0035950Y0027475D01*
X0035930Y0027333D01*
X0035906Y0027192D01*
X0035878Y0027052D01*
X0035846Y0026913D01*
X0035811Y0026774D01*
X0035772Y0026637D01*
X0035728Y0026501D01*
X0035681Y0026366D01*
X0035631Y0026232D01*
X0035576Y0026100D01*
X0035518Y0025969D01*
X0035456Y0025840D01*
X0035391Y0025713D01*
X0035322Y0025588D01*
X0035250Y0025465D01*
X0035174Y0025344D01*
X0035095Y0025224D01*
X0035013Y0025108D01*
X0034927Y0024993D01*
X0034838Y0024881D01*
X0034746Y0024772D01*
X0034651Y0024665D01*
X0034554Y0024561D01*
X0034453Y0024459D01*
X0034349Y0024361D01*
X0034243Y0024265D01*
X0034134Y0024173D01*
X0034023Y0024083D01*
X0033909Y0023997D01*
X0033793Y0023913D01*
X0033674Y0023833D01*
X0033554Y0023757D01*
X0033431Y0023684D01*
X0033306Y0023614D01*
X0033180Y0023548D01*
X0033051Y0023485D01*
X0032921Y0023426D01*
X0032789Y0023371D01*
X0032656Y0023319D01*
X0032521Y0023271D01*
X0032385Y0023227D01*
X0032248Y0023187D01*
X0032110Y0023150D01*
X0031971Y0023117D01*
X0031831Y0023089D01*
X0031690Y0023064D01*
X0031549Y0023043D01*
X0031407Y0023026D01*
X0031265Y0023013D01*
X0031122Y0023004D01*
X0030979Y0022999D01*
X0030836Y0022998D01*
X0030693Y0023001D01*
X0030551Y0023008D01*
X0030408Y0023019D01*
X0030266Y0023034D01*
X0030124Y0023053D01*
X0029983Y0023076D01*
X0029843Y0023103D01*
X0029703Y0023133D01*
X0029565Y0023168D01*
X0029427Y0023206D01*
X0029290Y0023248D01*
X0029155Y0023295D01*
X0029021Y0023344D01*
X0028889Y0023398D01*
X0028758Y0023455D01*
X0028628Y0023516D01*
X0028501Y0023580D01*
X0028375Y0023648D01*
X0028251Y0023720D01*
X0028130Y0023795D01*
X0028010Y0023873D01*
X0027893Y0023955D01*
X0027778Y0024039D01*
X0027665Y0024127D01*
X0027555Y0024218D01*
X0027447Y0024313D01*
X0027343Y0024410D01*
X0027240Y0024510D01*
X0027141Y0024612D01*
X0027045Y0024718D01*
X0026951Y0024826D01*
X0026861Y0024937D01*
X0026774Y0025050D01*
X0026690Y0025166D01*
X0026609Y0025284D01*
X0026532Y0025404D01*
X0026458Y0025526D01*
X0026387Y0025650D01*
X0026320Y0025777D01*
X0026256Y0025905D01*
X0026196Y0026034D01*
X0026140Y0026166D01*
X0026088Y0026299D01*
X0026039Y0026433D01*
X0025994Y0026568D01*
X0025952Y0026705D01*
X0025915Y0026843D01*
X0025881Y0026982D01*
X0025851Y0027122D01*
X0025826Y0027262D01*
X0025804Y0027404D01*
X0025786Y0027546D01*
X0025772Y0027688D01*
X0025762Y0027830D01*
X0025756Y0027973D01*
X0025754Y0028116D01*
X0022998Y0028116D02*
X0023000Y0027926D01*
X0023007Y0027736D01*
X0023019Y0027546D01*
X0023035Y0027356D01*
X0023055Y0027167D01*
X0023081Y0026978D01*
X0023110Y0026790D01*
X0023145Y0026603D01*
X0023184Y0026417D01*
X0023227Y0026232D01*
X0023275Y0026047D01*
X0023327Y0025864D01*
X0023383Y0025683D01*
X0023444Y0025503D01*
X0023510Y0025324D01*
X0023579Y0025147D01*
X0023653Y0024971D01*
X0023731Y0024798D01*
X0023814Y0024626D01*
X0023900Y0024457D01*
X0023990Y0024289D01*
X0024085Y0024124D01*
X0024183Y0023961D01*
X0024286Y0023801D01*
X0024392Y0023643D01*
X0024502Y0023488D01*
X0024615Y0023335D01*
X0024733Y0023185D01*
X0024854Y0023039D01*
X0024978Y0022895D01*
X0025106Y0022754D01*
X0025237Y0022616D01*
X0025372Y0022481D01*
X0025510Y0022350D01*
X0025651Y0022222D01*
X0025795Y0022098D01*
X0025941Y0021977D01*
X0026091Y0021859D01*
X0026244Y0021746D01*
X0026399Y0021636D01*
X0026557Y0021530D01*
X0026717Y0021427D01*
X0026880Y0021329D01*
X0027045Y0021234D01*
X0027213Y0021144D01*
X0027382Y0021058D01*
X0027554Y0020975D01*
X0027727Y0020897D01*
X0027903Y0020823D01*
X0028080Y0020754D01*
X0028259Y0020688D01*
X0028439Y0020627D01*
X0028620Y0020571D01*
X0028803Y0020519D01*
X0028988Y0020471D01*
X0029173Y0020428D01*
X0029359Y0020389D01*
X0029546Y0020354D01*
X0029734Y0020325D01*
X0029923Y0020299D01*
X0030112Y0020279D01*
X0030302Y0020263D01*
X0030492Y0020251D01*
X0030682Y0020244D01*
X0030872Y0020242D01*
X0022998Y0169848D02*
X0023000Y0170038D01*
X0023007Y0170228D01*
X0023019Y0170418D01*
X0023035Y0170608D01*
X0023055Y0170797D01*
X0023081Y0170986D01*
X0023110Y0171174D01*
X0023145Y0171361D01*
X0023184Y0171547D01*
X0023227Y0171732D01*
X0023275Y0171917D01*
X0023327Y0172100D01*
X0023383Y0172281D01*
X0023444Y0172461D01*
X0023510Y0172640D01*
X0023579Y0172817D01*
X0023653Y0172993D01*
X0023731Y0173166D01*
X0023814Y0173338D01*
X0023900Y0173507D01*
X0023990Y0173675D01*
X0024085Y0173840D01*
X0024183Y0174003D01*
X0024286Y0174163D01*
X0024392Y0174321D01*
X0024502Y0174476D01*
X0024615Y0174629D01*
X0024733Y0174779D01*
X0024854Y0174925D01*
X0024978Y0175069D01*
X0025106Y0175210D01*
X0025237Y0175348D01*
X0025372Y0175483D01*
X0025510Y0175614D01*
X0025651Y0175742D01*
X0025795Y0175866D01*
X0025941Y0175987D01*
X0026091Y0176105D01*
X0026244Y0176218D01*
X0026399Y0176328D01*
X0026557Y0176434D01*
X0026717Y0176537D01*
X0026880Y0176635D01*
X0027045Y0176730D01*
X0027213Y0176820D01*
X0027382Y0176906D01*
X0027554Y0176989D01*
X0027727Y0177067D01*
X0027903Y0177141D01*
X0028080Y0177210D01*
X0028259Y0177276D01*
X0028439Y0177337D01*
X0028620Y0177393D01*
X0028803Y0177445D01*
X0028988Y0177493D01*
X0029173Y0177536D01*
X0029359Y0177575D01*
X0029546Y0177610D01*
X0029734Y0177639D01*
X0029923Y0177665D01*
X0030112Y0177685D01*
X0030302Y0177701D01*
X0030492Y0177713D01*
X0030682Y0177720D01*
X0030872Y0177722D01*
D11*
X0190528Y0061581D02*
X0196038Y0061581D01*
X0190528Y0061581D02*
X0190528Y0062407D01*
X0196038Y0062407D01*
X0196038Y0061581D01*
X0196038Y0061843D02*
X0190528Y0061843D01*
X0190528Y0062105D02*
X0196038Y0062105D01*
X0196038Y0062367D02*
X0190528Y0062367D01*
X0190528Y0059612D02*
X0196038Y0059612D01*
X0190528Y0059612D02*
X0190528Y0060438D01*
X0196038Y0060438D01*
X0196038Y0059612D01*
X0196038Y0059874D02*
X0190528Y0059874D01*
X0190528Y0060136D02*
X0196038Y0060136D01*
X0196038Y0060398D02*
X0190528Y0060398D01*
X0190528Y0057644D02*
X0196038Y0057644D01*
X0190528Y0057644D02*
X0190528Y0058470D01*
X0196038Y0058470D01*
X0196038Y0057644D01*
X0196038Y0057906D02*
X0190528Y0057906D01*
X0190528Y0058168D02*
X0196038Y0058168D01*
X0196038Y0058430D02*
X0190528Y0058430D01*
X0190528Y0055675D02*
X0196038Y0055675D01*
X0190528Y0055675D02*
X0190528Y0056501D01*
X0196038Y0056501D01*
X0196038Y0055675D01*
X0196038Y0055937D02*
X0190528Y0055937D01*
X0190528Y0056199D02*
X0196038Y0056199D01*
X0196038Y0056461D02*
X0190528Y0056461D01*
X0190528Y0053707D02*
X0196038Y0053707D01*
X0190528Y0053707D02*
X0190528Y0054533D01*
X0196038Y0054533D01*
X0196038Y0053707D01*
X0196038Y0053969D02*
X0190528Y0053969D01*
X0190528Y0054231D02*
X0196038Y0054231D01*
X0196038Y0054493D02*
X0190528Y0054493D01*
X0207457Y0053707D02*
X0212967Y0053707D01*
X0207457Y0053707D02*
X0207457Y0054533D01*
X0212967Y0054533D01*
X0212967Y0053707D01*
X0212967Y0053969D02*
X0207457Y0053969D01*
X0207457Y0054231D02*
X0212967Y0054231D01*
X0212967Y0054493D02*
X0207457Y0054493D01*
X0207457Y0055675D02*
X0212967Y0055675D01*
X0207457Y0055675D02*
X0207457Y0056501D01*
X0212967Y0056501D01*
X0212967Y0055675D01*
X0212967Y0055937D02*
X0207457Y0055937D01*
X0207457Y0056199D02*
X0212967Y0056199D01*
X0212967Y0056461D02*
X0207457Y0056461D01*
X0207457Y0057644D02*
X0212967Y0057644D01*
X0207457Y0057644D02*
X0207457Y0058470D01*
X0212967Y0058470D01*
X0212967Y0057644D01*
X0212967Y0057906D02*
X0207457Y0057906D01*
X0207457Y0058168D02*
X0212967Y0058168D01*
X0212967Y0058430D02*
X0207457Y0058430D01*
X0207457Y0059612D02*
X0212967Y0059612D01*
X0207457Y0059612D02*
X0207457Y0060438D01*
X0212967Y0060438D01*
X0212967Y0059612D01*
X0212967Y0059874D02*
X0207457Y0059874D01*
X0207457Y0060136D02*
X0212967Y0060136D01*
X0212967Y0060398D02*
X0207457Y0060398D01*
X0207457Y0061581D02*
X0212967Y0061581D01*
X0207457Y0061581D02*
X0207457Y0062407D01*
X0212967Y0062407D01*
X0212967Y0061581D01*
X0212967Y0061843D02*
X0207457Y0061843D01*
X0207457Y0062105D02*
X0212967Y0062105D01*
X0212967Y0062367D02*
X0207457Y0062367D01*
D12*
X0202674Y0084966D03*
X0202674Y0089966D03*
X0202674Y0094966D03*
X0202674Y0099966D03*
X0202674Y0104966D03*
X0202674Y0109966D03*
X0202674Y0114966D03*
X0221274Y0114966D03*
X0221274Y0109966D03*
X0221274Y0104966D03*
X0221274Y0099966D03*
X0221274Y0094966D03*
X0221274Y0089966D03*
X0221274Y0084966D03*
X0170093Y0084966D03*
X0170093Y0089966D03*
X0170093Y0094966D03*
X0170093Y0099966D03*
X0170093Y0104966D03*
X0170093Y0109966D03*
X0170093Y0114966D03*
X0151493Y0114966D03*
X0151493Y0109966D03*
X0151493Y0104966D03*
X0151493Y0099966D03*
X0151493Y0094966D03*
X0151493Y0089966D03*
X0151493Y0084966D03*
X0118912Y0084966D03*
X0118912Y0089966D03*
X0118912Y0094966D03*
X0118912Y0099966D03*
X0118912Y0104966D03*
X0118912Y0109966D03*
X0118912Y0114966D03*
X0100312Y0114966D03*
X0100312Y0109966D03*
X0100312Y0104966D03*
X0100312Y0099966D03*
X0100312Y0094966D03*
X0100312Y0089966D03*
X0100312Y0084966D03*
D13*
X0090943Y0095045D03*
X0086943Y0095045D03*
X0083069Y0097014D03*
X0079069Y0097014D03*
X0079069Y0103903D03*
X0083069Y0103903D03*
X0127297Y0091108D03*
X0131297Y0091108D03*
X0131297Y0085203D03*
X0127297Y0085203D03*
X0140092Y0095045D03*
X0144092Y0095045D03*
X0178478Y0091108D03*
X0182478Y0091108D03*
X0182478Y0085203D03*
X0178478Y0085203D03*
X0191273Y0095045D03*
X0195273Y0095045D03*
X0229659Y0091108D03*
X0233659Y0091108D03*
X0233659Y0085203D03*
X0229659Y0085203D03*
X0186415Y0061581D03*
X0182415Y0061581D03*
D14*
X0184415Y0061581D03*
X0180478Y0085203D03*
X0180478Y0091108D03*
X0193273Y0095045D03*
X0231659Y0091108D03*
X0231659Y0085203D03*
X0142092Y0095045D03*
X0129297Y0091108D03*
X0129297Y0085203D03*
X0088943Y0095045D03*
X0081069Y0097014D03*
X0081069Y0103903D03*
D15*
X0107250Y0121620D03*
X0113943Y0121620D03*
X0159415Y0121620D03*
X0166108Y0121620D03*
X0208628Y0121620D03*
X0215321Y0121620D03*
X0205094Y0048057D03*
X0198401Y0048057D03*
X0041344Y0052742D03*
X0034651Y0052742D03*
X0034651Y0062742D03*
X0041344Y0062742D03*
X0041344Y0042742D03*
X0034651Y0042742D03*
D16*
X0086974Y0112146D03*
X0086974Y0115346D03*
X0091895Y0123557D03*
X0091895Y0127557D03*
X0134218Y0115346D03*
X0134218Y0112146D03*
X0173008Y0078185D03*
X0173008Y0074985D03*
X0192289Y0112146D03*
X0192289Y0115346D03*
D17*
X0071305Y0140321D03*
X0061305Y0140321D03*
X0061305Y0151147D03*
X0071305Y0151147D03*
X0075498Y0027742D03*
X0065498Y0027742D03*
X0085498Y0027742D03*
X0095498Y0027742D03*
X0105498Y0027742D03*
X0115498Y0027742D03*
X0125498Y0027742D03*
X0135498Y0027742D03*
X0145498Y0027742D03*
X0155498Y0027742D03*
X0165498Y0027742D03*
X0175498Y0027742D03*
X0185498Y0027742D03*
X0195498Y0027742D03*
X0205498Y0027742D03*
D18*
X0059632Y0060242D03*
X0051364Y0060242D03*
D19*
X0174769Y0129494D03*
X0182250Y0129494D03*
X0178510Y0137368D03*
X0222998Y0129494D03*
X0230478Y0129494D03*
X0226738Y0137368D03*
D20*
X0091895Y0125557D03*
D21*
X0070832Y0123982D03*
X0060832Y0123982D03*
X0060832Y0113982D03*
X0070832Y0113982D03*
X0070832Y0103982D03*
X0060832Y0103982D03*
X0060832Y0093982D03*
X0070832Y0093982D03*
X0070832Y0083982D03*
X0060832Y0083982D03*
X0060832Y0073982D03*
X0070832Y0073982D03*
D22*
X0083069Y0088124D02*
X0085006Y0086187D01*
X0088943Y0086187D01*
X0092722Y0089966D01*
X0100312Y0089966D01*
X0105818Y0089966D01*
X0110104Y0085680D01*
X0110104Y0082555D01*
X0111979Y0080680D01*
X0111979Y0080055D01*
X0135960Y0080055D01*
X0144061Y0088155D01*
X0145872Y0089966D01*
X0151493Y0089966D01*
X0151493Y0084966D02*
X0146029Y0084966D01*
X0144119Y0084966D01*
X0137465Y0078313D01*
X0113616Y0078313D01*
X0112969Y0077666D01*
X0110259Y0077666D01*
X0107870Y0080055D01*
X0107604Y0080055D01*
X0107604Y0082555D01*
X0105193Y0084966D01*
X0100312Y0084966D01*
X0092132Y0084966D01*
X0091895Y0085203D01*
X0083069Y0088124D02*
X0083069Y0097014D01*
X0079069Y0097014D02*
X0076147Y0097014D01*
X0074179Y0098982D01*
X0062368Y0098982D01*
X0060832Y0100518D01*
X0060832Y0103982D01*
X0070832Y0103982D02*
X0070911Y0103903D01*
X0079069Y0103903D01*
X0083069Y0103903D02*
X0086974Y0103903D01*
X0090943Y0095045D02*
X0091021Y0094966D01*
X0100312Y0094966D01*
X0100312Y0099966D02*
X0104691Y0099966D01*
X0105675Y0100951D01*
X0105675Y0103374D01*
X0105712Y0103411D01*
X0105712Y0117720D01*
X0107250Y0119258D01*
X0107250Y0121620D01*
X0105675Y0100951D02*
X0106659Y0099966D01*
X0107644Y0099966D01*
X0118912Y0089966D02*
X0124391Y0089966D01*
X0125532Y0091108D01*
X0127297Y0091108D01*
X0127297Y0085203D02*
X0127061Y0084966D01*
X0118912Y0084966D01*
X0140092Y0095045D02*
X0140092Y0096982D01*
X0143077Y0099966D01*
X0145045Y0099966D01*
X0144092Y0095045D02*
X0153383Y0095045D01*
X0151493Y0094966D01*
X0170093Y0089966D02*
X0175399Y0089966D01*
X0176541Y0091108D01*
X0178478Y0091108D01*
X0182478Y0091108D02*
X0186384Y0091108D01*
X0187368Y0092092D01*
X0187368Y0094061D01*
X0188352Y0095045D01*
X0191273Y0095045D01*
X0191273Y0097966D01*
X0193273Y0099966D01*
X0202674Y0099966D01*
X0208037Y0099966D01*
X0210006Y0097998D01*
X0210006Y0082250D01*
X0211974Y0080281D01*
X0231659Y0080281D01*
X0233659Y0082281D01*
X0233659Y0085203D01*
X0229659Y0091108D02*
X0226738Y0091108D01*
X0225596Y0089966D01*
X0221274Y0089966D01*
X0210006Y0101935D02*
X0208037Y0099966D01*
X0210006Y0101935D02*
X0210006Y0116699D01*
X0208628Y0118077D01*
X0208628Y0121620D01*
X0182478Y0097966D02*
X0180478Y0099966D01*
X0182478Y0097966D02*
X0182478Y0091108D01*
X0178478Y0085203D02*
X0178242Y0084966D01*
X0170093Y0084966D01*
X0163746Y0081266D02*
X0163746Y0114730D01*
X0162762Y0115714D01*
X0195273Y0095045D02*
X0195352Y0094966D01*
X0202674Y0094966D01*
X0202674Y0089966D02*
X0196759Y0089966D01*
X0185526Y0078733D01*
X0182867Y0078733D01*
X0180478Y0076344D01*
X0180478Y0074823D01*
X0179610Y0073955D01*
X0184415Y0076344D02*
X0185399Y0076344D01*
X0194021Y0084966D01*
X0202674Y0084966D01*
X0173008Y0078185D02*
X0166826Y0078185D01*
X0163746Y0081266D01*
X0173008Y0074985D02*
X0173008Y0063569D01*
X0180488Y0056088D01*
X0193283Y0056088D01*
X0105498Y0030867D02*
X0105498Y0027742D01*
X0105498Y0030867D02*
X0102373Y0033992D01*
X0095261Y0033992D01*
X0093661Y0035592D01*
X0079673Y0035592D01*
X0073698Y0041567D01*
X0048311Y0041567D01*
X0046123Y0043755D01*
X0046123Y0050867D01*
X0044248Y0052742D01*
X0041344Y0052742D01*
X0034651Y0052742D02*
X0034651Y0062742D01*
X0041344Y0062742D02*
X0045498Y0062742D01*
X0047998Y0060242D01*
X0051364Y0060242D01*
X0034651Y0052742D02*
X0034651Y0042742D01*
X0041344Y0042742D02*
X0044873Y0042742D01*
X0047648Y0039967D01*
X0073036Y0039967D01*
X0079011Y0033992D01*
X0092998Y0033992D01*
X0095498Y0031492D01*
X0095498Y0027742D01*
X0086329Y0094099D02*
X0086329Y0094432D01*
D23*
X0086354Y0089430D03*
X0091895Y0085203D03*
X0107604Y0080055D03*
X0111979Y0080055D03*
X0108318Y0094351D03*
X0109612Y0099966D03*
X0109302Y0111083D03*
X0126344Y0115714D03*
X0135877Y0128800D03*
X0107447Y0130163D03*
X0101428Y0140611D03*
X0088943Y0118667D03*
X0086974Y0103903D03*
X0126034Y0096320D03*
X0139814Y0104194D03*
X0145045Y0099966D03*
X0158825Y0100951D03*
X0162762Y0115714D03*
X0174573Y0124573D03*
X0178588Y0126497D03*
X0187368Y0115714D03*
X0180478Y0099966D03*
X0190321Y0077329D03*
X0184415Y0076344D03*
X0179610Y0073955D03*
X0177452Y0068667D03*
X0176748Y0049932D03*
X0219986Y0072545D03*
X0230419Y0048185D03*
X0146029Y0084966D03*
X0144061Y0088155D03*
X0139814Y0087461D03*
X0112545Y0061945D03*
X0099873Y0041492D03*
X0100498Y0037117D03*
X0105498Y0038367D03*
X0100498Y0030867D03*
X0089873Y0040867D03*
X0065498Y0066133D03*
X0054873Y0051492D03*
X0043623Y0030867D03*
X0222801Y0126541D03*
X0099459Y0173091D03*
X0079774Y0162265D03*
D24*
X0211974Y0074376D02*
X0213861Y0074376D01*
X0220792Y0067445D01*
X0222192Y0066865D02*
X0222192Y0070339D01*
X0219986Y0072545D01*
X0216041Y0061994D02*
X0210212Y0061994D01*
X0210212Y0060025D02*
X0210306Y0059932D01*
X0216123Y0059932D01*
X0217998Y0058057D01*
X0217998Y0043367D01*
X0216123Y0041492D01*
X0099873Y0041492D01*
X0105498Y0038367D02*
X0107223Y0040092D01*
X0216703Y0040092D01*
X0219398Y0042787D01*
X0219398Y0058637D01*
X0216041Y0061994D01*
X0210212Y0058057D02*
X0203623Y0058057D01*
X0198401Y0052835D01*
X0198401Y0048057D01*
X0186256Y0048057D01*
X0186415Y0061581D02*
X0186829Y0061994D01*
X0193283Y0061994D01*
X0168180Y0066133D02*
X0065498Y0066133D01*
X0035498Y0066133D01*
X0034651Y0065286D01*
X0034651Y0062742D01*
D25*
X0125498Y0035883D02*
X0125498Y0027742D01*
X0135498Y0027742D02*
X0135498Y0034317D01*
X0138492Y0037311D01*
X0217855Y0037311D01*
X0222192Y0041648D01*
X0222192Y0066865D01*
X0220792Y0067445D02*
X0220792Y0042210D01*
X0217280Y0038698D01*
X0128313Y0038698D01*
X0125498Y0035883D01*
X0168180Y0066133D02*
X0186256Y0048057D01*
X0193273Y0074376D02*
X0211974Y0074376D01*
X0193273Y0074376D02*
X0190321Y0077329D01*
X0174573Y0124573D02*
X0174769Y0124769D01*
X0174769Y0129494D01*
X0222801Y0126541D02*
X0222998Y0126738D01*
X0222998Y0129494D01*
D26*
X0226738Y0137368D02*
X0208037Y0137368D01*
X0202674Y0132005D01*
X0202674Y0114966D01*
X0202674Y0109966D02*
X0194469Y0109966D01*
X0192289Y0112146D01*
X0192289Y0115346D02*
X0187736Y0115346D01*
X0187368Y0115714D01*
X0163746Y0129494D02*
X0163746Y0134415D01*
X0165714Y0136384D01*
X0177525Y0136384D01*
X0178510Y0137368D01*
X0163746Y0129494D02*
X0161777Y0127525D01*
X0155872Y0127525D01*
X0151493Y0123147D01*
X0151493Y0114966D01*
X0151493Y0109966D02*
X0139966Y0109966D01*
X0137787Y0112146D01*
X0134218Y0112146D01*
X0134218Y0115346D02*
X0126713Y0115346D01*
X0126344Y0115714D01*
X0145045Y0099966D02*
X0151493Y0099966D01*
X0100312Y0109966D02*
X0089154Y0109966D01*
X0086974Y0112146D01*
X0086974Y0115346D02*
X0086974Y0116699D01*
X0088943Y0118667D01*
X0086974Y0120636D01*
X0086974Y0135399D01*
X0082053Y0140321D01*
X0071305Y0140321D01*
X0071305Y0151147D01*
X0066305Y0146147D02*
X0066305Y0133431D01*
X0070832Y0128903D01*
X0070832Y0123982D01*
X0060832Y0123982D02*
X0060832Y0139848D01*
X0061305Y0140321D01*
X0066305Y0146147D02*
X0061305Y0151147D01*
X0091895Y0123557D02*
X0091895Y0117014D01*
X0093943Y0114966D01*
X0100312Y0114966D01*
X0086943Y0095045D02*
X0086943Y0090019D01*
X0086354Y0089430D01*
D27*
X0086943Y0095045D02*
X0086943Y0099394D01*
X0087516Y0099966D01*
X0100312Y0099966D01*
X0107644Y0099966D02*
X0109612Y0099966D01*
X0151493Y0099966D02*
X0157840Y0099966D01*
X0158825Y0100951D01*
X0159415Y0101541D01*
X0159415Y0121620D01*
X0221274Y0084966D02*
X0229423Y0084966D01*
X0229659Y0085203D01*
D28*
X0028596Y0022114D02*
X0026067Y0023860D01*
X0026067Y0023860D01*
X0024640Y0026580D01*
X0024640Y0029652D01*
X0026067Y0032372D01*
X0026067Y0032372D01*
X0026067Y0032372D01*
X0028596Y0034117D01*
X0028596Y0034117D01*
X0031646Y0034488D01*
X0031646Y0034488D01*
X0034518Y0033398D01*
X0034518Y0033398D01*
X0036555Y0031099D01*
X0036555Y0031099D01*
X0037290Y0028116D01*
X0036555Y0025133D01*
X0034518Y0022834D01*
X0034518Y0022834D01*
X0031646Y0021744D01*
X0031646Y0021744D01*
X0028596Y0022114D01*
X0028596Y0022114D01*
X0028569Y0022037D02*
X0029230Y0022037D01*
X0029844Y0021623D02*
X0027888Y0022259D01*
X0026224Y0023468D01*
X0025015Y0025132D01*
X0024379Y0027088D01*
X0024298Y0028116D01*
X0024298Y0169848D01*
X0024379Y0170877D01*
X0025015Y0172833D01*
X0026224Y0174496D01*
X0027888Y0175705D01*
X0029844Y0176341D01*
X0030872Y0176422D01*
X0231659Y0176422D01*
X0232688Y0176341D01*
X0234644Y0175705D01*
X0236307Y0174496D01*
X0237516Y0172833D01*
X0238152Y0170877D01*
X0238233Y0169848D01*
X0238233Y0028116D01*
X0238152Y0027088D01*
X0237516Y0025132D01*
X0236307Y0023468D01*
X0234644Y0022259D01*
X0232688Y0021623D01*
X0231659Y0021542D01*
X0031411Y0021542D01*
X0030872Y0021542D01*
X0029844Y0021623D01*
X0027840Y0022636D02*
X0027369Y0022636D01*
X0026973Y0023234D02*
X0026545Y0023234D01*
X0026106Y0023833D02*
X0025958Y0023833D01*
X0026067Y0023860D02*
X0026067Y0023860D01*
X0025767Y0024432D02*
X0025523Y0024432D01*
X0025453Y0025030D02*
X0025089Y0025030D01*
X0025139Y0025629D02*
X0024853Y0025629D01*
X0024825Y0026227D02*
X0024659Y0026227D01*
X0024640Y0026826D02*
X0024464Y0026826D01*
X0024353Y0027424D02*
X0024640Y0027424D01*
X0024640Y0028023D02*
X0024306Y0028023D01*
X0024298Y0028621D02*
X0024640Y0028621D01*
X0024640Y0029220D02*
X0024298Y0029220D01*
X0024298Y0029818D02*
X0024727Y0029818D01*
X0025041Y0030417D02*
X0024298Y0030417D01*
X0024298Y0031015D02*
X0025355Y0031015D01*
X0025669Y0031614D02*
X0024298Y0031614D01*
X0024298Y0032212D02*
X0025983Y0032212D01*
X0026703Y0032811D02*
X0024298Y0032811D01*
X0024298Y0033409D02*
X0027570Y0033409D01*
X0028437Y0034008D02*
X0024298Y0034008D01*
X0024298Y0034606D02*
X0076416Y0034606D01*
X0075818Y0035205D02*
X0024298Y0035205D01*
X0024298Y0035803D02*
X0075219Y0035803D01*
X0074621Y0036402D02*
X0024298Y0036402D01*
X0024298Y0037000D02*
X0074022Y0037000D01*
X0073424Y0037599D02*
X0024298Y0037599D01*
X0024298Y0038197D02*
X0072825Y0038197D01*
X0072456Y0038567D02*
X0077611Y0033412D01*
X0078431Y0032592D01*
X0092418Y0032592D01*
X0093535Y0031475D01*
X0093119Y0031303D01*
X0091937Y0030121D01*
X0091298Y0028577D01*
X0091298Y0026906D01*
X0091937Y0025363D01*
X0093119Y0024181D01*
X0094662Y0023542D01*
X0096333Y0023542D01*
X0097877Y0024181D01*
X0099058Y0025363D01*
X0099698Y0026906D01*
X0099698Y0028577D01*
X0099058Y0030121D01*
X0097877Y0031303D01*
X0096898Y0031708D01*
X0096898Y0032072D01*
X0096378Y0032592D01*
X0101793Y0032592D01*
X0103101Y0031284D01*
X0101937Y0030121D01*
X0101298Y0028577D01*
X0101298Y0026906D01*
X0101937Y0025363D01*
X0103119Y0024181D01*
X0104662Y0023542D01*
X0106333Y0023542D01*
X0107877Y0024181D01*
X0109058Y0025363D01*
X0109698Y0026906D01*
X0109698Y0028577D01*
X0109058Y0030121D01*
X0107877Y0031303D01*
X0106452Y0031893D01*
X0106078Y0032267D01*
X0103773Y0034572D01*
X0102953Y0035392D01*
X0095840Y0035392D01*
X0094240Y0036992D01*
X0080253Y0036992D01*
X0074278Y0042967D01*
X0048890Y0042967D01*
X0047523Y0044335D01*
X0047523Y0051447D01*
X0046703Y0052267D01*
X0044828Y0054142D01*
X0044410Y0054142D01*
X0044410Y0055083D01*
X0043882Y0055610D01*
X0038806Y0055610D01*
X0038279Y0055083D01*
X0038279Y0050401D01*
X0038806Y0049873D01*
X0043882Y0049873D01*
X0044410Y0050401D01*
X0044410Y0050600D01*
X0044723Y0050287D01*
X0044723Y0044142D01*
X0044410Y0044142D01*
X0044410Y0045083D01*
X0043882Y0045610D01*
X0038806Y0045610D01*
X0038279Y0045083D01*
X0038279Y0040401D01*
X0038806Y0039873D01*
X0043882Y0039873D01*
X0044410Y0040401D01*
X0044410Y0041225D01*
X0047068Y0038567D01*
X0072456Y0038567D01*
X0075457Y0041788D02*
X0097684Y0041788D01*
X0097684Y0041190D02*
X0076055Y0041190D01*
X0076654Y0040591D02*
X0097684Y0040591D01*
X0097684Y0040585D02*
X0098966Y0039303D01*
X0100780Y0039303D01*
X0101669Y0040192D01*
X0104227Y0040192D01*
X0103309Y0039274D01*
X0103309Y0037460D01*
X0104591Y0036178D01*
X0106405Y0036178D01*
X0107687Y0037460D01*
X0107687Y0038717D01*
X0107761Y0038792D01*
X0126577Y0038792D01*
X0124204Y0036419D01*
X0124204Y0031752D01*
X0123119Y0031303D01*
X0121937Y0030121D01*
X0121298Y0028577D01*
X0121298Y0026906D01*
X0121937Y0025363D01*
X0123119Y0024181D01*
X0124662Y0023542D01*
X0126333Y0023542D01*
X0127877Y0024181D01*
X0129058Y0025363D01*
X0129698Y0026906D01*
X0129698Y0028577D01*
X0129058Y0030121D01*
X0127877Y0031303D01*
X0126792Y0031752D01*
X0126792Y0035347D01*
X0128849Y0037405D01*
X0136756Y0037405D01*
X0134204Y0034853D01*
X0134204Y0031752D01*
X0133119Y0031303D01*
X0131937Y0030121D01*
X0131298Y0028577D01*
X0131298Y0026906D01*
X0131937Y0025363D01*
X0133119Y0024181D01*
X0134662Y0023542D01*
X0136333Y0023542D01*
X0137877Y0024181D01*
X0139058Y0025363D01*
X0139698Y0026906D01*
X0139698Y0028577D01*
X0139058Y0030121D01*
X0137877Y0031303D01*
X0136792Y0031752D01*
X0136792Y0033781D01*
X0139028Y0036017D01*
X0218391Y0036017D01*
X0223485Y0041112D01*
X0223485Y0066320D01*
X0223492Y0066327D01*
X0238233Y0066327D01*
X0238233Y0065729D02*
X0223485Y0065729D01*
X0223492Y0066327D02*
X0223492Y0070878D01*
X0222730Y0071639D01*
X0222175Y0072195D01*
X0222175Y0073452D01*
X0220893Y0074734D01*
X0219079Y0074734D01*
X0217797Y0073452D01*
X0217797Y0072278D01*
X0215161Y0074914D01*
X0214399Y0075676D01*
X0211436Y0075676D01*
X0211429Y0075669D01*
X0193809Y0075669D01*
X0192510Y0076969D01*
X0192510Y0078235D01*
X0191227Y0079518D01*
X0190553Y0079518D01*
X0194601Y0083566D01*
X0197474Y0083566D01*
X0197474Y0083494D01*
X0198001Y0082966D01*
X0207347Y0082966D01*
X0207874Y0083494D01*
X0207874Y0086439D01*
X0207347Y0086966D01*
X0198001Y0086966D01*
X0197474Y0086439D01*
X0197474Y0086366D01*
X0195139Y0086366D01*
X0197339Y0088566D01*
X0197474Y0088566D01*
X0197474Y0088494D01*
X0198001Y0087966D01*
X0207347Y0087966D01*
X0207874Y0088494D01*
X0207874Y0091439D01*
X0207347Y0091966D01*
X0198001Y0091966D01*
X0197474Y0091439D01*
X0197474Y0091366D01*
X0196179Y0091366D01*
X0184946Y0080133D01*
X0182287Y0080133D01*
X0181467Y0079313D01*
X0179898Y0077744D01*
X0179078Y0076924D01*
X0179078Y0076144D01*
X0178704Y0076144D01*
X0177421Y0074862D01*
X0177421Y0073049D01*
X0178704Y0071766D01*
X0180517Y0071766D01*
X0181799Y0073049D01*
X0181799Y0074164D01*
X0181878Y0074243D01*
X0181878Y0075764D01*
X0182226Y0076112D01*
X0182226Y0075438D01*
X0183508Y0074155D01*
X0185322Y0074155D01*
X0186604Y0075438D01*
X0186604Y0075569D01*
X0188132Y0077097D01*
X0188132Y0076422D01*
X0189414Y0075140D01*
X0190680Y0075140D01*
X0191980Y0073840D01*
X0192738Y0073082D01*
X0211429Y0073082D01*
X0211436Y0073076D01*
X0213322Y0073076D01*
X0219498Y0066900D01*
X0219498Y0060375D01*
X0216579Y0063294D01*
X0213549Y0063294D01*
X0213398Y0063445D01*
X0207027Y0063445D01*
X0206419Y0062837D01*
X0206419Y0061151D01*
X0206560Y0061010D01*
X0206419Y0060869D01*
X0206419Y0059357D01*
X0203084Y0059357D01*
X0197101Y0053374D01*
X0197101Y0050925D01*
X0195863Y0050925D01*
X0195336Y0050398D01*
X0195336Y0049357D01*
X0186785Y0049357D01*
X0181454Y0054688D01*
X0189490Y0054688D01*
X0189490Y0053277D01*
X0190097Y0052669D01*
X0196469Y0052669D01*
X0197077Y0053277D01*
X0197077Y0054963D01*
X0196936Y0055104D01*
X0197077Y0055245D01*
X0197077Y0056648D01*
X0197190Y0056761D01*
X0197379Y0057089D01*
X0197477Y0057454D01*
X0197477Y0058057D01*
X0197477Y0058660D01*
X0197379Y0059025D01*
X0197190Y0059353D01*
X0197077Y0059466D01*
X0197077Y0060869D01*
X0196936Y0061010D01*
X0197077Y0061151D01*
X0197077Y0062837D01*
X0196469Y0063445D01*
X0190097Y0063445D01*
X0189946Y0063294D01*
X0188565Y0063294D01*
X0188565Y0064453D01*
X0188038Y0064980D01*
X0184792Y0064980D01*
X0184698Y0064886D01*
X0184463Y0065121D01*
X0184167Y0065292D01*
X0183836Y0065380D01*
X0182715Y0065380D01*
X0182715Y0061881D01*
X0182115Y0061881D01*
X0182115Y0065380D01*
X0180994Y0065380D01*
X0180663Y0065292D01*
X0180367Y0065121D01*
X0180125Y0064879D01*
X0179954Y0064582D01*
X0179865Y0064252D01*
X0179865Y0061880D01*
X0182115Y0061880D01*
X0182115Y0061281D01*
X0179865Y0061281D01*
X0179865Y0058909D01*
X0179945Y0058611D01*
X0174408Y0064149D01*
X0174408Y0072835D01*
X0175880Y0072835D01*
X0176408Y0073363D01*
X0176408Y0079808D01*
X0175880Y0080335D01*
X0170135Y0080335D01*
X0169608Y0079808D01*
X0169608Y0079585D01*
X0167406Y0079585D01*
X0165146Y0081845D01*
X0165146Y0083241D01*
X0165420Y0082966D01*
X0174766Y0082966D01*
X0175293Y0083494D01*
X0175293Y0083566D01*
X0176328Y0083566D01*
X0176328Y0082330D01*
X0176855Y0081803D01*
X0180101Y0081803D01*
X0180195Y0081897D01*
X0180430Y0081662D01*
X0180726Y0081491D01*
X0181057Y0081403D01*
X0182178Y0081403D01*
X0182178Y0084903D01*
X0182778Y0084903D01*
X0182778Y0085503D01*
X0185028Y0085503D01*
X0185028Y0087874D01*
X0192686Y0087874D01*
X0193285Y0088472D02*
X0184785Y0088472D01*
X0184768Y0088501D02*
X0184628Y0088641D01*
X0184628Y0089708D01*
X0186964Y0089708D01*
X0187948Y0090692D01*
X0188768Y0091512D01*
X0188768Y0093481D01*
X0188932Y0093645D01*
X0189123Y0093645D01*
X0189123Y0092172D01*
X0189651Y0091645D01*
X0192896Y0091645D01*
X0193273Y0092022D01*
X0193651Y0091645D01*
X0196896Y0091645D01*
X0197423Y0092172D01*
X0197423Y0093566D01*
X0197474Y0093566D01*
X0197474Y0093494D01*
X0198001Y0092966D01*
X0207347Y0092966D01*
X0207874Y0093494D01*
X0207874Y0096439D01*
X0207347Y0096966D01*
X0198001Y0096966D01*
X0197474Y0096439D01*
X0197474Y0096366D01*
X0197423Y0096366D01*
X0197423Y0097918D01*
X0196896Y0098445D01*
X0193732Y0098445D01*
X0193853Y0098566D01*
X0197474Y0098566D01*
X0197474Y0098494D01*
X0198001Y0097966D01*
X0207347Y0097966D01*
X0207702Y0098321D01*
X0208606Y0097418D01*
X0208606Y0081670D01*
X0209426Y0080850D01*
X0210574Y0079701D01*
X0211394Y0078881D01*
X0232239Y0078881D01*
X0234239Y0080881D01*
X0235059Y0081701D01*
X0235059Y0081803D01*
X0235282Y0081803D01*
X0235809Y0082330D01*
X0235809Y0087670D01*
X0235949Y0087810D01*
X0236121Y0088106D01*
X0236209Y0088437D01*
X0236209Y0090808D01*
X0233959Y0090808D01*
X0233959Y0091408D01*
X0233359Y0091408D01*
X0233359Y0094908D01*
X0232238Y0094908D01*
X0231907Y0094819D01*
X0231611Y0094648D01*
X0231376Y0094414D01*
X0231282Y0094508D01*
X0228036Y0094508D01*
X0227509Y0093981D01*
X0227509Y0092508D01*
X0226158Y0092508D01*
X0225616Y0091966D01*
X0216601Y0091966D01*
X0216074Y0091439D01*
X0216074Y0088494D01*
X0216601Y0087966D01*
X0225947Y0087966D01*
X0226474Y0088494D01*
X0226474Y0088864D01*
X0227318Y0089708D01*
X0227509Y0089708D01*
X0227509Y0088235D01*
X0227589Y0088155D01*
X0227509Y0088075D01*
X0227509Y0086466D01*
X0226447Y0086466D01*
X0225947Y0086966D01*
X0216601Y0086966D01*
X0216074Y0086439D01*
X0216074Y0083494D01*
X0216601Y0082966D01*
X0225947Y0082966D01*
X0226447Y0083466D01*
X0227509Y0083466D01*
X0227509Y0082330D01*
X0228036Y0081803D01*
X0231201Y0081803D01*
X0231079Y0081681D01*
X0212554Y0081681D01*
X0211406Y0082830D01*
X0211406Y0098578D01*
X0210586Y0099398D01*
X0210586Y0099398D01*
X0210017Y0099966D01*
X0210586Y0100535D01*
X0211406Y0101355D01*
X0211406Y0117279D01*
X0210028Y0118656D01*
X0210028Y0118751D01*
X0211166Y0118751D01*
X0211693Y0119279D01*
X0211693Y0123961D01*
X0211166Y0124488D01*
X0206090Y0124488D01*
X0205562Y0123961D01*
X0205562Y0119279D01*
X0206090Y0118751D01*
X0207228Y0118751D01*
X0207228Y0117497D01*
X0208606Y0116119D01*
X0208606Y0102515D01*
X0207702Y0101611D01*
X0207347Y0101966D01*
X0198001Y0101966D01*
X0197474Y0101439D01*
X0197474Y0101366D01*
X0192694Y0101366D01*
X0189873Y0098546D01*
X0189873Y0098445D01*
X0189651Y0098445D01*
X0189123Y0097918D01*
X0189123Y0096445D01*
X0187772Y0096445D01*
X0186952Y0095625D01*
X0185968Y0094641D01*
X0185968Y0092672D01*
X0185804Y0092508D01*
X0184628Y0092508D01*
X0184628Y0093981D01*
X0184101Y0094508D01*
X0183878Y0094508D01*
X0183878Y0098546D01*
X0182667Y0099757D01*
X0182667Y0100873D01*
X0181385Y0102155D01*
X0179571Y0102155D01*
X0178289Y0100873D01*
X0178289Y0099060D01*
X0179571Y0097777D01*
X0180687Y0097777D01*
X0181078Y0097386D01*
X0181078Y0094508D01*
X0180855Y0094508D01*
X0180478Y0094131D01*
X0180101Y0094508D01*
X0176855Y0094508D01*
X0176328Y0093981D01*
X0176328Y0092508D01*
X0175961Y0092508D01*
X0175141Y0091688D01*
X0175093Y0091640D01*
X0174766Y0091966D01*
X0165420Y0091966D01*
X0165146Y0091692D01*
X0165146Y0092739D01*
X0165291Y0092655D01*
X0165622Y0092566D01*
X0169843Y0092566D01*
X0169843Y0094716D01*
X0170343Y0094716D01*
X0170343Y0092566D01*
X0174564Y0092566D01*
X0174895Y0092655D01*
X0175191Y0092826D01*
X0175433Y0093068D01*
X0175605Y0093365D01*
X0175693Y0093695D01*
X0175693Y0094716D01*
X0170343Y0094716D01*
X0170343Y0095216D01*
X0175693Y0095216D01*
X0175693Y0096237D01*
X0175605Y0096568D01*
X0175433Y0096865D01*
X0175191Y0097107D01*
X0174895Y0097278D01*
X0174564Y0097366D01*
X0170343Y0097366D01*
X0170343Y0095216D01*
X0169843Y0095216D01*
X0169843Y0097366D01*
X0165622Y0097366D01*
X0165291Y0097278D01*
X0165146Y0097194D01*
X0165146Y0097739D01*
X0165291Y0097655D01*
X0165622Y0097566D01*
X0169843Y0097566D01*
X0169843Y0099716D01*
X0170343Y0099716D01*
X0170343Y0097566D01*
X0174564Y0097566D01*
X0174895Y0097655D01*
X0175191Y0097826D01*
X0175433Y0098068D01*
X0175605Y0098365D01*
X0175693Y0098695D01*
X0175693Y0099716D01*
X0170343Y0099716D01*
X0170343Y0100216D01*
X0175693Y0100216D01*
X0175693Y0101237D01*
X0175605Y0101568D01*
X0175433Y0101865D01*
X0175191Y0102107D01*
X0174895Y0102278D01*
X0174564Y0102366D01*
X0170343Y0102366D01*
X0170343Y0100216D01*
X0169843Y0100216D01*
X0169843Y0102366D01*
X0165622Y0102366D01*
X0165291Y0102278D01*
X0165146Y0102194D01*
X0165146Y0103241D01*
X0165420Y0102966D01*
X0174766Y0102966D01*
X0175293Y0103494D01*
X0175293Y0106439D01*
X0174766Y0106966D01*
X0165420Y0106966D01*
X0165146Y0106692D01*
X0165146Y0108241D01*
X0165420Y0107966D01*
X0174766Y0107966D01*
X0175293Y0108494D01*
X0175293Y0111439D01*
X0174766Y0111966D01*
X0165420Y0111966D01*
X0165146Y0111692D01*
X0165146Y0113241D01*
X0165420Y0112966D01*
X0174766Y0112966D01*
X0175293Y0113494D01*
X0175293Y0116439D01*
X0174766Y0116966D01*
X0165420Y0116966D01*
X0164951Y0116497D01*
X0164951Y0116621D01*
X0163668Y0117903D01*
X0161855Y0117903D01*
X0160915Y0116964D01*
X0160915Y0118751D01*
X0161953Y0118751D01*
X0162480Y0119279D01*
X0162480Y0123961D01*
X0161953Y0124488D01*
X0156877Y0124488D01*
X0156350Y0123961D01*
X0156350Y0119279D01*
X0156877Y0118751D01*
X0157915Y0118751D01*
X0157915Y0103137D01*
X0156636Y0101857D01*
X0156636Y0101497D01*
X0156166Y0101966D01*
X0146820Y0101966D01*
X0146520Y0101666D01*
X0146441Y0101666D01*
X0145952Y0102155D01*
X0144138Y0102155D01*
X0143349Y0101366D01*
X0142497Y0101366D01*
X0139575Y0098445D01*
X0138470Y0098445D01*
X0137942Y0097918D01*
X0137942Y0092172D01*
X0138470Y0091645D01*
X0141715Y0091645D01*
X0142092Y0092022D01*
X0142470Y0091645D01*
X0145715Y0091645D01*
X0146242Y0092172D01*
X0146242Y0093645D01*
X0146293Y0093645D01*
X0146293Y0093494D01*
X0146820Y0092966D01*
X0156166Y0092966D01*
X0156693Y0093494D01*
X0156693Y0096439D01*
X0156166Y0096966D01*
X0146820Y0096966D01*
X0146299Y0096445D01*
X0146242Y0096445D01*
X0146242Y0097918D01*
X0146167Y0097993D01*
X0146441Y0098266D01*
X0146520Y0098266D01*
X0146820Y0097966D01*
X0156166Y0097966D01*
X0156666Y0098466D01*
X0158462Y0098466D01*
X0158757Y0098762D01*
X0159731Y0098762D01*
X0161014Y0100044D01*
X0161014Y0101857D01*
X0160915Y0101956D01*
X0160915Y0114465D01*
X0161855Y0113525D01*
X0162346Y0113525D01*
X0162346Y0080686D01*
X0163166Y0079866D01*
X0166246Y0076785D01*
X0169608Y0076785D01*
X0169608Y0073363D01*
X0170135Y0072835D01*
X0171608Y0072835D01*
X0171608Y0064534D01*
X0169480Y0066662D01*
X0169480Y0066671D01*
X0168718Y0067433D01*
X0067294Y0067433D01*
X0066405Y0068322D01*
X0064591Y0068322D01*
X0063702Y0067433D01*
X0034959Y0067433D01*
X0034198Y0066671D01*
X0033351Y0065825D01*
X0033351Y0065610D01*
X0032113Y0065610D01*
X0031586Y0065083D01*
X0031586Y0060401D01*
X0032113Y0059873D01*
X0033251Y0059873D01*
X0033251Y0055610D01*
X0032113Y0055610D01*
X0031586Y0055083D01*
X0031586Y0050401D01*
X0032113Y0049873D01*
X0033251Y0049873D01*
X0033251Y0045610D01*
X0032113Y0045610D01*
X0031586Y0045083D01*
X0031586Y0040401D01*
X0032113Y0039873D01*
X0037190Y0039873D01*
X0037717Y0040401D01*
X0037717Y0045083D01*
X0037190Y0045610D01*
X0036051Y0045610D01*
X0036051Y0049873D01*
X0037190Y0049873D01*
X0037717Y0050401D01*
X0037717Y0055083D01*
X0037190Y0055610D01*
X0036051Y0055610D01*
X0036051Y0059873D01*
X0037190Y0059873D01*
X0037717Y0060401D01*
X0037717Y0064833D01*
X0038279Y0064833D01*
X0038279Y0060401D01*
X0038806Y0059873D01*
X0043882Y0059873D01*
X0044410Y0060401D01*
X0044410Y0061342D01*
X0044918Y0061342D01*
X0046598Y0059662D01*
X0047418Y0058842D01*
X0048102Y0058842D01*
X0048102Y0057507D01*
X0048629Y0056980D01*
X0054099Y0056980D01*
X0054626Y0057507D01*
X0054626Y0062977D01*
X0054099Y0063504D01*
X0048629Y0063504D01*
X0048102Y0062977D01*
X0048102Y0062118D01*
X0046898Y0063322D01*
X0046078Y0064142D01*
X0044410Y0064142D01*
X0044410Y0064833D01*
X0063702Y0064833D01*
X0064591Y0063944D01*
X0066405Y0063944D01*
X0067294Y0064833D01*
X0167650Y0064833D01*
X0184956Y0047527D01*
X0184956Y0047518D01*
X0185717Y0046757D01*
X0195336Y0046757D01*
X0195336Y0045716D01*
X0195863Y0045188D01*
X0200940Y0045188D01*
X0201467Y0045716D01*
X0201467Y0050398D01*
X0200940Y0050925D01*
X0199701Y0050925D01*
X0199701Y0052297D01*
X0204161Y0056757D01*
X0206419Y0056757D01*
X0206419Y0055245D01*
X0206560Y0055104D01*
X0206419Y0054963D01*
X0206419Y0053277D01*
X0207027Y0052669D01*
X0213398Y0052669D01*
X0214006Y0053277D01*
X0214006Y0054963D01*
X0213865Y0055104D01*
X0214006Y0055245D01*
X0214006Y0056932D01*
X0213865Y0057073D01*
X0214006Y0057214D01*
X0214006Y0058632D01*
X0215584Y0058632D01*
X0216698Y0057518D01*
X0216698Y0043905D01*
X0215584Y0042792D01*
X0101669Y0042792D01*
X0100780Y0043681D01*
X0098966Y0043681D01*
X0097684Y0042399D01*
X0097684Y0040585D01*
X0098276Y0039993D02*
X0077252Y0039993D01*
X0077851Y0039394D02*
X0098875Y0039394D01*
X0100871Y0039394D02*
X0103430Y0039394D01*
X0103309Y0038796D02*
X0078449Y0038796D01*
X0079048Y0038197D02*
X0103309Y0038197D01*
X0103309Y0037599D02*
X0079646Y0037599D01*
X0080245Y0037000D02*
X0103769Y0037000D01*
X0104367Y0036402D02*
X0094831Y0036402D01*
X0095429Y0035803D02*
X0124204Y0035803D01*
X0124204Y0035205D02*
X0103140Y0035205D01*
X0103738Y0034606D02*
X0124204Y0034606D01*
X0124204Y0034008D02*
X0104337Y0034008D01*
X0103773Y0034572D02*
X0103773Y0034572D01*
X0104935Y0033409D02*
X0124204Y0033409D01*
X0124204Y0032811D02*
X0105534Y0032811D01*
X0106132Y0032212D02*
X0114370Y0032212D01*
X0114421Y0032229D02*
X0113732Y0032005D01*
X0113087Y0031676D01*
X0112501Y0031251D01*
X0111989Y0030739D01*
X0111564Y0030153D01*
X0111235Y0029508D01*
X0111011Y0028819D01*
X0110898Y0028104D01*
X0110898Y0028042D01*
X0115198Y0028042D01*
X0115198Y0032342D01*
X0115136Y0032342D01*
X0114421Y0032229D01*
X0115198Y0032212D02*
X0115798Y0032212D01*
X0115798Y0032342D02*
X0115798Y0028042D01*
X0120098Y0028042D01*
X0120098Y0028104D01*
X0119985Y0028819D01*
X0119761Y0029508D01*
X0119432Y0030153D01*
X0119007Y0030739D01*
X0118495Y0031251D01*
X0117909Y0031676D01*
X0117264Y0032005D01*
X0116575Y0032229D01*
X0115860Y0032342D01*
X0115798Y0032342D01*
X0115798Y0031614D02*
X0115198Y0031614D01*
X0115198Y0031015D02*
X0115798Y0031015D01*
X0115798Y0030417D02*
X0115198Y0030417D01*
X0115198Y0029818D02*
X0115798Y0029818D01*
X0115798Y0029220D02*
X0115198Y0029220D01*
X0115198Y0028621D02*
X0115798Y0028621D01*
X0115798Y0028042D02*
X0115198Y0028042D01*
X0115198Y0027442D01*
X0115798Y0027442D01*
X0115798Y0028042D01*
X0115798Y0028023D02*
X0121298Y0028023D01*
X0121316Y0028621D02*
X0120016Y0028621D01*
X0119854Y0029220D02*
X0121564Y0029220D01*
X0121812Y0029818D02*
X0119603Y0029818D01*
X0119240Y0030417D02*
X0122233Y0030417D01*
X0122831Y0031015D02*
X0118730Y0031015D01*
X0117995Y0031614D02*
X0123870Y0031614D01*
X0124204Y0032212D02*
X0116626Y0032212D01*
X0113001Y0031614D02*
X0107126Y0031614D01*
X0108164Y0031015D02*
X0112266Y0031015D01*
X0111755Y0030417D02*
X0108763Y0030417D01*
X0109184Y0029818D02*
X0111393Y0029818D01*
X0111141Y0029220D02*
X0109432Y0029220D01*
X0109680Y0028621D02*
X0110980Y0028621D01*
X0110898Y0027442D02*
X0110898Y0027380D01*
X0111011Y0026665D01*
X0111235Y0025976D01*
X0111564Y0025331D01*
X0111989Y0024745D01*
X0112501Y0024233D01*
X0113087Y0023808D01*
X0113732Y0023479D01*
X0114421Y0023255D01*
X0115136Y0023142D01*
X0115198Y0023142D01*
X0115198Y0027442D01*
X0110898Y0027442D01*
X0110898Y0027424D02*
X0109698Y0027424D01*
X0109698Y0028023D02*
X0115198Y0028023D01*
X0115198Y0027424D02*
X0115798Y0027424D01*
X0115798Y0027442D02*
X0115798Y0023142D01*
X0115860Y0023142D01*
X0116575Y0023255D01*
X0117264Y0023479D01*
X0117909Y0023808D01*
X0118495Y0024233D01*
X0119007Y0024745D01*
X0119432Y0025331D01*
X0119761Y0025976D01*
X0119985Y0026665D01*
X0120098Y0027380D01*
X0120098Y0027442D01*
X0115798Y0027442D01*
X0115798Y0026826D02*
X0115198Y0026826D01*
X0115198Y0026227D02*
X0115798Y0026227D01*
X0115798Y0025629D02*
X0115198Y0025629D01*
X0115198Y0025030D02*
X0115798Y0025030D01*
X0115798Y0024432D02*
X0115198Y0024432D01*
X0115198Y0023833D02*
X0115798Y0023833D01*
X0115798Y0023234D02*
X0115198Y0023234D01*
X0114551Y0023234D02*
X0086444Y0023234D01*
X0086575Y0023255D02*
X0087264Y0023479D01*
X0087909Y0023808D01*
X0088495Y0024233D01*
X0089007Y0024745D01*
X0089432Y0025331D01*
X0089761Y0025976D01*
X0089985Y0026665D01*
X0090098Y0027380D01*
X0090098Y0027442D01*
X0085798Y0027442D01*
X0085798Y0028042D01*
X0090098Y0028042D01*
X0090098Y0028104D01*
X0089985Y0028819D01*
X0089761Y0029508D01*
X0089432Y0030153D01*
X0089007Y0030739D01*
X0088495Y0031251D01*
X0087909Y0031676D01*
X0087264Y0032005D01*
X0086575Y0032229D01*
X0085860Y0032342D01*
X0085798Y0032342D01*
X0085798Y0028042D01*
X0085198Y0028042D01*
X0085198Y0032342D01*
X0085136Y0032342D01*
X0084421Y0032229D01*
X0083732Y0032005D01*
X0083087Y0031676D01*
X0082501Y0031251D01*
X0081989Y0030739D01*
X0081564Y0030153D01*
X0081235Y0029508D01*
X0081011Y0028819D01*
X0080898Y0028104D01*
X0080898Y0028042D01*
X0085198Y0028042D01*
X0085198Y0027442D01*
X0085798Y0027442D01*
X0085798Y0023142D01*
X0085860Y0023142D01*
X0086575Y0023255D01*
X0085798Y0023234D02*
X0085198Y0023234D01*
X0085198Y0023142D02*
X0085198Y0027442D01*
X0080898Y0027442D01*
X0080898Y0027380D01*
X0081011Y0026665D01*
X0081235Y0025976D01*
X0081564Y0025331D01*
X0081989Y0024745D01*
X0082501Y0024233D01*
X0083087Y0023808D01*
X0083732Y0023479D01*
X0084421Y0023255D01*
X0085136Y0023142D01*
X0085198Y0023142D01*
X0084551Y0023234D02*
X0034873Y0023234D01*
X0035403Y0023833D02*
X0063960Y0023833D01*
X0064662Y0023542D02*
X0066333Y0023542D01*
X0067877Y0024181D01*
X0069058Y0025363D01*
X0069698Y0026906D01*
X0069698Y0028577D01*
X0069058Y0030121D01*
X0067877Y0031303D01*
X0066333Y0031942D01*
X0064662Y0031942D01*
X0063119Y0031303D01*
X0061937Y0030121D01*
X0061298Y0028577D01*
X0061298Y0026906D01*
X0061937Y0025363D01*
X0063119Y0024181D01*
X0064662Y0023542D01*
X0062869Y0024432D02*
X0035934Y0024432D01*
X0036464Y0025030D02*
X0062270Y0025030D01*
X0061827Y0025629D02*
X0036677Y0025629D01*
X0036555Y0025133D02*
X0036555Y0025133D01*
X0036825Y0026227D02*
X0061579Y0026227D01*
X0061331Y0026826D02*
X0036972Y0026826D01*
X0037120Y0027424D02*
X0061298Y0027424D01*
X0061298Y0028023D02*
X0037267Y0028023D01*
X0037166Y0028621D02*
X0061316Y0028621D01*
X0061564Y0029220D02*
X0037018Y0029220D01*
X0036871Y0029818D02*
X0061812Y0029818D01*
X0062233Y0030417D02*
X0036723Y0030417D01*
X0036576Y0031015D02*
X0062831Y0031015D01*
X0063870Y0031614D02*
X0036099Y0031614D01*
X0035569Y0032212D02*
X0084370Y0032212D01*
X0085198Y0032212D02*
X0085798Y0032212D01*
X0085798Y0031614D02*
X0085198Y0031614D01*
X0085198Y0031015D02*
X0085798Y0031015D01*
X0085798Y0030417D02*
X0085198Y0030417D01*
X0085198Y0029818D02*
X0085798Y0029818D01*
X0085798Y0029220D02*
X0085198Y0029220D01*
X0085198Y0028621D02*
X0085798Y0028621D01*
X0085798Y0028023D02*
X0091298Y0028023D01*
X0091316Y0028621D02*
X0090016Y0028621D01*
X0089854Y0029220D02*
X0091564Y0029220D01*
X0091812Y0029818D02*
X0089603Y0029818D01*
X0089240Y0030417D02*
X0092233Y0030417D01*
X0092831Y0031015D02*
X0088730Y0031015D01*
X0087995Y0031614D02*
X0093396Y0031614D01*
X0092798Y0032212D02*
X0086626Y0032212D01*
X0083001Y0031614D02*
X0077126Y0031614D01*
X0077877Y0031303D02*
X0076333Y0031942D01*
X0074662Y0031942D01*
X0073119Y0031303D01*
X0071937Y0030121D01*
X0071298Y0028577D01*
X0071298Y0026906D01*
X0071937Y0025363D01*
X0073119Y0024181D01*
X0074662Y0023542D01*
X0076333Y0023542D01*
X0077877Y0024181D01*
X0079058Y0025363D01*
X0079698Y0026906D01*
X0079698Y0028577D01*
X0079058Y0030121D01*
X0077877Y0031303D01*
X0078164Y0031015D02*
X0082266Y0031015D01*
X0081755Y0030417D02*
X0078763Y0030417D01*
X0079184Y0029818D02*
X0081393Y0029818D01*
X0081141Y0029220D02*
X0079432Y0029220D01*
X0079680Y0028621D02*
X0080980Y0028621D01*
X0080898Y0027424D02*
X0079698Y0027424D01*
X0079698Y0028023D02*
X0085198Y0028023D01*
X0085198Y0027424D02*
X0085798Y0027424D01*
X0085798Y0026826D02*
X0085198Y0026826D01*
X0085198Y0026227D02*
X0085798Y0026227D01*
X0085798Y0025629D02*
X0085198Y0025629D01*
X0085198Y0025030D02*
X0085798Y0025030D01*
X0085798Y0024432D02*
X0085198Y0024432D01*
X0085198Y0023833D02*
X0085798Y0023833D01*
X0087944Y0023833D02*
X0093960Y0023833D01*
X0092869Y0024432D02*
X0088693Y0024432D01*
X0089213Y0025030D02*
X0092270Y0025030D01*
X0091827Y0025629D02*
X0089584Y0025629D01*
X0089842Y0026227D02*
X0091579Y0026227D01*
X0091331Y0026826D02*
X0090010Y0026826D01*
X0090098Y0027424D02*
X0091298Y0027424D01*
X0097036Y0023833D02*
X0103960Y0023833D01*
X0102869Y0024432D02*
X0098127Y0024432D01*
X0098726Y0025030D02*
X0102270Y0025030D01*
X0101827Y0025629D02*
X0099168Y0025629D01*
X0099416Y0026227D02*
X0101579Y0026227D01*
X0101331Y0026826D02*
X0099664Y0026826D01*
X0099698Y0027424D02*
X0101298Y0027424D01*
X0101298Y0028023D02*
X0099698Y0028023D01*
X0099680Y0028621D02*
X0101316Y0028621D01*
X0101564Y0029220D02*
X0099432Y0029220D01*
X0099184Y0029818D02*
X0101812Y0029818D01*
X0102233Y0030417D02*
X0098763Y0030417D01*
X0098164Y0031015D02*
X0102831Y0031015D01*
X0102771Y0031614D02*
X0097126Y0031614D01*
X0096757Y0032212D02*
X0102173Y0032212D01*
X0106628Y0036402D02*
X0124204Y0036402D01*
X0124785Y0037000D02*
X0107227Y0037000D01*
X0107687Y0037599D02*
X0125384Y0037599D01*
X0125982Y0038197D02*
X0107687Y0038197D01*
X0104028Y0039993D02*
X0101469Y0039993D01*
X0101475Y0042985D02*
X0215778Y0042985D01*
X0216376Y0043584D02*
X0100877Y0043584D01*
X0098869Y0043584D02*
X0048274Y0043584D01*
X0048872Y0042985D02*
X0098271Y0042985D01*
X0097684Y0042387D02*
X0074858Y0042387D01*
X0077015Y0034008D02*
X0032911Y0034008D01*
X0034489Y0033409D02*
X0077613Y0033409D01*
X0077611Y0033412D02*
X0077611Y0033412D01*
X0078212Y0032811D02*
X0035039Y0032811D01*
X0037309Y0039993D02*
X0038687Y0039993D01*
X0038279Y0040591D02*
X0037717Y0040591D01*
X0037717Y0041190D02*
X0038279Y0041190D01*
X0038279Y0041788D02*
X0037717Y0041788D01*
X0037717Y0042387D02*
X0038279Y0042387D01*
X0038279Y0042985D02*
X0037717Y0042985D01*
X0037717Y0043584D02*
X0038279Y0043584D01*
X0038279Y0044182D02*
X0037717Y0044182D01*
X0037717Y0044781D02*
X0038279Y0044781D01*
X0038575Y0045379D02*
X0037421Y0045379D01*
X0036051Y0045978D02*
X0044723Y0045978D01*
X0044723Y0046576D02*
X0036051Y0046576D01*
X0036051Y0047175D02*
X0044723Y0047175D01*
X0044723Y0047773D02*
X0036051Y0047773D01*
X0036051Y0048372D02*
X0044723Y0048372D01*
X0044723Y0048970D02*
X0036051Y0048970D01*
X0036051Y0049569D02*
X0044723Y0049569D01*
X0044723Y0050167D02*
X0044177Y0050167D01*
X0047523Y0050167D02*
X0182316Y0050167D01*
X0182914Y0049569D02*
X0047523Y0049569D01*
X0047523Y0048970D02*
X0183513Y0048970D01*
X0184111Y0048372D02*
X0047523Y0048372D01*
X0047523Y0047773D02*
X0184710Y0047773D01*
X0185299Y0047175D02*
X0047523Y0047175D01*
X0047523Y0046576D02*
X0195336Y0046576D01*
X0195336Y0045978D02*
X0047523Y0045978D01*
X0047523Y0045379D02*
X0195672Y0045379D01*
X0195336Y0049569D02*
X0186573Y0049569D01*
X0185975Y0050167D02*
X0195336Y0050167D01*
X0195704Y0050766D02*
X0185376Y0050766D01*
X0184778Y0051365D02*
X0197101Y0051365D01*
X0197101Y0051963D02*
X0184179Y0051963D01*
X0183581Y0052562D02*
X0197101Y0052562D01*
X0197101Y0053160D02*
X0196960Y0053160D01*
X0197077Y0053759D02*
X0197486Y0053759D01*
X0197077Y0054357D02*
X0198085Y0054357D01*
X0198683Y0054956D02*
X0197077Y0054956D01*
X0197077Y0055554D02*
X0199282Y0055554D01*
X0199880Y0056153D02*
X0197077Y0056153D01*
X0197180Y0056751D02*
X0200479Y0056751D01*
X0201077Y0057350D02*
X0197449Y0057350D01*
X0197477Y0057948D02*
X0201676Y0057948D01*
X0202274Y0058547D02*
X0197477Y0058547D01*
X0197477Y0058057D02*
X0193283Y0058057D01*
X0193283Y0058057D01*
X0189090Y0058057D01*
X0189090Y0058660D01*
X0189188Y0059025D01*
X0189377Y0059353D01*
X0189490Y0059466D01*
X0189490Y0060694D01*
X0188565Y0060694D01*
X0188565Y0058708D01*
X0188038Y0058181D01*
X0184792Y0058181D01*
X0184698Y0058275D01*
X0184463Y0058040D01*
X0184167Y0057869D01*
X0183836Y0057781D01*
X0182715Y0057781D01*
X0182715Y0061280D01*
X0182115Y0061280D01*
X0182115Y0057781D01*
X0180994Y0057781D01*
X0180696Y0057860D01*
X0181068Y0057488D01*
X0189090Y0057488D01*
X0189090Y0058057D01*
X0193283Y0058057D01*
X0193283Y0058057D01*
X0197477Y0058057D01*
X0197310Y0059145D02*
X0202873Y0059145D01*
X0204156Y0056751D02*
X0206419Y0056751D01*
X0206419Y0056153D02*
X0203557Y0056153D01*
X0202959Y0055554D02*
X0206419Y0055554D01*
X0206419Y0054956D02*
X0202360Y0054956D01*
X0201761Y0054357D02*
X0206419Y0054357D01*
X0206419Y0053759D02*
X0201163Y0053759D01*
X0200564Y0053160D02*
X0206535Y0053160D01*
X0207431Y0051325D02*
X0205394Y0051325D01*
X0205394Y0048357D01*
X0204794Y0048357D01*
X0204794Y0047757D01*
X0201629Y0047757D01*
X0201629Y0045917D01*
X0201718Y0045587D01*
X0201889Y0045290D01*
X0202131Y0045048D01*
X0202427Y0044877D01*
X0202758Y0044788D01*
X0204794Y0044788D01*
X0204794Y0047757D01*
X0205394Y0047757D01*
X0205394Y0044788D01*
X0207431Y0044788D01*
X0207761Y0044877D01*
X0208058Y0045048D01*
X0208300Y0045290D01*
X0208471Y0045587D01*
X0208560Y0045917D01*
X0208560Y0047757D01*
X0205394Y0047757D01*
X0205394Y0048357D01*
X0208560Y0048357D01*
X0208560Y0050197D01*
X0208471Y0050527D01*
X0208300Y0050824D01*
X0208058Y0051066D01*
X0207761Y0051237D01*
X0207431Y0051325D01*
X0208333Y0050766D02*
X0216698Y0050766D01*
X0216698Y0050167D02*
X0208560Y0050167D01*
X0208560Y0049569D02*
X0216698Y0049569D01*
X0216698Y0048970D02*
X0208560Y0048970D01*
X0208560Y0048372D02*
X0216698Y0048372D01*
X0216698Y0047773D02*
X0205394Y0047773D01*
X0205394Y0047175D02*
X0204794Y0047175D01*
X0204794Y0047773D02*
X0201467Y0047773D01*
X0201467Y0047175D02*
X0201629Y0047175D01*
X0201629Y0046576D02*
X0201467Y0046576D01*
X0201467Y0045978D02*
X0201629Y0045978D01*
X0201837Y0045379D02*
X0201131Y0045379D01*
X0201467Y0048372D02*
X0201629Y0048372D01*
X0201629Y0048357D02*
X0204794Y0048357D01*
X0204794Y0051325D01*
X0202758Y0051325D01*
X0202427Y0051237D01*
X0202131Y0051066D01*
X0201889Y0050824D01*
X0201718Y0050527D01*
X0201629Y0050197D01*
X0201629Y0048357D01*
X0201629Y0048970D02*
X0201467Y0048970D01*
X0201467Y0049569D02*
X0201629Y0049569D01*
X0201629Y0050167D02*
X0201467Y0050167D01*
X0201099Y0050766D02*
X0201855Y0050766D01*
X0199701Y0051365D02*
X0216698Y0051365D01*
X0216698Y0051963D02*
X0199701Y0051963D01*
X0199966Y0052562D02*
X0216698Y0052562D01*
X0216698Y0053160D02*
X0213890Y0053160D01*
X0214006Y0053759D02*
X0216698Y0053759D01*
X0216698Y0054357D02*
X0214006Y0054357D01*
X0214006Y0054956D02*
X0216698Y0054956D01*
X0216698Y0055554D02*
X0214006Y0055554D01*
X0214006Y0056153D02*
X0216698Y0056153D01*
X0216698Y0056751D02*
X0214006Y0056751D01*
X0214006Y0057350D02*
X0216698Y0057350D01*
X0216268Y0057948D02*
X0214006Y0057948D01*
X0214006Y0058547D02*
X0215670Y0058547D01*
X0218334Y0061539D02*
X0219498Y0061539D01*
X0219498Y0060941D02*
X0218932Y0060941D01*
X0219498Y0062138D02*
X0217735Y0062138D01*
X0217137Y0062736D02*
X0219498Y0062736D01*
X0219498Y0063335D02*
X0213508Y0063335D01*
X0219498Y0063933D02*
X0188565Y0063933D01*
X0188565Y0063335D02*
X0189987Y0063335D01*
X0188487Y0064532D02*
X0219498Y0064532D01*
X0219498Y0065130D02*
X0184447Y0065130D01*
X0182715Y0065130D02*
X0182115Y0065130D01*
X0182115Y0064532D02*
X0182715Y0064532D01*
X0182715Y0063933D02*
X0182115Y0063933D01*
X0182115Y0063335D02*
X0182715Y0063335D01*
X0182715Y0062736D02*
X0182115Y0062736D01*
X0182115Y0062138D02*
X0182715Y0062138D01*
X0182115Y0061539D02*
X0177017Y0061539D01*
X0177616Y0060941D02*
X0179865Y0060941D01*
X0179865Y0060342D02*
X0178214Y0060342D01*
X0178813Y0059744D02*
X0179865Y0059744D01*
X0179865Y0059145D02*
X0179411Y0059145D01*
X0182115Y0059145D02*
X0182715Y0059145D01*
X0182715Y0058547D02*
X0182115Y0058547D01*
X0182115Y0057948D02*
X0182715Y0057948D01*
X0184304Y0057948D02*
X0189090Y0057948D01*
X0189090Y0058547D02*
X0188404Y0058547D01*
X0188565Y0059145D02*
X0189257Y0059145D01*
X0189490Y0059744D02*
X0188565Y0059744D01*
X0188565Y0060342D02*
X0189490Y0060342D01*
X0182715Y0060342D02*
X0182115Y0060342D01*
X0182115Y0059744D02*
X0182715Y0059744D01*
X0182715Y0060941D02*
X0182115Y0060941D01*
X0179865Y0062138D02*
X0176419Y0062138D01*
X0175820Y0062736D02*
X0179865Y0062736D01*
X0179865Y0063335D02*
X0175222Y0063335D01*
X0174623Y0063933D02*
X0179865Y0063933D01*
X0179940Y0064532D02*
X0174408Y0064532D01*
X0174408Y0065130D02*
X0180383Y0065130D01*
X0174408Y0065729D02*
X0219498Y0065729D01*
X0219498Y0066327D02*
X0174408Y0066327D01*
X0174408Y0066926D02*
X0219472Y0066926D01*
X0218874Y0067524D02*
X0174408Y0067524D01*
X0174408Y0068123D02*
X0218275Y0068123D01*
X0217677Y0068721D02*
X0174408Y0068721D01*
X0174408Y0069320D02*
X0217078Y0069320D01*
X0216480Y0069918D02*
X0174408Y0069918D01*
X0174408Y0070517D02*
X0215881Y0070517D01*
X0215283Y0071115D02*
X0174408Y0071115D01*
X0174408Y0071714D02*
X0214684Y0071714D01*
X0214086Y0072312D02*
X0181063Y0072312D01*
X0181662Y0072911D02*
X0213487Y0072911D01*
X0215369Y0074706D02*
X0219052Y0074706D01*
X0218453Y0074108D02*
X0215967Y0074108D01*
X0216566Y0073509D02*
X0217855Y0073509D01*
X0217797Y0072911D02*
X0217164Y0072911D01*
X0217763Y0072312D02*
X0217797Y0072312D01*
X0221519Y0074108D02*
X0238233Y0074108D01*
X0238233Y0074706D02*
X0220920Y0074706D01*
X0222117Y0073509D02*
X0238233Y0073509D01*
X0238233Y0072911D02*
X0222175Y0072911D01*
X0222175Y0072312D02*
X0238233Y0072312D01*
X0238233Y0071714D02*
X0222656Y0071714D01*
X0223254Y0071115D02*
X0238233Y0071115D01*
X0238233Y0070517D02*
X0223492Y0070517D01*
X0223492Y0069918D02*
X0238233Y0069918D01*
X0238233Y0069320D02*
X0223492Y0069320D01*
X0223492Y0068721D02*
X0238233Y0068721D01*
X0238233Y0068123D02*
X0223492Y0068123D01*
X0223492Y0067524D02*
X0238233Y0067524D01*
X0238233Y0066926D02*
X0223492Y0066926D01*
X0223485Y0065130D02*
X0238233Y0065130D01*
X0238233Y0064532D02*
X0223485Y0064532D01*
X0223485Y0063933D02*
X0238233Y0063933D01*
X0238233Y0063335D02*
X0223485Y0063335D01*
X0223485Y0062736D02*
X0238233Y0062736D01*
X0238233Y0062138D02*
X0223485Y0062138D01*
X0223485Y0061539D02*
X0238233Y0061539D01*
X0238233Y0060941D02*
X0223485Y0060941D01*
X0223485Y0060342D02*
X0238233Y0060342D01*
X0238233Y0059744D02*
X0223485Y0059744D01*
X0223485Y0059145D02*
X0238233Y0059145D01*
X0238233Y0058547D02*
X0223485Y0058547D01*
X0223485Y0057948D02*
X0238233Y0057948D01*
X0238233Y0057350D02*
X0223485Y0057350D01*
X0223485Y0056751D02*
X0238233Y0056751D01*
X0238233Y0056153D02*
X0223485Y0056153D01*
X0223485Y0055554D02*
X0238233Y0055554D01*
X0238233Y0054956D02*
X0223485Y0054956D01*
X0223485Y0054357D02*
X0238233Y0054357D01*
X0238233Y0053759D02*
X0223485Y0053759D01*
X0223485Y0053160D02*
X0238233Y0053160D01*
X0238233Y0052562D02*
X0223485Y0052562D01*
X0223485Y0051963D02*
X0238233Y0051963D01*
X0238233Y0051365D02*
X0223485Y0051365D01*
X0223485Y0050766D02*
X0238233Y0050766D01*
X0238233Y0050167D02*
X0223485Y0050167D01*
X0223485Y0049569D02*
X0238233Y0049569D01*
X0238233Y0048970D02*
X0223485Y0048970D01*
X0223485Y0048372D02*
X0238233Y0048372D01*
X0238233Y0047773D02*
X0223485Y0047773D01*
X0223485Y0047175D02*
X0238233Y0047175D01*
X0238233Y0046576D02*
X0223485Y0046576D01*
X0223485Y0045978D02*
X0238233Y0045978D01*
X0238233Y0045379D02*
X0223485Y0045379D01*
X0223485Y0044781D02*
X0238233Y0044781D01*
X0238233Y0044182D02*
X0223485Y0044182D01*
X0223485Y0043584D02*
X0238233Y0043584D01*
X0238233Y0042985D02*
X0223485Y0042985D01*
X0223485Y0042387D02*
X0238233Y0042387D01*
X0238233Y0041788D02*
X0223485Y0041788D01*
X0223485Y0041190D02*
X0238233Y0041190D01*
X0238233Y0040591D02*
X0222965Y0040591D01*
X0222366Y0039993D02*
X0238233Y0039993D01*
X0238233Y0039394D02*
X0221768Y0039394D01*
X0221169Y0038796D02*
X0238233Y0038796D01*
X0238233Y0038197D02*
X0220571Y0038197D01*
X0219972Y0037599D02*
X0238233Y0037599D01*
X0238233Y0037000D02*
X0219374Y0037000D01*
X0218775Y0036402D02*
X0238233Y0036402D01*
X0238233Y0035803D02*
X0138814Y0035803D01*
X0138215Y0035205D02*
X0238233Y0035205D01*
X0238233Y0034606D02*
X0137617Y0034606D01*
X0137018Y0034008D02*
X0229224Y0034008D01*
X0229383Y0034117D02*
X0226855Y0032372D01*
X0225427Y0029652D01*
X0225427Y0026580D01*
X0226855Y0023860D01*
X0226855Y0023860D01*
X0229383Y0022114D01*
X0232433Y0021744D01*
X0235305Y0022834D01*
X0237343Y0025133D01*
X0238078Y0028116D01*
X0237343Y0031099D01*
X0235305Y0033398D01*
X0232433Y0034488D01*
X0232433Y0034488D01*
X0229383Y0034117D01*
X0229383Y0034117D01*
X0228357Y0033409D02*
X0136792Y0033409D01*
X0136792Y0032811D02*
X0227490Y0032811D01*
X0226855Y0032372D02*
X0226855Y0032372D01*
X0226771Y0032212D02*
X0136792Y0032212D01*
X0137126Y0031614D02*
X0143870Y0031614D01*
X0143119Y0031303D02*
X0141937Y0030121D01*
X0141298Y0028577D01*
X0141298Y0026906D01*
X0141937Y0025363D01*
X0143119Y0024181D01*
X0144662Y0023542D01*
X0146333Y0023542D01*
X0147877Y0024181D01*
X0149058Y0025363D01*
X0149698Y0026906D01*
X0149698Y0028577D01*
X0149058Y0030121D01*
X0147877Y0031303D01*
X0146333Y0031942D01*
X0144662Y0031942D01*
X0143119Y0031303D01*
X0142831Y0031015D02*
X0138164Y0031015D01*
X0138763Y0030417D02*
X0142233Y0030417D01*
X0141812Y0029818D02*
X0139184Y0029818D01*
X0139432Y0029220D02*
X0141564Y0029220D01*
X0141316Y0028621D02*
X0139680Y0028621D01*
X0139698Y0028023D02*
X0141298Y0028023D01*
X0141298Y0027424D02*
X0139698Y0027424D01*
X0139664Y0026826D02*
X0141331Y0026826D01*
X0141579Y0026227D02*
X0139416Y0026227D01*
X0139168Y0025629D02*
X0141827Y0025629D01*
X0142270Y0025030D02*
X0138726Y0025030D01*
X0138127Y0024432D02*
X0142869Y0024432D01*
X0143960Y0023833D02*
X0137036Y0023833D01*
X0133960Y0023833D02*
X0127036Y0023833D01*
X0128127Y0024432D02*
X0132869Y0024432D01*
X0132270Y0025030D02*
X0128726Y0025030D01*
X0129168Y0025629D02*
X0131827Y0025629D01*
X0131579Y0026227D02*
X0129416Y0026227D01*
X0129664Y0026826D02*
X0131331Y0026826D01*
X0131298Y0027424D02*
X0129698Y0027424D01*
X0129698Y0028023D02*
X0131298Y0028023D01*
X0131316Y0028621D02*
X0129680Y0028621D01*
X0129432Y0029220D02*
X0131564Y0029220D01*
X0131812Y0029818D02*
X0129184Y0029818D01*
X0128763Y0030417D02*
X0132233Y0030417D01*
X0132831Y0031015D02*
X0128164Y0031015D01*
X0127126Y0031614D02*
X0133870Y0031614D01*
X0134204Y0032212D02*
X0126792Y0032212D01*
X0126792Y0032811D02*
X0134204Y0032811D01*
X0134204Y0033409D02*
X0126792Y0033409D01*
X0126792Y0034008D02*
X0134204Y0034008D01*
X0134204Y0034606D02*
X0126792Y0034606D01*
X0126792Y0035205D02*
X0134556Y0035205D01*
X0135155Y0035803D02*
X0127247Y0035803D01*
X0127846Y0036402D02*
X0135753Y0036402D01*
X0136352Y0037000D02*
X0128444Y0037000D01*
X0121298Y0027424D02*
X0120098Y0027424D01*
X0120010Y0026826D02*
X0121331Y0026826D01*
X0121579Y0026227D02*
X0119842Y0026227D01*
X0119584Y0025629D02*
X0121827Y0025629D01*
X0122270Y0025030D02*
X0119213Y0025030D01*
X0118693Y0024432D02*
X0122869Y0024432D01*
X0123960Y0023833D02*
X0117944Y0023833D01*
X0116444Y0023234D02*
X0227761Y0023234D01*
X0228628Y0022636D02*
X0033997Y0022636D01*
X0032419Y0022037D02*
X0230017Y0022037D01*
X0229383Y0022114D02*
X0229383Y0022114D01*
X0226893Y0023833D02*
X0207036Y0023833D01*
X0206333Y0023542D02*
X0207877Y0024181D01*
X0209058Y0025363D01*
X0209698Y0026906D01*
X0209698Y0028577D01*
X0209058Y0030121D01*
X0207877Y0031303D01*
X0206333Y0031942D01*
X0204662Y0031942D01*
X0203119Y0031303D01*
X0201937Y0030121D01*
X0201298Y0028577D01*
X0201298Y0026906D01*
X0201937Y0025363D01*
X0203119Y0024181D01*
X0204662Y0023542D01*
X0206333Y0023542D01*
X0208127Y0024432D02*
X0226555Y0024432D01*
X0226855Y0023860D02*
X0226855Y0023860D01*
X0226241Y0025030D02*
X0208726Y0025030D01*
X0209168Y0025629D02*
X0225926Y0025629D01*
X0225612Y0026227D02*
X0209416Y0026227D01*
X0209664Y0026826D02*
X0225427Y0026826D01*
X0225427Y0027424D02*
X0209698Y0027424D01*
X0209698Y0028023D02*
X0225427Y0028023D01*
X0225427Y0028621D02*
X0209680Y0028621D01*
X0209432Y0029220D02*
X0225427Y0029220D01*
X0225514Y0029818D02*
X0209184Y0029818D01*
X0208763Y0030417D02*
X0225828Y0030417D01*
X0226143Y0031015D02*
X0208164Y0031015D01*
X0207126Y0031614D02*
X0226457Y0031614D01*
X0233699Y0034008D02*
X0238233Y0034008D01*
X0238233Y0033409D02*
X0235277Y0033409D01*
X0235305Y0033398D02*
X0235305Y0033398D01*
X0235826Y0032811D02*
X0238233Y0032811D01*
X0238233Y0032212D02*
X0236356Y0032212D01*
X0236887Y0031614D02*
X0238233Y0031614D01*
X0238233Y0031015D02*
X0237363Y0031015D01*
X0237343Y0031099D02*
X0237343Y0031099D01*
X0237511Y0030417D02*
X0238233Y0030417D01*
X0238233Y0029818D02*
X0237658Y0029818D01*
X0237806Y0029220D02*
X0238233Y0029220D01*
X0238233Y0028621D02*
X0237953Y0028621D01*
X0238078Y0028116D02*
X0238078Y0028116D01*
X0238055Y0028023D02*
X0238225Y0028023D01*
X0238178Y0027424D02*
X0237907Y0027424D01*
X0237760Y0026826D02*
X0238067Y0026826D01*
X0237872Y0026227D02*
X0237612Y0026227D01*
X0237678Y0025629D02*
X0237465Y0025629D01*
X0237343Y0025133D02*
X0237343Y0025133D01*
X0237251Y0025030D02*
X0237442Y0025030D01*
X0237008Y0024432D02*
X0236721Y0024432D01*
X0236573Y0023833D02*
X0236191Y0023833D01*
X0235986Y0023234D02*
X0235661Y0023234D01*
X0235305Y0022834D02*
X0235305Y0022834D01*
X0235305Y0022834D01*
X0235163Y0022636D02*
X0234784Y0022636D01*
X0233962Y0022037D02*
X0233206Y0022037D01*
X0232433Y0021744D02*
X0232433Y0021744D01*
X0203960Y0023833D02*
X0197036Y0023833D01*
X0196333Y0023542D02*
X0197877Y0024181D01*
X0199058Y0025363D01*
X0199698Y0026906D01*
X0199698Y0028577D01*
X0199058Y0030121D01*
X0197877Y0031303D01*
X0196333Y0031942D01*
X0194662Y0031942D01*
X0193119Y0031303D01*
X0191937Y0030121D01*
X0191298Y0028577D01*
X0191298Y0026906D01*
X0191937Y0025363D01*
X0193119Y0024181D01*
X0194662Y0023542D01*
X0196333Y0023542D01*
X0198127Y0024432D02*
X0202869Y0024432D01*
X0202270Y0025030D02*
X0198726Y0025030D01*
X0199168Y0025629D02*
X0201827Y0025629D01*
X0201579Y0026227D02*
X0199416Y0026227D01*
X0199664Y0026826D02*
X0201331Y0026826D01*
X0201298Y0027424D02*
X0199698Y0027424D01*
X0199698Y0028023D02*
X0201298Y0028023D01*
X0201316Y0028621D02*
X0199680Y0028621D01*
X0199432Y0029220D02*
X0201564Y0029220D01*
X0201812Y0029818D02*
X0199184Y0029818D01*
X0198763Y0030417D02*
X0202233Y0030417D01*
X0202831Y0031015D02*
X0198164Y0031015D01*
X0197126Y0031614D02*
X0203870Y0031614D01*
X0193870Y0031614D02*
X0187126Y0031614D01*
X0187877Y0031303D02*
X0186333Y0031942D01*
X0184662Y0031942D01*
X0183119Y0031303D01*
X0181937Y0030121D01*
X0181298Y0028577D01*
X0181298Y0026906D01*
X0181937Y0025363D01*
X0183119Y0024181D01*
X0184662Y0023542D01*
X0186333Y0023542D01*
X0187877Y0024181D01*
X0189058Y0025363D01*
X0189698Y0026906D01*
X0189698Y0028577D01*
X0189058Y0030121D01*
X0187877Y0031303D01*
X0188164Y0031015D02*
X0192831Y0031015D01*
X0192233Y0030417D02*
X0188763Y0030417D01*
X0189184Y0029818D02*
X0191812Y0029818D01*
X0191564Y0029220D02*
X0189432Y0029220D01*
X0189680Y0028621D02*
X0191316Y0028621D01*
X0191298Y0028023D02*
X0189698Y0028023D01*
X0189698Y0027424D02*
X0191298Y0027424D01*
X0191331Y0026826D02*
X0189664Y0026826D01*
X0189416Y0026227D02*
X0191579Y0026227D01*
X0191827Y0025629D02*
X0189168Y0025629D01*
X0188726Y0025030D02*
X0192270Y0025030D01*
X0192869Y0024432D02*
X0188127Y0024432D01*
X0187036Y0023833D02*
X0193960Y0023833D01*
X0183960Y0023833D02*
X0177036Y0023833D01*
X0176333Y0023542D02*
X0177877Y0024181D01*
X0179058Y0025363D01*
X0179698Y0026906D01*
X0179698Y0028577D01*
X0179058Y0030121D01*
X0177877Y0031303D01*
X0176333Y0031942D01*
X0174662Y0031942D01*
X0173119Y0031303D01*
X0171937Y0030121D01*
X0171298Y0028577D01*
X0171298Y0026906D01*
X0171937Y0025363D01*
X0173119Y0024181D01*
X0174662Y0023542D01*
X0176333Y0023542D01*
X0178127Y0024432D02*
X0182869Y0024432D01*
X0182270Y0025030D02*
X0178726Y0025030D01*
X0179168Y0025629D02*
X0181827Y0025629D01*
X0181579Y0026227D02*
X0179416Y0026227D01*
X0179664Y0026826D02*
X0181331Y0026826D01*
X0181298Y0027424D02*
X0179698Y0027424D01*
X0179698Y0028023D02*
X0181298Y0028023D01*
X0181316Y0028621D02*
X0179680Y0028621D01*
X0179432Y0029220D02*
X0181564Y0029220D01*
X0181812Y0029818D02*
X0179184Y0029818D01*
X0178763Y0030417D02*
X0182233Y0030417D01*
X0182831Y0031015D02*
X0178164Y0031015D01*
X0177126Y0031614D02*
X0183870Y0031614D01*
X0173870Y0031614D02*
X0167126Y0031614D01*
X0167877Y0031303D02*
X0166333Y0031942D01*
X0164662Y0031942D01*
X0163119Y0031303D01*
X0161937Y0030121D01*
X0161298Y0028577D01*
X0161298Y0026906D01*
X0161937Y0025363D01*
X0163119Y0024181D01*
X0164662Y0023542D01*
X0166333Y0023542D01*
X0167877Y0024181D01*
X0169058Y0025363D01*
X0169698Y0026906D01*
X0169698Y0028577D01*
X0169058Y0030121D01*
X0167877Y0031303D01*
X0168164Y0031015D02*
X0172831Y0031015D01*
X0172233Y0030417D02*
X0168763Y0030417D01*
X0169184Y0029818D02*
X0171812Y0029818D01*
X0171564Y0029220D02*
X0169432Y0029220D01*
X0169680Y0028621D02*
X0171316Y0028621D01*
X0171298Y0028023D02*
X0169698Y0028023D01*
X0169698Y0027424D02*
X0171298Y0027424D01*
X0171331Y0026826D02*
X0169664Y0026826D01*
X0169416Y0026227D02*
X0171579Y0026227D01*
X0171827Y0025629D02*
X0169168Y0025629D01*
X0168726Y0025030D02*
X0172270Y0025030D01*
X0172869Y0024432D02*
X0168127Y0024432D01*
X0167036Y0023833D02*
X0173960Y0023833D01*
X0163960Y0023833D02*
X0157036Y0023833D01*
X0156333Y0023542D02*
X0157877Y0024181D01*
X0159058Y0025363D01*
X0159698Y0026906D01*
X0159698Y0028577D01*
X0159058Y0030121D01*
X0157877Y0031303D01*
X0156333Y0031942D01*
X0154662Y0031942D01*
X0153119Y0031303D01*
X0151937Y0030121D01*
X0151298Y0028577D01*
X0151298Y0026906D01*
X0151937Y0025363D01*
X0153119Y0024181D01*
X0154662Y0023542D01*
X0156333Y0023542D01*
X0158127Y0024432D02*
X0162869Y0024432D01*
X0162270Y0025030D02*
X0158726Y0025030D01*
X0159168Y0025629D02*
X0161827Y0025629D01*
X0161579Y0026227D02*
X0159416Y0026227D01*
X0159664Y0026826D02*
X0161331Y0026826D01*
X0161298Y0027424D02*
X0159698Y0027424D01*
X0159698Y0028023D02*
X0161298Y0028023D01*
X0161316Y0028621D02*
X0159680Y0028621D01*
X0159432Y0029220D02*
X0161564Y0029220D01*
X0161812Y0029818D02*
X0159184Y0029818D01*
X0158763Y0030417D02*
X0162233Y0030417D01*
X0162831Y0031015D02*
X0158164Y0031015D01*
X0157126Y0031614D02*
X0163870Y0031614D01*
X0153870Y0031614D02*
X0147126Y0031614D01*
X0148164Y0031015D02*
X0152831Y0031015D01*
X0152233Y0030417D02*
X0148763Y0030417D01*
X0149184Y0029818D02*
X0151812Y0029818D01*
X0151564Y0029220D02*
X0149432Y0029220D01*
X0149680Y0028621D02*
X0151316Y0028621D01*
X0151298Y0028023D02*
X0149698Y0028023D01*
X0149698Y0027424D02*
X0151298Y0027424D01*
X0151331Y0026826D02*
X0149664Y0026826D01*
X0149416Y0026227D02*
X0151579Y0026227D01*
X0151827Y0025629D02*
X0149168Y0025629D01*
X0148726Y0025030D02*
X0152270Y0025030D01*
X0152869Y0024432D02*
X0148127Y0024432D01*
X0147036Y0023833D02*
X0153960Y0023833D01*
X0181119Y0051365D02*
X0047523Y0051365D01*
X0047523Y0050766D02*
X0181717Y0050766D01*
X0180520Y0051963D02*
X0047007Y0051963D01*
X0046408Y0052562D02*
X0179921Y0052562D01*
X0179323Y0053160D02*
X0045810Y0053160D01*
X0045211Y0053759D02*
X0178724Y0053759D01*
X0178126Y0054357D02*
X0044410Y0054357D01*
X0044410Y0054956D02*
X0177527Y0054956D01*
X0176929Y0055554D02*
X0043939Y0055554D01*
X0048259Y0057350D02*
X0036051Y0057350D01*
X0036051Y0057948D02*
X0048102Y0057948D01*
X0048102Y0058547D02*
X0036051Y0058547D01*
X0036051Y0059145D02*
X0047115Y0059145D01*
X0046598Y0059662D02*
X0046598Y0059662D01*
X0046516Y0059744D02*
X0036051Y0059744D01*
X0037658Y0060342D02*
X0038337Y0060342D01*
X0038279Y0060941D02*
X0037717Y0060941D01*
X0037717Y0061539D02*
X0038279Y0061539D01*
X0038279Y0062138D02*
X0037717Y0062138D01*
X0037717Y0062736D02*
X0038279Y0062736D01*
X0038279Y0063335D02*
X0037717Y0063335D01*
X0037717Y0063933D02*
X0038279Y0063933D01*
X0038279Y0064532D02*
X0037717Y0064532D01*
X0034452Y0066926D02*
X0024298Y0066926D01*
X0024298Y0067524D02*
X0063794Y0067524D01*
X0064392Y0068123D02*
X0024298Y0068123D01*
X0024298Y0068721D02*
X0171608Y0068721D01*
X0171608Y0068123D02*
X0066603Y0068123D01*
X0067202Y0067524D02*
X0171608Y0067524D01*
X0171608Y0066926D02*
X0169225Y0066926D01*
X0169815Y0066327D02*
X0171608Y0066327D01*
X0171608Y0065729D02*
X0170413Y0065729D01*
X0171012Y0065130D02*
X0171608Y0065130D01*
X0169747Y0062736D02*
X0063294Y0062736D01*
X0063294Y0062775D02*
X0063205Y0063106D01*
X0063034Y0063402D01*
X0062792Y0063644D01*
X0062496Y0063816D01*
X0062165Y0063904D01*
X0059932Y0063904D01*
X0059932Y0060542D01*
X0063294Y0060542D01*
X0063294Y0062775D01*
X0063073Y0063335D02*
X0169148Y0063335D01*
X0168550Y0063933D02*
X0046286Y0063933D01*
X0046885Y0063335D02*
X0048460Y0063335D01*
X0048102Y0062736D02*
X0047483Y0062736D01*
X0046898Y0063322D02*
X0046898Y0063322D01*
X0048082Y0062138D02*
X0048102Y0062138D01*
X0045918Y0060342D02*
X0044351Y0060342D01*
X0044410Y0060941D02*
X0045319Y0060941D01*
X0044410Y0064532D02*
X0064003Y0064532D01*
X0063294Y0062138D02*
X0170345Y0062138D01*
X0170944Y0061539D02*
X0063294Y0061539D01*
X0063294Y0060941D02*
X0171542Y0060941D01*
X0172141Y0060342D02*
X0059932Y0060342D01*
X0059932Y0060542D02*
X0059932Y0059942D01*
X0063294Y0059942D01*
X0063294Y0057709D01*
X0063205Y0057378D01*
X0063034Y0057081D01*
X0062792Y0056839D01*
X0062496Y0056668D01*
X0062165Y0056580D01*
X0059932Y0056580D01*
X0059932Y0059942D01*
X0059332Y0059942D01*
X0059332Y0056580D01*
X0057098Y0056580D01*
X0056768Y0056668D01*
X0056471Y0056839D01*
X0056229Y0057081D01*
X0056058Y0057378D01*
X0055969Y0057709D01*
X0055969Y0059942D01*
X0059332Y0059942D01*
X0059332Y0060542D01*
X0059332Y0063904D01*
X0057098Y0063904D01*
X0056768Y0063816D01*
X0056471Y0063644D01*
X0056229Y0063402D01*
X0056058Y0063106D01*
X0055969Y0062775D01*
X0055969Y0060542D01*
X0059332Y0060542D01*
X0059932Y0060542D01*
X0059932Y0060941D02*
X0059332Y0060941D01*
X0059332Y0061539D02*
X0059932Y0061539D01*
X0059932Y0062138D02*
X0059332Y0062138D01*
X0059332Y0062736D02*
X0059932Y0062736D01*
X0059932Y0063335D02*
X0059332Y0063335D01*
X0056190Y0063335D02*
X0054268Y0063335D01*
X0054626Y0062736D02*
X0055969Y0062736D01*
X0055969Y0062138D02*
X0054626Y0062138D01*
X0054626Y0061539D02*
X0055969Y0061539D01*
X0055969Y0060941D02*
X0054626Y0060941D01*
X0054626Y0060342D02*
X0059332Y0060342D01*
X0059332Y0059744D02*
X0059932Y0059744D01*
X0059932Y0059145D02*
X0059332Y0059145D01*
X0059332Y0058547D02*
X0059932Y0058547D01*
X0059932Y0057948D02*
X0059332Y0057948D01*
X0059332Y0057350D02*
X0059932Y0057350D01*
X0059932Y0056751D02*
X0059332Y0056751D01*
X0056624Y0056751D02*
X0036051Y0056751D01*
X0036051Y0056153D02*
X0176330Y0056153D01*
X0175732Y0056751D02*
X0062639Y0056751D01*
X0063189Y0057350D02*
X0175133Y0057350D01*
X0174535Y0057948D02*
X0063294Y0057948D01*
X0063294Y0058547D02*
X0173936Y0058547D01*
X0173338Y0059145D02*
X0063294Y0059145D01*
X0063294Y0059744D02*
X0172739Y0059744D01*
X0167951Y0064532D02*
X0066993Y0064532D01*
X0068976Y0070517D02*
X0062689Y0070517D01*
X0063048Y0070666D02*
X0064149Y0071766D01*
X0064744Y0073204D01*
X0064744Y0074760D01*
X0064149Y0076198D01*
X0063048Y0077298D01*
X0061611Y0077894D01*
X0060054Y0077894D01*
X0058617Y0077298D01*
X0057516Y0076198D01*
X0056921Y0074760D01*
X0056921Y0073204D01*
X0057516Y0071766D01*
X0058617Y0070666D01*
X0060054Y0070070D01*
X0061611Y0070070D01*
X0063048Y0070666D01*
X0063498Y0071115D02*
X0068167Y0071115D01*
X0068617Y0070666D02*
X0067516Y0071766D01*
X0066921Y0073204D01*
X0066921Y0074760D01*
X0067516Y0076198D01*
X0068617Y0077298D01*
X0070054Y0077894D01*
X0071611Y0077894D01*
X0073048Y0077298D01*
X0074149Y0076198D01*
X0074744Y0074760D01*
X0074744Y0073204D01*
X0074149Y0071766D01*
X0073048Y0070666D01*
X0071611Y0070070D01*
X0070054Y0070070D01*
X0068617Y0070666D01*
X0067569Y0071714D02*
X0064096Y0071714D01*
X0064375Y0072312D02*
X0067290Y0072312D01*
X0067042Y0072911D02*
X0064623Y0072911D01*
X0064744Y0073509D02*
X0066921Y0073509D01*
X0066921Y0074108D02*
X0064744Y0074108D01*
X0064744Y0074706D02*
X0066921Y0074706D01*
X0067146Y0075305D02*
X0064519Y0075305D01*
X0064271Y0075903D02*
X0067394Y0075903D01*
X0067820Y0076502D02*
X0063845Y0076502D01*
X0063246Y0077101D02*
X0068419Y0077101D01*
X0069584Y0077699D02*
X0062081Y0077699D01*
X0061611Y0080070D02*
X0063048Y0080666D01*
X0064149Y0081766D01*
X0064744Y0083204D01*
X0064744Y0084760D01*
X0064149Y0086198D01*
X0063048Y0087298D01*
X0061611Y0087894D01*
X0060054Y0087894D01*
X0058617Y0087298D01*
X0057516Y0086198D01*
X0056921Y0084760D01*
X0056921Y0083204D01*
X0057516Y0081766D01*
X0058617Y0080666D01*
X0060054Y0080070D01*
X0061611Y0080070D01*
X0061666Y0080093D02*
X0069999Y0080093D01*
X0070054Y0080070D02*
X0071611Y0080070D01*
X0073048Y0080666D01*
X0074149Y0081766D01*
X0074744Y0083204D01*
X0074744Y0084760D01*
X0074149Y0086198D01*
X0073048Y0087298D01*
X0071611Y0087894D01*
X0070054Y0087894D01*
X0068617Y0087298D01*
X0067516Y0086198D01*
X0066921Y0084760D01*
X0066921Y0083204D01*
X0067516Y0081766D01*
X0068617Y0080666D01*
X0070054Y0080070D01*
X0068591Y0080692D02*
X0063074Y0080692D01*
X0063673Y0081290D02*
X0067992Y0081290D01*
X0067466Y0081889D02*
X0064199Y0081889D01*
X0064447Y0082487D02*
X0067218Y0082487D01*
X0066970Y0083086D02*
X0064695Y0083086D01*
X0064744Y0083684D02*
X0066921Y0083684D01*
X0066921Y0084283D02*
X0064744Y0084283D01*
X0064694Y0084881D02*
X0066971Y0084881D01*
X0067219Y0085480D02*
X0064446Y0085480D01*
X0064198Y0086078D02*
X0067467Y0086078D01*
X0067995Y0086677D02*
X0063670Y0086677D01*
X0063071Y0087275D02*
X0068593Y0087275D01*
X0070006Y0087874D02*
X0061659Y0087874D01*
X0060006Y0087874D02*
X0024298Y0087874D01*
X0024298Y0088472D02*
X0081669Y0088472D01*
X0081669Y0087874D02*
X0071659Y0087874D01*
X0073071Y0087275D02*
X0081937Y0087275D01*
X0081669Y0087544D02*
X0083606Y0085607D01*
X0084426Y0084787D01*
X0089523Y0084787D01*
X0089706Y0084971D01*
X0089706Y0084296D01*
X0090989Y0083014D01*
X0092802Y0083014D01*
X0093355Y0083566D01*
X0095112Y0083566D01*
X0095112Y0083494D01*
X0095639Y0082966D01*
X0104985Y0082966D01*
X0105099Y0083080D01*
X0106204Y0081975D01*
X0106204Y0081751D01*
X0105415Y0080962D01*
X0105415Y0079148D01*
X0106697Y0077866D01*
X0108079Y0077866D01*
X0108859Y0077086D01*
X0109679Y0076266D01*
X0113549Y0076266D01*
X0114195Y0076913D01*
X0138045Y0076913D01*
X0138865Y0077733D01*
X0144516Y0083384D01*
X0145123Y0082777D01*
X0146936Y0082777D01*
X0147125Y0082966D01*
X0156166Y0082966D01*
X0156693Y0083494D01*
X0156693Y0086439D01*
X0156166Y0086966D01*
X0147125Y0086966D01*
X0146936Y0087155D01*
X0146156Y0087155D01*
X0146250Y0087249D01*
X0146250Y0088364D01*
X0146336Y0088451D01*
X0146820Y0087966D01*
X0156166Y0087966D01*
X0156693Y0088494D01*
X0156693Y0091439D01*
X0156166Y0091966D01*
X0146820Y0091966D01*
X0146293Y0091439D01*
X0146293Y0091366D01*
X0145292Y0091366D01*
X0144270Y0090344D01*
X0143154Y0090344D01*
X0141872Y0089062D01*
X0141872Y0087946D01*
X0135381Y0081455D01*
X0132914Y0081455D01*
X0133049Y0081491D01*
X0133345Y0081662D01*
X0133587Y0081904D01*
X0133758Y0082201D01*
X0133847Y0082531D01*
X0133847Y0084903D01*
X0131597Y0084903D01*
X0131597Y0085503D01*
X0130997Y0085503D01*
X0130997Y0089003D01*
X0130997Y0090808D01*
X0131597Y0090808D01*
X0131597Y0085503D01*
X0133847Y0085503D01*
X0133847Y0087874D01*
X0141799Y0087874D01*
X0141872Y0088472D02*
X0133847Y0088472D01*
X0133847Y0088437D02*
X0133847Y0090808D01*
X0131597Y0090808D01*
X0131597Y0091408D01*
X0133847Y0091408D01*
X0133847Y0093779D01*
X0133758Y0094110D01*
X0133587Y0094406D01*
X0133345Y0094648D01*
X0133049Y0094819D01*
X0132718Y0094908D01*
X0131597Y0094908D01*
X0131597Y0091408D01*
X0130997Y0091408D01*
X0130997Y0094908D01*
X0129876Y0094908D01*
X0129545Y0094819D01*
X0129249Y0094648D01*
X0129014Y0094414D01*
X0128920Y0094508D01*
X0125674Y0094508D01*
X0125147Y0093981D01*
X0125147Y0092508D01*
X0124952Y0092508D01*
X0124132Y0091688D01*
X0123998Y0091553D01*
X0123585Y0091966D01*
X0114239Y0091966D01*
X0113712Y0091439D01*
X0113712Y0088494D01*
X0114239Y0087966D01*
X0123585Y0087966D01*
X0124112Y0088494D01*
X0124112Y0088566D01*
X0124970Y0088566D01*
X0125147Y0088743D01*
X0125147Y0088235D01*
X0125227Y0088155D01*
X0125147Y0088075D01*
X0125147Y0086366D01*
X0124112Y0086366D01*
X0124112Y0086439D01*
X0123585Y0086966D01*
X0114239Y0086966D01*
X0113712Y0086439D01*
X0113712Y0083494D01*
X0114239Y0082966D01*
X0123585Y0082966D01*
X0124112Y0083494D01*
X0124112Y0083566D01*
X0125147Y0083566D01*
X0125147Y0082330D01*
X0125674Y0081803D01*
X0128920Y0081803D01*
X0129014Y0081897D01*
X0129249Y0081662D01*
X0129545Y0081491D01*
X0129681Y0081455D01*
X0113675Y0081455D01*
X0112886Y0082244D01*
X0112395Y0082244D01*
X0111504Y0083135D01*
X0111504Y0086260D01*
X0110684Y0087080D01*
X0106398Y0091366D01*
X0105512Y0091366D01*
X0105512Y0091439D01*
X0104985Y0091966D01*
X0095639Y0091966D01*
X0095112Y0091439D01*
X0095112Y0091366D01*
X0092142Y0091366D01*
X0088363Y0087587D01*
X0087607Y0087587D01*
X0088543Y0088523D01*
X0088543Y0089215D01*
X0088643Y0089314D01*
X0088643Y0091722D01*
X0088943Y0092022D01*
X0089320Y0091645D01*
X0092566Y0091645D01*
X0093093Y0092172D01*
X0093093Y0093566D01*
X0095112Y0093566D01*
X0095112Y0093494D01*
X0095639Y0092966D01*
X0104985Y0092966D01*
X0105512Y0093494D01*
X0105512Y0096439D01*
X0104985Y0096966D01*
X0095639Y0096966D01*
X0095112Y0096439D01*
X0095112Y0096366D01*
X0093093Y0096366D01*
X0093093Y0097918D01*
X0092566Y0098445D01*
X0089320Y0098445D01*
X0088943Y0098068D01*
X0088566Y0098445D01*
X0088443Y0098445D01*
X0088443Y0098466D01*
X0095139Y0098466D01*
X0095639Y0097966D01*
X0104985Y0097966D01*
X0105512Y0098494D01*
X0105512Y0098808D01*
X0105675Y0098971D01*
X0106079Y0098566D01*
X0106922Y0098566D01*
X0107022Y0098466D01*
X0108016Y0098466D01*
X0108705Y0097777D01*
X0110519Y0097777D01*
X0111801Y0099060D01*
X0111801Y0100873D01*
X0110519Y0102155D01*
X0108705Y0102155D01*
X0108016Y0101466D01*
X0107139Y0101466D01*
X0107075Y0101530D01*
X0107075Y0102794D01*
X0107112Y0102831D01*
X0107112Y0117140D01*
X0108650Y0118678D01*
X0108650Y0118751D01*
X0109788Y0118751D01*
X0110315Y0119279D01*
X0110315Y0123961D01*
X0109788Y0124488D01*
X0104712Y0124488D01*
X0104184Y0123961D01*
X0104184Y0119279D01*
X0104712Y0118751D01*
X0104764Y0118751D01*
X0104312Y0118300D01*
X0104312Y0116966D01*
X0095639Y0116966D01*
X0095339Y0116666D01*
X0094647Y0116666D01*
X0093595Y0117718D01*
X0093595Y0121407D01*
X0094768Y0121407D01*
X0095295Y0121934D01*
X0095295Y0125180D01*
X0095201Y0125274D01*
X0095436Y0125509D01*
X0095607Y0125805D01*
X0095695Y0126136D01*
X0095695Y0127257D01*
X0092196Y0127257D01*
X0092196Y0127857D01*
X0095695Y0127857D01*
X0095695Y0128978D01*
X0095607Y0129309D01*
X0095436Y0129605D01*
X0095194Y0129847D01*
X0094897Y0130018D01*
X0094567Y0130107D01*
X0092195Y0130107D01*
X0092195Y0127857D01*
X0091595Y0127857D01*
X0091595Y0130107D01*
X0089224Y0130107D01*
X0088894Y0130018D01*
X0088674Y0129892D01*
X0088674Y0136104D01*
X0082757Y0142021D01*
X0075147Y0142021D01*
X0074866Y0142700D01*
X0073684Y0143881D01*
X0073005Y0144163D01*
X0073005Y0147306D01*
X0073684Y0147587D01*
X0074866Y0148768D01*
X0075505Y0150312D01*
X0075505Y0151983D01*
X0074866Y0153527D01*
X0073684Y0154708D01*
X0072140Y0155347D01*
X0070469Y0155347D01*
X0068926Y0154708D01*
X0067744Y0153527D01*
X0067105Y0151983D01*
X0067105Y0150312D01*
X0067744Y0148768D01*
X0068926Y0147587D01*
X0069605Y0147306D01*
X0069605Y0144163D01*
X0068926Y0143881D01*
X0068005Y0142960D01*
X0068005Y0146852D01*
X0067009Y0147847D01*
X0065224Y0149633D01*
X0065505Y0150312D01*
X0065505Y0151983D01*
X0064866Y0153527D01*
X0063684Y0154708D01*
X0062140Y0155347D01*
X0060469Y0155347D01*
X0058926Y0154708D01*
X0057744Y0153527D01*
X0057105Y0151983D01*
X0057105Y0150312D01*
X0057744Y0148768D01*
X0058926Y0147587D01*
X0060469Y0146947D01*
X0062140Y0146947D01*
X0062819Y0147229D01*
X0064605Y0145443D01*
X0064605Y0142960D01*
X0063684Y0143881D01*
X0062140Y0144521D01*
X0060469Y0144521D01*
X0058926Y0143881D01*
X0057744Y0142700D01*
X0057105Y0141156D01*
X0057105Y0139485D01*
X0057744Y0137942D01*
X0058926Y0136760D01*
X0059132Y0136674D01*
X0059132Y0127512D01*
X0058617Y0127298D01*
X0057516Y0126198D01*
X0056921Y0124760D01*
X0056921Y0123204D01*
X0057516Y0121766D01*
X0058617Y0120666D01*
X0060054Y0120070D01*
X0061611Y0120070D01*
X0063048Y0120666D01*
X0064149Y0121766D01*
X0064744Y0123204D01*
X0064744Y0124760D01*
X0064149Y0126198D01*
X0063048Y0127298D01*
X0062532Y0127512D01*
X0062532Y0136283D01*
X0063684Y0136760D01*
X0064605Y0137681D01*
X0064605Y0132727D01*
X0065601Y0131731D01*
X0069132Y0128199D01*
X0069132Y0127512D01*
X0068617Y0127298D01*
X0067516Y0126198D01*
X0066921Y0124760D01*
X0066921Y0123204D01*
X0067516Y0121766D01*
X0068617Y0120666D01*
X0070054Y0120070D01*
X0071611Y0120070D01*
X0073048Y0120666D01*
X0074149Y0121766D01*
X0074744Y0123204D01*
X0074744Y0124760D01*
X0074149Y0126198D01*
X0073048Y0127298D01*
X0072532Y0127512D01*
X0072532Y0129608D01*
X0068005Y0134135D01*
X0068005Y0137681D01*
X0068926Y0136760D01*
X0070469Y0136121D01*
X0072140Y0136121D01*
X0073684Y0136760D01*
X0074866Y0137942D01*
X0075147Y0138621D01*
X0081349Y0138621D01*
X0085274Y0134695D01*
X0085274Y0119931D01*
X0086270Y0118936D01*
X0086539Y0118667D01*
X0085367Y0117496D01*
X0084101Y0117496D01*
X0083574Y0116969D01*
X0083574Y0110523D01*
X0084101Y0109996D01*
X0086720Y0109996D01*
X0088450Y0108266D01*
X0095339Y0108266D01*
X0095639Y0107966D01*
X0104312Y0107966D01*
X0104312Y0106966D01*
X0095639Y0106966D01*
X0095112Y0106439D01*
X0095112Y0103494D01*
X0095639Y0102966D01*
X0104275Y0102966D01*
X0104275Y0101966D01*
X0095639Y0101966D01*
X0095139Y0101466D01*
X0086894Y0101466D01*
X0085443Y0100015D01*
X0085443Y0098445D01*
X0085320Y0098445D01*
X0085219Y0098344D01*
X0085219Y0099886D01*
X0084691Y0100414D01*
X0081446Y0100414D01*
X0081069Y0100036D01*
X0080691Y0100414D01*
X0077446Y0100414D01*
X0076919Y0099886D01*
X0076919Y0098414D01*
X0076727Y0098414D01*
X0074759Y0100382D01*
X0072363Y0100382D01*
X0073048Y0100666D01*
X0074149Y0101766D01*
X0074454Y0102503D01*
X0076919Y0102503D01*
X0076919Y0101031D01*
X0077446Y0100503D01*
X0080691Y0100503D01*
X0081069Y0100881D01*
X0081446Y0100503D01*
X0084691Y0100503D01*
X0085219Y0101031D01*
X0085219Y0102503D01*
X0085279Y0102503D01*
X0086068Y0101714D01*
X0087881Y0101714D01*
X0089163Y0102997D01*
X0089163Y0104810D01*
X0087881Y0106092D01*
X0086068Y0106092D01*
X0085279Y0105303D01*
X0085219Y0105303D01*
X0085219Y0106776D01*
X0084691Y0107303D01*
X0081446Y0107303D01*
X0081069Y0106926D01*
X0080691Y0107303D01*
X0077446Y0107303D01*
X0076919Y0106776D01*
X0076919Y0105303D01*
X0074519Y0105303D01*
X0074149Y0106198D01*
X0073048Y0107298D01*
X0071611Y0107894D01*
X0070054Y0107894D01*
X0068617Y0107298D01*
X0067516Y0106198D01*
X0066921Y0104760D01*
X0066921Y0103204D01*
X0067516Y0101766D01*
X0068617Y0100666D01*
X0069302Y0100382D01*
X0062948Y0100382D01*
X0062777Y0100553D01*
X0063048Y0100666D01*
X0064149Y0101766D01*
X0064744Y0103204D01*
X0064744Y0104760D01*
X0064149Y0106198D01*
X0063048Y0107298D01*
X0061611Y0107894D01*
X0060054Y0107894D01*
X0058617Y0107298D01*
X0057516Y0106198D01*
X0056921Y0104760D01*
X0056921Y0103204D01*
X0057516Y0101766D01*
X0058617Y0100666D01*
X0059432Y0100328D01*
X0059432Y0099938D01*
X0060253Y0099118D01*
X0061476Y0097894D01*
X0060054Y0097894D01*
X0058617Y0097298D01*
X0057516Y0096198D01*
X0056921Y0094760D01*
X0056921Y0093204D01*
X0057516Y0091766D01*
X0058617Y0090666D01*
X0060054Y0090070D01*
X0061611Y0090070D01*
X0063048Y0090666D01*
X0064149Y0091766D01*
X0064744Y0093204D01*
X0064744Y0094760D01*
X0064149Y0096198D01*
X0063048Y0097298D01*
X0062363Y0097582D01*
X0069302Y0097582D01*
X0068617Y0097298D01*
X0067516Y0096198D01*
X0066921Y0094760D01*
X0066921Y0093204D01*
X0067516Y0091766D01*
X0068617Y0090666D01*
X0070054Y0090070D01*
X0071611Y0090070D01*
X0073048Y0090666D01*
X0074149Y0091766D01*
X0074744Y0093204D01*
X0074744Y0094760D01*
X0074149Y0096198D01*
X0073048Y0097298D01*
X0072363Y0097582D01*
X0073599Y0097582D01*
X0075568Y0095614D01*
X0076919Y0095614D01*
X0076919Y0094141D01*
X0077446Y0093614D01*
X0080691Y0093614D01*
X0081069Y0093991D01*
X0081446Y0093614D01*
X0081669Y0093614D01*
X0081669Y0087544D01*
X0082536Y0086677D02*
X0073670Y0086677D01*
X0074198Y0086078D02*
X0083134Y0086078D01*
X0083733Y0085480D02*
X0074446Y0085480D01*
X0074694Y0084881D02*
X0084331Y0084881D01*
X0087894Y0087874D02*
X0088650Y0087874D01*
X0088492Y0088472D02*
X0089248Y0088472D01*
X0089847Y0089071D02*
X0088543Y0089071D01*
X0088643Y0089669D02*
X0090445Y0089669D01*
X0091044Y0090268D02*
X0088643Y0090268D01*
X0088643Y0090866D02*
X0091642Y0090866D01*
X0092984Y0092063D02*
X0124508Y0092063D01*
X0125147Y0092662D02*
X0123726Y0092662D01*
X0123714Y0092655D02*
X0124010Y0092826D01*
X0124252Y0093068D01*
X0124423Y0093365D01*
X0124512Y0093695D01*
X0124512Y0094716D01*
X0119162Y0094716D01*
X0119162Y0092566D01*
X0123383Y0092566D01*
X0123714Y0092655D01*
X0124363Y0093260D02*
X0125147Y0093260D01*
X0125147Y0093859D02*
X0124512Y0093859D01*
X0124512Y0094457D02*
X0125624Y0094457D01*
X0124512Y0095216D02*
X0124512Y0096237D01*
X0124423Y0096568D01*
X0124252Y0096865D01*
X0124010Y0097107D01*
X0123714Y0097278D01*
X0123383Y0097366D01*
X0119162Y0097366D01*
X0119162Y0095216D01*
X0124512Y0095216D01*
X0124512Y0095654D02*
X0137942Y0095654D01*
X0137942Y0095056D02*
X0119162Y0095056D01*
X0119162Y0095216D02*
X0119162Y0094716D01*
X0118662Y0094716D01*
X0118662Y0092566D01*
X0114441Y0092566D01*
X0114110Y0092655D01*
X0113814Y0092826D01*
X0113572Y0093068D01*
X0113401Y0093365D01*
X0113312Y0093695D01*
X0113312Y0094716D01*
X0118662Y0094716D01*
X0118662Y0095216D01*
X0113312Y0095216D01*
X0113312Y0096237D01*
X0113401Y0096568D01*
X0113572Y0096865D01*
X0113814Y0097107D01*
X0114110Y0097278D01*
X0114441Y0097366D01*
X0118662Y0097366D01*
X0118662Y0095216D01*
X0119162Y0095216D01*
X0119162Y0095654D02*
X0118662Y0095654D01*
X0118662Y0095056D02*
X0105512Y0095056D01*
X0105512Y0095654D02*
X0113312Y0095654D01*
X0113316Y0096253D02*
X0105512Y0096253D01*
X0105100Y0096851D02*
X0113564Y0096851D01*
X0114110Y0097655D02*
X0114441Y0097566D01*
X0118662Y0097566D01*
X0118662Y0099716D01*
X0119162Y0099716D01*
X0119162Y0097566D01*
X0123383Y0097566D01*
X0123714Y0097655D01*
X0124010Y0097826D01*
X0124252Y0098068D01*
X0124423Y0098365D01*
X0124512Y0098695D01*
X0124512Y0099716D01*
X0119162Y0099716D01*
X0119162Y0100216D01*
X0124512Y0100216D01*
X0124512Y0101237D01*
X0124423Y0101568D01*
X0124252Y0101865D01*
X0124010Y0102107D01*
X0123714Y0102278D01*
X0123383Y0102366D01*
X0119162Y0102366D01*
X0119162Y0100216D01*
X0118662Y0100216D01*
X0118662Y0099716D01*
X0113312Y0099716D01*
X0113312Y0098695D01*
X0113401Y0098365D01*
X0113572Y0098068D01*
X0113814Y0097826D01*
X0114110Y0097655D01*
X0113591Y0098048D02*
X0110790Y0098048D01*
X0111388Y0098647D02*
X0113325Y0098647D01*
X0113312Y0099245D02*
X0111801Y0099245D01*
X0111801Y0099844D02*
X0118662Y0099844D01*
X0118662Y0100216D02*
X0113312Y0100216D01*
X0113312Y0101237D01*
X0113401Y0101568D01*
X0113572Y0101865D01*
X0113814Y0102107D01*
X0114110Y0102278D01*
X0114441Y0102366D01*
X0118662Y0102366D01*
X0118662Y0100216D01*
X0118662Y0100442D02*
X0119162Y0100442D01*
X0119162Y0099844D02*
X0140974Y0099844D01*
X0140376Y0099245D02*
X0124512Y0099245D01*
X0124499Y0098647D02*
X0139777Y0098647D01*
X0138073Y0098048D02*
X0124233Y0098048D01*
X0124260Y0096851D02*
X0137942Y0096851D01*
X0137942Y0096253D02*
X0124508Y0096253D01*
X0124512Y0100442D02*
X0141573Y0100442D01*
X0142171Y0101041D02*
X0124512Y0101041D01*
X0124382Y0101639D02*
X0143623Y0101639D01*
X0146293Y0103494D02*
X0146820Y0102966D01*
X0156166Y0102966D01*
X0156693Y0103494D01*
X0156693Y0106439D01*
X0156166Y0106966D01*
X0146820Y0106966D01*
X0146293Y0106439D01*
X0146293Y0103494D01*
X0146352Y0103435D02*
X0124053Y0103435D01*
X0124112Y0103494D02*
X0123585Y0102966D01*
X0114239Y0102966D01*
X0113712Y0103494D01*
X0113712Y0106439D01*
X0114239Y0106966D01*
X0123585Y0106966D01*
X0124112Y0106439D01*
X0124112Y0103494D01*
X0124112Y0104034D02*
X0146293Y0104034D01*
X0146293Y0104632D02*
X0124112Y0104632D01*
X0124112Y0105231D02*
X0146293Y0105231D01*
X0146293Y0105829D02*
X0124112Y0105829D01*
X0124112Y0106428D02*
X0146293Y0106428D01*
X0146820Y0107966D02*
X0156166Y0107966D01*
X0156693Y0108494D01*
X0156693Y0111439D01*
X0156166Y0111966D01*
X0146820Y0111966D01*
X0146520Y0111666D01*
X0140670Y0111666D01*
X0138491Y0113846D01*
X0137618Y0113846D01*
X0137618Y0116969D01*
X0137091Y0117496D01*
X0131346Y0117496D01*
X0130896Y0117046D01*
X0128108Y0117046D01*
X0127251Y0117903D01*
X0125438Y0117903D01*
X0124155Y0116621D01*
X0124155Y0114808D01*
X0125438Y0113525D01*
X0127251Y0113525D01*
X0127371Y0113646D01*
X0130818Y0113646D01*
X0130818Y0110523D01*
X0131346Y0109996D01*
X0137091Y0109996D01*
X0137312Y0110217D01*
X0139262Y0108266D01*
X0146520Y0108266D01*
X0146820Y0107966D01*
X0146564Y0108223D02*
X0123842Y0108223D01*
X0123585Y0107966D02*
X0124112Y0108494D01*
X0124112Y0111439D01*
X0123585Y0111966D01*
X0114239Y0111966D01*
X0113712Y0111439D01*
X0113712Y0108494D01*
X0114239Y0107966D01*
X0123585Y0107966D01*
X0124112Y0108822D02*
X0138707Y0108822D01*
X0138108Y0109420D02*
X0124112Y0109420D01*
X0124112Y0110019D02*
X0131323Y0110019D01*
X0130818Y0110617D02*
X0124112Y0110617D01*
X0124112Y0111216D02*
X0130818Y0111216D01*
X0130818Y0111814D02*
X0123737Y0111814D01*
X0123585Y0112966D02*
X0124112Y0113494D01*
X0124112Y0116439D01*
X0123585Y0116966D01*
X0114239Y0116966D01*
X0113712Y0116439D01*
X0113712Y0113494D01*
X0114239Y0112966D01*
X0123585Y0112966D01*
X0123630Y0113011D02*
X0130818Y0113011D01*
X0130818Y0112413D02*
X0107112Y0112413D01*
X0107112Y0113011D02*
X0114194Y0113011D01*
X0113712Y0113610D02*
X0107112Y0113610D01*
X0107112Y0114208D02*
X0113712Y0114208D01*
X0113712Y0114807D02*
X0107112Y0114807D01*
X0107112Y0115405D02*
X0113712Y0115405D01*
X0113712Y0116004D02*
X0107112Y0116004D01*
X0107112Y0116602D02*
X0113875Y0116602D01*
X0113643Y0118351D02*
X0113643Y0121320D01*
X0114243Y0121320D01*
X0114243Y0121920D01*
X0117408Y0121920D01*
X0117408Y0123760D01*
X0117319Y0124090D01*
X0117148Y0124387D01*
X0116906Y0124629D01*
X0116610Y0124800D01*
X0116279Y0124888D01*
X0114243Y0124888D01*
X0114243Y0121920D01*
X0113643Y0121920D01*
X0113643Y0124888D01*
X0111606Y0124888D01*
X0111276Y0124800D01*
X0110979Y0124629D01*
X0110737Y0124387D01*
X0110566Y0124090D01*
X0110477Y0123760D01*
X0110477Y0121920D01*
X0113643Y0121920D01*
X0113643Y0121320D01*
X0110477Y0121320D01*
X0110477Y0119480D01*
X0110566Y0119150D01*
X0110737Y0118853D01*
X0110979Y0118611D01*
X0111276Y0118440D01*
X0111606Y0118351D01*
X0113643Y0118351D01*
X0113643Y0118398D02*
X0114243Y0118398D01*
X0114243Y0118351D02*
X0116279Y0118351D01*
X0116610Y0118440D01*
X0116906Y0118611D01*
X0117148Y0118853D01*
X0117319Y0119150D01*
X0117408Y0119480D01*
X0117408Y0121320D01*
X0114243Y0121320D01*
X0114243Y0118351D01*
X0114243Y0118996D02*
X0113643Y0118996D01*
X0113643Y0119595D02*
X0114243Y0119595D01*
X0114243Y0120193D02*
X0113643Y0120193D01*
X0113643Y0120792D02*
X0114243Y0120792D01*
X0114243Y0121390D02*
X0149793Y0121390D01*
X0149793Y0120792D02*
X0117408Y0120792D01*
X0117408Y0120193D02*
X0149793Y0120193D01*
X0149793Y0119595D02*
X0117408Y0119595D01*
X0117231Y0118996D02*
X0149793Y0118996D01*
X0149793Y0118398D02*
X0116452Y0118398D01*
X0111433Y0118398D02*
X0108370Y0118398D01*
X0107771Y0117799D02*
X0125334Y0117799D01*
X0124735Y0117201D02*
X0107173Y0117201D01*
X0104312Y0117201D02*
X0094112Y0117201D01*
X0093595Y0117799D02*
X0104312Y0117799D01*
X0104410Y0118398D02*
X0093595Y0118398D01*
X0093595Y0118996D02*
X0104467Y0118996D01*
X0104184Y0119595D02*
X0093595Y0119595D01*
X0093595Y0120193D02*
X0104184Y0120193D01*
X0104184Y0120792D02*
X0093595Y0120792D01*
X0093595Y0121390D02*
X0104184Y0121390D01*
X0104184Y0121989D02*
X0095295Y0121989D01*
X0095295Y0122587D02*
X0104184Y0122587D01*
X0104184Y0123186D02*
X0095295Y0123186D01*
X0095295Y0123784D02*
X0104184Y0123784D01*
X0104606Y0124383D02*
X0095295Y0124383D01*
X0095295Y0124981D02*
X0150924Y0124981D01*
X0150325Y0124383D02*
X0117150Y0124383D01*
X0117401Y0123784D02*
X0149793Y0123784D01*
X0149793Y0123851D02*
X0149793Y0116966D01*
X0146820Y0116966D01*
X0146293Y0116439D01*
X0146293Y0113494D01*
X0146820Y0112966D01*
X0156166Y0112966D01*
X0156693Y0113494D01*
X0156693Y0116439D01*
X0156166Y0116966D01*
X0153193Y0116966D01*
X0153193Y0122442D01*
X0156576Y0125825D01*
X0162482Y0125825D01*
X0164450Y0127794D01*
X0165446Y0128790D01*
X0165446Y0133711D01*
X0166419Y0134684D01*
X0176671Y0134684D01*
X0176887Y0134468D01*
X0180132Y0134468D01*
X0180660Y0134995D01*
X0180660Y0139741D01*
X0180132Y0140268D01*
X0176887Y0140268D01*
X0176360Y0139741D01*
X0176360Y0138084D01*
X0165010Y0138084D01*
X0163042Y0136115D01*
X0162046Y0135119D01*
X0162046Y0130198D01*
X0161073Y0129225D01*
X0155168Y0129225D01*
X0149793Y0123851D01*
X0149793Y0123186D02*
X0117408Y0123186D01*
X0117408Y0122587D02*
X0149793Y0122587D01*
X0149793Y0121989D02*
X0117408Y0121989D01*
X0114243Y0121989D02*
X0113643Y0121989D01*
X0113643Y0122587D02*
X0114243Y0122587D01*
X0114243Y0123186D02*
X0113643Y0123186D01*
X0113643Y0123784D02*
X0114243Y0123784D01*
X0114243Y0124383D02*
X0113643Y0124383D01*
X0110735Y0124383D02*
X0109893Y0124383D01*
X0110315Y0123784D02*
X0110484Y0123784D01*
X0110477Y0123186D02*
X0110315Y0123186D01*
X0110315Y0122587D02*
X0110477Y0122587D01*
X0110477Y0121989D02*
X0110315Y0121989D01*
X0110315Y0121390D02*
X0113643Y0121390D01*
X0110477Y0120792D02*
X0110315Y0120792D01*
X0110315Y0120193D02*
X0110477Y0120193D01*
X0110477Y0119595D02*
X0110315Y0119595D01*
X0110033Y0118996D02*
X0110654Y0118996D01*
X0114087Y0111814D02*
X0107112Y0111814D01*
X0107112Y0111216D02*
X0113712Y0111216D01*
X0113712Y0110617D02*
X0107112Y0110617D01*
X0107112Y0110019D02*
X0113712Y0110019D01*
X0113712Y0109420D02*
X0107112Y0109420D01*
X0107112Y0108822D02*
X0113712Y0108822D01*
X0113982Y0108223D02*
X0107112Y0108223D01*
X0107112Y0107625D02*
X0157915Y0107625D01*
X0157915Y0108223D02*
X0156423Y0108223D01*
X0156693Y0108822D02*
X0157915Y0108822D01*
X0157915Y0109420D02*
X0156693Y0109420D01*
X0156693Y0110019D02*
X0157915Y0110019D01*
X0157915Y0110617D02*
X0156693Y0110617D01*
X0156693Y0111216D02*
X0157915Y0111216D01*
X0157915Y0111814D02*
X0156318Y0111814D01*
X0156211Y0113011D02*
X0157915Y0113011D01*
X0157915Y0112413D02*
X0139924Y0112413D01*
X0139326Y0113011D02*
X0146775Y0113011D01*
X0146293Y0113610D02*
X0138727Y0113610D01*
X0137618Y0114208D02*
X0146293Y0114208D01*
X0146293Y0114807D02*
X0137618Y0114807D01*
X0137618Y0115405D02*
X0146293Y0115405D01*
X0146293Y0116004D02*
X0137618Y0116004D01*
X0137618Y0116602D02*
X0146456Y0116602D01*
X0149793Y0117201D02*
X0137386Y0117201D01*
X0131050Y0117201D02*
X0127954Y0117201D01*
X0127355Y0117799D02*
X0149793Y0117799D01*
X0153193Y0117799D02*
X0157915Y0117799D01*
X0157915Y0117201D02*
X0153193Y0117201D01*
X0153193Y0118398D02*
X0157915Y0118398D01*
X0156632Y0118996D02*
X0153193Y0118996D01*
X0153193Y0119595D02*
X0156350Y0119595D01*
X0156350Y0120193D02*
X0153193Y0120193D01*
X0153193Y0120792D02*
X0156350Y0120792D01*
X0156350Y0121390D02*
X0153193Y0121390D01*
X0153193Y0121989D02*
X0156350Y0121989D01*
X0156350Y0122587D02*
X0153338Y0122587D01*
X0153936Y0123186D02*
X0156350Y0123186D01*
X0156350Y0123784D02*
X0154535Y0123784D01*
X0155134Y0124383D02*
X0156772Y0124383D01*
X0155732Y0124981D02*
X0172384Y0124981D01*
X0172384Y0125479D02*
X0172384Y0123666D01*
X0173666Y0122384D01*
X0175479Y0122384D01*
X0176762Y0123666D01*
X0176762Y0125479D01*
X0176063Y0126178D01*
X0176063Y0126594D01*
X0176392Y0126594D01*
X0176919Y0127121D01*
X0176919Y0131867D01*
X0176392Y0132394D01*
X0173147Y0132394D01*
X0172619Y0131867D01*
X0172619Y0127121D01*
X0173147Y0126594D01*
X0173476Y0126594D01*
X0173476Y0126571D01*
X0172384Y0125479D01*
X0172484Y0125580D02*
X0156331Y0125580D01*
X0153916Y0127974D02*
X0095695Y0127974D01*
X0095695Y0128572D02*
X0154515Y0128572D01*
X0155113Y0129171D02*
X0095644Y0129171D01*
X0095271Y0129770D02*
X0161617Y0129770D01*
X0162046Y0130368D02*
X0088674Y0130368D01*
X0088674Y0130967D02*
X0162046Y0130967D01*
X0162046Y0131565D02*
X0088674Y0131565D01*
X0088674Y0132164D02*
X0162046Y0132164D01*
X0162046Y0132762D02*
X0088674Y0132762D01*
X0088674Y0133361D02*
X0162046Y0133361D01*
X0162046Y0133959D02*
X0088674Y0133959D01*
X0088674Y0134558D02*
X0162046Y0134558D01*
X0162083Y0135156D02*
X0088674Y0135156D01*
X0088674Y0135755D02*
X0162681Y0135755D01*
X0163280Y0136353D02*
X0088425Y0136353D01*
X0087826Y0136952D02*
X0163878Y0136952D01*
X0164477Y0137550D02*
X0087228Y0137550D01*
X0086629Y0138149D02*
X0176360Y0138149D01*
X0176360Y0138747D02*
X0086031Y0138747D01*
X0085432Y0139346D02*
X0176360Y0139346D01*
X0176563Y0139944D02*
X0084834Y0139944D01*
X0084235Y0140543D02*
X0238233Y0140543D01*
X0238233Y0141141D02*
X0083637Y0141141D01*
X0083038Y0141740D02*
X0238233Y0141740D01*
X0238233Y0142338D02*
X0075015Y0142338D01*
X0074629Y0142937D02*
X0238233Y0142937D01*
X0238233Y0143535D02*
X0074030Y0143535D01*
X0073074Y0144134D02*
X0238233Y0144134D01*
X0238233Y0144732D02*
X0073005Y0144732D01*
X0073005Y0145331D02*
X0238233Y0145331D01*
X0238233Y0145929D02*
X0073005Y0145929D01*
X0073005Y0146528D02*
X0238233Y0146528D01*
X0238233Y0147126D02*
X0073005Y0147126D01*
X0073822Y0147725D02*
X0238233Y0147725D01*
X0238233Y0148323D02*
X0074421Y0148323D01*
X0074929Y0148922D02*
X0238233Y0148922D01*
X0238233Y0149520D02*
X0075177Y0149520D01*
X0075425Y0150119D02*
X0238233Y0150119D01*
X0238233Y0150717D02*
X0075505Y0150717D01*
X0075505Y0151316D02*
X0238233Y0151316D01*
X0238233Y0151914D02*
X0075505Y0151914D01*
X0075285Y0152513D02*
X0238233Y0152513D01*
X0238233Y0153111D02*
X0075037Y0153111D01*
X0074682Y0153710D02*
X0238233Y0153710D01*
X0238233Y0154308D02*
X0074084Y0154308D01*
X0073204Y0154907D02*
X0238233Y0154907D01*
X0238233Y0155505D02*
X0024298Y0155505D01*
X0024298Y0154907D02*
X0059406Y0154907D01*
X0058526Y0154308D02*
X0024298Y0154308D01*
X0024298Y0153710D02*
X0057928Y0153710D01*
X0057572Y0153111D02*
X0024298Y0153111D01*
X0024298Y0152513D02*
X0057324Y0152513D01*
X0057105Y0151914D02*
X0024298Y0151914D01*
X0024298Y0151316D02*
X0057105Y0151316D01*
X0057105Y0150717D02*
X0024298Y0150717D01*
X0024298Y0150119D02*
X0057185Y0150119D01*
X0057433Y0149520D02*
X0024298Y0149520D01*
X0024298Y0148922D02*
X0057681Y0148922D01*
X0058189Y0148323D02*
X0024298Y0148323D01*
X0024298Y0147725D02*
X0058788Y0147725D01*
X0060038Y0147126D02*
X0024298Y0147126D01*
X0024298Y0146528D02*
X0063520Y0146528D01*
X0062922Y0147126D02*
X0062572Y0147126D01*
X0064119Y0145929D02*
X0024298Y0145929D01*
X0024298Y0145331D02*
X0064605Y0145331D01*
X0064605Y0144732D02*
X0024298Y0144732D01*
X0024298Y0144134D02*
X0059535Y0144134D01*
X0058580Y0143535D02*
X0024298Y0143535D01*
X0024298Y0142937D02*
X0057981Y0142937D01*
X0057595Y0142338D02*
X0024298Y0142338D01*
X0024298Y0141740D02*
X0057347Y0141740D01*
X0057105Y0141141D02*
X0024298Y0141141D01*
X0024298Y0140543D02*
X0057105Y0140543D01*
X0057105Y0139944D02*
X0024298Y0139944D01*
X0024298Y0139346D02*
X0057163Y0139346D01*
X0057411Y0138747D02*
X0024298Y0138747D01*
X0024298Y0138149D02*
X0057659Y0138149D01*
X0058136Y0137550D02*
X0024298Y0137550D01*
X0024298Y0136952D02*
X0058734Y0136952D01*
X0059132Y0136353D02*
X0024298Y0136353D01*
X0024298Y0135755D02*
X0059132Y0135755D01*
X0059132Y0135156D02*
X0024298Y0135156D01*
X0024298Y0134558D02*
X0059132Y0134558D01*
X0059132Y0133959D02*
X0024298Y0133959D01*
X0024298Y0133361D02*
X0059132Y0133361D01*
X0059132Y0132762D02*
X0024298Y0132762D01*
X0024298Y0132164D02*
X0059132Y0132164D01*
X0059132Y0131565D02*
X0024298Y0131565D01*
X0024298Y0130967D02*
X0059132Y0130967D01*
X0059132Y0130368D02*
X0024298Y0130368D01*
X0024298Y0129770D02*
X0059132Y0129770D01*
X0059132Y0129171D02*
X0024298Y0129171D01*
X0024298Y0128572D02*
X0059132Y0128572D01*
X0059132Y0127974D02*
X0024298Y0127974D01*
X0024298Y0127375D02*
X0058803Y0127375D01*
X0058095Y0126777D02*
X0024298Y0126777D01*
X0024298Y0126178D02*
X0057508Y0126178D01*
X0057260Y0125580D02*
X0024298Y0125580D01*
X0024298Y0124981D02*
X0057012Y0124981D01*
X0056921Y0124383D02*
X0024298Y0124383D01*
X0024298Y0123784D02*
X0056921Y0123784D01*
X0056928Y0123186D02*
X0024298Y0123186D01*
X0024298Y0122587D02*
X0057176Y0122587D01*
X0057424Y0121989D02*
X0024298Y0121989D01*
X0024298Y0121390D02*
X0057892Y0121390D01*
X0058491Y0120792D02*
X0024298Y0120792D01*
X0024298Y0120193D02*
X0059757Y0120193D01*
X0059823Y0118188D02*
X0059177Y0117978D01*
X0058573Y0117670D01*
X0058024Y0117271D01*
X0057544Y0116791D01*
X0057145Y0116242D01*
X0056837Y0115637D01*
X0056627Y0114992D01*
X0056521Y0114321D01*
X0056521Y0114282D01*
X0060532Y0114282D01*
X0060532Y0113682D01*
X0056521Y0113682D01*
X0056521Y0113643D01*
X0056627Y0112972D01*
X0056837Y0112327D01*
X0057145Y0111722D01*
X0057544Y0111173D01*
X0058024Y0110693D01*
X0058573Y0110294D01*
X0059177Y0109986D01*
X0059823Y0109776D01*
X0060493Y0109670D01*
X0060532Y0109670D01*
X0060532Y0113682D01*
X0061132Y0113682D01*
X0061132Y0109670D01*
X0061172Y0109670D01*
X0061842Y0109776D01*
X0062488Y0109986D01*
X0063092Y0110294D01*
X0063641Y0110693D01*
X0064121Y0111173D01*
X0064520Y0111722D01*
X0064828Y0112327D01*
X0065038Y0112972D01*
X0065144Y0113643D01*
X0065144Y0113682D01*
X0061133Y0113682D01*
X0061133Y0114282D01*
X0065144Y0114282D01*
X0065144Y0114321D01*
X0065038Y0114992D01*
X0064828Y0115637D01*
X0064520Y0116242D01*
X0064121Y0116791D01*
X0063641Y0117271D01*
X0063092Y0117670D01*
X0062488Y0117978D01*
X0061842Y0118188D01*
X0061172Y0118294D01*
X0061132Y0118294D01*
X0061132Y0114282D01*
X0060532Y0114282D01*
X0060532Y0118294D01*
X0060493Y0118294D01*
X0059823Y0118188D01*
X0060532Y0117799D02*
X0061132Y0117799D01*
X0061132Y0117201D02*
X0060532Y0117201D01*
X0060532Y0116602D02*
X0061132Y0116602D01*
X0061132Y0116004D02*
X0060532Y0116004D01*
X0060532Y0115405D02*
X0061132Y0115405D01*
X0061132Y0114807D02*
X0060532Y0114807D01*
X0060532Y0114208D02*
X0024298Y0114208D01*
X0024298Y0113610D02*
X0056526Y0113610D01*
X0056621Y0113011D02*
X0024298Y0113011D01*
X0024298Y0112413D02*
X0056809Y0112413D01*
X0057098Y0111814D02*
X0024298Y0111814D01*
X0024298Y0111216D02*
X0057513Y0111216D01*
X0058128Y0110617D02*
X0024298Y0110617D01*
X0024298Y0110019D02*
X0059114Y0110019D01*
X0060532Y0110019D02*
X0061132Y0110019D01*
X0061132Y0110617D02*
X0060532Y0110617D01*
X0060532Y0111216D02*
X0061132Y0111216D01*
X0061132Y0111814D02*
X0060532Y0111814D01*
X0060532Y0112413D02*
X0061132Y0112413D01*
X0061132Y0113011D02*
X0060532Y0113011D01*
X0060532Y0113610D02*
X0061132Y0113610D01*
X0061133Y0114208D02*
X0070532Y0114208D01*
X0070532Y0114282D02*
X0070532Y0113682D01*
X0066521Y0113682D01*
X0066521Y0113643D01*
X0066627Y0112972D01*
X0066837Y0112327D01*
X0067145Y0111722D01*
X0067544Y0111173D01*
X0068024Y0110693D01*
X0068573Y0110294D01*
X0069177Y0109986D01*
X0069823Y0109776D01*
X0070493Y0109670D01*
X0070532Y0109670D01*
X0070532Y0113682D01*
X0071132Y0113682D01*
X0071132Y0109670D01*
X0071172Y0109670D01*
X0071842Y0109776D01*
X0072488Y0109986D01*
X0073092Y0110294D01*
X0073641Y0110693D01*
X0074121Y0111173D01*
X0074520Y0111722D01*
X0074828Y0112327D01*
X0075038Y0112972D01*
X0075144Y0113643D01*
X0075144Y0113682D01*
X0071133Y0113682D01*
X0071133Y0114282D01*
X0075144Y0114282D01*
X0075144Y0114321D01*
X0075038Y0114992D01*
X0074828Y0115637D01*
X0074520Y0116242D01*
X0074121Y0116791D01*
X0073641Y0117271D01*
X0073092Y0117670D01*
X0072488Y0117978D01*
X0071842Y0118188D01*
X0071172Y0118294D01*
X0071132Y0118294D01*
X0071132Y0114282D01*
X0070532Y0114282D01*
X0066521Y0114282D01*
X0066521Y0114321D01*
X0066627Y0114992D01*
X0066837Y0115637D01*
X0067145Y0116242D01*
X0067544Y0116791D01*
X0068024Y0117271D01*
X0068573Y0117670D01*
X0069177Y0117978D01*
X0069823Y0118188D01*
X0070493Y0118294D01*
X0070532Y0118294D01*
X0070532Y0114282D01*
X0070532Y0114807D02*
X0071132Y0114807D01*
X0071132Y0115405D02*
X0070532Y0115405D01*
X0070532Y0116004D02*
X0071132Y0116004D01*
X0071132Y0116602D02*
X0070532Y0116602D01*
X0070532Y0117201D02*
X0071132Y0117201D01*
X0071132Y0117799D02*
X0070532Y0117799D01*
X0068827Y0117799D02*
X0062838Y0117799D01*
X0063712Y0117201D02*
X0067953Y0117201D01*
X0067406Y0116602D02*
X0064259Y0116602D01*
X0064642Y0116004D02*
X0067023Y0116004D01*
X0066761Y0115405D02*
X0064904Y0115405D01*
X0065067Y0114807D02*
X0066598Y0114807D01*
X0066526Y0113610D02*
X0065139Y0113610D01*
X0065044Y0113011D02*
X0066621Y0113011D01*
X0066809Y0112413D02*
X0064856Y0112413D01*
X0064567Y0111814D02*
X0067098Y0111814D01*
X0067513Y0111216D02*
X0064152Y0111216D01*
X0063537Y0110617D02*
X0068128Y0110617D01*
X0069114Y0110019D02*
X0062551Y0110019D01*
X0062261Y0107625D02*
X0069404Y0107625D01*
X0068344Y0107026D02*
X0063321Y0107026D01*
X0063919Y0106428D02*
X0067746Y0106428D01*
X0067363Y0105829D02*
X0064302Y0105829D01*
X0064549Y0105231D02*
X0067116Y0105231D01*
X0066921Y0104632D02*
X0064744Y0104632D01*
X0064744Y0104034D02*
X0066921Y0104034D01*
X0066921Y0103435D02*
X0064744Y0103435D01*
X0064592Y0102836D02*
X0067073Y0102836D01*
X0067321Y0102238D02*
X0064344Y0102238D01*
X0064022Y0101639D02*
X0067643Y0101639D01*
X0068241Y0101041D02*
X0063423Y0101041D01*
X0062887Y0100442D02*
X0069156Y0100442D01*
X0068982Y0097450D02*
X0062682Y0097450D01*
X0063495Y0096851D02*
X0068170Y0096851D01*
X0067571Y0096253D02*
X0064094Y0096253D01*
X0064374Y0095654D02*
X0067291Y0095654D01*
X0067043Y0095056D02*
X0064622Y0095056D01*
X0064744Y0094457D02*
X0066921Y0094457D01*
X0066921Y0093859D02*
X0064744Y0093859D01*
X0064744Y0093260D02*
X0066921Y0093260D01*
X0067145Y0092662D02*
X0064520Y0092662D01*
X0064272Y0092063D02*
X0067393Y0092063D01*
X0067818Y0091465D02*
X0063847Y0091465D01*
X0063249Y0090866D02*
X0068416Y0090866D01*
X0069578Y0090268D02*
X0062087Y0090268D01*
X0059578Y0090268D02*
X0024298Y0090268D01*
X0024298Y0090866D02*
X0058416Y0090866D01*
X0057818Y0091465D02*
X0024298Y0091465D01*
X0024298Y0092063D02*
X0057393Y0092063D01*
X0057145Y0092662D02*
X0024298Y0092662D01*
X0024298Y0093260D02*
X0056921Y0093260D01*
X0056921Y0093859D02*
X0024298Y0093859D01*
X0024298Y0094457D02*
X0056921Y0094457D01*
X0057043Y0095056D02*
X0024298Y0095056D01*
X0024298Y0095654D02*
X0057291Y0095654D01*
X0057571Y0096253D02*
X0024298Y0096253D01*
X0024298Y0096851D02*
X0058170Y0096851D01*
X0058982Y0097450D02*
X0024298Y0097450D01*
X0024298Y0098048D02*
X0061322Y0098048D01*
X0060723Y0098647D02*
X0024298Y0098647D01*
X0024298Y0099245D02*
X0060125Y0099245D01*
X0060253Y0099118D02*
X0060253Y0099118D01*
X0059526Y0099844D02*
X0024298Y0099844D01*
X0024298Y0100442D02*
X0059156Y0100442D01*
X0058241Y0101041D02*
X0024298Y0101041D01*
X0024298Y0101639D02*
X0057643Y0101639D01*
X0057321Y0102238D02*
X0024298Y0102238D01*
X0024298Y0102836D02*
X0057073Y0102836D01*
X0056921Y0103435D02*
X0024298Y0103435D01*
X0024298Y0104034D02*
X0056921Y0104034D01*
X0056921Y0104632D02*
X0024298Y0104632D01*
X0024298Y0105231D02*
X0057116Y0105231D01*
X0057363Y0105829D02*
X0024298Y0105829D01*
X0024298Y0106428D02*
X0057746Y0106428D01*
X0058344Y0107026D02*
X0024298Y0107026D01*
X0024298Y0107625D02*
X0059404Y0107625D01*
X0056598Y0114807D02*
X0024298Y0114807D01*
X0024298Y0115405D02*
X0056761Y0115405D01*
X0057023Y0116004D02*
X0024298Y0116004D01*
X0024298Y0116602D02*
X0057406Y0116602D01*
X0057953Y0117201D02*
X0024298Y0117201D01*
X0024298Y0117799D02*
X0058827Y0117799D01*
X0061908Y0120193D02*
X0069757Y0120193D01*
X0068491Y0120792D02*
X0063174Y0120792D01*
X0063773Y0121390D02*
X0067892Y0121390D01*
X0067424Y0121989D02*
X0064241Y0121989D01*
X0064489Y0122587D02*
X0067176Y0122587D01*
X0066928Y0123186D02*
X0064737Y0123186D01*
X0064744Y0123784D02*
X0066921Y0123784D01*
X0066921Y0124383D02*
X0064744Y0124383D01*
X0064653Y0124981D02*
X0067012Y0124981D01*
X0067260Y0125580D02*
X0064405Y0125580D01*
X0064157Y0126178D02*
X0067508Y0126178D01*
X0068095Y0126777D02*
X0063570Y0126777D01*
X0062862Y0127375D02*
X0068803Y0127375D01*
X0069132Y0127974D02*
X0062532Y0127974D01*
X0062532Y0128572D02*
X0068759Y0128572D01*
X0068161Y0129171D02*
X0062532Y0129171D01*
X0062532Y0129770D02*
X0067562Y0129770D01*
X0066964Y0130368D02*
X0062532Y0130368D01*
X0062532Y0130967D02*
X0066365Y0130967D01*
X0065767Y0131565D02*
X0062532Y0131565D01*
X0062532Y0132164D02*
X0065168Y0132164D01*
X0064605Y0132762D02*
X0062532Y0132762D01*
X0062532Y0133361D02*
X0064605Y0133361D01*
X0064605Y0133959D02*
X0062532Y0133959D01*
X0062532Y0134558D02*
X0064605Y0134558D01*
X0064605Y0135156D02*
X0062532Y0135156D01*
X0062532Y0135755D02*
X0064605Y0135755D01*
X0064605Y0136353D02*
X0062702Y0136353D01*
X0063876Y0136952D02*
X0064605Y0136952D01*
X0064605Y0137550D02*
X0064474Y0137550D01*
X0068005Y0137550D02*
X0068136Y0137550D01*
X0068005Y0136952D02*
X0068734Y0136952D01*
X0068005Y0136353D02*
X0069908Y0136353D01*
X0068005Y0135755D02*
X0084215Y0135755D01*
X0083616Y0136353D02*
X0072702Y0136353D01*
X0073876Y0136952D02*
X0083018Y0136952D01*
X0082419Y0137550D02*
X0074474Y0137550D01*
X0074951Y0138149D02*
X0081821Y0138149D01*
X0084813Y0135156D02*
X0068005Y0135156D01*
X0068005Y0134558D02*
X0085274Y0134558D01*
X0085274Y0133959D02*
X0068181Y0133959D01*
X0068779Y0133361D02*
X0085274Y0133361D01*
X0085274Y0132762D02*
X0069378Y0132762D01*
X0069976Y0132164D02*
X0085274Y0132164D01*
X0085274Y0131565D02*
X0070575Y0131565D01*
X0071173Y0130967D02*
X0085274Y0130967D01*
X0085274Y0130368D02*
X0071772Y0130368D01*
X0072370Y0129770D02*
X0085274Y0129770D01*
X0085274Y0129171D02*
X0072532Y0129171D01*
X0072532Y0128572D02*
X0085274Y0128572D01*
X0085274Y0127974D02*
X0072532Y0127974D01*
X0072862Y0127375D02*
X0085274Y0127375D01*
X0085274Y0126777D02*
X0073570Y0126777D01*
X0074157Y0126178D02*
X0085274Y0126178D01*
X0085274Y0125580D02*
X0074405Y0125580D01*
X0074653Y0124981D02*
X0085274Y0124981D01*
X0085274Y0124383D02*
X0074744Y0124383D01*
X0074744Y0123784D02*
X0085274Y0123784D01*
X0085274Y0123186D02*
X0074737Y0123186D01*
X0074489Y0122587D02*
X0085274Y0122587D01*
X0085274Y0121989D02*
X0074241Y0121989D01*
X0073773Y0121390D02*
X0085274Y0121390D01*
X0085274Y0120792D02*
X0073174Y0120792D01*
X0071908Y0120193D02*
X0085274Y0120193D01*
X0085611Y0119595D02*
X0024298Y0119595D01*
X0024298Y0118996D02*
X0086209Y0118996D01*
X0086269Y0118398D02*
X0024298Y0118398D01*
X0024298Y0109420D02*
X0087296Y0109420D01*
X0087894Y0108822D02*
X0024298Y0108822D01*
X0024298Y0108223D02*
X0095382Y0108223D01*
X0095112Y0106428D02*
X0085219Y0106428D01*
X0085219Y0105829D02*
X0085804Y0105829D01*
X0084969Y0107026D02*
X0104312Y0107026D01*
X0104312Y0107625D02*
X0072261Y0107625D01*
X0073321Y0107026D02*
X0077169Y0107026D01*
X0076919Y0106428D02*
X0073919Y0106428D01*
X0074302Y0105829D02*
X0076919Y0105829D01*
X0080969Y0107026D02*
X0081169Y0107026D01*
X0084079Y0110019D02*
X0072551Y0110019D01*
X0073537Y0110617D02*
X0083574Y0110617D01*
X0083574Y0111216D02*
X0074152Y0111216D01*
X0074567Y0111814D02*
X0083574Y0111814D01*
X0083574Y0112413D02*
X0074856Y0112413D01*
X0075044Y0113011D02*
X0083574Y0113011D01*
X0083574Y0113610D02*
X0075139Y0113610D01*
X0075067Y0114807D02*
X0083574Y0114807D01*
X0083574Y0115405D02*
X0074904Y0115405D01*
X0074642Y0116004D02*
X0083574Y0116004D01*
X0083574Y0116602D02*
X0074259Y0116602D01*
X0073712Y0117201D02*
X0083806Y0117201D01*
X0085671Y0117799D02*
X0072838Y0117799D01*
X0071133Y0114208D02*
X0083574Y0114208D01*
X0088144Y0105829D02*
X0095112Y0105829D01*
X0095112Y0105231D02*
X0088743Y0105231D01*
X0089163Y0104632D02*
X0095112Y0104632D01*
X0095112Y0104034D02*
X0089163Y0104034D01*
X0089163Y0103435D02*
X0095171Y0103435D01*
X0095312Y0101639D02*
X0085219Y0101639D01*
X0085219Y0101041D02*
X0086469Y0101041D01*
X0085870Y0100442D02*
X0072509Y0100442D01*
X0073423Y0101041D02*
X0076919Y0101041D01*
X0076919Y0101639D02*
X0074022Y0101639D01*
X0074344Y0102238D02*
X0076919Y0102238D01*
X0076919Y0099844D02*
X0075297Y0099844D01*
X0075895Y0099245D02*
X0076919Y0099245D01*
X0076919Y0098647D02*
X0076494Y0098647D01*
X0074330Y0096851D02*
X0073495Y0096851D01*
X0073731Y0097450D02*
X0072682Y0097450D01*
X0074094Y0096253D02*
X0074928Y0096253D01*
X0074374Y0095654D02*
X0075527Y0095654D01*
X0074622Y0095056D02*
X0076919Y0095056D01*
X0076919Y0094457D02*
X0074744Y0094457D01*
X0074744Y0093859D02*
X0077201Y0093859D01*
X0074744Y0093260D02*
X0081669Y0093260D01*
X0081669Y0092662D02*
X0074520Y0092662D01*
X0074272Y0092063D02*
X0081669Y0092063D01*
X0081669Y0091465D02*
X0073847Y0091465D01*
X0073249Y0090866D02*
X0081669Y0090866D01*
X0081669Y0090268D02*
X0072087Y0090268D01*
X0074744Y0084283D02*
X0089720Y0084283D01*
X0089706Y0084881D02*
X0089617Y0084881D01*
X0090318Y0083684D02*
X0074744Y0083684D01*
X0074695Y0083086D02*
X0090917Y0083086D01*
X0092874Y0083086D02*
X0095520Y0083086D01*
X0095138Y0091465D02*
X0088643Y0091465D01*
X0093093Y0092662D02*
X0114098Y0092662D01*
X0113461Y0093260D02*
X0105279Y0093260D01*
X0105512Y0093859D02*
X0113312Y0093859D01*
X0113312Y0094457D02*
X0105512Y0094457D01*
X0105486Y0091465D02*
X0113738Y0091465D01*
X0113712Y0090866D02*
X0106898Y0090866D01*
X0107496Y0090268D02*
X0113712Y0090268D01*
X0113712Y0089669D02*
X0108095Y0089669D01*
X0108693Y0089071D02*
X0113712Y0089071D01*
X0113733Y0088472D02*
X0109292Y0088472D01*
X0109890Y0087874D02*
X0125147Y0087874D01*
X0125147Y0088472D02*
X0124091Y0088472D01*
X0125147Y0087275D02*
X0110489Y0087275D01*
X0111087Y0086677D02*
X0113950Y0086677D01*
X0113712Y0086078D02*
X0111504Y0086078D01*
X0111504Y0085480D02*
X0113712Y0085480D01*
X0113712Y0084881D02*
X0111504Y0084881D01*
X0111504Y0084283D02*
X0113712Y0084283D01*
X0113712Y0083684D02*
X0111504Y0083684D01*
X0111553Y0083086D02*
X0114120Y0083086D01*
X0113241Y0081889D02*
X0125588Y0081889D01*
X0125147Y0082487D02*
X0112152Y0082487D01*
X0106204Y0081889D02*
X0074199Y0081889D01*
X0074447Y0082487D02*
X0105692Y0082487D01*
X0105744Y0081290D02*
X0073673Y0081290D01*
X0073074Y0080692D02*
X0105415Y0080692D01*
X0105415Y0080093D02*
X0071666Y0080093D01*
X0072081Y0077699D02*
X0108246Y0077699D01*
X0108844Y0077101D02*
X0073246Y0077101D01*
X0073845Y0076502D02*
X0109443Y0076502D01*
X0106266Y0078298D02*
X0024298Y0078298D01*
X0024298Y0078896D02*
X0105667Y0078896D01*
X0105415Y0079495D02*
X0024298Y0079495D01*
X0024298Y0080093D02*
X0059999Y0080093D01*
X0058591Y0080692D02*
X0024298Y0080692D01*
X0024298Y0081290D02*
X0057992Y0081290D01*
X0057466Y0081889D02*
X0024298Y0081889D01*
X0024298Y0082487D02*
X0057218Y0082487D01*
X0056970Y0083086D02*
X0024298Y0083086D01*
X0024298Y0083684D02*
X0056921Y0083684D01*
X0056921Y0084283D02*
X0024298Y0084283D01*
X0024298Y0084881D02*
X0056971Y0084881D01*
X0057219Y0085480D02*
X0024298Y0085480D01*
X0024298Y0086078D02*
X0057467Y0086078D01*
X0057995Y0086677D02*
X0024298Y0086677D01*
X0024298Y0087275D02*
X0058593Y0087275D01*
X0059584Y0077699D02*
X0024298Y0077699D01*
X0024298Y0077101D02*
X0058419Y0077101D01*
X0057820Y0076502D02*
X0024298Y0076502D01*
X0024298Y0075903D02*
X0057394Y0075903D01*
X0057146Y0075305D02*
X0024298Y0075305D01*
X0024298Y0074706D02*
X0056921Y0074706D01*
X0056921Y0074108D02*
X0024298Y0074108D01*
X0024298Y0073509D02*
X0056921Y0073509D01*
X0057042Y0072911D02*
X0024298Y0072911D01*
X0024298Y0072312D02*
X0057290Y0072312D01*
X0057569Y0071714D02*
X0024298Y0071714D01*
X0024298Y0071115D02*
X0058167Y0071115D01*
X0058976Y0070517D02*
X0024298Y0070517D01*
X0024298Y0069918D02*
X0171608Y0069918D01*
X0171608Y0069320D02*
X0024298Y0069320D01*
X0024298Y0066327D02*
X0033854Y0066327D01*
X0033351Y0065729D02*
X0024298Y0065729D01*
X0024298Y0065130D02*
X0031633Y0065130D01*
X0031586Y0064532D02*
X0024298Y0064532D01*
X0024298Y0063933D02*
X0031586Y0063933D01*
X0031586Y0063335D02*
X0024298Y0063335D01*
X0024298Y0062736D02*
X0031586Y0062736D01*
X0031586Y0062138D02*
X0024298Y0062138D01*
X0024298Y0061539D02*
X0031586Y0061539D01*
X0031586Y0060941D02*
X0024298Y0060941D01*
X0024298Y0060342D02*
X0031644Y0060342D01*
X0033251Y0059744D02*
X0024298Y0059744D01*
X0024298Y0059145D02*
X0033251Y0059145D01*
X0033251Y0058547D02*
X0024298Y0058547D01*
X0024298Y0057948D02*
X0033251Y0057948D01*
X0033251Y0057350D02*
X0024298Y0057350D01*
X0024298Y0056751D02*
X0033251Y0056751D01*
X0033251Y0056153D02*
X0024298Y0056153D01*
X0024298Y0055554D02*
X0032057Y0055554D01*
X0031586Y0054956D02*
X0024298Y0054956D01*
X0024298Y0054357D02*
X0031586Y0054357D01*
X0031586Y0053759D02*
X0024298Y0053759D01*
X0024298Y0053160D02*
X0031586Y0053160D01*
X0031586Y0052562D02*
X0024298Y0052562D01*
X0024298Y0051963D02*
X0031586Y0051963D01*
X0031586Y0051365D02*
X0024298Y0051365D01*
X0024298Y0050766D02*
X0031586Y0050766D01*
X0031819Y0050167D02*
X0024298Y0050167D01*
X0024298Y0049569D02*
X0033251Y0049569D01*
X0033251Y0048970D02*
X0024298Y0048970D01*
X0024298Y0048372D02*
X0033251Y0048372D01*
X0033251Y0047773D02*
X0024298Y0047773D01*
X0024298Y0047175D02*
X0033251Y0047175D01*
X0033251Y0046576D02*
X0024298Y0046576D01*
X0024298Y0045978D02*
X0033251Y0045978D01*
X0031882Y0045379D02*
X0024298Y0045379D01*
X0024298Y0044781D02*
X0031586Y0044781D01*
X0031586Y0044182D02*
X0024298Y0044182D01*
X0024298Y0043584D02*
X0031586Y0043584D01*
X0031586Y0042985D02*
X0024298Y0042985D01*
X0024298Y0042387D02*
X0031586Y0042387D01*
X0031586Y0041788D02*
X0024298Y0041788D01*
X0024298Y0041190D02*
X0031586Y0041190D01*
X0031586Y0040591D02*
X0024298Y0040591D01*
X0024298Y0039993D02*
X0031994Y0039993D01*
X0024298Y0039394D02*
X0046241Y0039394D01*
X0046839Y0038796D02*
X0024298Y0038796D01*
X0037484Y0050167D02*
X0038512Y0050167D01*
X0038279Y0050766D02*
X0037717Y0050766D01*
X0037717Y0051365D02*
X0038279Y0051365D01*
X0038279Y0051963D02*
X0037717Y0051963D01*
X0037717Y0052562D02*
X0038279Y0052562D01*
X0038279Y0053160D02*
X0037717Y0053160D01*
X0037717Y0053759D02*
X0038279Y0053759D01*
X0038279Y0054357D02*
X0037717Y0054357D01*
X0037717Y0054956D02*
X0038279Y0054956D01*
X0038750Y0055554D02*
X0037246Y0055554D01*
X0044113Y0045379D02*
X0044723Y0045379D01*
X0044723Y0044781D02*
X0044410Y0044781D01*
X0044410Y0044182D02*
X0044723Y0044182D01*
X0047523Y0044781D02*
X0216698Y0044781D01*
X0216698Y0045379D02*
X0208351Y0045379D01*
X0208560Y0045978D02*
X0216698Y0045978D01*
X0216698Y0046576D02*
X0208560Y0046576D01*
X0208560Y0047175D02*
X0216698Y0047175D01*
X0216698Y0044182D02*
X0047675Y0044182D01*
X0044445Y0041190D02*
X0044410Y0041190D01*
X0044410Y0040591D02*
X0045044Y0040591D01*
X0045642Y0039993D02*
X0044002Y0039993D01*
X0067126Y0031614D02*
X0073870Y0031614D01*
X0072831Y0031015D02*
X0068164Y0031015D01*
X0068763Y0030417D02*
X0072233Y0030417D01*
X0071812Y0029818D02*
X0069184Y0029818D01*
X0069432Y0029220D02*
X0071564Y0029220D01*
X0071316Y0028621D02*
X0069680Y0028621D01*
X0069698Y0028023D02*
X0071298Y0028023D01*
X0071298Y0027424D02*
X0069698Y0027424D01*
X0069664Y0026826D02*
X0071331Y0026826D01*
X0071579Y0026227D02*
X0069416Y0026227D01*
X0069168Y0025629D02*
X0071827Y0025629D01*
X0072270Y0025030D02*
X0068726Y0025030D01*
X0068127Y0024432D02*
X0072869Y0024432D01*
X0073960Y0023833D02*
X0067036Y0023833D01*
X0077036Y0023833D02*
X0083052Y0023833D01*
X0082303Y0024432D02*
X0078127Y0024432D01*
X0078726Y0025030D02*
X0081782Y0025030D01*
X0081412Y0025629D02*
X0079168Y0025629D01*
X0079416Y0026227D02*
X0081153Y0026227D01*
X0080986Y0026826D02*
X0079664Y0026826D01*
X0107036Y0023833D02*
X0113052Y0023833D01*
X0112303Y0024432D02*
X0108127Y0024432D01*
X0108726Y0025030D02*
X0111782Y0025030D01*
X0111412Y0025629D02*
X0109168Y0025629D01*
X0109416Y0026227D02*
X0111153Y0026227D01*
X0110986Y0026826D02*
X0109664Y0026826D01*
X0056074Y0057350D02*
X0054469Y0057350D01*
X0054626Y0057948D02*
X0055969Y0057948D01*
X0055969Y0058547D02*
X0054626Y0058547D01*
X0054626Y0059145D02*
X0055969Y0059145D01*
X0055969Y0059744D02*
X0054626Y0059744D01*
X0072689Y0070517D02*
X0171608Y0070517D01*
X0171608Y0071115D02*
X0073498Y0071115D01*
X0074096Y0071714D02*
X0171608Y0071714D01*
X0171608Y0072312D02*
X0074375Y0072312D01*
X0074623Y0072911D02*
X0170059Y0072911D01*
X0169608Y0073509D02*
X0074744Y0073509D01*
X0074744Y0074108D02*
X0169608Y0074108D01*
X0169608Y0074706D02*
X0074744Y0074706D01*
X0074519Y0075305D02*
X0169608Y0075305D01*
X0169608Y0075903D02*
X0074271Y0075903D01*
X0081669Y0089071D02*
X0024298Y0089071D01*
X0024298Y0089669D02*
X0081669Y0089669D01*
X0081201Y0093859D02*
X0080937Y0093859D01*
X0085219Y0098647D02*
X0085443Y0098647D01*
X0085443Y0099245D02*
X0085219Y0099245D01*
X0085219Y0099844D02*
X0085443Y0099844D01*
X0085544Y0102238D02*
X0085219Y0102238D01*
X0088405Y0102238D02*
X0104275Y0102238D01*
X0104275Y0102836D02*
X0089003Y0102836D01*
X0092962Y0098048D02*
X0095557Y0098048D01*
X0095524Y0096851D02*
X0093093Y0096851D01*
X0093093Y0097450D02*
X0137942Y0097450D01*
X0137942Y0094457D02*
X0133536Y0094457D01*
X0133826Y0093859D02*
X0137942Y0093859D01*
X0137942Y0093260D02*
X0133847Y0093260D01*
X0133847Y0092662D02*
X0137942Y0092662D01*
X0138051Y0092063D02*
X0133847Y0092063D01*
X0133847Y0091465D02*
X0146319Y0091465D01*
X0146133Y0092063D02*
X0162346Y0092063D01*
X0162346Y0091465D02*
X0156667Y0091465D01*
X0156693Y0090866D02*
X0162346Y0090866D01*
X0162346Y0090268D02*
X0156693Y0090268D01*
X0156693Y0089669D02*
X0162346Y0089669D01*
X0162346Y0089071D02*
X0156693Y0089071D01*
X0156672Y0088472D02*
X0162346Y0088472D01*
X0162346Y0087874D02*
X0146250Y0087874D01*
X0146250Y0087275D02*
X0162346Y0087275D01*
X0162346Y0086677D02*
X0156456Y0086677D01*
X0156693Y0086078D02*
X0162346Y0086078D01*
X0162346Y0085480D02*
X0156693Y0085480D01*
X0156693Y0084881D02*
X0162346Y0084881D01*
X0162346Y0084283D02*
X0156693Y0084283D01*
X0156693Y0083684D02*
X0162346Y0083684D01*
X0162346Y0083086D02*
X0156285Y0083086D01*
X0162346Y0082487D02*
X0143620Y0082487D01*
X0144218Y0083086D02*
X0144814Y0083086D01*
X0143021Y0081889D02*
X0162346Y0081889D01*
X0162346Y0081290D02*
X0142422Y0081290D01*
X0141824Y0080692D02*
X0162346Y0080692D01*
X0162938Y0080093D02*
X0141225Y0080093D01*
X0140627Y0079495D02*
X0163537Y0079495D01*
X0164135Y0078896D02*
X0140028Y0078896D01*
X0139430Y0078298D02*
X0164734Y0078298D01*
X0165332Y0077699D02*
X0138831Y0077699D01*
X0138233Y0077101D02*
X0165931Y0077101D01*
X0166898Y0080093D02*
X0169893Y0080093D01*
X0166300Y0080692D02*
X0185504Y0080692D01*
X0186103Y0081290D02*
X0165701Y0081290D01*
X0165146Y0081889D02*
X0176769Y0081889D01*
X0176328Y0082487D02*
X0165146Y0082487D01*
X0165146Y0083086D02*
X0165301Y0083086D01*
X0174885Y0083086D02*
X0176328Y0083086D01*
X0180187Y0081889D02*
X0180204Y0081889D01*
X0182178Y0081889D02*
X0182778Y0081889D01*
X0182778Y0081403D02*
X0183899Y0081403D01*
X0184230Y0081491D01*
X0184526Y0081662D01*
X0184768Y0081904D01*
X0184940Y0082201D01*
X0185028Y0082531D01*
X0185028Y0084903D01*
X0182778Y0084903D01*
X0182778Y0081403D01*
X0182778Y0082487D02*
X0182178Y0082487D01*
X0182178Y0083086D02*
X0182778Y0083086D01*
X0182778Y0083684D02*
X0182178Y0083684D01*
X0182178Y0084283D02*
X0182778Y0084283D01*
X0182778Y0084881D02*
X0182178Y0084881D01*
X0182778Y0085480D02*
X0190292Y0085480D01*
X0190891Y0086078D02*
X0185028Y0086078D01*
X0185028Y0086677D02*
X0191489Y0086677D01*
X0192088Y0087275D02*
X0185028Y0087275D01*
X0185028Y0087874D02*
X0184940Y0088204D01*
X0184768Y0088501D01*
X0184628Y0089071D02*
X0193883Y0089071D01*
X0194482Y0089669D02*
X0184628Y0089669D01*
X0187523Y0090268D02*
X0195080Y0090268D01*
X0195679Y0090866D02*
X0188122Y0090866D01*
X0188720Y0091465D02*
X0197500Y0091465D01*
X0197314Y0092063D02*
X0208606Y0092063D01*
X0208606Y0091465D02*
X0207849Y0091465D01*
X0207874Y0090866D02*
X0208606Y0090866D01*
X0208606Y0090268D02*
X0207874Y0090268D01*
X0207874Y0089669D02*
X0208606Y0089669D01*
X0208606Y0089071D02*
X0207874Y0089071D01*
X0207853Y0088472D02*
X0208606Y0088472D01*
X0208606Y0087874D02*
X0196646Y0087874D01*
X0197244Y0088472D02*
X0197496Y0088472D01*
X0197712Y0086677D02*
X0195449Y0086677D01*
X0196047Y0087275D02*
X0208606Y0087275D01*
X0208606Y0086677D02*
X0207637Y0086677D01*
X0207874Y0086078D02*
X0208606Y0086078D01*
X0208606Y0085480D02*
X0207874Y0085480D01*
X0207874Y0084881D02*
X0208606Y0084881D01*
X0208606Y0084283D02*
X0207874Y0084283D01*
X0207874Y0083684D02*
X0208606Y0083684D01*
X0208606Y0083086D02*
X0207466Y0083086D01*
X0208606Y0082487D02*
X0193522Y0082487D01*
X0192924Y0081889D02*
X0208606Y0081889D01*
X0208986Y0081290D02*
X0192325Y0081290D01*
X0191727Y0080692D02*
X0209584Y0080692D01*
X0210183Y0080093D02*
X0191128Y0080093D01*
X0191250Y0079495D02*
X0210781Y0079495D01*
X0211380Y0078896D02*
X0191849Y0078896D01*
X0192447Y0078298D02*
X0238233Y0078298D01*
X0238233Y0078896D02*
X0232254Y0078896D01*
X0232852Y0079495D02*
X0238233Y0079495D01*
X0238233Y0080093D02*
X0233451Y0080093D01*
X0234049Y0080692D02*
X0238233Y0080692D01*
X0238233Y0081290D02*
X0234648Y0081290D01*
X0235368Y0081889D02*
X0238233Y0081889D01*
X0238233Y0082487D02*
X0235809Y0082487D01*
X0235809Y0083086D02*
X0238233Y0083086D01*
X0238233Y0083684D02*
X0235809Y0083684D01*
X0235809Y0084283D02*
X0238233Y0084283D01*
X0238233Y0084881D02*
X0235809Y0084881D01*
X0235809Y0085480D02*
X0238233Y0085480D01*
X0238233Y0086078D02*
X0235809Y0086078D01*
X0235809Y0086677D02*
X0238233Y0086677D01*
X0238233Y0087275D02*
X0235809Y0087275D01*
X0235986Y0087874D02*
X0238233Y0087874D01*
X0238233Y0088472D02*
X0236209Y0088472D01*
X0236209Y0089071D02*
X0238233Y0089071D01*
X0238233Y0089669D02*
X0236209Y0089669D01*
X0236209Y0090268D02*
X0238233Y0090268D01*
X0238233Y0090866D02*
X0233959Y0090866D01*
X0233959Y0091408D02*
X0236209Y0091408D01*
X0236209Y0093779D01*
X0236121Y0094110D01*
X0235949Y0094406D01*
X0235707Y0094648D01*
X0235411Y0094819D01*
X0235080Y0094908D01*
X0233959Y0094908D01*
X0233959Y0091408D01*
X0233959Y0091465D02*
X0233359Y0091465D01*
X0233359Y0092063D02*
X0233959Y0092063D01*
X0233959Y0092662D02*
X0233359Y0092662D01*
X0233359Y0093260D02*
X0233959Y0093260D01*
X0233959Y0093859D02*
X0233359Y0093859D01*
X0233359Y0094457D02*
X0233959Y0094457D01*
X0235898Y0094457D02*
X0238233Y0094457D01*
X0238233Y0093859D02*
X0236188Y0093859D01*
X0236209Y0093260D02*
X0238233Y0093260D01*
X0238233Y0092662D02*
X0236209Y0092662D01*
X0236209Y0092063D02*
X0238233Y0092063D01*
X0238233Y0091465D02*
X0236209Y0091465D01*
X0238233Y0095056D02*
X0221524Y0095056D01*
X0221524Y0095216D02*
X0226874Y0095216D01*
X0226874Y0096237D01*
X0226786Y0096568D01*
X0226614Y0096865D01*
X0226372Y0097107D01*
X0226076Y0097278D01*
X0225745Y0097366D01*
X0221524Y0097366D01*
X0221524Y0095216D01*
X0221524Y0094716D01*
X0221524Y0092566D01*
X0225745Y0092566D01*
X0226076Y0092655D01*
X0226372Y0092826D01*
X0226614Y0093068D01*
X0226786Y0093365D01*
X0226874Y0093695D01*
X0226874Y0094716D01*
X0221524Y0094716D01*
X0221024Y0094716D01*
X0221024Y0092566D01*
X0216803Y0092566D01*
X0216472Y0092655D01*
X0216176Y0092826D01*
X0215934Y0093068D01*
X0215763Y0093365D01*
X0215674Y0093695D01*
X0215674Y0094716D01*
X0221024Y0094716D01*
X0221024Y0095216D01*
X0215674Y0095216D01*
X0215674Y0096237D01*
X0215763Y0096568D01*
X0215934Y0096865D01*
X0216176Y0097107D01*
X0216472Y0097278D01*
X0216803Y0097366D01*
X0221024Y0097366D01*
X0221024Y0095216D01*
X0221524Y0095216D01*
X0221524Y0095654D02*
X0221024Y0095654D01*
X0221024Y0095056D02*
X0211406Y0095056D01*
X0211406Y0095654D02*
X0215674Y0095654D01*
X0215678Y0096253D02*
X0211406Y0096253D01*
X0211406Y0096851D02*
X0215926Y0096851D01*
X0216472Y0097655D02*
X0216803Y0097566D01*
X0221024Y0097566D01*
X0221024Y0099716D01*
X0221524Y0099716D01*
X0221524Y0097566D01*
X0225745Y0097566D01*
X0226076Y0097655D01*
X0226372Y0097826D01*
X0226614Y0098068D01*
X0226786Y0098365D01*
X0226874Y0098695D01*
X0226874Y0099716D01*
X0221524Y0099716D01*
X0221524Y0100216D01*
X0226874Y0100216D01*
X0226874Y0101237D01*
X0226786Y0101568D01*
X0226614Y0101865D01*
X0226372Y0102107D01*
X0226076Y0102278D01*
X0225745Y0102366D01*
X0221524Y0102366D01*
X0221524Y0100216D01*
X0221024Y0100216D01*
X0221024Y0099716D01*
X0215674Y0099716D01*
X0215674Y0098695D01*
X0215763Y0098365D01*
X0215934Y0098068D01*
X0216176Y0097826D01*
X0216472Y0097655D01*
X0215954Y0098048D02*
X0211406Y0098048D01*
X0211406Y0097450D02*
X0238233Y0097450D01*
X0238233Y0098048D02*
X0226595Y0098048D01*
X0226861Y0098647D02*
X0238233Y0098647D01*
X0238233Y0099245D02*
X0226874Y0099245D01*
X0226874Y0100442D02*
X0238233Y0100442D01*
X0238233Y0099844D02*
X0221524Y0099844D01*
X0221024Y0099844D02*
X0210139Y0099844D01*
X0210493Y0100442D02*
X0215674Y0100442D01*
X0215674Y0100216D02*
X0221024Y0100216D01*
X0221024Y0102366D01*
X0216803Y0102366D01*
X0216472Y0102278D01*
X0216176Y0102107D01*
X0215934Y0101865D01*
X0215763Y0101568D01*
X0215674Y0101237D01*
X0215674Y0100216D01*
X0215674Y0101041D02*
X0211092Y0101041D01*
X0211406Y0101639D02*
X0215804Y0101639D01*
X0216404Y0102238D02*
X0211406Y0102238D01*
X0211406Y0102836D02*
X0238233Y0102836D01*
X0238233Y0102238D02*
X0226145Y0102238D01*
X0225947Y0102966D02*
X0226474Y0103494D01*
X0226474Y0106439D01*
X0225947Y0106966D01*
X0216601Y0106966D01*
X0216074Y0106439D01*
X0216074Y0103494D01*
X0216601Y0102966D01*
X0225947Y0102966D01*
X0226416Y0103435D02*
X0238233Y0103435D01*
X0238233Y0104034D02*
X0226474Y0104034D01*
X0226474Y0104632D02*
X0238233Y0104632D01*
X0238233Y0105231D02*
X0226474Y0105231D01*
X0226474Y0105829D02*
X0238233Y0105829D01*
X0238233Y0106428D02*
X0226474Y0106428D01*
X0225947Y0107966D02*
X0226474Y0108494D01*
X0226474Y0111439D01*
X0225947Y0111966D01*
X0216601Y0111966D01*
X0216074Y0111439D01*
X0216074Y0108494D01*
X0216601Y0107966D01*
X0225947Y0107966D01*
X0226204Y0108223D02*
X0238233Y0108223D01*
X0238233Y0107625D02*
X0211406Y0107625D01*
X0211406Y0108223D02*
X0216345Y0108223D01*
X0216074Y0108822D02*
X0211406Y0108822D01*
X0211406Y0109420D02*
X0216074Y0109420D01*
X0216074Y0110019D02*
X0211406Y0110019D01*
X0211406Y0110617D02*
X0216074Y0110617D01*
X0216074Y0111216D02*
X0211406Y0111216D01*
X0211406Y0111814D02*
X0216449Y0111814D01*
X0216601Y0112966D02*
X0225947Y0112966D01*
X0226474Y0113494D01*
X0226474Y0116439D01*
X0225947Y0116966D01*
X0216601Y0116966D01*
X0216074Y0116439D01*
X0216074Y0113494D01*
X0216601Y0112966D01*
X0216557Y0113011D02*
X0211406Y0113011D01*
X0211406Y0112413D02*
X0238233Y0112413D01*
X0238233Y0113011D02*
X0225992Y0113011D01*
X0226474Y0113610D02*
X0238233Y0113610D01*
X0238233Y0114208D02*
X0226474Y0114208D01*
X0226474Y0114807D02*
X0238233Y0114807D01*
X0238233Y0115405D02*
X0226474Y0115405D01*
X0226474Y0116004D02*
X0238233Y0116004D01*
X0238233Y0116602D02*
X0226311Y0116602D01*
X0226099Y0111814D02*
X0238233Y0111814D01*
X0238233Y0111216D02*
X0226474Y0111216D01*
X0226474Y0110617D02*
X0238233Y0110617D01*
X0238233Y0110019D02*
X0226474Y0110019D01*
X0226474Y0109420D02*
X0238233Y0109420D01*
X0238233Y0108822D02*
X0226474Y0108822D01*
X0226744Y0101639D02*
X0238233Y0101639D01*
X0238233Y0101041D02*
X0226874Y0101041D01*
X0221524Y0101041D02*
X0221024Y0101041D01*
X0221024Y0101639D02*
X0221524Y0101639D01*
X0221524Y0102238D02*
X0221024Y0102238D01*
X0221024Y0100442D02*
X0221524Y0100442D01*
X0221524Y0099245D02*
X0221024Y0099245D01*
X0221024Y0098647D02*
X0221524Y0098647D01*
X0221524Y0098048D02*
X0221024Y0098048D01*
X0221024Y0096851D02*
X0221524Y0096851D01*
X0221524Y0096253D02*
X0221024Y0096253D01*
X0221024Y0094457D02*
X0221524Y0094457D01*
X0221524Y0093859D02*
X0221024Y0093859D01*
X0221024Y0093260D02*
X0221524Y0093260D01*
X0221524Y0092662D02*
X0221024Y0092662D01*
X0216461Y0092662D02*
X0211406Y0092662D01*
X0211406Y0093260D02*
X0215823Y0093260D01*
X0215674Y0093859D02*
X0211406Y0093859D01*
X0211406Y0094457D02*
X0215674Y0094457D01*
X0216100Y0091465D02*
X0211406Y0091465D01*
X0211406Y0092063D02*
X0225713Y0092063D01*
X0226088Y0092662D02*
X0227509Y0092662D01*
X0227509Y0093260D02*
X0226725Y0093260D01*
X0226874Y0093859D02*
X0227509Y0093859D01*
X0227986Y0094457D02*
X0226874Y0094457D01*
X0226874Y0095654D02*
X0238233Y0095654D01*
X0238233Y0096253D02*
X0226870Y0096253D01*
X0226622Y0096851D02*
X0238233Y0096851D01*
X0231420Y0094457D02*
X0231333Y0094457D01*
X0227509Y0089669D02*
X0227279Y0089669D01*
X0227509Y0089071D02*
X0226681Y0089071D01*
X0226453Y0088472D02*
X0227509Y0088472D01*
X0227509Y0087874D02*
X0211406Y0087874D01*
X0211406Y0088472D02*
X0216096Y0088472D01*
X0216074Y0089071D02*
X0211406Y0089071D01*
X0211406Y0089669D02*
X0216074Y0089669D01*
X0216074Y0090268D02*
X0211406Y0090268D01*
X0211406Y0090866D02*
X0216074Y0090866D01*
X0211406Y0087275D02*
X0227509Y0087275D01*
X0227509Y0086677D02*
X0226237Y0086677D01*
X0226066Y0083086D02*
X0227509Y0083086D01*
X0227509Y0082487D02*
X0211748Y0082487D01*
X0211406Y0083086D02*
X0216482Y0083086D01*
X0216074Y0083684D02*
X0211406Y0083684D01*
X0211406Y0084283D02*
X0216074Y0084283D01*
X0216074Y0084881D02*
X0211406Y0084881D01*
X0211406Y0085480D02*
X0216074Y0085480D01*
X0216074Y0086078D02*
X0211406Y0086078D01*
X0211406Y0086677D02*
X0216312Y0086677D01*
X0212347Y0081889D02*
X0227950Y0081889D01*
X0238233Y0077699D02*
X0192510Y0077699D01*
X0192510Y0077101D02*
X0238233Y0077101D01*
X0238233Y0076502D02*
X0192977Y0076502D01*
X0193575Y0075903D02*
X0238233Y0075903D01*
X0238233Y0075305D02*
X0214770Y0075305D01*
X0206916Y0063335D02*
X0196579Y0063335D01*
X0197077Y0062736D02*
X0206419Y0062736D01*
X0206419Y0062138D02*
X0197077Y0062138D01*
X0197077Y0061539D02*
X0206419Y0061539D01*
X0206491Y0060941D02*
X0197005Y0060941D01*
X0197077Y0060342D02*
X0206419Y0060342D01*
X0206419Y0059744D02*
X0197077Y0059744D01*
X0189490Y0054357D02*
X0181785Y0054357D01*
X0182384Y0053759D02*
X0189490Y0053759D01*
X0189606Y0053160D02*
X0182982Y0053160D01*
X0204794Y0050766D02*
X0205394Y0050766D01*
X0205394Y0050167D02*
X0204794Y0050167D01*
X0204794Y0049569D02*
X0205394Y0049569D01*
X0205394Y0048970D02*
X0204794Y0048970D01*
X0204794Y0048372D02*
X0205394Y0048372D01*
X0205394Y0046576D02*
X0204794Y0046576D01*
X0204794Y0045978D02*
X0205394Y0045978D01*
X0205394Y0045379D02*
X0204794Y0045379D01*
X0178158Y0072312D02*
X0174408Y0072312D01*
X0175956Y0072911D02*
X0177559Y0072911D01*
X0177421Y0073509D02*
X0176408Y0073509D01*
X0176408Y0074108D02*
X0177421Y0074108D01*
X0177421Y0074706D02*
X0176408Y0074706D01*
X0176408Y0075305D02*
X0177864Y0075305D01*
X0178463Y0075903D02*
X0176408Y0075903D01*
X0176408Y0076502D02*
X0179078Y0076502D01*
X0179254Y0077101D02*
X0176408Y0077101D01*
X0176408Y0077699D02*
X0179853Y0077699D01*
X0180451Y0078298D02*
X0176408Y0078298D01*
X0176408Y0078896D02*
X0181050Y0078896D01*
X0181649Y0079495D02*
X0176408Y0079495D01*
X0176123Y0080093D02*
X0182247Y0080093D01*
X0184753Y0081889D02*
X0186701Y0081889D01*
X0187300Y0082487D02*
X0185016Y0082487D01*
X0185028Y0083086D02*
X0187898Y0083086D01*
X0188497Y0083684D02*
X0185028Y0083684D01*
X0185028Y0084283D02*
X0189095Y0084283D01*
X0189694Y0084881D02*
X0185028Y0084881D01*
X0184628Y0092662D02*
X0185957Y0092662D01*
X0185968Y0093260D02*
X0184628Y0093260D01*
X0184628Y0093859D02*
X0185968Y0093859D01*
X0185968Y0094457D02*
X0184152Y0094457D01*
X0183878Y0095056D02*
X0186383Y0095056D01*
X0186982Y0095654D02*
X0183878Y0095654D01*
X0183878Y0096253D02*
X0187580Y0096253D01*
X0189123Y0096851D02*
X0183878Y0096851D01*
X0183878Y0097450D02*
X0189123Y0097450D01*
X0189254Y0098048D02*
X0183878Y0098048D01*
X0183777Y0098647D02*
X0189974Y0098647D01*
X0190573Y0099245D02*
X0183179Y0099245D01*
X0182667Y0099844D02*
X0191171Y0099844D01*
X0191770Y0100442D02*
X0182667Y0100442D01*
X0182499Y0101041D02*
X0192368Y0101041D01*
X0197675Y0101639D02*
X0181901Y0101639D01*
X0179056Y0101639D02*
X0175563Y0101639D01*
X0175693Y0101041D02*
X0178457Y0101041D01*
X0178289Y0100442D02*
X0175693Y0100442D01*
X0175693Y0099245D02*
X0178289Y0099245D01*
X0178289Y0099844D02*
X0170343Y0099844D01*
X0170343Y0100442D02*
X0169843Y0100442D01*
X0169843Y0101041D02*
X0170343Y0101041D01*
X0170343Y0101639D02*
X0169843Y0101639D01*
X0169843Y0102238D02*
X0170343Y0102238D01*
X0170343Y0099245D02*
X0169843Y0099245D01*
X0169843Y0098647D02*
X0170343Y0098647D01*
X0170343Y0098048D02*
X0169843Y0098048D01*
X0169843Y0096851D02*
X0170343Y0096851D01*
X0170343Y0096253D02*
X0169843Y0096253D01*
X0169843Y0095654D02*
X0170343Y0095654D01*
X0170343Y0095056D02*
X0181078Y0095056D01*
X0181078Y0095654D02*
X0175693Y0095654D01*
X0175689Y0096253D02*
X0181078Y0096253D01*
X0181078Y0096851D02*
X0175441Y0096851D01*
X0175414Y0098048D02*
X0179300Y0098048D01*
X0178702Y0098647D02*
X0175680Y0098647D01*
X0174964Y0102238D02*
X0208329Y0102238D01*
X0208606Y0102836D02*
X0165146Y0102836D01*
X0165146Y0102238D02*
X0165222Y0102238D01*
X0162346Y0102238D02*
X0160915Y0102238D01*
X0160915Y0102836D02*
X0162346Y0102836D01*
X0162346Y0103435D02*
X0160915Y0103435D01*
X0160915Y0104034D02*
X0162346Y0104034D01*
X0162346Y0104632D02*
X0160915Y0104632D01*
X0160915Y0105231D02*
X0162346Y0105231D01*
X0162346Y0105829D02*
X0160915Y0105829D01*
X0160915Y0106428D02*
X0162346Y0106428D01*
X0162346Y0107026D02*
X0160915Y0107026D01*
X0160915Y0107625D02*
X0162346Y0107625D01*
X0162346Y0108223D02*
X0160915Y0108223D01*
X0160915Y0108822D02*
X0162346Y0108822D01*
X0162346Y0109420D02*
X0160915Y0109420D01*
X0160915Y0110019D02*
X0162346Y0110019D01*
X0162346Y0110617D02*
X0160915Y0110617D01*
X0160915Y0111216D02*
X0162346Y0111216D01*
X0162346Y0111814D02*
X0160915Y0111814D01*
X0160915Y0112413D02*
X0162346Y0112413D01*
X0162346Y0113011D02*
X0160915Y0113011D01*
X0160915Y0113610D02*
X0161771Y0113610D01*
X0161172Y0114208D02*
X0160915Y0114208D01*
X0157915Y0114208D02*
X0156693Y0114208D01*
X0156693Y0113610D02*
X0157915Y0113610D01*
X0157915Y0114807D02*
X0156693Y0114807D01*
X0156693Y0115405D02*
X0157915Y0115405D01*
X0157915Y0116004D02*
X0156693Y0116004D01*
X0156530Y0116602D02*
X0157915Y0116602D01*
X0160915Y0117201D02*
X0161152Y0117201D01*
X0160915Y0117799D02*
X0161751Y0117799D01*
X0160915Y0118398D02*
X0163598Y0118398D01*
X0163441Y0118440D02*
X0163772Y0118351D01*
X0165808Y0118351D01*
X0165808Y0121320D01*
X0162643Y0121320D01*
X0162643Y0119480D01*
X0162731Y0119150D01*
X0162902Y0118853D01*
X0163144Y0118611D01*
X0163441Y0118440D01*
X0163772Y0117799D02*
X0186357Y0117799D01*
X0186461Y0117903D02*
X0185179Y0116621D01*
X0185179Y0114808D01*
X0186461Y0113525D01*
X0188275Y0113525D01*
X0188395Y0113646D01*
X0188889Y0113646D01*
X0188889Y0110523D01*
X0189416Y0109996D01*
X0192035Y0109996D01*
X0193765Y0108266D01*
X0197701Y0108266D01*
X0198001Y0107966D01*
X0207347Y0107966D01*
X0207874Y0108494D01*
X0207874Y0111439D01*
X0207347Y0111966D01*
X0198001Y0111966D01*
X0197701Y0111666D01*
X0195689Y0111666D01*
X0195689Y0116969D01*
X0195162Y0117496D01*
X0189416Y0117496D01*
X0189049Y0117129D01*
X0188275Y0117903D01*
X0186461Y0117903D01*
X0185759Y0117201D02*
X0164371Y0117201D01*
X0164951Y0116602D02*
X0165056Y0116602D01*
X0165808Y0118398D02*
X0166408Y0118398D01*
X0166408Y0118351D02*
X0168445Y0118351D01*
X0168775Y0118440D01*
X0169072Y0118611D01*
X0169314Y0118853D01*
X0169485Y0119150D01*
X0169573Y0119480D01*
X0169573Y0121320D01*
X0166408Y0121320D01*
X0166408Y0121920D01*
X0165808Y0121920D01*
X0165808Y0124888D01*
X0163772Y0124888D01*
X0163441Y0124800D01*
X0163144Y0124629D01*
X0162902Y0124387D01*
X0162731Y0124090D01*
X0162643Y0123760D01*
X0162643Y0121920D01*
X0165808Y0121920D01*
X0165808Y0121320D01*
X0166408Y0121320D01*
X0166408Y0118351D01*
X0166408Y0118996D02*
X0165808Y0118996D01*
X0165808Y0119595D02*
X0166408Y0119595D01*
X0166408Y0120193D02*
X0165808Y0120193D01*
X0165808Y0120792D02*
X0166408Y0120792D01*
X0166408Y0121390D02*
X0200974Y0121390D01*
X0200974Y0120792D02*
X0169573Y0120792D01*
X0169573Y0120193D02*
X0200974Y0120193D01*
X0200974Y0119595D02*
X0169573Y0119595D01*
X0169396Y0118996D02*
X0200974Y0118996D01*
X0200974Y0118398D02*
X0168618Y0118398D01*
X0169573Y0121920D02*
X0166408Y0121920D01*
X0166408Y0124888D01*
X0168445Y0124888D01*
X0168775Y0124800D01*
X0169072Y0124629D01*
X0169314Y0124387D01*
X0169485Y0124090D01*
X0169573Y0123760D01*
X0169573Y0121920D01*
X0169573Y0121989D02*
X0200974Y0121989D01*
X0200974Y0122587D02*
X0175683Y0122587D01*
X0176282Y0123186D02*
X0200974Y0123186D01*
X0200974Y0123784D02*
X0176762Y0123784D01*
X0176762Y0124383D02*
X0200974Y0124383D01*
X0200974Y0124981D02*
X0176762Y0124981D01*
X0176661Y0125580D02*
X0200974Y0125580D01*
X0200974Y0126178D02*
X0176063Y0126178D01*
X0176575Y0126777D02*
X0179913Y0126777D01*
X0179960Y0126696D02*
X0180202Y0126454D01*
X0180498Y0126282D01*
X0180829Y0126194D01*
X0181950Y0126194D01*
X0181950Y0129194D01*
X0182550Y0129194D01*
X0182550Y0129794D01*
X0184800Y0129794D01*
X0184800Y0131665D01*
X0184711Y0131996D01*
X0184540Y0132292D01*
X0184298Y0132534D01*
X0184002Y0132705D01*
X0183671Y0132794D01*
X0182550Y0132794D01*
X0182550Y0129794D01*
X0181950Y0129794D01*
X0181950Y0132794D01*
X0180829Y0132794D01*
X0180498Y0132705D01*
X0180202Y0132534D01*
X0179960Y0132292D01*
X0179788Y0131996D01*
X0179700Y0131665D01*
X0179700Y0129794D01*
X0181950Y0129794D01*
X0181950Y0129194D01*
X0179700Y0129194D01*
X0179700Y0127323D01*
X0179788Y0126992D01*
X0179960Y0126696D01*
X0179700Y0127375D02*
X0176919Y0127375D01*
X0176919Y0127974D02*
X0179700Y0127974D01*
X0179700Y0128572D02*
X0176919Y0128572D01*
X0176919Y0129171D02*
X0179700Y0129171D01*
X0179700Y0130368D02*
X0176919Y0130368D01*
X0176919Y0129770D02*
X0181950Y0129770D01*
X0181950Y0130368D02*
X0182550Y0130368D01*
X0182550Y0129770D02*
X0200974Y0129770D01*
X0200974Y0130368D02*
X0184800Y0130368D01*
X0184800Y0130967D02*
X0200974Y0130967D01*
X0200974Y0131565D02*
X0184800Y0131565D01*
X0184614Y0132164D02*
X0200974Y0132164D01*
X0200974Y0132709D02*
X0200974Y0116966D01*
X0198001Y0116966D01*
X0197474Y0116439D01*
X0197474Y0113494D01*
X0198001Y0112966D01*
X0207347Y0112966D01*
X0207874Y0113494D01*
X0207874Y0116439D01*
X0207347Y0116966D01*
X0204374Y0116966D01*
X0204374Y0131301D01*
X0208741Y0135668D01*
X0224588Y0135668D01*
X0224588Y0134995D01*
X0225115Y0134468D01*
X0228361Y0134468D01*
X0228888Y0134995D01*
X0228888Y0139741D01*
X0228361Y0140268D01*
X0225115Y0140268D01*
X0224588Y0139741D01*
X0224588Y0139068D01*
X0207333Y0139068D01*
X0200974Y0132709D01*
X0201027Y0132762D02*
X0183790Y0132762D01*
X0182550Y0132762D02*
X0181950Y0132762D01*
X0181950Y0132164D02*
X0182550Y0132164D01*
X0182550Y0131565D02*
X0181950Y0131565D01*
X0181950Y0130967D02*
X0182550Y0130967D01*
X0182550Y0129194D02*
X0184800Y0129194D01*
X0184800Y0127323D01*
X0184711Y0126992D01*
X0184540Y0126696D01*
X0184298Y0126454D01*
X0184002Y0126282D01*
X0183671Y0126194D01*
X0182550Y0126194D01*
X0182550Y0129194D01*
X0182550Y0129171D02*
X0181950Y0129171D01*
X0181950Y0128572D02*
X0182550Y0128572D01*
X0182550Y0127974D02*
X0181950Y0127974D01*
X0181950Y0127375D02*
X0182550Y0127375D01*
X0182550Y0126777D02*
X0181950Y0126777D01*
X0184587Y0126777D02*
X0200974Y0126777D01*
X0200974Y0127375D02*
X0184800Y0127375D01*
X0184800Y0127974D02*
X0200974Y0127974D01*
X0200974Y0128572D02*
X0184800Y0128572D01*
X0184800Y0129171D02*
X0200974Y0129171D01*
X0204374Y0129171D02*
X0220848Y0129171D01*
X0220848Y0129770D02*
X0204374Y0129770D01*
X0204374Y0130368D02*
X0220848Y0130368D01*
X0220848Y0130967D02*
X0204374Y0130967D01*
X0204638Y0131565D02*
X0220848Y0131565D01*
X0220848Y0131867D02*
X0220848Y0127684D01*
X0220612Y0127448D01*
X0220612Y0125634D01*
X0221894Y0124352D01*
X0223708Y0124352D01*
X0224990Y0125634D01*
X0224990Y0126963D01*
X0225148Y0127121D01*
X0225148Y0131867D01*
X0224621Y0132394D01*
X0221375Y0132394D01*
X0220848Y0131867D01*
X0221145Y0132164D02*
X0205237Y0132164D01*
X0205836Y0132762D02*
X0228938Y0132762D01*
X0229057Y0132794D02*
X0228726Y0132705D01*
X0228430Y0132534D01*
X0228188Y0132292D01*
X0228017Y0131996D01*
X0227928Y0131665D01*
X0227928Y0129794D01*
X0230178Y0129794D01*
X0230178Y0129194D01*
X0227928Y0129194D01*
X0227928Y0127323D01*
X0228017Y0126992D01*
X0228188Y0126696D01*
X0228430Y0126454D01*
X0228726Y0126282D01*
X0229057Y0126194D01*
X0230178Y0126194D01*
X0230178Y0129194D01*
X0230778Y0129194D01*
X0230778Y0126194D01*
X0231899Y0126194D01*
X0232230Y0126282D01*
X0232526Y0126454D01*
X0232768Y0126696D01*
X0232940Y0126992D01*
X0233028Y0127323D01*
X0233028Y0129194D01*
X0230778Y0129194D01*
X0230778Y0129794D01*
X0230178Y0129794D01*
X0230178Y0132794D01*
X0229057Y0132794D01*
X0230178Y0132762D02*
X0230778Y0132762D01*
X0230778Y0132794D02*
X0231899Y0132794D01*
X0232230Y0132705D01*
X0232526Y0132534D01*
X0232768Y0132292D01*
X0232940Y0131996D01*
X0233028Y0131665D01*
X0233028Y0129794D01*
X0230778Y0129794D01*
X0230778Y0132794D01*
X0230778Y0132164D02*
X0230178Y0132164D01*
X0230178Y0131565D02*
X0230778Y0131565D01*
X0230778Y0130967D02*
X0230178Y0130967D01*
X0230178Y0130368D02*
X0230778Y0130368D01*
X0230778Y0129770D02*
X0238233Y0129770D01*
X0238233Y0130368D02*
X0233028Y0130368D01*
X0233028Y0130967D02*
X0238233Y0130967D01*
X0238233Y0131565D02*
X0233028Y0131565D01*
X0232843Y0132164D02*
X0238233Y0132164D01*
X0238233Y0132762D02*
X0232018Y0132762D01*
X0230178Y0129770D02*
X0225148Y0129770D01*
X0225148Y0130368D02*
X0227928Y0130368D01*
X0227928Y0130967D02*
X0225148Y0130967D01*
X0225148Y0131565D02*
X0227928Y0131565D01*
X0228114Y0132164D02*
X0224851Y0132164D01*
X0225026Y0134558D02*
X0207631Y0134558D01*
X0208230Y0135156D02*
X0224588Y0135156D01*
X0228450Y0134558D02*
X0238233Y0134558D01*
X0238233Y0135156D02*
X0228888Y0135156D01*
X0228888Y0135755D02*
X0238233Y0135755D01*
X0238233Y0136353D02*
X0228888Y0136353D01*
X0228888Y0136952D02*
X0238233Y0136952D01*
X0238233Y0137550D02*
X0228888Y0137550D01*
X0228888Y0138149D02*
X0238233Y0138149D01*
X0238233Y0138747D02*
X0228888Y0138747D01*
X0228888Y0139346D02*
X0238233Y0139346D01*
X0238233Y0139944D02*
X0228684Y0139944D01*
X0224791Y0139944D02*
X0180456Y0139944D01*
X0180660Y0139346D02*
X0224588Y0139346D01*
X0225148Y0129171D02*
X0227928Y0129171D01*
X0227928Y0128572D02*
X0225148Y0128572D01*
X0225148Y0127974D02*
X0227928Y0127974D01*
X0227928Y0127375D02*
X0225148Y0127375D01*
X0224990Y0126777D02*
X0228141Y0126777D01*
X0230178Y0126777D02*
X0230778Y0126777D01*
X0230778Y0127375D02*
X0230178Y0127375D01*
X0230178Y0127974D02*
X0230778Y0127974D01*
X0230778Y0128572D02*
X0230178Y0128572D01*
X0230178Y0129171D02*
X0230778Y0129171D01*
X0233028Y0129171D02*
X0238233Y0129171D01*
X0238233Y0128572D02*
X0233028Y0128572D01*
X0233028Y0127974D02*
X0238233Y0127974D01*
X0238233Y0127375D02*
X0233028Y0127375D01*
X0232815Y0126777D02*
X0238233Y0126777D01*
X0238233Y0126178D02*
X0224990Y0126178D01*
X0224935Y0125580D02*
X0238233Y0125580D01*
X0238233Y0124981D02*
X0224337Y0124981D01*
X0223738Y0124383D02*
X0238233Y0124383D01*
X0238233Y0123784D02*
X0218779Y0123784D01*
X0218786Y0123760D02*
X0218697Y0124090D01*
X0218526Y0124387D01*
X0218284Y0124629D01*
X0217988Y0124800D01*
X0217657Y0124888D01*
X0215621Y0124888D01*
X0215621Y0121920D01*
X0218786Y0121920D01*
X0218786Y0123760D01*
X0218786Y0123186D02*
X0238233Y0123186D01*
X0238233Y0122587D02*
X0218786Y0122587D01*
X0218786Y0121989D02*
X0238233Y0121989D01*
X0238233Y0121390D02*
X0215621Y0121390D01*
X0215621Y0121320D02*
X0215621Y0121920D01*
X0215021Y0121920D01*
X0215021Y0124888D01*
X0212984Y0124888D01*
X0212654Y0124800D01*
X0212357Y0124629D01*
X0212115Y0124387D01*
X0211944Y0124090D01*
X0211855Y0123760D01*
X0211855Y0121920D01*
X0215021Y0121920D01*
X0215021Y0121320D01*
X0215621Y0121320D01*
X0218786Y0121320D01*
X0218786Y0119480D01*
X0218697Y0119150D01*
X0218526Y0118853D01*
X0218284Y0118611D01*
X0217988Y0118440D01*
X0217657Y0118351D01*
X0215621Y0118351D01*
X0215621Y0121320D01*
X0215621Y0120792D02*
X0215021Y0120792D01*
X0215021Y0121320D02*
X0215021Y0118351D01*
X0212984Y0118351D01*
X0212654Y0118440D01*
X0212357Y0118611D01*
X0212115Y0118853D01*
X0211944Y0119150D01*
X0211855Y0119480D01*
X0211855Y0121320D01*
X0215021Y0121320D01*
X0215021Y0121390D02*
X0211693Y0121390D01*
X0211693Y0120792D02*
X0211855Y0120792D01*
X0211855Y0120193D02*
X0211693Y0120193D01*
X0211693Y0119595D02*
X0211855Y0119595D01*
X0212032Y0118996D02*
X0211411Y0118996D01*
X0210286Y0118398D02*
X0212811Y0118398D01*
X0211406Y0117201D02*
X0238233Y0117201D01*
X0238233Y0117799D02*
X0210885Y0117799D01*
X0211406Y0116602D02*
X0216237Y0116602D01*
X0216074Y0116004D02*
X0211406Y0116004D01*
X0211406Y0115405D02*
X0216074Y0115405D01*
X0216074Y0114807D02*
X0211406Y0114807D01*
X0211406Y0114208D02*
X0216074Y0114208D01*
X0216074Y0113610D02*
X0211406Y0113610D01*
X0208606Y0113610D02*
X0207874Y0113610D01*
X0207874Y0114208D02*
X0208606Y0114208D01*
X0208606Y0114807D02*
X0207874Y0114807D01*
X0207874Y0115405D02*
X0208606Y0115405D01*
X0208606Y0116004D02*
X0207874Y0116004D01*
X0207711Y0116602D02*
X0208122Y0116602D01*
X0207524Y0117201D02*
X0204374Y0117201D01*
X0204374Y0117799D02*
X0207228Y0117799D01*
X0207228Y0118398D02*
X0204374Y0118398D01*
X0204374Y0118996D02*
X0205845Y0118996D01*
X0205562Y0119595D02*
X0204374Y0119595D01*
X0204374Y0120193D02*
X0205562Y0120193D01*
X0205562Y0120792D02*
X0204374Y0120792D01*
X0204374Y0121390D02*
X0205562Y0121390D01*
X0205562Y0121989D02*
X0204374Y0121989D01*
X0204374Y0122587D02*
X0205562Y0122587D01*
X0205562Y0123186D02*
X0204374Y0123186D01*
X0204374Y0123784D02*
X0205562Y0123784D01*
X0205984Y0124383D02*
X0204374Y0124383D01*
X0204374Y0124981D02*
X0221265Y0124981D01*
X0221864Y0124383D02*
X0218528Y0124383D01*
X0220667Y0125580D02*
X0204374Y0125580D01*
X0204374Y0126178D02*
X0220612Y0126178D01*
X0220612Y0126777D02*
X0204374Y0126777D01*
X0204374Y0127375D02*
X0220612Y0127375D01*
X0220848Y0127974D02*
X0204374Y0127974D01*
X0204374Y0128572D02*
X0220848Y0128572D01*
X0215621Y0124383D02*
X0215021Y0124383D01*
X0215021Y0123784D02*
X0215621Y0123784D01*
X0215621Y0123186D02*
X0215021Y0123186D01*
X0215021Y0122587D02*
X0215621Y0122587D01*
X0215621Y0121989D02*
X0215021Y0121989D01*
X0215021Y0120193D02*
X0215621Y0120193D01*
X0215621Y0119595D02*
X0215021Y0119595D01*
X0215021Y0118996D02*
X0215621Y0118996D01*
X0215621Y0118398D02*
X0215021Y0118398D01*
X0217830Y0118398D02*
X0238233Y0118398D01*
X0238233Y0118996D02*
X0218609Y0118996D01*
X0218786Y0119595D02*
X0238233Y0119595D01*
X0238233Y0120193D02*
X0218786Y0120193D01*
X0218786Y0120792D02*
X0238233Y0120792D01*
X0238233Y0107026D02*
X0211406Y0107026D01*
X0211406Y0106428D02*
X0216074Y0106428D01*
X0216074Y0105829D02*
X0211406Y0105829D01*
X0211406Y0105231D02*
X0216074Y0105231D01*
X0216074Y0104632D02*
X0211406Y0104632D01*
X0211406Y0104034D02*
X0216074Y0104034D01*
X0216133Y0103435D02*
X0211406Y0103435D01*
X0208606Y0103435D02*
X0207816Y0103435D01*
X0207874Y0103494D02*
X0207347Y0102966D01*
X0198001Y0102966D01*
X0197474Y0103494D01*
X0197474Y0106439D01*
X0198001Y0106966D01*
X0207347Y0106966D01*
X0207874Y0106439D01*
X0207874Y0103494D01*
X0207874Y0104034D02*
X0208606Y0104034D01*
X0208606Y0104632D02*
X0207874Y0104632D01*
X0207874Y0105231D02*
X0208606Y0105231D01*
X0208606Y0105829D02*
X0207874Y0105829D01*
X0207874Y0106428D02*
X0208606Y0106428D01*
X0208606Y0107026D02*
X0165146Y0107026D01*
X0165146Y0107625D02*
X0208606Y0107625D01*
X0208606Y0108223D02*
X0207604Y0108223D01*
X0207874Y0108822D02*
X0208606Y0108822D01*
X0208606Y0109420D02*
X0207874Y0109420D01*
X0207874Y0110019D02*
X0208606Y0110019D01*
X0208606Y0110617D02*
X0207874Y0110617D01*
X0207874Y0111216D02*
X0208606Y0111216D01*
X0208606Y0111814D02*
X0207499Y0111814D01*
X0207392Y0113011D02*
X0208606Y0113011D01*
X0208606Y0112413D02*
X0195689Y0112413D01*
X0195689Y0113011D02*
X0197957Y0113011D01*
X0197474Y0113610D02*
X0195689Y0113610D01*
X0195689Y0114208D02*
X0197474Y0114208D01*
X0197474Y0114807D02*
X0195689Y0114807D01*
X0195689Y0115405D02*
X0197474Y0115405D01*
X0197474Y0116004D02*
X0195689Y0116004D01*
X0195689Y0116602D02*
X0197637Y0116602D01*
X0195457Y0117201D02*
X0200974Y0117201D01*
X0200974Y0117799D02*
X0188379Y0117799D01*
X0188977Y0117201D02*
X0189121Y0117201D01*
X0185179Y0116602D02*
X0175130Y0116602D01*
X0175293Y0116004D02*
X0185179Y0116004D01*
X0185179Y0115405D02*
X0175293Y0115405D01*
X0175293Y0114807D02*
X0185180Y0114807D01*
X0185778Y0114208D02*
X0175293Y0114208D01*
X0175293Y0113610D02*
X0186377Y0113610D01*
X0188359Y0113610D02*
X0188889Y0113610D01*
X0188889Y0113011D02*
X0174811Y0113011D01*
X0174918Y0111814D02*
X0188889Y0111814D01*
X0188889Y0111216D02*
X0175293Y0111216D01*
X0175293Y0110617D02*
X0188889Y0110617D01*
X0189394Y0110019D02*
X0175293Y0110019D01*
X0175293Y0109420D02*
X0192611Y0109420D01*
X0193209Y0108822D02*
X0175293Y0108822D01*
X0175023Y0108223D02*
X0197745Y0108223D01*
X0197474Y0106428D02*
X0175293Y0106428D01*
X0175293Y0105829D02*
X0197474Y0105829D01*
X0197474Y0105231D02*
X0175293Y0105231D01*
X0175293Y0104632D02*
X0197474Y0104632D01*
X0197474Y0104034D02*
X0175293Y0104034D01*
X0175235Y0103435D02*
X0197533Y0103435D01*
X0197293Y0098048D02*
X0197919Y0098048D01*
X0197423Y0097450D02*
X0208574Y0097450D01*
X0208606Y0096851D02*
X0207462Y0096851D01*
X0207874Y0096253D02*
X0208606Y0096253D01*
X0208606Y0095654D02*
X0207874Y0095654D01*
X0207874Y0095056D02*
X0208606Y0095056D01*
X0208606Y0094457D02*
X0207874Y0094457D01*
X0207874Y0093859D02*
X0208606Y0093859D01*
X0208606Y0093260D02*
X0207641Y0093260D01*
X0208606Y0092662D02*
X0197423Y0092662D01*
X0197423Y0093260D02*
X0197707Y0093260D01*
X0197886Y0096851D02*
X0197423Y0096851D01*
X0189123Y0093260D02*
X0188768Y0093260D01*
X0188768Y0092662D02*
X0189123Y0092662D01*
X0189232Y0092063D02*
X0188768Y0092063D01*
X0180805Y0094457D02*
X0180152Y0094457D01*
X0176805Y0094457D02*
X0175693Y0094457D01*
X0175693Y0093859D02*
X0176328Y0093859D01*
X0176328Y0093260D02*
X0175544Y0093260D01*
X0174907Y0092662D02*
X0176328Y0092662D01*
X0175516Y0092063D02*
X0165146Y0092063D01*
X0165146Y0092662D02*
X0165279Y0092662D01*
X0162346Y0092662D02*
X0146242Y0092662D01*
X0146242Y0093260D02*
X0146526Y0093260D01*
X0144792Y0090866D02*
X0131597Y0090866D01*
X0131597Y0090268D02*
X0130997Y0090268D01*
X0130997Y0089669D02*
X0131597Y0089669D01*
X0131597Y0089071D02*
X0130997Y0089071D01*
X0130997Y0088472D02*
X0131597Y0088472D01*
X0131597Y0087874D02*
X0130997Y0087874D01*
X0130997Y0087275D02*
X0131597Y0087275D01*
X0131597Y0086677D02*
X0130997Y0086677D01*
X0130997Y0086078D02*
X0131597Y0086078D01*
X0131597Y0085480D02*
X0139405Y0085480D01*
X0140004Y0086078D02*
X0133847Y0086078D01*
X0133847Y0086677D02*
X0140602Y0086677D01*
X0141201Y0087275D02*
X0133847Y0087275D01*
X0133847Y0087874D02*
X0133772Y0088155D01*
X0133847Y0088437D01*
X0133847Y0089071D02*
X0141881Y0089071D01*
X0142479Y0089669D02*
X0133847Y0089669D01*
X0133847Y0090268D02*
X0143078Y0090268D01*
X0138807Y0084881D02*
X0133847Y0084881D01*
X0133847Y0084283D02*
X0138208Y0084283D01*
X0137610Y0083684D02*
X0133847Y0083684D01*
X0133847Y0083086D02*
X0137011Y0083086D01*
X0136413Y0082487D02*
X0133835Y0082487D01*
X0133572Y0081889D02*
X0135814Y0081889D01*
X0129023Y0081889D02*
X0129006Y0081889D01*
X0125147Y0083086D02*
X0123704Y0083086D01*
X0123874Y0086677D02*
X0125147Y0086677D01*
X0130997Y0091465D02*
X0131597Y0091465D01*
X0131597Y0092063D02*
X0130997Y0092063D01*
X0130997Y0092662D02*
X0131597Y0092662D01*
X0131597Y0093260D02*
X0130997Y0093260D01*
X0130997Y0093859D02*
X0131597Y0093859D01*
X0131597Y0094457D02*
X0130997Y0094457D01*
X0129058Y0094457D02*
X0128971Y0094457D01*
X0123783Y0102238D02*
X0157016Y0102238D01*
X0156636Y0101639D02*
X0156493Y0101639D01*
X0157615Y0102836D02*
X0107112Y0102836D01*
X0107112Y0103435D02*
X0113771Y0103435D01*
X0113712Y0104034D02*
X0107112Y0104034D01*
X0107112Y0104632D02*
X0113712Y0104632D01*
X0113712Y0105231D02*
X0107112Y0105231D01*
X0107112Y0105829D02*
X0113712Y0105829D01*
X0113712Y0106428D02*
X0107112Y0106428D01*
X0107112Y0107026D02*
X0157915Y0107026D01*
X0157915Y0106428D02*
X0156693Y0106428D01*
X0156693Y0105829D02*
X0157915Y0105829D01*
X0157915Y0105231D02*
X0156693Y0105231D01*
X0156693Y0104632D02*
X0157915Y0104632D01*
X0157915Y0104034D02*
X0156693Y0104034D01*
X0156635Y0103435D02*
X0157915Y0103435D01*
X0161014Y0101639D02*
X0162346Y0101639D01*
X0162346Y0101041D02*
X0161014Y0101041D01*
X0161014Y0100442D02*
X0162346Y0100442D01*
X0162346Y0099844D02*
X0160814Y0099844D01*
X0160215Y0099245D02*
X0162346Y0099245D01*
X0162346Y0098647D02*
X0158642Y0098647D01*
X0156248Y0098048D02*
X0162346Y0098048D01*
X0162346Y0097450D02*
X0146242Y0097450D01*
X0146242Y0096851D02*
X0146705Y0096851D01*
X0146738Y0098048D02*
X0146223Y0098048D01*
X0156281Y0096851D02*
X0162346Y0096851D01*
X0162346Y0096253D02*
X0156693Y0096253D01*
X0156693Y0095654D02*
X0162346Y0095654D01*
X0162346Y0095056D02*
X0156693Y0095056D01*
X0156693Y0094457D02*
X0162346Y0094457D01*
X0162346Y0093859D02*
X0156693Y0093859D01*
X0156460Y0093260D02*
X0162346Y0093260D01*
X0165146Y0097450D02*
X0181015Y0097450D01*
X0170343Y0094457D02*
X0169843Y0094457D01*
X0169843Y0093859D02*
X0170343Y0093859D01*
X0170343Y0093260D02*
X0169843Y0093260D01*
X0169843Y0092662D02*
X0170343Y0092662D01*
X0169608Y0076502D02*
X0113785Y0076502D01*
X0118662Y0092662D02*
X0119162Y0092662D01*
X0119162Y0093260D02*
X0118662Y0093260D01*
X0118662Y0093859D02*
X0119162Y0093859D01*
X0119162Y0094457D02*
X0118662Y0094457D01*
X0118662Y0096253D02*
X0119162Y0096253D01*
X0119162Y0096851D02*
X0118662Y0096851D01*
X0118662Y0098048D02*
X0119162Y0098048D01*
X0119162Y0098647D02*
X0118662Y0098647D01*
X0118662Y0099245D02*
X0119162Y0099245D01*
X0119162Y0101041D02*
X0118662Y0101041D01*
X0118662Y0101639D02*
X0119162Y0101639D01*
X0119162Y0102238D02*
X0118662Y0102238D01*
X0114041Y0102238D02*
X0107075Y0102238D01*
X0107075Y0101639D02*
X0108189Y0101639D01*
X0111035Y0101639D02*
X0113442Y0101639D01*
X0113312Y0101041D02*
X0111633Y0101041D01*
X0111801Y0100442D02*
X0113312Y0100442D01*
X0108434Y0098048D02*
X0105067Y0098048D01*
X0105512Y0098647D02*
X0105999Y0098647D01*
X0095345Y0093260D02*
X0093093Y0093260D01*
X0071132Y0110019D02*
X0070532Y0110019D01*
X0070532Y0110617D02*
X0071132Y0110617D01*
X0071132Y0111216D02*
X0070532Y0111216D01*
X0070532Y0111814D02*
X0071132Y0111814D01*
X0071132Y0112413D02*
X0070532Y0112413D01*
X0070532Y0113011D02*
X0071132Y0113011D01*
X0071132Y0113610D02*
X0070532Y0113610D01*
X0091595Y0127974D02*
X0092195Y0127974D01*
X0092195Y0128572D02*
X0091595Y0128572D01*
X0091595Y0129171D02*
X0092195Y0129171D01*
X0092195Y0129770D02*
X0091595Y0129770D01*
X0092196Y0127375D02*
X0153318Y0127375D01*
X0152719Y0126777D02*
X0095695Y0126777D01*
X0095695Y0126178D02*
X0152121Y0126178D01*
X0151522Y0125580D02*
X0095477Y0125580D01*
X0069535Y0144134D02*
X0068005Y0144134D01*
X0068005Y0144732D02*
X0069605Y0144732D01*
X0069605Y0145331D02*
X0068005Y0145331D01*
X0068005Y0145929D02*
X0069605Y0145929D01*
X0069605Y0146528D02*
X0068005Y0146528D01*
X0067730Y0147126D02*
X0069605Y0147126D01*
X0068788Y0147725D02*
X0067132Y0147725D01*
X0066533Y0148323D02*
X0068189Y0148323D01*
X0067681Y0148922D02*
X0065935Y0148922D01*
X0065336Y0149520D02*
X0067433Y0149520D01*
X0067185Y0150119D02*
X0065425Y0150119D01*
X0065505Y0150717D02*
X0067105Y0150717D01*
X0067105Y0151316D02*
X0065505Y0151316D01*
X0065505Y0151914D02*
X0067105Y0151914D01*
X0067324Y0152513D02*
X0065285Y0152513D01*
X0065037Y0153111D02*
X0067572Y0153111D01*
X0067928Y0153710D02*
X0064682Y0153710D01*
X0064084Y0154308D02*
X0068526Y0154308D01*
X0069406Y0154907D02*
X0063204Y0154907D01*
X0063074Y0144134D02*
X0064605Y0144134D01*
X0064605Y0143535D02*
X0064030Y0143535D01*
X0068005Y0143535D02*
X0068580Y0143535D01*
X0036555Y0166865D02*
X0037290Y0169848D01*
X0036555Y0172831D01*
X0036555Y0172831D01*
X0034518Y0175131D01*
X0031646Y0176220D01*
X0031646Y0176220D01*
X0028596Y0175850D01*
X0028596Y0175850D01*
X0026067Y0174105D01*
X0026067Y0174105D01*
X0024640Y0171384D01*
X0024640Y0168312D01*
X0026067Y0165592D01*
X0026067Y0165592D01*
X0026067Y0165592D01*
X0028596Y0163847D01*
X0031646Y0163476D01*
X0034518Y0164566D01*
X0036555Y0166865D01*
X0036555Y0166865D01*
X0036558Y0166877D02*
X0226180Y0166877D01*
X0226494Y0166279D02*
X0036035Y0166279D01*
X0035505Y0165680D02*
X0226809Y0165680D01*
X0226855Y0165592D02*
X0226855Y0165592D01*
X0229383Y0163847D01*
X0229383Y0163847D01*
X0232433Y0163476D01*
X0235305Y0164566D01*
X0235305Y0164566D01*
X0237343Y0166865D01*
X0237343Y0166865D01*
X0238078Y0169848D01*
X0237343Y0172831D01*
X0237343Y0172831D01*
X0235305Y0175131D01*
X0232433Y0176220D01*
X0232433Y0176220D01*
X0229383Y0175850D01*
X0226855Y0174105D01*
X0226855Y0174105D01*
X0226855Y0174105D01*
X0225427Y0171384D01*
X0225427Y0168312D01*
X0226855Y0165592D01*
X0226855Y0165592D01*
X0227594Y0165082D02*
X0034975Y0165082D01*
X0034518Y0164566D02*
X0034518Y0164566D01*
X0034300Y0164483D02*
X0228461Y0164483D01*
X0229328Y0163885D02*
X0032722Y0163885D01*
X0028596Y0163847D02*
X0028596Y0163847D01*
X0028541Y0163885D02*
X0024298Y0163885D01*
X0024298Y0164483D02*
X0027674Y0164483D01*
X0026807Y0165082D02*
X0024298Y0165082D01*
X0024298Y0165680D02*
X0026021Y0165680D01*
X0025707Y0166279D02*
X0024298Y0166279D01*
X0024298Y0166877D02*
X0025393Y0166877D01*
X0025079Y0167476D02*
X0024298Y0167476D01*
X0024298Y0168074D02*
X0024765Y0168074D01*
X0024640Y0168673D02*
X0024298Y0168673D01*
X0024298Y0169271D02*
X0024640Y0169271D01*
X0024640Y0169870D02*
X0024300Y0169870D01*
X0024347Y0170468D02*
X0024640Y0170468D01*
X0024640Y0171067D02*
X0024441Y0171067D01*
X0024636Y0171665D02*
X0024787Y0171665D01*
X0024830Y0172264D02*
X0025101Y0172264D01*
X0025036Y0172862D02*
X0025416Y0172862D01*
X0025471Y0173461D02*
X0025730Y0173461D01*
X0025906Y0174059D02*
X0026044Y0174059D01*
X0026446Y0174658D02*
X0026869Y0174658D01*
X0027270Y0175256D02*
X0027736Y0175256D01*
X0028348Y0175855D02*
X0028638Y0175855D01*
X0032608Y0175855D02*
X0229426Y0175855D01*
X0229383Y0175850D02*
X0229383Y0175850D01*
X0228524Y0175256D02*
X0034186Y0175256D01*
X0034518Y0175131D02*
X0034518Y0175131D01*
X0034937Y0174658D02*
X0227656Y0174658D01*
X0226831Y0174059D02*
X0035467Y0174059D01*
X0035997Y0173461D02*
X0226517Y0173461D01*
X0226203Y0172862D02*
X0036528Y0172862D01*
X0036695Y0172264D02*
X0225889Y0172264D01*
X0225575Y0171665D02*
X0036843Y0171665D01*
X0036990Y0171067D02*
X0225427Y0171067D01*
X0225427Y0170468D02*
X0037138Y0170468D01*
X0037285Y0169870D02*
X0225427Y0169870D01*
X0225427Y0169271D02*
X0037148Y0169271D01*
X0037001Y0168673D02*
X0225427Y0168673D01*
X0225552Y0168074D02*
X0036853Y0168074D01*
X0036706Y0167476D02*
X0225866Y0167476D01*
X0232433Y0163476D02*
X0232433Y0163476D01*
X0233509Y0163885D02*
X0238233Y0163885D01*
X0238233Y0164483D02*
X0235087Y0164483D01*
X0235762Y0165082D02*
X0238233Y0165082D01*
X0238233Y0165680D02*
X0236293Y0165680D01*
X0236823Y0166279D02*
X0238233Y0166279D01*
X0238233Y0166877D02*
X0237346Y0166877D01*
X0237493Y0167476D02*
X0238233Y0167476D01*
X0238233Y0168074D02*
X0237641Y0168074D01*
X0237788Y0168673D02*
X0238233Y0168673D01*
X0238233Y0169271D02*
X0237936Y0169271D01*
X0238078Y0169848D02*
X0238078Y0169848D01*
X0238073Y0169870D02*
X0238231Y0169870D01*
X0238184Y0170468D02*
X0237925Y0170468D01*
X0237777Y0171067D02*
X0238090Y0171067D01*
X0237896Y0171665D02*
X0237630Y0171665D01*
X0237701Y0172264D02*
X0237482Y0172264D01*
X0237495Y0172862D02*
X0237315Y0172862D01*
X0237060Y0173461D02*
X0236785Y0173461D01*
X0236625Y0174059D02*
X0236254Y0174059D01*
X0236085Y0174658D02*
X0235724Y0174658D01*
X0235305Y0175131D02*
X0235305Y0175131D01*
X0235261Y0175256D02*
X0234974Y0175256D01*
X0234183Y0175855D02*
X0233396Y0175855D01*
X0238233Y0163286D02*
X0024298Y0163286D01*
X0024298Y0162688D02*
X0238233Y0162688D01*
X0238233Y0162089D02*
X0024298Y0162089D01*
X0024298Y0161491D02*
X0238233Y0161491D01*
X0238233Y0160892D02*
X0024298Y0160892D01*
X0024298Y0160294D02*
X0238233Y0160294D01*
X0238233Y0159695D02*
X0024298Y0159695D01*
X0024298Y0159097D02*
X0238233Y0159097D01*
X0238233Y0158498D02*
X0024298Y0158498D01*
X0024298Y0157900D02*
X0238233Y0157900D01*
X0238233Y0157301D02*
X0024298Y0157301D01*
X0024298Y0156703D02*
X0238233Y0156703D01*
X0238233Y0156104D02*
X0024298Y0156104D01*
X0123949Y0116602D02*
X0124155Y0116602D01*
X0124155Y0116004D02*
X0124112Y0116004D01*
X0124112Y0115405D02*
X0124155Y0115405D01*
X0124156Y0114807D02*
X0124112Y0114807D01*
X0124112Y0114208D02*
X0124755Y0114208D01*
X0125353Y0113610D02*
X0124112Y0113610D01*
X0127335Y0113610D02*
X0130818Y0113610D01*
X0137114Y0110019D02*
X0137510Y0110019D01*
X0140523Y0111814D02*
X0146668Y0111814D01*
X0162198Y0118996D02*
X0162820Y0118996D01*
X0162643Y0119595D02*
X0162480Y0119595D01*
X0162480Y0120193D02*
X0162643Y0120193D01*
X0162643Y0120792D02*
X0162480Y0120792D01*
X0162480Y0121390D02*
X0165808Y0121390D01*
X0165808Y0121989D02*
X0166408Y0121989D01*
X0166408Y0122587D02*
X0165808Y0122587D01*
X0165808Y0123186D02*
X0166408Y0123186D01*
X0166408Y0123784D02*
X0165808Y0123784D01*
X0165808Y0124383D02*
X0166408Y0124383D01*
X0169316Y0124383D02*
X0172384Y0124383D01*
X0172384Y0123784D02*
X0169567Y0123784D01*
X0169573Y0123186D02*
X0172864Y0123186D01*
X0173462Y0122587D02*
X0169573Y0122587D01*
X0173083Y0126178D02*
X0162835Y0126178D01*
X0163433Y0126777D02*
X0172964Y0126777D01*
X0172619Y0127375D02*
X0164032Y0127375D01*
X0164630Y0127974D02*
X0172619Y0127974D01*
X0172619Y0128572D02*
X0165229Y0128572D01*
X0165446Y0129171D02*
X0172619Y0129171D01*
X0172619Y0129770D02*
X0165446Y0129770D01*
X0165446Y0130368D02*
X0172619Y0130368D01*
X0172619Y0130967D02*
X0165446Y0130967D01*
X0165446Y0131565D02*
X0172619Y0131565D01*
X0172916Y0132164D02*
X0165446Y0132164D01*
X0165446Y0132762D02*
X0180710Y0132762D01*
X0179885Y0132164D02*
X0176623Y0132164D01*
X0176919Y0131565D02*
X0179700Y0131565D01*
X0179700Y0130967D02*
X0176919Y0130967D01*
X0176797Y0134558D02*
X0166292Y0134558D01*
X0165694Y0133959D02*
X0202224Y0133959D01*
X0201626Y0133361D02*
X0165446Y0133361D01*
X0162900Y0124383D02*
X0162059Y0124383D01*
X0162480Y0123784D02*
X0162649Y0123784D01*
X0162643Y0123186D02*
X0162480Y0123186D01*
X0162480Y0122587D02*
X0162643Y0122587D01*
X0162643Y0121989D02*
X0162480Y0121989D01*
X0165146Y0113011D02*
X0165375Y0113011D01*
X0165146Y0112413D02*
X0188889Y0112413D01*
X0195689Y0111814D02*
X0197849Y0111814D01*
X0207674Y0101639D02*
X0207730Y0101639D01*
X0210738Y0099245D02*
X0215674Y0099245D01*
X0215687Y0098647D02*
X0211337Y0098647D01*
X0207975Y0098048D02*
X0207429Y0098048D01*
X0197882Y0083086D02*
X0194121Y0083086D01*
X0188132Y0076502D02*
X0187537Y0076502D01*
X0186938Y0075903D02*
X0188650Y0075903D01*
X0189249Y0075305D02*
X0186472Y0075305D01*
X0185873Y0074706D02*
X0191113Y0074706D01*
X0191712Y0074108D02*
X0181799Y0074108D01*
X0181799Y0073509D02*
X0192310Y0073509D01*
X0182957Y0074706D02*
X0181878Y0074706D01*
X0181878Y0075305D02*
X0182359Y0075305D01*
X0182226Y0075903D02*
X0182017Y0075903D01*
X0165164Y0108223D02*
X0165146Y0108223D01*
X0165146Y0111814D02*
X0165268Y0111814D01*
X0180222Y0134558D02*
X0202823Y0134558D01*
X0203421Y0135156D02*
X0180660Y0135156D01*
X0180660Y0135755D02*
X0204020Y0135755D01*
X0204618Y0136353D02*
X0180660Y0136353D01*
X0180660Y0136952D02*
X0205217Y0136952D01*
X0205815Y0137550D02*
X0180660Y0137550D01*
X0180660Y0138149D02*
X0206414Y0138149D01*
X0207012Y0138747D02*
X0180660Y0138747D01*
X0206434Y0133361D02*
X0238233Y0133361D01*
X0238233Y0133959D02*
X0207033Y0133959D01*
X0211271Y0124383D02*
X0212113Y0124383D01*
X0211862Y0123784D02*
X0211693Y0123784D01*
X0211693Y0123186D02*
X0211855Y0123186D01*
X0211855Y0122587D02*
X0211693Y0122587D01*
X0211693Y0121989D02*
X0211855Y0121989D01*
M02*
