%
M48
M72
T01C0.0138
T02C0.0394
%
T01
X12630Y6630
X13755Y8693
X14818Y10255
X16568Y11943
X17005Y11943
X14443Y12880
X12505Y12880
X15005Y14943
X15568Y16068
X15255Y16568
X15755Y17068
X14943Y17818
X14568Y18255
X13505Y18130
X13318Y17443
X12193Y17294
X11818Y18193
X11818Y18880
X11818Y20318
X12318Y20318
X11318Y20318
X13255Y20693
X13693Y20693
X14130Y20693
X14568Y20693
X15693Y21068
X15693Y21568
X16318Y21568
X16318Y21068
X17193Y20505
X17818Y21255
X14630Y22005
X14193Y22005
X13755Y22005
X13318Y22130
X13005Y22443
X12318Y22318
X11818Y22318
X11318Y22318
X12818Y23255
X12818Y23880
X13693Y23255
X13755Y22505
X13505Y19818
X17443Y17818
X18130Y17818
X18943Y16568
X21193Y14693
X21443Y13505
X23818Y13443
X25318Y13568
X26505Y13068
X25505Y12193
X25943Y10505
X25505Y15005
X25630Y16880
X25318Y18318
X25818Y18443
X23818Y18193
X23568Y20130
X23068Y21443
X23880Y22943
X24130Y23755
X23880Y24818
X22880Y23755
X21130Y22693
X21318Y21318
X25318Y23068
X25755Y23255
X25693Y21693
X26505Y21380
X27193Y21380
X27505Y20193
X28318Y18193
X28130Y16943
X27919Y15818
X30130Y16818
X29818Y18318
X30130Y21568
X30880Y22755
X29818Y23068
X28318Y22943
X27505Y24818
X28193Y25559
X28005Y26443
X28318Y27693
X29818Y27818
X30005Y26318
X26068Y27255
X25380Y27818
X23755Y27755
X17068Y25068
X16130Y25068
X15193Y25068
X14255Y25068
X20755Y10255
X19818Y9443
X18255Y7693
X18318Y7255
X18318Y6630
X18818Y7380
X17255Y7630
X30818Y12693
T02
X14818Y6318
X15818Y6318
X16818Y6318
X17818Y6318
X18818Y6318
X19818Y6318
X20818Y6318
X21818Y6318
X22818Y6318
X23818Y6318
X24818Y6318
X25818Y6318
X26818Y6318
X27818Y6318
X28818Y6318
X12693Y15068
X12693Y16068
X11318Y16693
X11318Y17693
M30
