G75*
%MOIN*%
%OFA0B0*%
%FSLAX25Y25*%
%IPPOS*%
%LPD*%
%AMOC8*
5,1,8,0,0,1.08239X$1,22.5*
%
%ADD10C,0.00001*%
%ADD11R,0.16000X0.06000*%
%ADD12R,0.02500X0.04000*%
%ADD13R,0.05512X0.05512*%
%ADD14C,0.06600*%
%ADD15C,0.02578*%
%ADD16C,0.01600*%
%ADD17C,0.01000*%
%ADD18C,0.01200*%
%ADD19C,0.00600*%
%ADD20C,0.00800*%
D10*
X0105675Y0063549D02*
X0105675Y0284021D01*
X0108431Y0284021D02*
X0108433Y0284164D01*
X0108439Y0284307D01*
X0108449Y0284449D01*
X0108463Y0284591D01*
X0108481Y0284733D01*
X0108503Y0284875D01*
X0108528Y0285015D01*
X0108558Y0285155D01*
X0108592Y0285294D01*
X0108629Y0285432D01*
X0108671Y0285569D01*
X0108716Y0285704D01*
X0108765Y0285838D01*
X0108817Y0285971D01*
X0108873Y0286103D01*
X0108933Y0286232D01*
X0108997Y0286360D01*
X0109064Y0286487D01*
X0109135Y0286611D01*
X0109209Y0286733D01*
X0109286Y0286853D01*
X0109367Y0286971D01*
X0109451Y0287087D01*
X0109538Y0287200D01*
X0109628Y0287311D01*
X0109722Y0287419D01*
X0109818Y0287525D01*
X0109917Y0287627D01*
X0110020Y0287727D01*
X0110124Y0287824D01*
X0110232Y0287919D01*
X0110342Y0288010D01*
X0110455Y0288098D01*
X0110570Y0288182D01*
X0110687Y0288264D01*
X0110807Y0288342D01*
X0110928Y0288417D01*
X0111052Y0288489D01*
X0111178Y0288557D01*
X0111305Y0288621D01*
X0111435Y0288682D01*
X0111566Y0288739D01*
X0111698Y0288793D01*
X0111832Y0288842D01*
X0111967Y0288889D01*
X0112104Y0288931D01*
X0112242Y0288969D01*
X0112380Y0289004D01*
X0112520Y0289034D01*
X0112660Y0289061D01*
X0112801Y0289084D01*
X0112943Y0289103D01*
X0113085Y0289118D01*
X0113228Y0289129D01*
X0113370Y0289136D01*
X0113513Y0289139D01*
X0113656Y0289138D01*
X0113799Y0289133D01*
X0113942Y0289124D01*
X0114084Y0289111D01*
X0114226Y0289094D01*
X0114367Y0289073D01*
X0114508Y0289048D01*
X0114648Y0289020D01*
X0114787Y0288987D01*
X0114925Y0288950D01*
X0115062Y0288910D01*
X0115198Y0288866D01*
X0115333Y0288818D01*
X0115466Y0288766D01*
X0115598Y0288711D01*
X0115728Y0288652D01*
X0115857Y0288589D01*
X0115983Y0288523D01*
X0116108Y0288453D01*
X0116231Y0288380D01*
X0116351Y0288304D01*
X0116470Y0288224D01*
X0116586Y0288140D01*
X0116700Y0288054D01*
X0116811Y0287964D01*
X0116920Y0287872D01*
X0117026Y0287776D01*
X0117130Y0287678D01*
X0117231Y0287576D01*
X0117328Y0287472D01*
X0117423Y0287365D01*
X0117515Y0287256D01*
X0117604Y0287144D01*
X0117690Y0287029D01*
X0117772Y0286913D01*
X0117851Y0286793D01*
X0117927Y0286672D01*
X0117999Y0286549D01*
X0118068Y0286424D01*
X0118133Y0286297D01*
X0118195Y0286168D01*
X0118253Y0286037D01*
X0118308Y0285905D01*
X0118358Y0285771D01*
X0118405Y0285636D01*
X0118449Y0285500D01*
X0118488Y0285363D01*
X0118523Y0285224D01*
X0118555Y0285085D01*
X0118583Y0284945D01*
X0118607Y0284804D01*
X0118627Y0284662D01*
X0118643Y0284520D01*
X0118655Y0284378D01*
X0118663Y0284235D01*
X0118667Y0284092D01*
X0118667Y0283950D01*
X0118663Y0283807D01*
X0118655Y0283664D01*
X0118643Y0283522D01*
X0118627Y0283380D01*
X0118607Y0283238D01*
X0118583Y0283097D01*
X0118555Y0282957D01*
X0118523Y0282818D01*
X0118488Y0282679D01*
X0118449Y0282542D01*
X0118405Y0282406D01*
X0118358Y0282271D01*
X0118308Y0282137D01*
X0118253Y0282005D01*
X0118195Y0281874D01*
X0118133Y0281745D01*
X0118068Y0281618D01*
X0117999Y0281493D01*
X0117927Y0281370D01*
X0117851Y0281249D01*
X0117772Y0281129D01*
X0117690Y0281013D01*
X0117604Y0280898D01*
X0117515Y0280786D01*
X0117423Y0280677D01*
X0117328Y0280570D01*
X0117231Y0280466D01*
X0117130Y0280364D01*
X0117026Y0280266D01*
X0116920Y0280170D01*
X0116811Y0280078D01*
X0116700Y0279988D01*
X0116586Y0279902D01*
X0116470Y0279818D01*
X0116351Y0279738D01*
X0116231Y0279662D01*
X0116108Y0279589D01*
X0115983Y0279519D01*
X0115857Y0279453D01*
X0115728Y0279390D01*
X0115598Y0279331D01*
X0115466Y0279276D01*
X0115333Y0279224D01*
X0115198Y0279176D01*
X0115062Y0279132D01*
X0114925Y0279092D01*
X0114787Y0279055D01*
X0114648Y0279022D01*
X0114508Y0278994D01*
X0114367Y0278969D01*
X0114226Y0278948D01*
X0114084Y0278931D01*
X0113942Y0278918D01*
X0113799Y0278909D01*
X0113656Y0278904D01*
X0113513Y0278903D01*
X0113370Y0278906D01*
X0113228Y0278913D01*
X0113085Y0278924D01*
X0112943Y0278939D01*
X0112801Y0278958D01*
X0112660Y0278981D01*
X0112520Y0279008D01*
X0112380Y0279038D01*
X0112242Y0279073D01*
X0112104Y0279111D01*
X0111967Y0279153D01*
X0111832Y0279200D01*
X0111698Y0279249D01*
X0111566Y0279303D01*
X0111435Y0279360D01*
X0111305Y0279421D01*
X0111178Y0279485D01*
X0111052Y0279553D01*
X0110928Y0279625D01*
X0110807Y0279700D01*
X0110687Y0279778D01*
X0110570Y0279860D01*
X0110455Y0279944D01*
X0110342Y0280032D01*
X0110232Y0280123D01*
X0110124Y0280218D01*
X0110020Y0280315D01*
X0109917Y0280415D01*
X0109818Y0280517D01*
X0109722Y0280623D01*
X0109628Y0280731D01*
X0109538Y0280842D01*
X0109451Y0280955D01*
X0109367Y0281071D01*
X0109286Y0281189D01*
X0109209Y0281309D01*
X0109135Y0281431D01*
X0109064Y0281555D01*
X0108997Y0281682D01*
X0108933Y0281810D01*
X0108873Y0281939D01*
X0108817Y0282071D01*
X0108765Y0282204D01*
X0108716Y0282338D01*
X0108671Y0282473D01*
X0108629Y0282610D01*
X0108592Y0282748D01*
X0108558Y0282887D01*
X0108528Y0283027D01*
X0108503Y0283167D01*
X0108481Y0283309D01*
X0108463Y0283451D01*
X0108449Y0283593D01*
X0108439Y0283735D01*
X0108433Y0283878D01*
X0108431Y0284021D01*
X0105675Y0284021D02*
X0105677Y0284211D01*
X0105684Y0284401D01*
X0105696Y0284591D01*
X0105712Y0284781D01*
X0105732Y0284970D01*
X0105758Y0285159D01*
X0105787Y0285347D01*
X0105822Y0285534D01*
X0105861Y0285720D01*
X0105904Y0285905D01*
X0105952Y0286090D01*
X0106004Y0286273D01*
X0106060Y0286454D01*
X0106121Y0286634D01*
X0106187Y0286813D01*
X0106256Y0286990D01*
X0106330Y0287166D01*
X0106408Y0287339D01*
X0106491Y0287511D01*
X0106577Y0287680D01*
X0106667Y0287848D01*
X0106762Y0288013D01*
X0106860Y0288176D01*
X0106963Y0288336D01*
X0107069Y0288494D01*
X0107179Y0288649D01*
X0107292Y0288802D01*
X0107410Y0288952D01*
X0107531Y0289098D01*
X0107655Y0289242D01*
X0107783Y0289383D01*
X0107914Y0289521D01*
X0108049Y0289656D01*
X0108187Y0289787D01*
X0108328Y0289915D01*
X0108472Y0290039D01*
X0108618Y0290160D01*
X0108768Y0290278D01*
X0108921Y0290391D01*
X0109076Y0290501D01*
X0109234Y0290607D01*
X0109394Y0290710D01*
X0109557Y0290808D01*
X0109722Y0290903D01*
X0109890Y0290993D01*
X0110059Y0291079D01*
X0110231Y0291162D01*
X0110404Y0291240D01*
X0110580Y0291314D01*
X0110757Y0291383D01*
X0110936Y0291449D01*
X0111116Y0291510D01*
X0111297Y0291566D01*
X0111480Y0291618D01*
X0111665Y0291666D01*
X0111850Y0291709D01*
X0112036Y0291748D01*
X0112223Y0291783D01*
X0112411Y0291812D01*
X0112600Y0291838D01*
X0112789Y0291858D01*
X0112979Y0291874D01*
X0113169Y0291886D01*
X0113359Y0291893D01*
X0113549Y0291895D01*
X0314336Y0291895D01*
X0309218Y0284021D02*
X0309220Y0284164D01*
X0309226Y0284307D01*
X0309236Y0284449D01*
X0309250Y0284591D01*
X0309268Y0284733D01*
X0309290Y0284875D01*
X0309315Y0285015D01*
X0309345Y0285155D01*
X0309379Y0285294D01*
X0309416Y0285432D01*
X0309458Y0285569D01*
X0309503Y0285704D01*
X0309552Y0285838D01*
X0309604Y0285971D01*
X0309660Y0286103D01*
X0309720Y0286232D01*
X0309784Y0286360D01*
X0309851Y0286487D01*
X0309922Y0286611D01*
X0309996Y0286733D01*
X0310073Y0286853D01*
X0310154Y0286971D01*
X0310238Y0287087D01*
X0310325Y0287200D01*
X0310415Y0287311D01*
X0310509Y0287419D01*
X0310605Y0287525D01*
X0310704Y0287627D01*
X0310807Y0287727D01*
X0310911Y0287824D01*
X0311019Y0287919D01*
X0311129Y0288010D01*
X0311242Y0288098D01*
X0311357Y0288182D01*
X0311474Y0288264D01*
X0311594Y0288342D01*
X0311715Y0288417D01*
X0311839Y0288489D01*
X0311965Y0288557D01*
X0312092Y0288621D01*
X0312222Y0288682D01*
X0312353Y0288739D01*
X0312485Y0288793D01*
X0312619Y0288842D01*
X0312754Y0288889D01*
X0312891Y0288931D01*
X0313029Y0288969D01*
X0313167Y0289004D01*
X0313307Y0289034D01*
X0313447Y0289061D01*
X0313588Y0289084D01*
X0313730Y0289103D01*
X0313872Y0289118D01*
X0314015Y0289129D01*
X0314157Y0289136D01*
X0314300Y0289139D01*
X0314443Y0289138D01*
X0314586Y0289133D01*
X0314729Y0289124D01*
X0314871Y0289111D01*
X0315013Y0289094D01*
X0315154Y0289073D01*
X0315295Y0289048D01*
X0315435Y0289020D01*
X0315574Y0288987D01*
X0315712Y0288950D01*
X0315849Y0288910D01*
X0315985Y0288866D01*
X0316120Y0288818D01*
X0316253Y0288766D01*
X0316385Y0288711D01*
X0316515Y0288652D01*
X0316644Y0288589D01*
X0316770Y0288523D01*
X0316895Y0288453D01*
X0317018Y0288380D01*
X0317138Y0288304D01*
X0317257Y0288224D01*
X0317373Y0288140D01*
X0317487Y0288054D01*
X0317598Y0287964D01*
X0317707Y0287872D01*
X0317813Y0287776D01*
X0317917Y0287678D01*
X0318018Y0287576D01*
X0318115Y0287472D01*
X0318210Y0287365D01*
X0318302Y0287256D01*
X0318391Y0287144D01*
X0318477Y0287029D01*
X0318559Y0286913D01*
X0318638Y0286793D01*
X0318714Y0286672D01*
X0318786Y0286549D01*
X0318855Y0286424D01*
X0318920Y0286297D01*
X0318982Y0286168D01*
X0319040Y0286037D01*
X0319095Y0285905D01*
X0319145Y0285771D01*
X0319192Y0285636D01*
X0319236Y0285500D01*
X0319275Y0285363D01*
X0319310Y0285224D01*
X0319342Y0285085D01*
X0319370Y0284945D01*
X0319394Y0284804D01*
X0319414Y0284662D01*
X0319430Y0284520D01*
X0319442Y0284378D01*
X0319450Y0284235D01*
X0319454Y0284092D01*
X0319454Y0283950D01*
X0319450Y0283807D01*
X0319442Y0283664D01*
X0319430Y0283522D01*
X0319414Y0283380D01*
X0319394Y0283238D01*
X0319370Y0283097D01*
X0319342Y0282957D01*
X0319310Y0282818D01*
X0319275Y0282679D01*
X0319236Y0282542D01*
X0319192Y0282406D01*
X0319145Y0282271D01*
X0319095Y0282137D01*
X0319040Y0282005D01*
X0318982Y0281874D01*
X0318920Y0281745D01*
X0318855Y0281618D01*
X0318786Y0281493D01*
X0318714Y0281370D01*
X0318638Y0281249D01*
X0318559Y0281129D01*
X0318477Y0281013D01*
X0318391Y0280898D01*
X0318302Y0280786D01*
X0318210Y0280677D01*
X0318115Y0280570D01*
X0318018Y0280466D01*
X0317917Y0280364D01*
X0317813Y0280266D01*
X0317707Y0280170D01*
X0317598Y0280078D01*
X0317487Y0279988D01*
X0317373Y0279902D01*
X0317257Y0279818D01*
X0317138Y0279738D01*
X0317018Y0279662D01*
X0316895Y0279589D01*
X0316770Y0279519D01*
X0316644Y0279453D01*
X0316515Y0279390D01*
X0316385Y0279331D01*
X0316253Y0279276D01*
X0316120Y0279224D01*
X0315985Y0279176D01*
X0315849Y0279132D01*
X0315712Y0279092D01*
X0315574Y0279055D01*
X0315435Y0279022D01*
X0315295Y0278994D01*
X0315154Y0278969D01*
X0315013Y0278948D01*
X0314871Y0278931D01*
X0314729Y0278918D01*
X0314586Y0278909D01*
X0314443Y0278904D01*
X0314300Y0278903D01*
X0314157Y0278906D01*
X0314015Y0278913D01*
X0313872Y0278924D01*
X0313730Y0278939D01*
X0313588Y0278958D01*
X0313447Y0278981D01*
X0313307Y0279008D01*
X0313167Y0279038D01*
X0313029Y0279073D01*
X0312891Y0279111D01*
X0312754Y0279153D01*
X0312619Y0279200D01*
X0312485Y0279249D01*
X0312353Y0279303D01*
X0312222Y0279360D01*
X0312092Y0279421D01*
X0311965Y0279485D01*
X0311839Y0279553D01*
X0311715Y0279625D01*
X0311594Y0279700D01*
X0311474Y0279778D01*
X0311357Y0279860D01*
X0311242Y0279944D01*
X0311129Y0280032D01*
X0311019Y0280123D01*
X0310911Y0280218D01*
X0310807Y0280315D01*
X0310704Y0280415D01*
X0310605Y0280517D01*
X0310509Y0280623D01*
X0310415Y0280731D01*
X0310325Y0280842D01*
X0310238Y0280955D01*
X0310154Y0281071D01*
X0310073Y0281189D01*
X0309996Y0281309D01*
X0309922Y0281431D01*
X0309851Y0281555D01*
X0309784Y0281682D01*
X0309720Y0281810D01*
X0309660Y0281939D01*
X0309604Y0282071D01*
X0309552Y0282204D01*
X0309503Y0282338D01*
X0309458Y0282473D01*
X0309416Y0282610D01*
X0309379Y0282748D01*
X0309345Y0282887D01*
X0309315Y0283027D01*
X0309290Y0283167D01*
X0309268Y0283309D01*
X0309250Y0283451D01*
X0309236Y0283593D01*
X0309226Y0283735D01*
X0309220Y0283878D01*
X0309218Y0284021D01*
X0314336Y0291895D02*
X0314526Y0291893D01*
X0314716Y0291886D01*
X0314906Y0291874D01*
X0315096Y0291858D01*
X0315285Y0291838D01*
X0315474Y0291812D01*
X0315662Y0291783D01*
X0315849Y0291748D01*
X0316035Y0291709D01*
X0316220Y0291666D01*
X0316405Y0291618D01*
X0316588Y0291566D01*
X0316769Y0291510D01*
X0316949Y0291449D01*
X0317128Y0291383D01*
X0317305Y0291314D01*
X0317481Y0291240D01*
X0317654Y0291162D01*
X0317826Y0291079D01*
X0317995Y0290993D01*
X0318163Y0290903D01*
X0318328Y0290808D01*
X0318491Y0290710D01*
X0318651Y0290607D01*
X0318809Y0290501D01*
X0318964Y0290391D01*
X0319117Y0290278D01*
X0319267Y0290160D01*
X0319413Y0290039D01*
X0319557Y0289915D01*
X0319698Y0289787D01*
X0319836Y0289656D01*
X0319971Y0289521D01*
X0320102Y0289383D01*
X0320230Y0289242D01*
X0320354Y0289098D01*
X0320475Y0288952D01*
X0320593Y0288802D01*
X0320706Y0288649D01*
X0320816Y0288494D01*
X0320922Y0288336D01*
X0321025Y0288176D01*
X0321123Y0288013D01*
X0321218Y0287848D01*
X0321308Y0287680D01*
X0321394Y0287511D01*
X0321477Y0287339D01*
X0321555Y0287166D01*
X0321629Y0286990D01*
X0321698Y0286813D01*
X0321764Y0286634D01*
X0321825Y0286454D01*
X0321881Y0286273D01*
X0321933Y0286090D01*
X0321981Y0285905D01*
X0322024Y0285720D01*
X0322063Y0285534D01*
X0322098Y0285347D01*
X0322127Y0285159D01*
X0322153Y0284970D01*
X0322173Y0284781D01*
X0322189Y0284591D01*
X0322201Y0284401D01*
X0322208Y0284211D01*
X0322210Y0284021D01*
X0322210Y0063549D01*
X0309218Y0063549D02*
X0309220Y0063692D01*
X0309226Y0063835D01*
X0309236Y0063977D01*
X0309250Y0064119D01*
X0309268Y0064261D01*
X0309290Y0064403D01*
X0309315Y0064543D01*
X0309345Y0064683D01*
X0309379Y0064822D01*
X0309416Y0064960D01*
X0309458Y0065097D01*
X0309503Y0065232D01*
X0309552Y0065366D01*
X0309604Y0065499D01*
X0309660Y0065631D01*
X0309720Y0065760D01*
X0309784Y0065888D01*
X0309851Y0066015D01*
X0309922Y0066139D01*
X0309996Y0066261D01*
X0310073Y0066381D01*
X0310154Y0066499D01*
X0310238Y0066615D01*
X0310325Y0066728D01*
X0310415Y0066839D01*
X0310509Y0066947D01*
X0310605Y0067053D01*
X0310704Y0067155D01*
X0310807Y0067255D01*
X0310911Y0067352D01*
X0311019Y0067447D01*
X0311129Y0067538D01*
X0311242Y0067626D01*
X0311357Y0067710D01*
X0311474Y0067792D01*
X0311594Y0067870D01*
X0311715Y0067945D01*
X0311839Y0068017D01*
X0311965Y0068085D01*
X0312092Y0068149D01*
X0312222Y0068210D01*
X0312353Y0068267D01*
X0312485Y0068321D01*
X0312619Y0068370D01*
X0312754Y0068417D01*
X0312891Y0068459D01*
X0313029Y0068497D01*
X0313167Y0068532D01*
X0313307Y0068562D01*
X0313447Y0068589D01*
X0313588Y0068612D01*
X0313730Y0068631D01*
X0313872Y0068646D01*
X0314015Y0068657D01*
X0314157Y0068664D01*
X0314300Y0068667D01*
X0314443Y0068666D01*
X0314586Y0068661D01*
X0314729Y0068652D01*
X0314871Y0068639D01*
X0315013Y0068622D01*
X0315154Y0068601D01*
X0315295Y0068576D01*
X0315435Y0068548D01*
X0315574Y0068515D01*
X0315712Y0068478D01*
X0315849Y0068438D01*
X0315985Y0068394D01*
X0316120Y0068346D01*
X0316253Y0068294D01*
X0316385Y0068239D01*
X0316515Y0068180D01*
X0316644Y0068117D01*
X0316770Y0068051D01*
X0316895Y0067981D01*
X0317018Y0067908D01*
X0317138Y0067832D01*
X0317257Y0067752D01*
X0317373Y0067668D01*
X0317487Y0067582D01*
X0317598Y0067492D01*
X0317707Y0067400D01*
X0317813Y0067304D01*
X0317917Y0067206D01*
X0318018Y0067104D01*
X0318115Y0067000D01*
X0318210Y0066893D01*
X0318302Y0066784D01*
X0318391Y0066672D01*
X0318477Y0066557D01*
X0318559Y0066441D01*
X0318638Y0066321D01*
X0318714Y0066200D01*
X0318786Y0066077D01*
X0318855Y0065952D01*
X0318920Y0065825D01*
X0318982Y0065696D01*
X0319040Y0065565D01*
X0319095Y0065433D01*
X0319145Y0065299D01*
X0319192Y0065164D01*
X0319236Y0065028D01*
X0319275Y0064891D01*
X0319310Y0064752D01*
X0319342Y0064613D01*
X0319370Y0064473D01*
X0319394Y0064332D01*
X0319414Y0064190D01*
X0319430Y0064048D01*
X0319442Y0063906D01*
X0319450Y0063763D01*
X0319454Y0063620D01*
X0319454Y0063478D01*
X0319450Y0063335D01*
X0319442Y0063192D01*
X0319430Y0063050D01*
X0319414Y0062908D01*
X0319394Y0062766D01*
X0319370Y0062625D01*
X0319342Y0062485D01*
X0319310Y0062346D01*
X0319275Y0062207D01*
X0319236Y0062070D01*
X0319192Y0061934D01*
X0319145Y0061799D01*
X0319095Y0061665D01*
X0319040Y0061533D01*
X0318982Y0061402D01*
X0318920Y0061273D01*
X0318855Y0061146D01*
X0318786Y0061021D01*
X0318714Y0060898D01*
X0318638Y0060777D01*
X0318559Y0060657D01*
X0318477Y0060541D01*
X0318391Y0060426D01*
X0318302Y0060314D01*
X0318210Y0060205D01*
X0318115Y0060098D01*
X0318018Y0059994D01*
X0317917Y0059892D01*
X0317813Y0059794D01*
X0317707Y0059698D01*
X0317598Y0059606D01*
X0317487Y0059516D01*
X0317373Y0059430D01*
X0317257Y0059346D01*
X0317138Y0059266D01*
X0317018Y0059190D01*
X0316895Y0059117D01*
X0316770Y0059047D01*
X0316644Y0058981D01*
X0316515Y0058918D01*
X0316385Y0058859D01*
X0316253Y0058804D01*
X0316120Y0058752D01*
X0315985Y0058704D01*
X0315849Y0058660D01*
X0315712Y0058620D01*
X0315574Y0058583D01*
X0315435Y0058550D01*
X0315295Y0058522D01*
X0315154Y0058497D01*
X0315013Y0058476D01*
X0314871Y0058459D01*
X0314729Y0058446D01*
X0314586Y0058437D01*
X0314443Y0058432D01*
X0314300Y0058431D01*
X0314157Y0058434D01*
X0314015Y0058441D01*
X0313872Y0058452D01*
X0313730Y0058467D01*
X0313588Y0058486D01*
X0313447Y0058509D01*
X0313307Y0058536D01*
X0313167Y0058566D01*
X0313029Y0058601D01*
X0312891Y0058639D01*
X0312754Y0058681D01*
X0312619Y0058728D01*
X0312485Y0058777D01*
X0312353Y0058831D01*
X0312222Y0058888D01*
X0312092Y0058949D01*
X0311965Y0059013D01*
X0311839Y0059081D01*
X0311715Y0059153D01*
X0311594Y0059228D01*
X0311474Y0059306D01*
X0311357Y0059388D01*
X0311242Y0059472D01*
X0311129Y0059560D01*
X0311019Y0059651D01*
X0310911Y0059746D01*
X0310807Y0059843D01*
X0310704Y0059943D01*
X0310605Y0060045D01*
X0310509Y0060151D01*
X0310415Y0060259D01*
X0310325Y0060370D01*
X0310238Y0060483D01*
X0310154Y0060599D01*
X0310073Y0060717D01*
X0309996Y0060837D01*
X0309922Y0060959D01*
X0309851Y0061083D01*
X0309784Y0061210D01*
X0309720Y0061338D01*
X0309660Y0061467D01*
X0309604Y0061599D01*
X0309552Y0061732D01*
X0309503Y0061866D01*
X0309458Y0062001D01*
X0309416Y0062138D01*
X0309379Y0062276D01*
X0309345Y0062415D01*
X0309315Y0062555D01*
X0309290Y0062695D01*
X0309268Y0062837D01*
X0309250Y0062979D01*
X0309236Y0063121D01*
X0309226Y0063263D01*
X0309220Y0063406D01*
X0309218Y0063549D01*
X0314336Y0055675D02*
X0314526Y0055677D01*
X0314716Y0055684D01*
X0314906Y0055696D01*
X0315096Y0055712D01*
X0315285Y0055732D01*
X0315474Y0055758D01*
X0315662Y0055787D01*
X0315849Y0055822D01*
X0316035Y0055861D01*
X0316220Y0055904D01*
X0316405Y0055952D01*
X0316588Y0056004D01*
X0316769Y0056060D01*
X0316949Y0056121D01*
X0317128Y0056187D01*
X0317305Y0056256D01*
X0317481Y0056330D01*
X0317654Y0056408D01*
X0317826Y0056491D01*
X0317995Y0056577D01*
X0318163Y0056667D01*
X0318328Y0056762D01*
X0318491Y0056860D01*
X0318651Y0056963D01*
X0318809Y0057069D01*
X0318964Y0057179D01*
X0319117Y0057292D01*
X0319267Y0057410D01*
X0319413Y0057531D01*
X0319557Y0057655D01*
X0319698Y0057783D01*
X0319836Y0057914D01*
X0319971Y0058049D01*
X0320102Y0058187D01*
X0320230Y0058328D01*
X0320354Y0058472D01*
X0320475Y0058618D01*
X0320593Y0058768D01*
X0320706Y0058921D01*
X0320816Y0059076D01*
X0320922Y0059234D01*
X0321025Y0059394D01*
X0321123Y0059557D01*
X0321218Y0059722D01*
X0321308Y0059890D01*
X0321394Y0060059D01*
X0321477Y0060231D01*
X0321555Y0060404D01*
X0321629Y0060580D01*
X0321698Y0060757D01*
X0321764Y0060936D01*
X0321825Y0061116D01*
X0321881Y0061297D01*
X0321933Y0061480D01*
X0321981Y0061665D01*
X0322024Y0061850D01*
X0322063Y0062036D01*
X0322098Y0062223D01*
X0322127Y0062411D01*
X0322153Y0062600D01*
X0322173Y0062789D01*
X0322189Y0062979D01*
X0322201Y0063169D01*
X0322208Y0063359D01*
X0322210Y0063549D01*
X0314336Y0055675D02*
X0113549Y0055675D01*
X0108431Y0063549D02*
X0108433Y0063692D01*
X0108439Y0063835D01*
X0108449Y0063977D01*
X0108463Y0064119D01*
X0108481Y0064261D01*
X0108503Y0064403D01*
X0108528Y0064543D01*
X0108558Y0064683D01*
X0108592Y0064822D01*
X0108629Y0064960D01*
X0108671Y0065097D01*
X0108716Y0065232D01*
X0108765Y0065366D01*
X0108817Y0065499D01*
X0108873Y0065631D01*
X0108933Y0065760D01*
X0108997Y0065888D01*
X0109064Y0066015D01*
X0109135Y0066139D01*
X0109209Y0066261D01*
X0109286Y0066381D01*
X0109367Y0066499D01*
X0109451Y0066615D01*
X0109538Y0066728D01*
X0109628Y0066839D01*
X0109722Y0066947D01*
X0109818Y0067053D01*
X0109917Y0067155D01*
X0110020Y0067255D01*
X0110124Y0067352D01*
X0110232Y0067447D01*
X0110342Y0067538D01*
X0110455Y0067626D01*
X0110570Y0067710D01*
X0110687Y0067792D01*
X0110807Y0067870D01*
X0110928Y0067945D01*
X0111052Y0068017D01*
X0111178Y0068085D01*
X0111305Y0068149D01*
X0111435Y0068210D01*
X0111566Y0068267D01*
X0111698Y0068321D01*
X0111832Y0068370D01*
X0111967Y0068417D01*
X0112104Y0068459D01*
X0112242Y0068497D01*
X0112380Y0068532D01*
X0112520Y0068562D01*
X0112660Y0068589D01*
X0112801Y0068612D01*
X0112943Y0068631D01*
X0113085Y0068646D01*
X0113228Y0068657D01*
X0113370Y0068664D01*
X0113513Y0068667D01*
X0113656Y0068666D01*
X0113799Y0068661D01*
X0113942Y0068652D01*
X0114084Y0068639D01*
X0114226Y0068622D01*
X0114367Y0068601D01*
X0114508Y0068576D01*
X0114648Y0068548D01*
X0114787Y0068515D01*
X0114925Y0068478D01*
X0115062Y0068438D01*
X0115198Y0068394D01*
X0115333Y0068346D01*
X0115466Y0068294D01*
X0115598Y0068239D01*
X0115728Y0068180D01*
X0115857Y0068117D01*
X0115983Y0068051D01*
X0116108Y0067981D01*
X0116231Y0067908D01*
X0116351Y0067832D01*
X0116470Y0067752D01*
X0116586Y0067668D01*
X0116700Y0067582D01*
X0116811Y0067492D01*
X0116920Y0067400D01*
X0117026Y0067304D01*
X0117130Y0067206D01*
X0117231Y0067104D01*
X0117328Y0067000D01*
X0117423Y0066893D01*
X0117515Y0066784D01*
X0117604Y0066672D01*
X0117690Y0066557D01*
X0117772Y0066441D01*
X0117851Y0066321D01*
X0117927Y0066200D01*
X0117999Y0066077D01*
X0118068Y0065952D01*
X0118133Y0065825D01*
X0118195Y0065696D01*
X0118253Y0065565D01*
X0118308Y0065433D01*
X0118358Y0065299D01*
X0118405Y0065164D01*
X0118449Y0065028D01*
X0118488Y0064891D01*
X0118523Y0064752D01*
X0118555Y0064613D01*
X0118583Y0064473D01*
X0118607Y0064332D01*
X0118627Y0064190D01*
X0118643Y0064048D01*
X0118655Y0063906D01*
X0118663Y0063763D01*
X0118667Y0063620D01*
X0118667Y0063478D01*
X0118663Y0063335D01*
X0118655Y0063192D01*
X0118643Y0063050D01*
X0118627Y0062908D01*
X0118607Y0062766D01*
X0118583Y0062625D01*
X0118555Y0062485D01*
X0118523Y0062346D01*
X0118488Y0062207D01*
X0118449Y0062070D01*
X0118405Y0061934D01*
X0118358Y0061799D01*
X0118308Y0061665D01*
X0118253Y0061533D01*
X0118195Y0061402D01*
X0118133Y0061273D01*
X0118068Y0061146D01*
X0117999Y0061021D01*
X0117927Y0060898D01*
X0117851Y0060777D01*
X0117772Y0060657D01*
X0117690Y0060541D01*
X0117604Y0060426D01*
X0117515Y0060314D01*
X0117423Y0060205D01*
X0117328Y0060098D01*
X0117231Y0059994D01*
X0117130Y0059892D01*
X0117026Y0059794D01*
X0116920Y0059698D01*
X0116811Y0059606D01*
X0116700Y0059516D01*
X0116586Y0059430D01*
X0116470Y0059346D01*
X0116351Y0059266D01*
X0116231Y0059190D01*
X0116108Y0059117D01*
X0115983Y0059047D01*
X0115857Y0058981D01*
X0115728Y0058918D01*
X0115598Y0058859D01*
X0115466Y0058804D01*
X0115333Y0058752D01*
X0115198Y0058704D01*
X0115062Y0058660D01*
X0114925Y0058620D01*
X0114787Y0058583D01*
X0114648Y0058550D01*
X0114508Y0058522D01*
X0114367Y0058497D01*
X0114226Y0058476D01*
X0114084Y0058459D01*
X0113942Y0058446D01*
X0113799Y0058437D01*
X0113656Y0058432D01*
X0113513Y0058431D01*
X0113370Y0058434D01*
X0113228Y0058441D01*
X0113085Y0058452D01*
X0112943Y0058467D01*
X0112801Y0058486D01*
X0112660Y0058509D01*
X0112520Y0058536D01*
X0112380Y0058566D01*
X0112242Y0058601D01*
X0112104Y0058639D01*
X0111967Y0058681D01*
X0111832Y0058728D01*
X0111698Y0058777D01*
X0111566Y0058831D01*
X0111435Y0058888D01*
X0111305Y0058949D01*
X0111178Y0059013D01*
X0111052Y0059081D01*
X0110928Y0059153D01*
X0110807Y0059228D01*
X0110687Y0059306D01*
X0110570Y0059388D01*
X0110455Y0059472D01*
X0110342Y0059560D01*
X0110232Y0059651D01*
X0110124Y0059746D01*
X0110020Y0059843D01*
X0109917Y0059943D01*
X0109818Y0060045D01*
X0109722Y0060151D01*
X0109628Y0060259D01*
X0109538Y0060370D01*
X0109451Y0060483D01*
X0109367Y0060599D01*
X0109286Y0060717D01*
X0109209Y0060837D01*
X0109135Y0060959D01*
X0109064Y0061083D01*
X0108997Y0061210D01*
X0108933Y0061338D01*
X0108873Y0061467D01*
X0108817Y0061599D01*
X0108765Y0061732D01*
X0108716Y0061866D01*
X0108671Y0062001D01*
X0108629Y0062138D01*
X0108592Y0062276D01*
X0108558Y0062415D01*
X0108528Y0062555D01*
X0108503Y0062695D01*
X0108481Y0062837D01*
X0108463Y0062979D01*
X0108449Y0063121D01*
X0108439Y0063263D01*
X0108433Y0063406D01*
X0108431Y0063549D01*
X0105675Y0063549D02*
X0105677Y0063359D01*
X0105684Y0063169D01*
X0105696Y0062979D01*
X0105712Y0062789D01*
X0105732Y0062600D01*
X0105758Y0062411D01*
X0105787Y0062223D01*
X0105822Y0062036D01*
X0105861Y0061850D01*
X0105904Y0061665D01*
X0105952Y0061480D01*
X0106004Y0061297D01*
X0106060Y0061116D01*
X0106121Y0060936D01*
X0106187Y0060757D01*
X0106256Y0060580D01*
X0106330Y0060404D01*
X0106408Y0060231D01*
X0106491Y0060059D01*
X0106577Y0059890D01*
X0106667Y0059722D01*
X0106762Y0059557D01*
X0106860Y0059394D01*
X0106963Y0059234D01*
X0107069Y0059076D01*
X0107179Y0058921D01*
X0107292Y0058768D01*
X0107410Y0058618D01*
X0107531Y0058472D01*
X0107655Y0058328D01*
X0107783Y0058187D01*
X0107914Y0058049D01*
X0108049Y0057914D01*
X0108187Y0057783D01*
X0108328Y0057655D01*
X0108472Y0057531D01*
X0108618Y0057410D01*
X0108768Y0057292D01*
X0108921Y0057179D01*
X0109076Y0057069D01*
X0109234Y0056963D01*
X0109394Y0056860D01*
X0109557Y0056762D01*
X0109722Y0056667D01*
X0109890Y0056577D01*
X0110059Y0056491D01*
X0110231Y0056408D01*
X0110404Y0056330D01*
X0110580Y0056256D01*
X0110757Y0056187D01*
X0110936Y0056121D01*
X0111116Y0056060D01*
X0111297Y0056004D01*
X0111480Y0055952D01*
X0111665Y0055904D01*
X0111850Y0055861D01*
X0112036Y0055822D01*
X0112223Y0055787D01*
X0112411Y0055758D01*
X0112600Y0055732D01*
X0112789Y0055712D01*
X0112979Y0055696D01*
X0113169Y0055684D01*
X0113359Y0055677D01*
X0113549Y0055675D01*
D11*
X0118675Y0203175D03*
X0118675Y0223175D03*
D12*
X0230163Y0221600D03*
X0237644Y0221600D03*
X0233903Y0229474D03*
X0236915Y0269238D03*
X0229435Y0269238D03*
X0233175Y0277112D03*
X0275163Y0269100D03*
X0282644Y0269100D03*
X0278903Y0276974D03*
X0278903Y0229474D03*
X0275163Y0221600D03*
X0282644Y0221600D03*
X0278903Y0182644D03*
X0275163Y0174769D03*
X0282644Y0174769D03*
D13*
X0292929Y0168126D03*
X0292929Y0182693D03*
X0293037Y0215163D03*
X0293037Y0229730D03*
X0293037Y0262663D03*
X0293037Y0277230D03*
X0248175Y0277958D03*
X0248175Y0263392D03*
X0248037Y0229730D03*
X0248037Y0215163D03*
D14*
X0126925Y0160675D03*
X0126925Y0150675D03*
X0113175Y0166925D03*
X0113175Y0176925D03*
X0148175Y0063175D03*
X0158175Y0063175D03*
X0168175Y0063175D03*
X0178175Y0063175D03*
X0188175Y0063175D03*
X0198175Y0063175D03*
X0208175Y0063175D03*
X0218175Y0063175D03*
X0228175Y0063175D03*
X0238175Y0063175D03*
X0248175Y0063175D03*
X0258175Y0063175D03*
X0268175Y0063175D03*
X0278175Y0063175D03*
X0288175Y0063175D03*
D15*
X0295675Y0089425D03*
X0259425Y0105050D03*
X0265050Y0130675D03*
X0238549Y0139336D03*
X0222801Y0139336D03*
X0205084Y0139336D03*
X0197885Y0143564D03*
X0184105Y0135690D03*
X0197885Y0126831D03*
X0170050Y0119425D03*
X0165675Y0119425D03*
X0166389Y0133721D03*
X0166699Y0139336D03*
X0167373Y0150454D03*
X0155675Y0160675D03*
X0152550Y0165675D03*
X0157550Y0170675D03*
X0149425Y0178175D03*
X0145675Y0182550D03*
X0135050Y0181300D03*
X0133175Y0174425D03*
X0121925Y0172939D03*
X0118175Y0181925D03*
X0118175Y0188800D03*
X0118175Y0203175D03*
X0113175Y0203175D03*
X0123175Y0203175D03*
X0132550Y0206925D03*
X0136925Y0206925D03*
X0141300Y0206925D03*
X0145675Y0206925D03*
X0156925Y0210675D03*
X0156925Y0215675D03*
X0163175Y0215675D03*
X0163175Y0210675D03*
X0171925Y0205050D03*
X0178175Y0212550D03*
X0199179Y0181659D03*
X0199179Y0174769D03*
X0203116Y0172801D03*
X0203116Y0165911D03*
X0193948Y0168170D03*
X0190409Y0165675D03*
X0181108Y0173460D03*
X0181300Y0178175D03*
X0174425Y0178175D03*
X0184415Y0155084D03*
X0150050Y0149425D03*
X0142767Y0148485D03*
X0141782Y0160296D03*
X0119144Y0151438D03*
X0125050Y0128800D03*
X0144425Y0128800D03*
X0148175Y0102550D03*
X0137550Y0086925D03*
X0126300Y0066300D03*
X0160675Y0086925D03*
X0172550Y0076300D03*
X0182550Y0076925D03*
X0183175Y0072550D03*
X0183175Y0066300D03*
X0188175Y0073800D03*
X0198175Y0094425D03*
X0221817Y0165911D03*
X0221817Y0171817D03*
X0236659Y0165867D03*
X0228785Y0188505D03*
X0235675Y0201300D03*
X0226925Y0204425D03*
X0213175Y0213175D03*
X0211300Y0226925D03*
X0225675Y0229425D03*
X0238800Y0229425D03*
X0253175Y0230675D03*
X0257550Y0232550D03*
X0256925Y0218175D03*
X0260203Y0215124D03*
X0265050Y0213800D03*
X0271925Y0213800D03*
X0275050Y0201925D03*
X0281856Y0182644D03*
X0279888Y0174769D03*
X0264140Y0174769D03*
X0279186Y0158175D03*
X0300675Y0139425D03*
X0308175Y0126925D03*
X0296620Y0183628D03*
X0300557Y0187565D03*
X0295719Y0193057D03*
X0300675Y0223175D03*
X0296925Y0230675D03*
X0293751Y0239317D03*
X0283175Y0229425D03*
X0275050Y0248175D03*
X0281925Y0255586D03*
X0280050Y0264425D03*
X0270675Y0275675D03*
X0283175Y0276925D03*
X0298175Y0278175D03*
X0253800Y0278175D03*
X0237550Y0277550D03*
X0238800Y0248175D03*
X0170675Y0250675D03*
X0161300Y0250675D03*
X0151925Y0250675D03*
X0142550Y0250675D03*
X0128175Y0238800D03*
X0128175Y0232550D03*
X0136925Y0232550D03*
X0137550Y0225050D03*
X0137550Y0220050D03*
X0141925Y0220050D03*
X0146300Y0220050D03*
X0133175Y0221300D03*
X0130050Y0224425D03*
X0123175Y0223175D03*
X0118175Y0223175D03*
X0113175Y0223175D03*
X0135050Y0198175D03*
X0308800Y0227550D03*
D16*
X0300675Y0223175D02*
X0300675Y0218175D01*
X0297663Y0215163D01*
X0300675Y0212151D01*
X0300675Y0187447D01*
X0300557Y0187565D01*
X0300675Y0187447D02*
X0300675Y0170901D01*
X0297437Y0167663D01*
X0293392Y0167663D01*
X0292929Y0168126D01*
X0297437Y0167663D02*
X0300675Y0164425D01*
X0300675Y0139425D01*
X0300675Y0094425D01*
X0295675Y0089425D01*
X0221817Y0165911D02*
X0221817Y0171817D01*
X0203116Y0172801D02*
X0203116Y0165911D01*
X0199179Y0174769D02*
X0199179Y0151147D01*
X0194956Y0146925D01*
X0152550Y0146925D01*
X0150050Y0149425D01*
X0138155Y0155084D02*
X0136187Y0153116D01*
X0136187Y0146226D01*
X0134218Y0144258D01*
X0115518Y0144258D01*
X0113175Y0146600D01*
X0113175Y0166925D01*
X0138155Y0155084D02*
X0184415Y0155084D01*
X0190409Y0165675D02*
X0152550Y0165675D01*
X0166699Y0139336D02*
X0205084Y0139336D01*
X0199179Y0181659D02*
X0199179Y0191502D01*
X0204100Y0196423D01*
X0256266Y0196423D01*
X0260203Y0200360D01*
X0260203Y0215124D01*
X0256925Y0216925D02*
X0256925Y0218175D01*
X0256925Y0216925D02*
X0255163Y0215163D01*
X0248037Y0215163D01*
X0227437Y0215163D01*
X0225675Y0216925D01*
X0225675Y0229425D01*
X0248037Y0229730D02*
X0252230Y0229730D01*
X0253175Y0230675D01*
X0273175Y0260675D02*
X0270675Y0263175D01*
X0270675Y0275675D01*
X0269425Y0276925D01*
X0256925Y0276925D01*
X0255675Y0275675D01*
X0255675Y0265675D01*
X0253392Y0263392D01*
X0248175Y0263392D01*
X0248175Y0277958D02*
X0253583Y0277958D01*
X0253800Y0278175D01*
X0273175Y0260675D02*
X0281925Y0260675D01*
X0283913Y0262663D01*
X0293037Y0262663D01*
X0297437Y0262663D01*
X0300675Y0259425D01*
X0300675Y0223175D01*
X0295980Y0229730D02*
X0293037Y0229730D01*
X0295980Y0229730D02*
X0296925Y0230675D01*
X0297663Y0215163D02*
X0293037Y0215163D01*
X0293037Y0277230D02*
X0297230Y0277230D01*
X0298175Y0278175D01*
X0148175Y0125050D02*
X0144425Y0128800D01*
X0148175Y0125050D02*
X0148175Y0102550D01*
X0148175Y0063175D01*
X0158175Y0063175D02*
X0158175Y0084425D01*
X0160675Y0086925D01*
D17*
X0165675Y0084425D02*
X0168175Y0081925D01*
X0181300Y0081925D01*
X0182550Y0080675D01*
X0182550Y0076925D01*
X0184150Y0079075D02*
X0184150Y0081338D01*
X0181963Y0083525D01*
X0168838Y0083525D01*
X0167275Y0085088D01*
X0167275Y0116025D01*
X0170050Y0118800D01*
X0170050Y0119425D01*
X0165675Y0119425D02*
X0165675Y0084425D01*
X0184150Y0079075D02*
X0188175Y0075050D01*
X0188175Y0073800D01*
X0218175Y0063175D02*
X0218175Y0171300D01*
X0211300Y0178175D01*
X0181300Y0178175D01*
X0178175Y0175050D02*
X0178175Y0212550D01*
X0178175Y0224425D01*
X0173800Y0228800D01*
X0131925Y0228800D01*
X0128175Y0232550D01*
X0128175Y0238800D01*
X0123175Y0203175D02*
X0128175Y0198175D01*
X0135050Y0198175D01*
X0135050Y0181300D02*
X0132891Y0181300D01*
X0128971Y0177379D01*
X0128800Y0177209D01*
X0128800Y0170050D01*
X0133175Y0174425D02*
X0153800Y0174425D01*
X0157550Y0170675D01*
X0173800Y0170675D01*
X0178175Y0175050D01*
X0174425Y0178175D02*
X0149425Y0178175D01*
X0126925Y0160675D02*
X0123175Y0160675D01*
X0121925Y0161925D01*
X0121925Y0172939D01*
X0233903Y0229474D02*
X0233953Y0229425D01*
X0238800Y0229425D01*
X0237644Y0221600D02*
X0266000Y0221600D01*
X0268800Y0218800D01*
X0268800Y0168800D01*
X0272550Y0165050D01*
X0280750Y0165050D01*
X0284975Y0160825D01*
X0284975Y0078800D01*
X0284975Y0078488D01*
X0284975Y0074587D01*
X0280163Y0069775D01*
X0278762Y0069775D01*
X0277162Y0068175D01*
X0269425Y0068175D01*
X0268175Y0066925D01*
X0268175Y0063175D01*
X0267162Y0068175D02*
X0268762Y0069775D01*
X0276500Y0069775D01*
X0278100Y0071375D01*
X0279500Y0071375D01*
X0283375Y0075250D01*
X0283375Y0160163D01*
X0280088Y0163450D01*
X0271887Y0163450D01*
X0267200Y0168137D01*
X0267200Y0211650D01*
X0265050Y0213800D01*
X0271925Y0213800D02*
X0280050Y0213800D01*
X0282550Y0216300D01*
X0282550Y0221507D01*
X0282644Y0221600D01*
X0283175Y0229425D02*
X0278953Y0229425D01*
X0278903Y0229474D01*
X0286575Y0254387D02*
X0284662Y0256300D01*
X0282550Y0256300D01*
X0281925Y0255675D01*
X0281925Y0255586D01*
X0285050Y0258175D02*
X0240050Y0258175D01*
X0236915Y0261310D01*
X0236915Y0269238D01*
X0237112Y0277112D02*
X0233175Y0277112D01*
X0237112Y0277112D02*
X0237550Y0277550D01*
X0278903Y0276974D02*
X0278953Y0276925D01*
X0283175Y0276925D01*
X0282644Y0269100D02*
X0282644Y0265769D01*
X0281300Y0264425D01*
X0280050Y0264425D01*
X0285050Y0258175D02*
X0288175Y0255050D01*
X0288175Y0063175D01*
X0281300Y0068175D02*
X0286575Y0073450D01*
X0286575Y0254387D01*
X0293864Y0183628D02*
X0292929Y0182693D01*
X0293864Y0183628D02*
X0296620Y0183628D01*
X0281856Y0182644D02*
X0278903Y0182644D01*
X0279888Y0174769D02*
X0282644Y0174769D01*
X0279425Y0161850D02*
X0271225Y0161850D01*
X0265600Y0167475D01*
X0265600Y0173309D01*
X0264140Y0174769D01*
X0279425Y0161850D02*
X0281775Y0159500D01*
X0281775Y0075912D01*
X0278838Y0072975D01*
X0277437Y0072975D01*
X0275837Y0071375D01*
X0268100Y0071375D01*
X0266500Y0069775D01*
X0258762Y0069775D01*
X0257162Y0068175D01*
X0249425Y0068175D01*
X0248175Y0066925D01*
X0248175Y0063175D01*
X0247162Y0068175D02*
X0248762Y0069775D01*
X0256500Y0069775D01*
X0258100Y0071375D01*
X0265837Y0071375D01*
X0267437Y0072975D01*
X0275174Y0072975D01*
X0276774Y0074575D01*
X0278175Y0074575D01*
X0280175Y0076575D01*
X0280175Y0156175D01*
X0279186Y0157164D01*
X0279186Y0158175D01*
X0279425Y0068175D02*
X0281300Y0068175D01*
X0279425Y0068175D02*
X0278175Y0066925D01*
X0278175Y0063175D01*
X0267162Y0068175D02*
X0259425Y0068175D01*
X0258175Y0066925D01*
X0258175Y0063175D01*
X0247162Y0068175D02*
X0239425Y0068175D01*
X0238175Y0066925D01*
X0238175Y0063175D01*
D18*
X0238549Y0139336D02*
X0222801Y0139336D01*
D19*
X0224397Y0137836D02*
X0236953Y0137836D01*
X0237642Y0137147D01*
X0239456Y0137147D01*
X0240738Y0138430D01*
X0240738Y0140243D01*
X0239456Y0141525D01*
X0237642Y0141525D01*
X0236953Y0140836D01*
X0224397Y0140836D01*
X0223708Y0141525D01*
X0221894Y0141525D01*
X0220612Y0140243D01*
X0220612Y0138430D01*
X0221894Y0137147D01*
X0223708Y0137147D01*
X0224397Y0137836D01*
X0224231Y0137671D02*
X0237119Y0137671D01*
X0239979Y0137671D02*
X0278775Y0137671D01*
X0278775Y0137073D02*
X0219575Y0137073D01*
X0219575Y0137671D02*
X0221371Y0137671D01*
X0220772Y0138270D02*
X0219575Y0138270D01*
X0219575Y0138868D02*
X0220612Y0138868D01*
X0220612Y0139467D02*
X0219575Y0139467D01*
X0219575Y0140065D02*
X0220612Y0140065D01*
X0221033Y0140664D02*
X0219575Y0140664D01*
X0219575Y0141262D02*
X0221631Y0141262D01*
X0219575Y0141861D02*
X0278775Y0141861D01*
X0278775Y0142459D02*
X0219575Y0142459D01*
X0219575Y0143058D02*
X0278775Y0143058D01*
X0278775Y0143656D02*
X0219575Y0143656D01*
X0219575Y0144255D02*
X0278775Y0144255D01*
X0278775Y0144853D02*
X0219575Y0144853D01*
X0219575Y0145452D02*
X0278775Y0145452D01*
X0278775Y0146050D02*
X0219575Y0146050D01*
X0219575Y0146649D02*
X0278775Y0146649D01*
X0278775Y0147247D02*
X0219575Y0147247D01*
X0219575Y0147846D02*
X0278775Y0147846D01*
X0278775Y0148444D02*
X0219575Y0148444D01*
X0219575Y0149043D02*
X0278775Y0149043D01*
X0278775Y0149641D02*
X0219575Y0149641D01*
X0219575Y0150240D02*
X0278775Y0150240D01*
X0278775Y0150838D02*
X0219575Y0150838D01*
X0219575Y0151437D02*
X0278775Y0151437D01*
X0278775Y0152035D02*
X0219575Y0152035D01*
X0219575Y0152634D02*
X0278775Y0152634D01*
X0278775Y0153232D02*
X0219575Y0153232D01*
X0219575Y0153831D02*
X0278775Y0153831D01*
X0278775Y0154429D02*
X0219575Y0154429D01*
X0219575Y0155028D02*
X0278775Y0155028D01*
X0278775Y0155595D02*
X0278775Y0077155D01*
X0277595Y0075975D01*
X0276194Y0075975D01*
X0275374Y0075155D01*
X0274594Y0074375D01*
X0266857Y0074375D01*
X0266037Y0073555D01*
X0266037Y0073555D01*
X0265257Y0072775D01*
X0257520Y0072775D01*
X0256700Y0071955D01*
X0256700Y0071955D01*
X0255920Y0071175D01*
X0248182Y0071175D01*
X0246582Y0069575D01*
X0238845Y0069575D01*
X0238025Y0068755D01*
X0236775Y0067505D01*
X0236775Y0067141D01*
X0235796Y0066736D01*
X0234614Y0065554D01*
X0233975Y0064010D01*
X0233975Y0062340D01*
X0234614Y0060796D01*
X0235796Y0059614D01*
X0237340Y0058975D01*
X0239010Y0058975D01*
X0240554Y0059614D01*
X0241736Y0060796D01*
X0242375Y0062340D01*
X0242375Y0064010D01*
X0241736Y0065554D01*
X0240554Y0066736D01*
X0240459Y0066775D01*
X0245891Y0066775D01*
X0245796Y0066736D01*
X0244614Y0065554D01*
X0243975Y0064010D01*
X0243975Y0062340D01*
X0244614Y0060796D01*
X0245796Y0059614D01*
X0247340Y0058975D01*
X0249010Y0058975D01*
X0250554Y0059614D01*
X0251736Y0060796D01*
X0252375Y0062340D01*
X0252375Y0064010D01*
X0251736Y0065554D01*
X0250554Y0066736D01*
X0250459Y0066775D01*
X0255891Y0066775D01*
X0255796Y0066736D01*
X0254614Y0065554D01*
X0253975Y0064010D01*
X0253975Y0062340D01*
X0254614Y0060796D01*
X0255796Y0059614D01*
X0257340Y0058975D01*
X0259010Y0058975D01*
X0260554Y0059614D01*
X0261736Y0060796D01*
X0262375Y0062340D01*
X0262375Y0064010D01*
X0261736Y0065554D01*
X0260554Y0066736D01*
X0260459Y0066775D01*
X0265891Y0066775D01*
X0265796Y0066736D01*
X0264614Y0065554D01*
X0263975Y0064010D01*
X0263975Y0062340D01*
X0264614Y0060796D01*
X0265796Y0059614D01*
X0267340Y0058975D01*
X0269010Y0058975D01*
X0270554Y0059614D01*
X0271736Y0060796D01*
X0272375Y0062340D01*
X0272375Y0064010D01*
X0271736Y0065554D01*
X0270554Y0066736D01*
X0270459Y0066775D01*
X0275891Y0066775D01*
X0275796Y0066736D01*
X0274614Y0065554D01*
X0273975Y0064010D01*
X0273975Y0062340D01*
X0274614Y0060796D01*
X0275796Y0059614D01*
X0277340Y0058975D01*
X0279010Y0058975D01*
X0280554Y0059614D01*
X0281736Y0060796D01*
X0282375Y0062340D01*
X0282375Y0064010D01*
X0281736Y0065554D01*
X0280554Y0066736D01*
X0280459Y0066775D01*
X0281880Y0066775D01*
X0286775Y0071670D01*
X0286775Y0067141D01*
X0285796Y0066736D01*
X0284614Y0065554D01*
X0283975Y0064010D01*
X0283975Y0062340D01*
X0284614Y0060796D01*
X0285796Y0059614D01*
X0287340Y0058975D01*
X0289010Y0058975D01*
X0290554Y0059614D01*
X0291736Y0060796D01*
X0292375Y0062340D01*
X0292375Y0064010D01*
X0291736Y0065554D01*
X0290554Y0066736D01*
X0289575Y0067141D01*
X0289575Y0164695D01*
X0289800Y0164470D01*
X0296058Y0164470D01*
X0296585Y0164997D01*
X0296585Y0165963D01*
X0296733Y0165963D01*
X0298975Y0163721D01*
X0298975Y0140821D01*
X0298486Y0140332D01*
X0298486Y0138518D01*
X0298975Y0138029D01*
X0298975Y0095129D01*
X0295460Y0091614D01*
X0294768Y0091614D01*
X0293486Y0090332D01*
X0293486Y0088518D01*
X0294768Y0087236D01*
X0296582Y0087236D01*
X0297864Y0088518D01*
X0297864Y0089210D01*
X0301379Y0092725D01*
X0302375Y0093721D01*
X0302375Y0138029D01*
X0302864Y0138518D01*
X0302864Y0140332D01*
X0302375Y0140821D01*
X0302375Y0165129D01*
X0299841Y0167663D01*
X0301379Y0169201D01*
X0302375Y0170197D01*
X0302375Y0186287D01*
X0302746Y0186658D01*
X0302746Y0188471D01*
X0302375Y0188842D01*
X0302375Y0212856D01*
X0301379Y0213851D01*
X0300067Y0215163D01*
X0301379Y0216475D01*
X0302375Y0217471D01*
X0302375Y0221779D01*
X0302864Y0222268D01*
X0302864Y0224082D01*
X0302375Y0224571D01*
X0302375Y0260129D01*
X0298141Y0264363D01*
X0296693Y0264363D01*
X0296693Y0265792D01*
X0296166Y0266319D01*
X0289909Y0266319D01*
X0289381Y0265792D01*
X0289381Y0264363D01*
X0283218Y0264363D01*
X0283223Y0264369D01*
X0284043Y0265189D01*
X0284043Y0266200D01*
X0284266Y0266200D01*
X0284793Y0266727D01*
X0284793Y0271473D01*
X0284266Y0272000D01*
X0281021Y0272000D01*
X0280494Y0271473D01*
X0280494Y0266727D01*
X0280607Y0266614D01*
X0279143Y0266614D01*
X0277861Y0265332D01*
X0277861Y0263518D01*
X0279004Y0262375D01*
X0273879Y0262375D01*
X0272375Y0263879D01*
X0272375Y0274279D01*
X0272864Y0274768D01*
X0272864Y0276582D01*
X0271582Y0277864D01*
X0270890Y0277864D01*
X0270129Y0278625D01*
X0256221Y0278625D01*
X0255989Y0278393D01*
X0255989Y0279082D01*
X0254707Y0280364D01*
X0252893Y0280364D01*
X0252188Y0279658D01*
X0251831Y0279658D01*
X0251831Y0281087D01*
X0251304Y0281614D01*
X0245046Y0281614D01*
X0244519Y0281087D01*
X0244519Y0274830D01*
X0245046Y0274303D01*
X0251304Y0274303D01*
X0251831Y0274830D01*
X0251831Y0276258D01*
X0252621Y0276258D01*
X0252893Y0275986D01*
X0253975Y0275986D01*
X0253975Y0266379D01*
X0252687Y0265092D01*
X0251831Y0265092D01*
X0251831Y0266520D01*
X0251304Y0267047D01*
X0245046Y0267047D01*
X0244519Y0266520D01*
X0244519Y0260263D01*
X0245046Y0259736D01*
X0251304Y0259736D01*
X0251831Y0260263D01*
X0251831Y0261692D01*
X0254096Y0261692D01*
X0256379Y0263975D01*
X0256379Y0263975D01*
X0257375Y0264971D01*
X0257375Y0274971D01*
X0257629Y0275225D01*
X0268486Y0275225D01*
X0268486Y0274768D01*
X0268975Y0274279D01*
X0268975Y0262471D01*
X0271475Y0259971D01*
X0271475Y0259971D01*
X0271871Y0259575D01*
X0240630Y0259575D01*
X0238315Y0261890D01*
X0238315Y0266338D01*
X0238538Y0266338D01*
X0239065Y0266865D01*
X0239065Y0271611D01*
X0238538Y0272138D01*
X0235292Y0272138D01*
X0234765Y0271611D01*
X0234765Y0266865D01*
X0235292Y0266338D01*
X0235515Y0266338D01*
X0235515Y0260730D01*
X0236335Y0259910D01*
X0239470Y0256775D01*
X0280018Y0256775D01*
X0196250Y0256775D01*
X0196250Y0257373D02*
X0238872Y0257373D01*
X0238273Y0257972D02*
X0196250Y0257972D01*
X0196250Y0258570D02*
X0237675Y0258570D01*
X0237076Y0259169D02*
X0196250Y0259169D01*
X0196250Y0259767D02*
X0236478Y0259767D01*
X0235879Y0260366D02*
X0196250Y0260366D01*
X0196250Y0260964D02*
X0235515Y0260964D01*
X0235515Y0261563D02*
X0196250Y0261563D01*
X0196250Y0262161D02*
X0235515Y0262161D01*
X0235515Y0262760D02*
X0196250Y0262760D01*
X0196250Y0263358D02*
X0235515Y0263358D01*
X0235515Y0263957D02*
X0196250Y0263957D01*
X0196250Y0264555D02*
X0235515Y0264555D01*
X0235515Y0265154D02*
X0196250Y0265154D01*
X0196250Y0265752D02*
X0235515Y0265752D01*
X0235279Y0266351D02*
X0231636Y0266351D01*
X0231725Y0266440D02*
X0231896Y0266736D01*
X0231985Y0267067D01*
X0231985Y0268938D01*
X0229735Y0268938D01*
X0229735Y0269538D01*
X0231985Y0269538D01*
X0231985Y0271409D01*
X0231896Y0271740D01*
X0231725Y0272036D01*
X0231483Y0272278D01*
X0231187Y0272449D01*
X0230856Y0272538D01*
X0229735Y0272538D01*
X0229735Y0269538D01*
X0229135Y0269538D01*
X0229135Y0272538D01*
X0228014Y0272538D01*
X0227683Y0272449D01*
X0227387Y0272278D01*
X0227145Y0272036D01*
X0226973Y0271740D01*
X0226885Y0271409D01*
X0226885Y0269538D01*
X0229135Y0269538D01*
X0229135Y0268938D01*
X0229735Y0268938D01*
X0229735Y0265938D01*
X0230856Y0265938D01*
X0231187Y0266027D01*
X0231483Y0266198D01*
X0231725Y0266440D01*
X0231953Y0266949D02*
X0234765Y0266949D01*
X0234765Y0267548D02*
X0231985Y0267548D01*
X0231985Y0268147D02*
X0234765Y0268147D01*
X0234765Y0268745D02*
X0231985Y0268745D01*
X0231985Y0269942D02*
X0234765Y0269942D01*
X0234765Y0269344D02*
X0229735Y0269344D01*
X0229735Y0269942D02*
X0229135Y0269942D01*
X0229135Y0269344D02*
X0196250Y0269344D01*
X0196250Y0269942D02*
X0226885Y0269942D01*
X0226885Y0270541D02*
X0196250Y0270541D01*
X0196250Y0271139D02*
X0226885Y0271139D01*
X0226973Y0271738D02*
X0196250Y0271738D01*
X0196250Y0272336D02*
X0227487Y0272336D01*
X0229135Y0272336D02*
X0229735Y0272336D01*
X0229735Y0271738D02*
X0229135Y0271738D01*
X0229135Y0271139D02*
X0229735Y0271139D01*
X0229735Y0270541D02*
X0229135Y0270541D01*
X0229135Y0268938D02*
X0226885Y0268938D01*
X0226885Y0267067D01*
X0226973Y0266736D01*
X0227145Y0266440D01*
X0227387Y0266198D01*
X0227683Y0266027D01*
X0228014Y0265938D01*
X0229135Y0265938D01*
X0229135Y0268938D01*
X0229135Y0268745D02*
X0229735Y0268745D01*
X0229735Y0268147D02*
X0229135Y0268147D01*
X0229135Y0267548D02*
X0229735Y0267548D01*
X0229735Y0266949D02*
X0229135Y0266949D01*
X0229135Y0266351D02*
X0229735Y0266351D01*
X0227233Y0266351D02*
X0196250Y0266351D01*
X0196250Y0266949D02*
X0226916Y0266949D01*
X0226885Y0267548D02*
X0196250Y0267548D01*
X0196250Y0268147D02*
X0226885Y0268147D01*
X0226885Y0268745D02*
X0196250Y0268745D01*
X0195050Y0268745D02*
X0106975Y0268745D01*
X0106975Y0268147D02*
X0195050Y0268147D01*
X0195050Y0267548D02*
X0106975Y0267548D01*
X0106975Y0266949D02*
X0195050Y0266949D01*
X0195050Y0266351D02*
X0106975Y0266351D01*
X0106975Y0265752D02*
X0195050Y0265752D01*
X0195050Y0265154D02*
X0106975Y0265154D01*
X0106975Y0264555D02*
X0195050Y0264555D01*
X0195050Y0263957D02*
X0106975Y0263957D01*
X0106975Y0263358D02*
X0195050Y0263358D01*
X0195050Y0262760D02*
X0106975Y0262760D01*
X0106975Y0262161D02*
X0195050Y0262161D01*
X0195050Y0261563D02*
X0106975Y0261563D01*
X0106975Y0260964D02*
X0195050Y0260964D01*
X0195050Y0260366D02*
X0106975Y0260366D01*
X0106975Y0259767D02*
X0195050Y0259767D01*
X0195050Y0259169D02*
X0106975Y0259169D01*
X0106975Y0258570D02*
X0195050Y0258570D01*
X0195050Y0257972D02*
X0106975Y0257972D01*
X0106975Y0257373D02*
X0195050Y0257373D01*
X0195050Y0256775D02*
X0106975Y0256775D01*
X0106975Y0256176D02*
X0195050Y0256176D01*
X0195050Y0255578D02*
X0106975Y0255578D01*
X0106975Y0254979D02*
X0195050Y0254979D01*
X0195050Y0254381D02*
X0106975Y0254381D01*
X0106975Y0253782D02*
X0195050Y0253782D01*
X0195050Y0253184D02*
X0106975Y0253184D01*
X0106975Y0252585D02*
X0195050Y0252585D01*
X0195050Y0251987D02*
X0106975Y0251987D01*
X0106975Y0251388D02*
X0195050Y0251388D01*
X0195050Y0250790D02*
X0106975Y0250790D01*
X0106975Y0250191D02*
X0195050Y0250191D01*
X0195050Y0249593D02*
X0106975Y0249593D01*
X0106975Y0248994D02*
X0195050Y0248994D01*
X0195050Y0248396D02*
X0106975Y0248396D01*
X0106975Y0247797D02*
X0195050Y0247797D01*
X0195050Y0247199D02*
X0106975Y0247199D01*
X0106975Y0246600D02*
X0195050Y0246600D01*
X0195050Y0246002D02*
X0106975Y0246002D01*
X0106975Y0245403D02*
X0195050Y0245403D01*
X0195050Y0244805D02*
X0106975Y0244805D01*
X0106975Y0244206D02*
X0195050Y0244206D01*
X0195050Y0243608D02*
X0106975Y0243608D01*
X0106975Y0243009D02*
X0195050Y0243009D01*
X0195050Y0242411D02*
X0106975Y0242411D01*
X0106975Y0241812D02*
X0195050Y0241812D01*
X0195050Y0241214D02*
X0106975Y0241214D01*
X0106975Y0240615D02*
X0126894Y0240615D01*
X0127268Y0240989D02*
X0125986Y0239707D01*
X0125986Y0237893D01*
X0126775Y0237104D01*
X0126775Y0234246D01*
X0125986Y0233457D01*
X0125986Y0231643D01*
X0127268Y0230361D01*
X0128384Y0230361D01*
X0130525Y0228220D01*
X0131345Y0227400D01*
X0173220Y0227400D01*
X0176775Y0223845D01*
X0176775Y0214246D01*
X0175986Y0213457D01*
X0175986Y0211643D01*
X0176775Y0210854D01*
X0176775Y0175630D01*
X0173220Y0172075D01*
X0159246Y0172075D01*
X0158457Y0172864D01*
X0157341Y0172864D01*
X0155200Y0175005D01*
X0154380Y0175825D01*
X0134871Y0175825D01*
X0134082Y0176614D01*
X0132268Y0176614D01*
X0130986Y0175332D01*
X0130986Y0173518D01*
X0132268Y0172236D01*
X0134082Y0172236D01*
X0134871Y0173025D01*
X0153220Y0173025D01*
X0154320Y0171925D01*
X0130200Y0171925D01*
X0130200Y0176629D01*
X0133413Y0179842D01*
X0134143Y0179111D01*
X0135957Y0179111D01*
X0137239Y0180393D01*
X0137239Y0182207D01*
X0135957Y0183489D01*
X0134143Y0183489D01*
X0133354Y0182700D01*
X0132311Y0182700D01*
X0128900Y0179289D01*
X0124963Y0183225D01*
X0119971Y0183225D01*
X0119082Y0184114D01*
X0117268Y0184114D01*
X0115986Y0182832D01*
X0115986Y0181018D01*
X0117268Y0179736D01*
X0119082Y0179736D01*
X0119971Y0180625D01*
X0123887Y0180625D01*
X0127400Y0177112D01*
X0127400Y0171925D01*
X0124007Y0171925D01*
X0124114Y0172032D01*
X0124114Y0173846D01*
X0122832Y0175128D01*
X0121018Y0175128D01*
X0119736Y0173846D01*
X0119736Y0172032D01*
X0119843Y0171925D01*
X0106975Y0171925D01*
X0106975Y0197600D01*
X0126770Y0197600D01*
X0127595Y0196775D01*
X0133354Y0196775D01*
X0134143Y0195986D01*
X0135957Y0195986D01*
X0137239Y0197268D01*
X0137239Y0199082D01*
X0135957Y0200364D01*
X0134143Y0200364D01*
X0133354Y0199575D01*
X0128755Y0199575D01*
X0128750Y0199580D01*
X0128750Y0228047D01*
X0128047Y0228750D01*
X0106975Y0228750D01*
X0106975Y0284022D01*
X0107056Y0285050D01*
X0107692Y0287006D01*
X0108901Y0288670D01*
X0110565Y0289879D01*
X0112521Y0290514D01*
X0113549Y0290595D01*
X0195050Y0290595D01*
X0195050Y0179575D01*
X0182996Y0179575D01*
X0182207Y0180364D01*
X0180393Y0180364D01*
X0179575Y0179546D01*
X0179575Y0210854D01*
X0180364Y0211643D01*
X0180364Y0213457D01*
X0179575Y0214246D01*
X0179575Y0225005D01*
X0178755Y0225825D01*
X0178755Y0225825D01*
X0174380Y0230200D01*
X0132505Y0230200D01*
X0130364Y0232341D01*
X0130364Y0233457D01*
X0129575Y0234246D01*
X0129575Y0237104D01*
X0130364Y0237893D01*
X0130364Y0239707D01*
X0129082Y0240989D01*
X0127268Y0240989D01*
X0126296Y0240016D02*
X0106975Y0240016D01*
X0106975Y0239418D02*
X0125986Y0239418D01*
X0125986Y0238819D02*
X0106975Y0238819D01*
X0106975Y0238221D02*
X0125986Y0238221D01*
X0126257Y0237622D02*
X0106975Y0237622D01*
X0106975Y0237024D02*
X0126775Y0237024D01*
X0126775Y0236425D02*
X0106975Y0236425D01*
X0106975Y0235827D02*
X0126775Y0235827D01*
X0126775Y0235228D02*
X0106975Y0235228D01*
X0106975Y0234630D02*
X0126775Y0234630D01*
X0126561Y0234031D02*
X0106975Y0234031D01*
X0106975Y0233433D02*
X0125986Y0233433D01*
X0125986Y0232834D02*
X0106975Y0232834D01*
X0106975Y0232236D02*
X0125986Y0232236D01*
X0125992Y0231637D02*
X0106975Y0231637D01*
X0106975Y0231039D02*
X0126591Y0231039D01*
X0127189Y0230440D02*
X0106975Y0230440D01*
X0106975Y0229842D02*
X0128903Y0229842D01*
X0129502Y0229243D02*
X0106975Y0229243D01*
X0106975Y0227550D02*
X0127550Y0227550D01*
X0127550Y0198800D01*
X0106975Y0198800D01*
X0106975Y0227550D01*
X0106975Y0227448D02*
X0127550Y0227448D01*
X0127550Y0226849D02*
X0106975Y0226849D01*
X0106975Y0226251D02*
X0127550Y0226251D01*
X0127550Y0225652D02*
X0106975Y0225652D01*
X0106975Y0225054D02*
X0127550Y0225054D01*
X0127550Y0224455D02*
X0106975Y0224455D01*
X0106975Y0223857D02*
X0127550Y0223857D01*
X0127550Y0223258D02*
X0106975Y0223258D01*
X0106975Y0222660D02*
X0127550Y0222660D01*
X0127550Y0222061D02*
X0106975Y0222061D01*
X0106975Y0221463D02*
X0127550Y0221463D01*
X0127550Y0220864D02*
X0106975Y0220864D01*
X0106975Y0220266D02*
X0127550Y0220266D01*
X0127550Y0219667D02*
X0106975Y0219667D01*
X0106975Y0219069D02*
X0127550Y0219069D01*
X0127550Y0218470D02*
X0106975Y0218470D01*
X0106975Y0217872D02*
X0127550Y0217872D01*
X0127550Y0217273D02*
X0106975Y0217273D01*
X0106975Y0216675D02*
X0127550Y0216675D01*
X0127550Y0216076D02*
X0106975Y0216076D01*
X0106975Y0215478D02*
X0127550Y0215478D01*
X0127550Y0214879D02*
X0106975Y0214879D01*
X0106975Y0214280D02*
X0127550Y0214280D01*
X0127550Y0213682D02*
X0106975Y0213682D01*
X0106975Y0213083D02*
X0127550Y0213083D01*
X0127550Y0212485D02*
X0106975Y0212485D01*
X0106975Y0211886D02*
X0127550Y0211886D01*
X0127550Y0211288D02*
X0106975Y0211288D01*
X0106975Y0210689D02*
X0127550Y0210689D01*
X0127550Y0210091D02*
X0106975Y0210091D01*
X0106975Y0209492D02*
X0127550Y0209492D01*
X0127550Y0208894D02*
X0106975Y0208894D01*
X0106975Y0208295D02*
X0127550Y0208295D01*
X0127550Y0207697D02*
X0106975Y0207697D01*
X0106975Y0207098D02*
X0127550Y0207098D01*
X0127550Y0206500D02*
X0106975Y0206500D01*
X0106975Y0205901D02*
X0127550Y0205901D01*
X0127550Y0205303D02*
X0106975Y0205303D01*
X0106975Y0204704D02*
X0127550Y0204704D01*
X0127550Y0204106D02*
X0106975Y0204106D01*
X0106975Y0203507D02*
X0127550Y0203507D01*
X0127550Y0202909D02*
X0106975Y0202909D01*
X0106975Y0202310D02*
X0127550Y0202310D01*
X0127550Y0201712D02*
X0106975Y0201712D01*
X0106975Y0201113D02*
X0127550Y0201113D01*
X0127550Y0200515D02*
X0106975Y0200515D01*
X0106975Y0199916D02*
X0127550Y0199916D01*
X0127550Y0199318D02*
X0106975Y0199318D01*
X0106975Y0197522D02*
X0126848Y0197522D01*
X0127446Y0196924D02*
X0106975Y0196924D01*
X0106975Y0196325D02*
X0133804Y0196325D01*
X0136296Y0196325D02*
X0176775Y0196325D01*
X0176775Y0195727D02*
X0106975Y0195727D01*
X0106975Y0195128D02*
X0176775Y0195128D01*
X0176775Y0194530D02*
X0106975Y0194530D01*
X0106975Y0193931D02*
X0176775Y0193931D01*
X0176775Y0193333D02*
X0106975Y0193333D01*
X0106975Y0192734D02*
X0176775Y0192734D01*
X0176775Y0192136D02*
X0106975Y0192136D01*
X0106975Y0191537D02*
X0176775Y0191537D01*
X0176775Y0190939D02*
X0106975Y0190939D01*
X0106975Y0190340D02*
X0176775Y0190340D01*
X0176775Y0189742D02*
X0106975Y0189742D01*
X0106975Y0189143D02*
X0176775Y0189143D01*
X0176775Y0188545D02*
X0106975Y0188545D01*
X0106975Y0187946D02*
X0176775Y0187946D01*
X0176775Y0187347D02*
X0106975Y0187347D01*
X0106975Y0186749D02*
X0176775Y0186749D01*
X0176775Y0186150D02*
X0106975Y0186150D01*
X0106975Y0185552D02*
X0176775Y0185552D01*
X0176775Y0184953D02*
X0106975Y0184953D01*
X0106975Y0184355D02*
X0176775Y0184355D01*
X0176775Y0183756D02*
X0119439Y0183756D01*
X0116911Y0183756D02*
X0106975Y0183756D01*
X0106975Y0183158D02*
X0116312Y0183158D01*
X0115986Y0182559D02*
X0106975Y0182559D01*
X0106975Y0181961D02*
X0115986Y0181961D01*
X0115986Y0181362D02*
X0114404Y0181362D01*
X0114252Y0181412D02*
X0113537Y0181525D01*
X0113475Y0181525D01*
X0113475Y0177225D01*
X0117775Y0177225D01*
X0117775Y0177287D01*
X0117662Y0178002D01*
X0117438Y0178691D01*
X0117109Y0179336D01*
X0116684Y0179922D01*
X0116172Y0180434D01*
X0115586Y0180859D01*
X0114941Y0181188D01*
X0114252Y0181412D01*
X0113475Y0181362D02*
X0112875Y0181362D01*
X0112875Y0181525D02*
X0112813Y0181525D01*
X0112098Y0181412D01*
X0111409Y0181188D01*
X0110764Y0180859D01*
X0110178Y0180434D01*
X0109666Y0179922D01*
X0109241Y0179336D01*
X0108912Y0178691D01*
X0108688Y0178002D01*
X0108575Y0177287D01*
X0108575Y0177225D01*
X0112875Y0177225D01*
X0112875Y0181525D01*
X0112875Y0180764D02*
X0113475Y0180764D01*
X0113475Y0180165D02*
X0112875Y0180165D01*
X0112875Y0179567D02*
X0113475Y0179567D01*
X0113475Y0178968D02*
X0112875Y0178968D01*
X0112875Y0178370D02*
X0113475Y0178370D01*
X0113475Y0177771D02*
X0112875Y0177771D01*
X0112875Y0177225D02*
X0113475Y0177225D01*
X0113475Y0176625D01*
X0117775Y0176625D01*
X0117775Y0176563D01*
X0117662Y0175848D01*
X0117438Y0175159D01*
X0117109Y0174514D01*
X0116684Y0173928D01*
X0116172Y0173416D01*
X0115586Y0172991D01*
X0114941Y0172662D01*
X0114252Y0172438D01*
X0113537Y0172325D01*
X0113475Y0172325D01*
X0113475Y0176625D01*
X0112875Y0176625D01*
X0112875Y0172325D01*
X0112813Y0172325D01*
X0112098Y0172438D01*
X0111409Y0172662D01*
X0110764Y0172991D01*
X0110178Y0173416D01*
X0109666Y0173928D01*
X0109241Y0174514D01*
X0108912Y0175159D01*
X0108688Y0175848D01*
X0108575Y0176563D01*
X0108575Y0176625D01*
X0112875Y0176625D01*
X0112875Y0177225D01*
X0112875Y0177173D02*
X0106975Y0177173D01*
X0106975Y0177771D02*
X0108652Y0177771D01*
X0108808Y0178370D02*
X0106975Y0178370D01*
X0106975Y0178968D02*
X0109053Y0178968D01*
X0109409Y0179567D02*
X0106975Y0179567D01*
X0106975Y0180165D02*
X0109910Y0180165D01*
X0110633Y0180764D02*
X0106975Y0180764D01*
X0106975Y0181362D02*
X0111946Y0181362D01*
X0115717Y0180764D02*
X0116240Y0180764D01*
X0116440Y0180165D02*
X0116839Y0180165D01*
X0116941Y0179567D02*
X0124945Y0179567D01*
X0125543Y0178968D02*
X0117297Y0178968D01*
X0117542Y0178370D02*
X0126142Y0178370D01*
X0126740Y0177771D02*
X0117698Y0177771D01*
X0117775Y0176574D02*
X0127400Y0176574D01*
X0127400Y0175976D02*
X0117682Y0175976D01*
X0117509Y0175377D02*
X0127400Y0175377D01*
X0127400Y0174779D02*
X0123181Y0174779D01*
X0123779Y0174180D02*
X0127400Y0174180D01*
X0127400Y0173582D02*
X0124114Y0173582D01*
X0124114Y0172983D02*
X0127400Y0172983D01*
X0127400Y0172385D02*
X0124114Y0172385D01*
X0123325Y0170725D02*
X0155361Y0170725D01*
X0155361Y0169768D01*
X0156643Y0168486D01*
X0158457Y0168486D01*
X0159246Y0169275D01*
X0174380Y0169275D01*
X0175830Y0170725D01*
X0195547Y0170725D01*
X0196250Y0171428D01*
X0196250Y0176775D01*
X0198089Y0176775D01*
X0196990Y0175676D01*
X0196990Y0173863D01*
X0197479Y0173374D01*
X0197479Y0151852D01*
X0194252Y0148625D01*
X0153254Y0148625D01*
X0152239Y0149640D01*
X0152239Y0150332D01*
X0150957Y0151614D01*
X0149143Y0151614D01*
X0147861Y0150332D01*
X0147861Y0148518D01*
X0149143Y0147236D01*
X0149835Y0147236D01*
X0150850Y0146221D01*
X0151846Y0145225D01*
X0195661Y0145225D01*
X0199883Y0149447D01*
X0200879Y0150443D01*
X0200879Y0173374D01*
X0200927Y0173422D01*
X0200927Y0171894D01*
X0201416Y0171405D01*
X0201416Y0167307D01*
X0200927Y0166818D01*
X0200927Y0165005D01*
X0202209Y0163722D01*
X0204023Y0163722D01*
X0205305Y0165005D01*
X0205305Y0166818D01*
X0204816Y0167307D01*
X0204816Y0171405D01*
X0205305Y0171894D01*
X0205305Y0173708D01*
X0204023Y0174990D01*
X0202209Y0174990D01*
X0201368Y0174149D01*
X0201368Y0175676D01*
X0200269Y0176775D01*
X0210720Y0176775D01*
X0216775Y0170720D01*
X0216775Y0067141D01*
X0215796Y0066736D01*
X0214614Y0065554D01*
X0213975Y0064010D01*
X0213975Y0062340D01*
X0214614Y0060796D01*
X0215796Y0059614D01*
X0217340Y0058975D01*
X0219010Y0058975D01*
X0220554Y0059614D01*
X0221736Y0060796D01*
X0222375Y0062340D01*
X0222375Y0064010D01*
X0221736Y0065554D01*
X0220554Y0066736D01*
X0219575Y0067141D01*
X0219575Y0171880D01*
X0218755Y0172700D01*
X0212700Y0178755D01*
X0211880Y0179575D01*
X0200190Y0179575D01*
X0201368Y0180753D01*
X0201368Y0182566D01*
X0200879Y0183055D01*
X0200879Y0190798D01*
X0204804Y0194723D01*
X0256970Y0194723D01*
X0260907Y0198660D01*
X0261903Y0199656D01*
X0261903Y0213728D01*
X0262392Y0214217D01*
X0262392Y0216031D01*
X0261109Y0217313D01*
X0259296Y0217313D01*
X0258625Y0216642D01*
X0258625Y0216779D01*
X0259114Y0217268D01*
X0259114Y0219082D01*
X0257995Y0220200D01*
X0265420Y0220200D01*
X0267400Y0218220D01*
X0267400Y0213430D01*
X0267239Y0213591D01*
X0267239Y0214707D01*
X0265957Y0215989D01*
X0264143Y0215989D01*
X0262861Y0214707D01*
X0262861Y0212893D01*
X0264143Y0211611D01*
X0265259Y0211611D01*
X0265800Y0211070D01*
X0265800Y0176205D01*
X0265046Y0176958D01*
X0263233Y0176958D01*
X0261951Y0175676D01*
X0261951Y0173863D01*
X0263233Y0172581D01*
X0264200Y0172581D01*
X0264200Y0166895D01*
X0265020Y0166075D01*
X0270645Y0160450D01*
X0278845Y0160450D01*
X0278931Y0160364D01*
X0278279Y0160364D01*
X0276997Y0159082D01*
X0276997Y0157268D01*
X0278279Y0155986D01*
X0278384Y0155986D01*
X0278775Y0155595D01*
X0278744Y0155626D02*
X0219575Y0155626D01*
X0219575Y0156225D02*
X0278040Y0156225D01*
X0277442Y0156823D02*
X0219575Y0156823D01*
X0219575Y0157422D02*
X0276997Y0157422D01*
X0276997Y0158020D02*
X0219575Y0158020D01*
X0219575Y0158619D02*
X0276997Y0158619D01*
X0277133Y0159217D02*
X0219575Y0159217D01*
X0219575Y0159816D02*
X0277731Y0159816D01*
X0278881Y0160414D02*
X0219575Y0160414D01*
X0219575Y0161013D02*
X0270082Y0161013D01*
X0269483Y0161612D02*
X0219575Y0161612D01*
X0219575Y0162210D02*
X0268885Y0162210D01*
X0268286Y0162809D02*
X0219575Y0162809D01*
X0219575Y0163407D02*
X0267688Y0163407D01*
X0267089Y0164006D02*
X0223007Y0164006D01*
X0222723Y0163722D02*
X0224006Y0165005D01*
X0224006Y0166818D01*
X0223517Y0167307D01*
X0223517Y0170421D01*
X0224006Y0170910D01*
X0224006Y0172723D01*
X0222723Y0174006D01*
X0220910Y0174006D01*
X0219628Y0172723D01*
X0219628Y0170910D01*
X0220117Y0170421D01*
X0220117Y0167307D01*
X0219628Y0166818D01*
X0219628Y0165005D01*
X0220910Y0163722D01*
X0222723Y0163722D01*
X0223605Y0164604D02*
X0266491Y0164604D01*
X0265892Y0165203D02*
X0224006Y0165203D01*
X0224006Y0165801D02*
X0265294Y0165801D01*
X0265020Y0166075D02*
X0265020Y0166075D01*
X0264695Y0166400D02*
X0224006Y0166400D01*
X0223826Y0166998D02*
X0264200Y0166998D01*
X0264200Y0167597D02*
X0223517Y0167597D01*
X0223517Y0168195D02*
X0264200Y0168195D01*
X0264200Y0168794D02*
X0223517Y0168794D01*
X0223517Y0169392D02*
X0264200Y0169392D01*
X0264200Y0169991D02*
X0223517Y0169991D01*
X0223685Y0170589D02*
X0264200Y0170589D01*
X0264200Y0171188D02*
X0224006Y0171188D01*
X0224006Y0171786D02*
X0264200Y0171786D01*
X0264200Y0172385D02*
X0224006Y0172385D01*
X0223746Y0172983D02*
X0262830Y0172983D01*
X0262232Y0173582D02*
X0223147Y0173582D01*
X0220486Y0173582D02*
X0217873Y0173582D01*
X0217275Y0174180D02*
X0261951Y0174180D01*
X0261951Y0174779D02*
X0216676Y0174779D01*
X0216078Y0175377D02*
X0261951Y0175377D01*
X0262250Y0175976D02*
X0215479Y0175976D01*
X0214881Y0176574D02*
X0262849Y0176574D01*
X0265430Y0176574D02*
X0265800Y0176574D01*
X0265800Y0177173D02*
X0214282Y0177173D01*
X0213684Y0177771D02*
X0265800Y0177771D01*
X0265800Y0178370D02*
X0213085Y0178370D01*
X0212487Y0178968D02*
X0265800Y0178968D01*
X0265800Y0179567D02*
X0211888Y0179567D01*
X0210921Y0176574D02*
X0200470Y0176574D01*
X0201068Y0175976D02*
X0211519Y0175976D01*
X0212118Y0175377D02*
X0201368Y0175377D01*
X0201368Y0174779D02*
X0201998Y0174779D01*
X0201400Y0174180D02*
X0201368Y0174180D01*
X0200927Y0172983D02*
X0200879Y0172983D01*
X0200879Y0172385D02*
X0200927Y0172385D01*
X0200879Y0171786D02*
X0201035Y0171786D01*
X0200879Y0171188D02*
X0201416Y0171188D01*
X0201416Y0170589D02*
X0200879Y0170589D01*
X0200879Y0169991D02*
X0201416Y0169991D01*
X0201416Y0169392D02*
X0200879Y0169392D01*
X0200879Y0168794D02*
X0201416Y0168794D01*
X0201416Y0168195D02*
X0200879Y0168195D01*
X0200879Y0167597D02*
X0201416Y0167597D01*
X0201107Y0166998D02*
X0200879Y0166998D01*
X0200879Y0166400D02*
X0200927Y0166400D01*
X0200927Y0165801D02*
X0200879Y0165801D01*
X0200879Y0165203D02*
X0200927Y0165203D01*
X0200879Y0164604D02*
X0201327Y0164604D01*
X0200879Y0164006D02*
X0201926Y0164006D01*
X0200879Y0163407D02*
X0216775Y0163407D01*
X0216775Y0162809D02*
X0200879Y0162809D01*
X0200879Y0162210D02*
X0216775Y0162210D01*
X0216775Y0161612D02*
X0200879Y0161612D01*
X0200879Y0161013D02*
X0216775Y0161013D01*
X0216775Y0160414D02*
X0200879Y0160414D01*
X0200879Y0159816D02*
X0216775Y0159816D01*
X0216775Y0159217D02*
X0200879Y0159217D01*
X0200879Y0158619D02*
X0216775Y0158619D01*
X0216775Y0158020D02*
X0200879Y0158020D01*
X0200879Y0157422D02*
X0216775Y0157422D01*
X0216775Y0156823D02*
X0200879Y0156823D01*
X0200879Y0156225D02*
X0216775Y0156225D01*
X0216775Y0155626D02*
X0200879Y0155626D01*
X0200879Y0155028D02*
X0216775Y0155028D01*
X0216775Y0154429D02*
X0200879Y0154429D01*
X0200879Y0153831D02*
X0216775Y0153831D01*
X0216775Y0153232D02*
X0200879Y0153232D01*
X0200879Y0152634D02*
X0216775Y0152634D01*
X0216775Y0152035D02*
X0200879Y0152035D01*
X0200879Y0151437D02*
X0216775Y0151437D01*
X0216775Y0150838D02*
X0200879Y0150838D01*
X0200675Y0150240D02*
X0216775Y0150240D01*
X0216775Y0149641D02*
X0200077Y0149641D01*
X0199478Y0149043D02*
X0216775Y0149043D01*
X0216775Y0148444D02*
X0198880Y0148444D01*
X0198281Y0147846D02*
X0216775Y0147846D01*
X0216775Y0147247D02*
X0197683Y0147247D01*
X0197084Y0146649D02*
X0216775Y0146649D01*
X0216775Y0146050D02*
X0196486Y0146050D01*
X0195887Y0145452D02*
X0216775Y0145452D01*
X0216775Y0144853D02*
X0137218Y0144853D01*
X0136619Y0144255D02*
X0216775Y0144255D01*
X0216775Y0143656D02*
X0136021Y0143656D01*
X0135918Y0143554D02*
X0137887Y0145522D01*
X0137887Y0152412D01*
X0138859Y0153384D01*
X0183019Y0153384D01*
X0183508Y0152895D01*
X0185322Y0152895D01*
X0186604Y0154178D01*
X0186604Y0155991D01*
X0185322Y0157273D01*
X0183508Y0157273D01*
X0183019Y0156784D01*
X0137451Y0156784D01*
X0135483Y0154816D01*
X0134487Y0153820D01*
X0134487Y0146930D01*
X0133514Y0145958D01*
X0116222Y0145958D01*
X0114875Y0147304D01*
X0114875Y0163083D01*
X0115554Y0163364D01*
X0116736Y0164546D01*
X0117375Y0166090D01*
X0117375Y0167760D01*
X0116736Y0169304D01*
X0115554Y0170486D01*
X0114976Y0170725D01*
X0120525Y0170725D01*
X0120525Y0161345D01*
X0121345Y0160525D01*
X0122595Y0159275D01*
X0122959Y0159275D01*
X0123364Y0158296D01*
X0124546Y0157114D01*
X0126090Y0156475D01*
X0127760Y0156475D01*
X0129304Y0157114D01*
X0130486Y0158296D01*
X0131125Y0159840D01*
X0131125Y0161510D01*
X0130486Y0163054D01*
X0129304Y0164236D01*
X0127760Y0164875D01*
X0126090Y0164875D01*
X0124546Y0164236D01*
X0123364Y0163054D01*
X0123325Y0162959D01*
X0123325Y0170725D01*
X0123325Y0170589D02*
X0155361Y0170589D01*
X0155361Y0169991D02*
X0123325Y0169991D01*
X0123325Y0169392D02*
X0155737Y0169392D01*
X0156336Y0168794D02*
X0123325Y0168794D01*
X0123325Y0168195D02*
X0197479Y0168195D01*
X0197479Y0167597D02*
X0191583Y0167597D01*
X0191316Y0167864D02*
X0192598Y0166582D01*
X0192598Y0164768D01*
X0191316Y0163486D01*
X0189503Y0163486D01*
X0189014Y0163975D01*
X0153946Y0163975D01*
X0153457Y0163486D01*
X0151643Y0163486D01*
X0150361Y0164768D01*
X0150361Y0166582D01*
X0151643Y0167864D01*
X0153457Y0167864D01*
X0153946Y0167375D01*
X0189014Y0167375D01*
X0189503Y0167864D01*
X0191316Y0167864D01*
X0192182Y0166998D02*
X0197479Y0166998D01*
X0197479Y0166400D02*
X0192598Y0166400D01*
X0192598Y0165801D02*
X0197479Y0165801D01*
X0197479Y0165203D02*
X0192598Y0165203D01*
X0192434Y0164604D02*
X0197479Y0164604D01*
X0197479Y0164006D02*
X0191835Y0164006D01*
X0189235Y0167597D02*
X0153724Y0167597D01*
X0151376Y0167597D02*
X0123325Y0167597D01*
X0123325Y0166998D02*
X0150777Y0166998D01*
X0150361Y0166400D02*
X0123325Y0166400D01*
X0123325Y0165801D02*
X0150361Y0165801D01*
X0150361Y0165203D02*
X0123325Y0165203D01*
X0123325Y0164604D02*
X0125435Y0164604D01*
X0124316Y0164006D02*
X0123325Y0164006D01*
X0123325Y0163407D02*
X0123717Y0163407D01*
X0120525Y0163407D02*
X0115597Y0163407D01*
X0116195Y0164006D02*
X0120525Y0164006D01*
X0120525Y0164604D02*
X0116760Y0164604D01*
X0117008Y0165203D02*
X0120525Y0165203D01*
X0120525Y0165801D02*
X0117255Y0165801D01*
X0117375Y0166400D02*
X0120525Y0166400D01*
X0120525Y0166998D02*
X0117375Y0166998D01*
X0117375Y0167597D02*
X0120525Y0167597D01*
X0120525Y0168195D02*
X0117195Y0168195D01*
X0116947Y0168794D02*
X0120525Y0168794D01*
X0120525Y0169392D02*
X0116648Y0169392D01*
X0116049Y0169991D02*
X0120525Y0169991D01*
X0120525Y0170589D02*
X0115304Y0170589D01*
X0113914Y0172385D02*
X0119736Y0172385D01*
X0119736Y0172983D02*
X0115571Y0172983D01*
X0116337Y0173582D02*
X0119736Y0173582D01*
X0120071Y0174180D02*
X0116867Y0174180D01*
X0117244Y0174779D02*
X0120669Y0174779D01*
X0119511Y0180165D02*
X0124346Y0180165D01*
X0126228Y0181961D02*
X0131572Y0181961D01*
X0132171Y0182559D02*
X0125629Y0182559D01*
X0125031Y0183158D02*
X0133812Y0183158D01*
X0136288Y0183158D02*
X0176775Y0183158D01*
X0176775Y0182559D02*
X0136886Y0182559D01*
X0137239Y0181961D02*
X0176775Y0181961D01*
X0176775Y0181362D02*
X0137239Y0181362D01*
X0137239Y0180764D02*
X0176775Y0180764D01*
X0176775Y0180165D02*
X0175530Y0180165D01*
X0175332Y0180364D02*
X0173518Y0180364D01*
X0172729Y0179575D01*
X0151121Y0179575D01*
X0150332Y0180364D01*
X0148518Y0180364D01*
X0147236Y0179082D01*
X0147236Y0177268D01*
X0148518Y0175986D01*
X0150332Y0175986D01*
X0151121Y0176775D01*
X0172729Y0176775D01*
X0173518Y0175986D01*
X0175332Y0175986D01*
X0176614Y0177268D01*
X0176614Y0179082D01*
X0175332Y0180364D01*
X0176129Y0179567D02*
X0176775Y0179567D01*
X0176775Y0178968D02*
X0176614Y0178968D01*
X0176614Y0178370D02*
X0176775Y0178370D01*
X0176775Y0177771D02*
X0176614Y0177771D01*
X0176518Y0177173D02*
X0176775Y0177173D01*
X0176775Y0176574D02*
X0175920Y0176574D01*
X0176775Y0175976D02*
X0134720Y0175976D01*
X0134121Y0176574D02*
X0147930Y0176574D01*
X0147332Y0177173D02*
X0130744Y0177173D01*
X0130200Y0176574D02*
X0132229Y0176574D01*
X0131630Y0175976D02*
X0130200Y0175976D01*
X0130200Y0175377D02*
X0131032Y0175377D01*
X0130986Y0174779D02*
X0130200Y0174779D01*
X0130200Y0174180D02*
X0130986Y0174180D01*
X0130986Y0173582D02*
X0130200Y0173582D01*
X0130200Y0172983D02*
X0131521Y0172983D01*
X0132120Y0172385D02*
X0130200Y0172385D01*
X0134230Y0172385D02*
X0153860Y0172385D01*
X0153262Y0172983D02*
X0134829Y0172983D01*
X0131342Y0177771D02*
X0147236Y0177771D01*
X0147236Y0178370D02*
X0131941Y0178370D01*
X0132539Y0178968D02*
X0147236Y0178968D01*
X0147721Y0179567D02*
X0136413Y0179567D01*
X0137011Y0180165D02*
X0148320Y0180165D01*
X0150530Y0180165D02*
X0173320Y0180165D01*
X0172930Y0176574D02*
X0150920Y0176574D01*
X0154828Y0175377D02*
X0176522Y0175377D01*
X0175924Y0174779D02*
X0155426Y0174779D01*
X0156025Y0174180D02*
X0175325Y0174180D01*
X0174727Y0173582D02*
X0156623Y0173582D01*
X0157222Y0172983D02*
X0174128Y0172983D01*
X0173530Y0172385D02*
X0158936Y0172385D01*
X0158764Y0168794D02*
X0197479Y0168794D01*
X0197479Y0169392D02*
X0174497Y0169392D01*
X0175096Y0169991D02*
X0197479Y0169991D01*
X0197479Y0170589D02*
X0175694Y0170589D01*
X0177030Y0171925D02*
X0178755Y0173650D01*
X0179575Y0174470D01*
X0179575Y0176804D01*
X0180393Y0175986D01*
X0182207Y0175986D01*
X0182996Y0176775D01*
X0195050Y0176775D01*
X0195050Y0171925D01*
X0177030Y0171925D01*
X0177490Y0172385D02*
X0195050Y0172385D01*
X0195050Y0172983D02*
X0178088Y0172983D01*
X0178687Y0173582D02*
X0195050Y0173582D01*
X0195050Y0174180D02*
X0179285Y0174180D01*
X0179575Y0174779D02*
X0195050Y0174779D01*
X0195050Y0175377D02*
X0179575Y0175377D01*
X0179575Y0175976D02*
X0195050Y0175976D01*
X0195050Y0176574D02*
X0182795Y0176574D01*
X0179805Y0176574D02*
X0179575Y0176574D01*
X0179575Y0179567D02*
X0179596Y0179567D01*
X0179575Y0180165D02*
X0180195Y0180165D01*
X0179575Y0180764D02*
X0195050Y0180764D01*
X0195050Y0181362D02*
X0179575Y0181362D01*
X0179575Y0181961D02*
X0195050Y0181961D01*
X0195050Y0182559D02*
X0179575Y0182559D01*
X0179575Y0183158D02*
X0195050Y0183158D01*
X0195050Y0183756D02*
X0179575Y0183756D01*
X0179575Y0184355D02*
X0195050Y0184355D01*
X0195050Y0184953D02*
X0179575Y0184953D01*
X0179575Y0185552D02*
X0195050Y0185552D01*
X0195050Y0186150D02*
X0179575Y0186150D01*
X0179575Y0186749D02*
X0195050Y0186749D01*
X0195050Y0187347D02*
X0179575Y0187347D01*
X0179575Y0187946D02*
X0195050Y0187946D01*
X0195050Y0188545D02*
X0179575Y0188545D01*
X0179575Y0189143D02*
X0195050Y0189143D01*
X0195050Y0189742D02*
X0179575Y0189742D01*
X0179575Y0190340D02*
X0195050Y0190340D01*
X0195050Y0190939D02*
X0179575Y0190939D01*
X0179575Y0191537D02*
X0195050Y0191537D01*
X0195050Y0192136D02*
X0179575Y0192136D01*
X0179575Y0192734D02*
X0195050Y0192734D01*
X0195050Y0193333D02*
X0179575Y0193333D01*
X0179575Y0193931D02*
X0195050Y0193931D01*
X0195050Y0194530D02*
X0179575Y0194530D01*
X0179575Y0195128D02*
X0195050Y0195128D01*
X0195050Y0195727D02*
X0179575Y0195727D01*
X0179575Y0196325D02*
X0195050Y0196325D01*
X0195050Y0196924D02*
X0179575Y0196924D01*
X0179575Y0197522D02*
X0195050Y0197522D01*
X0195050Y0198121D02*
X0179575Y0198121D01*
X0179575Y0198719D02*
X0195050Y0198719D01*
X0195050Y0199318D02*
X0179575Y0199318D01*
X0179575Y0199916D02*
X0195050Y0199916D01*
X0195050Y0200515D02*
X0179575Y0200515D01*
X0179575Y0201113D02*
X0195050Y0201113D01*
X0195050Y0201712D02*
X0179575Y0201712D01*
X0179575Y0202310D02*
X0195050Y0202310D01*
X0195050Y0202909D02*
X0179575Y0202909D01*
X0179575Y0203507D02*
X0195050Y0203507D01*
X0195050Y0204106D02*
X0179575Y0204106D01*
X0179575Y0204704D02*
X0195050Y0204704D01*
X0195050Y0205303D02*
X0179575Y0205303D01*
X0179575Y0205901D02*
X0195050Y0205901D01*
X0195050Y0206500D02*
X0179575Y0206500D01*
X0179575Y0207098D02*
X0195050Y0207098D01*
X0195050Y0207697D02*
X0179575Y0207697D01*
X0179575Y0208295D02*
X0195050Y0208295D01*
X0195050Y0208894D02*
X0179575Y0208894D01*
X0179575Y0209492D02*
X0195050Y0209492D01*
X0195050Y0210091D02*
X0179575Y0210091D01*
X0179575Y0210689D02*
X0195050Y0210689D01*
X0195050Y0211288D02*
X0180009Y0211288D01*
X0180364Y0211886D02*
X0195050Y0211886D01*
X0195050Y0212485D02*
X0180364Y0212485D01*
X0180364Y0213083D02*
X0195050Y0213083D01*
X0195050Y0213682D02*
X0180139Y0213682D01*
X0179575Y0214280D02*
X0195050Y0214280D01*
X0195050Y0214879D02*
X0179575Y0214879D01*
X0179575Y0215478D02*
X0195050Y0215478D01*
X0195050Y0216076D02*
X0179575Y0216076D01*
X0179575Y0216675D02*
X0195050Y0216675D01*
X0195050Y0217273D02*
X0179575Y0217273D01*
X0179575Y0217872D02*
X0195050Y0217872D01*
X0195050Y0218470D02*
X0179575Y0218470D01*
X0179575Y0219069D02*
X0195050Y0219069D01*
X0195050Y0219667D02*
X0179575Y0219667D01*
X0179575Y0220266D02*
X0195050Y0220266D01*
X0195050Y0220864D02*
X0179575Y0220864D01*
X0179575Y0221463D02*
X0195050Y0221463D01*
X0195050Y0222061D02*
X0179575Y0222061D01*
X0179575Y0222660D02*
X0195050Y0222660D01*
X0195050Y0223258D02*
X0179575Y0223258D01*
X0179575Y0223857D02*
X0195050Y0223857D01*
X0195050Y0224455D02*
X0179575Y0224455D01*
X0179526Y0225054D02*
X0195050Y0225054D01*
X0195050Y0225652D02*
X0178928Y0225652D01*
X0178329Y0226251D02*
X0195050Y0226251D01*
X0195050Y0226849D02*
X0177731Y0226849D01*
X0177132Y0227448D02*
X0195050Y0227448D01*
X0195050Y0228046D02*
X0176534Y0228046D01*
X0175935Y0228645D02*
X0195050Y0228645D01*
X0195050Y0229243D02*
X0175337Y0229243D01*
X0174738Y0229842D02*
X0195050Y0229842D01*
X0195050Y0230440D02*
X0132265Y0230440D01*
X0131666Y0231039D02*
X0195050Y0231039D01*
X0195050Y0231637D02*
X0131068Y0231637D01*
X0130469Y0232236D02*
X0195050Y0232236D01*
X0195050Y0232834D02*
X0130364Y0232834D01*
X0130364Y0233433D02*
X0195050Y0233433D01*
X0195050Y0234031D02*
X0129789Y0234031D01*
X0129575Y0234630D02*
X0195050Y0234630D01*
X0195050Y0235228D02*
X0129575Y0235228D01*
X0129575Y0235827D02*
X0195050Y0235827D01*
X0195050Y0236425D02*
X0129575Y0236425D01*
X0129575Y0237024D02*
X0195050Y0237024D01*
X0195050Y0237622D02*
X0130093Y0237622D01*
X0130364Y0238221D02*
X0195050Y0238221D01*
X0195050Y0238819D02*
X0130364Y0238819D01*
X0130364Y0239418D02*
X0195050Y0239418D01*
X0195050Y0240016D02*
X0130054Y0240016D01*
X0129456Y0240615D02*
X0195050Y0240615D01*
X0196250Y0240615D02*
X0285175Y0240615D01*
X0285175Y0241214D02*
X0196250Y0241214D01*
X0196250Y0241812D02*
X0285175Y0241812D01*
X0285175Y0242411D02*
X0196250Y0242411D01*
X0196250Y0243009D02*
X0285175Y0243009D01*
X0285175Y0243608D02*
X0196250Y0243608D01*
X0196250Y0244206D02*
X0285175Y0244206D01*
X0285175Y0244805D02*
X0196250Y0244805D01*
X0196250Y0245403D02*
X0285175Y0245403D01*
X0285175Y0246002D02*
X0196250Y0246002D01*
X0196250Y0246600D02*
X0285175Y0246600D01*
X0285175Y0247199D02*
X0196250Y0247199D01*
X0196250Y0247797D02*
X0285175Y0247797D01*
X0285175Y0248396D02*
X0196250Y0248396D01*
X0196250Y0248994D02*
X0285175Y0248994D01*
X0285175Y0249593D02*
X0196250Y0249593D01*
X0196250Y0250191D02*
X0285175Y0250191D01*
X0285175Y0250790D02*
X0196250Y0250790D01*
X0196250Y0251388D02*
X0285175Y0251388D01*
X0285175Y0251987D02*
X0196250Y0251987D01*
X0196250Y0252585D02*
X0285175Y0252585D01*
X0285175Y0253184D02*
X0196250Y0253184D01*
X0196250Y0253782D02*
X0280633Y0253782D01*
X0281018Y0253397D02*
X0282832Y0253397D01*
X0284114Y0254679D01*
X0284114Y0254868D01*
X0285175Y0253807D01*
X0285175Y0230521D01*
X0284082Y0231614D01*
X0282268Y0231614D01*
X0281479Y0230825D01*
X0281053Y0230825D01*
X0281053Y0231847D01*
X0280526Y0232374D01*
X0277281Y0232374D01*
X0276753Y0231847D01*
X0276753Y0227101D01*
X0277281Y0226574D01*
X0280526Y0226574D01*
X0281053Y0227101D01*
X0281053Y0228025D01*
X0281479Y0228025D01*
X0282268Y0227236D01*
X0284082Y0227236D01*
X0285175Y0228329D01*
X0285175Y0162605D01*
X0282150Y0165630D01*
X0281330Y0166450D01*
X0273130Y0166450D01*
X0270200Y0169380D01*
X0270200Y0212429D01*
X0271018Y0211611D01*
X0272832Y0211611D01*
X0273621Y0212400D01*
X0280630Y0212400D01*
X0281450Y0213220D01*
X0281450Y0213220D01*
X0283950Y0215720D01*
X0283950Y0218700D01*
X0284266Y0218700D01*
X0284793Y0219227D01*
X0284793Y0223973D01*
X0284266Y0224500D01*
X0281021Y0224500D01*
X0280494Y0223973D01*
X0280494Y0219227D01*
X0281021Y0218700D01*
X0281150Y0218700D01*
X0281150Y0216880D01*
X0279470Y0215200D01*
X0273621Y0215200D01*
X0272832Y0215989D01*
X0271018Y0215989D01*
X0270200Y0215171D01*
X0270200Y0219380D01*
X0266580Y0223000D01*
X0239793Y0223000D01*
X0239793Y0223973D01*
X0239266Y0224500D01*
X0236021Y0224500D01*
X0235494Y0223973D01*
X0235494Y0219227D01*
X0236021Y0218700D01*
X0239266Y0218700D01*
X0239793Y0219227D01*
X0239793Y0220200D01*
X0255855Y0220200D01*
X0254736Y0219082D01*
X0254736Y0217268D01*
X0254800Y0217204D01*
X0254459Y0216863D01*
X0251693Y0216863D01*
X0251693Y0218292D01*
X0251166Y0218819D01*
X0244909Y0218819D01*
X0244381Y0218292D01*
X0244381Y0216863D01*
X0228141Y0216863D01*
X0227375Y0217629D01*
X0227375Y0228029D01*
X0227864Y0228518D01*
X0227864Y0230332D01*
X0226582Y0231614D01*
X0224768Y0231614D01*
X0223486Y0230332D01*
X0223486Y0228518D01*
X0223975Y0228029D01*
X0223975Y0216221D01*
X0225737Y0214459D01*
X0226733Y0213463D01*
X0244381Y0213463D01*
X0244381Y0212034D01*
X0244909Y0211507D01*
X0251166Y0211507D01*
X0251693Y0212034D01*
X0251693Y0213463D01*
X0255867Y0213463D01*
X0258014Y0215609D01*
X0258014Y0214217D01*
X0258503Y0213728D01*
X0258503Y0201064D01*
X0255561Y0198123D01*
X0203396Y0198123D01*
X0197479Y0192206D01*
X0197479Y0183055D01*
X0196990Y0182566D01*
X0196990Y0180753D01*
X0198168Y0179575D01*
X0196250Y0179575D01*
X0196250Y0290595D01*
X0314337Y0290595D01*
X0315365Y0290514D01*
X0317321Y0289879D01*
X0318985Y0288670D01*
X0320193Y0287006D01*
X0320829Y0285050D01*
X0320910Y0284022D01*
X0320910Y0063549D01*
X0320829Y0062521D01*
X0320193Y0060565D01*
X0318985Y0058901D01*
X0317321Y0057692D01*
X0315365Y0057056D01*
X0314337Y0056975D01*
X0114088Y0056975D01*
X0113549Y0056975D01*
X0112521Y0057056D01*
X0110565Y0057692D01*
X0108901Y0058901D01*
X0107692Y0060565D01*
X0107056Y0062521D01*
X0106975Y0063549D01*
X0106975Y0170725D01*
X0111374Y0170725D01*
X0110796Y0170486D01*
X0109614Y0169304D01*
X0108975Y0167760D01*
X0108975Y0166090D01*
X0109614Y0164546D01*
X0110796Y0163364D01*
X0111475Y0163083D01*
X0111475Y0145896D01*
X0114813Y0142558D01*
X0134922Y0142558D01*
X0135918Y0143554D01*
X0135422Y0143058D02*
X0216775Y0143058D01*
X0216775Y0142459D02*
X0106975Y0142459D01*
X0106975Y0141861D02*
X0216775Y0141861D01*
X0216775Y0141262D02*
X0206254Y0141262D01*
X0205991Y0141525D02*
X0204178Y0141525D01*
X0203689Y0141036D01*
X0168094Y0141036D01*
X0167605Y0141525D01*
X0165792Y0141525D01*
X0164510Y0140243D01*
X0164510Y0138430D01*
X0165792Y0137147D01*
X0167605Y0137147D01*
X0168094Y0137636D01*
X0203689Y0137636D01*
X0204178Y0137147D01*
X0205991Y0137147D01*
X0207273Y0138430D01*
X0207273Y0140243D01*
X0205991Y0141525D01*
X0206853Y0140664D02*
X0216775Y0140664D01*
X0216775Y0140065D02*
X0207273Y0140065D01*
X0207273Y0139467D02*
X0216775Y0139467D01*
X0216775Y0138868D02*
X0207273Y0138868D01*
X0207113Y0138270D02*
X0216775Y0138270D01*
X0216775Y0137671D02*
X0206515Y0137671D01*
X0203914Y0141262D02*
X0167869Y0141262D01*
X0165529Y0141262D02*
X0106975Y0141262D01*
X0106975Y0140664D02*
X0164930Y0140664D01*
X0164510Y0140065D02*
X0106975Y0140065D01*
X0106975Y0139467D02*
X0164510Y0139467D01*
X0164510Y0138868D02*
X0106975Y0138868D01*
X0106975Y0138270D02*
X0164670Y0138270D01*
X0165268Y0137671D02*
X0106975Y0137671D01*
X0106975Y0137073D02*
X0216775Y0137073D01*
X0216775Y0136474D02*
X0106975Y0136474D01*
X0106975Y0135876D02*
X0216775Y0135876D01*
X0216775Y0135277D02*
X0106975Y0135277D01*
X0106975Y0134678D02*
X0216775Y0134678D01*
X0216775Y0134080D02*
X0106975Y0134080D01*
X0106975Y0133481D02*
X0216775Y0133481D01*
X0216775Y0132883D02*
X0106975Y0132883D01*
X0106975Y0132284D02*
X0216775Y0132284D01*
X0216775Y0131686D02*
X0106975Y0131686D01*
X0106975Y0131087D02*
X0216775Y0131087D01*
X0216775Y0130489D02*
X0145832Y0130489D01*
X0145332Y0130989D02*
X0143518Y0130989D01*
X0142236Y0129707D01*
X0142236Y0127893D01*
X0143518Y0126611D01*
X0144210Y0126611D01*
X0146475Y0124346D01*
X0146475Y0103946D01*
X0145986Y0103457D01*
X0145986Y0101643D01*
X0146475Y0101154D01*
X0146475Y0067017D01*
X0145796Y0066736D01*
X0144614Y0065554D01*
X0143975Y0064010D01*
X0143975Y0062340D01*
X0144614Y0060796D01*
X0145796Y0059614D01*
X0147340Y0058975D01*
X0149010Y0058975D01*
X0150554Y0059614D01*
X0151736Y0060796D01*
X0152375Y0062340D01*
X0152375Y0064010D01*
X0151736Y0065554D01*
X0150554Y0066736D01*
X0149875Y0067017D01*
X0149875Y0101154D01*
X0150364Y0101643D01*
X0150364Y0103457D01*
X0149875Y0103946D01*
X0149875Y0125754D01*
X0146614Y0129015D01*
X0146614Y0129707D01*
X0145332Y0130989D01*
X0146430Y0129890D02*
X0216775Y0129890D01*
X0216775Y0129292D02*
X0146614Y0129292D01*
X0146936Y0128693D02*
X0216775Y0128693D01*
X0216775Y0128095D02*
X0147534Y0128095D01*
X0148133Y0127496D02*
X0216775Y0127496D01*
X0216775Y0126898D02*
X0148731Y0126898D01*
X0149330Y0126299D02*
X0216775Y0126299D01*
X0216775Y0125701D02*
X0149875Y0125701D01*
X0149875Y0125102D02*
X0216775Y0125102D01*
X0216775Y0124504D02*
X0149875Y0124504D01*
X0149875Y0123905D02*
X0216775Y0123905D01*
X0216775Y0123307D02*
X0149875Y0123307D01*
X0149875Y0122708D02*
X0216775Y0122708D01*
X0216775Y0122110D02*
X0149875Y0122110D01*
X0149875Y0121511D02*
X0164666Y0121511D01*
X0164768Y0121614D02*
X0163486Y0120332D01*
X0163486Y0118518D01*
X0164275Y0117729D01*
X0164275Y0083845D01*
X0166775Y0081345D01*
X0167595Y0080525D01*
X0180720Y0080525D01*
X0181150Y0080095D01*
X0181150Y0078621D01*
X0180361Y0077832D01*
X0180361Y0076574D01*
X0177637Y0073850D01*
X0176875Y0073088D01*
X0176875Y0067183D01*
X0175796Y0066736D01*
X0174614Y0065554D01*
X0173975Y0064010D01*
X0173975Y0062340D01*
X0174614Y0060796D01*
X0175796Y0059614D01*
X0177340Y0058975D01*
X0179010Y0058975D01*
X0180554Y0059614D01*
X0181736Y0060796D01*
X0182375Y0062340D01*
X0182375Y0064010D01*
X0181736Y0065554D01*
X0180554Y0066736D01*
X0179475Y0067183D01*
X0179475Y0072012D01*
X0182199Y0074736D01*
X0183457Y0074736D01*
X0184739Y0076018D01*
X0184739Y0076506D01*
X0186262Y0074983D01*
X0185986Y0074707D01*
X0185986Y0072893D01*
X0186875Y0072004D01*
X0186875Y0067183D01*
X0185796Y0066736D01*
X0184614Y0065554D01*
X0183975Y0064010D01*
X0183975Y0062340D01*
X0184614Y0060796D01*
X0185796Y0059614D01*
X0187340Y0058975D01*
X0189010Y0058975D01*
X0190554Y0059614D01*
X0191736Y0060796D01*
X0192375Y0062340D01*
X0192375Y0064010D01*
X0191736Y0065554D01*
X0190554Y0066736D01*
X0189475Y0067183D01*
X0189475Y0072004D01*
X0190364Y0072893D01*
X0190364Y0074707D01*
X0189575Y0075496D01*
X0189575Y0075630D01*
X0185550Y0079655D01*
X0185550Y0081918D01*
X0184730Y0082738D01*
X0182543Y0084925D01*
X0169418Y0084925D01*
X0168675Y0085668D01*
X0168675Y0115445D01*
X0170466Y0117236D01*
X0170957Y0117236D01*
X0172239Y0118518D01*
X0172239Y0120332D01*
X0170957Y0121614D01*
X0169143Y0121614D01*
X0167862Y0120333D01*
X0166582Y0121614D01*
X0164768Y0121614D01*
X0164067Y0120913D02*
X0149875Y0120913D01*
X0149875Y0120314D02*
X0163486Y0120314D01*
X0163486Y0119716D02*
X0149875Y0119716D01*
X0149875Y0119117D02*
X0163486Y0119117D01*
X0163486Y0118519D02*
X0149875Y0118519D01*
X0149875Y0117920D02*
X0164084Y0117920D01*
X0164275Y0117322D02*
X0149875Y0117322D01*
X0149875Y0116723D02*
X0164275Y0116723D01*
X0164275Y0116125D02*
X0149875Y0116125D01*
X0149875Y0115526D02*
X0164275Y0115526D01*
X0164275Y0114928D02*
X0149875Y0114928D01*
X0149875Y0114329D02*
X0164275Y0114329D01*
X0164275Y0113731D02*
X0149875Y0113731D01*
X0149875Y0113132D02*
X0164275Y0113132D01*
X0164275Y0112534D02*
X0149875Y0112534D01*
X0149875Y0111935D02*
X0164275Y0111935D01*
X0164275Y0111337D02*
X0149875Y0111337D01*
X0149875Y0110738D02*
X0164275Y0110738D01*
X0164275Y0110140D02*
X0149875Y0110140D01*
X0149875Y0109541D02*
X0164275Y0109541D01*
X0164275Y0108943D02*
X0149875Y0108943D01*
X0149875Y0108344D02*
X0164275Y0108344D01*
X0164275Y0107745D02*
X0149875Y0107745D01*
X0149875Y0107147D02*
X0164275Y0107147D01*
X0164275Y0106548D02*
X0149875Y0106548D01*
X0149875Y0105950D02*
X0164275Y0105950D01*
X0164275Y0105351D02*
X0149875Y0105351D01*
X0149875Y0104753D02*
X0164275Y0104753D01*
X0164275Y0104154D02*
X0149875Y0104154D01*
X0150265Y0103556D02*
X0164275Y0103556D01*
X0164275Y0102957D02*
X0150364Y0102957D01*
X0150364Y0102359D02*
X0164275Y0102359D01*
X0164275Y0101760D02*
X0150364Y0101760D01*
X0149883Y0101162D02*
X0164275Y0101162D01*
X0164275Y0100563D02*
X0149875Y0100563D01*
X0149875Y0099965D02*
X0164275Y0099965D01*
X0164275Y0099366D02*
X0149875Y0099366D01*
X0149875Y0098768D02*
X0164275Y0098768D01*
X0164275Y0098169D02*
X0149875Y0098169D01*
X0149875Y0097571D02*
X0164275Y0097571D01*
X0164275Y0096972D02*
X0149875Y0096972D01*
X0149875Y0096374D02*
X0164275Y0096374D01*
X0164275Y0095775D02*
X0149875Y0095775D01*
X0149875Y0095177D02*
X0164275Y0095177D01*
X0164275Y0094578D02*
X0149875Y0094578D01*
X0149875Y0093980D02*
X0164275Y0093980D01*
X0164275Y0093381D02*
X0149875Y0093381D01*
X0149875Y0092783D02*
X0164275Y0092783D01*
X0164275Y0092184D02*
X0149875Y0092184D01*
X0149875Y0091586D02*
X0164275Y0091586D01*
X0164275Y0090987D02*
X0149875Y0090987D01*
X0149875Y0090389D02*
X0164275Y0090389D01*
X0164275Y0089790D02*
X0149875Y0089790D01*
X0149875Y0089192D02*
X0164275Y0089192D01*
X0164275Y0088593D02*
X0162103Y0088593D01*
X0161582Y0089114D02*
X0159768Y0089114D01*
X0158486Y0087832D01*
X0158486Y0087140D01*
X0156475Y0085129D01*
X0156475Y0067017D01*
X0155796Y0066736D01*
X0154614Y0065554D01*
X0153975Y0064010D01*
X0153975Y0062340D01*
X0154614Y0060796D01*
X0155796Y0059614D01*
X0157340Y0058975D01*
X0159010Y0058975D01*
X0160554Y0059614D01*
X0161736Y0060796D01*
X0162375Y0062340D01*
X0162375Y0064010D01*
X0161736Y0065554D01*
X0160554Y0066736D01*
X0159875Y0067017D01*
X0159875Y0083721D01*
X0160890Y0084736D01*
X0161582Y0084736D01*
X0162864Y0086018D01*
X0162864Y0087832D01*
X0161582Y0089114D01*
X0162701Y0087995D02*
X0164275Y0087995D01*
X0164275Y0087396D02*
X0162864Y0087396D01*
X0162864Y0086798D02*
X0164275Y0086798D01*
X0164275Y0086199D02*
X0162864Y0086199D01*
X0162446Y0085601D02*
X0164275Y0085601D01*
X0164275Y0085002D02*
X0161848Y0085002D01*
X0160558Y0084404D02*
X0164275Y0084404D01*
X0164315Y0083805D02*
X0159959Y0083805D01*
X0159875Y0083207D02*
X0164914Y0083207D01*
X0165512Y0082608D02*
X0159875Y0082608D01*
X0159875Y0082009D02*
X0166111Y0082009D01*
X0166709Y0081411D02*
X0159875Y0081411D01*
X0159875Y0080812D02*
X0167308Y0080812D01*
X0169341Y0085002D02*
X0216775Y0085002D01*
X0216775Y0084404D02*
X0183064Y0084404D01*
X0183663Y0083805D02*
X0216775Y0083805D01*
X0216775Y0083207D02*
X0184261Y0083207D01*
X0184860Y0082608D02*
X0216775Y0082608D01*
X0216775Y0082009D02*
X0185458Y0082009D01*
X0185550Y0081411D02*
X0216775Y0081411D01*
X0216775Y0080812D02*
X0185550Y0080812D01*
X0185550Y0080214D02*
X0216775Y0080214D01*
X0216775Y0079615D02*
X0185589Y0079615D01*
X0186188Y0079017D02*
X0216775Y0079017D01*
X0216775Y0078418D02*
X0186786Y0078418D01*
X0187385Y0077820D02*
X0216775Y0077820D01*
X0216775Y0077221D02*
X0187983Y0077221D01*
X0188582Y0076623D02*
X0216775Y0076623D01*
X0216775Y0076024D02*
X0189180Y0076024D01*
X0189645Y0075426D02*
X0216775Y0075426D01*
X0216775Y0074827D02*
X0190243Y0074827D01*
X0190364Y0074229D02*
X0216775Y0074229D01*
X0216775Y0073630D02*
X0190364Y0073630D01*
X0190364Y0073032D02*
X0216775Y0073032D01*
X0216775Y0072433D02*
X0189904Y0072433D01*
X0189475Y0071835D02*
X0216775Y0071835D01*
X0216775Y0071236D02*
X0189475Y0071236D01*
X0189475Y0070638D02*
X0216775Y0070638D01*
X0216775Y0070039D02*
X0189475Y0070039D01*
X0189475Y0069441D02*
X0216775Y0069441D01*
X0216775Y0068842D02*
X0189475Y0068842D01*
X0189475Y0068244D02*
X0216775Y0068244D01*
X0216775Y0067645D02*
X0199303Y0067645D01*
X0199252Y0067662D02*
X0198537Y0067775D01*
X0198475Y0067775D01*
X0198475Y0063475D01*
X0197875Y0063475D01*
X0197875Y0067775D01*
X0197813Y0067775D01*
X0197098Y0067662D01*
X0196409Y0067438D01*
X0195764Y0067109D01*
X0195178Y0066684D01*
X0194666Y0066172D01*
X0194241Y0065586D01*
X0193912Y0064941D01*
X0193688Y0064252D01*
X0193575Y0063537D01*
X0193575Y0063475D01*
X0197875Y0063475D01*
X0197875Y0062875D01*
X0193575Y0062875D01*
X0193575Y0062813D01*
X0193688Y0062098D01*
X0193912Y0061409D01*
X0194241Y0060764D01*
X0194666Y0060178D01*
X0195178Y0059666D01*
X0195764Y0059241D01*
X0196409Y0058912D01*
X0197098Y0058688D01*
X0197813Y0058575D01*
X0197875Y0058575D01*
X0197875Y0062875D01*
X0198475Y0062875D01*
X0198475Y0063475D01*
X0202775Y0063475D01*
X0202775Y0063537D01*
X0202662Y0064252D01*
X0202438Y0064941D01*
X0202109Y0065586D01*
X0201684Y0066172D01*
X0201172Y0066684D01*
X0200586Y0067109D01*
X0199941Y0067438D01*
X0199252Y0067662D01*
X0198475Y0067645D02*
X0197875Y0067645D01*
X0197875Y0067047D02*
X0198475Y0067047D01*
X0198475Y0066448D02*
X0197875Y0066448D01*
X0197875Y0065850D02*
X0198475Y0065850D01*
X0198475Y0065251D02*
X0197875Y0065251D01*
X0197875Y0064653D02*
X0198475Y0064653D01*
X0198475Y0064054D02*
X0197875Y0064054D01*
X0197875Y0063456D02*
X0192375Y0063456D01*
X0192357Y0064054D02*
X0193657Y0064054D01*
X0193818Y0064653D02*
X0192109Y0064653D01*
X0191861Y0065251D02*
X0194070Y0065251D01*
X0194432Y0065850D02*
X0191440Y0065850D01*
X0190841Y0066448D02*
X0194943Y0066448D01*
X0195678Y0067047D02*
X0189803Y0067047D01*
X0189475Y0067645D02*
X0197047Y0067645D01*
X0200672Y0067047D02*
X0206547Y0067047D01*
X0205796Y0066736D02*
X0207340Y0067375D01*
X0209010Y0067375D01*
X0210554Y0066736D01*
X0211736Y0065554D01*
X0212375Y0064010D01*
X0212375Y0062340D01*
X0211736Y0060796D01*
X0210554Y0059614D01*
X0209010Y0058975D01*
X0207340Y0058975D01*
X0205796Y0059614D01*
X0204614Y0060796D01*
X0203975Y0062340D01*
X0203975Y0064010D01*
X0204614Y0065554D01*
X0205796Y0066736D01*
X0205509Y0066448D02*
X0201407Y0066448D01*
X0201918Y0065850D02*
X0204910Y0065850D01*
X0204489Y0065251D02*
X0202280Y0065251D01*
X0202532Y0064653D02*
X0204241Y0064653D01*
X0203993Y0064054D02*
X0202693Y0064054D01*
X0202775Y0062875D02*
X0198475Y0062875D01*
X0198475Y0058575D01*
X0198537Y0058575D01*
X0199252Y0058688D01*
X0199941Y0058912D01*
X0200586Y0059241D01*
X0201172Y0059666D01*
X0201684Y0060178D01*
X0202109Y0060764D01*
X0202438Y0061409D01*
X0202662Y0062098D01*
X0202775Y0062813D01*
X0202775Y0062875D01*
X0202775Y0062857D02*
X0203975Y0062857D01*
X0203975Y0063456D02*
X0198475Y0063456D01*
X0198475Y0062857D02*
X0197875Y0062857D01*
X0197875Y0062259D02*
X0198475Y0062259D01*
X0198475Y0061660D02*
X0197875Y0061660D01*
X0197875Y0061062D02*
X0198475Y0061062D01*
X0198475Y0060463D02*
X0197875Y0060463D01*
X0197875Y0059865D02*
X0198475Y0059865D01*
X0198475Y0059266D02*
X0197875Y0059266D01*
X0197875Y0058668D02*
X0198475Y0058668D01*
X0199121Y0058668D02*
X0310438Y0058668D01*
X0311305Y0058069D02*
X0116674Y0058069D01*
X0117195Y0058267D02*
X0117195Y0058267D01*
X0114323Y0057177D01*
X0114323Y0057177D01*
X0111273Y0057548D01*
X0111273Y0057548D01*
X0108745Y0059293D01*
X0108745Y0059293D01*
X0108745Y0059293D01*
X0107317Y0062013D01*
X0107317Y0065085D01*
X0108745Y0067805D01*
X0108745Y0067805D01*
X0108745Y0067805D01*
X0111273Y0069551D01*
X0111273Y0069551D01*
X0114323Y0069921D01*
X0114323Y0069921D01*
X0117195Y0068831D01*
X0117195Y0068831D01*
X0119232Y0066532D01*
X0119232Y0066532D01*
X0119968Y0063549D01*
X0119232Y0060566D01*
X0117195Y0058267D01*
X0117550Y0058668D02*
X0167229Y0058668D01*
X0167098Y0058688D02*
X0167813Y0058575D01*
X0167875Y0058575D01*
X0167875Y0062875D01*
X0163575Y0062875D01*
X0163575Y0062813D01*
X0163688Y0062098D01*
X0163912Y0061409D01*
X0164241Y0060764D01*
X0164666Y0060178D01*
X0165178Y0059666D01*
X0165764Y0059241D01*
X0166409Y0058912D01*
X0167098Y0058688D01*
X0167875Y0058668D02*
X0168475Y0058668D01*
X0168475Y0058575D02*
X0168537Y0058575D01*
X0169252Y0058688D01*
X0169941Y0058912D01*
X0170586Y0059241D01*
X0171172Y0059666D01*
X0171684Y0060178D01*
X0172109Y0060764D01*
X0172438Y0061409D01*
X0172662Y0062098D01*
X0172775Y0062813D01*
X0172775Y0062875D01*
X0168475Y0062875D01*
X0168475Y0063475D01*
X0167875Y0063475D01*
X0167875Y0067775D01*
X0167813Y0067775D01*
X0167098Y0067662D01*
X0166409Y0067438D01*
X0165764Y0067109D01*
X0165178Y0066684D01*
X0164666Y0066172D01*
X0164241Y0065586D01*
X0163912Y0064941D01*
X0163688Y0064252D01*
X0163575Y0063537D01*
X0163575Y0063475D01*
X0167875Y0063475D01*
X0167875Y0062875D01*
X0168475Y0062875D01*
X0168475Y0058575D01*
X0169121Y0058668D02*
X0197229Y0058668D01*
X0195729Y0059266D02*
X0189713Y0059266D01*
X0190804Y0059865D02*
X0194980Y0059865D01*
X0194459Y0060463D02*
X0191403Y0060463D01*
X0191846Y0061062D02*
X0194089Y0061062D01*
X0193830Y0061660D02*
X0192094Y0061660D01*
X0192341Y0062259D02*
X0193663Y0062259D01*
X0193575Y0062857D02*
X0192375Y0062857D01*
X0186637Y0059266D02*
X0179713Y0059266D01*
X0180804Y0059865D02*
X0185546Y0059865D01*
X0184947Y0060463D02*
X0181403Y0060463D01*
X0181846Y0061062D02*
X0184504Y0061062D01*
X0184256Y0061660D02*
X0182094Y0061660D01*
X0182341Y0062259D02*
X0184009Y0062259D01*
X0183975Y0062857D02*
X0182375Y0062857D01*
X0182375Y0063456D02*
X0183975Y0063456D01*
X0183993Y0064054D02*
X0182357Y0064054D01*
X0182109Y0064653D02*
X0184241Y0064653D01*
X0184489Y0065251D02*
X0181861Y0065251D01*
X0181440Y0065850D02*
X0184910Y0065850D01*
X0185509Y0066448D02*
X0180841Y0066448D01*
X0179803Y0067047D02*
X0186547Y0067047D01*
X0186875Y0067645D02*
X0179475Y0067645D01*
X0179475Y0068244D02*
X0186875Y0068244D01*
X0186875Y0068842D02*
X0179475Y0068842D01*
X0179475Y0069441D02*
X0186875Y0069441D01*
X0186875Y0070039D02*
X0179475Y0070039D01*
X0179475Y0070638D02*
X0186875Y0070638D01*
X0186875Y0071236D02*
X0179475Y0071236D01*
X0179475Y0071835D02*
X0186875Y0071835D01*
X0186446Y0072433D02*
X0179897Y0072433D01*
X0180495Y0073032D02*
X0185986Y0073032D01*
X0185986Y0073630D02*
X0181094Y0073630D01*
X0181692Y0074229D02*
X0185986Y0074229D01*
X0186107Y0074827D02*
X0183548Y0074827D01*
X0184147Y0075426D02*
X0185819Y0075426D01*
X0185221Y0076024D02*
X0184739Y0076024D01*
X0180361Y0076623D02*
X0159875Y0076623D01*
X0159875Y0077221D02*
X0180361Y0077221D01*
X0180361Y0077820D02*
X0159875Y0077820D01*
X0159875Y0078418D02*
X0180948Y0078418D01*
X0181150Y0079017D02*
X0159875Y0079017D01*
X0159875Y0079615D02*
X0181150Y0079615D01*
X0181031Y0080214D02*
X0159875Y0080214D01*
X0156475Y0080214D02*
X0149875Y0080214D01*
X0149875Y0080812D02*
X0156475Y0080812D01*
X0156475Y0081411D02*
X0149875Y0081411D01*
X0149875Y0082009D02*
X0156475Y0082009D01*
X0156475Y0082608D02*
X0149875Y0082608D01*
X0149875Y0083207D02*
X0156475Y0083207D01*
X0156475Y0083805D02*
X0149875Y0083805D01*
X0149875Y0084404D02*
X0156475Y0084404D01*
X0156475Y0085002D02*
X0149875Y0085002D01*
X0149875Y0085601D02*
X0156946Y0085601D01*
X0157545Y0086199D02*
X0149875Y0086199D01*
X0149875Y0086798D02*
X0158143Y0086798D01*
X0158486Y0087396D02*
X0149875Y0087396D01*
X0149875Y0087995D02*
X0158649Y0087995D01*
X0159247Y0088593D02*
X0149875Y0088593D01*
X0146475Y0088593D02*
X0106975Y0088593D01*
X0106975Y0087995D02*
X0146475Y0087995D01*
X0146475Y0087396D02*
X0106975Y0087396D01*
X0106975Y0086798D02*
X0146475Y0086798D01*
X0146475Y0086199D02*
X0106975Y0086199D01*
X0106975Y0085601D02*
X0146475Y0085601D01*
X0146475Y0085002D02*
X0106975Y0085002D01*
X0106975Y0084404D02*
X0146475Y0084404D01*
X0146475Y0083805D02*
X0106975Y0083805D01*
X0106975Y0083207D02*
X0146475Y0083207D01*
X0146475Y0082608D02*
X0106975Y0082608D01*
X0106975Y0082009D02*
X0146475Y0082009D01*
X0146475Y0081411D02*
X0106975Y0081411D01*
X0106975Y0080812D02*
X0146475Y0080812D01*
X0146475Y0080214D02*
X0106975Y0080214D01*
X0106975Y0079615D02*
X0146475Y0079615D01*
X0146475Y0079017D02*
X0106975Y0079017D01*
X0106975Y0078418D02*
X0146475Y0078418D01*
X0146475Y0077820D02*
X0106975Y0077820D01*
X0106975Y0077221D02*
X0146475Y0077221D01*
X0146475Y0076623D02*
X0106975Y0076623D01*
X0106975Y0076024D02*
X0146475Y0076024D01*
X0146475Y0075426D02*
X0106975Y0075426D01*
X0106975Y0074827D02*
X0146475Y0074827D01*
X0146475Y0074229D02*
X0106975Y0074229D01*
X0106975Y0073630D02*
X0146475Y0073630D01*
X0146475Y0073032D02*
X0106975Y0073032D01*
X0106975Y0072433D02*
X0146475Y0072433D01*
X0146475Y0071835D02*
X0106975Y0071835D01*
X0106975Y0071236D02*
X0146475Y0071236D01*
X0146475Y0070638D02*
X0106975Y0070638D01*
X0106975Y0070039D02*
X0146475Y0070039D01*
X0146475Y0069441D02*
X0115588Y0069441D01*
X0117167Y0068842D02*
X0146475Y0068842D01*
X0146475Y0068244D02*
X0117716Y0068244D01*
X0118246Y0067645D02*
X0146475Y0067645D01*
X0146475Y0067047D02*
X0118776Y0067047D01*
X0119253Y0066448D02*
X0145509Y0066448D01*
X0144910Y0065850D02*
X0119401Y0065850D01*
X0119548Y0065251D02*
X0144489Y0065251D01*
X0144241Y0064653D02*
X0119696Y0064653D01*
X0119843Y0064054D02*
X0143993Y0064054D01*
X0143975Y0063456D02*
X0119945Y0063456D01*
X0119797Y0062857D02*
X0143975Y0062857D01*
X0144009Y0062259D02*
X0119650Y0062259D01*
X0119502Y0061660D02*
X0144256Y0061660D01*
X0144504Y0061062D02*
X0119355Y0061062D01*
X0119232Y0060566D02*
X0119232Y0060566D01*
X0119141Y0060463D02*
X0144947Y0060463D01*
X0145546Y0059865D02*
X0118611Y0059865D01*
X0118081Y0059266D02*
X0146637Y0059266D01*
X0149713Y0059266D02*
X0156637Y0059266D01*
X0155546Y0059865D02*
X0150804Y0059865D01*
X0151403Y0060463D02*
X0154947Y0060463D01*
X0154504Y0061062D02*
X0151846Y0061062D01*
X0152094Y0061660D02*
X0154256Y0061660D01*
X0154009Y0062259D02*
X0152341Y0062259D01*
X0152375Y0062857D02*
X0153975Y0062857D01*
X0153975Y0063456D02*
X0152375Y0063456D01*
X0152357Y0064054D02*
X0153993Y0064054D01*
X0154241Y0064653D02*
X0152109Y0064653D01*
X0151861Y0065251D02*
X0154489Y0065251D01*
X0154910Y0065850D02*
X0151440Y0065850D01*
X0150841Y0066448D02*
X0155509Y0066448D01*
X0156475Y0067047D02*
X0149875Y0067047D01*
X0149875Y0067645D02*
X0156475Y0067645D01*
X0156475Y0068244D02*
X0149875Y0068244D01*
X0149875Y0068842D02*
X0156475Y0068842D01*
X0156475Y0069441D02*
X0149875Y0069441D01*
X0149875Y0070039D02*
X0156475Y0070039D01*
X0156475Y0070638D02*
X0149875Y0070638D01*
X0149875Y0071236D02*
X0156475Y0071236D01*
X0156475Y0071835D02*
X0149875Y0071835D01*
X0149875Y0072433D02*
X0156475Y0072433D01*
X0156475Y0073032D02*
X0149875Y0073032D01*
X0149875Y0073630D02*
X0156475Y0073630D01*
X0156475Y0074229D02*
X0149875Y0074229D01*
X0149875Y0074827D02*
X0156475Y0074827D01*
X0156475Y0075426D02*
X0149875Y0075426D01*
X0149875Y0076024D02*
X0156475Y0076024D01*
X0156475Y0076623D02*
X0149875Y0076623D01*
X0149875Y0077221D02*
X0156475Y0077221D01*
X0156475Y0077820D02*
X0149875Y0077820D01*
X0149875Y0078418D02*
X0156475Y0078418D01*
X0156475Y0079017D02*
X0149875Y0079017D01*
X0149875Y0079615D02*
X0156475Y0079615D01*
X0159875Y0076024D02*
X0179811Y0076024D01*
X0179212Y0075426D02*
X0159875Y0075426D01*
X0159875Y0074827D02*
X0178614Y0074827D01*
X0178015Y0074229D02*
X0159875Y0074229D01*
X0159875Y0073630D02*
X0177417Y0073630D01*
X0176875Y0073032D02*
X0159875Y0073032D01*
X0159875Y0072433D02*
X0176875Y0072433D01*
X0176875Y0071835D02*
X0159875Y0071835D01*
X0159875Y0071236D02*
X0176875Y0071236D01*
X0176875Y0070638D02*
X0159875Y0070638D01*
X0159875Y0070039D02*
X0176875Y0070039D01*
X0176875Y0069441D02*
X0159875Y0069441D01*
X0159875Y0068842D02*
X0176875Y0068842D01*
X0176875Y0068244D02*
X0159875Y0068244D01*
X0159875Y0067645D02*
X0167047Y0067645D01*
X0167875Y0067645D02*
X0168475Y0067645D01*
X0168475Y0067775D02*
X0168475Y0063475D01*
X0172775Y0063475D01*
X0172775Y0063537D01*
X0172662Y0064252D01*
X0172438Y0064941D01*
X0172109Y0065586D01*
X0171684Y0066172D01*
X0171172Y0066684D01*
X0170586Y0067109D01*
X0169941Y0067438D01*
X0169252Y0067662D01*
X0168537Y0067775D01*
X0168475Y0067775D01*
X0168475Y0067047D02*
X0167875Y0067047D01*
X0167875Y0066448D02*
X0168475Y0066448D01*
X0168475Y0065850D02*
X0167875Y0065850D01*
X0167875Y0065251D02*
X0168475Y0065251D01*
X0168475Y0064653D02*
X0167875Y0064653D01*
X0167875Y0064054D02*
X0168475Y0064054D01*
X0168475Y0063456D02*
X0173975Y0063456D01*
X0173993Y0064054D02*
X0172693Y0064054D01*
X0172532Y0064653D02*
X0174241Y0064653D01*
X0174489Y0065251D02*
X0172280Y0065251D01*
X0171918Y0065850D02*
X0174910Y0065850D01*
X0175509Y0066448D02*
X0171407Y0066448D01*
X0170672Y0067047D02*
X0176547Y0067047D01*
X0176875Y0067645D02*
X0169303Y0067645D01*
X0165678Y0067047D02*
X0159875Y0067047D01*
X0160841Y0066448D02*
X0164943Y0066448D01*
X0164432Y0065850D02*
X0161440Y0065850D01*
X0161861Y0065251D02*
X0164070Y0065251D01*
X0163818Y0064653D02*
X0162109Y0064653D01*
X0162357Y0064054D02*
X0163657Y0064054D01*
X0163575Y0062857D02*
X0162375Y0062857D01*
X0162375Y0063456D02*
X0167875Y0063456D01*
X0167875Y0062857D02*
X0168475Y0062857D01*
X0168475Y0062259D02*
X0167875Y0062259D01*
X0167875Y0061660D02*
X0168475Y0061660D01*
X0168475Y0061062D02*
X0167875Y0061062D01*
X0167875Y0060463D02*
X0168475Y0060463D01*
X0168475Y0059865D02*
X0167875Y0059865D01*
X0167875Y0059266D02*
X0168475Y0059266D01*
X0170621Y0059266D02*
X0176637Y0059266D01*
X0175546Y0059865D02*
X0171370Y0059865D01*
X0171891Y0060463D02*
X0174947Y0060463D01*
X0174504Y0061062D02*
X0172261Y0061062D01*
X0172520Y0061660D02*
X0174256Y0061660D01*
X0174009Y0062259D02*
X0172687Y0062259D01*
X0172775Y0062857D02*
X0173975Y0062857D01*
X0165729Y0059266D02*
X0159713Y0059266D01*
X0160804Y0059865D02*
X0164980Y0059865D01*
X0164459Y0060463D02*
X0161403Y0060463D01*
X0161846Y0061062D02*
X0164089Y0061062D01*
X0163830Y0061660D02*
X0162094Y0061660D01*
X0162341Y0062259D02*
X0163663Y0062259D01*
X0168742Y0085601D02*
X0216775Y0085601D01*
X0216775Y0086199D02*
X0168675Y0086199D01*
X0168675Y0086798D02*
X0216775Y0086798D01*
X0216775Y0087396D02*
X0168675Y0087396D01*
X0168675Y0087995D02*
X0216775Y0087995D01*
X0216775Y0088593D02*
X0168675Y0088593D01*
X0168675Y0089192D02*
X0216775Y0089192D01*
X0216775Y0089790D02*
X0168675Y0089790D01*
X0168675Y0090389D02*
X0216775Y0090389D01*
X0216775Y0090987D02*
X0168675Y0090987D01*
X0168675Y0091586D02*
X0216775Y0091586D01*
X0216775Y0092184D02*
X0168675Y0092184D01*
X0168675Y0092783D02*
X0216775Y0092783D01*
X0216775Y0093381D02*
X0168675Y0093381D01*
X0168675Y0093980D02*
X0216775Y0093980D01*
X0216775Y0094578D02*
X0168675Y0094578D01*
X0168675Y0095177D02*
X0216775Y0095177D01*
X0216775Y0095775D02*
X0168675Y0095775D01*
X0168675Y0096374D02*
X0216775Y0096374D01*
X0216775Y0096972D02*
X0168675Y0096972D01*
X0168675Y0097571D02*
X0216775Y0097571D01*
X0216775Y0098169D02*
X0168675Y0098169D01*
X0168675Y0098768D02*
X0216775Y0098768D01*
X0216775Y0099366D02*
X0168675Y0099366D01*
X0168675Y0099965D02*
X0216775Y0099965D01*
X0216775Y0100563D02*
X0168675Y0100563D01*
X0168675Y0101162D02*
X0216775Y0101162D01*
X0216775Y0101760D02*
X0168675Y0101760D01*
X0168675Y0102359D02*
X0216775Y0102359D01*
X0216775Y0102957D02*
X0168675Y0102957D01*
X0168675Y0103556D02*
X0216775Y0103556D01*
X0216775Y0104154D02*
X0168675Y0104154D01*
X0168675Y0104753D02*
X0216775Y0104753D01*
X0216775Y0105351D02*
X0168675Y0105351D01*
X0168675Y0105950D02*
X0216775Y0105950D01*
X0216775Y0106548D02*
X0168675Y0106548D01*
X0168675Y0107147D02*
X0216775Y0107147D01*
X0216775Y0107745D02*
X0168675Y0107745D01*
X0168675Y0108344D02*
X0216775Y0108344D01*
X0216775Y0108943D02*
X0168675Y0108943D01*
X0168675Y0109541D02*
X0216775Y0109541D01*
X0216775Y0110140D02*
X0168675Y0110140D01*
X0168675Y0110738D02*
X0216775Y0110738D01*
X0216775Y0111337D02*
X0168675Y0111337D01*
X0168675Y0111935D02*
X0216775Y0111935D01*
X0216775Y0112534D02*
X0168675Y0112534D01*
X0168675Y0113132D02*
X0216775Y0113132D01*
X0216775Y0113731D02*
X0168675Y0113731D01*
X0168675Y0114329D02*
X0216775Y0114329D01*
X0216775Y0114928D02*
X0168675Y0114928D01*
X0168756Y0115526D02*
X0216775Y0115526D01*
X0216775Y0116125D02*
X0169355Y0116125D01*
X0169953Y0116723D02*
X0216775Y0116723D01*
X0216775Y0117322D02*
X0171042Y0117322D01*
X0171641Y0117920D02*
X0216775Y0117920D01*
X0216775Y0118519D02*
X0172239Y0118519D01*
X0172239Y0119117D02*
X0216775Y0119117D01*
X0216775Y0119716D02*
X0172239Y0119716D01*
X0172239Y0120314D02*
X0216775Y0120314D01*
X0216775Y0120913D02*
X0171658Y0120913D01*
X0171059Y0121511D02*
X0216775Y0121511D01*
X0219575Y0121511D02*
X0278775Y0121511D01*
X0278775Y0120913D02*
X0219575Y0120913D01*
X0219575Y0120314D02*
X0278775Y0120314D01*
X0278775Y0119716D02*
X0219575Y0119716D01*
X0219575Y0119117D02*
X0278775Y0119117D01*
X0278775Y0118519D02*
X0219575Y0118519D01*
X0219575Y0117920D02*
X0278775Y0117920D01*
X0278775Y0117322D02*
X0219575Y0117322D01*
X0219575Y0116723D02*
X0278775Y0116723D01*
X0278775Y0116125D02*
X0219575Y0116125D01*
X0219575Y0115526D02*
X0278775Y0115526D01*
X0278775Y0114928D02*
X0219575Y0114928D01*
X0219575Y0114329D02*
X0278775Y0114329D01*
X0278775Y0113731D02*
X0219575Y0113731D01*
X0219575Y0113132D02*
X0278775Y0113132D01*
X0278775Y0112534D02*
X0219575Y0112534D01*
X0219575Y0111935D02*
X0278775Y0111935D01*
X0278775Y0111337D02*
X0219575Y0111337D01*
X0219575Y0110738D02*
X0278775Y0110738D01*
X0278775Y0110140D02*
X0219575Y0110140D01*
X0219575Y0109541D02*
X0278775Y0109541D01*
X0278775Y0108943D02*
X0219575Y0108943D01*
X0219575Y0108344D02*
X0278775Y0108344D01*
X0278775Y0107745D02*
X0219575Y0107745D01*
X0219575Y0107147D02*
X0278775Y0107147D01*
X0278775Y0106548D02*
X0219575Y0106548D01*
X0219575Y0105950D02*
X0278775Y0105950D01*
X0278775Y0105351D02*
X0219575Y0105351D01*
X0219575Y0104753D02*
X0278775Y0104753D01*
X0278775Y0104154D02*
X0219575Y0104154D01*
X0219575Y0103556D02*
X0278775Y0103556D01*
X0278775Y0102957D02*
X0219575Y0102957D01*
X0219575Y0102359D02*
X0278775Y0102359D01*
X0278775Y0101760D02*
X0219575Y0101760D01*
X0219575Y0101162D02*
X0278775Y0101162D01*
X0278775Y0100563D02*
X0219575Y0100563D01*
X0219575Y0099965D02*
X0278775Y0099965D01*
X0278775Y0099366D02*
X0219575Y0099366D01*
X0219575Y0098768D02*
X0278775Y0098768D01*
X0278775Y0098169D02*
X0219575Y0098169D01*
X0219575Y0097571D02*
X0278775Y0097571D01*
X0278775Y0096972D02*
X0219575Y0096972D01*
X0219575Y0096374D02*
X0278775Y0096374D01*
X0278775Y0095775D02*
X0219575Y0095775D01*
X0219575Y0095177D02*
X0278775Y0095177D01*
X0278775Y0094578D02*
X0219575Y0094578D01*
X0219575Y0093980D02*
X0278775Y0093980D01*
X0278775Y0093381D02*
X0219575Y0093381D01*
X0219575Y0092783D02*
X0278775Y0092783D01*
X0278775Y0092184D02*
X0219575Y0092184D01*
X0219575Y0091586D02*
X0278775Y0091586D01*
X0278775Y0090987D02*
X0219575Y0090987D01*
X0219575Y0090389D02*
X0278775Y0090389D01*
X0278775Y0089790D02*
X0219575Y0089790D01*
X0219575Y0089192D02*
X0278775Y0089192D01*
X0278775Y0088593D02*
X0219575Y0088593D01*
X0219575Y0087995D02*
X0278775Y0087995D01*
X0278775Y0087396D02*
X0219575Y0087396D01*
X0219575Y0086798D02*
X0278775Y0086798D01*
X0278775Y0086199D02*
X0219575Y0086199D01*
X0219575Y0085601D02*
X0278775Y0085601D01*
X0278775Y0085002D02*
X0219575Y0085002D01*
X0219575Y0084404D02*
X0278775Y0084404D01*
X0278775Y0083805D02*
X0219575Y0083805D01*
X0219575Y0083207D02*
X0278775Y0083207D01*
X0278775Y0082608D02*
X0219575Y0082608D01*
X0219575Y0082009D02*
X0278775Y0082009D01*
X0278775Y0081411D02*
X0219575Y0081411D01*
X0219575Y0080812D02*
X0278775Y0080812D01*
X0278775Y0080214D02*
X0219575Y0080214D01*
X0219575Y0079615D02*
X0278775Y0079615D01*
X0278775Y0079017D02*
X0219575Y0079017D01*
X0219575Y0078418D02*
X0278775Y0078418D01*
X0278775Y0077820D02*
X0219575Y0077820D01*
X0219575Y0077221D02*
X0278775Y0077221D01*
X0278243Y0076623D02*
X0219575Y0076623D01*
X0219575Y0076024D02*
X0277645Y0076024D01*
X0275645Y0075426D02*
X0219575Y0075426D01*
X0219575Y0074827D02*
X0275046Y0074827D01*
X0266711Y0074229D02*
X0219575Y0074229D01*
X0219575Y0073630D02*
X0266112Y0073630D01*
X0265514Y0073032D02*
X0219575Y0073032D01*
X0219575Y0072433D02*
X0257178Y0072433D01*
X0256579Y0071835D02*
X0219575Y0071835D01*
X0219575Y0071236D02*
X0255981Y0071236D01*
X0255509Y0066448D02*
X0250841Y0066448D01*
X0251440Y0065850D02*
X0254910Y0065850D01*
X0254489Y0065251D02*
X0251861Y0065251D01*
X0252109Y0064653D02*
X0254241Y0064653D01*
X0253993Y0064054D02*
X0252357Y0064054D01*
X0252375Y0063456D02*
X0253975Y0063456D01*
X0253975Y0062857D02*
X0252375Y0062857D01*
X0252341Y0062259D02*
X0254009Y0062259D01*
X0254256Y0061660D02*
X0252094Y0061660D01*
X0251846Y0061062D02*
X0254504Y0061062D01*
X0254947Y0060463D02*
X0251403Y0060463D01*
X0250804Y0059865D02*
X0255546Y0059865D01*
X0256637Y0059266D02*
X0249713Y0059266D01*
X0246637Y0059266D02*
X0239713Y0059266D01*
X0240804Y0059865D02*
X0245546Y0059865D01*
X0244947Y0060463D02*
X0241403Y0060463D01*
X0241846Y0061062D02*
X0244504Y0061062D01*
X0244256Y0061660D02*
X0242094Y0061660D01*
X0242341Y0062259D02*
X0244009Y0062259D01*
X0243975Y0062857D02*
X0242375Y0062857D01*
X0242375Y0063456D02*
X0243975Y0063456D01*
X0243993Y0064054D02*
X0242357Y0064054D01*
X0242109Y0064653D02*
X0244241Y0064653D01*
X0244489Y0065251D02*
X0241861Y0065251D01*
X0241440Y0065850D02*
X0244910Y0065850D01*
X0245509Y0066448D02*
X0240841Y0066448D01*
X0238112Y0068842D02*
X0219575Y0068842D01*
X0219575Y0068244D02*
X0237514Y0068244D01*
X0236915Y0067645D02*
X0219575Y0067645D01*
X0219803Y0067047D02*
X0226547Y0067047D01*
X0225796Y0066736D02*
X0224614Y0065554D01*
X0223975Y0064010D01*
X0223975Y0062340D01*
X0224614Y0060796D01*
X0225796Y0059614D01*
X0227340Y0058975D01*
X0229010Y0058975D01*
X0230554Y0059614D01*
X0231736Y0060796D01*
X0232375Y0062340D01*
X0232375Y0064010D01*
X0231736Y0065554D01*
X0230554Y0066736D01*
X0229010Y0067375D01*
X0227340Y0067375D01*
X0225796Y0066736D01*
X0225509Y0066448D02*
X0220841Y0066448D01*
X0221440Y0065850D02*
X0224910Y0065850D01*
X0224489Y0065251D02*
X0221861Y0065251D01*
X0222109Y0064653D02*
X0224241Y0064653D01*
X0223993Y0064054D02*
X0222357Y0064054D01*
X0222375Y0063456D02*
X0223975Y0063456D01*
X0223975Y0062857D02*
X0222375Y0062857D01*
X0222341Y0062259D02*
X0224009Y0062259D01*
X0224256Y0061660D02*
X0222094Y0061660D01*
X0221846Y0061062D02*
X0224504Y0061062D01*
X0224947Y0060463D02*
X0221403Y0060463D01*
X0220804Y0059865D02*
X0225546Y0059865D01*
X0226637Y0059266D02*
X0219713Y0059266D01*
X0216637Y0059266D02*
X0209713Y0059266D01*
X0210804Y0059865D02*
X0215546Y0059865D01*
X0214947Y0060463D02*
X0211403Y0060463D01*
X0211846Y0061062D02*
X0214504Y0061062D01*
X0214256Y0061660D02*
X0212094Y0061660D01*
X0212341Y0062259D02*
X0214009Y0062259D01*
X0213975Y0062857D02*
X0212375Y0062857D01*
X0212375Y0063456D02*
X0213975Y0063456D01*
X0213993Y0064054D02*
X0212357Y0064054D01*
X0212109Y0064653D02*
X0214241Y0064653D01*
X0214489Y0065251D02*
X0211861Y0065251D01*
X0211440Y0065850D02*
X0214910Y0065850D01*
X0215509Y0066448D02*
X0210841Y0066448D01*
X0209803Y0067047D02*
X0216547Y0067047D01*
X0219575Y0069441D02*
X0238711Y0069441D01*
X0236547Y0067047D02*
X0229803Y0067047D01*
X0230841Y0066448D02*
X0235509Y0066448D01*
X0234910Y0065850D02*
X0231440Y0065850D01*
X0231861Y0065251D02*
X0234489Y0065251D01*
X0234241Y0064653D02*
X0232109Y0064653D01*
X0232357Y0064054D02*
X0233993Y0064054D01*
X0233975Y0063456D02*
X0232375Y0063456D01*
X0232375Y0062857D02*
X0233975Y0062857D01*
X0234009Y0062259D02*
X0232341Y0062259D01*
X0232094Y0061660D02*
X0234256Y0061660D01*
X0234504Y0061062D02*
X0231846Y0061062D01*
X0231403Y0060463D02*
X0234947Y0060463D01*
X0235546Y0059865D02*
X0230804Y0059865D01*
X0229713Y0059266D02*
X0236637Y0059266D01*
X0247047Y0070039D02*
X0219575Y0070039D01*
X0219575Y0070638D02*
X0247645Y0070638D01*
X0260841Y0066448D02*
X0265509Y0066448D01*
X0264910Y0065850D02*
X0261440Y0065850D01*
X0261861Y0065251D02*
X0264489Y0065251D01*
X0264241Y0064653D02*
X0262109Y0064653D01*
X0262357Y0064054D02*
X0263993Y0064054D01*
X0263975Y0063456D02*
X0262375Y0063456D01*
X0262375Y0062857D02*
X0263975Y0062857D01*
X0264009Y0062259D02*
X0262341Y0062259D01*
X0262094Y0061660D02*
X0264256Y0061660D01*
X0264504Y0061062D02*
X0261846Y0061062D01*
X0261403Y0060463D02*
X0264947Y0060463D01*
X0265546Y0059865D02*
X0260804Y0059865D01*
X0259713Y0059266D02*
X0266637Y0059266D01*
X0269713Y0059266D02*
X0276637Y0059266D01*
X0275546Y0059865D02*
X0270804Y0059865D01*
X0271403Y0060463D02*
X0274947Y0060463D01*
X0274504Y0061062D02*
X0271846Y0061062D01*
X0272094Y0061660D02*
X0274256Y0061660D01*
X0274009Y0062259D02*
X0272341Y0062259D01*
X0272375Y0062857D02*
X0273975Y0062857D01*
X0273975Y0063456D02*
X0272375Y0063456D01*
X0272357Y0064054D02*
X0273993Y0064054D01*
X0274241Y0064653D02*
X0272109Y0064653D01*
X0271861Y0065251D02*
X0274489Y0065251D01*
X0274910Y0065850D02*
X0271440Y0065850D01*
X0270841Y0066448D02*
X0275509Y0066448D01*
X0280841Y0066448D02*
X0285509Y0066448D01*
X0284910Y0065850D02*
X0281440Y0065850D01*
X0281861Y0065251D02*
X0284489Y0065251D01*
X0284241Y0064653D02*
X0282109Y0064653D01*
X0282357Y0064054D02*
X0283993Y0064054D01*
X0283975Y0063456D02*
X0282375Y0063456D01*
X0282375Y0062857D02*
X0283975Y0062857D01*
X0284009Y0062259D02*
X0282341Y0062259D01*
X0282094Y0061660D02*
X0284256Y0061660D01*
X0284504Y0061062D02*
X0281846Y0061062D01*
X0281403Y0060463D02*
X0284947Y0060463D01*
X0285546Y0059865D02*
X0280804Y0059865D01*
X0279713Y0059266D02*
X0286637Y0059266D01*
X0289713Y0059266D02*
X0309571Y0059266D01*
X0309532Y0059293D02*
X0312060Y0057548D01*
X0315110Y0057177D01*
X0317983Y0058267D01*
X0320020Y0060566D01*
X0320020Y0060566D01*
X0320755Y0063549D01*
X0320755Y0063549D01*
X0320020Y0066532D01*
X0317983Y0068831D01*
X0317983Y0068831D01*
X0315110Y0069921D01*
X0312060Y0069551D01*
X0309532Y0067805D01*
X0308104Y0065085D01*
X0308104Y0062013D01*
X0309532Y0059293D01*
X0309532Y0059293D01*
X0309532Y0059293D01*
X0309232Y0059865D02*
X0290804Y0059865D01*
X0291403Y0060463D02*
X0308918Y0060463D01*
X0308604Y0061062D02*
X0291846Y0061062D01*
X0292094Y0061660D02*
X0308289Y0061660D01*
X0308104Y0062259D02*
X0292341Y0062259D01*
X0292375Y0062857D02*
X0308104Y0062857D01*
X0308104Y0063456D02*
X0292375Y0063456D01*
X0292357Y0064054D02*
X0308104Y0064054D01*
X0308104Y0064653D02*
X0292109Y0064653D01*
X0291861Y0065251D02*
X0308192Y0065251D01*
X0308506Y0065850D02*
X0291440Y0065850D01*
X0290841Y0066448D02*
X0308820Y0066448D01*
X0309134Y0067047D02*
X0289803Y0067047D01*
X0289575Y0067645D02*
X0309448Y0067645D01*
X0309532Y0067805D02*
X0309532Y0067805D01*
X0310167Y0068244D02*
X0289575Y0068244D01*
X0289575Y0068842D02*
X0311034Y0068842D01*
X0311901Y0069441D02*
X0289575Y0069441D01*
X0289575Y0070039D02*
X0320910Y0070039D01*
X0320910Y0069441D02*
X0316376Y0069441D01*
X0315110Y0069921D02*
X0315110Y0069921D01*
X0317954Y0068842D02*
X0320910Y0068842D01*
X0320910Y0068244D02*
X0318503Y0068244D01*
X0319033Y0067645D02*
X0320910Y0067645D01*
X0320910Y0067047D02*
X0319564Y0067047D01*
X0320020Y0066532D02*
X0320020Y0066532D01*
X0320040Y0066448D02*
X0320910Y0066448D01*
X0320910Y0065850D02*
X0320188Y0065850D01*
X0320335Y0065251D02*
X0320910Y0065251D01*
X0320910Y0064653D02*
X0320483Y0064653D01*
X0320630Y0064054D02*
X0320910Y0064054D01*
X0320903Y0063456D02*
X0320732Y0063456D01*
X0320855Y0062857D02*
X0320584Y0062857D01*
X0320437Y0062259D02*
X0320744Y0062259D01*
X0320549Y0061660D02*
X0320289Y0061660D01*
X0320355Y0061062D02*
X0320142Y0061062D01*
X0320120Y0060463D02*
X0319928Y0060463D01*
X0319685Y0059865D02*
X0319398Y0059865D01*
X0319250Y0059266D02*
X0318868Y0059266D01*
X0318664Y0058668D02*
X0318338Y0058668D01*
X0317983Y0058267D02*
X0317983Y0058267D01*
X0317983Y0058267D01*
X0317840Y0058069D02*
X0317462Y0058069D01*
X0316639Y0057471D02*
X0315884Y0057471D01*
X0315110Y0057177D02*
X0315110Y0057177D01*
X0312694Y0057471D02*
X0115096Y0057471D01*
X0111907Y0057471D02*
X0111246Y0057471D01*
X0110517Y0058069D02*
X0110046Y0058069D01*
X0109650Y0058668D02*
X0109222Y0058668D01*
X0108783Y0059266D02*
X0108635Y0059266D01*
X0108444Y0059865D02*
X0108201Y0059865D01*
X0108130Y0060463D02*
X0107766Y0060463D01*
X0107816Y0061062D02*
X0107530Y0061062D01*
X0107502Y0061660D02*
X0107336Y0061660D01*
X0107317Y0062259D02*
X0107142Y0062259D01*
X0107030Y0062857D02*
X0107317Y0062857D01*
X0107317Y0063456D02*
X0106983Y0063456D01*
X0106975Y0064054D02*
X0107317Y0064054D01*
X0107317Y0064653D02*
X0106975Y0064653D01*
X0106975Y0065251D02*
X0107404Y0065251D01*
X0107718Y0065850D02*
X0106975Y0065850D01*
X0106975Y0066448D02*
X0108032Y0066448D01*
X0108346Y0067047D02*
X0106975Y0067047D01*
X0106975Y0067645D02*
X0108661Y0067645D01*
X0109380Y0068244D02*
X0106975Y0068244D01*
X0106975Y0068842D02*
X0110247Y0068842D01*
X0111114Y0069441D02*
X0106975Y0069441D01*
X0106975Y0089192D02*
X0146475Y0089192D01*
X0146475Y0089790D02*
X0106975Y0089790D01*
X0106975Y0090389D02*
X0146475Y0090389D01*
X0146475Y0090987D02*
X0106975Y0090987D01*
X0106975Y0091586D02*
X0146475Y0091586D01*
X0146475Y0092184D02*
X0106975Y0092184D01*
X0106975Y0092783D02*
X0146475Y0092783D01*
X0146475Y0093381D02*
X0106975Y0093381D01*
X0106975Y0093980D02*
X0146475Y0093980D01*
X0146475Y0094578D02*
X0106975Y0094578D01*
X0106975Y0095177D02*
X0146475Y0095177D01*
X0146475Y0095775D02*
X0106975Y0095775D01*
X0106975Y0096374D02*
X0146475Y0096374D01*
X0146475Y0096972D02*
X0106975Y0096972D01*
X0106975Y0097571D02*
X0146475Y0097571D01*
X0146475Y0098169D02*
X0106975Y0098169D01*
X0106975Y0098768D02*
X0146475Y0098768D01*
X0146475Y0099366D02*
X0106975Y0099366D01*
X0106975Y0099965D02*
X0146475Y0099965D01*
X0146475Y0100563D02*
X0106975Y0100563D01*
X0106975Y0101162D02*
X0146467Y0101162D01*
X0145986Y0101760D02*
X0106975Y0101760D01*
X0106975Y0102359D02*
X0145986Y0102359D01*
X0145986Y0102957D02*
X0106975Y0102957D01*
X0106975Y0103556D02*
X0146085Y0103556D01*
X0146475Y0104154D02*
X0106975Y0104154D01*
X0106975Y0104753D02*
X0146475Y0104753D01*
X0146475Y0105351D02*
X0106975Y0105351D01*
X0106975Y0105950D02*
X0146475Y0105950D01*
X0146475Y0106548D02*
X0106975Y0106548D01*
X0106975Y0107147D02*
X0146475Y0107147D01*
X0146475Y0107745D02*
X0106975Y0107745D01*
X0106975Y0108344D02*
X0146475Y0108344D01*
X0146475Y0108943D02*
X0106975Y0108943D01*
X0106975Y0109541D02*
X0146475Y0109541D01*
X0146475Y0110140D02*
X0106975Y0110140D01*
X0106975Y0110738D02*
X0146475Y0110738D01*
X0146475Y0111337D02*
X0106975Y0111337D01*
X0106975Y0111935D02*
X0146475Y0111935D01*
X0146475Y0112534D02*
X0106975Y0112534D01*
X0106975Y0113132D02*
X0146475Y0113132D01*
X0146475Y0113731D02*
X0106975Y0113731D01*
X0106975Y0114329D02*
X0146475Y0114329D01*
X0146475Y0114928D02*
X0106975Y0114928D01*
X0106975Y0115526D02*
X0146475Y0115526D01*
X0146475Y0116125D02*
X0106975Y0116125D01*
X0106975Y0116723D02*
X0146475Y0116723D01*
X0146475Y0117322D02*
X0106975Y0117322D01*
X0106975Y0117920D02*
X0146475Y0117920D01*
X0146475Y0118519D02*
X0106975Y0118519D01*
X0106975Y0119117D02*
X0146475Y0119117D01*
X0146475Y0119716D02*
X0106975Y0119716D01*
X0106975Y0120314D02*
X0146475Y0120314D01*
X0146475Y0120913D02*
X0106975Y0120913D01*
X0106975Y0121511D02*
X0146475Y0121511D01*
X0146475Y0122110D02*
X0106975Y0122110D01*
X0106975Y0122708D02*
X0146475Y0122708D01*
X0146475Y0123307D02*
X0106975Y0123307D01*
X0106975Y0123905D02*
X0146475Y0123905D01*
X0146317Y0124504D02*
X0106975Y0124504D01*
X0106975Y0125102D02*
X0145719Y0125102D01*
X0145120Y0125701D02*
X0106975Y0125701D01*
X0106975Y0126299D02*
X0144521Y0126299D01*
X0143231Y0126898D02*
X0106975Y0126898D01*
X0106975Y0127496D02*
X0142633Y0127496D01*
X0142236Y0128095D02*
X0106975Y0128095D01*
X0106975Y0128693D02*
X0142236Y0128693D01*
X0142236Y0129292D02*
X0106975Y0129292D01*
X0106975Y0129890D02*
X0142420Y0129890D01*
X0143018Y0130489D02*
X0106975Y0130489D01*
X0106975Y0143058D02*
X0114313Y0143058D01*
X0113715Y0143656D02*
X0106975Y0143656D01*
X0106975Y0144255D02*
X0113116Y0144255D01*
X0112518Y0144853D02*
X0106975Y0144853D01*
X0106975Y0145452D02*
X0111919Y0145452D01*
X0111475Y0146050D02*
X0106975Y0146050D01*
X0106975Y0146649D02*
X0111475Y0146649D01*
X0111475Y0147247D02*
X0106975Y0147247D01*
X0106975Y0147846D02*
X0111475Y0147846D01*
X0111475Y0148444D02*
X0106975Y0148444D01*
X0106975Y0149043D02*
X0111475Y0149043D01*
X0111475Y0149641D02*
X0106975Y0149641D01*
X0106975Y0150240D02*
X0111475Y0150240D01*
X0111475Y0150838D02*
X0106975Y0150838D01*
X0106975Y0151437D02*
X0111475Y0151437D01*
X0111475Y0152035D02*
X0106975Y0152035D01*
X0106975Y0152634D02*
X0111475Y0152634D01*
X0111475Y0153232D02*
X0106975Y0153232D01*
X0106975Y0153831D02*
X0111475Y0153831D01*
X0111475Y0154429D02*
X0106975Y0154429D01*
X0106975Y0155028D02*
X0111475Y0155028D01*
X0111475Y0155626D02*
X0106975Y0155626D01*
X0106975Y0156225D02*
X0111475Y0156225D01*
X0111475Y0156823D02*
X0106975Y0156823D01*
X0106975Y0157422D02*
X0111475Y0157422D01*
X0111475Y0158020D02*
X0106975Y0158020D01*
X0106975Y0158619D02*
X0111475Y0158619D01*
X0111475Y0159217D02*
X0106975Y0159217D01*
X0106975Y0159816D02*
X0111475Y0159816D01*
X0111475Y0160414D02*
X0106975Y0160414D01*
X0106975Y0161013D02*
X0111475Y0161013D01*
X0111475Y0161612D02*
X0106975Y0161612D01*
X0106975Y0162210D02*
X0111475Y0162210D01*
X0111475Y0162809D02*
X0106975Y0162809D01*
X0106975Y0163407D02*
X0110753Y0163407D01*
X0110155Y0164006D02*
X0106975Y0164006D01*
X0106975Y0164604D02*
X0109590Y0164604D01*
X0109342Y0165203D02*
X0106975Y0165203D01*
X0106975Y0165801D02*
X0109094Y0165801D01*
X0108975Y0166400D02*
X0106975Y0166400D01*
X0106975Y0166998D02*
X0108975Y0166998D01*
X0108975Y0167597D02*
X0106975Y0167597D01*
X0106975Y0168195D02*
X0109155Y0168195D01*
X0109403Y0168794D02*
X0106975Y0168794D01*
X0106975Y0169392D02*
X0109702Y0169392D01*
X0110301Y0169991D02*
X0106975Y0169991D01*
X0106975Y0170589D02*
X0111046Y0170589D01*
X0112436Y0172385D02*
X0106975Y0172385D01*
X0106975Y0172983D02*
X0110779Y0172983D01*
X0110013Y0173582D02*
X0106975Y0173582D01*
X0106975Y0174180D02*
X0109483Y0174180D01*
X0109106Y0174779D02*
X0106975Y0174779D01*
X0106975Y0175377D02*
X0108841Y0175377D01*
X0108668Y0175976D02*
X0106975Y0175976D01*
X0106975Y0176574D02*
X0108575Y0176574D01*
X0112875Y0176574D02*
X0113475Y0176574D01*
X0113475Y0175976D02*
X0112875Y0175976D01*
X0112875Y0175377D02*
X0113475Y0175377D01*
X0113475Y0174779D02*
X0112875Y0174779D01*
X0112875Y0174180D02*
X0113475Y0174180D01*
X0113475Y0173582D02*
X0112875Y0173582D01*
X0112875Y0172983D02*
X0113475Y0172983D01*
X0113475Y0172385D02*
X0112875Y0172385D01*
X0113475Y0177173D02*
X0127339Y0177173D01*
X0128622Y0179567D02*
X0129178Y0179567D01*
X0129777Y0180165D02*
X0128023Y0180165D01*
X0127425Y0180764D02*
X0130375Y0180764D01*
X0130974Y0181362D02*
X0126826Y0181362D01*
X0133138Y0179567D02*
X0133687Y0179567D01*
X0128415Y0164604D02*
X0150525Y0164604D01*
X0151124Y0164006D02*
X0129534Y0164006D01*
X0130133Y0163407D02*
X0197479Y0163407D01*
X0197479Y0162809D02*
X0130587Y0162809D01*
X0130835Y0162210D02*
X0197479Y0162210D01*
X0197479Y0161612D02*
X0131083Y0161612D01*
X0131125Y0161013D02*
X0197479Y0161013D01*
X0197479Y0160414D02*
X0131125Y0160414D01*
X0131115Y0159816D02*
X0197479Y0159816D01*
X0197479Y0159217D02*
X0130867Y0159217D01*
X0130619Y0158619D02*
X0197479Y0158619D01*
X0197479Y0158020D02*
X0130210Y0158020D01*
X0129612Y0157422D02*
X0197479Y0157422D01*
X0197479Y0156823D02*
X0185772Y0156823D01*
X0186370Y0156225D02*
X0197479Y0156225D01*
X0197479Y0155626D02*
X0186604Y0155626D01*
X0186604Y0155028D02*
X0197479Y0155028D01*
X0197479Y0154429D02*
X0186604Y0154429D01*
X0186257Y0153831D02*
X0197479Y0153831D01*
X0197479Y0153232D02*
X0185659Y0153232D01*
X0183172Y0153232D02*
X0138707Y0153232D01*
X0138109Y0152634D02*
X0197479Y0152634D01*
X0197479Y0152035D02*
X0137887Y0152035D01*
X0137887Y0151437D02*
X0148966Y0151437D01*
X0148368Y0150838D02*
X0137887Y0150838D01*
X0137887Y0150240D02*
X0147861Y0150240D01*
X0147861Y0149641D02*
X0137887Y0149641D01*
X0137887Y0149043D02*
X0147861Y0149043D01*
X0147935Y0148444D02*
X0137887Y0148444D01*
X0137887Y0147846D02*
X0148534Y0147846D01*
X0149132Y0147247D02*
X0137887Y0147247D01*
X0137887Y0146649D02*
X0150422Y0146649D01*
X0151021Y0146050D02*
X0137887Y0146050D01*
X0137816Y0145452D02*
X0151619Y0145452D01*
X0152836Y0149043D02*
X0194670Y0149043D01*
X0195269Y0149641D02*
X0152239Y0149641D01*
X0152239Y0150240D02*
X0195867Y0150240D01*
X0196466Y0150838D02*
X0151732Y0150838D01*
X0151134Y0151437D02*
X0197064Y0151437D01*
X0204306Y0164006D02*
X0216775Y0164006D01*
X0216775Y0164604D02*
X0204904Y0164604D01*
X0205305Y0165203D02*
X0216775Y0165203D01*
X0216775Y0165801D02*
X0205305Y0165801D01*
X0205305Y0166400D02*
X0216775Y0166400D01*
X0216775Y0166998D02*
X0205125Y0166998D01*
X0204816Y0167597D02*
X0216775Y0167597D01*
X0216775Y0168195D02*
X0204816Y0168195D01*
X0204816Y0168794D02*
X0216775Y0168794D01*
X0216775Y0169392D02*
X0204816Y0169392D01*
X0204816Y0169991D02*
X0216775Y0169991D01*
X0216775Y0170589D02*
X0204816Y0170589D01*
X0204816Y0171188D02*
X0216307Y0171188D01*
X0215709Y0171786D02*
X0205197Y0171786D01*
X0205305Y0172385D02*
X0215110Y0172385D01*
X0214512Y0172983D02*
X0205305Y0172983D01*
X0205305Y0173582D02*
X0213913Y0173582D01*
X0213315Y0174180D02*
X0204832Y0174180D01*
X0204234Y0174779D02*
X0212716Y0174779D01*
X0218472Y0172983D02*
X0219888Y0172983D01*
X0219628Y0172385D02*
X0219070Y0172385D01*
X0219575Y0171786D02*
X0219628Y0171786D01*
X0219628Y0171188D02*
X0219575Y0171188D01*
X0219575Y0170589D02*
X0219949Y0170589D01*
X0220117Y0169991D02*
X0219575Y0169991D01*
X0219575Y0169392D02*
X0220117Y0169392D01*
X0220117Y0168794D02*
X0219575Y0168794D01*
X0219575Y0168195D02*
X0220117Y0168195D01*
X0220117Y0167597D02*
X0219575Y0167597D01*
X0219575Y0166998D02*
X0219808Y0166998D01*
X0219628Y0166400D02*
X0219575Y0166400D01*
X0219575Y0165801D02*
X0219628Y0165801D01*
X0219628Y0165203D02*
X0219575Y0165203D01*
X0219575Y0164604D02*
X0220028Y0164604D01*
X0219575Y0164006D02*
X0220627Y0164006D01*
X0201368Y0180764D02*
X0265800Y0180764D01*
X0265800Y0181362D02*
X0201368Y0181362D01*
X0201368Y0181961D02*
X0265800Y0181961D01*
X0265800Y0182559D02*
X0201368Y0182559D01*
X0200879Y0183158D02*
X0265800Y0183158D01*
X0265800Y0183756D02*
X0200879Y0183756D01*
X0200879Y0184355D02*
X0265800Y0184355D01*
X0265800Y0184953D02*
X0200879Y0184953D01*
X0200879Y0185552D02*
X0265800Y0185552D01*
X0265800Y0186150D02*
X0200879Y0186150D01*
X0200879Y0186749D02*
X0265800Y0186749D01*
X0265800Y0187347D02*
X0200879Y0187347D01*
X0200879Y0187946D02*
X0265800Y0187946D01*
X0265800Y0188545D02*
X0200879Y0188545D01*
X0200879Y0189143D02*
X0265800Y0189143D01*
X0265800Y0189742D02*
X0200879Y0189742D01*
X0200879Y0190340D02*
X0265800Y0190340D01*
X0265800Y0190939D02*
X0201020Y0190939D01*
X0201618Y0191537D02*
X0265800Y0191537D01*
X0265800Y0192136D02*
X0202217Y0192136D01*
X0202815Y0192734D02*
X0265800Y0192734D01*
X0265800Y0193333D02*
X0203414Y0193333D01*
X0204012Y0193931D02*
X0265800Y0193931D01*
X0265800Y0194530D02*
X0204611Y0194530D01*
X0202197Y0196924D02*
X0196250Y0196924D01*
X0196250Y0197522D02*
X0202795Y0197522D01*
X0203394Y0198121D02*
X0196250Y0198121D01*
X0196250Y0198719D02*
X0256158Y0198719D01*
X0256756Y0199318D02*
X0196250Y0199318D01*
X0196250Y0199916D02*
X0257355Y0199916D01*
X0257953Y0200515D02*
X0196250Y0200515D01*
X0196250Y0201113D02*
X0258503Y0201113D01*
X0258503Y0201712D02*
X0196250Y0201712D01*
X0196250Y0202310D02*
X0258503Y0202310D01*
X0258503Y0202909D02*
X0196250Y0202909D01*
X0196250Y0203507D02*
X0258503Y0203507D01*
X0258503Y0204106D02*
X0196250Y0204106D01*
X0196250Y0204704D02*
X0258503Y0204704D01*
X0258503Y0205303D02*
X0196250Y0205303D01*
X0196250Y0205901D02*
X0258503Y0205901D01*
X0258503Y0206500D02*
X0196250Y0206500D01*
X0196250Y0207098D02*
X0258503Y0207098D01*
X0258503Y0207697D02*
X0196250Y0207697D01*
X0196250Y0208295D02*
X0258503Y0208295D01*
X0258503Y0208894D02*
X0196250Y0208894D01*
X0196250Y0209492D02*
X0258503Y0209492D01*
X0258503Y0210091D02*
X0196250Y0210091D01*
X0196250Y0210689D02*
X0258503Y0210689D01*
X0258503Y0211288D02*
X0196250Y0211288D01*
X0196250Y0211886D02*
X0244529Y0211886D01*
X0244381Y0212485D02*
X0196250Y0212485D01*
X0196250Y0213083D02*
X0244381Y0213083D01*
X0244381Y0217273D02*
X0227731Y0217273D01*
X0227375Y0217872D02*
X0244381Y0217872D01*
X0244559Y0218470D02*
X0232056Y0218470D01*
X0231915Y0218389D02*
X0232211Y0218560D01*
X0232453Y0218802D01*
X0232625Y0219098D01*
X0232713Y0219429D01*
X0232713Y0221300D01*
X0230463Y0221300D01*
X0230463Y0218300D01*
X0231584Y0218300D01*
X0231915Y0218389D01*
X0232607Y0219069D02*
X0235652Y0219069D01*
X0235494Y0219667D02*
X0232713Y0219667D01*
X0232713Y0220266D02*
X0235494Y0220266D01*
X0235494Y0220864D02*
X0232713Y0220864D01*
X0232713Y0221900D02*
X0230463Y0221900D01*
X0229863Y0221900D01*
X0229863Y0221300D01*
X0227613Y0221300D01*
X0227613Y0219429D01*
X0227702Y0219098D01*
X0227873Y0218802D01*
X0228115Y0218560D01*
X0228411Y0218389D01*
X0228742Y0218300D01*
X0229863Y0218300D01*
X0229863Y0221300D01*
X0230463Y0221300D01*
X0230463Y0221900D01*
X0230463Y0224900D01*
X0231584Y0224900D01*
X0231915Y0224812D01*
X0232211Y0224640D01*
X0232453Y0224398D01*
X0232625Y0224102D01*
X0232713Y0223771D01*
X0232713Y0221900D01*
X0232713Y0222061D02*
X0235494Y0222061D01*
X0235494Y0221463D02*
X0230463Y0221463D01*
X0230463Y0222061D02*
X0229863Y0222061D01*
X0229863Y0221900D02*
X0229863Y0224900D01*
X0228742Y0224900D01*
X0228411Y0224812D01*
X0228115Y0224640D01*
X0227873Y0224398D01*
X0227702Y0224102D01*
X0227613Y0223771D01*
X0227613Y0221900D01*
X0229863Y0221900D01*
X0229863Y0221463D02*
X0227375Y0221463D01*
X0227375Y0222061D02*
X0227613Y0222061D01*
X0227613Y0222660D02*
X0227375Y0222660D01*
X0227375Y0223258D02*
X0227613Y0223258D01*
X0227636Y0223857D02*
X0227375Y0223857D01*
X0227375Y0224455D02*
X0227930Y0224455D01*
X0227375Y0225054D02*
X0285175Y0225054D01*
X0285175Y0225652D02*
X0227375Y0225652D01*
X0227375Y0226251D02*
X0244732Y0226251D01*
X0244909Y0226074D02*
X0251166Y0226074D01*
X0251693Y0226601D01*
X0251693Y0228030D01*
X0252934Y0228030D01*
X0253390Y0228486D01*
X0254082Y0228486D01*
X0255364Y0229768D01*
X0255364Y0231582D01*
X0254082Y0232864D01*
X0252268Y0232864D01*
X0251693Y0232289D01*
X0251693Y0232859D01*
X0251166Y0233386D01*
X0244909Y0233386D01*
X0244381Y0232859D01*
X0244381Y0226601D01*
X0244909Y0226074D01*
X0244381Y0226849D02*
X0235801Y0226849D01*
X0236053Y0227101D02*
X0236053Y0228025D01*
X0237104Y0228025D01*
X0237893Y0227236D01*
X0239707Y0227236D01*
X0240989Y0228518D01*
X0240989Y0230332D01*
X0239707Y0231614D01*
X0237893Y0231614D01*
X0237104Y0230825D01*
X0236053Y0230825D01*
X0236053Y0231847D01*
X0235526Y0232374D01*
X0232281Y0232374D01*
X0231753Y0231847D01*
X0231753Y0227101D01*
X0232281Y0226574D01*
X0235526Y0226574D01*
X0236053Y0227101D01*
X0236053Y0227448D02*
X0237682Y0227448D01*
X0239918Y0227448D02*
X0244381Y0227448D01*
X0244381Y0228046D02*
X0240517Y0228046D01*
X0240989Y0228645D02*
X0244381Y0228645D01*
X0244381Y0229243D02*
X0240989Y0229243D01*
X0240989Y0229842D02*
X0244381Y0229842D01*
X0244381Y0230440D02*
X0240880Y0230440D01*
X0240282Y0231039D02*
X0244381Y0231039D01*
X0244381Y0231637D02*
X0236053Y0231637D01*
X0236053Y0231039D02*
X0237318Y0231039D01*
X0235664Y0232236D02*
X0244381Y0232236D01*
X0244381Y0232834D02*
X0196250Y0232834D01*
X0196250Y0232236D02*
X0232142Y0232236D01*
X0231753Y0231637D02*
X0196250Y0231637D01*
X0196250Y0231039D02*
X0224193Y0231039D01*
X0223595Y0230440D02*
X0196250Y0230440D01*
X0196250Y0229842D02*
X0223486Y0229842D01*
X0223486Y0229243D02*
X0196250Y0229243D01*
X0196250Y0228645D02*
X0223486Y0228645D01*
X0223958Y0228046D02*
X0196250Y0228046D01*
X0196250Y0227448D02*
X0223975Y0227448D01*
X0223975Y0226849D02*
X0196250Y0226849D01*
X0196250Y0226251D02*
X0223975Y0226251D01*
X0223975Y0225652D02*
X0196250Y0225652D01*
X0196250Y0225054D02*
X0223975Y0225054D01*
X0223975Y0224455D02*
X0196250Y0224455D01*
X0196250Y0223857D02*
X0223975Y0223857D01*
X0223975Y0223258D02*
X0196250Y0223258D01*
X0196250Y0222660D02*
X0223975Y0222660D01*
X0223975Y0222061D02*
X0196250Y0222061D01*
X0196250Y0221463D02*
X0223975Y0221463D01*
X0223975Y0220864D02*
X0196250Y0220864D01*
X0196250Y0220266D02*
X0223975Y0220266D01*
X0223975Y0219667D02*
X0196250Y0219667D01*
X0196250Y0219069D02*
X0223975Y0219069D01*
X0223975Y0218470D02*
X0196250Y0218470D01*
X0196250Y0217872D02*
X0223975Y0217872D01*
X0223975Y0217273D02*
X0196250Y0217273D01*
X0196250Y0216675D02*
X0223975Y0216675D01*
X0224120Y0216076D02*
X0196250Y0216076D01*
X0196250Y0215478D02*
X0224718Y0215478D01*
X0225317Y0214879D02*
X0196250Y0214879D01*
X0196250Y0214280D02*
X0225915Y0214280D01*
X0226514Y0213682D02*
X0196250Y0213682D01*
X0196250Y0196325D02*
X0201598Y0196325D01*
X0201000Y0195727D02*
X0196250Y0195727D01*
X0196250Y0195128D02*
X0200401Y0195128D01*
X0199803Y0194530D02*
X0196250Y0194530D01*
X0196250Y0193931D02*
X0199204Y0193931D01*
X0198606Y0193333D02*
X0196250Y0193333D01*
X0196250Y0192734D02*
X0198007Y0192734D01*
X0197479Y0192136D02*
X0196250Y0192136D01*
X0196250Y0191537D02*
X0197479Y0191537D01*
X0197479Y0190939D02*
X0196250Y0190939D01*
X0196250Y0190340D02*
X0197479Y0190340D01*
X0197479Y0189742D02*
X0196250Y0189742D01*
X0196250Y0189143D02*
X0197479Y0189143D01*
X0197479Y0188545D02*
X0196250Y0188545D01*
X0196250Y0187946D02*
X0197479Y0187946D01*
X0197479Y0187347D02*
X0196250Y0187347D01*
X0196250Y0186749D02*
X0197479Y0186749D01*
X0197479Y0186150D02*
X0196250Y0186150D01*
X0196250Y0185552D02*
X0197479Y0185552D01*
X0197479Y0184953D02*
X0196250Y0184953D01*
X0196250Y0184355D02*
X0197479Y0184355D01*
X0197479Y0183756D02*
X0196250Y0183756D01*
X0196250Y0183158D02*
X0197479Y0183158D01*
X0196990Y0182559D02*
X0196250Y0182559D01*
X0196250Y0181961D02*
X0196990Y0181961D01*
X0196990Y0181362D02*
X0196250Y0181362D01*
X0196250Y0180764D02*
X0196990Y0180764D01*
X0197577Y0180165D02*
X0196250Y0180165D01*
X0195050Y0180165D02*
X0182405Y0180165D01*
X0196250Y0176574D02*
X0197888Y0176574D01*
X0197290Y0175976D02*
X0196250Y0175976D01*
X0196250Y0175377D02*
X0196990Y0175377D01*
X0196990Y0174779D02*
X0196250Y0174779D01*
X0196250Y0174180D02*
X0196990Y0174180D01*
X0197271Y0173582D02*
X0196250Y0173582D01*
X0196250Y0172983D02*
X0197479Y0172983D01*
X0197479Y0172385D02*
X0196250Y0172385D01*
X0196250Y0171786D02*
X0197479Y0171786D01*
X0197479Y0171188D02*
X0196010Y0171188D01*
X0200781Y0180165D02*
X0265800Y0180165D01*
X0270200Y0180165D02*
X0276859Y0180165D01*
X0276753Y0180271D02*
X0277281Y0179744D01*
X0280526Y0179744D01*
X0281053Y0180271D01*
X0281053Y0180455D01*
X0282763Y0180455D01*
X0284045Y0181737D01*
X0284045Y0183550D01*
X0282763Y0184832D01*
X0281053Y0184832D01*
X0281053Y0185016D01*
X0280526Y0185543D01*
X0277281Y0185543D01*
X0276753Y0185016D01*
X0276753Y0180271D01*
X0276753Y0180764D02*
X0270200Y0180764D01*
X0270200Y0181362D02*
X0276753Y0181362D01*
X0276753Y0181961D02*
X0270200Y0181961D01*
X0270200Y0182559D02*
X0276753Y0182559D01*
X0276753Y0183158D02*
X0270200Y0183158D01*
X0270200Y0183756D02*
X0276753Y0183756D01*
X0276753Y0184355D02*
X0270200Y0184355D01*
X0270200Y0184953D02*
X0276753Y0184953D01*
X0281053Y0184953D02*
X0285175Y0184953D01*
X0285175Y0184355D02*
X0283240Y0184355D01*
X0283839Y0183756D02*
X0285175Y0183756D01*
X0285175Y0183158D02*
X0284045Y0183158D01*
X0284045Y0182559D02*
X0285175Y0182559D01*
X0285175Y0181961D02*
X0284045Y0181961D01*
X0283671Y0181362D02*
X0285175Y0181362D01*
X0285175Y0180764D02*
X0283072Y0180764D01*
X0285175Y0180165D02*
X0280948Y0180165D01*
X0281021Y0177669D02*
X0280494Y0177142D01*
X0280494Y0176958D01*
X0278981Y0176958D01*
X0277713Y0175691D01*
X0277713Y0176941D01*
X0277625Y0177271D01*
X0277453Y0177568D01*
X0277211Y0177810D01*
X0276915Y0177981D01*
X0276584Y0178069D01*
X0275463Y0178069D01*
X0275463Y0175070D01*
X0274863Y0175070D01*
X0274863Y0178069D01*
X0273742Y0178069D01*
X0273411Y0177981D01*
X0273115Y0177810D01*
X0272873Y0177568D01*
X0272702Y0177271D01*
X0272613Y0176941D01*
X0272613Y0175069D01*
X0274863Y0175069D01*
X0274863Y0174470D01*
X0272613Y0174470D01*
X0272613Y0172598D01*
X0272702Y0172268D01*
X0272873Y0171971D01*
X0273115Y0171729D01*
X0273411Y0171558D01*
X0273742Y0171469D01*
X0274863Y0171469D01*
X0274863Y0174469D01*
X0275463Y0174469D01*
X0275463Y0171469D01*
X0276584Y0171469D01*
X0276915Y0171558D01*
X0277211Y0171729D01*
X0277453Y0171971D01*
X0277625Y0172268D01*
X0277713Y0172598D01*
X0277713Y0173848D01*
X0278981Y0172581D01*
X0280494Y0172581D01*
X0280494Y0172397D01*
X0281021Y0171869D01*
X0284266Y0171869D01*
X0284793Y0172397D01*
X0284793Y0177142D01*
X0284266Y0177669D01*
X0281021Y0177669D01*
X0280524Y0177173D02*
X0277651Y0177173D01*
X0277713Y0176574D02*
X0278597Y0176574D01*
X0277998Y0175976D02*
X0277713Y0175976D01*
X0277250Y0177771D02*
X0285175Y0177771D01*
X0285175Y0177173D02*
X0284763Y0177173D01*
X0284793Y0176574D02*
X0285175Y0176574D01*
X0285175Y0175976D02*
X0284793Y0175976D01*
X0284793Y0175377D02*
X0285175Y0175377D01*
X0285175Y0174779D02*
X0284793Y0174779D01*
X0284793Y0174180D02*
X0285175Y0174180D01*
X0285175Y0173582D02*
X0284793Y0173582D01*
X0284793Y0172983D02*
X0285175Y0172983D01*
X0285175Y0172385D02*
X0284782Y0172385D01*
X0285175Y0171786D02*
X0277268Y0171786D01*
X0277656Y0172385D02*
X0280505Y0172385D01*
X0278578Y0172983D02*
X0277713Y0172983D01*
X0277713Y0173582D02*
X0277980Y0173582D01*
X0275463Y0173582D02*
X0274863Y0173582D01*
X0274863Y0174180D02*
X0275463Y0174180D01*
X0274863Y0174779D02*
X0270200Y0174779D01*
X0270200Y0175377D02*
X0272613Y0175377D01*
X0272613Y0175976D02*
X0270200Y0175976D01*
X0270200Y0176574D02*
X0272613Y0176574D01*
X0272675Y0177173D02*
X0270200Y0177173D01*
X0270200Y0177771D02*
X0273077Y0177771D01*
X0274863Y0177771D02*
X0275463Y0177771D01*
X0275463Y0177173D02*
X0274863Y0177173D01*
X0274863Y0176574D02*
X0275463Y0176574D01*
X0275463Y0175976D02*
X0274863Y0175976D01*
X0274863Y0175377D02*
X0275463Y0175377D01*
X0275463Y0172983D02*
X0274863Y0172983D01*
X0274863Y0172385D02*
X0275463Y0172385D01*
X0275463Y0171786D02*
X0274863Y0171786D01*
X0273058Y0171786D02*
X0270200Y0171786D01*
X0270200Y0171188D02*
X0285175Y0171188D01*
X0285175Y0170589D02*
X0270200Y0170589D01*
X0270200Y0169991D02*
X0285175Y0169991D01*
X0285175Y0169392D02*
X0270200Y0169392D01*
X0270786Y0168794D02*
X0285175Y0168794D01*
X0285175Y0168195D02*
X0271385Y0168195D01*
X0271983Y0167597D02*
X0285175Y0167597D01*
X0285175Y0166998D02*
X0272582Y0166998D01*
X0272670Y0172385D02*
X0270200Y0172385D01*
X0270200Y0172983D02*
X0272613Y0172983D01*
X0272613Y0173582D02*
X0270200Y0173582D01*
X0270200Y0174180D02*
X0272613Y0174180D01*
X0270200Y0178370D02*
X0285175Y0178370D01*
X0285175Y0178968D02*
X0270200Y0178968D01*
X0270200Y0179567D02*
X0285175Y0179567D01*
X0289575Y0179262D02*
X0289575Y0171556D01*
X0289800Y0171782D01*
X0296058Y0171782D01*
X0296585Y0171254D01*
X0296585Y0169363D01*
X0296733Y0169363D01*
X0298975Y0171606D01*
X0298975Y0186051D01*
X0298368Y0186658D01*
X0298368Y0188471D01*
X0298975Y0189079D01*
X0298975Y0211447D01*
X0296959Y0213463D01*
X0296693Y0213463D01*
X0296693Y0212034D01*
X0296166Y0211507D01*
X0289909Y0211507D01*
X0289575Y0211841D01*
X0289575Y0186123D01*
X0289800Y0186349D01*
X0296058Y0186349D01*
X0296585Y0185821D01*
X0296585Y0185817D01*
X0297527Y0185817D01*
X0298809Y0184534D01*
X0298809Y0182721D01*
X0297527Y0181439D01*
X0296585Y0181439D01*
X0296585Y0179564D01*
X0296058Y0179037D01*
X0289800Y0179037D01*
X0289575Y0179262D01*
X0289575Y0178968D02*
X0298975Y0178968D01*
X0298975Y0178370D02*
X0289575Y0178370D01*
X0289575Y0177771D02*
X0298975Y0177771D01*
X0298975Y0177173D02*
X0289575Y0177173D01*
X0289575Y0176574D02*
X0298975Y0176574D01*
X0298975Y0175976D02*
X0289575Y0175976D01*
X0289575Y0175377D02*
X0298975Y0175377D01*
X0298975Y0174779D02*
X0289575Y0174779D01*
X0289575Y0174180D02*
X0298975Y0174180D01*
X0298975Y0173582D02*
X0289575Y0173582D01*
X0289575Y0172983D02*
X0298975Y0172983D01*
X0298975Y0172385D02*
X0289575Y0172385D01*
X0289575Y0171786D02*
X0298975Y0171786D01*
X0298557Y0171188D02*
X0296585Y0171188D01*
X0296585Y0170589D02*
X0297959Y0170589D01*
X0297360Y0169991D02*
X0296585Y0169991D01*
X0296585Y0169392D02*
X0296762Y0169392D01*
X0296895Y0165801D02*
X0296585Y0165801D01*
X0296585Y0165203D02*
X0297493Y0165203D01*
X0298092Y0164604D02*
X0296192Y0164604D01*
X0298690Y0164006D02*
X0289575Y0164006D01*
X0289575Y0164604D02*
X0289666Y0164604D01*
X0289575Y0163407D02*
X0298975Y0163407D01*
X0298975Y0162809D02*
X0289575Y0162809D01*
X0289575Y0162210D02*
X0298975Y0162210D01*
X0298975Y0161612D02*
X0289575Y0161612D01*
X0289575Y0161013D02*
X0298975Y0161013D01*
X0298975Y0160414D02*
X0289575Y0160414D01*
X0289575Y0159816D02*
X0298975Y0159816D01*
X0298975Y0159217D02*
X0289575Y0159217D01*
X0289575Y0158619D02*
X0298975Y0158619D01*
X0298975Y0158020D02*
X0289575Y0158020D01*
X0289575Y0157422D02*
X0298975Y0157422D01*
X0298975Y0156823D02*
X0289575Y0156823D01*
X0289575Y0156225D02*
X0298975Y0156225D01*
X0298975Y0155626D02*
X0289575Y0155626D01*
X0289575Y0155028D02*
X0298975Y0155028D01*
X0298975Y0154429D02*
X0289575Y0154429D01*
X0289575Y0153831D02*
X0298975Y0153831D01*
X0298975Y0153232D02*
X0289575Y0153232D01*
X0289575Y0152634D02*
X0298975Y0152634D01*
X0298975Y0152035D02*
X0289575Y0152035D01*
X0289575Y0151437D02*
X0298975Y0151437D01*
X0298975Y0150838D02*
X0289575Y0150838D01*
X0289575Y0150240D02*
X0298975Y0150240D01*
X0298975Y0149641D02*
X0289575Y0149641D01*
X0289575Y0149043D02*
X0298975Y0149043D01*
X0298975Y0148444D02*
X0289575Y0148444D01*
X0289575Y0147846D02*
X0298975Y0147846D01*
X0298975Y0147247D02*
X0289575Y0147247D01*
X0289575Y0146649D02*
X0298975Y0146649D01*
X0298975Y0146050D02*
X0289575Y0146050D01*
X0289575Y0145452D02*
X0298975Y0145452D01*
X0298975Y0144853D02*
X0289575Y0144853D01*
X0289575Y0144255D02*
X0298975Y0144255D01*
X0298975Y0143656D02*
X0289575Y0143656D01*
X0289575Y0143058D02*
X0298975Y0143058D01*
X0298975Y0142459D02*
X0289575Y0142459D01*
X0289575Y0141861D02*
X0298975Y0141861D01*
X0298975Y0141262D02*
X0289575Y0141262D01*
X0289575Y0140664D02*
X0298818Y0140664D01*
X0298486Y0140065D02*
X0289575Y0140065D01*
X0289575Y0139467D02*
X0298486Y0139467D01*
X0298486Y0138868D02*
X0289575Y0138868D01*
X0289575Y0138270D02*
X0298735Y0138270D01*
X0298975Y0137671D02*
X0289575Y0137671D01*
X0289575Y0137073D02*
X0298975Y0137073D01*
X0298975Y0136474D02*
X0289575Y0136474D01*
X0289575Y0135876D02*
X0298975Y0135876D01*
X0298975Y0135277D02*
X0289575Y0135277D01*
X0289575Y0134678D02*
X0298975Y0134678D01*
X0298975Y0134080D02*
X0289575Y0134080D01*
X0289575Y0133481D02*
X0298975Y0133481D01*
X0298975Y0132883D02*
X0289575Y0132883D01*
X0289575Y0132284D02*
X0298975Y0132284D01*
X0298975Y0131686D02*
X0289575Y0131686D01*
X0289575Y0131087D02*
X0298975Y0131087D01*
X0298975Y0130489D02*
X0289575Y0130489D01*
X0289575Y0129890D02*
X0298975Y0129890D01*
X0298975Y0129292D02*
X0289575Y0129292D01*
X0289575Y0128693D02*
X0298975Y0128693D01*
X0298975Y0128095D02*
X0289575Y0128095D01*
X0289575Y0127496D02*
X0298975Y0127496D01*
X0298975Y0126898D02*
X0289575Y0126898D01*
X0289575Y0126299D02*
X0298975Y0126299D01*
X0298975Y0125701D02*
X0289575Y0125701D01*
X0289575Y0125102D02*
X0298975Y0125102D01*
X0298975Y0124504D02*
X0289575Y0124504D01*
X0289575Y0123905D02*
X0298975Y0123905D01*
X0298975Y0123307D02*
X0289575Y0123307D01*
X0289575Y0122708D02*
X0298975Y0122708D01*
X0298975Y0122110D02*
X0289575Y0122110D01*
X0289575Y0121511D02*
X0298975Y0121511D01*
X0298975Y0120913D02*
X0289575Y0120913D01*
X0289575Y0120314D02*
X0298975Y0120314D01*
X0298975Y0119716D02*
X0289575Y0119716D01*
X0289575Y0119117D02*
X0298975Y0119117D01*
X0298975Y0118519D02*
X0289575Y0118519D01*
X0289575Y0117920D02*
X0298975Y0117920D01*
X0298975Y0117322D02*
X0289575Y0117322D01*
X0289575Y0116723D02*
X0298975Y0116723D01*
X0298975Y0116125D02*
X0289575Y0116125D01*
X0289575Y0115526D02*
X0298975Y0115526D01*
X0298975Y0114928D02*
X0289575Y0114928D01*
X0289575Y0114329D02*
X0298975Y0114329D01*
X0298975Y0113731D02*
X0289575Y0113731D01*
X0289575Y0113132D02*
X0298975Y0113132D01*
X0298975Y0112534D02*
X0289575Y0112534D01*
X0289575Y0111935D02*
X0298975Y0111935D01*
X0298975Y0111337D02*
X0289575Y0111337D01*
X0289575Y0110738D02*
X0298975Y0110738D01*
X0298975Y0110140D02*
X0289575Y0110140D01*
X0289575Y0109541D02*
X0298975Y0109541D01*
X0298975Y0108943D02*
X0289575Y0108943D01*
X0289575Y0108344D02*
X0298975Y0108344D01*
X0298975Y0107745D02*
X0289575Y0107745D01*
X0289575Y0107147D02*
X0298975Y0107147D01*
X0298975Y0106548D02*
X0289575Y0106548D01*
X0289575Y0105950D02*
X0298975Y0105950D01*
X0298975Y0105351D02*
X0289575Y0105351D01*
X0289575Y0104753D02*
X0298975Y0104753D01*
X0298975Y0104154D02*
X0289575Y0104154D01*
X0289575Y0103556D02*
X0298975Y0103556D01*
X0298975Y0102957D02*
X0289575Y0102957D01*
X0289575Y0102359D02*
X0298975Y0102359D01*
X0298975Y0101760D02*
X0289575Y0101760D01*
X0289575Y0101162D02*
X0298975Y0101162D01*
X0298975Y0100563D02*
X0289575Y0100563D01*
X0289575Y0099965D02*
X0298975Y0099965D01*
X0298975Y0099366D02*
X0289575Y0099366D01*
X0289575Y0098768D02*
X0298975Y0098768D01*
X0298975Y0098169D02*
X0289575Y0098169D01*
X0289575Y0097571D02*
X0298975Y0097571D01*
X0298975Y0096972D02*
X0289575Y0096972D01*
X0289575Y0096374D02*
X0298975Y0096374D01*
X0298975Y0095775D02*
X0289575Y0095775D01*
X0289575Y0095177D02*
X0298975Y0095177D01*
X0298424Y0094578D02*
X0289575Y0094578D01*
X0289575Y0093980D02*
X0297826Y0093980D01*
X0297227Y0093381D02*
X0289575Y0093381D01*
X0289575Y0092783D02*
X0296629Y0092783D01*
X0296030Y0092184D02*
X0289575Y0092184D01*
X0289575Y0091586D02*
X0294740Y0091586D01*
X0294141Y0090987D02*
X0289575Y0090987D01*
X0289575Y0090389D02*
X0293543Y0090389D01*
X0293486Y0089790D02*
X0289575Y0089790D01*
X0289575Y0089192D02*
X0293486Y0089192D01*
X0293486Y0088593D02*
X0289575Y0088593D01*
X0289575Y0087995D02*
X0294010Y0087995D01*
X0294608Y0087396D02*
X0289575Y0087396D01*
X0289575Y0086798D02*
X0320910Y0086798D01*
X0320910Y0087396D02*
X0296742Y0087396D01*
X0297340Y0087995D02*
X0320910Y0087995D01*
X0320910Y0088593D02*
X0297864Y0088593D01*
X0297864Y0089192D02*
X0320910Y0089192D01*
X0320910Y0089790D02*
X0298444Y0089790D01*
X0299043Y0090389D02*
X0320910Y0090389D01*
X0320910Y0090987D02*
X0299641Y0090987D01*
X0300240Y0091586D02*
X0320910Y0091586D01*
X0320910Y0092184D02*
X0300838Y0092184D01*
X0301437Y0092783D02*
X0320910Y0092783D01*
X0320910Y0093381D02*
X0302035Y0093381D01*
X0302375Y0093980D02*
X0320910Y0093980D01*
X0320910Y0094578D02*
X0302375Y0094578D01*
X0302375Y0095177D02*
X0320910Y0095177D01*
X0320910Y0095775D02*
X0302375Y0095775D01*
X0302375Y0096374D02*
X0320910Y0096374D01*
X0320910Y0096972D02*
X0302375Y0096972D01*
X0302375Y0097571D02*
X0320910Y0097571D01*
X0320910Y0098169D02*
X0302375Y0098169D01*
X0302375Y0098768D02*
X0320910Y0098768D01*
X0320910Y0099366D02*
X0302375Y0099366D01*
X0302375Y0099965D02*
X0320910Y0099965D01*
X0320910Y0100563D02*
X0302375Y0100563D01*
X0302375Y0101162D02*
X0320910Y0101162D01*
X0320910Y0101760D02*
X0302375Y0101760D01*
X0302375Y0102359D02*
X0320910Y0102359D01*
X0320910Y0102957D02*
X0302375Y0102957D01*
X0302375Y0103556D02*
X0320910Y0103556D01*
X0320910Y0104154D02*
X0302375Y0104154D01*
X0302375Y0104753D02*
X0320910Y0104753D01*
X0320910Y0105351D02*
X0302375Y0105351D01*
X0302375Y0105950D02*
X0320910Y0105950D01*
X0320910Y0106548D02*
X0302375Y0106548D01*
X0302375Y0107147D02*
X0320910Y0107147D01*
X0320910Y0107745D02*
X0302375Y0107745D01*
X0302375Y0108344D02*
X0320910Y0108344D01*
X0320910Y0108943D02*
X0302375Y0108943D01*
X0302375Y0109541D02*
X0320910Y0109541D01*
X0320910Y0110140D02*
X0302375Y0110140D01*
X0302375Y0110738D02*
X0320910Y0110738D01*
X0320910Y0111337D02*
X0302375Y0111337D01*
X0302375Y0111935D02*
X0320910Y0111935D01*
X0320910Y0112534D02*
X0302375Y0112534D01*
X0302375Y0113132D02*
X0320910Y0113132D01*
X0320910Y0113731D02*
X0302375Y0113731D01*
X0302375Y0114329D02*
X0320910Y0114329D01*
X0320910Y0114928D02*
X0302375Y0114928D01*
X0302375Y0115526D02*
X0320910Y0115526D01*
X0320910Y0116125D02*
X0302375Y0116125D01*
X0302375Y0116723D02*
X0320910Y0116723D01*
X0320910Y0117322D02*
X0302375Y0117322D01*
X0302375Y0117920D02*
X0320910Y0117920D01*
X0320910Y0118519D02*
X0302375Y0118519D01*
X0302375Y0119117D02*
X0320910Y0119117D01*
X0320910Y0119716D02*
X0302375Y0119716D01*
X0302375Y0120314D02*
X0320910Y0120314D01*
X0320910Y0120913D02*
X0302375Y0120913D01*
X0302375Y0121511D02*
X0320910Y0121511D01*
X0320910Y0122110D02*
X0302375Y0122110D01*
X0302375Y0122708D02*
X0320910Y0122708D01*
X0320910Y0123307D02*
X0302375Y0123307D01*
X0302375Y0123905D02*
X0320910Y0123905D01*
X0320910Y0124504D02*
X0302375Y0124504D01*
X0302375Y0125102D02*
X0320910Y0125102D01*
X0320910Y0125701D02*
X0302375Y0125701D01*
X0302375Y0126299D02*
X0320910Y0126299D01*
X0320910Y0126898D02*
X0302375Y0126898D01*
X0302375Y0127496D02*
X0320910Y0127496D01*
X0320910Y0128095D02*
X0302375Y0128095D01*
X0302375Y0128693D02*
X0320910Y0128693D01*
X0320910Y0129292D02*
X0302375Y0129292D01*
X0302375Y0129890D02*
X0320910Y0129890D01*
X0320910Y0130489D02*
X0302375Y0130489D01*
X0302375Y0131087D02*
X0320910Y0131087D01*
X0320910Y0131686D02*
X0302375Y0131686D01*
X0302375Y0132284D02*
X0320910Y0132284D01*
X0320910Y0132883D02*
X0302375Y0132883D01*
X0302375Y0133481D02*
X0320910Y0133481D01*
X0320910Y0134080D02*
X0302375Y0134080D01*
X0302375Y0134678D02*
X0320910Y0134678D01*
X0320910Y0135277D02*
X0302375Y0135277D01*
X0302375Y0135876D02*
X0320910Y0135876D01*
X0320910Y0136474D02*
X0302375Y0136474D01*
X0302375Y0137073D02*
X0320910Y0137073D01*
X0320910Y0137671D02*
X0302375Y0137671D01*
X0302615Y0138270D02*
X0320910Y0138270D01*
X0320910Y0138868D02*
X0302864Y0138868D01*
X0302864Y0139467D02*
X0320910Y0139467D01*
X0320910Y0140065D02*
X0302864Y0140065D01*
X0302532Y0140664D02*
X0320910Y0140664D01*
X0320910Y0141262D02*
X0302375Y0141262D01*
X0302375Y0141861D02*
X0320910Y0141861D01*
X0320910Y0142459D02*
X0302375Y0142459D01*
X0302375Y0143058D02*
X0320910Y0143058D01*
X0320910Y0143656D02*
X0302375Y0143656D01*
X0302375Y0144255D02*
X0320910Y0144255D01*
X0320910Y0144853D02*
X0302375Y0144853D01*
X0302375Y0145452D02*
X0320910Y0145452D01*
X0320910Y0146050D02*
X0302375Y0146050D01*
X0302375Y0146649D02*
X0320910Y0146649D01*
X0320910Y0147247D02*
X0302375Y0147247D01*
X0302375Y0147846D02*
X0320910Y0147846D01*
X0320910Y0148444D02*
X0302375Y0148444D01*
X0302375Y0149043D02*
X0320910Y0149043D01*
X0320910Y0149641D02*
X0302375Y0149641D01*
X0302375Y0150240D02*
X0320910Y0150240D01*
X0320910Y0150838D02*
X0302375Y0150838D01*
X0302375Y0151437D02*
X0320910Y0151437D01*
X0320910Y0152035D02*
X0302375Y0152035D01*
X0302375Y0152634D02*
X0320910Y0152634D01*
X0320910Y0153232D02*
X0302375Y0153232D01*
X0302375Y0153831D02*
X0320910Y0153831D01*
X0320910Y0154429D02*
X0302375Y0154429D01*
X0302375Y0155028D02*
X0320910Y0155028D01*
X0320910Y0155626D02*
X0302375Y0155626D01*
X0302375Y0156225D02*
X0320910Y0156225D01*
X0320910Y0156823D02*
X0302375Y0156823D01*
X0302375Y0157422D02*
X0320910Y0157422D01*
X0320910Y0158020D02*
X0302375Y0158020D01*
X0302375Y0158619D02*
X0320910Y0158619D01*
X0320910Y0159217D02*
X0302375Y0159217D01*
X0302375Y0159816D02*
X0320910Y0159816D01*
X0320910Y0160414D02*
X0302375Y0160414D01*
X0302375Y0161013D02*
X0320910Y0161013D01*
X0320910Y0161612D02*
X0302375Y0161612D01*
X0302375Y0162210D02*
X0320910Y0162210D01*
X0320910Y0162809D02*
X0302375Y0162809D01*
X0302375Y0163407D02*
X0320910Y0163407D01*
X0320910Y0164006D02*
X0302375Y0164006D01*
X0302375Y0164604D02*
X0320910Y0164604D01*
X0320910Y0165203D02*
X0302302Y0165203D01*
X0301703Y0165801D02*
X0320910Y0165801D01*
X0320910Y0166400D02*
X0301105Y0166400D01*
X0300506Y0166998D02*
X0320910Y0166998D01*
X0320910Y0167597D02*
X0299908Y0167597D01*
X0300373Y0168195D02*
X0320910Y0168195D01*
X0320910Y0168794D02*
X0300971Y0168794D01*
X0301570Y0169392D02*
X0320910Y0169392D01*
X0320910Y0169991D02*
X0302168Y0169991D01*
X0302375Y0170589D02*
X0320910Y0170589D01*
X0320910Y0171188D02*
X0302375Y0171188D01*
X0302375Y0171786D02*
X0320910Y0171786D01*
X0320910Y0172385D02*
X0302375Y0172385D01*
X0302375Y0172983D02*
X0320910Y0172983D01*
X0320910Y0173582D02*
X0302375Y0173582D01*
X0302375Y0174180D02*
X0320910Y0174180D01*
X0320910Y0174779D02*
X0302375Y0174779D01*
X0302375Y0175377D02*
X0320910Y0175377D01*
X0320910Y0175976D02*
X0302375Y0175976D01*
X0302375Y0176574D02*
X0320910Y0176574D01*
X0320910Y0177173D02*
X0302375Y0177173D01*
X0302375Y0177771D02*
X0320910Y0177771D01*
X0320910Y0178370D02*
X0302375Y0178370D01*
X0302375Y0178968D02*
X0320910Y0178968D01*
X0320910Y0179567D02*
X0302375Y0179567D01*
X0302375Y0180165D02*
X0320910Y0180165D01*
X0320910Y0180764D02*
X0302375Y0180764D01*
X0302375Y0181362D02*
X0320910Y0181362D01*
X0320910Y0181961D02*
X0302375Y0181961D01*
X0302375Y0182559D02*
X0320910Y0182559D01*
X0320910Y0183158D02*
X0302375Y0183158D01*
X0302375Y0183756D02*
X0320910Y0183756D01*
X0320910Y0184355D02*
X0302375Y0184355D01*
X0302375Y0184953D02*
X0320910Y0184953D01*
X0320910Y0185552D02*
X0302375Y0185552D01*
X0302375Y0186150D02*
X0320910Y0186150D01*
X0320910Y0186749D02*
X0302746Y0186749D01*
X0302746Y0187347D02*
X0320910Y0187347D01*
X0320910Y0187946D02*
X0302746Y0187946D01*
X0302673Y0188545D02*
X0320910Y0188545D01*
X0320910Y0189143D02*
X0302375Y0189143D01*
X0302375Y0189742D02*
X0320910Y0189742D01*
X0320910Y0190340D02*
X0302375Y0190340D01*
X0302375Y0190939D02*
X0320910Y0190939D01*
X0320910Y0191537D02*
X0302375Y0191537D01*
X0302375Y0192136D02*
X0320910Y0192136D01*
X0320910Y0192734D02*
X0302375Y0192734D01*
X0302375Y0193333D02*
X0320910Y0193333D01*
X0320910Y0193931D02*
X0302375Y0193931D01*
X0302375Y0194530D02*
X0320910Y0194530D01*
X0320910Y0195128D02*
X0302375Y0195128D01*
X0302375Y0195727D02*
X0320910Y0195727D01*
X0320910Y0196325D02*
X0302375Y0196325D01*
X0302375Y0196924D02*
X0320910Y0196924D01*
X0320910Y0197522D02*
X0302375Y0197522D01*
X0302375Y0198121D02*
X0320910Y0198121D01*
X0320910Y0198719D02*
X0302375Y0198719D01*
X0302375Y0199318D02*
X0320910Y0199318D01*
X0320910Y0199916D02*
X0302375Y0199916D01*
X0302375Y0200515D02*
X0320910Y0200515D01*
X0320910Y0201113D02*
X0302375Y0201113D01*
X0302375Y0201712D02*
X0320910Y0201712D01*
X0320910Y0202310D02*
X0302375Y0202310D01*
X0302375Y0202909D02*
X0320910Y0202909D01*
X0320910Y0203507D02*
X0302375Y0203507D01*
X0302375Y0204106D02*
X0320910Y0204106D01*
X0320910Y0204704D02*
X0302375Y0204704D01*
X0302375Y0205303D02*
X0320910Y0205303D01*
X0320910Y0205901D02*
X0302375Y0205901D01*
X0302375Y0206500D02*
X0320910Y0206500D01*
X0320910Y0207098D02*
X0302375Y0207098D01*
X0302375Y0207697D02*
X0320910Y0207697D01*
X0320910Y0208295D02*
X0302375Y0208295D01*
X0302375Y0208894D02*
X0320910Y0208894D01*
X0320910Y0209492D02*
X0302375Y0209492D01*
X0302375Y0210091D02*
X0320910Y0210091D01*
X0320910Y0210689D02*
X0302375Y0210689D01*
X0302375Y0211288D02*
X0320910Y0211288D01*
X0320910Y0211886D02*
X0302375Y0211886D01*
X0302375Y0212485D02*
X0320910Y0212485D01*
X0320910Y0213083D02*
X0302147Y0213083D01*
X0301549Y0213682D02*
X0320910Y0213682D01*
X0320910Y0214280D02*
X0300950Y0214280D01*
X0300352Y0214879D02*
X0320910Y0214879D01*
X0320910Y0215478D02*
X0300382Y0215478D01*
X0300980Y0216076D02*
X0320910Y0216076D01*
X0320910Y0216675D02*
X0301579Y0216675D01*
X0302177Y0217273D02*
X0320910Y0217273D01*
X0320910Y0217872D02*
X0302375Y0217872D01*
X0302375Y0218470D02*
X0320910Y0218470D01*
X0320910Y0219069D02*
X0302375Y0219069D01*
X0302375Y0219667D02*
X0320910Y0219667D01*
X0320910Y0220266D02*
X0302375Y0220266D01*
X0302375Y0220864D02*
X0320910Y0220864D01*
X0320910Y0221463D02*
X0302375Y0221463D01*
X0302657Y0222061D02*
X0320910Y0222061D01*
X0320910Y0222660D02*
X0302864Y0222660D01*
X0302864Y0223258D02*
X0320910Y0223258D01*
X0320910Y0223857D02*
X0302864Y0223857D01*
X0302490Y0224455D02*
X0320910Y0224455D01*
X0320910Y0225054D02*
X0302375Y0225054D01*
X0302375Y0225652D02*
X0320910Y0225652D01*
X0320910Y0226251D02*
X0302375Y0226251D01*
X0302375Y0226849D02*
X0320910Y0226849D01*
X0320910Y0227448D02*
X0302375Y0227448D01*
X0302375Y0228046D02*
X0320910Y0228046D01*
X0320910Y0228645D02*
X0302375Y0228645D01*
X0302375Y0229243D02*
X0320910Y0229243D01*
X0320910Y0229842D02*
X0302375Y0229842D01*
X0302375Y0230440D02*
X0320910Y0230440D01*
X0320910Y0231039D02*
X0302375Y0231039D01*
X0302375Y0231637D02*
X0320910Y0231637D01*
X0320910Y0232236D02*
X0302375Y0232236D01*
X0302375Y0232834D02*
X0320910Y0232834D01*
X0320910Y0233433D02*
X0302375Y0233433D01*
X0302375Y0234031D02*
X0320910Y0234031D01*
X0320910Y0234630D02*
X0302375Y0234630D01*
X0302375Y0235228D02*
X0320910Y0235228D01*
X0320910Y0235827D02*
X0302375Y0235827D01*
X0302375Y0236425D02*
X0320910Y0236425D01*
X0320910Y0237024D02*
X0302375Y0237024D01*
X0302375Y0237622D02*
X0320910Y0237622D01*
X0320910Y0238221D02*
X0302375Y0238221D01*
X0302375Y0238819D02*
X0320910Y0238819D01*
X0320910Y0239418D02*
X0302375Y0239418D01*
X0302375Y0240016D02*
X0320910Y0240016D01*
X0320910Y0240615D02*
X0302375Y0240615D01*
X0302375Y0241214D02*
X0320910Y0241214D01*
X0320910Y0241812D02*
X0302375Y0241812D01*
X0302375Y0242411D02*
X0320910Y0242411D01*
X0320910Y0243009D02*
X0302375Y0243009D01*
X0302375Y0243608D02*
X0320910Y0243608D01*
X0320910Y0244206D02*
X0302375Y0244206D01*
X0302375Y0244805D02*
X0320910Y0244805D01*
X0320910Y0245403D02*
X0302375Y0245403D01*
X0302375Y0246002D02*
X0320910Y0246002D01*
X0320910Y0246600D02*
X0302375Y0246600D01*
X0302375Y0247199D02*
X0320910Y0247199D01*
X0320910Y0247797D02*
X0302375Y0247797D01*
X0302375Y0248396D02*
X0320910Y0248396D01*
X0320910Y0248994D02*
X0302375Y0248994D01*
X0302375Y0249593D02*
X0320910Y0249593D01*
X0320910Y0250191D02*
X0302375Y0250191D01*
X0302375Y0250790D02*
X0320910Y0250790D01*
X0320910Y0251388D02*
X0302375Y0251388D01*
X0302375Y0251987D02*
X0320910Y0251987D01*
X0320910Y0252585D02*
X0302375Y0252585D01*
X0302375Y0253184D02*
X0320910Y0253184D01*
X0320910Y0253782D02*
X0302375Y0253782D01*
X0302375Y0254381D02*
X0320910Y0254381D01*
X0320910Y0254979D02*
X0302375Y0254979D01*
X0302375Y0255578D02*
X0320910Y0255578D01*
X0320910Y0256176D02*
X0302375Y0256176D01*
X0302375Y0256775D02*
X0320910Y0256775D01*
X0320910Y0257373D02*
X0302375Y0257373D01*
X0302375Y0257972D02*
X0320910Y0257972D01*
X0320910Y0258570D02*
X0302375Y0258570D01*
X0302375Y0259169D02*
X0320910Y0259169D01*
X0320910Y0259767D02*
X0302375Y0259767D01*
X0302138Y0260366D02*
X0320910Y0260366D01*
X0320910Y0260964D02*
X0301540Y0260964D01*
X0300941Y0261563D02*
X0320910Y0261563D01*
X0320910Y0262161D02*
X0300343Y0262161D01*
X0299744Y0262760D02*
X0320910Y0262760D01*
X0320910Y0263358D02*
X0299146Y0263358D01*
X0298547Y0263957D02*
X0320910Y0263957D01*
X0320910Y0264555D02*
X0296693Y0264555D01*
X0296693Y0265154D02*
X0320910Y0265154D01*
X0320910Y0265752D02*
X0296693Y0265752D01*
X0296693Y0260963D02*
X0296733Y0260963D01*
X0298975Y0258721D01*
X0298975Y0231721D01*
X0297832Y0232864D01*
X0296688Y0232864D01*
X0296166Y0233386D01*
X0289909Y0233386D01*
X0289575Y0233052D01*
X0289575Y0255630D01*
X0286450Y0258755D01*
X0285630Y0259575D01*
X0283229Y0259575D01*
X0283625Y0259971D01*
X0284617Y0260963D01*
X0289381Y0260963D01*
X0289381Y0259534D01*
X0289909Y0259007D01*
X0296166Y0259007D01*
X0296693Y0259534D01*
X0296693Y0260963D01*
X0296693Y0260366D02*
X0297330Y0260366D01*
X0297928Y0259767D02*
X0296693Y0259767D01*
X0296327Y0259169D02*
X0298527Y0259169D01*
X0298975Y0258570D02*
X0286635Y0258570D01*
X0287233Y0257972D02*
X0298975Y0257972D01*
X0298975Y0257373D02*
X0287832Y0257373D01*
X0288430Y0256775D02*
X0298975Y0256775D01*
X0298975Y0256176D02*
X0289029Y0256176D01*
X0289575Y0255578D02*
X0298975Y0255578D01*
X0298975Y0254979D02*
X0289575Y0254979D01*
X0289575Y0254381D02*
X0298975Y0254381D01*
X0298975Y0253782D02*
X0289575Y0253782D01*
X0289575Y0253184D02*
X0298975Y0253184D01*
X0298975Y0252585D02*
X0289575Y0252585D01*
X0289575Y0251987D02*
X0298975Y0251987D01*
X0298975Y0251388D02*
X0289575Y0251388D01*
X0289575Y0250790D02*
X0298975Y0250790D01*
X0298975Y0250191D02*
X0289575Y0250191D01*
X0289575Y0249593D02*
X0298975Y0249593D01*
X0298975Y0248994D02*
X0289575Y0248994D01*
X0289575Y0248396D02*
X0298975Y0248396D01*
X0298975Y0247797D02*
X0289575Y0247797D01*
X0289575Y0247199D02*
X0298975Y0247199D01*
X0298975Y0246600D02*
X0289575Y0246600D01*
X0289575Y0246002D02*
X0298975Y0246002D01*
X0298975Y0245403D02*
X0289575Y0245403D01*
X0289575Y0244805D02*
X0298975Y0244805D01*
X0298975Y0244206D02*
X0289575Y0244206D01*
X0289575Y0243608D02*
X0298975Y0243608D01*
X0298975Y0243009D02*
X0289575Y0243009D01*
X0289575Y0242411D02*
X0298975Y0242411D01*
X0298975Y0241812D02*
X0289575Y0241812D01*
X0289575Y0241214D02*
X0298975Y0241214D01*
X0298975Y0240615D02*
X0289575Y0240615D01*
X0289575Y0240016D02*
X0298975Y0240016D01*
X0298975Y0239418D02*
X0289575Y0239418D01*
X0289575Y0238819D02*
X0298975Y0238819D01*
X0298975Y0238221D02*
X0289575Y0238221D01*
X0289575Y0237622D02*
X0298975Y0237622D01*
X0298975Y0237024D02*
X0289575Y0237024D01*
X0289575Y0236425D02*
X0298975Y0236425D01*
X0298975Y0235827D02*
X0289575Y0235827D01*
X0289575Y0235228D02*
X0298975Y0235228D01*
X0298975Y0234630D02*
X0289575Y0234630D01*
X0289575Y0234031D02*
X0298975Y0234031D01*
X0298975Y0233433D02*
X0289575Y0233433D01*
X0285175Y0233433D02*
X0196250Y0233433D01*
X0196250Y0234031D02*
X0285175Y0234031D01*
X0285175Y0234630D02*
X0196250Y0234630D01*
X0196250Y0235228D02*
X0285175Y0235228D01*
X0285175Y0235827D02*
X0196250Y0235827D01*
X0196250Y0236425D02*
X0285175Y0236425D01*
X0285175Y0237024D02*
X0196250Y0237024D01*
X0196250Y0237622D02*
X0285175Y0237622D01*
X0285175Y0238221D02*
X0196250Y0238221D01*
X0196250Y0238819D02*
X0285175Y0238819D01*
X0285175Y0239418D02*
X0196250Y0239418D01*
X0196250Y0240016D02*
X0285175Y0240016D01*
X0285175Y0232834D02*
X0254111Y0232834D01*
X0254710Y0232236D02*
X0277142Y0232236D01*
X0276753Y0231637D02*
X0255308Y0231637D01*
X0255364Y0231039D02*
X0276753Y0231039D01*
X0276753Y0230440D02*
X0255364Y0230440D01*
X0255364Y0229842D02*
X0276753Y0229842D01*
X0276753Y0229243D02*
X0254839Y0229243D01*
X0254240Y0228645D02*
X0276753Y0228645D01*
X0276753Y0228046D02*
X0252950Y0228046D01*
X0251693Y0227448D02*
X0276753Y0227448D01*
X0277006Y0226849D02*
X0251693Y0226849D01*
X0251342Y0226251D02*
X0285175Y0226251D01*
X0285175Y0226849D02*
X0280801Y0226849D01*
X0281053Y0227448D02*
X0282057Y0227448D01*
X0284293Y0227448D02*
X0285175Y0227448D01*
X0285175Y0228046D02*
X0284892Y0228046D01*
X0284657Y0231039D02*
X0285175Y0231039D01*
X0285175Y0231637D02*
X0281053Y0231637D01*
X0281053Y0231039D02*
X0281693Y0231039D01*
X0280664Y0232236D02*
X0285175Y0232236D01*
X0285175Y0224455D02*
X0284311Y0224455D01*
X0284793Y0223857D02*
X0285175Y0223857D01*
X0285175Y0223258D02*
X0284793Y0223258D01*
X0284793Y0222660D02*
X0285175Y0222660D01*
X0285175Y0222061D02*
X0284793Y0222061D01*
X0284793Y0221463D02*
X0285175Y0221463D01*
X0285175Y0220864D02*
X0284793Y0220864D01*
X0284793Y0220266D02*
X0285175Y0220266D01*
X0285175Y0219667D02*
X0284793Y0219667D01*
X0284635Y0219069D02*
X0285175Y0219069D01*
X0285175Y0218470D02*
X0283950Y0218470D01*
X0283950Y0217872D02*
X0285175Y0217872D01*
X0285175Y0217273D02*
X0283950Y0217273D01*
X0283950Y0216675D02*
X0285175Y0216675D01*
X0285175Y0216076D02*
X0283950Y0216076D01*
X0283707Y0215478D02*
X0285175Y0215478D01*
X0285175Y0214879D02*
X0283109Y0214879D01*
X0282510Y0214280D02*
X0285175Y0214280D01*
X0285175Y0213682D02*
X0281912Y0213682D01*
X0281313Y0213083D02*
X0285175Y0213083D01*
X0285175Y0212485D02*
X0280715Y0212485D01*
X0279748Y0215478D02*
X0273343Y0215478D01*
X0270507Y0215478D02*
X0270200Y0215478D01*
X0270200Y0216076D02*
X0280346Y0216076D01*
X0280945Y0216675D02*
X0270200Y0216675D01*
X0270200Y0217273D02*
X0281150Y0217273D01*
X0281150Y0217872D02*
X0270200Y0217872D01*
X0270200Y0218470D02*
X0273271Y0218470D01*
X0273411Y0218389D02*
X0273742Y0218300D01*
X0274863Y0218300D01*
X0274863Y0221300D01*
X0272613Y0221300D01*
X0272613Y0219429D01*
X0272702Y0219098D01*
X0272873Y0218802D01*
X0273115Y0218560D01*
X0273411Y0218389D01*
X0272719Y0219069D02*
X0270200Y0219069D01*
X0269913Y0219667D02*
X0272613Y0219667D01*
X0272613Y0220266D02*
X0269314Y0220266D01*
X0268716Y0220864D02*
X0272613Y0220864D01*
X0272613Y0221900D02*
X0274863Y0221900D01*
X0274863Y0221300D01*
X0275463Y0221300D01*
X0275463Y0218300D01*
X0276584Y0218300D01*
X0276915Y0218389D01*
X0277211Y0218560D01*
X0277453Y0218802D01*
X0277625Y0219098D01*
X0277713Y0219429D01*
X0277713Y0221300D01*
X0275463Y0221300D01*
X0275463Y0221900D01*
X0274863Y0221900D01*
X0274863Y0224900D01*
X0273742Y0224900D01*
X0273411Y0224812D01*
X0273115Y0224640D01*
X0272873Y0224398D01*
X0272702Y0224102D01*
X0272613Y0223771D01*
X0272613Y0221900D01*
X0272613Y0222061D02*
X0267519Y0222061D01*
X0268117Y0221463D02*
X0274863Y0221463D01*
X0274863Y0222061D02*
X0275463Y0222061D01*
X0275463Y0221900D02*
X0275463Y0224900D01*
X0276584Y0224900D01*
X0276915Y0224812D01*
X0277211Y0224640D01*
X0277453Y0224398D01*
X0277625Y0224102D01*
X0277713Y0223771D01*
X0277713Y0221900D01*
X0275463Y0221900D01*
X0275463Y0221463D02*
X0280494Y0221463D01*
X0280494Y0222061D02*
X0277713Y0222061D01*
X0277713Y0222660D02*
X0280494Y0222660D01*
X0280494Y0223258D02*
X0277713Y0223258D01*
X0277690Y0223857D02*
X0280494Y0223857D01*
X0280976Y0224455D02*
X0277397Y0224455D01*
X0275463Y0224455D02*
X0274863Y0224455D01*
X0274863Y0223857D02*
X0275463Y0223857D01*
X0275463Y0223258D02*
X0274863Y0223258D01*
X0274863Y0222660D02*
X0275463Y0222660D01*
X0275463Y0220864D02*
X0274863Y0220864D01*
X0274863Y0220266D02*
X0275463Y0220266D01*
X0275463Y0219667D02*
X0274863Y0219667D01*
X0274863Y0219069D02*
X0275463Y0219069D01*
X0275463Y0218470D02*
X0274863Y0218470D01*
X0277056Y0218470D02*
X0281150Y0218470D01*
X0280652Y0219069D02*
X0277607Y0219069D01*
X0277713Y0219667D02*
X0280494Y0219667D01*
X0280494Y0220266D02*
X0277713Y0220266D01*
X0277713Y0220864D02*
X0280494Y0220864D01*
X0272613Y0222660D02*
X0266920Y0222660D01*
X0265953Y0219667D02*
X0258529Y0219667D01*
X0259114Y0219069D02*
X0266552Y0219069D01*
X0267150Y0218470D02*
X0259114Y0218470D01*
X0259114Y0217872D02*
X0267400Y0217872D01*
X0267400Y0217273D02*
X0261149Y0217273D01*
X0261747Y0216675D02*
X0267400Y0216675D01*
X0267400Y0216076D02*
X0262346Y0216076D01*
X0262392Y0215478D02*
X0263632Y0215478D01*
X0263033Y0214879D02*
X0262392Y0214879D01*
X0262392Y0214280D02*
X0262861Y0214280D01*
X0262861Y0213682D02*
X0261903Y0213682D01*
X0261903Y0213083D02*
X0262861Y0213083D01*
X0263269Y0212485D02*
X0261903Y0212485D01*
X0261903Y0211886D02*
X0263868Y0211886D01*
X0265582Y0211288D02*
X0261903Y0211288D01*
X0261903Y0210689D02*
X0265800Y0210689D01*
X0265800Y0210091D02*
X0261903Y0210091D01*
X0261903Y0209492D02*
X0265800Y0209492D01*
X0265800Y0208894D02*
X0261903Y0208894D01*
X0261903Y0208295D02*
X0265800Y0208295D01*
X0265800Y0207697D02*
X0261903Y0207697D01*
X0261903Y0207098D02*
X0265800Y0207098D01*
X0265800Y0206500D02*
X0261903Y0206500D01*
X0261903Y0205901D02*
X0265800Y0205901D01*
X0265800Y0205303D02*
X0261903Y0205303D01*
X0261903Y0204704D02*
X0265800Y0204704D01*
X0265800Y0204106D02*
X0261903Y0204106D01*
X0261903Y0203507D02*
X0265800Y0203507D01*
X0265800Y0202909D02*
X0261903Y0202909D01*
X0261903Y0202310D02*
X0265800Y0202310D01*
X0265800Y0201712D02*
X0261903Y0201712D01*
X0261903Y0201113D02*
X0265800Y0201113D01*
X0265800Y0200515D02*
X0261903Y0200515D01*
X0261903Y0199916D02*
X0265800Y0199916D01*
X0265800Y0199318D02*
X0261564Y0199318D01*
X0260966Y0198719D02*
X0265800Y0198719D01*
X0265800Y0198121D02*
X0260367Y0198121D01*
X0259769Y0197522D02*
X0265800Y0197522D01*
X0265800Y0196924D02*
X0259170Y0196924D01*
X0258572Y0196325D02*
X0265800Y0196325D01*
X0265800Y0195727D02*
X0257973Y0195727D01*
X0257375Y0195128D02*
X0265800Y0195128D01*
X0270200Y0195128D02*
X0285175Y0195128D01*
X0285175Y0194530D02*
X0270200Y0194530D01*
X0270200Y0193931D02*
X0285175Y0193931D01*
X0285175Y0193333D02*
X0270200Y0193333D01*
X0270200Y0192734D02*
X0285175Y0192734D01*
X0285175Y0192136D02*
X0270200Y0192136D01*
X0270200Y0191537D02*
X0285175Y0191537D01*
X0285175Y0190939D02*
X0270200Y0190939D01*
X0270200Y0190340D02*
X0285175Y0190340D01*
X0285175Y0189742D02*
X0270200Y0189742D01*
X0270200Y0189143D02*
X0285175Y0189143D01*
X0285175Y0188545D02*
X0270200Y0188545D01*
X0270200Y0187946D02*
X0285175Y0187946D01*
X0285175Y0187347D02*
X0270200Y0187347D01*
X0270200Y0186749D02*
X0285175Y0186749D01*
X0285175Y0186150D02*
X0270200Y0186150D01*
X0270200Y0185552D02*
X0285175Y0185552D01*
X0289575Y0186150D02*
X0289602Y0186150D01*
X0289575Y0186749D02*
X0298368Y0186749D01*
X0298368Y0187347D02*
X0289575Y0187347D01*
X0289575Y0187946D02*
X0298368Y0187946D01*
X0298441Y0188545D02*
X0289575Y0188545D01*
X0289575Y0189143D02*
X0298975Y0189143D01*
X0298975Y0189742D02*
X0289575Y0189742D01*
X0289575Y0190340D02*
X0298975Y0190340D01*
X0298975Y0190939D02*
X0289575Y0190939D01*
X0289575Y0191537D02*
X0298975Y0191537D01*
X0298975Y0192136D02*
X0289575Y0192136D01*
X0289575Y0192734D02*
X0298975Y0192734D01*
X0298975Y0193333D02*
X0289575Y0193333D01*
X0289575Y0193931D02*
X0298975Y0193931D01*
X0298975Y0194530D02*
X0289575Y0194530D01*
X0289575Y0195128D02*
X0298975Y0195128D01*
X0298975Y0195727D02*
X0289575Y0195727D01*
X0289575Y0196325D02*
X0298975Y0196325D01*
X0298975Y0196924D02*
X0289575Y0196924D01*
X0289575Y0197522D02*
X0298975Y0197522D01*
X0298975Y0198121D02*
X0289575Y0198121D01*
X0289575Y0198719D02*
X0298975Y0198719D01*
X0298975Y0199318D02*
X0289575Y0199318D01*
X0289575Y0199916D02*
X0298975Y0199916D01*
X0298975Y0200515D02*
X0289575Y0200515D01*
X0289575Y0201113D02*
X0298975Y0201113D01*
X0298975Y0201712D02*
X0289575Y0201712D01*
X0289575Y0202310D02*
X0298975Y0202310D01*
X0298975Y0202909D02*
X0289575Y0202909D01*
X0289575Y0203507D02*
X0298975Y0203507D01*
X0298975Y0204106D02*
X0289575Y0204106D01*
X0289575Y0204704D02*
X0298975Y0204704D01*
X0298975Y0205303D02*
X0289575Y0205303D01*
X0289575Y0205901D02*
X0298975Y0205901D01*
X0298975Y0206500D02*
X0289575Y0206500D01*
X0289575Y0207098D02*
X0298975Y0207098D01*
X0298975Y0207697D02*
X0289575Y0207697D01*
X0289575Y0208295D02*
X0298975Y0208295D01*
X0298975Y0208894D02*
X0289575Y0208894D01*
X0289575Y0209492D02*
X0298975Y0209492D01*
X0298975Y0210091D02*
X0289575Y0210091D01*
X0289575Y0210689D02*
X0298975Y0210689D01*
X0298975Y0211288D02*
X0289575Y0211288D01*
X0285175Y0211288D02*
X0270200Y0211288D01*
X0270200Y0211886D02*
X0270743Y0211886D01*
X0270200Y0210689D02*
X0285175Y0210689D01*
X0285175Y0210091D02*
X0270200Y0210091D01*
X0270200Y0209492D02*
X0285175Y0209492D01*
X0285175Y0208894D02*
X0270200Y0208894D01*
X0270200Y0208295D02*
X0285175Y0208295D01*
X0285175Y0207697D02*
X0270200Y0207697D01*
X0270200Y0207098D02*
X0285175Y0207098D01*
X0285175Y0206500D02*
X0270200Y0206500D01*
X0270200Y0205901D02*
X0285175Y0205901D01*
X0285175Y0205303D02*
X0270200Y0205303D01*
X0270200Y0204704D02*
X0285175Y0204704D01*
X0285175Y0204106D02*
X0270200Y0204106D01*
X0270200Y0203507D02*
X0285175Y0203507D01*
X0285175Y0202909D02*
X0270200Y0202909D01*
X0270200Y0202310D02*
X0285175Y0202310D01*
X0285175Y0201712D02*
X0270200Y0201712D01*
X0270200Y0201113D02*
X0285175Y0201113D01*
X0285175Y0200515D02*
X0270200Y0200515D01*
X0270200Y0199916D02*
X0285175Y0199916D01*
X0285175Y0199318D02*
X0270200Y0199318D01*
X0270200Y0198719D02*
X0285175Y0198719D01*
X0285175Y0198121D02*
X0270200Y0198121D01*
X0270200Y0197522D02*
X0285175Y0197522D01*
X0285175Y0196924D02*
X0270200Y0196924D01*
X0270200Y0196325D02*
X0285175Y0196325D01*
X0285175Y0195727D02*
X0270200Y0195727D01*
X0273107Y0211886D02*
X0285175Y0211886D01*
X0272613Y0223258D02*
X0239793Y0223258D01*
X0239793Y0223857D02*
X0272636Y0223857D01*
X0272930Y0224455D02*
X0239311Y0224455D01*
X0235976Y0224455D02*
X0232397Y0224455D01*
X0232690Y0223857D02*
X0235494Y0223857D01*
X0235494Y0223258D02*
X0232713Y0223258D01*
X0232713Y0222660D02*
X0235494Y0222660D01*
X0230463Y0222660D02*
X0229863Y0222660D01*
X0229863Y0223258D02*
X0230463Y0223258D01*
X0230463Y0223857D02*
X0229863Y0223857D01*
X0229863Y0224455D02*
X0230463Y0224455D01*
X0232006Y0226849D02*
X0227375Y0226849D01*
X0227375Y0227448D02*
X0231753Y0227448D01*
X0231753Y0228046D02*
X0227392Y0228046D01*
X0227864Y0228645D02*
X0231753Y0228645D01*
X0231753Y0229243D02*
X0227864Y0229243D01*
X0227864Y0229842D02*
X0231753Y0229842D01*
X0231753Y0230440D02*
X0227755Y0230440D01*
X0227157Y0231039D02*
X0231753Y0231039D01*
X0230463Y0220864D02*
X0229863Y0220864D01*
X0229863Y0220266D02*
X0230463Y0220266D01*
X0230463Y0219667D02*
X0229863Y0219667D01*
X0229863Y0219069D02*
X0230463Y0219069D01*
X0230463Y0218470D02*
X0229863Y0218470D01*
X0228271Y0218470D02*
X0227375Y0218470D01*
X0227375Y0219069D02*
X0227719Y0219069D01*
X0227613Y0219667D02*
X0227375Y0219667D01*
X0227375Y0220266D02*
X0227613Y0220266D01*
X0227613Y0220864D02*
X0227375Y0220864D01*
X0239635Y0219069D02*
X0254736Y0219069D01*
X0254736Y0218470D02*
X0251515Y0218470D01*
X0251693Y0217872D02*
X0254736Y0217872D01*
X0254736Y0217273D02*
X0251693Y0217273D01*
X0251693Y0213083D02*
X0258503Y0213083D01*
X0258503Y0212485D02*
X0251693Y0212485D01*
X0251545Y0211886D02*
X0258503Y0211886D01*
X0258503Y0213682D02*
X0256086Y0213682D01*
X0256685Y0214280D02*
X0258014Y0214280D01*
X0258014Y0214879D02*
X0257283Y0214879D01*
X0257882Y0215478D02*
X0258014Y0215478D01*
X0258625Y0216675D02*
X0258658Y0216675D01*
X0259114Y0217273D02*
X0259256Y0217273D01*
X0255321Y0219667D02*
X0239793Y0219667D01*
X0251693Y0232834D02*
X0252239Y0232834D01*
X0266468Y0215478D02*
X0267400Y0215478D01*
X0267400Y0214879D02*
X0267067Y0214879D01*
X0267239Y0214280D02*
X0267400Y0214280D01*
X0267400Y0213682D02*
X0267239Y0213682D01*
X0296256Y0186150D02*
X0298876Y0186150D01*
X0298975Y0185552D02*
X0297791Y0185552D01*
X0298390Y0184953D02*
X0298975Y0184953D01*
X0298975Y0184355D02*
X0298809Y0184355D01*
X0298809Y0183756D02*
X0298975Y0183756D01*
X0298975Y0183158D02*
X0298809Y0183158D01*
X0298647Y0182559D02*
X0298975Y0182559D01*
X0298975Y0181961D02*
X0298049Y0181961D01*
X0298975Y0181362D02*
X0296585Y0181362D01*
X0296585Y0180764D02*
X0298975Y0180764D01*
X0298975Y0180165D02*
X0296585Y0180165D01*
X0296585Y0179567D02*
X0298975Y0179567D01*
X0285175Y0166400D02*
X0281381Y0166400D01*
X0281979Y0165801D02*
X0285175Y0165801D01*
X0285175Y0165203D02*
X0282578Y0165203D01*
X0283176Y0164604D02*
X0285175Y0164604D01*
X0285175Y0164006D02*
X0283775Y0164006D01*
X0284373Y0163407D02*
X0285175Y0163407D01*
X0285175Y0162809D02*
X0284972Y0162809D01*
X0278775Y0141262D02*
X0239719Y0141262D01*
X0240317Y0140664D02*
X0278775Y0140664D01*
X0278775Y0140065D02*
X0240738Y0140065D01*
X0240738Y0139467D02*
X0278775Y0139467D01*
X0278775Y0138868D02*
X0240738Y0138868D01*
X0240578Y0138270D02*
X0278775Y0138270D01*
X0278775Y0136474D02*
X0219575Y0136474D01*
X0219575Y0135876D02*
X0278775Y0135876D01*
X0278775Y0135277D02*
X0219575Y0135277D01*
X0219575Y0134678D02*
X0278775Y0134678D01*
X0278775Y0134080D02*
X0219575Y0134080D01*
X0219575Y0133481D02*
X0278775Y0133481D01*
X0278775Y0132883D02*
X0219575Y0132883D01*
X0219575Y0132284D02*
X0278775Y0132284D01*
X0278775Y0131686D02*
X0219575Y0131686D01*
X0219575Y0131087D02*
X0278775Y0131087D01*
X0278775Y0130489D02*
X0219575Y0130489D01*
X0219575Y0129890D02*
X0278775Y0129890D01*
X0278775Y0129292D02*
X0219575Y0129292D01*
X0219575Y0128693D02*
X0278775Y0128693D01*
X0278775Y0128095D02*
X0219575Y0128095D01*
X0219575Y0127496D02*
X0278775Y0127496D01*
X0278775Y0126898D02*
X0219575Y0126898D01*
X0219575Y0126299D02*
X0278775Y0126299D01*
X0278775Y0125701D02*
X0219575Y0125701D01*
X0219575Y0125102D02*
X0278775Y0125102D01*
X0278775Y0124504D02*
X0219575Y0124504D01*
X0219575Y0123905D02*
X0278775Y0123905D01*
X0278775Y0123307D02*
X0219575Y0123307D01*
X0219575Y0122708D02*
X0278775Y0122708D01*
X0278775Y0122110D02*
X0219575Y0122110D01*
X0223971Y0141262D02*
X0237379Y0141262D01*
X0183058Y0156823D02*
X0128602Y0156823D01*
X0128002Y0155162D02*
X0127287Y0155275D01*
X0127225Y0155275D01*
X0127225Y0150975D01*
X0131525Y0150975D01*
X0131525Y0151037D01*
X0131412Y0151752D01*
X0131188Y0152441D01*
X0130859Y0153086D01*
X0130434Y0153672D01*
X0129922Y0154184D01*
X0129336Y0154609D01*
X0128691Y0154938D01*
X0128002Y0155162D01*
X0128414Y0155028D02*
X0135695Y0155028D01*
X0136293Y0155626D02*
X0114875Y0155626D01*
X0114875Y0155028D02*
X0125436Y0155028D01*
X0125159Y0154938D02*
X0124514Y0154609D01*
X0123928Y0154184D01*
X0123416Y0153672D01*
X0122991Y0153086D01*
X0122662Y0152441D01*
X0122438Y0151752D01*
X0122325Y0151037D01*
X0122325Y0150975D01*
X0126625Y0150975D01*
X0126625Y0155275D01*
X0126563Y0155275D01*
X0125848Y0155162D01*
X0125159Y0154938D01*
X0124266Y0154429D02*
X0114875Y0154429D01*
X0114875Y0153831D02*
X0123575Y0153831D01*
X0123097Y0153232D02*
X0114875Y0153232D01*
X0114875Y0152634D02*
X0122760Y0152634D01*
X0122530Y0152035D02*
X0114875Y0152035D01*
X0114875Y0151437D02*
X0122388Y0151437D01*
X0122325Y0150375D02*
X0122325Y0150313D01*
X0122438Y0149598D01*
X0122662Y0148909D01*
X0122991Y0148264D01*
X0123416Y0147678D01*
X0123928Y0147166D01*
X0124514Y0146741D01*
X0125159Y0146412D01*
X0125848Y0146188D01*
X0126563Y0146075D01*
X0126625Y0146075D01*
X0126625Y0150375D01*
X0127225Y0150375D01*
X0127225Y0150975D01*
X0126625Y0150975D01*
X0126625Y0150375D01*
X0122325Y0150375D01*
X0122337Y0150240D02*
X0114875Y0150240D01*
X0114875Y0150838D02*
X0126625Y0150838D01*
X0126625Y0150240D02*
X0127225Y0150240D01*
X0127225Y0150375D02*
X0127225Y0146075D01*
X0127287Y0146075D01*
X0128002Y0146188D01*
X0128691Y0146412D01*
X0129336Y0146741D01*
X0129922Y0147166D01*
X0130434Y0147678D01*
X0130859Y0148264D01*
X0131188Y0148909D01*
X0131412Y0149598D01*
X0131525Y0150313D01*
X0131525Y0150375D01*
X0127225Y0150375D01*
X0127225Y0150838D02*
X0134487Y0150838D01*
X0134487Y0150240D02*
X0131513Y0150240D01*
X0131419Y0149641D02*
X0134487Y0149641D01*
X0134487Y0149043D02*
X0131231Y0149043D01*
X0130951Y0148444D02*
X0134487Y0148444D01*
X0134487Y0147846D02*
X0130555Y0147846D01*
X0130003Y0147247D02*
X0134487Y0147247D01*
X0134205Y0146649D02*
X0129155Y0146649D01*
X0127225Y0146649D02*
X0126625Y0146649D01*
X0126625Y0147247D02*
X0127225Y0147247D01*
X0127225Y0147846D02*
X0126625Y0147846D01*
X0126625Y0148444D02*
X0127225Y0148444D01*
X0127225Y0149043D02*
X0126625Y0149043D01*
X0126625Y0149641D02*
X0127225Y0149641D01*
X0127225Y0151437D02*
X0126625Y0151437D01*
X0126625Y0152035D02*
X0127225Y0152035D01*
X0127225Y0152634D02*
X0126625Y0152634D01*
X0126625Y0153232D02*
X0127225Y0153232D01*
X0127225Y0153831D02*
X0126625Y0153831D01*
X0126625Y0154429D02*
X0127225Y0154429D01*
X0127225Y0155028D02*
X0126625Y0155028D01*
X0125248Y0156823D02*
X0114875Y0156823D01*
X0114875Y0156225D02*
X0136892Y0156225D01*
X0135096Y0154429D02*
X0129584Y0154429D01*
X0130275Y0153831D02*
X0134498Y0153831D01*
X0134487Y0153232D02*
X0130753Y0153232D01*
X0131090Y0152634D02*
X0134487Y0152634D01*
X0134487Y0152035D02*
X0131320Y0152035D01*
X0131462Y0151437D02*
X0134487Y0151437D01*
X0133607Y0146050D02*
X0116129Y0146050D01*
X0115531Y0146649D02*
X0124695Y0146649D01*
X0123847Y0147247D02*
X0114932Y0147247D01*
X0114875Y0147846D02*
X0123295Y0147846D01*
X0122899Y0148444D02*
X0114875Y0148444D01*
X0114875Y0149043D02*
X0122619Y0149043D01*
X0122431Y0149641D02*
X0114875Y0149641D01*
X0114875Y0157422D02*
X0124238Y0157422D01*
X0123640Y0158020D02*
X0114875Y0158020D01*
X0114875Y0158619D02*
X0123231Y0158619D01*
X0122983Y0159217D02*
X0114875Y0159217D01*
X0114875Y0159816D02*
X0122054Y0159816D01*
X0121456Y0160414D02*
X0114875Y0160414D01*
X0114875Y0161013D02*
X0120857Y0161013D01*
X0120525Y0161612D02*
X0114875Y0161612D01*
X0114875Y0162210D02*
X0120525Y0162210D01*
X0120525Y0162809D02*
X0114875Y0162809D01*
X0136894Y0196924D02*
X0176775Y0196924D01*
X0176775Y0197522D02*
X0137239Y0197522D01*
X0137239Y0198121D02*
X0176775Y0198121D01*
X0176775Y0198719D02*
X0137239Y0198719D01*
X0137003Y0199318D02*
X0176775Y0199318D01*
X0176775Y0199916D02*
X0136404Y0199916D01*
X0133696Y0199916D02*
X0128750Y0199916D01*
X0128750Y0200515D02*
X0176775Y0200515D01*
X0176775Y0201113D02*
X0128750Y0201113D01*
X0128750Y0201712D02*
X0176775Y0201712D01*
X0176775Y0202310D02*
X0128750Y0202310D01*
X0128750Y0202909D02*
X0176775Y0202909D01*
X0176775Y0203507D02*
X0128750Y0203507D01*
X0128750Y0204106D02*
X0176775Y0204106D01*
X0176775Y0204704D02*
X0128750Y0204704D01*
X0128750Y0205303D02*
X0176775Y0205303D01*
X0176775Y0205901D02*
X0128750Y0205901D01*
X0128750Y0206500D02*
X0176775Y0206500D01*
X0176775Y0207098D02*
X0128750Y0207098D01*
X0128750Y0207697D02*
X0176775Y0207697D01*
X0176775Y0208295D02*
X0128750Y0208295D01*
X0128750Y0208894D02*
X0176775Y0208894D01*
X0176775Y0209492D02*
X0128750Y0209492D01*
X0128750Y0210091D02*
X0176775Y0210091D01*
X0176775Y0210689D02*
X0128750Y0210689D01*
X0128750Y0211288D02*
X0176341Y0211288D01*
X0175986Y0211886D02*
X0128750Y0211886D01*
X0128750Y0212485D02*
X0175986Y0212485D01*
X0175986Y0213083D02*
X0128750Y0213083D01*
X0128750Y0213682D02*
X0176211Y0213682D01*
X0176775Y0214280D02*
X0128750Y0214280D01*
X0128750Y0214879D02*
X0176775Y0214879D01*
X0176775Y0215478D02*
X0128750Y0215478D01*
X0128750Y0216076D02*
X0176775Y0216076D01*
X0176775Y0216675D02*
X0128750Y0216675D01*
X0128750Y0217273D02*
X0176775Y0217273D01*
X0176775Y0217872D02*
X0128750Y0217872D01*
X0128750Y0218470D02*
X0176775Y0218470D01*
X0176775Y0219069D02*
X0128750Y0219069D01*
X0128750Y0219667D02*
X0176775Y0219667D01*
X0176775Y0220266D02*
X0128750Y0220266D01*
X0128750Y0220864D02*
X0176775Y0220864D01*
X0176775Y0221463D02*
X0128750Y0221463D01*
X0128750Y0222061D02*
X0176775Y0222061D01*
X0176775Y0222660D02*
X0128750Y0222660D01*
X0128750Y0223258D02*
X0176775Y0223258D01*
X0176763Y0223857D02*
X0128750Y0223857D01*
X0128750Y0224455D02*
X0176165Y0224455D01*
X0175566Y0225054D02*
X0128750Y0225054D01*
X0128750Y0225652D02*
X0174968Y0225652D01*
X0174369Y0226251D02*
X0128750Y0226251D01*
X0128750Y0226849D02*
X0173771Y0226849D01*
X0196250Y0254381D02*
X0280035Y0254381D01*
X0279736Y0254679D02*
X0281018Y0253397D01*
X0279736Y0254679D02*
X0279736Y0256493D01*
X0280018Y0256775D01*
X0279736Y0256176D02*
X0196250Y0256176D01*
X0196250Y0255578D02*
X0279736Y0255578D01*
X0279736Y0254979D02*
X0196250Y0254979D01*
X0195050Y0269344D02*
X0106975Y0269344D01*
X0106975Y0269942D02*
X0195050Y0269942D01*
X0195050Y0270541D02*
X0106975Y0270541D01*
X0106975Y0271139D02*
X0195050Y0271139D01*
X0195050Y0271738D02*
X0106975Y0271738D01*
X0106975Y0272336D02*
X0195050Y0272336D01*
X0195050Y0272935D02*
X0106975Y0272935D01*
X0106975Y0273533D02*
X0195050Y0273533D01*
X0195050Y0274132D02*
X0106975Y0274132D01*
X0106975Y0274730D02*
X0195050Y0274730D01*
X0195050Y0275329D02*
X0106975Y0275329D01*
X0106975Y0275927D02*
X0195050Y0275927D01*
X0195050Y0276526D02*
X0106975Y0276526D01*
X0106975Y0277124D02*
X0195050Y0277124D01*
X0195050Y0277723D02*
X0114515Y0277723D01*
X0114323Y0277650D02*
X0117195Y0278739D01*
X0119232Y0281039D01*
X0119968Y0284021D01*
X0119232Y0287004D01*
X0119232Y0287004D01*
X0117195Y0289304D01*
X0114323Y0290393D01*
X0111273Y0290023D01*
X0108745Y0288278D01*
X0107317Y0285558D01*
X0107317Y0282485D01*
X0108745Y0279765D01*
X0111273Y0278020D01*
X0114323Y0277650D01*
X0113721Y0277723D02*
X0106975Y0277723D01*
X0106975Y0278321D02*
X0110837Y0278321D01*
X0111273Y0278020D02*
X0111273Y0278020D01*
X0109969Y0278920D02*
X0106975Y0278920D01*
X0106975Y0279518D02*
X0109102Y0279518D01*
X0108745Y0279765D02*
X0108745Y0279765D01*
X0108745Y0279765D01*
X0108560Y0280117D02*
X0106975Y0280117D01*
X0106975Y0280715D02*
X0108246Y0280715D01*
X0107932Y0281314D02*
X0106975Y0281314D01*
X0106975Y0281912D02*
X0107618Y0281912D01*
X0107317Y0282511D02*
X0106975Y0282511D01*
X0106975Y0283109D02*
X0107317Y0283109D01*
X0107317Y0283708D02*
X0106975Y0283708D01*
X0106998Y0284306D02*
X0107317Y0284306D01*
X0107317Y0284905D02*
X0107045Y0284905D01*
X0107204Y0285503D02*
X0107317Y0285503D01*
X0107398Y0286102D02*
X0107603Y0286102D01*
X0107593Y0286700D02*
X0107917Y0286700D01*
X0107905Y0287299D02*
X0108231Y0287299D01*
X0108340Y0287897D02*
X0108545Y0287897D01*
X0108745Y0288278D02*
X0108745Y0288278D01*
X0108775Y0288496D02*
X0109061Y0288496D01*
X0109485Y0289094D02*
X0109928Y0289094D01*
X0110309Y0289693D02*
X0110795Y0289693D01*
X0111273Y0290023D02*
X0111273Y0290023D01*
X0111836Y0290291D02*
X0113484Y0290291D01*
X0114323Y0290393D02*
X0114323Y0290393D01*
X0114591Y0290291D02*
X0195050Y0290291D01*
X0195050Y0289693D02*
X0116169Y0289693D01*
X0117195Y0289304D02*
X0117195Y0289304D01*
X0117381Y0289094D02*
X0195050Y0289094D01*
X0195050Y0288496D02*
X0117911Y0288496D01*
X0118441Y0287897D02*
X0195050Y0287897D01*
X0195050Y0287299D02*
X0118971Y0287299D01*
X0119307Y0286700D02*
X0195050Y0286700D01*
X0195050Y0286102D02*
X0119455Y0286102D01*
X0119602Y0285503D02*
X0195050Y0285503D01*
X0195050Y0284905D02*
X0119750Y0284905D01*
X0119897Y0284306D02*
X0195050Y0284306D01*
X0195050Y0283708D02*
X0119890Y0283708D01*
X0119743Y0283109D02*
X0195050Y0283109D01*
X0195050Y0282511D02*
X0119595Y0282511D01*
X0119448Y0281912D02*
X0195050Y0281912D01*
X0195050Y0281314D02*
X0119300Y0281314D01*
X0119232Y0281039D02*
X0119232Y0281039D01*
X0118946Y0280715D02*
X0195050Y0280715D01*
X0195050Y0280117D02*
X0118416Y0280117D01*
X0117885Y0279518D02*
X0195050Y0279518D01*
X0195050Y0278920D02*
X0117355Y0278920D01*
X0117195Y0278739D02*
X0117195Y0278739D01*
X0116093Y0278321D02*
X0195050Y0278321D01*
X0196250Y0278321D02*
X0231025Y0278321D01*
X0231025Y0277723D02*
X0196250Y0277723D01*
X0196250Y0277124D02*
X0231025Y0277124D01*
X0231025Y0276526D02*
X0196250Y0276526D01*
X0196250Y0275927D02*
X0231025Y0275927D01*
X0231025Y0275329D02*
X0196250Y0275329D01*
X0196250Y0274730D02*
X0231034Y0274730D01*
X0231025Y0274739D02*
X0231552Y0274212D01*
X0234798Y0274212D01*
X0235325Y0274739D01*
X0235325Y0275712D01*
X0236292Y0275712D01*
X0236643Y0275361D01*
X0238457Y0275361D01*
X0239739Y0276643D01*
X0239739Y0278457D01*
X0238457Y0279739D01*
X0236643Y0279739D01*
X0235416Y0278512D01*
X0235325Y0278512D01*
X0235325Y0279485D01*
X0234798Y0280012D01*
X0231552Y0280012D01*
X0231025Y0279485D01*
X0231025Y0274739D01*
X0231383Y0272336D02*
X0253975Y0272336D01*
X0253975Y0271738D02*
X0238938Y0271738D01*
X0239065Y0271139D02*
X0253975Y0271139D01*
X0253975Y0270541D02*
X0239065Y0270541D01*
X0239065Y0269942D02*
X0253975Y0269942D01*
X0253975Y0269344D02*
X0239065Y0269344D01*
X0239065Y0268745D02*
X0253975Y0268745D01*
X0253975Y0268147D02*
X0239065Y0268147D01*
X0239065Y0267548D02*
X0253975Y0267548D01*
X0253975Y0266949D02*
X0251402Y0266949D01*
X0251831Y0266351D02*
X0253947Y0266351D01*
X0253348Y0265752D02*
X0251831Y0265752D01*
X0251831Y0265154D02*
X0252750Y0265154D01*
X0255164Y0262760D02*
X0268975Y0262760D01*
X0268975Y0263358D02*
X0255763Y0263358D01*
X0256361Y0263957D02*
X0268975Y0263957D01*
X0268975Y0264555D02*
X0256960Y0264555D01*
X0257375Y0265154D02*
X0268975Y0265154D01*
X0268975Y0265752D02*
X0257375Y0265752D01*
X0257375Y0266351D02*
X0268975Y0266351D01*
X0268975Y0266949D02*
X0257375Y0266949D01*
X0257375Y0267548D02*
X0268975Y0267548D01*
X0268975Y0268147D02*
X0257375Y0268147D01*
X0257375Y0268745D02*
X0268975Y0268745D01*
X0268975Y0269344D02*
X0257375Y0269344D01*
X0257375Y0269942D02*
X0268975Y0269942D01*
X0268975Y0270541D02*
X0257375Y0270541D01*
X0257375Y0271139D02*
X0268975Y0271139D01*
X0268975Y0271738D02*
X0257375Y0271738D01*
X0257375Y0272336D02*
X0268975Y0272336D01*
X0268975Y0272935D02*
X0257375Y0272935D01*
X0257375Y0273533D02*
X0268975Y0273533D01*
X0268975Y0274132D02*
X0257375Y0274132D01*
X0257375Y0274730D02*
X0268524Y0274730D01*
X0272375Y0274132D02*
X0277223Y0274132D01*
X0277281Y0274074D02*
X0280526Y0274074D01*
X0281053Y0274601D01*
X0281053Y0275525D01*
X0281479Y0275525D01*
X0282268Y0274736D01*
X0284082Y0274736D01*
X0285364Y0276018D01*
X0285364Y0277832D01*
X0284082Y0279114D01*
X0282268Y0279114D01*
X0281479Y0278325D01*
X0281053Y0278325D01*
X0281053Y0279347D01*
X0280526Y0279874D01*
X0277281Y0279874D01*
X0276753Y0279347D01*
X0276753Y0274601D01*
X0277281Y0274074D01*
X0276753Y0274730D02*
X0272826Y0274730D01*
X0272864Y0275329D02*
X0276753Y0275329D01*
X0276753Y0275927D02*
X0272864Y0275927D01*
X0272864Y0276526D02*
X0276753Y0276526D01*
X0276753Y0277124D02*
X0272321Y0277124D01*
X0271723Y0277723D02*
X0276753Y0277723D01*
X0276753Y0278321D02*
X0270433Y0278321D01*
X0272375Y0273533D02*
X0320910Y0273533D01*
X0320910Y0272935D02*
X0272375Y0272935D01*
X0272375Y0272336D02*
X0273503Y0272336D01*
X0273411Y0272312D02*
X0273115Y0272140D01*
X0272873Y0271898D01*
X0272702Y0271602D01*
X0272613Y0271271D01*
X0272613Y0269400D01*
X0274863Y0269400D01*
X0274863Y0268800D01*
X0272613Y0268800D01*
X0272613Y0266929D01*
X0272702Y0266598D01*
X0272873Y0266302D01*
X0273115Y0266060D01*
X0273411Y0265889D01*
X0273742Y0265800D01*
X0274863Y0265800D01*
X0274863Y0268800D01*
X0275463Y0268800D01*
X0275463Y0265800D01*
X0276584Y0265800D01*
X0276915Y0265889D01*
X0277211Y0266060D01*
X0277453Y0266302D01*
X0277625Y0266598D01*
X0277713Y0266929D01*
X0277713Y0268800D01*
X0275463Y0268800D01*
X0275463Y0269400D01*
X0274863Y0269400D01*
X0274863Y0272400D01*
X0273742Y0272400D01*
X0273411Y0272312D01*
X0272780Y0271738D02*
X0272375Y0271738D01*
X0272375Y0271139D02*
X0272613Y0271139D01*
X0272613Y0270541D02*
X0272375Y0270541D01*
X0272375Y0269942D02*
X0272613Y0269942D01*
X0272375Y0269344D02*
X0274863Y0269344D01*
X0274863Y0269942D02*
X0275463Y0269942D01*
X0275463Y0269400D02*
X0275463Y0272400D01*
X0276584Y0272400D01*
X0276915Y0272312D01*
X0277211Y0272140D01*
X0277453Y0271898D01*
X0277625Y0271602D01*
X0277713Y0271271D01*
X0277713Y0269400D01*
X0275463Y0269400D01*
X0275463Y0269344D02*
X0280494Y0269344D01*
X0280494Y0269942D02*
X0277713Y0269942D01*
X0277713Y0270541D02*
X0280494Y0270541D01*
X0280494Y0271139D02*
X0277713Y0271139D01*
X0277546Y0271738D02*
X0280758Y0271738D01*
X0280584Y0274132D02*
X0289381Y0274132D01*
X0289381Y0274101D02*
X0289909Y0273574D01*
X0296166Y0273574D01*
X0296693Y0274101D01*
X0296693Y0275530D01*
X0297934Y0275530D01*
X0298390Y0275986D01*
X0299082Y0275986D01*
X0300364Y0277268D01*
X0300364Y0279082D01*
X0299082Y0280364D01*
X0297268Y0280364D01*
X0296693Y0279789D01*
X0296693Y0280359D01*
X0296166Y0280886D01*
X0289909Y0280886D01*
X0289381Y0280359D01*
X0289381Y0274101D01*
X0289381Y0274730D02*
X0281053Y0274730D01*
X0281053Y0275329D02*
X0281676Y0275329D01*
X0284674Y0275329D02*
X0289381Y0275329D01*
X0289381Y0275927D02*
X0285273Y0275927D01*
X0285364Y0276526D02*
X0289381Y0276526D01*
X0289381Y0277124D02*
X0285364Y0277124D01*
X0285364Y0277723D02*
X0289381Y0277723D01*
X0289381Y0278321D02*
X0284874Y0278321D01*
X0284276Y0278920D02*
X0289381Y0278920D01*
X0289381Y0279518D02*
X0280882Y0279518D01*
X0281053Y0278920D02*
X0282074Y0278920D01*
X0276925Y0279518D02*
X0255552Y0279518D01*
X0255989Y0278920D02*
X0276753Y0278920D01*
X0276824Y0272336D02*
X0320910Y0272336D01*
X0320910Y0271738D02*
X0284529Y0271738D01*
X0284793Y0271139D02*
X0320910Y0271139D01*
X0320910Y0270541D02*
X0284793Y0270541D01*
X0284793Y0269942D02*
X0320910Y0269942D01*
X0320910Y0269344D02*
X0284793Y0269344D01*
X0284793Y0268745D02*
X0320910Y0268745D01*
X0320910Y0268147D02*
X0284793Y0268147D01*
X0284793Y0267548D02*
X0320910Y0267548D01*
X0320910Y0266949D02*
X0284793Y0266949D01*
X0284417Y0266351D02*
X0320910Y0266351D01*
X0320910Y0274132D02*
X0296693Y0274132D01*
X0296693Y0274730D02*
X0320910Y0274730D01*
X0320910Y0275329D02*
X0296693Y0275329D01*
X0298331Y0275927D02*
X0320910Y0275927D01*
X0320910Y0276526D02*
X0299621Y0276526D01*
X0300220Y0277124D02*
X0320910Y0277124D01*
X0320910Y0277723D02*
X0315303Y0277723D01*
X0315110Y0277650D02*
X0317983Y0278739D01*
X0320020Y0281039D01*
X0320755Y0284021D01*
X0320020Y0287004D01*
X0317983Y0289304D01*
X0315110Y0290393D01*
X0312060Y0290023D01*
X0309532Y0288278D01*
X0309532Y0288278D01*
X0309532Y0288278D01*
X0308104Y0285558D01*
X0308104Y0282485D01*
X0309532Y0279765D01*
X0312060Y0278020D01*
X0312060Y0278020D01*
X0315110Y0277650D01*
X0315110Y0277650D01*
X0314509Y0277723D02*
X0300364Y0277723D01*
X0300364Y0278321D02*
X0311624Y0278321D01*
X0310757Y0278920D02*
X0300364Y0278920D01*
X0299927Y0279518D02*
X0309890Y0279518D01*
X0309532Y0279765D02*
X0309532Y0279765D01*
X0309532Y0279765D01*
X0309347Y0280117D02*
X0299329Y0280117D01*
X0297021Y0280117D02*
X0296693Y0280117D01*
X0296337Y0280715D02*
X0309033Y0280715D01*
X0308719Y0281314D02*
X0251604Y0281314D01*
X0251831Y0280715D02*
X0289738Y0280715D01*
X0289381Y0280117D02*
X0254954Y0280117D01*
X0252646Y0280117D02*
X0251831Y0280117D01*
X0251831Y0275927D02*
X0253975Y0275927D01*
X0253975Y0275329D02*
X0251831Y0275329D01*
X0251731Y0274730D02*
X0253975Y0274730D01*
X0253975Y0274132D02*
X0196250Y0274132D01*
X0196250Y0273533D02*
X0253975Y0273533D01*
X0253975Y0272935D02*
X0196250Y0272935D01*
X0196250Y0278920D02*
X0231025Y0278920D01*
X0231058Y0279518D02*
X0196250Y0279518D01*
X0196250Y0280117D02*
X0244519Y0280117D01*
X0244519Y0280715D02*
X0196250Y0280715D01*
X0196250Y0281314D02*
X0244746Y0281314D01*
X0244519Y0279518D02*
X0238677Y0279518D01*
X0239276Y0278920D02*
X0244519Y0278920D01*
X0244519Y0278321D02*
X0239739Y0278321D01*
X0239739Y0277723D02*
X0244519Y0277723D01*
X0244519Y0277124D02*
X0239739Y0277124D01*
X0239621Y0276526D02*
X0244519Y0276526D01*
X0244519Y0275927D02*
X0239023Y0275927D01*
X0235325Y0275329D02*
X0244519Y0275329D01*
X0244619Y0274730D02*
X0235316Y0274730D01*
X0234892Y0271738D02*
X0231897Y0271738D01*
X0231985Y0271139D02*
X0234765Y0271139D01*
X0234765Y0270541D02*
X0231985Y0270541D01*
X0238551Y0266351D02*
X0244519Y0266351D01*
X0244519Y0265752D02*
X0238315Y0265752D01*
X0238315Y0265154D02*
X0244519Y0265154D01*
X0244519Y0264555D02*
X0238315Y0264555D01*
X0238315Y0263957D02*
X0244519Y0263957D01*
X0244519Y0263358D02*
X0238315Y0263358D01*
X0238315Y0262760D02*
X0244519Y0262760D01*
X0244519Y0262161D02*
X0238315Y0262161D01*
X0238642Y0261563D02*
X0244519Y0261563D01*
X0244519Y0260964D02*
X0239241Y0260964D01*
X0239839Y0260366D02*
X0244519Y0260366D01*
X0245015Y0259767D02*
X0240438Y0259767D01*
X0239065Y0266949D02*
X0244948Y0266949D01*
X0251831Y0261563D02*
X0269883Y0261563D01*
X0269284Y0262161D02*
X0254566Y0262161D01*
X0251831Y0260964D02*
X0270481Y0260964D01*
X0271080Y0260366D02*
X0251831Y0260366D01*
X0251335Y0259767D02*
X0271678Y0259767D01*
X0273494Y0262760D02*
X0278619Y0262760D01*
X0278021Y0263358D02*
X0272896Y0263358D01*
X0272375Y0263957D02*
X0277861Y0263957D01*
X0277861Y0264555D02*
X0272375Y0264555D01*
X0272375Y0265154D02*
X0277861Y0265154D01*
X0278282Y0265752D02*
X0272375Y0265752D01*
X0272375Y0266351D02*
X0272845Y0266351D01*
X0272613Y0266949D02*
X0272375Y0266949D01*
X0272375Y0267548D02*
X0272613Y0267548D01*
X0272613Y0268147D02*
X0272375Y0268147D01*
X0272375Y0268745D02*
X0272613Y0268745D01*
X0274863Y0268745D02*
X0275463Y0268745D01*
X0275463Y0268147D02*
X0274863Y0268147D01*
X0274863Y0267548D02*
X0275463Y0267548D01*
X0275463Y0266949D02*
X0274863Y0266949D01*
X0274863Y0266351D02*
X0275463Y0266351D01*
X0277482Y0266351D02*
X0278880Y0266351D01*
X0277713Y0266949D02*
X0280494Y0266949D01*
X0280494Y0267548D02*
X0277713Y0267548D01*
X0277713Y0268147D02*
X0280494Y0268147D01*
X0280494Y0268745D02*
X0277713Y0268745D01*
X0275463Y0270541D02*
X0274863Y0270541D01*
X0274863Y0271139D02*
X0275463Y0271139D01*
X0275463Y0271738D02*
X0274863Y0271738D01*
X0274863Y0272336D02*
X0275463Y0272336D01*
X0284043Y0265752D02*
X0289381Y0265752D01*
X0289381Y0265154D02*
X0284009Y0265154D01*
X0283410Y0264555D02*
X0289381Y0264555D01*
X0289381Y0260366D02*
X0284020Y0260366D01*
X0283422Y0259767D02*
X0289381Y0259767D01*
X0289747Y0259169D02*
X0286036Y0259169D01*
X0284602Y0254381D02*
X0283815Y0254381D01*
X0283217Y0253782D02*
X0285175Y0253782D01*
X0283223Y0264369D02*
X0283223Y0264369D01*
X0308405Y0281912D02*
X0196250Y0281912D01*
X0196250Y0282511D02*
X0308104Y0282511D01*
X0308104Y0283109D02*
X0196250Y0283109D01*
X0196250Y0283708D02*
X0308104Y0283708D01*
X0308104Y0284306D02*
X0196250Y0284306D01*
X0196250Y0284905D02*
X0308104Y0284905D01*
X0308104Y0285503D02*
X0196250Y0285503D01*
X0196250Y0286102D02*
X0308390Y0286102D01*
X0308704Y0286700D02*
X0196250Y0286700D01*
X0196250Y0287299D02*
X0309018Y0287299D01*
X0309332Y0287897D02*
X0196250Y0287897D01*
X0196250Y0288496D02*
X0309848Y0288496D01*
X0310715Y0289094D02*
X0196250Y0289094D01*
X0196250Y0289693D02*
X0311582Y0289693D01*
X0312060Y0290023D02*
X0312060Y0290023D01*
X0314272Y0290291D02*
X0196250Y0290291D01*
X0235292Y0279518D02*
X0236423Y0279518D01*
X0235824Y0278920D02*
X0235325Y0278920D01*
X0297861Y0232834D02*
X0298975Y0232834D01*
X0298975Y0232236D02*
X0298460Y0232236D01*
X0297339Y0213083D02*
X0296693Y0213083D01*
X0296693Y0212485D02*
X0297937Y0212485D01*
X0298536Y0211886D02*
X0296545Y0211886D01*
X0316881Y0278321D02*
X0320910Y0278321D01*
X0320910Y0278920D02*
X0318143Y0278920D01*
X0317983Y0278739D02*
X0317983Y0278739D01*
X0318673Y0279518D02*
X0320910Y0279518D01*
X0320910Y0280117D02*
X0319203Y0280117D01*
X0319733Y0280715D02*
X0320910Y0280715D01*
X0320910Y0281314D02*
X0320088Y0281314D01*
X0320020Y0281039D02*
X0320020Y0281039D01*
X0320235Y0281912D02*
X0320910Y0281912D01*
X0320910Y0282511D02*
X0320383Y0282511D01*
X0320530Y0283109D02*
X0320910Y0283109D01*
X0320910Y0283708D02*
X0320678Y0283708D01*
X0320755Y0284021D02*
X0320755Y0284021D01*
X0320685Y0284306D02*
X0320888Y0284306D01*
X0320840Y0284905D02*
X0320537Y0284905D01*
X0320390Y0285503D02*
X0320682Y0285503D01*
X0320487Y0286102D02*
X0320242Y0286102D01*
X0320293Y0286700D02*
X0320095Y0286700D01*
X0320020Y0287004D02*
X0320020Y0287004D01*
X0319980Y0287299D02*
X0319759Y0287299D01*
X0319546Y0287897D02*
X0319229Y0287897D01*
X0319111Y0288496D02*
X0318698Y0288496D01*
X0318400Y0289094D02*
X0318168Y0289094D01*
X0317983Y0289304D02*
X0317983Y0289304D01*
X0317576Y0289693D02*
X0316957Y0289693D01*
X0316050Y0290291D02*
X0315379Y0290291D01*
X0315110Y0290393D02*
X0315110Y0290393D01*
X0169041Y0121511D02*
X0166684Y0121511D01*
X0167283Y0120913D02*
X0168442Y0120913D01*
X0202687Y0062259D02*
X0204009Y0062259D01*
X0204256Y0061660D02*
X0202520Y0061660D01*
X0202261Y0061062D02*
X0204504Y0061062D01*
X0204947Y0060463D02*
X0201891Y0060463D01*
X0201370Y0059865D02*
X0205546Y0059865D01*
X0206637Y0059266D02*
X0200621Y0059266D01*
X0282152Y0067047D02*
X0286547Y0067047D01*
X0286775Y0067645D02*
X0282750Y0067645D01*
X0283349Y0068244D02*
X0286775Y0068244D01*
X0286775Y0068842D02*
X0283947Y0068842D01*
X0284546Y0069441D02*
X0286775Y0069441D01*
X0286775Y0070039D02*
X0285144Y0070039D01*
X0285743Y0070638D02*
X0286775Y0070638D01*
X0286775Y0071236D02*
X0286341Y0071236D01*
X0289575Y0071236D02*
X0320910Y0071236D01*
X0320910Y0070638D02*
X0289575Y0070638D01*
X0289575Y0071835D02*
X0320910Y0071835D01*
X0320910Y0072433D02*
X0289575Y0072433D01*
X0289575Y0073032D02*
X0320910Y0073032D01*
X0320910Y0073630D02*
X0289575Y0073630D01*
X0289575Y0074229D02*
X0320910Y0074229D01*
X0320910Y0074827D02*
X0289575Y0074827D01*
X0289575Y0075426D02*
X0320910Y0075426D01*
X0320910Y0076024D02*
X0289575Y0076024D01*
X0289575Y0076623D02*
X0320910Y0076623D01*
X0320910Y0077221D02*
X0289575Y0077221D01*
X0289575Y0077820D02*
X0320910Y0077820D01*
X0320910Y0078418D02*
X0289575Y0078418D01*
X0289575Y0079017D02*
X0320910Y0079017D01*
X0320910Y0079615D02*
X0289575Y0079615D01*
X0289575Y0080214D02*
X0320910Y0080214D01*
X0320910Y0080812D02*
X0289575Y0080812D01*
X0289575Y0081411D02*
X0320910Y0081411D01*
X0320910Y0082009D02*
X0289575Y0082009D01*
X0289575Y0082608D02*
X0320910Y0082608D01*
X0320910Y0083207D02*
X0289575Y0083207D01*
X0289575Y0083805D02*
X0320910Y0083805D01*
X0320910Y0084404D02*
X0289575Y0084404D01*
X0289575Y0085002D02*
X0320910Y0085002D01*
X0320910Y0085601D02*
X0289575Y0085601D01*
X0289575Y0086199D02*
X0320910Y0086199D01*
X0312060Y0069551D02*
X0312060Y0069551D01*
X0312060Y0057548D02*
X0312060Y0057548D01*
X0131297Y0227448D02*
X0128750Y0227448D01*
X0128750Y0228046D02*
X0130699Y0228046D01*
X0130100Y0228645D02*
X0128152Y0228645D01*
D20*
X0124425Y0181925D02*
X0118175Y0181925D01*
X0124425Y0181925D02*
X0128971Y0177379D01*
X0182550Y0076925D02*
X0178175Y0072550D01*
X0178175Y0063175D01*
X0188175Y0063175D02*
X0188175Y0073800D01*
M02*
