G75*
%MOIN*%
%OFA0B0*%
%FSLAX25Y25*%
%IPPOS*%
%LPD*%
%AMOC8*
5,1,8,0,0,1.08239X$1,22.5*
%
%ADD10C,0.00001*%
%ADD11R,0.04331X0.03937*%
%ADD12R,0.03543X0.02756*%
%ADD13R,0.06457X0.06457*%
%ADD14C,0.00256*%
%ADD15R,0.02362X0.02362*%
%ADD16R,0.03000X0.03800*%
%ADD17R,0.08400X0.03200*%
%ADD18R,0.06700X0.03000*%
%ADD19R,0.05906X0.05118*%
%ADD20C,0.00276*%
%ADD21R,0.08600X0.02200*%
%ADD22R,0.03937X0.04331*%
%ADD23R,0.04724X0.04724*%
%ADD24R,0.03937X0.01181*%
%ADD25R,0.03937X0.02362*%
%ADD26R,0.01575X0.02362*%
%ADD27R,0.02756X0.03543*%
%ADD28R,0.02500X0.04000*%
D10*
X0105675Y0063549D02*
X0105675Y0284021D01*
X0108431Y0284021D02*
X0108433Y0284164D01*
X0108439Y0284307D01*
X0108449Y0284449D01*
X0108463Y0284591D01*
X0108481Y0284733D01*
X0108503Y0284875D01*
X0108528Y0285015D01*
X0108558Y0285155D01*
X0108592Y0285294D01*
X0108629Y0285432D01*
X0108671Y0285569D01*
X0108716Y0285704D01*
X0108765Y0285838D01*
X0108817Y0285971D01*
X0108873Y0286103D01*
X0108933Y0286232D01*
X0108997Y0286360D01*
X0109064Y0286487D01*
X0109135Y0286611D01*
X0109209Y0286733D01*
X0109286Y0286853D01*
X0109367Y0286971D01*
X0109451Y0287087D01*
X0109538Y0287200D01*
X0109628Y0287311D01*
X0109722Y0287419D01*
X0109818Y0287525D01*
X0109917Y0287627D01*
X0110020Y0287727D01*
X0110124Y0287824D01*
X0110232Y0287919D01*
X0110342Y0288010D01*
X0110455Y0288098D01*
X0110570Y0288182D01*
X0110687Y0288264D01*
X0110807Y0288342D01*
X0110928Y0288417D01*
X0111052Y0288489D01*
X0111178Y0288557D01*
X0111305Y0288621D01*
X0111435Y0288682D01*
X0111566Y0288739D01*
X0111698Y0288793D01*
X0111832Y0288842D01*
X0111967Y0288889D01*
X0112104Y0288931D01*
X0112242Y0288969D01*
X0112380Y0289004D01*
X0112520Y0289034D01*
X0112660Y0289061D01*
X0112801Y0289084D01*
X0112943Y0289103D01*
X0113085Y0289118D01*
X0113228Y0289129D01*
X0113370Y0289136D01*
X0113513Y0289139D01*
X0113656Y0289138D01*
X0113799Y0289133D01*
X0113942Y0289124D01*
X0114084Y0289111D01*
X0114226Y0289094D01*
X0114367Y0289073D01*
X0114508Y0289048D01*
X0114648Y0289020D01*
X0114787Y0288987D01*
X0114925Y0288950D01*
X0115062Y0288910D01*
X0115198Y0288866D01*
X0115333Y0288818D01*
X0115466Y0288766D01*
X0115598Y0288711D01*
X0115728Y0288652D01*
X0115857Y0288589D01*
X0115983Y0288523D01*
X0116108Y0288453D01*
X0116231Y0288380D01*
X0116351Y0288304D01*
X0116470Y0288224D01*
X0116586Y0288140D01*
X0116700Y0288054D01*
X0116811Y0287964D01*
X0116920Y0287872D01*
X0117026Y0287776D01*
X0117130Y0287678D01*
X0117231Y0287576D01*
X0117328Y0287472D01*
X0117423Y0287365D01*
X0117515Y0287256D01*
X0117604Y0287144D01*
X0117690Y0287029D01*
X0117772Y0286913D01*
X0117851Y0286793D01*
X0117927Y0286672D01*
X0117999Y0286549D01*
X0118068Y0286424D01*
X0118133Y0286297D01*
X0118195Y0286168D01*
X0118253Y0286037D01*
X0118308Y0285905D01*
X0118358Y0285771D01*
X0118405Y0285636D01*
X0118449Y0285500D01*
X0118488Y0285363D01*
X0118523Y0285224D01*
X0118555Y0285085D01*
X0118583Y0284945D01*
X0118607Y0284804D01*
X0118627Y0284662D01*
X0118643Y0284520D01*
X0118655Y0284378D01*
X0118663Y0284235D01*
X0118667Y0284092D01*
X0118667Y0283950D01*
X0118663Y0283807D01*
X0118655Y0283664D01*
X0118643Y0283522D01*
X0118627Y0283380D01*
X0118607Y0283238D01*
X0118583Y0283097D01*
X0118555Y0282957D01*
X0118523Y0282818D01*
X0118488Y0282679D01*
X0118449Y0282542D01*
X0118405Y0282406D01*
X0118358Y0282271D01*
X0118308Y0282137D01*
X0118253Y0282005D01*
X0118195Y0281874D01*
X0118133Y0281745D01*
X0118068Y0281618D01*
X0117999Y0281493D01*
X0117927Y0281370D01*
X0117851Y0281249D01*
X0117772Y0281129D01*
X0117690Y0281013D01*
X0117604Y0280898D01*
X0117515Y0280786D01*
X0117423Y0280677D01*
X0117328Y0280570D01*
X0117231Y0280466D01*
X0117130Y0280364D01*
X0117026Y0280266D01*
X0116920Y0280170D01*
X0116811Y0280078D01*
X0116700Y0279988D01*
X0116586Y0279902D01*
X0116470Y0279818D01*
X0116351Y0279738D01*
X0116231Y0279662D01*
X0116108Y0279589D01*
X0115983Y0279519D01*
X0115857Y0279453D01*
X0115728Y0279390D01*
X0115598Y0279331D01*
X0115466Y0279276D01*
X0115333Y0279224D01*
X0115198Y0279176D01*
X0115062Y0279132D01*
X0114925Y0279092D01*
X0114787Y0279055D01*
X0114648Y0279022D01*
X0114508Y0278994D01*
X0114367Y0278969D01*
X0114226Y0278948D01*
X0114084Y0278931D01*
X0113942Y0278918D01*
X0113799Y0278909D01*
X0113656Y0278904D01*
X0113513Y0278903D01*
X0113370Y0278906D01*
X0113228Y0278913D01*
X0113085Y0278924D01*
X0112943Y0278939D01*
X0112801Y0278958D01*
X0112660Y0278981D01*
X0112520Y0279008D01*
X0112380Y0279038D01*
X0112242Y0279073D01*
X0112104Y0279111D01*
X0111967Y0279153D01*
X0111832Y0279200D01*
X0111698Y0279249D01*
X0111566Y0279303D01*
X0111435Y0279360D01*
X0111305Y0279421D01*
X0111178Y0279485D01*
X0111052Y0279553D01*
X0110928Y0279625D01*
X0110807Y0279700D01*
X0110687Y0279778D01*
X0110570Y0279860D01*
X0110455Y0279944D01*
X0110342Y0280032D01*
X0110232Y0280123D01*
X0110124Y0280218D01*
X0110020Y0280315D01*
X0109917Y0280415D01*
X0109818Y0280517D01*
X0109722Y0280623D01*
X0109628Y0280731D01*
X0109538Y0280842D01*
X0109451Y0280955D01*
X0109367Y0281071D01*
X0109286Y0281189D01*
X0109209Y0281309D01*
X0109135Y0281431D01*
X0109064Y0281555D01*
X0108997Y0281682D01*
X0108933Y0281810D01*
X0108873Y0281939D01*
X0108817Y0282071D01*
X0108765Y0282204D01*
X0108716Y0282338D01*
X0108671Y0282473D01*
X0108629Y0282610D01*
X0108592Y0282748D01*
X0108558Y0282887D01*
X0108528Y0283027D01*
X0108503Y0283167D01*
X0108481Y0283309D01*
X0108463Y0283451D01*
X0108449Y0283593D01*
X0108439Y0283735D01*
X0108433Y0283878D01*
X0108431Y0284021D01*
X0105675Y0284021D02*
X0105677Y0284211D01*
X0105684Y0284401D01*
X0105696Y0284591D01*
X0105712Y0284781D01*
X0105732Y0284970D01*
X0105758Y0285159D01*
X0105787Y0285347D01*
X0105822Y0285534D01*
X0105861Y0285720D01*
X0105904Y0285905D01*
X0105952Y0286090D01*
X0106004Y0286273D01*
X0106060Y0286454D01*
X0106121Y0286634D01*
X0106187Y0286813D01*
X0106256Y0286990D01*
X0106330Y0287166D01*
X0106408Y0287339D01*
X0106491Y0287511D01*
X0106577Y0287680D01*
X0106667Y0287848D01*
X0106762Y0288013D01*
X0106860Y0288176D01*
X0106963Y0288336D01*
X0107069Y0288494D01*
X0107179Y0288649D01*
X0107292Y0288802D01*
X0107410Y0288952D01*
X0107531Y0289098D01*
X0107655Y0289242D01*
X0107783Y0289383D01*
X0107914Y0289521D01*
X0108049Y0289656D01*
X0108187Y0289787D01*
X0108328Y0289915D01*
X0108472Y0290039D01*
X0108618Y0290160D01*
X0108768Y0290278D01*
X0108921Y0290391D01*
X0109076Y0290501D01*
X0109234Y0290607D01*
X0109394Y0290710D01*
X0109557Y0290808D01*
X0109722Y0290903D01*
X0109890Y0290993D01*
X0110059Y0291079D01*
X0110231Y0291162D01*
X0110404Y0291240D01*
X0110580Y0291314D01*
X0110757Y0291383D01*
X0110936Y0291449D01*
X0111116Y0291510D01*
X0111297Y0291566D01*
X0111480Y0291618D01*
X0111665Y0291666D01*
X0111850Y0291709D01*
X0112036Y0291748D01*
X0112223Y0291783D01*
X0112411Y0291812D01*
X0112600Y0291838D01*
X0112789Y0291858D01*
X0112979Y0291874D01*
X0113169Y0291886D01*
X0113359Y0291893D01*
X0113549Y0291895D01*
X0314336Y0291895D01*
X0309218Y0284021D02*
X0309220Y0284164D01*
X0309226Y0284307D01*
X0309236Y0284449D01*
X0309250Y0284591D01*
X0309268Y0284733D01*
X0309290Y0284875D01*
X0309315Y0285015D01*
X0309345Y0285155D01*
X0309379Y0285294D01*
X0309416Y0285432D01*
X0309458Y0285569D01*
X0309503Y0285704D01*
X0309552Y0285838D01*
X0309604Y0285971D01*
X0309660Y0286103D01*
X0309720Y0286232D01*
X0309784Y0286360D01*
X0309851Y0286487D01*
X0309922Y0286611D01*
X0309996Y0286733D01*
X0310073Y0286853D01*
X0310154Y0286971D01*
X0310238Y0287087D01*
X0310325Y0287200D01*
X0310415Y0287311D01*
X0310509Y0287419D01*
X0310605Y0287525D01*
X0310704Y0287627D01*
X0310807Y0287727D01*
X0310911Y0287824D01*
X0311019Y0287919D01*
X0311129Y0288010D01*
X0311242Y0288098D01*
X0311357Y0288182D01*
X0311474Y0288264D01*
X0311594Y0288342D01*
X0311715Y0288417D01*
X0311839Y0288489D01*
X0311965Y0288557D01*
X0312092Y0288621D01*
X0312222Y0288682D01*
X0312353Y0288739D01*
X0312485Y0288793D01*
X0312619Y0288842D01*
X0312754Y0288889D01*
X0312891Y0288931D01*
X0313029Y0288969D01*
X0313167Y0289004D01*
X0313307Y0289034D01*
X0313447Y0289061D01*
X0313588Y0289084D01*
X0313730Y0289103D01*
X0313872Y0289118D01*
X0314015Y0289129D01*
X0314157Y0289136D01*
X0314300Y0289139D01*
X0314443Y0289138D01*
X0314586Y0289133D01*
X0314729Y0289124D01*
X0314871Y0289111D01*
X0315013Y0289094D01*
X0315154Y0289073D01*
X0315295Y0289048D01*
X0315435Y0289020D01*
X0315574Y0288987D01*
X0315712Y0288950D01*
X0315849Y0288910D01*
X0315985Y0288866D01*
X0316120Y0288818D01*
X0316253Y0288766D01*
X0316385Y0288711D01*
X0316515Y0288652D01*
X0316644Y0288589D01*
X0316770Y0288523D01*
X0316895Y0288453D01*
X0317018Y0288380D01*
X0317138Y0288304D01*
X0317257Y0288224D01*
X0317373Y0288140D01*
X0317487Y0288054D01*
X0317598Y0287964D01*
X0317707Y0287872D01*
X0317813Y0287776D01*
X0317917Y0287678D01*
X0318018Y0287576D01*
X0318115Y0287472D01*
X0318210Y0287365D01*
X0318302Y0287256D01*
X0318391Y0287144D01*
X0318477Y0287029D01*
X0318559Y0286913D01*
X0318638Y0286793D01*
X0318714Y0286672D01*
X0318786Y0286549D01*
X0318855Y0286424D01*
X0318920Y0286297D01*
X0318982Y0286168D01*
X0319040Y0286037D01*
X0319095Y0285905D01*
X0319145Y0285771D01*
X0319192Y0285636D01*
X0319236Y0285500D01*
X0319275Y0285363D01*
X0319310Y0285224D01*
X0319342Y0285085D01*
X0319370Y0284945D01*
X0319394Y0284804D01*
X0319414Y0284662D01*
X0319430Y0284520D01*
X0319442Y0284378D01*
X0319450Y0284235D01*
X0319454Y0284092D01*
X0319454Y0283950D01*
X0319450Y0283807D01*
X0319442Y0283664D01*
X0319430Y0283522D01*
X0319414Y0283380D01*
X0319394Y0283238D01*
X0319370Y0283097D01*
X0319342Y0282957D01*
X0319310Y0282818D01*
X0319275Y0282679D01*
X0319236Y0282542D01*
X0319192Y0282406D01*
X0319145Y0282271D01*
X0319095Y0282137D01*
X0319040Y0282005D01*
X0318982Y0281874D01*
X0318920Y0281745D01*
X0318855Y0281618D01*
X0318786Y0281493D01*
X0318714Y0281370D01*
X0318638Y0281249D01*
X0318559Y0281129D01*
X0318477Y0281013D01*
X0318391Y0280898D01*
X0318302Y0280786D01*
X0318210Y0280677D01*
X0318115Y0280570D01*
X0318018Y0280466D01*
X0317917Y0280364D01*
X0317813Y0280266D01*
X0317707Y0280170D01*
X0317598Y0280078D01*
X0317487Y0279988D01*
X0317373Y0279902D01*
X0317257Y0279818D01*
X0317138Y0279738D01*
X0317018Y0279662D01*
X0316895Y0279589D01*
X0316770Y0279519D01*
X0316644Y0279453D01*
X0316515Y0279390D01*
X0316385Y0279331D01*
X0316253Y0279276D01*
X0316120Y0279224D01*
X0315985Y0279176D01*
X0315849Y0279132D01*
X0315712Y0279092D01*
X0315574Y0279055D01*
X0315435Y0279022D01*
X0315295Y0278994D01*
X0315154Y0278969D01*
X0315013Y0278948D01*
X0314871Y0278931D01*
X0314729Y0278918D01*
X0314586Y0278909D01*
X0314443Y0278904D01*
X0314300Y0278903D01*
X0314157Y0278906D01*
X0314015Y0278913D01*
X0313872Y0278924D01*
X0313730Y0278939D01*
X0313588Y0278958D01*
X0313447Y0278981D01*
X0313307Y0279008D01*
X0313167Y0279038D01*
X0313029Y0279073D01*
X0312891Y0279111D01*
X0312754Y0279153D01*
X0312619Y0279200D01*
X0312485Y0279249D01*
X0312353Y0279303D01*
X0312222Y0279360D01*
X0312092Y0279421D01*
X0311965Y0279485D01*
X0311839Y0279553D01*
X0311715Y0279625D01*
X0311594Y0279700D01*
X0311474Y0279778D01*
X0311357Y0279860D01*
X0311242Y0279944D01*
X0311129Y0280032D01*
X0311019Y0280123D01*
X0310911Y0280218D01*
X0310807Y0280315D01*
X0310704Y0280415D01*
X0310605Y0280517D01*
X0310509Y0280623D01*
X0310415Y0280731D01*
X0310325Y0280842D01*
X0310238Y0280955D01*
X0310154Y0281071D01*
X0310073Y0281189D01*
X0309996Y0281309D01*
X0309922Y0281431D01*
X0309851Y0281555D01*
X0309784Y0281682D01*
X0309720Y0281810D01*
X0309660Y0281939D01*
X0309604Y0282071D01*
X0309552Y0282204D01*
X0309503Y0282338D01*
X0309458Y0282473D01*
X0309416Y0282610D01*
X0309379Y0282748D01*
X0309345Y0282887D01*
X0309315Y0283027D01*
X0309290Y0283167D01*
X0309268Y0283309D01*
X0309250Y0283451D01*
X0309236Y0283593D01*
X0309226Y0283735D01*
X0309220Y0283878D01*
X0309218Y0284021D01*
X0314336Y0291895D02*
X0314526Y0291893D01*
X0314716Y0291886D01*
X0314906Y0291874D01*
X0315096Y0291858D01*
X0315285Y0291838D01*
X0315474Y0291812D01*
X0315662Y0291783D01*
X0315849Y0291748D01*
X0316035Y0291709D01*
X0316220Y0291666D01*
X0316405Y0291618D01*
X0316588Y0291566D01*
X0316769Y0291510D01*
X0316949Y0291449D01*
X0317128Y0291383D01*
X0317305Y0291314D01*
X0317481Y0291240D01*
X0317654Y0291162D01*
X0317826Y0291079D01*
X0317995Y0290993D01*
X0318163Y0290903D01*
X0318328Y0290808D01*
X0318491Y0290710D01*
X0318651Y0290607D01*
X0318809Y0290501D01*
X0318964Y0290391D01*
X0319117Y0290278D01*
X0319267Y0290160D01*
X0319413Y0290039D01*
X0319557Y0289915D01*
X0319698Y0289787D01*
X0319836Y0289656D01*
X0319971Y0289521D01*
X0320102Y0289383D01*
X0320230Y0289242D01*
X0320354Y0289098D01*
X0320475Y0288952D01*
X0320593Y0288802D01*
X0320706Y0288649D01*
X0320816Y0288494D01*
X0320922Y0288336D01*
X0321025Y0288176D01*
X0321123Y0288013D01*
X0321218Y0287848D01*
X0321308Y0287680D01*
X0321394Y0287511D01*
X0321477Y0287339D01*
X0321555Y0287166D01*
X0321629Y0286990D01*
X0321698Y0286813D01*
X0321764Y0286634D01*
X0321825Y0286454D01*
X0321881Y0286273D01*
X0321933Y0286090D01*
X0321981Y0285905D01*
X0322024Y0285720D01*
X0322063Y0285534D01*
X0322098Y0285347D01*
X0322127Y0285159D01*
X0322153Y0284970D01*
X0322173Y0284781D01*
X0322189Y0284591D01*
X0322201Y0284401D01*
X0322208Y0284211D01*
X0322210Y0284021D01*
X0322210Y0063549D01*
X0309218Y0063549D02*
X0309220Y0063692D01*
X0309226Y0063835D01*
X0309236Y0063977D01*
X0309250Y0064119D01*
X0309268Y0064261D01*
X0309290Y0064403D01*
X0309315Y0064543D01*
X0309345Y0064683D01*
X0309379Y0064822D01*
X0309416Y0064960D01*
X0309458Y0065097D01*
X0309503Y0065232D01*
X0309552Y0065366D01*
X0309604Y0065499D01*
X0309660Y0065631D01*
X0309720Y0065760D01*
X0309784Y0065888D01*
X0309851Y0066015D01*
X0309922Y0066139D01*
X0309996Y0066261D01*
X0310073Y0066381D01*
X0310154Y0066499D01*
X0310238Y0066615D01*
X0310325Y0066728D01*
X0310415Y0066839D01*
X0310509Y0066947D01*
X0310605Y0067053D01*
X0310704Y0067155D01*
X0310807Y0067255D01*
X0310911Y0067352D01*
X0311019Y0067447D01*
X0311129Y0067538D01*
X0311242Y0067626D01*
X0311357Y0067710D01*
X0311474Y0067792D01*
X0311594Y0067870D01*
X0311715Y0067945D01*
X0311839Y0068017D01*
X0311965Y0068085D01*
X0312092Y0068149D01*
X0312222Y0068210D01*
X0312353Y0068267D01*
X0312485Y0068321D01*
X0312619Y0068370D01*
X0312754Y0068417D01*
X0312891Y0068459D01*
X0313029Y0068497D01*
X0313167Y0068532D01*
X0313307Y0068562D01*
X0313447Y0068589D01*
X0313588Y0068612D01*
X0313730Y0068631D01*
X0313872Y0068646D01*
X0314015Y0068657D01*
X0314157Y0068664D01*
X0314300Y0068667D01*
X0314443Y0068666D01*
X0314586Y0068661D01*
X0314729Y0068652D01*
X0314871Y0068639D01*
X0315013Y0068622D01*
X0315154Y0068601D01*
X0315295Y0068576D01*
X0315435Y0068548D01*
X0315574Y0068515D01*
X0315712Y0068478D01*
X0315849Y0068438D01*
X0315985Y0068394D01*
X0316120Y0068346D01*
X0316253Y0068294D01*
X0316385Y0068239D01*
X0316515Y0068180D01*
X0316644Y0068117D01*
X0316770Y0068051D01*
X0316895Y0067981D01*
X0317018Y0067908D01*
X0317138Y0067832D01*
X0317257Y0067752D01*
X0317373Y0067668D01*
X0317487Y0067582D01*
X0317598Y0067492D01*
X0317707Y0067400D01*
X0317813Y0067304D01*
X0317917Y0067206D01*
X0318018Y0067104D01*
X0318115Y0067000D01*
X0318210Y0066893D01*
X0318302Y0066784D01*
X0318391Y0066672D01*
X0318477Y0066557D01*
X0318559Y0066441D01*
X0318638Y0066321D01*
X0318714Y0066200D01*
X0318786Y0066077D01*
X0318855Y0065952D01*
X0318920Y0065825D01*
X0318982Y0065696D01*
X0319040Y0065565D01*
X0319095Y0065433D01*
X0319145Y0065299D01*
X0319192Y0065164D01*
X0319236Y0065028D01*
X0319275Y0064891D01*
X0319310Y0064752D01*
X0319342Y0064613D01*
X0319370Y0064473D01*
X0319394Y0064332D01*
X0319414Y0064190D01*
X0319430Y0064048D01*
X0319442Y0063906D01*
X0319450Y0063763D01*
X0319454Y0063620D01*
X0319454Y0063478D01*
X0319450Y0063335D01*
X0319442Y0063192D01*
X0319430Y0063050D01*
X0319414Y0062908D01*
X0319394Y0062766D01*
X0319370Y0062625D01*
X0319342Y0062485D01*
X0319310Y0062346D01*
X0319275Y0062207D01*
X0319236Y0062070D01*
X0319192Y0061934D01*
X0319145Y0061799D01*
X0319095Y0061665D01*
X0319040Y0061533D01*
X0318982Y0061402D01*
X0318920Y0061273D01*
X0318855Y0061146D01*
X0318786Y0061021D01*
X0318714Y0060898D01*
X0318638Y0060777D01*
X0318559Y0060657D01*
X0318477Y0060541D01*
X0318391Y0060426D01*
X0318302Y0060314D01*
X0318210Y0060205D01*
X0318115Y0060098D01*
X0318018Y0059994D01*
X0317917Y0059892D01*
X0317813Y0059794D01*
X0317707Y0059698D01*
X0317598Y0059606D01*
X0317487Y0059516D01*
X0317373Y0059430D01*
X0317257Y0059346D01*
X0317138Y0059266D01*
X0317018Y0059190D01*
X0316895Y0059117D01*
X0316770Y0059047D01*
X0316644Y0058981D01*
X0316515Y0058918D01*
X0316385Y0058859D01*
X0316253Y0058804D01*
X0316120Y0058752D01*
X0315985Y0058704D01*
X0315849Y0058660D01*
X0315712Y0058620D01*
X0315574Y0058583D01*
X0315435Y0058550D01*
X0315295Y0058522D01*
X0315154Y0058497D01*
X0315013Y0058476D01*
X0314871Y0058459D01*
X0314729Y0058446D01*
X0314586Y0058437D01*
X0314443Y0058432D01*
X0314300Y0058431D01*
X0314157Y0058434D01*
X0314015Y0058441D01*
X0313872Y0058452D01*
X0313730Y0058467D01*
X0313588Y0058486D01*
X0313447Y0058509D01*
X0313307Y0058536D01*
X0313167Y0058566D01*
X0313029Y0058601D01*
X0312891Y0058639D01*
X0312754Y0058681D01*
X0312619Y0058728D01*
X0312485Y0058777D01*
X0312353Y0058831D01*
X0312222Y0058888D01*
X0312092Y0058949D01*
X0311965Y0059013D01*
X0311839Y0059081D01*
X0311715Y0059153D01*
X0311594Y0059228D01*
X0311474Y0059306D01*
X0311357Y0059388D01*
X0311242Y0059472D01*
X0311129Y0059560D01*
X0311019Y0059651D01*
X0310911Y0059746D01*
X0310807Y0059843D01*
X0310704Y0059943D01*
X0310605Y0060045D01*
X0310509Y0060151D01*
X0310415Y0060259D01*
X0310325Y0060370D01*
X0310238Y0060483D01*
X0310154Y0060599D01*
X0310073Y0060717D01*
X0309996Y0060837D01*
X0309922Y0060959D01*
X0309851Y0061083D01*
X0309784Y0061210D01*
X0309720Y0061338D01*
X0309660Y0061467D01*
X0309604Y0061599D01*
X0309552Y0061732D01*
X0309503Y0061866D01*
X0309458Y0062001D01*
X0309416Y0062138D01*
X0309379Y0062276D01*
X0309345Y0062415D01*
X0309315Y0062555D01*
X0309290Y0062695D01*
X0309268Y0062837D01*
X0309250Y0062979D01*
X0309236Y0063121D01*
X0309226Y0063263D01*
X0309220Y0063406D01*
X0309218Y0063549D01*
X0314336Y0055675D02*
X0314526Y0055677D01*
X0314716Y0055684D01*
X0314906Y0055696D01*
X0315096Y0055712D01*
X0315285Y0055732D01*
X0315474Y0055758D01*
X0315662Y0055787D01*
X0315849Y0055822D01*
X0316035Y0055861D01*
X0316220Y0055904D01*
X0316405Y0055952D01*
X0316588Y0056004D01*
X0316769Y0056060D01*
X0316949Y0056121D01*
X0317128Y0056187D01*
X0317305Y0056256D01*
X0317481Y0056330D01*
X0317654Y0056408D01*
X0317826Y0056491D01*
X0317995Y0056577D01*
X0318163Y0056667D01*
X0318328Y0056762D01*
X0318491Y0056860D01*
X0318651Y0056963D01*
X0318809Y0057069D01*
X0318964Y0057179D01*
X0319117Y0057292D01*
X0319267Y0057410D01*
X0319413Y0057531D01*
X0319557Y0057655D01*
X0319698Y0057783D01*
X0319836Y0057914D01*
X0319971Y0058049D01*
X0320102Y0058187D01*
X0320230Y0058328D01*
X0320354Y0058472D01*
X0320475Y0058618D01*
X0320593Y0058768D01*
X0320706Y0058921D01*
X0320816Y0059076D01*
X0320922Y0059234D01*
X0321025Y0059394D01*
X0321123Y0059557D01*
X0321218Y0059722D01*
X0321308Y0059890D01*
X0321394Y0060059D01*
X0321477Y0060231D01*
X0321555Y0060404D01*
X0321629Y0060580D01*
X0321698Y0060757D01*
X0321764Y0060936D01*
X0321825Y0061116D01*
X0321881Y0061297D01*
X0321933Y0061480D01*
X0321981Y0061665D01*
X0322024Y0061850D01*
X0322063Y0062036D01*
X0322098Y0062223D01*
X0322127Y0062411D01*
X0322153Y0062600D01*
X0322173Y0062789D01*
X0322189Y0062979D01*
X0322201Y0063169D01*
X0322208Y0063359D01*
X0322210Y0063549D01*
X0314336Y0055675D02*
X0113549Y0055675D01*
X0108431Y0063549D02*
X0108433Y0063692D01*
X0108439Y0063835D01*
X0108449Y0063977D01*
X0108463Y0064119D01*
X0108481Y0064261D01*
X0108503Y0064403D01*
X0108528Y0064543D01*
X0108558Y0064683D01*
X0108592Y0064822D01*
X0108629Y0064960D01*
X0108671Y0065097D01*
X0108716Y0065232D01*
X0108765Y0065366D01*
X0108817Y0065499D01*
X0108873Y0065631D01*
X0108933Y0065760D01*
X0108997Y0065888D01*
X0109064Y0066015D01*
X0109135Y0066139D01*
X0109209Y0066261D01*
X0109286Y0066381D01*
X0109367Y0066499D01*
X0109451Y0066615D01*
X0109538Y0066728D01*
X0109628Y0066839D01*
X0109722Y0066947D01*
X0109818Y0067053D01*
X0109917Y0067155D01*
X0110020Y0067255D01*
X0110124Y0067352D01*
X0110232Y0067447D01*
X0110342Y0067538D01*
X0110455Y0067626D01*
X0110570Y0067710D01*
X0110687Y0067792D01*
X0110807Y0067870D01*
X0110928Y0067945D01*
X0111052Y0068017D01*
X0111178Y0068085D01*
X0111305Y0068149D01*
X0111435Y0068210D01*
X0111566Y0068267D01*
X0111698Y0068321D01*
X0111832Y0068370D01*
X0111967Y0068417D01*
X0112104Y0068459D01*
X0112242Y0068497D01*
X0112380Y0068532D01*
X0112520Y0068562D01*
X0112660Y0068589D01*
X0112801Y0068612D01*
X0112943Y0068631D01*
X0113085Y0068646D01*
X0113228Y0068657D01*
X0113370Y0068664D01*
X0113513Y0068667D01*
X0113656Y0068666D01*
X0113799Y0068661D01*
X0113942Y0068652D01*
X0114084Y0068639D01*
X0114226Y0068622D01*
X0114367Y0068601D01*
X0114508Y0068576D01*
X0114648Y0068548D01*
X0114787Y0068515D01*
X0114925Y0068478D01*
X0115062Y0068438D01*
X0115198Y0068394D01*
X0115333Y0068346D01*
X0115466Y0068294D01*
X0115598Y0068239D01*
X0115728Y0068180D01*
X0115857Y0068117D01*
X0115983Y0068051D01*
X0116108Y0067981D01*
X0116231Y0067908D01*
X0116351Y0067832D01*
X0116470Y0067752D01*
X0116586Y0067668D01*
X0116700Y0067582D01*
X0116811Y0067492D01*
X0116920Y0067400D01*
X0117026Y0067304D01*
X0117130Y0067206D01*
X0117231Y0067104D01*
X0117328Y0067000D01*
X0117423Y0066893D01*
X0117515Y0066784D01*
X0117604Y0066672D01*
X0117690Y0066557D01*
X0117772Y0066441D01*
X0117851Y0066321D01*
X0117927Y0066200D01*
X0117999Y0066077D01*
X0118068Y0065952D01*
X0118133Y0065825D01*
X0118195Y0065696D01*
X0118253Y0065565D01*
X0118308Y0065433D01*
X0118358Y0065299D01*
X0118405Y0065164D01*
X0118449Y0065028D01*
X0118488Y0064891D01*
X0118523Y0064752D01*
X0118555Y0064613D01*
X0118583Y0064473D01*
X0118607Y0064332D01*
X0118627Y0064190D01*
X0118643Y0064048D01*
X0118655Y0063906D01*
X0118663Y0063763D01*
X0118667Y0063620D01*
X0118667Y0063478D01*
X0118663Y0063335D01*
X0118655Y0063192D01*
X0118643Y0063050D01*
X0118627Y0062908D01*
X0118607Y0062766D01*
X0118583Y0062625D01*
X0118555Y0062485D01*
X0118523Y0062346D01*
X0118488Y0062207D01*
X0118449Y0062070D01*
X0118405Y0061934D01*
X0118358Y0061799D01*
X0118308Y0061665D01*
X0118253Y0061533D01*
X0118195Y0061402D01*
X0118133Y0061273D01*
X0118068Y0061146D01*
X0117999Y0061021D01*
X0117927Y0060898D01*
X0117851Y0060777D01*
X0117772Y0060657D01*
X0117690Y0060541D01*
X0117604Y0060426D01*
X0117515Y0060314D01*
X0117423Y0060205D01*
X0117328Y0060098D01*
X0117231Y0059994D01*
X0117130Y0059892D01*
X0117026Y0059794D01*
X0116920Y0059698D01*
X0116811Y0059606D01*
X0116700Y0059516D01*
X0116586Y0059430D01*
X0116470Y0059346D01*
X0116351Y0059266D01*
X0116231Y0059190D01*
X0116108Y0059117D01*
X0115983Y0059047D01*
X0115857Y0058981D01*
X0115728Y0058918D01*
X0115598Y0058859D01*
X0115466Y0058804D01*
X0115333Y0058752D01*
X0115198Y0058704D01*
X0115062Y0058660D01*
X0114925Y0058620D01*
X0114787Y0058583D01*
X0114648Y0058550D01*
X0114508Y0058522D01*
X0114367Y0058497D01*
X0114226Y0058476D01*
X0114084Y0058459D01*
X0113942Y0058446D01*
X0113799Y0058437D01*
X0113656Y0058432D01*
X0113513Y0058431D01*
X0113370Y0058434D01*
X0113228Y0058441D01*
X0113085Y0058452D01*
X0112943Y0058467D01*
X0112801Y0058486D01*
X0112660Y0058509D01*
X0112520Y0058536D01*
X0112380Y0058566D01*
X0112242Y0058601D01*
X0112104Y0058639D01*
X0111967Y0058681D01*
X0111832Y0058728D01*
X0111698Y0058777D01*
X0111566Y0058831D01*
X0111435Y0058888D01*
X0111305Y0058949D01*
X0111178Y0059013D01*
X0111052Y0059081D01*
X0110928Y0059153D01*
X0110807Y0059228D01*
X0110687Y0059306D01*
X0110570Y0059388D01*
X0110455Y0059472D01*
X0110342Y0059560D01*
X0110232Y0059651D01*
X0110124Y0059746D01*
X0110020Y0059843D01*
X0109917Y0059943D01*
X0109818Y0060045D01*
X0109722Y0060151D01*
X0109628Y0060259D01*
X0109538Y0060370D01*
X0109451Y0060483D01*
X0109367Y0060599D01*
X0109286Y0060717D01*
X0109209Y0060837D01*
X0109135Y0060959D01*
X0109064Y0061083D01*
X0108997Y0061210D01*
X0108933Y0061338D01*
X0108873Y0061467D01*
X0108817Y0061599D01*
X0108765Y0061732D01*
X0108716Y0061866D01*
X0108671Y0062001D01*
X0108629Y0062138D01*
X0108592Y0062276D01*
X0108558Y0062415D01*
X0108528Y0062555D01*
X0108503Y0062695D01*
X0108481Y0062837D01*
X0108463Y0062979D01*
X0108449Y0063121D01*
X0108439Y0063263D01*
X0108433Y0063406D01*
X0108431Y0063549D01*
X0105675Y0063549D02*
X0105677Y0063359D01*
X0105684Y0063169D01*
X0105696Y0062979D01*
X0105712Y0062789D01*
X0105732Y0062600D01*
X0105758Y0062411D01*
X0105787Y0062223D01*
X0105822Y0062036D01*
X0105861Y0061850D01*
X0105904Y0061665D01*
X0105952Y0061480D01*
X0106004Y0061297D01*
X0106060Y0061116D01*
X0106121Y0060936D01*
X0106187Y0060757D01*
X0106256Y0060580D01*
X0106330Y0060404D01*
X0106408Y0060231D01*
X0106491Y0060059D01*
X0106577Y0059890D01*
X0106667Y0059722D01*
X0106762Y0059557D01*
X0106860Y0059394D01*
X0106963Y0059234D01*
X0107069Y0059076D01*
X0107179Y0058921D01*
X0107292Y0058768D01*
X0107410Y0058618D01*
X0107531Y0058472D01*
X0107655Y0058328D01*
X0107783Y0058187D01*
X0107914Y0058049D01*
X0108049Y0057914D01*
X0108187Y0057783D01*
X0108328Y0057655D01*
X0108472Y0057531D01*
X0108618Y0057410D01*
X0108768Y0057292D01*
X0108921Y0057179D01*
X0109076Y0057069D01*
X0109234Y0056963D01*
X0109394Y0056860D01*
X0109557Y0056762D01*
X0109722Y0056667D01*
X0109890Y0056577D01*
X0110059Y0056491D01*
X0110231Y0056408D01*
X0110404Y0056330D01*
X0110580Y0056256D01*
X0110757Y0056187D01*
X0110936Y0056121D01*
X0111116Y0056060D01*
X0111297Y0056004D01*
X0111480Y0055952D01*
X0111665Y0055904D01*
X0111850Y0055861D01*
X0112036Y0055822D01*
X0112223Y0055787D01*
X0112411Y0055758D01*
X0112600Y0055732D01*
X0112789Y0055712D01*
X0112979Y0055696D01*
X0113169Y0055684D01*
X0113359Y0055677D01*
X0113549Y0055675D01*
D11*
X0117329Y0078175D03*
X0124021Y0078175D03*
X0124021Y0088175D03*
X0117329Y0088175D03*
X0117329Y0098175D03*
X0124021Y0098175D03*
X0124021Y0108175D03*
X0117329Y0108175D03*
X0162368Y0160990D03*
X0169061Y0160990D03*
X0158396Y0185050D03*
X0151704Y0185050D03*
X0151704Y0191925D03*
X0158396Y0191925D03*
X0160896Y0228800D03*
X0154204Y0228800D03*
X0154204Y0235675D03*
X0160896Y0235675D03*
X0217486Y0160990D03*
X0224179Y0160990D03*
X0281079Y0103175D03*
X0287771Y0103175D03*
D12*
X0135050Y0210616D03*
X0135050Y0215734D03*
D13*
X0160050Y0213175D03*
D14*
X0160650Y0206964D02*
X0160650Y0204032D01*
X0160650Y0206964D02*
X0161418Y0206964D01*
X0161418Y0204032D01*
X0160650Y0204032D01*
X0160650Y0204275D02*
X0161418Y0204275D01*
X0161418Y0204518D02*
X0160650Y0204518D01*
X0160650Y0204761D02*
X0161418Y0204761D01*
X0161418Y0205004D02*
X0160650Y0205004D01*
X0160650Y0205247D02*
X0161418Y0205247D01*
X0161418Y0205490D02*
X0160650Y0205490D01*
X0160650Y0205733D02*
X0161418Y0205733D01*
X0161418Y0205976D02*
X0160650Y0205976D01*
X0160650Y0206219D02*
X0161418Y0206219D01*
X0161418Y0206462D02*
X0160650Y0206462D01*
X0160650Y0206705D02*
X0161418Y0206705D01*
X0161418Y0206948D02*
X0160650Y0206948D01*
X0158682Y0206964D02*
X0158682Y0204032D01*
X0158682Y0206964D02*
X0159450Y0206964D01*
X0159450Y0204032D01*
X0158682Y0204032D01*
X0158682Y0204275D02*
X0159450Y0204275D01*
X0159450Y0204518D02*
X0158682Y0204518D01*
X0158682Y0204761D02*
X0159450Y0204761D01*
X0159450Y0205004D02*
X0158682Y0205004D01*
X0158682Y0205247D02*
X0159450Y0205247D01*
X0159450Y0205490D02*
X0158682Y0205490D01*
X0158682Y0205733D02*
X0159450Y0205733D01*
X0159450Y0205976D02*
X0158682Y0205976D01*
X0158682Y0206219D02*
X0159450Y0206219D01*
X0159450Y0206462D02*
X0158682Y0206462D01*
X0158682Y0206705D02*
X0159450Y0206705D01*
X0159450Y0206948D02*
X0158682Y0206948D01*
X0156713Y0206964D02*
X0156713Y0204032D01*
X0156713Y0206964D02*
X0157481Y0206964D01*
X0157481Y0204032D01*
X0156713Y0204032D01*
X0156713Y0204275D02*
X0157481Y0204275D01*
X0157481Y0204518D02*
X0156713Y0204518D01*
X0156713Y0204761D02*
X0157481Y0204761D01*
X0157481Y0205004D02*
X0156713Y0205004D01*
X0156713Y0205247D02*
X0157481Y0205247D01*
X0157481Y0205490D02*
X0156713Y0205490D01*
X0156713Y0205733D02*
X0157481Y0205733D01*
X0157481Y0205976D02*
X0156713Y0205976D01*
X0156713Y0206219D02*
X0157481Y0206219D01*
X0157481Y0206462D02*
X0156713Y0206462D01*
X0156713Y0206705D02*
X0157481Y0206705D01*
X0157481Y0206948D02*
X0156713Y0206948D01*
X0154745Y0206964D02*
X0154745Y0204032D01*
X0154745Y0206964D02*
X0155513Y0206964D01*
X0155513Y0204032D01*
X0154745Y0204032D01*
X0154745Y0204275D02*
X0155513Y0204275D01*
X0155513Y0204518D02*
X0154745Y0204518D01*
X0154745Y0204761D02*
X0155513Y0204761D01*
X0155513Y0205004D02*
X0154745Y0205004D01*
X0154745Y0205247D02*
X0155513Y0205247D01*
X0155513Y0205490D02*
X0154745Y0205490D01*
X0154745Y0205733D02*
X0155513Y0205733D01*
X0155513Y0205976D02*
X0154745Y0205976D01*
X0154745Y0206219D02*
X0155513Y0206219D01*
X0155513Y0206462D02*
X0154745Y0206462D01*
X0154745Y0206705D02*
X0155513Y0206705D01*
X0155513Y0206948D02*
X0154745Y0206948D01*
X0153839Y0208638D02*
X0150907Y0208638D01*
X0153839Y0208638D02*
X0153839Y0207870D01*
X0150907Y0207870D01*
X0150907Y0208638D01*
X0150907Y0208113D02*
X0153839Y0208113D01*
X0153839Y0208356D02*
X0150907Y0208356D01*
X0150907Y0208599D02*
X0153839Y0208599D01*
X0153839Y0210606D02*
X0150907Y0210606D01*
X0153839Y0210606D02*
X0153839Y0209838D01*
X0150907Y0209838D01*
X0150907Y0210606D01*
X0150907Y0210081D02*
X0153839Y0210081D01*
X0153839Y0210324D02*
X0150907Y0210324D01*
X0150907Y0210567D02*
X0153839Y0210567D01*
X0153839Y0212575D02*
X0150907Y0212575D01*
X0153839Y0212575D02*
X0153839Y0211807D01*
X0150907Y0211807D01*
X0150907Y0212575D01*
X0150907Y0212050D02*
X0153839Y0212050D01*
X0153839Y0212293D02*
X0150907Y0212293D01*
X0150907Y0212536D02*
X0153839Y0212536D01*
X0153839Y0214543D02*
X0150907Y0214543D01*
X0153839Y0214543D02*
X0153839Y0213775D01*
X0150907Y0213775D01*
X0150907Y0214543D01*
X0150907Y0214018D02*
X0153839Y0214018D01*
X0153839Y0214261D02*
X0150907Y0214261D01*
X0150907Y0214504D02*
X0153839Y0214504D01*
X0153839Y0216512D02*
X0150907Y0216512D01*
X0153839Y0216512D02*
X0153839Y0215744D01*
X0150907Y0215744D01*
X0150907Y0216512D01*
X0150907Y0215987D02*
X0153839Y0215987D01*
X0153839Y0216230D02*
X0150907Y0216230D01*
X0150907Y0216473D02*
X0153839Y0216473D01*
X0153839Y0218480D02*
X0150907Y0218480D01*
X0153839Y0218480D02*
X0153839Y0217712D01*
X0150907Y0217712D01*
X0150907Y0218480D01*
X0150907Y0217955D02*
X0153839Y0217955D01*
X0153839Y0218198D02*
X0150907Y0218198D01*
X0150907Y0218441D02*
X0153839Y0218441D01*
X0154745Y0219386D02*
X0154745Y0222318D01*
X0155513Y0222318D01*
X0155513Y0219386D01*
X0154745Y0219386D01*
X0154745Y0219629D02*
X0155513Y0219629D01*
X0155513Y0219872D02*
X0154745Y0219872D01*
X0154745Y0220115D02*
X0155513Y0220115D01*
X0155513Y0220358D02*
X0154745Y0220358D01*
X0154745Y0220601D02*
X0155513Y0220601D01*
X0155513Y0220844D02*
X0154745Y0220844D01*
X0154745Y0221087D02*
X0155513Y0221087D01*
X0155513Y0221330D02*
X0154745Y0221330D01*
X0154745Y0221573D02*
X0155513Y0221573D01*
X0155513Y0221816D02*
X0154745Y0221816D01*
X0154745Y0222059D02*
X0155513Y0222059D01*
X0155513Y0222302D02*
X0154745Y0222302D01*
X0156713Y0222318D02*
X0156713Y0219386D01*
X0156713Y0222318D02*
X0157481Y0222318D01*
X0157481Y0219386D01*
X0156713Y0219386D01*
X0156713Y0219629D02*
X0157481Y0219629D01*
X0157481Y0219872D02*
X0156713Y0219872D01*
X0156713Y0220115D02*
X0157481Y0220115D01*
X0157481Y0220358D02*
X0156713Y0220358D01*
X0156713Y0220601D02*
X0157481Y0220601D01*
X0157481Y0220844D02*
X0156713Y0220844D01*
X0156713Y0221087D02*
X0157481Y0221087D01*
X0157481Y0221330D02*
X0156713Y0221330D01*
X0156713Y0221573D02*
X0157481Y0221573D01*
X0157481Y0221816D02*
X0156713Y0221816D01*
X0156713Y0222059D02*
X0157481Y0222059D01*
X0157481Y0222302D02*
X0156713Y0222302D01*
X0158682Y0222318D02*
X0158682Y0219386D01*
X0158682Y0222318D02*
X0159450Y0222318D01*
X0159450Y0219386D01*
X0158682Y0219386D01*
X0158682Y0219629D02*
X0159450Y0219629D01*
X0159450Y0219872D02*
X0158682Y0219872D01*
X0158682Y0220115D02*
X0159450Y0220115D01*
X0159450Y0220358D02*
X0158682Y0220358D01*
X0158682Y0220601D02*
X0159450Y0220601D01*
X0159450Y0220844D02*
X0158682Y0220844D01*
X0158682Y0221087D02*
X0159450Y0221087D01*
X0159450Y0221330D02*
X0158682Y0221330D01*
X0158682Y0221573D02*
X0159450Y0221573D01*
X0159450Y0221816D02*
X0158682Y0221816D01*
X0158682Y0222059D02*
X0159450Y0222059D01*
X0159450Y0222302D02*
X0158682Y0222302D01*
X0160650Y0222318D02*
X0160650Y0219386D01*
X0160650Y0222318D02*
X0161418Y0222318D01*
X0161418Y0219386D01*
X0160650Y0219386D01*
X0160650Y0219629D02*
X0161418Y0219629D01*
X0161418Y0219872D02*
X0160650Y0219872D01*
X0160650Y0220115D02*
X0161418Y0220115D01*
X0161418Y0220358D02*
X0160650Y0220358D01*
X0160650Y0220601D02*
X0161418Y0220601D01*
X0161418Y0220844D02*
X0160650Y0220844D01*
X0160650Y0221087D02*
X0161418Y0221087D01*
X0161418Y0221330D02*
X0160650Y0221330D01*
X0160650Y0221573D02*
X0161418Y0221573D01*
X0161418Y0221816D02*
X0160650Y0221816D01*
X0160650Y0222059D02*
X0161418Y0222059D01*
X0161418Y0222302D02*
X0160650Y0222302D01*
X0162619Y0222318D02*
X0162619Y0219386D01*
X0162619Y0222318D02*
X0163387Y0222318D01*
X0163387Y0219386D01*
X0162619Y0219386D01*
X0162619Y0219629D02*
X0163387Y0219629D01*
X0163387Y0219872D02*
X0162619Y0219872D01*
X0162619Y0220115D02*
X0163387Y0220115D01*
X0163387Y0220358D02*
X0162619Y0220358D01*
X0162619Y0220601D02*
X0163387Y0220601D01*
X0163387Y0220844D02*
X0162619Y0220844D01*
X0162619Y0221087D02*
X0163387Y0221087D01*
X0163387Y0221330D02*
X0162619Y0221330D01*
X0162619Y0221573D02*
X0163387Y0221573D01*
X0163387Y0221816D02*
X0162619Y0221816D01*
X0162619Y0222059D02*
X0163387Y0222059D01*
X0163387Y0222302D02*
X0162619Y0222302D01*
X0164587Y0222318D02*
X0164587Y0219386D01*
X0164587Y0222318D02*
X0165355Y0222318D01*
X0165355Y0219386D01*
X0164587Y0219386D01*
X0164587Y0219629D02*
X0165355Y0219629D01*
X0165355Y0219872D02*
X0164587Y0219872D01*
X0164587Y0220115D02*
X0165355Y0220115D01*
X0165355Y0220358D02*
X0164587Y0220358D01*
X0164587Y0220601D02*
X0165355Y0220601D01*
X0165355Y0220844D02*
X0164587Y0220844D01*
X0164587Y0221087D02*
X0165355Y0221087D01*
X0165355Y0221330D02*
X0164587Y0221330D01*
X0164587Y0221573D02*
X0165355Y0221573D01*
X0165355Y0221816D02*
X0164587Y0221816D01*
X0164587Y0222059D02*
X0165355Y0222059D01*
X0165355Y0222302D02*
X0164587Y0222302D01*
X0166261Y0218480D02*
X0169193Y0218480D01*
X0169193Y0217712D01*
X0166261Y0217712D01*
X0166261Y0218480D01*
X0166261Y0217955D02*
X0169193Y0217955D01*
X0169193Y0218198D02*
X0166261Y0218198D01*
X0166261Y0218441D02*
X0169193Y0218441D01*
X0169193Y0216512D02*
X0166261Y0216512D01*
X0169193Y0216512D02*
X0169193Y0215744D01*
X0166261Y0215744D01*
X0166261Y0216512D01*
X0166261Y0215987D02*
X0169193Y0215987D01*
X0169193Y0216230D02*
X0166261Y0216230D01*
X0166261Y0216473D02*
X0169193Y0216473D01*
X0169193Y0214543D02*
X0166261Y0214543D01*
X0169193Y0214543D02*
X0169193Y0213775D01*
X0166261Y0213775D01*
X0166261Y0214543D01*
X0166261Y0214018D02*
X0169193Y0214018D01*
X0169193Y0214261D02*
X0166261Y0214261D01*
X0166261Y0214504D02*
X0169193Y0214504D01*
X0169193Y0212575D02*
X0166261Y0212575D01*
X0169193Y0212575D02*
X0169193Y0211807D01*
X0166261Y0211807D01*
X0166261Y0212575D01*
X0166261Y0212050D02*
X0169193Y0212050D01*
X0169193Y0212293D02*
X0166261Y0212293D01*
X0166261Y0212536D02*
X0169193Y0212536D01*
X0169193Y0210606D02*
X0166261Y0210606D01*
X0169193Y0210606D02*
X0169193Y0209838D01*
X0166261Y0209838D01*
X0166261Y0210606D01*
X0166261Y0210081D02*
X0169193Y0210081D01*
X0169193Y0210324D02*
X0166261Y0210324D01*
X0166261Y0210567D02*
X0169193Y0210567D01*
X0169193Y0208638D02*
X0166261Y0208638D01*
X0169193Y0208638D02*
X0169193Y0207870D01*
X0166261Y0207870D01*
X0166261Y0208638D01*
X0166261Y0208113D02*
X0169193Y0208113D01*
X0169193Y0208356D02*
X0166261Y0208356D01*
X0166261Y0208599D02*
X0169193Y0208599D01*
X0164587Y0206964D02*
X0164587Y0204032D01*
X0164587Y0206964D02*
X0165355Y0206964D01*
X0165355Y0204032D01*
X0164587Y0204032D01*
X0164587Y0204275D02*
X0165355Y0204275D01*
X0165355Y0204518D02*
X0164587Y0204518D01*
X0164587Y0204761D02*
X0165355Y0204761D01*
X0165355Y0205004D02*
X0164587Y0205004D01*
X0164587Y0205247D02*
X0165355Y0205247D01*
X0165355Y0205490D02*
X0164587Y0205490D01*
X0164587Y0205733D02*
X0165355Y0205733D01*
X0165355Y0205976D02*
X0164587Y0205976D01*
X0164587Y0206219D02*
X0165355Y0206219D01*
X0165355Y0206462D02*
X0164587Y0206462D01*
X0164587Y0206705D02*
X0165355Y0206705D01*
X0165355Y0206948D02*
X0164587Y0206948D01*
X0162619Y0206964D02*
X0162619Y0204032D01*
X0162619Y0206964D02*
X0163387Y0206964D01*
X0163387Y0204032D01*
X0162619Y0204032D01*
X0162619Y0204275D02*
X0163387Y0204275D01*
X0163387Y0204518D02*
X0162619Y0204518D01*
X0162619Y0204761D02*
X0163387Y0204761D01*
X0163387Y0205004D02*
X0162619Y0205004D01*
X0162619Y0205247D02*
X0163387Y0205247D01*
X0163387Y0205490D02*
X0162619Y0205490D01*
X0162619Y0205733D02*
X0163387Y0205733D01*
X0163387Y0205976D02*
X0162619Y0205976D01*
X0162619Y0206219D02*
X0163387Y0206219D01*
X0163387Y0206462D02*
X0162619Y0206462D01*
X0162619Y0206705D02*
X0163387Y0206705D01*
X0163387Y0206948D02*
X0162619Y0206948D01*
D15*
X0144550Y0210675D03*
X0140550Y0210675D03*
X0140550Y0215675D03*
X0144550Y0215675D03*
X0131128Y0188593D03*
X0125222Y0188593D03*
X0125222Y0181507D03*
X0131128Y0181507D03*
D16*
X0124775Y0213175D03*
D17*
X0118775Y0218669D03*
X0118775Y0207681D03*
D18*
X0219975Y0209414D03*
X0219975Y0200752D03*
X0219975Y0218075D03*
X0219975Y0230675D03*
X0219975Y0248252D03*
X0219975Y0256914D03*
X0219975Y0265575D03*
X0219975Y0278175D03*
X0246375Y0278175D03*
X0246375Y0265575D03*
X0246375Y0256914D03*
X0246375Y0248252D03*
X0246375Y0230675D03*
X0246375Y0218075D03*
X0246375Y0209414D03*
X0246375Y0200752D03*
X0264975Y0200752D03*
X0264975Y0209414D03*
X0264975Y0218075D03*
X0264975Y0230675D03*
X0264975Y0248252D03*
X0264975Y0256914D03*
X0264975Y0265575D03*
X0264975Y0278175D03*
X0291375Y0278175D03*
X0291375Y0265575D03*
X0291375Y0256914D03*
X0291375Y0248252D03*
X0291375Y0230675D03*
X0291375Y0218075D03*
X0291375Y0209414D03*
X0291375Y0200752D03*
X0291375Y0183175D03*
X0291375Y0170575D03*
X0291375Y0161914D03*
X0291375Y0153252D03*
X0264975Y0153252D03*
X0264975Y0161914D03*
X0264975Y0170575D03*
X0264975Y0183175D03*
D19*
X0203175Y0209435D03*
X0203175Y0216915D03*
X0203175Y0231935D03*
X0203175Y0239415D03*
X0203175Y0254435D03*
X0203175Y0261915D03*
D20*
X0273205Y0116699D02*
X0278715Y0116699D01*
X0273205Y0116699D02*
X0273205Y0117525D01*
X0278715Y0117525D01*
X0278715Y0116699D01*
X0278715Y0116961D02*
X0273205Y0116961D01*
X0273205Y0117223D02*
X0278715Y0117223D01*
X0278715Y0117485D02*
X0273205Y0117485D01*
X0273205Y0114731D02*
X0278715Y0114731D01*
X0273205Y0114731D02*
X0273205Y0115557D01*
X0278715Y0115557D01*
X0278715Y0114731D01*
X0278715Y0114993D02*
X0273205Y0114993D01*
X0273205Y0115255D02*
X0278715Y0115255D01*
X0278715Y0115517D02*
X0273205Y0115517D01*
X0273205Y0112762D02*
X0278715Y0112762D01*
X0273205Y0112762D02*
X0273205Y0113588D01*
X0278715Y0113588D01*
X0278715Y0112762D01*
X0278715Y0113024D02*
X0273205Y0113024D01*
X0273205Y0113286D02*
X0278715Y0113286D01*
X0278715Y0113548D02*
X0273205Y0113548D01*
X0273205Y0110793D02*
X0278715Y0110793D01*
X0273205Y0110793D02*
X0273205Y0111619D01*
X0278715Y0111619D01*
X0278715Y0110793D01*
X0278715Y0111055D02*
X0273205Y0111055D01*
X0273205Y0111317D02*
X0278715Y0111317D01*
X0278715Y0111579D02*
X0273205Y0111579D01*
X0273205Y0108825D02*
X0278715Y0108825D01*
X0273205Y0108825D02*
X0273205Y0109651D01*
X0278715Y0109651D01*
X0278715Y0108825D01*
X0278715Y0109087D02*
X0273205Y0109087D01*
X0273205Y0109349D02*
X0278715Y0109349D01*
X0278715Y0109611D02*
X0273205Y0109611D01*
X0290135Y0108825D02*
X0295645Y0108825D01*
X0290135Y0108825D02*
X0290135Y0109651D01*
X0295645Y0109651D01*
X0295645Y0108825D01*
X0295645Y0109087D02*
X0290135Y0109087D01*
X0290135Y0109349D02*
X0295645Y0109349D01*
X0295645Y0109611D02*
X0290135Y0109611D01*
X0290135Y0110793D02*
X0295645Y0110793D01*
X0290135Y0110793D02*
X0290135Y0111619D01*
X0295645Y0111619D01*
X0295645Y0110793D01*
X0295645Y0111055D02*
X0290135Y0111055D01*
X0290135Y0111317D02*
X0295645Y0111317D01*
X0295645Y0111579D02*
X0290135Y0111579D01*
X0290135Y0112762D02*
X0295645Y0112762D01*
X0290135Y0112762D02*
X0290135Y0113588D01*
X0295645Y0113588D01*
X0295645Y0112762D01*
X0295645Y0113024D02*
X0290135Y0113024D01*
X0290135Y0113286D02*
X0295645Y0113286D01*
X0295645Y0113548D02*
X0290135Y0113548D01*
X0290135Y0114731D02*
X0295645Y0114731D01*
X0290135Y0114731D02*
X0290135Y0115557D01*
X0295645Y0115557D01*
X0295645Y0114731D01*
X0295645Y0114993D02*
X0290135Y0114993D01*
X0290135Y0115255D02*
X0295645Y0115255D01*
X0295645Y0115517D02*
X0290135Y0115517D01*
X0290135Y0116699D02*
X0295645Y0116699D01*
X0290135Y0116699D02*
X0290135Y0117525D01*
X0295645Y0117525D01*
X0295645Y0116699D01*
X0295645Y0116961D02*
X0290135Y0116961D01*
X0290135Y0117223D02*
X0295645Y0117223D01*
X0295645Y0117485D02*
X0290135Y0117485D01*
D21*
X0230132Y0124336D03*
X0230132Y0129336D03*
X0230132Y0134336D03*
X0230132Y0139336D03*
X0230132Y0144336D03*
X0230132Y0149336D03*
X0230132Y0154336D03*
X0211532Y0154336D03*
X0211532Y0149336D03*
X0211532Y0144336D03*
X0211532Y0139336D03*
X0211532Y0134336D03*
X0211532Y0129336D03*
X0211532Y0124336D03*
X0175014Y0124336D03*
X0175014Y0129336D03*
X0175014Y0134336D03*
X0175014Y0139336D03*
X0175014Y0144336D03*
X0175014Y0149336D03*
X0175014Y0154336D03*
X0156414Y0154336D03*
X0156414Y0149336D03*
X0156414Y0144336D03*
X0156414Y0139336D03*
X0156414Y0134336D03*
X0156414Y0129336D03*
X0156414Y0124336D03*
D22*
X0128175Y0255454D03*
X0121925Y0255454D03*
X0115675Y0255454D03*
X0115675Y0262146D03*
X0121925Y0262146D03*
X0128175Y0262146D03*
D23*
X0134041Y0108175D03*
X0142309Y0108175D03*
X0142309Y0095675D03*
X0134041Y0095675D03*
D24*
X0130621Y0198175D03*
X0139479Y0198175D03*
D25*
X0139479Y0194829D03*
X0139479Y0201521D03*
X0130621Y0201521D03*
X0130621Y0194829D03*
D26*
X0128175Y0181507D03*
D27*
X0123234Y0195050D03*
X0118116Y0195050D03*
D28*
X0232840Y0168864D03*
X0240321Y0168864D03*
X0236581Y0176738D03*
M02*
