G75*
%MOIN*%
%OFA0B0*%
%FSLAX25Y25*%
%IPPOS*%
%LPD*%
%AMOC8*
5,1,8,0,0,1.08239X$1,22.5*
%
%ADD10C,0.00001*%
%ADD11C,0.00800*%
%ADD12C,0.00200*%
%ADD13R,0.03937X0.00787*%
D10*
X0105675Y0063549D02*
X0105675Y0284021D01*
X0108431Y0284021D02*
X0108433Y0284164D01*
X0108439Y0284307D01*
X0108449Y0284449D01*
X0108463Y0284591D01*
X0108481Y0284733D01*
X0108503Y0284875D01*
X0108528Y0285015D01*
X0108558Y0285155D01*
X0108592Y0285294D01*
X0108629Y0285432D01*
X0108671Y0285569D01*
X0108716Y0285704D01*
X0108765Y0285838D01*
X0108817Y0285971D01*
X0108873Y0286103D01*
X0108933Y0286232D01*
X0108997Y0286360D01*
X0109064Y0286487D01*
X0109135Y0286611D01*
X0109209Y0286733D01*
X0109286Y0286853D01*
X0109367Y0286971D01*
X0109451Y0287087D01*
X0109538Y0287200D01*
X0109628Y0287311D01*
X0109722Y0287419D01*
X0109818Y0287525D01*
X0109917Y0287627D01*
X0110020Y0287727D01*
X0110124Y0287824D01*
X0110232Y0287919D01*
X0110342Y0288010D01*
X0110455Y0288098D01*
X0110570Y0288182D01*
X0110687Y0288264D01*
X0110807Y0288342D01*
X0110928Y0288417D01*
X0111052Y0288489D01*
X0111178Y0288557D01*
X0111305Y0288621D01*
X0111435Y0288682D01*
X0111566Y0288739D01*
X0111698Y0288793D01*
X0111832Y0288842D01*
X0111967Y0288889D01*
X0112104Y0288931D01*
X0112242Y0288969D01*
X0112380Y0289004D01*
X0112520Y0289034D01*
X0112660Y0289061D01*
X0112801Y0289084D01*
X0112943Y0289103D01*
X0113085Y0289118D01*
X0113228Y0289129D01*
X0113370Y0289136D01*
X0113513Y0289139D01*
X0113656Y0289138D01*
X0113799Y0289133D01*
X0113942Y0289124D01*
X0114084Y0289111D01*
X0114226Y0289094D01*
X0114367Y0289073D01*
X0114508Y0289048D01*
X0114648Y0289020D01*
X0114787Y0288987D01*
X0114925Y0288950D01*
X0115062Y0288910D01*
X0115198Y0288866D01*
X0115333Y0288818D01*
X0115466Y0288766D01*
X0115598Y0288711D01*
X0115728Y0288652D01*
X0115857Y0288589D01*
X0115983Y0288523D01*
X0116108Y0288453D01*
X0116231Y0288380D01*
X0116351Y0288304D01*
X0116470Y0288224D01*
X0116586Y0288140D01*
X0116700Y0288054D01*
X0116811Y0287964D01*
X0116920Y0287872D01*
X0117026Y0287776D01*
X0117130Y0287678D01*
X0117231Y0287576D01*
X0117328Y0287472D01*
X0117423Y0287365D01*
X0117515Y0287256D01*
X0117604Y0287144D01*
X0117690Y0287029D01*
X0117772Y0286913D01*
X0117851Y0286793D01*
X0117927Y0286672D01*
X0117999Y0286549D01*
X0118068Y0286424D01*
X0118133Y0286297D01*
X0118195Y0286168D01*
X0118253Y0286037D01*
X0118308Y0285905D01*
X0118358Y0285771D01*
X0118405Y0285636D01*
X0118449Y0285500D01*
X0118488Y0285363D01*
X0118523Y0285224D01*
X0118555Y0285085D01*
X0118583Y0284945D01*
X0118607Y0284804D01*
X0118627Y0284662D01*
X0118643Y0284520D01*
X0118655Y0284378D01*
X0118663Y0284235D01*
X0118667Y0284092D01*
X0118667Y0283950D01*
X0118663Y0283807D01*
X0118655Y0283664D01*
X0118643Y0283522D01*
X0118627Y0283380D01*
X0118607Y0283238D01*
X0118583Y0283097D01*
X0118555Y0282957D01*
X0118523Y0282818D01*
X0118488Y0282679D01*
X0118449Y0282542D01*
X0118405Y0282406D01*
X0118358Y0282271D01*
X0118308Y0282137D01*
X0118253Y0282005D01*
X0118195Y0281874D01*
X0118133Y0281745D01*
X0118068Y0281618D01*
X0117999Y0281493D01*
X0117927Y0281370D01*
X0117851Y0281249D01*
X0117772Y0281129D01*
X0117690Y0281013D01*
X0117604Y0280898D01*
X0117515Y0280786D01*
X0117423Y0280677D01*
X0117328Y0280570D01*
X0117231Y0280466D01*
X0117130Y0280364D01*
X0117026Y0280266D01*
X0116920Y0280170D01*
X0116811Y0280078D01*
X0116700Y0279988D01*
X0116586Y0279902D01*
X0116470Y0279818D01*
X0116351Y0279738D01*
X0116231Y0279662D01*
X0116108Y0279589D01*
X0115983Y0279519D01*
X0115857Y0279453D01*
X0115728Y0279390D01*
X0115598Y0279331D01*
X0115466Y0279276D01*
X0115333Y0279224D01*
X0115198Y0279176D01*
X0115062Y0279132D01*
X0114925Y0279092D01*
X0114787Y0279055D01*
X0114648Y0279022D01*
X0114508Y0278994D01*
X0114367Y0278969D01*
X0114226Y0278948D01*
X0114084Y0278931D01*
X0113942Y0278918D01*
X0113799Y0278909D01*
X0113656Y0278904D01*
X0113513Y0278903D01*
X0113370Y0278906D01*
X0113228Y0278913D01*
X0113085Y0278924D01*
X0112943Y0278939D01*
X0112801Y0278958D01*
X0112660Y0278981D01*
X0112520Y0279008D01*
X0112380Y0279038D01*
X0112242Y0279073D01*
X0112104Y0279111D01*
X0111967Y0279153D01*
X0111832Y0279200D01*
X0111698Y0279249D01*
X0111566Y0279303D01*
X0111435Y0279360D01*
X0111305Y0279421D01*
X0111178Y0279485D01*
X0111052Y0279553D01*
X0110928Y0279625D01*
X0110807Y0279700D01*
X0110687Y0279778D01*
X0110570Y0279860D01*
X0110455Y0279944D01*
X0110342Y0280032D01*
X0110232Y0280123D01*
X0110124Y0280218D01*
X0110020Y0280315D01*
X0109917Y0280415D01*
X0109818Y0280517D01*
X0109722Y0280623D01*
X0109628Y0280731D01*
X0109538Y0280842D01*
X0109451Y0280955D01*
X0109367Y0281071D01*
X0109286Y0281189D01*
X0109209Y0281309D01*
X0109135Y0281431D01*
X0109064Y0281555D01*
X0108997Y0281682D01*
X0108933Y0281810D01*
X0108873Y0281939D01*
X0108817Y0282071D01*
X0108765Y0282204D01*
X0108716Y0282338D01*
X0108671Y0282473D01*
X0108629Y0282610D01*
X0108592Y0282748D01*
X0108558Y0282887D01*
X0108528Y0283027D01*
X0108503Y0283167D01*
X0108481Y0283309D01*
X0108463Y0283451D01*
X0108449Y0283593D01*
X0108439Y0283735D01*
X0108433Y0283878D01*
X0108431Y0284021D01*
X0105675Y0284021D02*
X0105677Y0284211D01*
X0105684Y0284401D01*
X0105696Y0284591D01*
X0105712Y0284781D01*
X0105732Y0284970D01*
X0105758Y0285159D01*
X0105787Y0285347D01*
X0105822Y0285534D01*
X0105861Y0285720D01*
X0105904Y0285905D01*
X0105952Y0286090D01*
X0106004Y0286273D01*
X0106060Y0286454D01*
X0106121Y0286634D01*
X0106187Y0286813D01*
X0106256Y0286990D01*
X0106330Y0287166D01*
X0106408Y0287339D01*
X0106491Y0287511D01*
X0106577Y0287680D01*
X0106667Y0287848D01*
X0106762Y0288013D01*
X0106860Y0288176D01*
X0106963Y0288336D01*
X0107069Y0288494D01*
X0107179Y0288649D01*
X0107292Y0288802D01*
X0107410Y0288952D01*
X0107531Y0289098D01*
X0107655Y0289242D01*
X0107783Y0289383D01*
X0107914Y0289521D01*
X0108049Y0289656D01*
X0108187Y0289787D01*
X0108328Y0289915D01*
X0108472Y0290039D01*
X0108618Y0290160D01*
X0108768Y0290278D01*
X0108921Y0290391D01*
X0109076Y0290501D01*
X0109234Y0290607D01*
X0109394Y0290710D01*
X0109557Y0290808D01*
X0109722Y0290903D01*
X0109890Y0290993D01*
X0110059Y0291079D01*
X0110231Y0291162D01*
X0110404Y0291240D01*
X0110580Y0291314D01*
X0110757Y0291383D01*
X0110936Y0291449D01*
X0111116Y0291510D01*
X0111297Y0291566D01*
X0111480Y0291618D01*
X0111665Y0291666D01*
X0111850Y0291709D01*
X0112036Y0291748D01*
X0112223Y0291783D01*
X0112411Y0291812D01*
X0112600Y0291838D01*
X0112789Y0291858D01*
X0112979Y0291874D01*
X0113169Y0291886D01*
X0113359Y0291893D01*
X0113549Y0291895D01*
X0314336Y0291895D01*
X0309218Y0284021D02*
X0309220Y0284164D01*
X0309226Y0284307D01*
X0309236Y0284449D01*
X0309250Y0284591D01*
X0309268Y0284733D01*
X0309290Y0284875D01*
X0309315Y0285015D01*
X0309345Y0285155D01*
X0309379Y0285294D01*
X0309416Y0285432D01*
X0309458Y0285569D01*
X0309503Y0285704D01*
X0309552Y0285838D01*
X0309604Y0285971D01*
X0309660Y0286103D01*
X0309720Y0286232D01*
X0309784Y0286360D01*
X0309851Y0286487D01*
X0309922Y0286611D01*
X0309996Y0286733D01*
X0310073Y0286853D01*
X0310154Y0286971D01*
X0310238Y0287087D01*
X0310325Y0287200D01*
X0310415Y0287311D01*
X0310509Y0287419D01*
X0310605Y0287525D01*
X0310704Y0287627D01*
X0310807Y0287727D01*
X0310911Y0287824D01*
X0311019Y0287919D01*
X0311129Y0288010D01*
X0311242Y0288098D01*
X0311357Y0288182D01*
X0311474Y0288264D01*
X0311594Y0288342D01*
X0311715Y0288417D01*
X0311839Y0288489D01*
X0311965Y0288557D01*
X0312092Y0288621D01*
X0312222Y0288682D01*
X0312353Y0288739D01*
X0312485Y0288793D01*
X0312619Y0288842D01*
X0312754Y0288889D01*
X0312891Y0288931D01*
X0313029Y0288969D01*
X0313167Y0289004D01*
X0313307Y0289034D01*
X0313447Y0289061D01*
X0313588Y0289084D01*
X0313730Y0289103D01*
X0313872Y0289118D01*
X0314015Y0289129D01*
X0314157Y0289136D01*
X0314300Y0289139D01*
X0314443Y0289138D01*
X0314586Y0289133D01*
X0314729Y0289124D01*
X0314871Y0289111D01*
X0315013Y0289094D01*
X0315154Y0289073D01*
X0315295Y0289048D01*
X0315435Y0289020D01*
X0315574Y0288987D01*
X0315712Y0288950D01*
X0315849Y0288910D01*
X0315985Y0288866D01*
X0316120Y0288818D01*
X0316253Y0288766D01*
X0316385Y0288711D01*
X0316515Y0288652D01*
X0316644Y0288589D01*
X0316770Y0288523D01*
X0316895Y0288453D01*
X0317018Y0288380D01*
X0317138Y0288304D01*
X0317257Y0288224D01*
X0317373Y0288140D01*
X0317487Y0288054D01*
X0317598Y0287964D01*
X0317707Y0287872D01*
X0317813Y0287776D01*
X0317917Y0287678D01*
X0318018Y0287576D01*
X0318115Y0287472D01*
X0318210Y0287365D01*
X0318302Y0287256D01*
X0318391Y0287144D01*
X0318477Y0287029D01*
X0318559Y0286913D01*
X0318638Y0286793D01*
X0318714Y0286672D01*
X0318786Y0286549D01*
X0318855Y0286424D01*
X0318920Y0286297D01*
X0318982Y0286168D01*
X0319040Y0286037D01*
X0319095Y0285905D01*
X0319145Y0285771D01*
X0319192Y0285636D01*
X0319236Y0285500D01*
X0319275Y0285363D01*
X0319310Y0285224D01*
X0319342Y0285085D01*
X0319370Y0284945D01*
X0319394Y0284804D01*
X0319414Y0284662D01*
X0319430Y0284520D01*
X0319442Y0284378D01*
X0319450Y0284235D01*
X0319454Y0284092D01*
X0319454Y0283950D01*
X0319450Y0283807D01*
X0319442Y0283664D01*
X0319430Y0283522D01*
X0319414Y0283380D01*
X0319394Y0283238D01*
X0319370Y0283097D01*
X0319342Y0282957D01*
X0319310Y0282818D01*
X0319275Y0282679D01*
X0319236Y0282542D01*
X0319192Y0282406D01*
X0319145Y0282271D01*
X0319095Y0282137D01*
X0319040Y0282005D01*
X0318982Y0281874D01*
X0318920Y0281745D01*
X0318855Y0281618D01*
X0318786Y0281493D01*
X0318714Y0281370D01*
X0318638Y0281249D01*
X0318559Y0281129D01*
X0318477Y0281013D01*
X0318391Y0280898D01*
X0318302Y0280786D01*
X0318210Y0280677D01*
X0318115Y0280570D01*
X0318018Y0280466D01*
X0317917Y0280364D01*
X0317813Y0280266D01*
X0317707Y0280170D01*
X0317598Y0280078D01*
X0317487Y0279988D01*
X0317373Y0279902D01*
X0317257Y0279818D01*
X0317138Y0279738D01*
X0317018Y0279662D01*
X0316895Y0279589D01*
X0316770Y0279519D01*
X0316644Y0279453D01*
X0316515Y0279390D01*
X0316385Y0279331D01*
X0316253Y0279276D01*
X0316120Y0279224D01*
X0315985Y0279176D01*
X0315849Y0279132D01*
X0315712Y0279092D01*
X0315574Y0279055D01*
X0315435Y0279022D01*
X0315295Y0278994D01*
X0315154Y0278969D01*
X0315013Y0278948D01*
X0314871Y0278931D01*
X0314729Y0278918D01*
X0314586Y0278909D01*
X0314443Y0278904D01*
X0314300Y0278903D01*
X0314157Y0278906D01*
X0314015Y0278913D01*
X0313872Y0278924D01*
X0313730Y0278939D01*
X0313588Y0278958D01*
X0313447Y0278981D01*
X0313307Y0279008D01*
X0313167Y0279038D01*
X0313029Y0279073D01*
X0312891Y0279111D01*
X0312754Y0279153D01*
X0312619Y0279200D01*
X0312485Y0279249D01*
X0312353Y0279303D01*
X0312222Y0279360D01*
X0312092Y0279421D01*
X0311965Y0279485D01*
X0311839Y0279553D01*
X0311715Y0279625D01*
X0311594Y0279700D01*
X0311474Y0279778D01*
X0311357Y0279860D01*
X0311242Y0279944D01*
X0311129Y0280032D01*
X0311019Y0280123D01*
X0310911Y0280218D01*
X0310807Y0280315D01*
X0310704Y0280415D01*
X0310605Y0280517D01*
X0310509Y0280623D01*
X0310415Y0280731D01*
X0310325Y0280842D01*
X0310238Y0280955D01*
X0310154Y0281071D01*
X0310073Y0281189D01*
X0309996Y0281309D01*
X0309922Y0281431D01*
X0309851Y0281555D01*
X0309784Y0281682D01*
X0309720Y0281810D01*
X0309660Y0281939D01*
X0309604Y0282071D01*
X0309552Y0282204D01*
X0309503Y0282338D01*
X0309458Y0282473D01*
X0309416Y0282610D01*
X0309379Y0282748D01*
X0309345Y0282887D01*
X0309315Y0283027D01*
X0309290Y0283167D01*
X0309268Y0283309D01*
X0309250Y0283451D01*
X0309236Y0283593D01*
X0309226Y0283735D01*
X0309220Y0283878D01*
X0309218Y0284021D01*
X0314336Y0291895D02*
X0314526Y0291893D01*
X0314716Y0291886D01*
X0314906Y0291874D01*
X0315096Y0291858D01*
X0315285Y0291838D01*
X0315474Y0291812D01*
X0315662Y0291783D01*
X0315849Y0291748D01*
X0316035Y0291709D01*
X0316220Y0291666D01*
X0316405Y0291618D01*
X0316588Y0291566D01*
X0316769Y0291510D01*
X0316949Y0291449D01*
X0317128Y0291383D01*
X0317305Y0291314D01*
X0317481Y0291240D01*
X0317654Y0291162D01*
X0317826Y0291079D01*
X0317995Y0290993D01*
X0318163Y0290903D01*
X0318328Y0290808D01*
X0318491Y0290710D01*
X0318651Y0290607D01*
X0318809Y0290501D01*
X0318964Y0290391D01*
X0319117Y0290278D01*
X0319267Y0290160D01*
X0319413Y0290039D01*
X0319557Y0289915D01*
X0319698Y0289787D01*
X0319836Y0289656D01*
X0319971Y0289521D01*
X0320102Y0289383D01*
X0320230Y0289242D01*
X0320354Y0289098D01*
X0320475Y0288952D01*
X0320593Y0288802D01*
X0320706Y0288649D01*
X0320816Y0288494D01*
X0320922Y0288336D01*
X0321025Y0288176D01*
X0321123Y0288013D01*
X0321218Y0287848D01*
X0321308Y0287680D01*
X0321394Y0287511D01*
X0321477Y0287339D01*
X0321555Y0287166D01*
X0321629Y0286990D01*
X0321698Y0286813D01*
X0321764Y0286634D01*
X0321825Y0286454D01*
X0321881Y0286273D01*
X0321933Y0286090D01*
X0321981Y0285905D01*
X0322024Y0285720D01*
X0322063Y0285534D01*
X0322098Y0285347D01*
X0322127Y0285159D01*
X0322153Y0284970D01*
X0322173Y0284781D01*
X0322189Y0284591D01*
X0322201Y0284401D01*
X0322208Y0284211D01*
X0322210Y0284021D01*
X0322210Y0063549D01*
X0309218Y0063549D02*
X0309220Y0063692D01*
X0309226Y0063835D01*
X0309236Y0063977D01*
X0309250Y0064119D01*
X0309268Y0064261D01*
X0309290Y0064403D01*
X0309315Y0064543D01*
X0309345Y0064683D01*
X0309379Y0064822D01*
X0309416Y0064960D01*
X0309458Y0065097D01*
X0309503Y0065232D01*
X0309552Y0065366D01*
X0309604Y0065499D01*
X0309660Y0065631D01*
X0309720Y0065760D01*
X0309784Y0065888D01*
X0309851Y0066015D01*
X0309922Y0066139D01*
X0309996Y0066261D01*
X0310073Y0066381D01*
X0310154Y0066499D01*
X0310238Y0066615D01*
X0310325Y0066728D01*
X0310415Y0066839D01*
X0310509Y0066947D01*
X0310605Y0067053D01*
X0310704Y0067155D01*
X0310807Y0067255D01*
X0310911Y0067352D01*
X0311019Y0067447D01*
X0311129Y0067538D01*
X0311242Y0067626D01*
X0311357Y0067710D01*
X0311474Y0067792D01*
X0311594Y0067870D01*
X0311715Y0067945D01*
X0311839Y0068017D01*
X0311965Y0068085D01*
X0312092Y0068149D01*
X0312222Y0068210D01*
X0312353Y0068267D01*
X0312485Y0068321D01*
X0312619Y0068370D01*
X0312754Y0068417D01*
X0312891Y0068459D01*
X0313029Y0068497D01*
X0313167Y0068532D01*
X0313307Y0068562D01*
X0313447Y0068589D01*
X0313588Y0068612D01*
X0313730Y0068631D01*
X0313872Y0068646D01*
X0314015Y0068657D01*
X0314157Y0068664D01*
X0314300Y0068667D01*
X0314443Y0068666D01*
X0314586Y0068661D01*
X0314729Y0068652D01*
X0314871Y0068639D01*
X0315013Y0068622D01*
X0315154Y0068601D01*
X0315295Y0068576D01*
X0315435Y0068548D01*
X0315574Y0068515D01*
X0315712Y0068478D01*
X0315849Y0068438D01*
X0315985Y0068394D01*
X0316120Y0068346D01*
X0316253Y0068294D01*
X0316385Y0068239D01*
X0316515Y0068180D01*
X0316644Y0068117D01*
X0316770Y0068051D01*
X0316895Y0067981D01*
X0317018Y0067908D01*
X0317138Y0067832D01*
X0317257Y0067752D01*
X0317373Y0067668D01*
X0317487Y0067582D01*
X0317598Y0067492D01*
X0317707Y0067400D01*
X0317813Y0067304D01*
X0317917Y0067206D01*
X0318018Y0067104D01*
X0318115Y0067000D01*
X0318210Y0066893D01*
X0318302Y0066784D01*
X0318391Y0066672D01*
X0318477Y0066557D01*
X0318559Y0066441D01*
X0318638Y0066321D01*
X0318714Y0066200D01*
X0318786Y0066077D01*
X0318855Y0065952D01*
X0318920Y0065825D01*
X0318982Y0065696D01*
X0319040Y0065565D01*
X0319095Y0065433D01*
X0319145Y0065299D01*
X0319192Y0065164D01*
X0319236Y0065028D01*
X0319275Y0064891D01*
X0319310Y0064752D01*
X0319342Y0064613D01*
X0319370Y0064473D01*
X0319394Y0064332D01*
X0319414Y0064190D01*
X0319430Y0064048D01*
X0319442Y0063906D01*
X0319450Y0063763D01*
X0319454Y0063620D01*
X0319454Y0063478D01*
X0319450Y0063335D01*
X0319442Y0063192D01*
X0319430Y0063050D01*
X0319414Y0062908D01*
X0319394Y0062766D01*
X0319370Y0062625D01*
X0319342Y0062485D01*
X0319310Y0062346D01*
X0319275Y0062207D01*
X0319236Y0062070D01*
X0319192Y0061934D01*
X0319145Y0061799D01*
X0319095Y0061665D01*
X0319040Y0061533D01*
X0318982Y0061402D01*
X0318920Y0061273D01*
X0318855Y0061146D01*
X0318786Y0061021D01*
X0318714Y0060898D01*
X0318638Y0060777D01*
X0318559Y0060657D01*
X0318477Y0060541D01*
X0318391Y0060426D01*
X0318302Y0060314D01*
X0318210Y0060205D01*
X0318115Y0060098D01*
X0318018Y0059994D01*
X0317917Y0059892D01*
X0317813Y0059794D01*
X0317707Y0059698D01*
X0317598Y0059606D01*
X0317487Y0059516D01*
X0317373Y0059430D01*
X0317257Y0059346D01*
X0317138Y0059266D01*
X0317018Y0059190D01*
X0316895Y0059117D01*
X0316770Y0059047D01*
X0316644Y0058981D01*
X0316515Y0058918D01*
X0316385Y0058859D01*
X0316253Y0058804D01*
X0316120Y0058752D01*
X0315985Y0058704D01*
X0315849Y0058660D01*
X0315712Y0058620D01*
X0315574Y0058583D01*
X0315435Y0058550D01*
X0315295Y0058522D01*
X0315154Y0058497D01*
X0315013Y0058476D01*
X0314871Y0058459D01*
X0314729Y0058446D01*
X0314586Y0058437D01*
X0314443Y0058432D01*
X0314300Y0058431D01*
X0314157Y0058434D01*
X0314015Y0058441D01*
X0313872Y0058452D01*
X0313730Y0058467D01*
X0313588Y0058486D01*
X0313447Y0058509D01*
X0313307Y0058536D01*
X0313167Y0058566D01*
X0313029Y0058601D01*
X0312891Y0058639D01*
X0312754Y0058681D01*
X0312619Y0058728D01*
X0312485Y0058777D01*
X0312353Y0058831D01*
X0312222Y0058888D01*
X0312092Y0058949D01*
X0311965Y0059013D01*
X0311839Y0059081D01*
X0311715Y0059153D01*
X0311594Y0059228D01*
X0311474Y0059306D01*
X0311357Y0059388D01*
X0311242Y0059472D01*
X0311129Y0059560D01*
X0311019Y0059651D01*
X0310911Y0059746D01*
X0310807Y0059843D01*
X0310704Y0059943D01*
X0310605Y0060045D01*
X0310509Y0060151D01*
X0310415Y0060259D01*
X0310325Y0060370D01*
X0310238Y0060483D01*
X0310154Y0060599D01*
X0310073Y0060717D01*
X0309996Y0060837D01*
X0309922Y0060959D01*
X0309851Y0061083D01*
X0309784Y0061210D01*
X0309720Y0061338D01*
X0309660Y0061467D01*
X0309604Y0061599D01*
X0309552Y0061732D01*
X0309503Y0061866D01*
X0309458Y0062001D01*
X0309416Y0062138D01*
X0309379Y0062276D01*
X0309345Y0062415D01*
X0309315Y0062555D01*
X0309290Y0062695D01*
X0309268Y0062837D01*
X0309250Y0062979D01*
X0309236Y0063121D01*
X0309226Y0063263D01*
X0309220Y0063406D01*
X0309218Y0063549D01*
X0314336Y0055675D02*
X0314526Y0055677D01*
X0314716Y0055684D01*
X0314906Y0055696D01*
X0315096Y0055712D01*
X0315285Y0055732D01*
X0315474Y0055758D01*
X0315662Y0055787D01*
X0315849Y0055822D01*
X0316035Y0055861D01*
X0316220Y0055904D01*
X0316405Y0055952D01*
X0316588Y0056004D01*
X0316769Y0056060D01*
X0316949Y0056121D01*
X0317128Y0056187D01*
X0317305Y0056256D01*
X0317481Y0056330D01*
X0317654Y0056408D01*
X0317826Y0056491D01*
X0317995Y0056577D01*
X0318163Y0056667D01*
X0318328Y0056762D01*
X0318491Y0056860D01*
X0318651Y0056963D01*
X0318809Y0057069D01*
X0318964Y0057179D01*
X0319117Y0057292D01*
X0319267Y0057410D01*
X0319413Y0057531D01*
X0319557Y0057655D01*
X0319698Y0057783D01*
X0319836Y0057914D01*
X0319971Y0058049D01*
X0320102Y0058187D01*
X0320230Y0058328D01*
X0320354Y0058472D01*
X0320475Y0058618D01*
X0320593Y0058768D01*
X0320706Y0058921D01*
X0320816Y0059076D01*
X0320922Y0059234D01*
X0321025Y0059394D01*
X0321123Y0059557D01*
X0321218Y0059722D01*
X0321308Y0059890D01*
X0321394Y0060059D01*
X0321477Y0060231D01*
X0321555Y0060404D01*
X0321629Y0060580D01*
X0321698Y0060757D01*
X0321764Y0060936D01*
X0321825Y0061116D01*
X0321881Y0061297D01*
X0321933Y0061480D01*
X0321981Y0061665D01*
X0322024Y0061850D01*
X0322063Y0062036D01*
X0322098Y0062223D01*
X0322127Y0062411D01*
X0322153Y0062600D01*
X0322173Y0062789D01*
X0322189Y0062979D01*
X0322201Y0063169D01*
X0322208Y0063359D01*
X0322210Y0063549D01*
X0314336Y0055675D02*
X0113549Y0055675D01*
X0108431Y0063549D02*
X0108433Y0063692D01*
X0108439Y0063835D01*
X0108449Y0063977D01*
X0108463Y0064119D01*
X0108481Y0064261D01*
X0108503Y0064403D01*
X0108528Y0064543D01*
X0108558Y0064683D01*
X0108592Y0064822D01*
X0108629Y0064960D01*
X0108671Y0065097D01*
X0108716Y0065232D01*
X0108765Y0065366D01*
X0108817Y0065499D01*
X0108873Y0065631D01*
X0108933Y0065760D01*
X0108997Y0065888D01*
X0109064Y0066015D01*
X0109135Y0066139D01*
X0109209Y0066261D01*
X0109286Y0066381D01*
X0109367Y0066499D01*
X0109451Y0066615D01*
X0109538Y0066728D01*
X0109628Y0066839D01*
X0109722Y0066947D01*
X0109818Y0067053D01*
X0109917Y0067155D01*
X0110020Y0067255D01*
X0110124Y0067352D01*
X0110232Y0067447D01*
X0110342Y0067538D01*
X0110455Y0067626D01*
X0110570Y0067710D01*
X0110687Y0067792D01*
X0110807Y0067870D01*
X0110928Y0067945D01*
X0111052Y0068017D01*
X0111178Y0068085D01*
X0111305Y0068149D01*
X0111435Y0068210D01*
X0111566Y0068267D01*
X0111698Y0068321D01*
X0111832Y0068370D01*
X0111967Y0068417D01*
X0112104Y0068459D01*
X0112242Y0068497D01*
X0112380Y0068532D01*
X0112520Y0068562D01*
X0112660Y0068589D01*
X0112801Y0068612D01*
X0112943Y0068631D01*
X0113085Y0068646D01*
X0113228Y0068657D01*
X0113370Y0068664D01*
X0113513Y0068667D01*
X0113656Y0068666D01*
X0113799Y0068661D01*
X0113942Y0068652D01*
X0114084Y0068639D01*
X0114226Y0068622D01*
X0114367Y0068601D01*
X0114508Y0068576D01*
X0114648Y0068548D01*
X0114787Y0068515D01*
X0114925Y0068478D01*
X0115062Y0068438D01*
X0115198Y0068394D01*
X0115333Y0068346D01*
X0115466Y0068294D01*
X0115598Y0068239D01*
X0115728Y0068180D01*
X0115857Y0068117D01*
X0115983Y0068051D01*
X0116108Y0067981D01*
X0116231Y0067908D01*
X0116351Y0067832D01*
X0116470Y0067752D01*
X0116586Y0067668D01*
X0116700Y0067582D01*
X0116811Y0067492D01*
X0116920Y0067400D01*
X0117026Y0067304D01*
X0117130Y0067206D01*
X0117231Y0067104D01*
X0117328Y0067000D01*
X0117423Y0066893D01*
X0117515Y0066784D01*
X0117604Y0066672D01*
X0117690Y0066557D01*
X0117772Y0066441D01*
X0117851Y0066321D01*
X0117927Y0066200D01*
X0117999Y0066077D01*
X0118068Y0065952D01*
X0118133Y0065825D01*
X0118195Y0065696D01*
X0118253Y0065565D01*
X0118308Y0065433D01*
X0118358Y0065299D01*
X0118405Y0065164D01*
X0118449Y0065028D01*
X0118488Y0064891D01*
X0118523Y0064752D01*
X0118555Y0064613D01*
X0118583Y0064473D01*
X0118607Y0064332D01*
X0118627Y0064190D01*
X0118643Y0064048D01*
X0118655Y0063906D01*
X0118663Y0063763D01*
X0118667Y0063620D01*
X0118667Y0063478D01*
X0118663Y0063335D01*
X0118655Y0063192D01*
X0118643Y0063050D01*
X0118627Y0062908D01*
X0118607Y0062766D01*
X0118583Y0062625D01*
X0118555Y0062485D01*
X0118523Y0062346D01*
X0118488Y0062207D01*
X0118449Y0062070D01*
X0118405Y0061934D01*
X0118358Y0061799D01*
X0118308Y0061665D01*
X0118253Y0061533D01*
X0118195Y0061402D01*
X0118133Y0061273D01*
X0118068Y0061146D01*
X0117999Y0061021D01*
X0117927Y0060898D01*
X0117851Y0060777D01*
X0117772Y0060657D01*
X0117690Y0060541D01*
X0117604Y0060426D01*
X0117515Y0060314D01*
X0117423Y0060205D01*
X0117328Y0060098D01*
X0117231Y0059994D01*
X0117130Y0059892D01*
X0117026Y0059794D01*
X0116920Y0059698D01*
X0116811Y0059606D01*
X0116700Y0059516D01*
X0116586Y0059430D01*
X0116470Y0059346D01*
X0116351Y0059266D01*
X0116231Y0059190D01*
X0116108Y0059117D01*
X0115983Y0059047D01*
X0115857Y0058981D01*
X0115728Y0058918D01*
X0115598Y0058859D01*
X0115466Y0058804D01*
X0115333Y0058752D01*
X0115198Y0058704D01*
X0115062Y0058660D01*
X0114925Y0058620D01*
X0114787Y0058583D01*
X0114648Y0058550D01*
X0114508Y0058522D01*
X0114367Y0058497D01*
X0114226Y0058476D01*
X0114084Y0058459D01*
X0113942Y0058446D01*
X0113799Y0058437D01*
X0113656Y0058432D01*
X0113513Y0058431D01*
X0113370Y0058434D01*
X0113228Y0058441D01*
X0113085Y0058452D01*
X0112943Y0058467D01*
X0112801Y0058486D01*
X0112660Y0058509D01*
X0112520Y0058536D01*
X0112380Y0058566D01*
X0112242Y0058601D01*
X0112104Y0058639D01*
X0111967Y0058681D01*
X0111832Y0058728D01*
X0111698Y0058777D01*
X0111566Y0058831D01*
X0111435Y0058888D01*
X0111305Y0058949D01*
X0111178Y0059013D01*
X0111052Y0059081D01*
X0110928Y0059153D01*
X0110807Y0059228D01*
X0110687Y0059306D01*
X0110570Y0059388D01*
X0110455Y0059472D01*
X0110342Y0059560D01*
X0110232Y0059651D01*
X0110124Y0059746D01*
X0110020Y0059843D01*
X0109917Y0059943D01*
X0109818Y0060045D01*
X0109722Y0060151D01*
X0109628Y0060259D01*
X0109538Y0060370D01*
X0109451Y0060483D01*
X0109367Y0060599D01*
X0109286Y0060717D01*
X0109209Y0060837D01*
X0109135Y0060959D01*
X0109064Y0061083D01*
X0108997Y0061210D01*
X0108933Y0061338D01*
X0108873Y0061467D01*
X0108817Y0061599D01*
X0108765Y0061732D01*
X0108716Y0061866D01*
X0108671Y0062001D01*
X0108629Y0062138D01*
X0108592Y0062276D01*
X0108558Y0062415D01*
X0108528Y0062555D01*
X0108503Y0062695D01*
X0108481Y0062837D01*
X0108463Y0062979D01*
X0108449Y0063121D01*
X0108439Y0063263D01*
X0108433Y0063406D01*
X0108431Y0063549D01*
X0105675Y0063549D02*
X0105677Y0063359D01*
X0105684Y0063169D01*
X0105696Y0062979D01*
X0105712Y0062789D01*
X0105732Y0062600D01*
X0105758Y0062411D01*
X0105787Y0062223D01*
X0105822Y0062036D01*
X0105861Y0061850D01*
X0105904Y0061665D01*
X0105952Y0061480D01*
X0106004Y0061297D01*
X0106060Y0061116D01*
X0106121Y0060936D01*
X0106187Y0060757D01*
X0106256Y0060580D01*
X0106330Y0060404D01*
X0106408Y0060231D01*
X0106491Y0060059D01*
X0106577Y0059890D01*
X0106667Y0059722D01*
X0106762Y0059557D01*
X0106860Y0059394D01*
X0106963Y0059234D01*
X0107069Y0059076D01*
X0107179Y0058921D01*
X0107292Y0058768D01*
X0107410Y0058618D01*
X0107531Y0058472D01*
X0107655Y0058328D01*
X0107783Y0058187D01*
X0107914Y0058049D01*
X0108049Y0057914D01*
X0108187Y0057783D01*
X0108328Y0057655D01*
X0108472Y0057531D01*
X0108618Y0057410D01*
X0108768Y0057292D01*
X0108921Y0057179D01*
X0109076Y0057069D01*
X0109234Y0056963D01*
X0109394Y0056860D01*
X0109557Y0056762D01*
X0109722Y0056667D01*
X0109890Y0056577D01*
X0110059Y0056491D01*
X0110231Y0056408D01*
X0110404Y0056330D01*
X0110580Y0056256D01*
X0110757Y0056187D01*
X0110936Y0056121D01*
X0111116Y0056060D01*
X0111297Y0056004D01*
X0111480Y0055952D01*
X0111665Y0055904D01*
X0111850Y0055861D01*
X0112036Y0055822D01*
X0112223Y0055787D01*
X0112411Y0055758D01*
X0112600Y0055732D01*
X0112789Y0055712D01*
X0112979Y0055696D01*
X0113169Y0055684D01*
X0113359Y0055677D01*
X0113549Y0055675D01*
D11*
X0272713Y0176138D02*
X0272713Y0181306D01*
X0276684Y0181306D01*
X0281122Y0181306D02*
X0285094Y0181306D01*
X0285094Y0176138D01*
X0280425Y0176106D02*
X0277437Y0176106D01*
X0290173Y0178846D02*
X0290173Y0171972D01*
X0292929Y0174228D02*
X0291354Y0176590D01*
X0294504Y0176590D01*
X0292929Y0174228D01*
X0292929Y0175016D02*
X0292142Y0176197D01*
X0293716Y0176197D01*
X0292929Y0175016D01*
X0292638Y0175452D02*
X0293220Y0175452D01*
X0295685Y0178846D02*
X0295685Y0171972D01*
X0295793Y0219010D02*
X0295793Y0225884D01*
X0294612Y0223628D02*
X0291462Y0223628D01*
X0293037Y0221266D01*
X0294612Y0223628D01*
X0293825Y0223234D02*
X0292250Y0223234D01*
X0293037Y0222053D01*
X0293825Y0223234D01*
X0293378Y0222564D02*
X0292697Y0222564D01*
X0290281Y0225884D02*
X0290281Y0219010D01*
X0285094Y0222969D02*
X0285094Y0228137D01*
X0281122Y0228137D01*
X0276684Y0228137D02*
X0272713Y0228137D01*
X0272713Y0222969D01*
X0277437Y0222937D02*
X0280425Y0222937D01*
X0250793Y0225884D02*
X0250793Y0219010D01*
X0248037Y0221266D02*
X0246462Y0223628D01*
X0249612Y0223628D01*
X0248037Y0221266D01*
X0248037Y0222053D02*
X0247250Y0223234D01*
X0248825Y0223234D01*
X0248037Y0222053D01*
X0247697Y0222564D02*
X0248378Y0222564D01*
X0245281Y0225884D02*
X0245281Y0219010D01*
X0240094Y0222969D02*
X0240094Y0228137D01*
X0236122Y0228137D01*
X0231684Y0228137D02*
X0227713Y0228137D01*
X0227713Y0222969D01*
X0232437Y0222937D02*
X0235425Y0222937D01*
X0245419Y0267238D02*
X0245419Y0274112D01*
X0246600Y0271856D02*
X0248175Y0269494D01*
X0249750Y0271856D01*
X0246600Y0271856D01*
X0247388Y0271462D02*
X0248175Y0270281D01*
X0248962Y0271462D01*
X0247388Y0271462D01*
X0247514Y0271273D02*
X0248836Y0271273D01*
X0248304Y0270475D02*
X0248046Y0270475D01*
X0250931Y0267238D02*
X0250931Y0274112D01*
X0239366Y0275775D02*
X0239366Y0270606D01*
X0234696Y0270575D02*
X0231709Y0270575D01*
X0226984Y0270606D02*
X0226984Y0275775D01*
X0230956Y0275775D01*
X0235394Y0275775D02*
X0239366Y0275775D01*
X0272713Y0275637D02*
X0272713Y0270469D01*
X0277437Y0270437D02*
X0280425Y0270437D01*
X0285094Y0270469D02*
X0285094Y0275637D01*
X0281122Y0275637D01*
X0276684Y0275637D02*
X0272713Y0275637D01*
X0290281Y0273384D02*
X0290281Y0266510D01*
X0293037Y0268766D02*
X0291462Y0271128D01*
X0294612Y0271128D01*
X0293037Y0268766D01*
X0293037Y0269553D02*
X0292250Y0270734D01*
X0293825Y0270734D01*
X0293037Y0269553D01*
X0292955Y0269676D02*
X0293119Y0269676D01*
X0293652Y0270475D02*
X0292423Y0270475D01*
X0295793Y0273384D02*
X0295793Y0266510D01*
D12*
X0297137Y0267279D02*
X0297137Y0268501D01*
X0297137Y0267279D02*
X0298359Y0268318D01*
X0299338Y0267951D02*
X0299336Y0267899D01*
X0299330Y0267847D01*
X0299321Y0267795D01*
X0299307Y0267745D01*
X0299290Y0267695D01*
X0299269Y0267647D01*
X0299245Y0267601D01*
X0299218Y0267557D01*
X0299187Y0267514D01*
X0299153Y0267474D01*
X0299117Y0267437D01*
X0299077Y0267403D01*
X0299035Y0267371D01*
X0298992Y0267343D01*
X0298946Y0267318D01*
X0298898Y0267296D01*
X0298849Y0267278D01*
X0298359Y0268318D02*
X0298393Y0268351D01*
X0298430Y0268381D01*
X0298470Y0268409D01*
X0298511Y0268433D01*
X0298554Y0268453D01*
X0298599Y0268470D01*
X0298645Y0268484D01*
X0298692Y0268493D01*
X0298739Y0268499D01*
X0298787Y0268501D01*
X0298832Y0268499D01*
X0298878Y0268493D01*
X0298922Y0268484D01*
X0298966Y0268471D01*
X0299008Y0268455D01*
X0299049Y0268435D01*
X0299088Y0268411D01*
X0299125Y0268385D01*
X0299160Y0268356D01*
X0299192Y0268324D01*
X0299221Y0268289D01*
X0299247Y0268252D01*
X0299271Y0268213D01*
X0299291Y0268172D01*
X0299307Y0268130D01*
X0299320Y0268086D01*
X0299329Y0268042D01*
X0299335Y0267996D01*
X0299337Y0267951D01*
X0298726Y0266269D02*
X0297748Y0266269D01*
X0297700Y0266267D01*
X0297652Y0266261D01*
X0297605Y0266252D01*
X0297559Y0266239D01*
X0297514Y0266222D01*
X0297471Y0266202D01*
X0297429Y0266179D01*
X0297389Y0266152D01*
X0297351Y0266123D01*
X0297316Y0266090D01*
X0297283Y0266055D01*
X0297254Y0266017D01*
X0297227Y0265977D01*
X0297204Y0265935D01*
X0297184Y0265892D01*
X0297167Y0265847D01*
X0297154Y0265801D01*
X0297145Y0265754D01*
X0297139Y0265706D01*
X0297137Y0265658D01*
X0297137Y0265047D01*
X0299337Y0265047D01*
X0299337Y0265658D01*
X0299335Y0265706D01*
X0299329Y0265754D01*
X0299320Y0265801D01*
X0299307Y0265847D01*
X0299290Y0265892D01*
X0299270Y0265935D01*
X0299247Y0265977D01*
X0299220Y0266017D01*
X0299191Y0266055D01*
X0299158Y0266090D01*
X0299123Y0266123D01*
X0299085Y0266152D01*
X0299045Y0266179D01*
X0299003Y0266202D01*
X0298960Y0266222D01*
X0298915Y0266239D01*
X0298869Y0266252D01*
X0298822Y0266261D01*
X0298774Y0266267D01*
X0298726Y0266269D01*
X0271803Y0273248D02*
X0271803Y0274226D01*
X0271801Y0274274D01*
X0271795Y0274322D01*
X0271786Y0274369D01*
X0271773Y0274415D01*
X0271756Y0274460D01*
X0271736Y0274503D01*
X0271713Y0274545D01*
X0271686Y0274585D01*
X0271657Y0274623D01*
X0271624Y0274658D01*
X0271589Y0274691D01*
X0271551Y0274720D01*
X0271511Y0274747D01*
X0271469Y0274770D01*
X0271426Y0274790D01*
X0271381Y0274807D01*
X0271335Y0274820D01*
X0271288Y0274829D01*
X0271240Y0274835D01*
X0271192Y0274837D01*
X0271144Y0274835D01*
X0271096Y0274829D01*
X0271049Y0274820D01*
X0271003Y0274807D01*
X0270958Y0274790D01*
X0270915Y0274770D01*
X0270873Y0274747D01*
X0270833Y0274720D01*
X0270795Y0274691D01*
X0270760Y0274658D01*
X0270727Y0274623D01*
X0270698Y0274585D01*
X0270671Y0274545D01*
X0270648Y0274503D01*
X0270628Y0274460D01*
X0270611Y0274415D01*
X0270598Y0274369D01*
X0270589Y0274322D01*
X0270583Y0274274D01*
X0270581Y0274226D01*
X0270581Y0273248D01*
X0270826Y0273126D02*
X0270337Y0272637D01*
X0269700Y0272637D02*
X0268478Y0272637D01*
X0269700Y0272637D02*
X0268661Y0273859D01*
X0269028Y0274838D02*
X0269080Y0274836D01*
X0269132Y0274830D01*
X0269184Y0274821D01*
X0269234Y0274807D01*
X0269284Y0274790D01*
X0269332Y0274769D01*
X0269378Y0274745D01*
X0269422Y0274718D01*
X0269465Y0274687D01*
X0269505Y0274653D01*
X0269542Y0274617D01*
X0269576Y0274577D01*
X0269608Y0274535D01*
X0269636Y0274492D01*
X0269661Y0274446D01*
X0269683Y0274398D01*
X0269701Y0274349D01*
X0268661Y0273859D02*
X0268628Y0273893D01*
X0268598Y0273930D01*
X0268570Y0273970D01*
X0268546Y0274011D01*
X0268526Y0274054D01*
X0268509Y0274099D01*
X0268495Y0274145D01*
X0268486Y0274192D01*
X0268480Y0274239D01*
X0268478Y0274287D01*
X0268480Y0274332D01*
X0268486Y0274378D01*
X0268495Y0274422D01*
X0268508Y0274466D01*
X0268524Y0274508D01*
X0268544Y0274549D01*
X0268568Y0274588D01*
X0268594Y0274625D01*
X0268623Y0274660D01*
X0268655Y0274692D01*
X0268690Y0274721D01*
X0268727Y0274747D01*
X0268766Y0274771D01*
X0268807Y0274791D01*
X0268849Y0274807D01*
X0268893Y0274820D01*
X0268937Y0274829D01*
X0268983Y0274835D01*
X0269028Y0274837D01*
X0270581Y0273248D02*
X0270583Y0273200D01*
X0270589Y0273152D01*
X0270598Y0273105D01*
X0270611Y0273059D01*
X0270628Y0273014D01*
X0270648Y0272971D01*
X0270671Y0272929D01*
X0270698Y0272889D01*
X0270727Y0272851D01*
X0270760Y0272816D01*
X0270795Y0272783D01*
X0270833Y0272754D01*
X0270873Y0272727D01*
X0270915Y0272704D01*
X0270958Y0272684D01*
X0271003Y0272667D01*
X0271049Y0272654D01*
X0271096Y0272645D01*
X0271144Y0272639D01*
X0271192Y0272637D01*
X0271240Y0272639D01*
X0271288Y0272645D01*
X0271335Y0272654D01*
X0271381Y0272667D01*
X0271426Y0272684D01*
X0271469Y0272704D01*
X0271511Y0272727D01*
X0271551Y0272754D01*
X0271589Y0272783D01*
X0271624Y0272816D01*
X0271657Y0272851D01*
X0271686Y0272889D01*
X0271713Y0272929D01*
X0271736Y0272971D01*
X0271756Y0273014D01*
X0271773Y0273059D01*
X0271786Y0273105D01*
X0271795Y0273152D01*
X0271801Y0273200D01*
X0271803Y0273248D01*
X0254475Y0268618D02*
X0252275Y0268618D01*
X0252275Y0268007D02*
X0252275Y0269229D01*
X0253986Y0268007D02*
X0254475Y0268618D01*
X0253864Y0266997D02*
X0252886Y0266997D01*
X0252838Y0266995D01*
X0252790Y0266989D01*
X0252743Y0266980D01*
X0252697Y0266967D01*
X0252652Y0266950D01*
X0252609Y0266930D01*
X0252567Y0266907D01*
X0252527Y0266880D01*
X0252489Y0266851D01*
X0252454Y0266818D01*
X0252421Y0266783D01*
X0252392Y0266745D01*
X0252365Y0266705D01*
X0252342Y0266663D01*
X0252322Y0266620D01*
X0252305Y0266575D01*
X0252292Y0266529D01*
X0252283Y0266482D01*
X0252277Y0266434D01*
X0252275Y0266386D01*
X0252275Y0265775D01*
X0254475Y0265775D01*
X0254475Y0266386D01*
X0254473Y0266434D01*
X0254467Y0266482D01*
X0254458Y0266529D01*
X0254445Y0266575D01*
X0254428Y0266620D01*
X0254408Y0266663D01*
X0254385Y0266705D01*
X0254358Y0266745D01*
X0254329Y0266783D01*
X0254296Y0266818D01*
X0254261Y0266851D01*
X0254223Y0266880D01*
X0254183Y0266907D01*
X0254141Y0266930D01*
X0254098Y0266950D01*
X0254053Y0266967D01*
X0254007Y0266980D01*
X0253960Y0266989D01*
X0253912Y0266995D01*
X0253864Y0266997D01*
X0226075Y0273386D02*
X0226075Y0274364D01*
X0226073Y0274412D01*
X0226067Y0274460D01*
X0226058Y0274507D01*
X0226045Y0274553D01*
X0226028Y0274598D01*
X0226008Y0274641D01*
X0225985Y0274683D01*
X0225958Y0274723D01*
X0225929Y0274761D01*
X0225896Y0274796D01*
X0225861Y0274829D01*
X0225823Y0274858D01*
X0225783Y0274885D01*
X0225741Y0274908D01*
X0225698Y0274928D01*
X0225653Y0274945D01*
X0225607Y0274958D01*
X0225560Y0274967D01*
X0225512Y0274973D01*
X0225464Y0274975D01*
X0225416Y0274973D01*
X0225368Y0274967D01*
X0225321Y0274958D01*
X0225275Y0274945D01*
X0225230Y0274928D01*
X0225187Y0274908D01*
X0225145Y0274885D01*
X0225105Y0274858D01*
X0225067Y0274829D01*
X0225032Y0274796D01*
X0224999Y0274761D01*
X0224970Y0274723D01*
X0224943Y0274683D01*
X0224920Y0274641D01*
X0224900Y0274598D01*
X0224883Y0274553D01*
X0224870Y0274507D01*
X0224861Y0274460D01*
X0224855Y0274412D01*
X0224853Y0274364D01*
X0224853Y0273386D01*
X0225097Y0273264D02*
X0224608Y0272775D01*
X0223972Y0272775D02*
X0222749Y0272775D01*
X0223361Y0272775D02*
X0223361Y0274975D01*
X0223972Y0274486D01*
X0224853Y0273386D02*
X0224855Y0273338D01*
X0224861Y0273290D01*
X0224870Y0273243D01*
X0224883Y0273197D01*
X0224900Y0273152D01*
X0224920Y0273109D01*
X0224943Y0273067D01*
X0224970Y0273027D01*
X0224999Y0272989D01*
X0225032Y0272954D01*
X0225067Y0272921D01*
X0225105Y0272892D01*
X0225145Y0272865D01*
X0225187Y0272842D01*
X0225230Y0272822D01*
X0225275Y0272805D01*
X0225321Y0272792D01*
X0225368Y0272783D01*
X0225416Y0272777D01*
X0225464Y0272775D01*
X0225512Y0272777D01*
X0225560Y0272783D01*
X0225607Y0272792D01*
X0225653Y0272805D01*
X0225698Y0272822D01*
X0225741Y0272842D01*
X0225783Y0272865D01*
X0225823Y0272892D01*
X0225861Y0272921D01*
X0225896Y0272954D01*
X0225929Y0272989D01*
X0225958Y0273027D01*
X0225985Y0273067D01*
X0226008Y0273109D01*
X0226028Y0273152D01*
X0226045Y0273197D01*
X0226058Y0273243D01*
X0226067Y0273290D01*
X0226073Y0273338D01*
X0226075Y0273386D01*
X0224700Y0227337D02*
X0223967Y0227337D01*
X0223924Y0227335D01*
X0223882Y0227330D01*
X0223840Y0227320D01*
X0223800Y0227308D01*
X0223760Y0227291D01*
X0223723Y0227271D01*
X0223687Y0227249D01*
X0223653Y0227223D01*
X0223621Y0227194D01*
X0223592Y0227162D01*
X0223566Y0227128D01*
X0223544Y0227093D01*
X0223524Y0227055D01*
X0223507Y0227015D01*
X0223495Y0226975D01*
X0223485Y0226933D01*
X0223480Y0226891D01*
X0223478Y0226848D01*
X0223480Y0226805D01*
X0223485Y0226763D01*
X0223495Y0226721D01*
X0223507Y0226681D01*
X0223524Y0226641D01*
X0223544Y0226604D01*
X0223566Y0226568D01*
X0223592Y0226534D01*
X0223621Y0226502D01*
X0223653Y0226473D01*
X0223687Y0226447D01*
X0223723Y0226425D01*
X0223760Y0226405D01*
X0223800Y0226388D01*
X0223840Y0226376D01*
X0223882Y0226366D01*
X0223924Y0226361D01*
X0223967Y0226359D01*
X0224456Y0226359D01*
X0224089Y0226359D02*
X0224041Y0226357D01*
X0223993Y0226351D01*
X0223946Y0226342D01*
X0223900Y0226329D01*
X0223855Y0226312D01*
X0223812Y0226292D01*
X0223770Y0226269D01*
X0223730Y0226242D01*
X0223692Y0226213D01*
X0223657Y0226180D01*
X0223624Y0226145D01*
X0223595Y0226107D01*
X0223568Y0226067D01*
X0223545Y0226025D01*
X0223525Y0225982D01*
X0223508Y0225937D01*
X0223495Y0225891D01*
X0223486Y0225844D01*
X0223480Y0225796D01*
X0223478Y0225748D01*
X0223480Y0225700D01*
X0223486Y0225652D01*
X0223495Y0225605D01*
X0223508Y0225559D01*
X0223525Y0225514D01*
X0223545Y0225471D01*
X0223568Y0225429D01*
X0223595Y0225389D01*
X0223624Y0225351D01*
X0223657Y0225316D01*
X0223692Y0225283D01*
X0223730Y0225254D01*
X0223770Y0225227D01*
X0223812Y0225204D01*
X0223855Y0225184D01*
X0223900Y0225167D01*
X0223946Y0225154D01*
X0223993Y0225145D01*
X0224041Y0225139D01*
X0224089Y0225137D01*
X0224700Y0225137D01*
X0225337Y0225137D02*
X0225826Y0225626D01*
X0225581Y0225748D02*
X0225581Y0226726D01*
X0225583Y0226774D01*
X0225589Y0226822D01*
X0225598Y0226869D01*
X0225611Y0226915D01*
X0225628Y0226960D01*
X0225648Y0227003D01*
X0225671Y0227045D01*
X0225698Y0227085D01*
X0225727Y0227123D01*
X0225760Y0227158D01*
X0225795Y0227191D01*
X0225833Y0227220D01*
X0225873Y0227247D01*
X0225915Y0227270D01*
X0225958Y0227290D01*
X0226003Y0227307D01*
X0226049Y0227320D01*
X0226096Y0227329D01*
X0226144Y0227335D01*
X0226192Y0227337D01*
X0226240Y0227335D01*
X0226288Y0227329D01*
X0226335Y0227320D01*
X0226381Y0227307D01*
X0226426Y0227290D01*
X0226469Y0227270D01*
X0226511Y0227247D01*
X0226551Y0227220D01*
X0226589Y0227191D01*
X0226624Y0227158D01*
X0226657Y0227123D01*
X0226686Y0227085D01*
X0226713Y0227045D01*
X0226736Y0227003D01*
X0226756Y0226960D01*
X0226773Y0226915D01*
X0226786Y0226869D01*
X0226795Y0226822D01*
X0226801Y0226774D01*
X0226803Y0226726D01*
X0226803Y0225748D01*
X0226801Y0225700D01*
X0226795Y0225652D01*
X0226786Y0225605D01*
X0226773Y0225559D01*
X0226756Y0225514D01*
X0226736Y0225471D01*
X0226713Y0225429D01*
X0226686Y0225389D01*
X0226657Y0225351D01*
X0226624Y0225316D01*
X0226589Y0225283D01*
X0226551Y0225254D01*
X0226511Y0225227D01*
X0226469Y0225204D01*
X0226426Y0225184D01*
X0226381Y0225167D01*
X0226335Y0225154D01*
X0226288Y0225145D01*
X0226240Y0225139D01*
X0226192Y0225137D01*
X0226144Y0225139D01*
X0226096Y0225145D01*
X0226049Y0225154D01*
X0226003Y0225167D01*
X0225958Y0225184D01*
X0225915Y0225204D01*
X0225873Y0225227D01*
X0225833Y0225254D01*
X0225795Y0225283D01*
X0225760Y0225316D01*
X0225727Y0225351D01*
X0225698Y0225389D01*
X0225671Y0225429D01*
X0225648Y0225471D01*
X0225628Y0225514D01*
X0225611Y0225559D01*
X0225598Y0225605D01*
X0225589Y0225652D01*
X0225583Y0225700D01*
X0225581Y0225748D01*
X0252137Y0220390D02*
X0252137Y0219779D01*
X0252137Y0220390D02*
X0252139Y0220438D01*
X0252145Y0220486D01*
X0252154Y0220533D01*
X0252167Y0220579D01*
X0252184Y0220624D01*
X0252204Y0220667D01*
X0252227Y0220709D01*
X0252254Y0220749D01*
X0252283Y0220787D01*
X0252316Y0220822D01*
X0252351Y0220855D01*
X0252389Y0220884D01*
X0252429Y0220911D01*
X0252471Y0220934D01*
X0252514Y0220954D01*
X0252559Y0220971D01*
X0252605Y0220984D01*
X0252652Y0220993D01*
X0252700Y0220999D01*
X0252748Y0221001D01*
X0252796Y0220999D01*
X0252844Y0220993D01*
X0252891Y0220984D01*
X0252937Y0220971D01*
X0252982Y0220954D01*
X0253025Y0220934D01*
X0253067Y0220911D01*
X0253107Y0220884D01*
X0253145Y0220855D01*
X0253180Y0220822D01*
X0253213Y0220787D01*
X0253242Y0220749D01*
X0253269Y0220709D01*
X0253292Y0220667D01*
X0253312Y0220624D01*
X0253329Y0220579D01*
X0253342Y0220533D01*
X0253351Y0220486D01*
X0253357Y0220438D01*
X0253359Y0220390D01*
X0253359Y0220512D02*
X0253359Y0220023D01*
X0253359Y0220512D02*
X0253361Y0220555D01*
X0253366Y0220597D01*
X0253376Y0220639D01*
X0253388Y0220679D01*
X0253405Y0220719D01*
X0253425Y0220757D01*
X0253447Y0220792D01*
X0253473Y0220826D01*
X0253502Y0220858D01*
X0253534Y0220887D01*
X0253568Y0220913D01*
X0253604Y0220935D01*
X0253641Y0220955D01*
X0253681Y0220972D01*
X0253721Y0220984D01*
X0253763Y0220994D01*
X0253805Y0220999D01*
X0253848Y0221001D01*
X0253891Y0220999D01*
X0253933Y0220994D01*
X0253975Y0220984D01*
X0254015Y0220972D01*
X0254055Y0220955D01*
X0254093Y0220935D01*
X0254128Y0220913D01*
X0254162Y0220887D01*
X0254194Y0220858D01*
X0254223Y0220826D01*
X0254249Y0220792D01*
X0254271Y0220757D01*
X0254291Y0220719D01*
X0254308Y0220679D01*
X0254320Y0220639D01*
X0254330Y0220597D01*
X0254335Y0220555D01*
X0254337Y0220512D01*
X0254337Y0219779D01*
X0253726Y0218769D02*
X0252748Y0218769D01*
X0252700Y0218767D01*
X0252652Y0218761D01*
X0252605Y0218752D01*
X0252559Y0218739D01*
X0252514Y0218722D01*
X0252471Y0218702D01*
X0252429Y0218679D01*
X0252389Y0218652D01*
X0252351Y0218623D01*
X0252316Y0218590D01*
X0252283Y0218555D01*
X0252254Y0218517D01*
X0252227Y0218477D01*
X0252204Y0218435D01*
X0252184Y0218392D01*
X0252167Y0218347D01*
X0252154Y0218301D01*
X0252145Y0218254D01*
X0252139Y0218206D01*
X0252137Y0218158D01*
X0252137Y0217547D01*
X0254337Y0217547D01*
X0254337Y0218158D01*
X0254335Y0218206D01*
X0254329Y0218254D01*
X0254320Y0218301D01*
X0254307Y0218347D01*
X0254290Y0218392D01*
X0254270Y0218435D01*
X0254247Y0218477D01*
X0254220Y0218517D01*
X0254191Y0218555D01*
X0254158Y0218590D01*
X0254123Y0218623D01*
X0254085Y0218652D01*
X0254045Y0218679D01*
X0254003Y0218702D01*
X0253960Y0218722D01*
X0253915Y0218739D01*
X0253869Y0218752D01*
X0253822Y0218761D01*
X0253774Y0218767D01*
X0253726Y0218769D01*
X0268478Y0225626D02*
X0269700Y0225626D01*
X0269211Y0227337D01*
X0268845Y0226115D02*
X0268845Y0225137D01*
X0270337Y0225137D02*
X0270826Y0225626D01*
X0270581Y0225748D02*
X0270581Y0226726D01*
X0270583Y0226774D01*
X0270589Y0226822D01*
X0270598Y0226869D01*
X0270611Y0226915D01*
X0270628Y0226960D01*
X0270648Y0227003D01*
X0270671Y0227045D01*
X0270698Y0227085D01*
X0270727Y0227123D01*
X0270760Y0227158D01*
X0270795Y0227191D01*
X0270833Y0227220D01*
X0270873Y0227247D01*
X0270915Y0227270D01*
X0270958Y0227290D01*
X0271003Y0227307D01*
X0271049Y0227320D01*
X0271096Y0227329D01*
X0271144Y0227335D01*
X0271192Y0227337D01*
X0271240Y0227335D01*
X0271288Y0227329D01*
X0271335Y0227320D01*
X0271381Y0227307D01*
X0271426Y0227290D01*
X0271469Y0227270D01*
X0271511Y0227247D01*
X0271551Y0227220D01*
X0271589Y0227191D01*
X0271624Y0227158D01*
X0271657Y0227123D01*
X0271686Y0227085D01*
X0271713Y0227045D01*
X0271736Y0227003D01*
X0271756Y0226960D01*
X0271773Y0226915D01*
X0271786Y0226869D01*
X0271795Y0226822D01*
X0271801Y0226774D01*
X0271803Y0226726D01*
X0271803Y0225748D01*
X0271801Y0225700D01*
X0271795Y0225652D01*
X0271786Y0225605D01*
X0271773Y0225559D01*
X0271756Y0225514D01*
X0271736Y0225471D01*
X0271713Y0225429D01*
X0271686Y0225389D01*
X0271657Y0225351D01*
X0271624Y0225316D01*
X0271589Y0225283D01*
X0271551Y0225254D01*
X0271511Y0225227D01*
X0271469Y0225204D01*
X0271426Y0225184D01*
X0271381Y0225167D01*
X0271335Y0225154D01*
X0271288Y0225145D01*
X0271240Y0225139D01*
X0271192Y0225137D01*
X0271144Y0225139D01*
X0271096Y0225145D01*
X0271049Y0225154D01*
X0271003Y0225167D01*
X0270958Y0225184D01*
X0270915Y0225204D01*
X0270873Y0225227D01*
X0270833Y0225254D01*
X0270795Y0225283D01*
X0270760Y0225316D01*
X0270727Y0225351D01*
X0270698Y0225389D01*
X0270671Y0225429D01*
X0270648Y0225471D01*
X0270628Y0225514D01*
X0270611Y0225559D01*
X0270598Y0225605D01*
X0270589Y0225652D01*
X0270583Y0225700D01*
X0270581Y0225748D01*
X0297137Y0220634D02*
X0298115Y0220634D01*
X0297626Y0221001D02*
X0297626Y0219779D01*
X0299337Y0220268D01*
X0298726Y0218769D02*
X0297748Y0218769D01*
X0297700Y0218767D01*
X0297652Y0218761D01*
X0297605Y0218752D01*
X0297559Y0218739D01*
X0297514Y0218722D01*
X0297471Y0218702D01*
X0297429Y0218679D01*
X0297389Y0218652D01*
X0297351Y0218623D01*
X0297316Y0218590D01*
X0297283Y0218555D01*
X0297254Y0218517D01*
X0297227Y0218477D01*
X0297204Y0218435D01*
X0297184Y0218392D01*
X0297167Y0218347D01*
X0297154Y0218301D01*
X0297145Y0218254D01*
X0297139Y0218206D01*
X0297137Y0218158D01*
X0297137Y0217547D01*
X0299337Y0217547D01*
X0299337Y0218158D01*
X0299335Y0218206D01*
X0299329Y0218254D01*
X0299320Y0218301D01*
X0299307Y0218347D01*
X0299290Y0218392D01*
X0299270Y0218435D01*
X0299247Y0218477D01*
X0299220Y0218517D01*
X0299191Y0218555D01*
X0299158Y0218590D01*
X0299123Y0218623D01*
X0299085Y0218652D01*
X0299045Y0218679D01*
X0299003Y0218702D01*
X0298960Y0218722D01*
X0298915Y0218739D01*
X0298869Y0218752D01*
X0298822Y0218761D01*
X0298774Y0218767D01*
X0298726Y0218769D01*
X0271803Y0179895D02*
X0271803Y0178918D01*
X0271801Y0178870D01*
X0271795Y0178822D01*
X0271786Y0178775D01*
X0271773Y0178729D01*
X0271756Y0178684D01*
X0271736Y0178641D01*
X0271713Y0178599D01*
X0271686Y0178559D01*
X0271657Y0178521D01*
X0271624Y0178486D01*
X0271589Y0178453D01*
X0271551Y0178424D01*
X0271511Y0178397D01*
X0271469Y0178374D01*
X0271426Y0178354D01*
X0271381Y0178337D01*
X0271335Y0178324D01*
X0271288Y0178315D01*
X0271240Y0178309D01*
X0271192Y0178307D01*
X0271144Y0178309D01*
X0271096Y0178315D01*
X0271049Y0178324D01*
X0271003Y0178337D01*
X0270958Y0178354D01*
X0270915Y0178374D01*
X0270873Y0178397D01*
X0270833Y0178424D01*
X0270795Y0178453D01*
X0270760Y0178486D01*
X0270727Y0178521D01*
X0270698Y0178559D01*
X0270671Y0178599D01*
X0270648Y0178641D01*
X0270628Y0178684D01*
X0270611Y0178729D01*
X0270598Y0178775D01*
X0270589Y0178822D01*
X0270583Y0178870D01*
X0270581Y0178918D01*
X0270581Y0179895D01*
X0270583Y0179943D01*
X0270589Y0179991D01*
X0270598Y0180038D01*
X0270611Y0180084D01*
X0270628Y0180129D01*
X0270648Y0180172D01*
X0270671Y0180214D01*
X0270698Y0180254D01*
X0270727Y0180292D01*
X0270760Y0180327D01*
X0270795Y0180360D01*
X0270833Y0180389D01*
X0270873Y0180416D01*
X0270915Y0180439D01*
X0270958Y0180459D01*
X0271003Y0180476D01*
X0271049Y0180489D01*
X0271096Y0180498D01*
X0271144Y0180504D01*
X0271192Y0180506D01*
X0271240Y0180504D01*
X0271288Y0180498D01*
X0271335Y0180489D01*
X0271381Y0180476D01*
X0271426Y0180459D01*
X0271469Y0180439D01*
X0271511Y0180416D01*
X0271551Y0180389D01*
X0271589Y0180360D01*
X0271624Y0180327D01*
X0271657Y0180292D01*
X0271686Y0180254D01*
X0271713Y0180214D01*
X0271736Y0180172D01*
X0271756Y0180129D01*
X0271773Y0180084D01*
X0271786Y0180038D01*
X0271795Y0179991D01*
X0271801Y0179943D01*
X0271803Y0179895D01*
X0270826Y0178795D02*
X0270337Y0178306D01*
X0269700Y0178306D02*
X0268967Y0178306D01*
X0268924Y0178308D01*
X0268882Y0178313D01*
X0268840Y0178323D01*
X0268800Y0178335D01*
X0268760Y0178352D01*
X0268723Y0178372D01*
X0268687Y0178394D01*
X0268653Y0178420D01*
X0268621Y0178449D01*
X0268592Y0178481D01*
X0268566Y0178515D01*
X0268544Y0178550D01*
X0268524Y0178588D01*
X0268507Y0178628D01*
X0268495Y0178668D01*
X0268485Y0178710D01*
X0268480Y0178752D01*
X0268478Y0178795D01*
X0268478Y0179040D01*
X0268480Y0179083D01*
X0268485Y0179125D01*
X0268495Y0179167D01*
X0268507Y0179207D01*
X0268524Y0179247D01*
X0268544Y0179285D01*
X0268566Y0179320D01*
X0268592Y0179354D01*
X0268621Y0179386D01*
X0268653Y0179415D01*
X0268687Y0179441D01*
X0268723Y0179463D01*
X0268760Y0179483D01*
X0268800Y0179500D01*
X0268840Y0179512D01*
X0268882Y0179522D01*
X0268924Y0179527D01*
X0268967Y0179529D01*
X0269700Y0179529D01*
X0269700Y0180506D01*
X0268478Y0180506D01*
X0297029Y0173475D02*
X0297029Y0172741D01*
X0297029Y0173475D02*
X0297031Y0173518D01*
X0297036Y0173560D01*
X0297046Y0173602D01*
X0297058Y0173642D01*
X0297075Y0173682D01*
X0297095Y0173719D01*
X0297117Y0173755D01*
X0297143Y0173789D01*
X0297172Y0173821D01*
X0297204Y0173850D01*
X0297238Y0173876D01*
X0297273Y0173898D01*
X0297311Y0173918D01*
X0297351Y0173935D01*
X0297391Y0173947D01*
X0297433Y0173957D01*
X0297475Y0173962D01*
X0297518Y0173964D01*
X0297518Y0173963D02*
X0297762Y0173963D01*
X0297762Y0173964D02*
X0297805Y0173962D01*
X0297847Y0173957D01*
X0297889Y0173947D01*
X0297929Y0173935D01*
X0297969Y0173918D01*
X0298007Y0173898D01*
X0298042Y0173876D01*
X0298076Y0173850D01*
X0298108Y0173821D01*
X0298137Y0173789D01*
X0298163Y0173755D01*
X0298185Y0173720D01*
X0298205Y0173682D01*
X0298222Y0173642D01*
X0298234Y0173602D01*
X0298244Y0173560D01*
X0298249Y0173518D01*
X0298251Y0173475D01*
X0298251Y0172741D01*
X0299229Y0172741D01*
X0299229Y0173963D01*
X0298618Y0171731D02*
X0297640Y0171731D01*
X0297592Y0171729D01*
X0297544Y0171723D01*
X0297497Y0171714D01*
X0297451Y0171701D01*
X0297406Y0171684D01*
X0297363Y0171664D01*
X0297321Y0171641D01*
X0297281Y0171614D01*
X0297243Y0171585D01*
X0297208Y0171552D01*
X0297175Y0171517D01*
X0297146Y0171479D01*
X0297119Y0171439D01*
X0297096Y0171397D01*
X0297076Y0171354D01*
X0297059Y0171309D01*
X0297046Y0171263D01*
X0297037Y0171216D01*
X0297031Y0171168D01*
X0297029Y0171120D01*
X0297029Y0170509D01*
X0299229Y0170509D01*
X0299229Y0171120D01*
X0299227Y0171168D01*
X0299221Y0171216D01*
X0299212Y0171263D01*
X0299199Y0171309D01*
X0299182Y0171354D01*
X0299162Y0171397D01*
X0299139Y0171439D01*
X0299112Y0171479D01*
X0299083Y0171517D01*
X0299050Y0171552D01*
X0299015Y0171585D01*
X0298977Y0171614D01*
X0298937Y0171641D01*
X0298895Y0171664D01*
X0298852Y0171684D01*
X0298807Y0171701D01*
X0298761Y0171714D01*
X0298714Y0171723D01*
X0298666Y0171729D01*
X0298618Y0171731D01*
D13*
X0292929Y0173834D03*
X0293037Y0220872D03*
X0248037Y0220872D03*
X0293037Y0268372D03*
X0248175Y0269100D03*
M02*
